<?xml version="1.0" encoding="utf-8" ?>
<svg baseProfile="full" height="200mm" version="1.1" viewBox="0,0,200,200" width="200mm" xmlns="http://www.w3.org/2000/svg" xmlns:ev="http://www.w3.org/2001/xml-events" xmlns:xlink="http://www.w3.org/1999/xlink"><defs /><rect fill="#1a1a1a" height="200" width="200" x="0" y="0" /><text alignment-baseline="middle" fill="#e1ed5e" style="dominant-baseline: central; font-size:9.0px; font-family:Arial;" text-anchor="middle" x="100.0" y="100.0">2024</text><line stroke="#e1ed5e" stroke-width="0.3" x1="100.0" x2="100.0" y1="15.0" y2="10.0" /><path d="M 100.0 14.0 a86.0,86.0 0 0,1 42.35913384403234,11.155469271406648" fill="none" id="id109" stroke="none" /><text fill="#e1ed5e" style="font-size:6.75px; font-family:Arial;" text-anchor="middle"><textPath startOffset="22.145653131862478" xlink:href="#id109">January</textPath></text><path d="M 101.08105385017728 79.02784411241856 l 1.0106310207600204 -19.60597181049678 a40.632002080636525,40.632002080636525 0 0,0 0.6962693063277425,0.04188583247946623 l -1.3470446792202255 19.585734000192623" fill="#ff3d05" stroke="none" /><path d="M 101.44090949804482 79.04949213459386 l 1.3985194067574112 -20.3341652414335 a41.382201367786536,41.382201367786536 0 0,0 0.7082879160017724,0.05482596422438889 l -1.7473763175344172 20.307161510214055" fill="#ff4b07" stroke="none" /><path d="M 101.80034050326958 79.07731436759882 l 4.66943538908842 -54.26591722470227 a75.46644287165364,75.46644287165364 0 0,0 1.28975901411507,0.12214151959408813 l -5.600293966588502 54.177763949603" fill="#3fffbd" stroke="none" /><path d="M 102.51750503828377 79.15144685158666 l 2.621839349185285 -21.712590913166405 a42.87031425781195,42.87031425781195 0 0,0 0.7298613395085322,0.09449516273245125 l -2.994178510584609 21.664384154233556" fill="#ff6709" stroke="none" /><path d="M 102.87502721639298 79.19773525538626 l 2.490088806115034 -18.01704216469711 a39.188302576843526,39.188302576843526 0 0,0 0.665594461095708,0.09781946477698944 l -2.799008372818424 17.97164162662124" fill="#ff2203" stroke="none" /><path d="M 103.23170211078529 79.25015418208739 l 4.614450868905715 -29.628084762075932 a50.98527244315617,50.98527244315617 0 0,0 0.8636480200475709,0.14211295304221244 l -5.122376392006357 29.544505810538052" fill="#fff316" stroke="none" /><path d="M 103.94208987418118 79.37332000966035 l 3.453681469442222 -18.071120834998172 a39.398188060933435,39.398188060933435 0 0,0 0.6632094258691553,0.132660459437083 l -3.7633873808423344 18.00917097889823" fill="#ff2603" stroke="none" /><path d="M 104.29559338865022 79.4440306129975 l 5.895581066892995 -28.212489629453678 a49.82190915273203,49.82190915273203 0 0,0 0.8356737561609227,0.1821312056499795 l -6.379017239673051 28.10712696566998" fill="#ffe014" stroke="none" /><path d="M 104.64783097203109 79.52079915486377 l 13.943492916093248 -61.4376025354087 a84.0,84.0 0 0,0 1.40347138504046,0.3312154254150901 l -14.996096454873593 61.18919096634738" fill="#4dd2ff" stroke="none" /><path d="M 104.9986988182912 79.60360301121754 l 4.398540608275972 -17.947546687428996 a39.47867937868116,39.47867937868116 0 0,0 0.6568400764458557,0.16696617887939838 l -4.705985977947223 17.86939527671433" fill="#ff2703" stroke="none" /><path d="M 105.3480935250658 79.69241777938227 l 4.183275052173573 -15.884576751568401 a37.42618545915652,37.42618545915652 0 0,0 0.6198820664172473,0.1689516136951302 l -4.4553385195255135 15.810424643729128" fill="#ff0000" stroke="none" /><line stroke="#e1ed5e" stroke-width="0.3" x1="143.13028292997686" x2="145.6673583964461" y1="26.7553504044142" y2="22.446841604673864" /><path d="M 143.63769802327073 25.89364864446614 a86.0,86.0 0 0,1 29.32050498858742,28.57503671076993" fill="none" id="id110" stroke="none" /><text fill="#e1ed5e" style="font-size:6.75px; font-family:Arial;" text-anchor="middle"><textPath startOffset="20.669276256404974" xlink:href="#id110">February</textPath></text><line stroke="#e1ed5e" stroke-width="0.3" x1="172.87174338648825" x2="177.1583165268699" y1="56.24261187166439" y2="53.66864786411523" /><path d="M 173.72905801456457 55.72781907015455 a86.0,86.0 0 0,1 12.242430191666344,42.057860355516425" fill="none" id="id111" stroke="none" /><text fill="#e1ed5e" style="font-size:6.75px; font-family:Arial;" text-anchor="middle"><textPath startOffset="22.145653131862474" xlink:href="#id111">March</textPath></text><line stroke="#e1ed5e" stroke-width="0.3" x1="184.99686870605535" x2="189.99668451229388" y1="99.2704041080226" y2="99.22748670261217" /><path d="M 185.99683186730306 99.26182062694052 a86.0,86.0 0 0,1 -10.086455211305974,41.156179273409016" fill="none" id="id112" stroke="none" /><text fill="#e1ed5e" style="font-size:6.75px; font-family:Arial;" text-anchor="middle"><textPath startOffset="21.40746469413373" xlink:href="#id112">April</textPath></text><line stroke="#e1ed5e" stroke-width="0.3" x1="174.33088141563837" x2="178.70328620479359" y1="141.23008692659167" y2="143.65538615756765" /><path d="M 175.20536237346943 141.71514677278685 a86.0,86.0 0 0,1 -30.301960400862466,31.631185727798858" fill="none" id="id113" stroke="none" /><text fill="#e1ed5e" style="font-size:6.75px; font-family:Arial;" text-anchor="middle"><textPath startOffset="22.145653131862474" xlink:href="#id113">May</textPath></text><line stroke="#e1ed5e" stroke-width="0.3" x1="143.1302829299769" x2="145.66735839644613" y1="173.24464959558577" y2="177.55315839532614" /><path d="M 143.63769802327073 174.10635135553383 a86.0,86.0 0 0,1 -40.68552437913181,11.842963189579606" fill="none" id="id114" stroke="none" /><text fill="#e1ed5e" style="font-size:6.75px; font-family:Arial;" text-anchor="middle"><textPath startOffset="21.407464694133747" xlink:href="#id114">June</textPath></text><line stroke="#e1ed5e" stroke-width="0.3" x1="101.45913802915013" x2="101.54496967792366" y1="184.9874750549273" y2="189.98673829345242" /><path d="M 101.47630435890484 185.9873277026323 a86.0,86.0 0 0,1 -42.54439059252881,-10.42667462771756" fill="none" id="id115" stroke="none" /><text fill="#e1ed5e" style="font-size:6.75px; font-family:Arial;" text-anchor="middle"><textPath startOffset="22.145653131862474" xlink:href="#id115">July</textPath></text><line stroke="#e1ed5e" stroke-width="0.3" x1="58.13341422392154" x2="55.67067388415222" y1="173.97424548756322" y2="178.32567169271397" /><path d="M 57.64086615596768 174.84453072859336 a86.0,86.0 0 0,1 -31.369924170532247,-30.572349798747897" fill="none" id="id116" stroke="none" /><text fill="#e1ed5e" style="font-size:6.75px; font-family:Arial;" text-anchor="middle"><textPath startOffset="22.145653131862474" xlink:href="#id116">August</textPath></text><line stroke="#e1ed5e" stroke-width="0.3" x1="26.387840678322732" x2="22.057713659400548" y1="142.50000000000003" y2="145.00000000000006" /><path d="M 25.521815274538298 143.00000000000003 a86.0,86.0 0 0,1 -11.493303480769221,-40.785679425670985" fill="none" id="id117" stroke="none" /><text fill="#e1ed5e" style="font-size:6.75px; font-family:Arial;" text-anchor="middle"><textPath startOffset="21.40746469413373" xlink:href="#id117">September</textPath></text><line stroke="#e1ed5e" stroke-width="0.3" x1="15.003131293944662" x2="10.003315487706104" y1="100.72959589197737" y2="100.7725132973878" /><path d="M 14.003168132696942 100.73817937305945 a86.0,86.0 0 0,1 10.791469493833604,-42.45332614584628" fill="none" id="id118" stroke="none" /><text fill="#e1ed5e" style="font-size:6.75px; font-family:Arial;" text-anchor="middle"><textPath startOffset="22.145653131862435" xlink:href="#id118">October</textPath></text><line stroke="#e1ed5e" stroke-width="0.3" x1="26.387840678322718" x2="22.05771365940052" y1="57.49999999999999" y2="54.99999999999999" /><path d="M 25.521815274538284 56.99999999999999 a86.0,86.0 0 0,1 29.574782752854787,-30.34633250058573" fill="none" id="id119" stroke="none" /><text fill="#e1ed5e" style="font-size:6.75px; font-family:Arial;" text-anchor="middle"><textPath startOffset="21.40746469413373" xlink:href="#id119">November</textPath></text><line stroke="#e1ed5e" stroke-width="0.3" x1="56.869717070023135" x2="54.33264160355391" y1="26.7553504044142" y2="22.446841604673864" /><path d="M 56.362301976729285 25.89364864446614 a86.0,86.0 0 0,1 42.16139366436587,-11.88097634709845" fill="none" id="id120" stroke="none" /><text fill="#e1ed5e" style="font-size:6.75px; font-family:Arial;" text-anchor="middle"><textPath startOffset="22.145653131862474" xlink:href="#id120">December</textPath></text></svg>