<?xml version="1.0" encoding="utf-8" ?>
<svg baseProfile="full" height="200mm" version="1.1" viewBox="0,0,200,200" width="200mm" xmlns="http://www.w3.org/2000/svg" xmlns:ev="http://www.w3.org/2001/xml-events" xmlns:xlink="http://www.w3.org/1999/xlink"><defs /><rect fill="#1a1a1a" height="200" width="200" x="0" y="0" /><text alignment-baseline="middle" fill="#e1ed5e" style="dominant-baseline: central; font-size:9.0px; font-family:Arial;" text-anchor="middle" x="100.0" y="100.0">2023</text><line stroke="#e1ed5e" stroke-width="0.3" x1="100.0" x2="100.0" y1="15.0" y2="10.0" /><path d="M 100.0 14.0 a86.0,86.0 0 0,1 42.46469731375804,11.215312516191453" fill="none" id="id97" stroke="none" /><text fill="#e1ed5e" style="font-size:6.75px; font-family:Arial;" text-anchor="middle"><textPath startOffset="22.20632615414155" xlink:href="#id97">January</textPath></text><path d="M 101.44485096284872 79.0497635885617 l 0.942861603483296 -13.671426329880294 a34.70390038991335,34.70390038991335 0 0,0 0.5956012460912783,0.046230119735498565 l -1.1780530389369155 13.653170947956331" fill="#ff6d0a" stroke="none" /><path d="M 102.52436894288641 79.15227682838746 l 1.6392153723533438 -13.537604476467397 a34.63648642423075,34.63648642423075 0 0,0 0.5912700113964126,0.07676381704220543 l -1.8720001122576024 13.507382336261056" fill="#ff6c0a" stroke="none" /><path d="M 103.2404852339499 79.25152402106235 l 2.046110106740171 -13.101021401110415 a34.259838925162605,34.259838925162605 0 0,0 0.5818801879520006,0.09601521675392057 l -2.271319500831047 13.063859921416869" fill="#ff6709" stroke="none" /><path d="M 104.66035177308747 79.52364482259891 l 6.477855979034315 -28.46198876675831 a50.1898513638591,50.1898513638591 0 0,0 0.8407428983179673,0.19897668071826044 l -6.966822564314805 28.34626617389918" fill="#bcff1f" stroke="none" /><path d="M 106.0581310904928 79.89281104454417 l 3.847418528618555 -12.769742052472212 a34.336751531802435,34.336751531802435 0 0,0 0.5644547086845644,0.17537882561302542 l -4.066658610013837 12.701623091976666" fill="#ff6809" stroke="none" /><path d="M 109.73455568895987 81.39251694778311 l 4.978252211489952 -9.515867658964344 a31.739400932274023,31.739400932274023 0 0,0 0.4819173908323577,0.25742358032649165 l -5.141314648850621 9.428765352136098" fill="#ff4006" stroke="none" /><line stroke="#e1ed5e" stroke-width="0.3" x1="143.23703022742887" x2="145.7803849466894" y1="26.81831364943548" y2="22.513508569990506" /><path d="M 143.74570117128098 25.957352633546492 a86.0,86.0 0 0,1 28.547481713284135,27.462654790039103" fill="none" id="id98" stroke="none" /><text fill="#e1ed5e" style="font-size:6.75px; font-family:Arial;" text-anchor="middle"><textPath startOffset="19.985693538727396" xlink:href="#id98">February</textPath></text><path d="M 110.99172775467656 82.1063720568725 l 6.999929383889201 -11.395308801219922 a34.37355876551173,34.37355876551173 0 0,0 0.501495241455205,0.3140362741919875 l -7.19504377771667 11.27312818570499" fill="#ff6809" stroke="none" /><path d="M 111.60114157652 82.49532879139004 l 12.030941252300972 -18.15318514669861 a42.778009054700945,42.778009054700945 0 0,0 0.6102900331153738,0.4120705546355061 l -12.341635979822888 17.943402679764432" fill="#ffe115" stroke="none" /><path d="M 112.48926042617603 83.11751280151076 l 7.88064481695415 -10.652743292887267 a34.25086798648077,34.25086798648077 0 0,0 0.47095570801000913,0.3547140753373728 l -8.062846678722542 10.515512628044046" fill="#ff6609" stroke="none" /><path d="M 113.06298171725822 83.55741782278167 l 8.273433296686921 -10.413901650706867 a34.300340074799706,34.300340074799706 0 0,0 0.4591290011003993,0.3712503886080381 l -8.451465696351812 10.2699451648347" fill="#ff6709" stroke="none" /><path d="M 114.16331599549186 84.49514656593476 l 9.132177487089947 -9.99716969643751 a34.54031268453875,34.54031268453875 0 0,0 0.43552392810127194,0.40477202605775753 l -9.302909298986066 9.838493084305112" fill="#ff6b09" stroke="none" /><path d="M 114.68862486808459 84.99185889309783 l 9.267045807240814 -9.468628436511544 a34.24888910294801,34.24888910294801 0 0,0 0.4177780605816564,0.4159839888200883 l -9.428659667989793 9.307708597041337" fill="#ff6609" stroke="none" /><path d="M 115.68641384162765 86.03803664274999 l 16.207551156455303 -14.425810618145961 a42.697666383271,42.697666383271 0 0,0 0.4839234288312899,0.5532081337773516 l -16.45346644886444 14.144686928165662" fill="#ffe015" stroke="none" /><path d="M 116.15771136456269 86.58626213691792 l 10.43699736103044 -8.664540634485503 a34.56485084034494,34.56485084034494 0 0,0 0.3761009780082298,0.46105532835787405 l -10.584596831115078 8.483601136519527" fill="#ff6b09" stroke="none" /><path d="M 116.60985879189232 87.15038557335679 l 10.458177755733734 -8.090589658237866 a34.222372063609065,34.222372063609065 0 0,0 0.3564407691863551,0.469034270731919 l -10.595894465144204 7.909370611624913" fill="#ff6609" stroke="none" /><path d="M 117.04232023915458 87.72973835380427 l 13.100519523457656 -9.432213454398456 a37.14280838125233,37.14280838125233 0 0,0 0.36910644639094903,0.5220748922571359 l -13.260938589652488 9.205312061809526" fill="#ff910d" stroke="none" /><path d="M 117.65298651832404 88.62581576622439 l 11.239508968712425 -7.241848033736871 a34.37052447742816,34.37052447742816 0 0,0 0.3161636586472389,0.5000949811130776 l -11.36250022360562 7.047305404909587" fill="#ff6809" stroke="none" /><line stroke="#e1ed5e" stroke-width="0.3" x1="172.23445277983987" x2="176.4835382374775" y1="55.19839476539836" y2="52.563006222186495" /><path d="M 173.08426987136738 54.67131705675599 a86.0,86.0 0 0,1 12.851231095245387,41.99856678651699" fill="none" id="id99" stroke="none" /><text fill="#e1ed5e" style="font-size:6.75px; font-family:Arial;" text-anchor="middle"><textPath startOffset="22.20632615414155" xlink:href="#id99">March</textPath></text><path d="M 118.03404312379186 89.2402003453031 l 12.00814356921662 -7.1645175817036035 a34.983054893600986,34.983054893600986 0 0,0 0.3040865823000159,0.5197825402646342 l -12.129689825986961 6.956755629085074" fill="#ff710a" stroke="none" /><path d="M 118.73160827565052 90.50648371742162 l 13.168319597931044 -6.673941429773626 a35.76299885664507,35.76299885664507 0 0,0 0.2735698891942259,0.5515002031546441 l -13.281249500078678 6.446281638120031" fill="#ff7d0b" stroke="none" /><path d="M 119.04729006885535 91.15688171328212 l 25.28326311870261 -11.738304274500663 a48.87527903304841,48.87527903304841 0 0,0 0.3477073069193971,0.7661269604467869 l -25.481572742585353 11.301355305211814" fill="#ccff1d" stroke="none" /><path d="M 119.34039704204932 91.81776055985345 l 12.924040443101315 -5.467705404893152 a35.03305468419532,35.03305468419532 0 0,0 0.23018103754994623,0.5574016402233183 l -13.016243167537459 5.244429194216531" fill="#ff720a" stroke="none" /><path d="M 119.61058180528143 92.48833698450437 l 27.862728032778286 -10.672575946638545 a50.83681435350189,50.83681435350189 0 0,0 0.30597809854654073,0.8198691813650564 l -28.042310719826453 10.191383628244155" fill="#b4ff20" stroke="none" /><path d="M 119.97218684219823 93.5106431181261 l 19.590176559088807 -6.365234216728138 a41.59833061803988,41.59833061803988 0 0,0 0.2154090637670935,0.6829055979765735 l -19.696841106624106 6.027078452325146" fill="#ffd113" stroke="none" /><path d="M 120.37134235888165 94.90015583598534 l 20.942031048205564 -5.242712676577288 a42.58830008669395,42.58830008669395 0 0,0 0.17190909238099747,0.7126741718564403 l -21.02917294084738 4.8814532730614415" fill="#ffde14" stroke="none" /><path d="M 120.53481517161879 95.60439243477599 l 13.684659318376115 -2.929288212464855 a34.99466434365983,34.99466434365983 0 0,0 0.12101605542166331,0.5901172642133422 l -13.733054669712773 2.693295292088101" fill="#ff720a" stroke="none" /><path d="M 120.67395015179393 96.31383870115 l 13.49217013939483 -2.4056513167620817 a34.704955794464155,34.704955794464155 0 0,0 0.0997984607833638,0.5890161648103637 l -13.531580461698416 2.1730493636358803" fill="#ff6d0a" stroke="none" /><path d="M 120.73433829027371 96.67025291283417 l 13.812023000819329 -2.218085897461186 a34.98899154419926,34.98899154419926 0 0,0 0.0903784088464276,0.5954807921144165 l -13.848157303105056 1.9800059929546876" fill="#ff720a" stroke="none" /><path d="M 120.83666639777658 97.38593545837742 l 20.582634141414093 -2.5821949180893036 a41.74397644605082,41.74397644605082 0 0,0 0.08330834843240424,0.713735053817829 l -20.624032842850088 2.2275161259466216" fill="#ffd313" stroke="none" /><path d="M 120.87857604477298 97.74499172005257 l 14.07546957812752 -1.5202330070192687 a35.15732857005248,35.15732857005248 0 0,0 0.05980575380269408,0.6022357791291397 l -14.099552457612441 1.277721697185694" fill="#ff740a" stroke="none" /><path d="M 120.94382443527127 98.46500227214037 l 22.448138564980923 -1.6452506942282161 a43.50834900385726,43.50834900385726 0 0,0 0.04831376119731326,0.747392501545571 l -22.47313291718265 1.2585991284296099" fill="#ffeb16" stroke="none" /><line stroke="#e1ed5e" stroke-width="0.3" x1="184.98032266829074" x2="189.97916517819016" y1="98.17113171792111" y2="98.06355123074" /><path d="M 185.9800911702706 98.14961562048488 a86.0,86.0 0 0,1 -9.607161424134198,41.387399972396054" fill="none" id="id100" stroke="none" /><text fill="#e1ed5e" style="font-size:6.75px; font-family:Arial;" text-anchor="middle"><textPath startOffset="21.466115282336823" xlink:href="#id100">April</textPath></text><path d="M 120.99513854157772 99.54816195383933 l 16.448365194536226 -0.35398657538355477 a37.452173840206726,37.452173840206726 0 0,0 0.008323287082777362,0.644647757145294 l -16.45202148873672 0.07080256017779811" fill="#ff960d" stroke="none" /><path d="M 120.99824983174949 100.27111621757518 l 13.72491993685086 0.17720754870603572 a34.72606388548023,34.72606388548023 0 0,0 -0.012861768957032936,0.59763586408265 l -13.71983610520882 -0.41343322857880055" fill="#ff6e0a" stroke="none" /><path d="M 120.9764740272857 100.99374915477107 l 21.402160165465023 1.013915806204627 a42.4261635625767,42.4261635625767 0 0,0 -0.04083750397343882,0.72918106652921 l -21.381536310604055 -1.3821685890692603" fill="#ffdc14" stroke="none" /><path d="M 120.89721153311464 102.0752229133903 l 29.089510788707656 2.888769117945708 a50.23259524816666,50.23259524816666 0 0,0 -0.0928530351030013,0.8597037854030308 l -29.035475452103604 -3.3890692252335297" fill="#bbff1f" stroke="none" /><path d="M 120.64145759157962 103.86396538481128 l 14.298538952342112 2.6766065002969417 a35.54690477486797,35.54690477486797 0 0,0 -0.11776193084263094,0.6004655482908254 l -14.250347088523817 -2.922335775655712" fill="#ff7a0b" stroke="none" /><path d="M 120.41448212921028 104.9243191809786 l 27.33205308461222 6.592954570593747 a49.11597723341612,49.11597723341612 0 0,0 -0.20532509944930066,0.8201717074547782 l -27.21451667086786 -7.062454117445921" fill="#c9ff1d" stroke="none" /><path d="M 120.23288151984713 105.62410040840565 l 13.562252900274874 3.7698768709990973 a35.076458196347126,35.076458196347126 0 0,0 -0.16670899047392249,0.5803358660046115 l -13.495351272914853 -4.002770212508291" fill="#ff730a" stroke="none" /><path d="M 120.02730092923936 106.31721596034902 l 13.244535363304346 4.177726718147984 a34.88780463289093,34.88780463289093 0 0,0 -0.18558276773929505,0.5711650290546512 l -13.170660344548804 -4.40509064718043" fill="#ff700a" stroke="none" /><path d="M 119.67450827220406 107.3425965602758 l 13.410077798451178 5.004688795960833 a35.31352844357146,35.31352844357146 0 0,0 -0.21744005883291415,0.567667379738913 l -13.321943460024757 -5.23477974253289" fill="#ff760a" stroke="none" /><path d="M 119.41010516605496 108.01547362559984 l 27.07434945298485 11.180451219305821 a50.2920277169338,50.2920277169338 0 0,0 -0.3373134646561586,0.7973093896605066 l -26.877885007136385 -11.64483513463249" fill="#baff1f" stroke="none" /><path d="M 118.97047184881838 109.00673069616215 l 12.987890023638185 6.16634254996491 a35.37738041889509,35.37738041889509 0 0,0 -0.26591448993452216,0.5478626105353569 l -12.879822277088948 -6.388994116465542" fill="#ff770b" stroke="none" /><line stroke="#e1ed5e" stroke-width="0.3" x1="174.80103733775053" x2="179.2010983576182" y1="140.37084112569926" y2="142.7455964860345" /><path d="M 175.68104954172406 140.8457921977663 a86.0,86.0 0 0,1 -30.038265399797805,32.042727171017184" fill="none" id="id101" stroke="none" /><text fill="#e1ed5e" style="font-size:6.75px; font-family:Arial;" text-anchor="middle"><textPath startOffset="22.206326154141568" xlink:href="#id101">May</textPath></text><path d="M 117.94076556474637 110.91462005526583 l 13.649937288530223 8.304209691879946 a36.97750564348267,36.97750564348267 0 0,0 -0.33550106485528125,0.5409345424113895 l -13.504971584006979 -8.537940565656609" fill="#ff8f0d" stroke="none" /><path d="M 117.75023020441432 111.22182372390056 l 12.44796864746332 7.869695675706488 a35.72698317634889,35.72698317634889 0 0,0 -0.3331033120066217,0.5169837374886699 l -12.310660472079649 -8.08280101311661" fill="#ff7d0b" stroke="none" /><path d="M 117.14729908036423 112.12312394758627 l 11.999073362736839 8.483333319777236 a35.695057188687066,35.695057188687066 0 0,0 -0.3590246376456768,0.49865382050765744 l -11.85126893271556 -8.688620745736024" fill="#ff7c0b" stroke="none" /><path d="M 116.27256486870786 113.27417163493432 l 16.196950951097126 13.2124903862527 a41.902419054240255,41.902419054240255 0 0,0 -0.46073505589338487,0.554985055220875 l -15.967119895310198 -13.489336698587346" fill="#ffd513" stroke="none" /><path d="M 115.80600337817218 113.82643327865902 l 12.249650963150112 10.715484343294015 a37.27499780124052,37.27499780124052 0 0,0 -0.4266055167098003,0.4792958204374927 l -12.063386596791974 -10.924754333472375" fill="#ff930d" stroke="none" /><path d="M 115.07121518719521 114.62390073753431 l 9.830333620336537 9.538568807828272 a34.69743603703968,34.69743603703968 0 0,0 -0.4196066270543872,0.4250592978583958 l -9.664686368226613 -9.70636859966733" fill="#ff6d0a" stroke="none" /><path d="M 114.55890576462653 115.13401014063108 l 18.981192216461427 19.73098529033331 a48.3787771546796,48.3787771546796 0 0,0 -0.6051129111679512,0.5721720267528626 l -18.638743470902668 -20.054791953832094" fill="#d3ff1c" stroke="none" /><path d="M 114.0293411484842 115.62618273729858 l 21.81415921817885 24.29708099589683 a53.65280519828623,53.65280519828623 0 0,0 -0.6925239589051746,0.6110718753537863 l -21.392692906367092 -24.668976013022906" fill="#91ff24" stroke="none" /><path d="M 113.20401910651253 116.32954008644616 l 10.17247705400608 12.580402261756483 a37.17856021041081,37.17856021041081 0 0,0 -0.5011006142435048,0.3981046341638018 l -9.954418947045223 -12.75364080992541" fill="#ff920d" stroke="none" /><path d="M 112.63410532772338 116.77436683061366 l 12.767313967644233 16.951228629140576 a42.221415079720735,42.221415079720735 0 0,0 -0.5842941805887198,0.4322468662985071 l -12.473634816636949 -17.168485444178852" fill="#ffd914" stroke="none" /><path d="M 112.04921762599082 117.19931262002967 l 9.309226819613121 13.288190759864744 a37.224602233939635,37.224602233939635 0 0,0 -0.5279567380014553,0.3631334585639632 l -9.079113196988782 -13.446465007793801" fill="#ff930d" stroke="none" /><path d="M 111.1453310114006 117.79835938074945 l 10.779796305970384 17.21462453727747 a41.311260580221216,41.311260580221216 0 0,0 -0.6059394064630769,0.37221747388743054 l -10.481877699575 -17.397630477993278" fill="#ffcd13" stroke="none" /><line stroke="#e1ed5e" stroke-width="0.3" x1="143.8653032363475" x2="146.44561519142675" y1="172.8068346515853" y2="177.08958963109032" /><path d="M 144.38136562736335 173.6633856474863 a86.0,86.0 0 0,1 -40.68145358897372,12.25698825130547" fill="none" id="id102" stroke="none" /><text fill="#e1ed5e" style="font-size:6.75px; font-family:Arial;" text-anchor="middle"><textPath startOffset="21.466115282336833" xlink:href="#id102">June</textPath></text><path d="M 109.89434966115114 118.52300852407294 l 15.746979874796608 29.479597188131645 a54.42175976144507,54.42175976144507 0 0,0 -0.8300849881956356,0.43426123358458957 l -15.237203984074478 -29.74628784066095" fill="#88ff25" stroke="none" /><path d="M 109.57404056367764 118.69057910512821 l 3.3104220736070356 6.462653383029702 a28.26118330953089,28.26118330953089 0 0,0 -0.43488052146362366,0.21805812143339454 l -3.1986876444606516 -6.518679345372398" fill="#ff0901" stroke="none" /><path d="M 108.92500713936063 119.00905698771935 l 7.922578697617816 16.874020110139337 a39.641346729711735,39.641346729711735 0 0,0 -0.6201643376948023,0.2846870302957422 l -7.630946364155594 -17.00789421076915" fill="#ffb510" stroke="none" /><path d="M 107.59598834532513 119.57807347666477 l 12.059618889839427 31.08273656991043 a54.340229759895465,54.340229759895465 0 0,0 -0.8749547567880667,0.33083302211477944 l -11.522793912291085 -31.28571784213184" fill="#89ff24" stroke="none" /><path d="M 106.57524785965236 119.94407469862006 l 5.230972332503508 15.866611445333493 a37.70665826251932,37.70665826251932 0 0,0 -0.6181713137017014,0.19791893344060757 l -4.957079673710866 -15.954303225433808" fill="#ff9a0e" stroke="none" /><path d="M 105.18746579009965 120.34920634021253 l 8.212866508224689 32.21714069699424 a54.247486084993575,54.247486084993575 0 0,0 -0.9068286571940646,0.22287642090668644 l -7.657084566287414 -32.353738376214956" fill="#8aff24" stroke="none" /><path d="M 104.48393922423573 120.51570834832081 l 2.860351386767458 13.087183364899047 a34.39611803778516,34.39611803778516 0 0,0 -0.5795066788310179,0.12144125898693844 l -2.634653246507062 -13.134480604612527" fill="#ff6909" stroke="none" /><path d="M 104.13013068566511 120.58985236759428 l 3.655765273099594 18.225008599595206 a39.588048799896136,39.588048799896136 0 0,0 -0.6692875904704239,0.1282705596315475 l -3.341510068057466 -18.285236357575222" fill="#ffb510" stroke="none" /><path d="M 103.06178313531738 120.77559828337769 l 3.8826855977821677 26.345796771075666 a47.630363402590774,47.630363402590774 0 0,0 -0.8121462536118529,0.11255607045708609 l -3.4286107529834844 -26.408727407025356" fill="#dcff1b" stroke="none" /><path d="M 102.34483914955558 120.86867818915974 l 2.966076525213726 26.39758744254922 a47.563701412650616,47.563701412650616 0 0,0 -0.8143979339415814,0.0844156757252964 l -2.5112459946665417 -26.444732486730278" fill="#ddff1b" stroke="none" /><path d="M 101.62511606390274 120.93702456842531 l 1.2553198217209132 16.17279069009014 a37.22143602028722,37.22143602028722 0 0,0 -0.6392112345809553,0.044083749205034176 l -0.9767458263610274 -16.19200278381146" fill="#ff920d" stroke="none" /><path d="M 100.90346689309514 120.98055641714683 l 0.5735838570176152 13.319921918661237 a34.33226606246152,34.33226606246152 0 0,0 -0.5906451909170651,0.02034301462400896 l -0.3442183144258977 -13.327821731711339" fill="#ff6809" stroke="none" /><line stroke="#e1ed5e" stroke-width="0.3" x1="102.19456741930631" x2="102.32365962044197" y1="184.97166512339345" y2="189.96999836594603" /><path d="M 102.22038585953345 185.97133177190398 a86.0,86.0 0 0,1 -42.740103519485714,-10.115201625700543" fill="none" id="id103" stroke="none" /><text fill="#e1ed5e" style="font-size:6.75px; font-family:Arial;" text-anchor="middle"><textPath startOffset="22.20632615414155" xlink:href="#id103">July</textPath></text><path d="M 99.81925306533755 120.99922214144158 l -0.23436867919999807 27.22900925931728 a48.23001788324378,48.23001788324378 0 0,0 -0.8301082200096097,-0.01429106581452478 l 0.7030365891022756 -27.2209407162236" fill="#d5ff1c" stroke="none" /><path d="M 99.09653310690486 120.98055641714683 l -0.7829389283121194 18.18162290414238 a39.198472595080645,39.198472595080645 0 0,0 -0.6738626812757611,-0.03483100348813039 l 1.0957896780013694 -18.165452093892046" fill="#ffaf10" stroke="none" /><path d="M 98.01472825383883 120.90594882070398 l -5.955815238483529 62.71784646211194 a84.0,84.0 0 0,0 -1.4382696135776267,-0.14908252617695705 l 7.034517448666749 -62.60603456747922" fill="#4dd2ff" stroke="none" /><path d="M 96.93821686468263 120.77559828337769 l -1.1009716729571253 7.47059611599978 a28.551287635433113,28.551287635433113 0 0,0 -0.4855950471987757,-0.07583995960590996 l 1.2294025837644182 -7.450537849046764" fill="#ff0e01" stroke="none" /><path d="M 96.22490169976321 120.6578951692458 l -2.4318902107114044 13.307662222422152 a34.52804360663565,34.52804360663565 0 0,0 -0.583741604087447,-0.11187546774008346 l 2.660599429370546 -13.263829556333599" fill="#ff6b09" stroke="none" /><path d="M 95.16358092515715 120.4354850818985 l -7.694486293556184 32.51177315934912 a54.40988646024852,54.40988646024852 0 0,0 -0.9095434247316718,-0.22354364471746388 l 8.252983003031066 -32.374508256317625" fill="#88ff25" stroke="none" /><path d="M 94.81253420990036 120.34920634021253 l -3.322304058511847 13.032616222859858 a34.44941596760076,34.44941596760076 0 0,0 -0.5733523866780453,-0.15142757644042262 l 3.5461468880013816 -12.973497297115852" fill="#ff6909" stroke="none" /><path d="M 94.11515582081647 120.15858648285463 l -4.331948822553892 14.839129519801242 a36.45851045562485,36.45851045562485 0 0,0 -0.600914422063034,-0.18105058599142296 l 4.586738219057172 -14.762363564704094" fill="#ff870c" stroke="none" /><path d="M 93.42475214034765 119.94407469862007 l -5.083630889559965 15.419694643565414 a37.236079758429625,37.236079758429625 0 0,0 -0.6070017680035226,-0.20592795632225128 l 5.348302390500713 -15.32990370034504" fill="#ff930d" stroke="none" /><path d="M 92.7421414339146 119.70592522655815 l -11.495208876215834 31.21082127955473 a54.260414790740924,54.260414790740924 0 0,0 -0.8736696226023194,-0.3303470943302928 l 12.030748719578437 -31.008325935117803" fill="#8aff24" stroke="none" /><path d="M 92.40401165467489 119.57807347666478 l -4.9597520929659265 12.783378079021098 a34.71181592404438,34.71181592404438 0 0,0 -0.5551889229143391,-0.22092113022115617 l 5.179062091922123 -12.696110104393876" fill="#ff6d0a" stroke="none" /><path d="M 91.7346041902142 119.30500536409082 l -5.990855088870798 13.992492590519847 a36.22104443169397,36.22104443169397 0 0,0 -0.5710494739827211,-0.25033130779692375 l 6.230825237511262 -13.88729672942847" fill="#ff840c" stroke="none" /><path d="M 91.07499286063937 119.00905698771935 l -6.3454864157917035 13.515027048059542 a35.930544329085194,35.930544329085194 0 0,0 -0.5575861537478384,-0.2676752382537276 l 6.5771852375397835 -13.403797533306253" fill="#ff800b" stroke="none" /><path d="M 90.42595943632237 118.69057910512821 l -15.307754948688222 29.884018444191 a54.57650845370669,54.57650845370669 0 0,0 -0.8324453412410415,-0.43549605874077174 l 15.81989119245576 -29.616092966505512" fill="#86ff25" stroke="none" /><line stroke="#e1ed5e" stroke-width="0.3" x1="58.666819895761336" x2="56.23545636021788" y1="174.27360380694188" y2="178.64263932499728" /><path d="M 58.180547188652646 175.14741091055294 a86.0,86.0 0 0,1 -31.652253787137756,-30.449443065178592" fill="none" id="id104" stroke="none" /><text fill="#e1ed5e" style="font-size:6.75px; font-family:Arial;" text-anchor="middle"><textPath startOffset="22.20632615414155" xlink:href="#id104">August</textPath></text><path d="M 89.7882731507175 118.34994917583269 l -3.623101406370083 6.510527322854344 a28.45076035196904,28.45076035196904 0 0,0 -0.42588245707955696,-0.24182717397914494 l 3.7346326303708475 -6.447196983080566" fill="#ff0c01" stroke="none" /><path d="M 89.4739219176387 118.17145234162733 l -6.392327267961986 11.035246878559983 a33.752980889639026,33.752980889639026 0 0,0 -0.5002386714962233,-0.2955498245394578 l 6.5813338104865915 -10.923578481726777" fill="#ff5f08" stroke="none" /><path d="M 88.54995079064634 117.60387380957326 l -4.345001418666895 6.680220781421988 a28.968963986413762,28.968963986413762 0 0,0 -0.41567056192368207,-0.27548378262005513 l 4.4593466793305385 -6.604438977710614" fill="#ff1502" stroke="none" /><path d="M 88.24862548938628 117.40417183066458 l -18.66192844501759 27.63892930612513 a54.34933262414616,54.34933262414616 0 0,0 -0.7708368832115465,-0.5301886371388638 l 19.13492221285203 -27.31359987962117" fill="#89ff24" stroke="none" /><path d="M 87.65650970185807 116.9893568818739 l -8.496407992242235 11.694302349468998 a35.45495265337918,35.45495265337918 0 0,0 -0.4906543863890568,-0.3629743851609112 l 8.696447349049855 -11.54631801556832" fill="#ff780b" stroke="none" /><path d="M 87.36589467227662 116.77436683061367 l -9.863021682450134 13.095184777086848 a37.393994664343666,37.393994664343666 0 0,0 -0.5108220379080018,-0.3916765560987127 l 10.086972448851622 -12.923468879160769" fill="#ff950d" stroke="none" /><path d="M 86.79598089348748 116.32954008644616 l -10.13979479656297 12.53998379305179 a37.12658153628372,37.12658153628372 0 0,0 -0.4934827586570479,-0.40610271423958294 l 10.354147683764706 -12.363585959955026" fill="#ff910d" stroke="none" /><path d="M 86.24171649860922 115.8653595955263 l -21.814540959220462 25.155429941124858 a54.29669432217481,54.29669432217481 0 0,0 -0.7008349622818544,-0.6184053695299131 l 22.244318274408904 -24.776201429822656" fill="#89ff24" stroke="none" /><path d="M 85.44109423537348 115.13401014063109 l -12.148467886126975 12.628355396631914 a38.523145608134996,38.523145608134996 0 0,0 -0.4739265001188519,-0.4638368286721808 l 12.364044338621621 -12.417368465037164" fill="#ffa50f" stroke="none" /><path d="M 84.67929136418377 114.36230785411682 l -38.065131572750914 35.68393284872259 a73.17563900138629,73.17563900138629 0 0,0 -0.8535540771713047,-0.9263643717918271 l 38.67373205791795 -35.02341722212942" fill="#3effb7" stroke="none" /><path d="M 84.43433777217949 114.09645910891817 l -35.169076964260704 31.849557575457737 a68.44742661378476,68.44742661378476 0 0,0 -0.7833682500460939,-0.8801225333565953 l 35.71210406395514 -31.23946087236028" fill="#38ff7e" stroke="none" /><path d="M 83.95833913139862 113.55231037782056 l -10.27002620162184 8.676319977886653 a34.44440279598444,34.44440279598444 0 0,0 -0.3787309708033841,-0.4562058520543982 l 10.417853172318761 -8.498252868718494" fill="#ff6909" stroke="none" /><path d="M 83.72743513129214 113.27417163493432 l -12.449512927067243 10.155557694719251 a37.06629155131905,37.06629155131905 0 0,0 -0.3990487898240704,-0.49787472186192455 l 12.622479628946174 -9.939755139279068" fill="#ff900d" stroke="none" /><path d="M 82.85270091963577 112.12312394758628 l -32.680021216399844 23.104743549370067 a61.02265559887926,61.02265559887926 0 0,0 -0.5990073746528811,-0.8629147992685626 l 33.072889498214856 -22.538787487914494" fill="#3dff2e" stroke="none" /><path d="M 82.44556493220864 111.52570212397912 l -12.440459966625394 8.168023368846107 a35.88225957088591,35.88225957088591 0 0,0 -0.33455104357247223,-0.5192306490287671 l 12.579215873574912 -7.952671119895891" fill="#ff7f0b" stroke="none" /><path d="M 82.24976979558568 111.22182372390057 l -16.787378846386865 10.61310214183256 a40.86086668816565,40.86086668816565 0 0,0 -0.37073523609091713,-0.5977432452475884 l 16.96757872214574 -10.322562565219707" fill="#ffc712" stroke="none" /><line stroke="#e1ed5e" stroke-width="0.3" x1="26.63291911575756" x2="22.317208475507996" y1="142.92168965132927" y2="145.44649492493687" /><path d="M 25.769776987707644 143.4266507060508 a86.0,86.0 0 0,1 -11.730757126820373,-40.83630448921669" fill="none" id="id105" stroke="none" /><text fill="#e1ed5e" style="font-size:6.75px; font-family:Arial;" text-anchor="middle"><textPath startOffset="21.46611528233685" xlink:href="#id105">September</textPath></text><path d="M 81.18737489456691 109.33194174019688 l -12.834794131929966 6.366658050927759 a35.327116777163056,35.327116777163056 0 0,0 -0.26553668268889113,-0.5470842157065477 l 12.942484071233576 -6.144784879255926" fill="#ff770a" stroke="none" /><path d="M 81.02952815118164 109.00673069616217 l -26.38206202192868 12.52557815823436 a50.20450829455838,50.20450829455838 0 0,0 -0.36392383388129756,-0.7838595619961604 l 26.5937604726498 -12.069598528959371" fill="#bbff1f" stroke="none" /><path d="M 80.45479744820244 107.68017299344265 l -37.0907895391618 14.574608749600136 a60.851548136080176,60.851548136080176 0 0,0 -0.3746882509326717,-0.9781927891646832 l 37.33617206968798 -13.933992393602296" fill="#3fff2d" stroke="none" /><path d="M 80.0844068197444 106.66101706037122 l -18.14077986755821 6.067408743116997 a40.12854785547658,40.12854785547658 0 0,0 -0.2134604643296193,-0.6569637569050575 l 18.24253258290408 -5.754246086234136" fill="#ffbc11" stroke="none" /><path d="M 79.86692584326677 105.97154293290107 l -16.472170275345263 4.8857055426075915 a38.18145838481223,38.18145838481223 0 0,0 -0.1814662229157648,-0.6317077281016844 l 16.55382913514713 -4.601440339001311" fill="#ffa00e" stroke="none" /><path d="M 79.58551787078972 104.9243191809786 l -11.66113734433435 2.8128640213981697 a32.99559619886838,32.99559619886838 0 0,0 -0.12843054095616316,-0.5532754090996096 l 11.707828451221067 -2.611719954949986" fill="#ff5307" stroke="none" /><path d="M 79.4281124754447 104.21870165774334 l -22.68271787156288 4.651572169674081 a44.15475790611088,44.15475790611088 0 0,0 -0.14627854604625504,-0.7458711548490727 l 22.7594263505848 -4.260437287757053" fill="#fff417" stroke="none" /><path d="M 79.18660465613746 102.79330883721812 l -40.91178813168591 5.49065913785818 a62.27858701433591,62.27858701433591 0 0,0 -0.13344963913733138,-1.0637249261956685 l 41.00023928007008 -4.785616457375103" fill="#30ff2f" stroke="none" /><path d="M 79.10278846688536 102.07522291339032 l -13.738172092825646 1.364285826841218 a34.805746929065926,34.805746929065926 0 0,0 -0.054073883116129574,-0.5967007942824915 l 13.759620572218852 -1.1276036440101602" fill="#ff6f0a" stroke="none" /><path d="M 79.0235259727143 100.99374915477108 l -6.664660955036256 0.31573472177869577 a27.67213564461346,27.67213564461346 0 0,0 -0.018445279927468968,-0.4759907151690182 l 6.669108367814926 -0.20096675959568078" fill="#ff0000" stroke="none" /><line stroke="#e1ed5e" stroke-width="0.3" x1="15.007084014347285" x2="10.007500721073583" y1="101.09737516637583" y2="101.16192664675087" /><path d="M 14.007167355692545 101.11028546245083 a86.0,86.0 0 0,1 10.666146001902534,-42.60595125391555" fill="none" id="id106" stroke="none" /><text fill="#e1ed5e" style="font-size:6.75px; font-family:Arial;" text-anchor="middle"><textPath startOffset="22.20632615414155" xlink:href="#id106">October</textPath></text><path d="M 79.12142395522702 97.74499172005258 l -14.541490874811867 -1.5705660316662273 a35.626060116178266,35.626060116178266 0 0,0 0.07109883825437863,-0.6091314268347005 l 14.5123016835539 1.8206411968257896" fill="#ff7b0b" stroke="none" /><path d="M 79.26566170972629 96.67025291283419 l -22.469400111888625 -3.608382313701347 a43.75729255227812,43.75729255227812 0 0,0 0.12582959248319453,-0.7426533776406619 l 22.40395865788521 3.994621479657837" fill="#ffee16" stroke="none" /><path d="M 79.3925641242962 95.95851677861259 l -19.62345802069252 -3.848507733547439 a40.997277726357055,40.997277726357055 0 0,0 0.14177386543126475,-0.6913397178063307 l 19.55430485934626 4.185723107517172" fill="#ffc812" stroke="none" /><path d="M 79.54389044137918 95.25157060432595 l -38.96771028387406 -9.04548445362026 a61.00379024253365,61.00379024253365 0 0,0 0.24624383201600994,-1.0208396579037482 l 38.80623365159724 9.714909343183404" fill="#3dff2e" stroke="none" /><path d="M 79.71946130924805 94.55025226153421 l -13.382959060065712 -3.5962432745847903 a34.85772560319302,34.85772560319302 0 0,0 0.1606994755407984,-0.5781215150531548 l 13.319072813958554 3.8260760930568876" fill="#ff700a" stroke="none" /><path d="M 79.81627453868168 94.20196356495316 l -18.341652289156208 -5.26887706906721 a40.083429310929716,40.083429310929716 0 0,0 0.19620667412873002,-0.661511365599555 l 18.24823971791577 5.583817821413304" fill="#ffbc11" stroke="none" /><path d="M 80.02781315780177 93.51064311812611 l -12.961917558835545 -4.211582315812817 a34.62896666680627,34.62896666680627 0 0,0 0.189078620566814,-0.5653210091136919 l 12.887501644496957 4.434076427848831" fill="#ff6c0a" stroke="none" /><path d="M 80.2630227832202 92.82701384747504 l -26.24419258405364 -9.537895693043152 a48.923629754032106,48.923629754032106 0 0,0 0.2944629673692812,-0.789014354773027 l 26.07612502818273 9.988233184845521" fill="#ccff1d" stroke="none" /><path d="M 80.52162464483688 92.15188598940014 l -8.862146439561208 -3.5706846370979304 a30.554445472858934,30.554445472858934 0 0,0 0.20075480211774605,-0.4861436770561843 l 8.799369950557262 3.722702884607426" fill="#ff2e04" stroke="none" /><path d="M 80.95270993114464 91.15688171328213 l -12.500464664342706 -5.803612338873917 a34.782000326672836,34.782000326672836 0 0,0 0.2567935310687688,-0.5408726669461191 l 12.398712939432187 6.017927421460568" fill="#ff6e0a" stroke="none" /><path d="M 81.26839172434947 90.50648371742162 l -50.04123838916018 -25.361800463520527 a77.1012162281014,77.1012162281014 0 0,0 0.610166420428228,-1.1786473121964114 l 49.597262535571836 26.219420497977275" fill="#44ffe4" stroke="none" /><line stroke="#e1ed5e" stroke-width="0.3" x1="26.266209847984243" x2="21.928928074336255" y1="57.711370442889674" y2="55.22380399835377" /><path d="M 25.398753493254645 57.213857153982495 a86.0,86.0 0 0,1 29.58750427330803,-30.492523968695096" fill="none" id="id107" stroke="none" /><text fill="#e1ed5e" style="font-size:6.75px; font-family:Arial;" text-anchor="middle"><textPath startOffset="21.46611528233685" xlink:href="#id107">November</textPath></text><path d="M 81.96595687620814 89.24020034530311 l -11.410183517907793 -6.807751752242588 a34.28675174120811,34.28675174120811 0 0,0 0.30675899905978793,-0.504231137606358 l 11.291308720561789 7.0031506630560205" fill="#ff6709" stroke="none" /><path d="M 82.34701348167596 88.62581576622439 l -12.476377289849754 -8.03878786841773 a35.84190353937455,35.84190353937455 0 0,0 0.3386263932089894,-0.5157512286787577 l 12.336154261282845 8.252357161074155" fill="#ff7e0b" stroke="none" /><path d="M 82.7489923806493 88.02491185347247 l -11.223511871727407 -7.790996731505266 a34.66260768686314,34.66260768686314 0 0,0 0.34445946613987716,-0.4872134865979868 l 11.08773978578365 7.983036718435039" fill="#ff6d0a" stroke="none" /><path d="M 83.17141714833178 87.43820079747576 l -14.52941915299587 -10.845574314723184 a39.13092670382919,39.13092670382919 0 0,0 0.40756548340258814,-0.5363084018688438 l 14.340577729369171 11.094067492473053" fill="#ffae10" stroke="none" /><path d="M 83.6137871275137 86.86637796730984 l -10.39055309507949 -8.328074224551854 a34.316171143061766,34.316171143061766 0 0,0 0.37339508820734274,-0.45773822740999587 l 10.245659514795754 8.505696621569932" fill="#ff6709" stroke="none" /><path d="M 84.07557802195018 86.31012108654704 l -25.388732443144374 -21.82614059033283 a54.48086241629009,54.48086241629009 0 0,0 0.6174708825891956,-0.7058759594342985 l 25.009269696977334 22.259932105970073" fill="#87ff25" stroke="none" /><path d="M 84.31358615837235 86.03803664274999 l -10.148627740471145 -9.032961266316217 a34.58635470806756,34.58635470806756 0 0,0 0.39964756751532315,-0.4413008258349129 l 9.991636532339777 9.206314879420686" fill="#ff6b09" stroke="none" /><path d="M 84.5562425177563 85.77008943001954 l -9.89063839056995 -9.113254979537432 a34.4490201908942,34.4490201908942 0 0,0 0.4055677865375528,-0.432631437282112 l 9.732303282061942 9.282155833697594" fill="#ff6909" stroke="none" /><path d="M 85.31137513191541 84.99185889309783 l -9.905045097384535 -10.120505889886047 a35.1610224859803,35.1610224859803 0 0,0 0.43619216806276595,-0.4196165200817745 l 9.729369685709342 10.289505496730134" fill="#ff740a" stroke="none" /><path d="M 85.83668400450813 84.49514656593479 l -27.0074388474205 -29.565560853970876 a61.044027541033046,61.044027541033046 0 0,0 0.7819129848298477,-0.7020091980892822 l 26.494514874994678 30.02606906082944" fill="#3dff2e" stroke="none" /><path d="M 86.37877921826538 84.01681056812374 l -8.82295093086458 -10.352882339684042 a34.60244962746732,34.60244962746732 0 0,0 0.45665752938117177,-0.38243754808924163 l 8.6434358645243 10.503221045167095" fill="#ff6c09" stroke="none" /><path d="M 86.65592168130627 83.78471172551755 l -13.328681584681645 -16.196578666030753 a41.97576967052113,41.97576967052113 0 0,0 0.5618688665248956,-0.45432554803593006 l 13.047909319592248 16.42361031133082" fill="#ffd614" stroke="none" /><path d="M 87.22198572758235 83.33499621200491 l -10.070972487795675 -13.134497354584234 a37.55111801684459,37.55111801684459 0 0,0 0.5163347503826903,-0.3888926292462629 l 9.843391583654594 13.305906573336351" fill="#ff970e" stroke="none" /><path d="M 88.09926311788651 82.69761687909137 l -7.795181775113673 -11.333350439236707 a34.75535136176504,34.75535136176504 0 0,0 0.4958352434398138,-0.3347901697314011 l 7.59894183726732 11.465852521266774" fill="#ff6e0a" stroke="none" /><path d="M 88.70189139769569 82.29822771554957 l -10.36486044418106 -16.239567683530655 a40.26535467037455,40.26535467037455 0 0,0 0.5874539759019832,-0.36786362581669224 l 10.083787315906834 16.415575650670277" fill="#ffbe11" stroke="none" /><line stroke="#e1ed5e" stroke-width="0.3" x1="56.762969772571076" x2="54.21961505331055" y1="26.818313649435495" y2="22.513508569990535" /><path d="M 56.25429882871897 25.957352633546506 a86.0,86.0 0 0,1 42.265352541879196,-11.944610805530505" fill="none" id="id108" stroke="none" /><text fill="#e1ed5e" style="font-size:6.75px; font-family:Arial;" text-anchor="middle"><textPath startOffset="22.20632615414155" xlink:href="#id108">December</textPath></text><path d="M 89.3179101791058 81.91981866633112 l -7.3981785411826495 -12.521932674803422 a35.54413433792211,35.54413433792211 0 0,0 0.5294438744092215,-0.306688065295293 l 7.181537934308108 12.647424897488762" fill="#ff7a0b" stroke="none" /><path d="M 89.94658935756843 81.56283822128135 l -15.985411758458794 -29.31598371663173 a54.39102110390291,54.39102110390291 0 0,0 0.8258498334934726,-0.44114038006128403 l 15.478416878437015 29.586802823194763" fill="#88ff25" stroke="none" /><path d="M 90.91171255644093 81.06846463323043 l -7.576281670630441 -15.781922093342072 a38.506259135322125,38.506259135322125 0 0,0 0.6000041424009951,-0.28170999003445624 l 7.303499316929837 15.909997066016535" fill="#ffa50f" stroke="none" /><path d="M 91.56875222667455 80.76684994638697 l -5.403274763896677 -12.325814293313837 a34.45812305514489,34.45812305514489 0 0,0 0.5452854270135663,-0.23346276256201978 l 5.1903055790928025 12.416996583838642" fill="#ff6a09" stroke="none" /><path d="M 91.90106846888425 80.62456947434976 l -11.23105137418294 -26.8685387442103 a50.12138199362569,50.12138199362569 0 0,0 0.7988778586566198,-0.32588233717447973 l 10.766889645937939 27.05788196756836" fill="#bdff1f" stroke="none" /><path d="M 92.23578459929587 80.48803036053334 l -7.424896188126616 -18.65923876684045 a41.08223779269677,41.08223779269677 0 0,0 0.6593050359821595,-0.25580011104278233 l 7.10260798714478 18.784281581773783" fill="#ffca12" stroke="none" /><path d="M 92.57280143429618 80.3572730644239 l -4.782912941101514 -12.649379443349707 a34.52342621172588,34.52342621172588 0 0,0 0.5576645879001888,-0.20539257404869457 l 4.564466027428756 12.729835285204723" fill="#ff6b09" stroke="none" /><path d="M 93.25333710446033 80.11325718540243 l -6.424391498866379 -18.93680230602705 a40.9968819496505,40.9968819496505 0 0,0 0.6702349432292916,-0.220965923088799 l 6.097473733394679 19.044581953375083" fill="#ffc812" stroke="none" /><path d="M 94.28887869178378 79.79150937346287 l -2.2654593696346956 -8.016204168207823 a29.3301761939264,29.3301761939264 0 0,0 0.487023540393441,-0.13312193101035 l 2.127137940017532 8.05401264004447" fill="#ff1a02" stroke="none" /><path d="M 94.63758080256005 79.69619591428918 l -8.57589332987351 -32.471026903833526 a54.58442398783772,54.58442398783772 0 0,0 0.9104970732947072,-0.23210597704582575 l 8.015687367893804 32.61383587704821" fill="#86ff25" stroke="none" /><path d="M 95.33964822691252 79.52364482259891 l -3.2362052171857423 -14.219031240672345 a35.582656604026454,35.582656604026454 0 0,0 0.5983940035075576,-0.13078575198670264 l 2.9909684895246635 14.272630490754917" fill="#ff7a0b" stroke="none" /><path d="M 95.692805502759 79.44645832069477 l -4.50640839855348 -21.504172356964602 a42.97128001306692,42.97128001306692 0 0,0 0.7252602411821135,-0.1454803814870231 l 4.13558174790423 21.578556694528835" fill="#ffe415" stroke="none" /><path d="M 96.40284397218896 79.31037775812273 l -2.8437932538362536 -16.356534912853082 a37.601909360852034,37.601909360852034 0 0,0 0.6386429934489887,-0.1053815660234078 l 2.5618210542483792 16.403062741816118" fill="#ff980e" stroke="none" /><path d="M 96.75951476605007 79.25152402106235 l -6.320731539565801 -40.47095945508678 a61.96156987238819,61.96156987238819 0 0,0 1.055208543223986,-0.15551030963430404 l 5.623154015913166 40.57376424888205" fill="#33ff2f" stroke="none" /><path d="M 97.47563105711357 79.15227682838746 l -1.9749718456612007 -16.310478872788856 a37.4296145679333,37.4296145679333 0 0,0 0.6402839917904458,-0.07194336685702973 l 1.6939211503610367 16.342058193116486" fill="#ff960d" stroke="none" /><path d="M 97.83486435360386 79.11191278185805 l -1.4084068143225212 -13.587566407288106 a34.66036495219269,34.66036495219269 0 0,0 0.59397116343697,-0.05640471900696692 l 1.174310523795315 13.609796670810253" fill="#ff6d0a" stroke="none" /><path d="M 98.19473922651362 79.07773832637324 l -2.031312468357544 -23.542111825650792 a44.629584413517556,44.629584413517556 0 0,0 0.7659495270149326,-0.05945242488600229 l 1.6257727519802774 23.573589512725256" fill="#fffa17" stroke="none" /><path d="M 98.55514903715128 79.0497635885617 l -0.5215256570462825 -7.562085011320536 a28.58004740944252,28.58004740944252 0 0,0 0.4910840833947467,-0.029623533002828897 l 0.39127952481191286 7.569941813703672" fill="#ff0f01" stroke="none" /><path d="M 98.91598698831166 79.02799685794201 l -0.6860143323002885 -13.272068303027776 a34.28978602929167,34.28978602929167 0 0,0 0.5897176466612934,-0.02539448236926046 l 0.4574558532496709 13.281910511921229" fill="#ff6709" stroke="none" /></svg>