<?xml version="1.0" encoding="utf-8" ?>
<svg baseProfile="full" height="200mm" version="1.1" viewBox="0,0,200,200" width="200mm" xmlns="http://www.w3.org/2000/svg" xmlns:ev="http://www.w3.org/2001/xml-events" xmlns:xlink="http://www.w3.org/1999/xlink"><defs /><rect fill="#1a1a1a" height="200" width="200" x="0" y="0" /><rect fill="#1a1a1a" height="200" width="180" x="10" y="0" /><text alignment-baseline="middle" fill="#e1ed5e" style="dominant-baseline: central; font-size:9.0px; font-family:Arial;" text-anchor="middle" x="100.0" y="100.0">2020</text><line stroke="#e1ed5e" stroke-width="0.3" x1="100.0" x2="100.0" y1="15.0" y2="10.0" /><path d="M 100.0 14.0 a86.0,86.0 0 0,1 42.35913384403234,11.155469271406648" fill="none" id="id61" stroke="none" /><text fill="#e1ed5e" style="font-size:6.75px; font-family:Arial;" text-anchor="middle"><textPath startOffset="22.145653131862478" xlink:href="#id61">January</textPath></text><path d="M 101.44090949804482 79.04949213459386 l 4.322728494134444 -62.8515235962184 a84.0,84.0 0 0,0 1.437724020899066,0.1112889320197854 l -5.401021509808744 62.76805689720356" fill="#4dd2ff" stroke="none" /><path d="M 105.3480935250658 79.69241777938227 l 2.3962032994443194 -9.098774225378243 a30.409010716152643,30.409010716152643 0 0,0 0.503658071726387,0.13727424711698855 l -2.5520427721053993 9.056299484117112" fill="#ff3705" stroke="none" /><line stroke="#e1ed5e" stroke-width="0.3" x1="143.13028292997686" x2="145.6673583964461" y1="26.7553504044142" y2="22.446841604673864" /><path d="M 143.63769802327073 25.89364864446614 a86.0,86.0 0 0,1 29.32050498858742,28.57503671076993" fill="none" id="id62" stroke="none" /><text fill="#e1ed5e" style="font-size:6.75px; font-family:Arial;" text-anchor="middle"><textPath startOffset="20.669276256404974" xlink:href="#id62">February</textPath></text><path d="M 114.39649973595853 84.71141617570332 l 4.02109686635941 -4.270265525265152 a26.865525352848927,26.865525352848927 0 0,0 0.3330397824299807,0.31904457790325813 l -4.093809134654703 4.200608817056313" fill="#ff0000" stroke="none" /><path d="M 115.16444852881244 85.47280134310134 l 6.633773847566781 -6.355005283933563 a30.18656887088343,30.18656887088343 0 0,0 0.35525878075987877,0.377272514054144 l -6.74188846206292 6.240191309934924" fill="#ff3404" stroke="none" /><path d="M 115.6541949942343 86.00192230759917 l 9.008344218652528 -8.055316948526094 a33.08463473601673,33.08463473601673 0 0,0 0.37494176286396624,0.42661489902910404 l -9.145297045475084 7.899489771685692" fill="#ff6008" stroke="none" /><path d="M 116.35404254752997 86.82634096563983 l 11.845567279101525 -9.541950496333149 a36.21072922111866,36.21072922111866 0 0,0 0.38578836655775556,0.48743099843410587 l -12.00762207630084 9.337199553984364" fill="#ff8e0d" stroke="none" /><path d="M 117.42321728460499 88.27688183743584 l 10.697962429372188 -7.198066557375507 a33.89412898588604,33.89412898588604 0 0,0 0.32066357588401184,0.48552552405361316 l -10.819950444176925 7.013361154982835" fill="#ff6c09" stroke="none" /><line stroke="#e1ed5e" stroke-width="0.3" x1="172.87174338648825" x2="177.1583165268699" y1="56.24261187166439" y2="53.66864786411523" /><path d="M 173.72905801456457 55.72781907015455 a86.0,86.0 0 0,1 12.242430191666344,42.057860355516425" fill="none" id="id63" stroke="none" /><text fill="#e1ed5e" style="font-size:6.75px; font-family:Arial;" text-anchor="middle"><textPath startOffset="22.145653131862474" xlink:href="#id63">March</textPath></text><path d="M 118.00360718960297 89.18935116829356 l 10.385668722525201 -6.236295663376622 a33.11418583376895,33.11418583376895 0 0,0 0.2884502455545123,0.4898515781985899 l -10.491192678209481 6.057092916884477" fill="#ff6008" stroke="none" /><path d="M 118.36410011445183 89.81374322990088 l 7.932297687309455 -4.3999118125156995 a30.070863826450605,30.070863826450605 0 0,0 0.24651614518129925,0.4535619414415059 l -8.006659182106096 4.26309503759959" fill="#ff3204" stroke="none" /><path d="M 118.70294669586156 90.45014215332178 l 10.394706284055047 -5.307611093853131 a32.67136042864611,32.67136042864611 0 0,0 0.25076060520856197,0.5016891882871717 l -10.484286802475347 5.128390049402209" fill="#ff5a08" stroke="none" /><path d="M 119.0197475246899 91.09779779509293 l 12.901286065539503 -6.038453302794577 a35.24451123889179,35.24451123889179 0 0,0 0.2517725816392622,0.5501685285984342 l -13.003043112033817 5.816095791981458" fill="#ff800b" stroke="none" /><path d="M 120.05942366710727 93.78553927170692 l 14.103509871018188 -4.369303409661496 a35.76481638787246,35.76481638787246 0 0,0 0.1766503985783194,0.5880117244387909 l -14.176436589600135 4.126554081631982" fill="#ff870c" stroke="none" /><path d="M 120.26092885502905 94.47779374421319 l 9.040423882970059 -2.464007730282816 a30.37019733403032,30.37019733403032 0 0,0 0.13277636120476763,0.504173470318487 l -9.081389724979555 2.3084537555915308" fill="#ff3705" stroke="none" /><path d="M 120.51834098615036 95.52812308129327 l 11.263607332338674 -2.4548507934856922 a32.52801555148981,32.52801555148981 0 0,0 0.11422334900511691,0.5466000743072988 l -11.304088392168158 2.261134267892989" fill="#ff5708" stroke="none" /><path d="M 120.65975698304385 96.23510406497455 l 22.147314255546913 -4.0359784232154565 a43.512055671719814,43.512055671719814 0 0,0 0.12760466142052027,0.7359897774543771 l -22.213333734459667 3.6551956128404863" fill="#fff316" stroke="none" /><path d="M 120.82617615685814 97.30363454192243 l 9.151353613097418 -1.1848259416975861 a30.22773457919498,30.22773457919498 0 0,0 0.062208553600449086,0.5151760637226038 l -9.17034425295753 1.0275562010515695" fill="#ff3405" stroke="none" /><path d="M 120.9064616781168 98.02013634271609 l 7.085408833656626 -0.6709955832190722 a28.11710990590695,28.11710990590695 0 0,0 0.041380857495288095,0.4809082898489075 l -7.095883313849654 0.5492662459945027" fill="#ff1402" stroke="none" /><path d="M 120.96210409425399 98.7389718711861 l 15.341922682100435 -0.9229319712003523 a36.36965825927862,36.36965825927862 0 0,0 0.032141097585706914,0.6235287065994886 l -15.355505369142715 0.6594314712241331" fill="#ff900d" stroke="none" /><line stroke="#e1ed5e" stroke-width="0.3" x1="184.99686870605535" x2="189.99668451229388" y1="99.2704041080226" y2="99.22748670261217" /><path d="M 185.99683186730306 99.26182062694052 a86.0,86.0 0 0,1 -10.086455211305974,41.156179273409016" fill="none" id="id64" stroke="none" /><text fill="#e1ed5e" style="font-size:6.75px; font-family:Arial;" text-anchor="middle"><textPath startOffset="21.40746469413373" xlink:href="#id64">April</textPath></text><path d="M 120.98066250479742 100.90099992219065 l 8.608489522477752 0.3696855801459029 a29.616423810768424,29.616423810768424 0 0,0 -0.026173035805160803,0.5077499024374118 l -8.600874897216018 -0.5174072759600454" fill="#ff2b04" stroke="none" /><path d="M 120.9064616781168 101.97986365728391 l 11.8709761295156 1.1241937816724739 a32.92408847360167,32.92408847360167 0 0,0 -0.05811510425896995,0.5622109159328678 l -11.849928632774963 -1.327809219888273" fill="#ff5d08" stroke="none" /><path d="M 120.7213421655516 103.40968896794604 l 17.278939371507825 2.8432428981740285 a38.511304234187136,38.511304234187136 0 0,0 -0.11293931904164305,0.6514039797761014 l -17.227585234973947 -3.1394399108707183" fill="#ffae10" stroke="none" /><path d="M 120.51834098615036 104.47187691870673 l 11.347928888039828 2.473228284090019 a32.614316518557246,32.614316518557246 0 0,0 -0.1239175340905394,0.5460035195223952 l -11.303800492391623 -2.6676661375514312" fill="#ff5908" stroke="none" /><path d="M 120.16314734710363 105.8691983318838 l 9.382588455305363 2.731134756030078 a30.772004051228436,30.772004051228436 0 0,0 -0.15198978576460143,0.505924564811576 l -9.334322349537132 -2.8917969244323776" fill="#ff3d05" stroke="none" /><path d="M 119.94978838288452 106.5578916946017 l 13.798628461341526 4.535883250829864 a35.52502613695766,35.52502613695766 0 0,0 -0.19541230561149428,0.5777017590491774 l -13.718730734157667 -4.7720866843532015" fill="#ff840c" stroke="none" /><path d="M 119.58574465831526 107.57618678355244 l 13.109832123979247 5.07116469682529 a35.0564721641401,35.0564721641401 0 0,0 -0.22192637431018855,0.5593994362992547 l -13.020847074702933 -5.295465150338109" fill="#ff7d0b" stroke="none" /><path d="M 118.8641267826498 109.22738970284198 l 10.007524207597962 4.89518157336938 a32.140616832200735,32.140616832200735 0 0,0 -0.24668701954488434,0.4935392881729543 l -9.922017274841346 -5.066252717706081" fill="#ff5207" stroke="none" /><path d="M 118.5362547648365 109.86951160357373 l 7.74633699468827 4.124488135505114 a29.77594093047569,29.77594093047569 0 0,0 -0.24409841432192197,0.4491135889749475 l -7.674393230751009 -4.256856557954665" fill="#ff2e04" stroke="none" /><line stroke="#e1ed5e" stroke-width="0.3" x1="174.33088141563837" x2="178.70328620479359" y1="141.23008692659167" y2="143.65538615756765" /><path d="M 175.20536237346943 141.71514677278685 a86.0,86.0 0 0,1 -30.301960400862466,31.631185727798858" fill="none" id="id65" stroke="none" /><text fill="#e1ed5e" style="font-size:6.75px; font-family:Arial;" text-anchor="middle"><textPath startOffset="22.145653131862474" xlink:href="#id65">May</textPath></text><path d="M 118.18653347947321 110.5 l 7.2630354515374345 4.193315473078931 a29.386630946157865,29.386630946157865 0 0,0 -0.25598035098888006,0.4347105986291698 l -7.189981390418789 -4.31737724000165" fill="#ff2803" stroke="none" /><path d="M 117.62189284568427 111.42229804090321 l 15.43622247273025 10.005572911674712 a39.39533782017773,39.39533782017773 0 0,0 -0.3727090878729203,0.5643290626637931 l -15.262188945936604 -10.269081852677566" fill="#ffbb11" stroke="none" /><path d="M 116.79662413953412 112.60449989151573 l 8.990077608735733 6.746321838405476 a32.23985559330894,32.23985559330894 0 0,0 -0.3359823165227824,0.43981163750557806 l -8.872943314858645 -6.899654389151931" fill="#ff5307" stroke="none" /><path d="M 116.1254893667686 113.45245675266167 l 9.133469771486077 7.619465326482721 a32.894390355462626,32.894390355462626 0 0,0 -0.36544952857374147,0.4304986257500983 l -9.00132567940522 -7.775130734682375" fill="#ff5d08" stroke="none" /><path d="M 115.6541949942343 113.99807769240083 l 11.945916860437048 10.682112518781617 a37.02536918452692,37.02536918452692 0 0,0 -0.4277352233973545,0.47015593869610567 l -11.760783936197813 -10.885606033035394" fill="#ff990e" stroke="none" /><path d="M 115.16444852881244 114.52719865689866 l 10.379730100068123 9.943546636871256 a35.37403619968636,35.37403619968636 0 0,0 -0.4238368764004872,0.4348939731777825 l -10.207506422516829 -10.120263302116776" fill="#ff810b" stroke="none" /><path d="M 114.39649973595853 115.28858382429668 l 8.51499715662327 9.042631902220165 a33.420723340303184,33.420723340303184 0 0,0 -0.4210537341426974,0.38972105035522053 l -8.358513651166605 -9.187470698707765" fill="#ff6509" stroke="none" /><path d="M 113.86319453409587 115.77377054828091 l 7.761068657953407 8.830671453027806 a32.75648523261893,32.75648523261893 0 0,0 -0.4255543496334969,0.3675837116618799 l -7.608334828557055 -8.962599297154403" fill="#ff5b08" stroke="none" /><path d="M 113.31354834802062 116.24036423190432 l 14.649650564897348 17.87019168931232 a44.10748823836906,44.10748823836906 0 0,0 -0.589673492594613,0.4749992248378355 l -14.340726301947484 -18.11903920794356" fill="#fffb17" stroke="none" /><path d="M 112.45986205192187 116.90419585922612 l 7.098782161923237 9.630861363238102 a32.964372059592264,32.964372059592264 0 0,0 -0.4583915534523208,0.3318401345508903 l -6.932409598096949 -9.75130226916207" fill="#ff5e08" stroke="none" /><path d="M 111.8722381534696 117.32195027204791 l 7.68493251599707 11.212546207830432 a34.59335794563513,34.59335794563513 0 0,0 -0.4927143699394519,0.3315202172389403 l -7.491321857960615 -11.342816099126493" fill="#ff760a" stroke="none" /><path d="M 110.96478420261333 117.91015095944535 l 9.392322092793304 15.341652278169688 a38.988385389440666,38.988385389440666 0 0,0 -0.5738110856471782,0.34455706999952135 l -9.127578250588689 -15.500623348705133" fill="#ffb510" stroke="none" /><line stroke="#e1ed5e" stroke-width="0.3" x1="143.1302829299769" x2="145.66735839644613" y1="173.24464959558577" y2="177.55315839532614" /><path d="M 143.63769802327073 174.10635135553383 a86.0,86.0 0 0,1 -40.68552437913181,11.842963189579606" fill="none" id="id66" stroke="none" /><text fill="#e1ed5e" style="font-size:6.75px; font-family:Arial;" text-anchor="middle"><textPath startOffset="21.407464694133747" xlink:href="#id66">June</textPath></text><path d="M 109.71004243097381 118.62028667847754 l 6.371195649473484 12.217607731500674 a34.779044694197594,34.779044694197594 0 0,0 -0.5317430717196912,0.27151180123946334 l -6.1605253560402105 -12.325177484412974" fill="#ff790b" stroke="none" /><path d="M 108.4095320186766 119.2426549942271 l 3.7762941985984213 8.640900142712834 a30.4300346314689,30.4300346314689 0 0,0 -0.4804539116735315,0.2050772053378623 l -3.6274052117544584 -8.7044519977101" fill="#ff3805" stroke="none" /><path d="M 107.407793817531 119.65005319985036 l 3.2857010583811626 8.715712422124842 a30.314476607422897,30.314476607422897 0 0,0 -0.4885117974228145,0.17938829860711447 l -3.135600109304221 -8.770831569740677" fill="#ff3605" stroke="none" /><path d="M 107.06938296918513 119.77432235084164 l 6.016115648119072 16.82814619669162 a38.87121014113957,38.87121014113957 0 0,0 -0.6302582231753827,0.2192365265272511 l -5.726351652898668 -16.928941155787463" fill="#ffb310" stroke="none" /><path d="M 105.3480935250658 120.30758222061773 l 3.191617888859539 12.119092979775811 a33.53231181390487,33.53231181390487 0 0,0 -0.5579053454139922,0.14181735713235227 l -2.9831072502201494 -12.172095568743433" fill="#ff6609" stroke="none" /><path d="M 104.64783097203109 120.47920084513623 l 2.7093872228980853 11.938060019581265 a33.24165250914794,33.24165250914794 0 0,0 -0.557569492733748,0.1215196758263284 l -2.5040553135452015 -11.982811153541313" fill="#ff6209" stroke="none" /><path d="M 104.29559338865022 120.5559693870025 l 3.305028221981673 15.815756475866646 a37.157393491897544,37.157393491897544 0 0,0 -0.6254890089473746,0.12511531963083522 l -3.03304272750334 -15.870161192160342" fill="#ff9b0e" stroke="none" /><path d="M 103.58742460773223 120.69131181640829 l 2.5316629724536317 14.60195926185805 a35.81980201254574,35.81980201254574 0 0,0 -0.6067575910498743,0.09984173070891096 l -2.280627878350685 -14.643266991062633" fill="#ff880c" stroke="none" /><path d="M 102.15924093988457 120.88869738790638 l 3.2060731079920597 31.01584900475762 a52.1811127809723,52.1811127809723 0 0,0 -0.8918011504831771,0.08445449615291763 l -2.6731723941238674 -31.06631525641572" fill="#9eff22" stroke="none" /><path d="M 101.08105385017728 120.97215588758144 l 0.7720097705559009 14.976783304716255 a35.99666753789859,35.99666753789859 0 0,0 -0.6173843976841635,0.02651314247812189 l -0.5147996122709079 -14.987829015620207" fill="#ff8a0c" stroke="none" /><line stroke="#e1ed5e" stroke-width="0.3" x1="101.45913802915013" x2="101.54496967792366" y1="184.9874750549273" y2="189.98673829345242" /><path d="M 101.47630435890484 185.9873277026323 a86.0,86.0 0 0,1 -42.54439059252881,-10.42667462771756" fill="none" id="id67" stroke="none" /><text fill="#e1ed5e" style="font-size:6.75px; font-family:Arial;" text-anchor="middle"><textPath startOffset="22.145653131862474" xlink:href="#id67">July</textPath></text><path d="M 100.36049292484886 120.99690560180557 l 0.1564705797371787 9.113626830759058 a30.114969942498696,30.114969942498696 0 0,0 -0.5169635045860298,0.004437509934072837 l -1.1162618764405363e-15 -9.114969942498696" fill="#ff3304" stroke="none" /><path d="M 98.19965949673042 120.92268563240118 l -1.0276778451998 11.943174331438776 a32.98730723993727,32.98730723993727 0 0,0 -0.563769474817435,-0.05338955541412438 l 1.2325468834022504 -11.923773020519468" fill="#ff5e08" stroke="none" /><path d="M 96.41257539226777 120.69131181640829 l -1.4385127966017601 8.296959540899216 a29.42073967590173,29.42073967590173 0 0,0 -0.4968816417275557,-0.09054838712111625 l 1.580729171880373 -8.271042979846735" fill="#ff2803" stroke="none" /><path d="M 95.70440661134978 120.55596938700252 l -3.609761212940098 17.274014152187245 a38.64715107161527,38.64715107161527 0 0,0 -0.6482370999057578,-0.14128025881208536 l 3.9057607294649923 -17.20950243524144" fill="#ffb010" stroke="none" /><path d="M 93.61358852112213 120.00534299687104 l -3.656338012761806 11.453426748294952 a33.022886173549395,33.022886173549395 0 0,0 -0.5385517929374942,-0.17703267133638634 l 3.852412543347044 -11.388973155556544" fill="#ff5f08" stroke="none" /><path d="M 92.93061703081489 119.77432235084164 l -3.257054811667605 9.110561988368154 a30.67526463669629,30.67526463669629 0 0,0 -0.49432582518756185,-0.1815232901350046 l 3.4129697885092853 -9.05330784922443" fill="#ff3b05" stroke="none" /><path d="M 91.59046798132341 119.24265499422711 l -6.582506865722334 15.062063897600732 a37.43761434918976,37.43761434918976 0 0,0 -0.5866770053037097,-0.26241316224210115 l 6.840097273881679 -14.946846984448776" fill="#ff9f0e" stroke="none" /><path d="M 91.26138138417905 119.09545874513695 l -3.795778321727246 8.294460661894723 a30.121732880292733,30.121732880292733 0 0,0 -0.46833741634113385,-0.2192055585901101 l 3.93760445193987 -8.228078871734086" fill="#ff3304" stroke="none" /><path d="M 90.93487009805054 118.94263497670748 l -4.134091193336394 8.638660590947692 a30.576907997909046,30.576907997909046 0 0,0 -0.47152467925616676,-0.23064634902719322 l 4.28177612185463 -8.566420491823278" fill="#ff3a05" stroke="none" /><path d="M 90.28995756902619 118.62028667847754 l -8.383939304000826 16.077309079255443 a39.13202430737063,39.13202430737063 0 0,0 -0.5929641807389263,-0.3157200274031764 l 8.658692300526315 -15.931018584129692" fill="#ffb711" stroke="none" /><line stroke="#e1ed5e" stroke-width="0.3" x1="58.13341422392154" x2="55.67067388415222" y1="173.97424548756322" y2="178.32567169271397" /><path d="M 57.64086615596768 174.84453072859336 a86.0,86.0 0 0,1 -31.369924170532247,-30.572349798747897" fill="none" id="id68" stroke="none" /><text fill="#e1ed5e" style="font-size:6.75px; font-family:Arial;" text-anchor="middle"><textPath startOffset="22.145653131862474" xlink:href="#id68">August</textPath></text><path d="M 89.65649057296885 118.27599006163327 l -7.602302737225636 13.432540498098845 a36.43464127025614,36.43464127025614 0 0,0 -0.5416747350180142,-0.3127360540758721 l 7.83176994010405 -13.300057546746801" fill="#ff910d" stroke="none" /><path d="M 87.83215693770417 117.11559508785305 l -9.09853736152988 12.798232240042196 a36.702806455828544,36.702806455828544 0 0,0 -0.5103769741748273,-0.3694735701526586 l 9.316895346078661 -12.640157898516472" fill="#ff950d" stroke="none" /><path d="M 87.2517909369889 116.68781488649013 l -4.79905311538886 6.282114579718613 a28.905433220073185,28.905433220073185 0 0,0 -0.3917237543068256,-0.30460676066893266 l 4.906186814330914 -6.198806767428887" fill="#ff2003" stroke="none" /><path d="M 86.96720088162412 116.46651593811092 l -5.697713299133514 7.198874623846761 a30.180835075797177,30.180835075797177 0 0,0 -0.4034879141697595,-0.32502130224434345 l 5.820451983658535 -7.100005027809007" fill="#ff3404" stroke="none" /><path d="M 86.13680546590413 115.77377054828092 l -13.232202295388413 15.055817210279486 a41.044171458442236,41.044171458442236 0 0,0 -0.5252383007591162,-0.46967132731888406 l 13.488705622970901 -14.826450353077218" fill="#ffd213" stroke="none" /><path d="M 85.08716467003676 114.78537596483092 l -8.564495564564435 8.491295187628424 a33.06037637219028,33.06037637219028 0 0,0 -0.3961155740078568,-0.4064494748094986 l 8.708997939723101 -8.343023020751188" fill="#ff5f08" stroke="none" /><path d="M 84.58840730492382 114.26474011684316 l -9.151963881397156 8.470921137733859 a33.47056325143754,33.47056325143754 0 0,0 -0.3866683618531444,-0.4250162640037406 l 9.296029944092181 -8.312567298172445" fill="#ff6509" stroke="none" /><path d="M 83.8745106332314 113.45245675266167 l -10.611930645957745 8.85284997125013 a34.81976934134867,34.81976934134867 0 0,0 -0.3789604303020226,-0.4622701068644142 l 10.762337895498398 -8.66937758268722" fill="#ff790b" stroke="none" /><line stroke="#e1ed5e" stroke-width="0.3" x1="26.387840678322732" x2="22.057713659400548" y1="142.50000000000003" y2="145.00000000000006" /><path d="M 25.521815274538298 143.00000000000003 a86.0,86.0 0 0,1 -11.493303480769221,-40.785679425670985" fill="none" id="id69" stroke="none" /><text fill="#e1ed5e" style="font-size:6.75px; font-family:Arial;" text-anchor="middle"><textPath startOffset="21.40746469413373" xlink:href="#id69">September</textPath></text><path d="M 80.9802524753101 108.90220220490708 l -31.795289282631376 14.881800822543477 a56.10567498693152,56.10567498693152 0 0,0 -0.4007963265634679,-0.8758123057618045 l 32.0460700740499 -14.333799534566984" fill="#70ff27" stroke="none" /><path d="M 80.05021161711548 106.5578916946017 l -14.79404148458113 4.863095282983638 a36.572840433873495,36.572840433873495 0 0,0 -0.19093684551432508,-0.5981069490883674 l 14.875343045872711 -4.608419300203878" fill="#ff930d" stroke="none" /><path d="M 79.48165901384964 104.47187691870673 l -18.623141000544756 4.058826902738887 a40.06031102979613,40.06031102979613 0 0,0 -0.14067328763928735,-0.6731726056573679 l 18.69007199900841 -3.7385378457961105" fill="#ffc412" stroke="none" /><line stroke="#e1ed5e" stroke-width="0.3" x1="15.003131293944662" x2="10.003315487706104" y1="100.72959589197737" y2="100.7725132973878" /><path d="M 14.003168132696942 100.73817937305945 a86.0,86.0 0 0,1 10.791469493833604,-42.45332614584628" fill="none" id="id70" stroke="none" /><text fill="#e1ed5e" style="font-size:6.75px; font-family:Arial;" text-anchor="middle"><textPath startOffset="22.145653131862435" xlink:href="#id70">October</textPath></text><line stroke="#e1ed5e" stroke-width="0.3" x1="26.387840678322718" x2="22.05771365940052" y1="57.49999999999999" y2="54.99999999999999" /><path d="M 25.521815274538284 56.99999999999999 a86.0,86.0 0 0,1 29.574782752854787,-30.34633250058573" fill="none" id="id71" stroke="none" /><text fill="#e1ed5e" style="font-size:6.75px; font-family:Arial;" text-anchor="middle"><textPath startOffset="21.40746469413373" xlink:href="#id71">November</textPath></text><line stroke="#e1ed5e" stroke-width="0.3" x1="56.869717070023135" x2="54.33264160355391" y1="26.7553504044142" y2="22.446841604673864" /><path d="M 56.362301976729285 25.89364864446614 a86.0,86.0 0 0,1 42.16139366436587,-11.88097634709845" fill="none" id="id72" stroke="none" /><text fill="#e1ed5e" style="font-size:6.75px; font-family:Arial;" text-anchor="middle"><textPath startOffset="22.145653131862474" xlink:href="#id72">December</textPath></text></svg>