<?xml version="1.0" encoding="utf-8" ?>
<svg baseProfile="full" height="200mm" version="1.1" viewBox="0,0,200,200" width="200mm" xmlns="http://www.w3.org/2000/svg" xmlns:ev="http://www.w3.org/2001/xml-events" xmlns:xlink="http://www.w3.org/1999/xlink"><defs /><rect fill="#1a1a1a" height="200" width="200" x="0" y="0" /><rect fill="#1a1a1a" height="200" width="180" x="10" y="0" /><text alignment-baseline="middle" fill="#e1ed5e" style="dominant-baseline: central; font-size:9.0px; font-family:Arial;" text-anchor="middle" x="100.0" y="100.0">2015</text><line stroke="#e1ed5e" stroke-width="0.3" x1="100.0" x2="100.0" y1="15.0" y2="10.0" /><path d="M 100.0 14.0 a86.0,86.0 0 0,1 42.46469731375804,11.215312516191453" fill="none" id="id1" stroke="none" /><text fill="#e1ed5e" style="font-size:6.75px; font-family:Arial;" text-anchor="middle"><textPath startOffset="22.20632615414155" xlink:href="#id1">January</textPath></text><line stroke="#e1ed5e" stroke-width="0.3" x1="143.23703022742887" x2="145.7803849466894" y1="26.81831364943548" y2="22.513508569990506" /><path d="M 143.74570117128098 25.957352633546492 a86.0,86.0 0 0,1 28.547481713284135,27.462654790039103" fill="none" id="id2" stroke="none" /><text fill="#e1ed5e" style="font-size:6.75px; font-family:Arial;" text-anchor="middle"><textPath startOffset="19.985693538727396" xlink:href="#id2">February</textPath></text><line stroke="#e1ed5e" stroke-width="0.3" x1="172.23445277983987" x2="176.4835382374775" y1="55.19839476539836" y2="52.563006222186495" /><path d="M 173.08426987136738 54.67131705675599 a86.0,86.0 0 0,1 12.851231095245387,41.99856678651699" fill="none" id="id3" stroke="none" /><text fill="#e1ed5e" style="font-size:6.75px; font-family:Arial;" text-anchor="middle"><textPath startOffset="22.20632615414155" xlink:href="#id3">March</textPath></text><line stroke="#e1ed5e" stroke-width="0.3" x1="184.98032266829074" x2="189.97916517819016" y1="98.17113171792111" y2="98.06355123074" /><path d="M 185.9800911702706 98.14961562048488 a86.0,86.0 0 0,1 -9.607161424134198,41.387399972396054" fill="none" id="id4" stroke="none" /><text fill="#e1ed5e" style="font-size:6.75px; font-family:Arial;" text-anchor="middle"><textPath startOffset="21.466115282336823" xlink:href="#id4">April</textPath></text><line stroke="#e1ed5e" stroke-width="0.3" x1="174.80103733775053" x2="179.2010983576182" y1="140.37084112569926" y2="142.7455964860345" /><path d="M 175.68104954172406 140.8457921977663 a86.0,86.0 0 0,1 -30.038265399797805,32.042727171017184" fill="none" id="id5" stroke="none" /><text fill="#e1ed5e" style="font-size:6.75px; font-family:Arial;" text-anchor="middle"><textPath startOffset="22.206326154141568" xlink:href="#id5">May</textPath></text><line stroke="#e1ed5e" stroke-width="0.3" x1="143.8653032363475" x2="146.44561519142675" y1="172.8068346515853" y2="177.08958963109032" /><path d="M 144.38136562736335 173.6633856474863 a86.0,86.0 0 0,1 -40.68145358897372,12.25698825130547" fill="none" id="id6" stroke="none" /><text fill="#e1ed5e" style="font-size:6.75px; font-family:Arial;" text-anchor="middle"><textPath startOffset="21.466115282336833" xlink:href="#id6">June</textPath></text><line stroke="#e1ed5e" stroke-width="0.3" x1="102.19456741930631" x2="102.32365962044197" y1="184.97166512339345" y2="189.96999836594603" /><path d="M 102.22038585953345 185.97133177190398 a86.0,86.0 0 0,1 -42.740103519485714,-10.115201625700543" fill="none" id="id7" stroke="none" /><text fill="#e1ed5e" style="font-size:6.75px; font-family:Arial;" text-anchor="middle"><textPath startOffset="22.20632615414155" xlink:href="#id7">July</textPath></text><line stroke="#e1ed5e" stroke-width="0.3" x1="58.666819895761336" x2="56.23545636021788" y1="174.27360380694188" y2="178.64263932499728" /><path d="M 58.180547188652646 175.14741091055294 a86.0,86.0 0 0,1 -31.652253787137756,-30.449443065178592" fill="none" id="id8" stroke="none" /><text fill="#e1ed5e" style="font-size:6.75px; font-family:Arial;" text-anchor="middle"><textPath startOffset="22.20632615414155" xlink:href="#id8">August</textPath></text><line stroke="#e1ed5e" stroke-width="0.3" x1="26.63291911575756" x2="22.317208475507996" y1="142.92168965132927" y2="145.44649492493687" /><path d="M 25.769776987707644 143.4266507060508 a86.0,86.0 0 0,1 -11.730757126820373,-40.83630448921669" fill="none" id="id9" stroke="none" /><text fill="#e1ed5e" style="font-size:6.75px; font-family:Arial;" text-anchor="middle"><textPath startOffset="21.46611528233685" xlink:href="#id9">September</textPath></text><path d="M 80.45479744820244 107.68017299344265 l -38.64245315831863 15.184325890733563 a62.518705890825295,62.518705890825295 0 0,0 -0.3849536335283187,-1.004992463849126 l 38.89810107144046 -14.516909860051278" fill="red" stroke="none" /><path d="M 80.20201598880116 107.00284435728193 l -44.21290750995813 15.63876956865922 a67.89725262854674,67.89725262854674 0 0,0 -0.38025426013719427,-1.1051968730323458 l 44.47555260103855 -14.875399992537575" fill="red" stroke="none" /><path d="M 79.97269907076064 106.31721596034903 l -52.74041002125827 16.63591919444427 a76.30194080368716,76.30194080368716 0 0,0 -0.3843191687072465,-1.2559772798935702 l 53.018955962471644 -15.725614941998654" fill="red" stroke="none" /><path d="M 79.86692584326677 105.97154293290107 l -32.2928796935316 9.578185428400722 a54.68340414806279,54.68340414806279 0 0,0 -0.2598955416242679,-0.9047304754859707 l 32.452967872041974 -9.020897477410156" fill="red" stroke="none" /><path d="M 79.76711848015287 105.62410040840567 l -53.736397251302165 14.93701692617738 a76.77378294685295,76.77378294685295 0 0,0 -0.342966488798253,-1.2763058914837884 l 53.9855518164422 -14.009820101518052" fill="red" stroke="none" /><path d="M 79.67330655649465 105.27499134158121 l -51.30565162764071 13.314357736646974 a74.00511306351721,74.00511306351721 0 0,0 -0.3093719814900843,-1.2357872806487562 l 51.52723492342585 -12.429242616600826" fill="red" stroke="none" /><path d="M 79.50377843672027 104.57218783832718 l -29.175676182858854 6.5083543035672315 a50.89278769984157,50.89278769984157 0 0,0 -0.18337389063340334,-0.8566617687276683 l 29.283384112216698 -6.005178715423399" fill="red" stroke="none" /><path d="M 79.29508885075956 103.50808413554451 l -41.84782227328207 7.090379686530197 a63.444242402419704,63.444242402419704 0 0,0 -0.17316727001827167,-1.0783127557048626 l 41.96367129766163 -6.368987701132121" fill="red" stroke="none" /><line stroke="#e1ed5e" stroke-width="0.3" x1="15.007084014347285" x2="10.007500721073583" y1="101.09737516637583" y2="101.16192664675087" /><path d="M 14.007167355692545 101.11028546245083 a86.0,86.0 0 0,1 10.666146001902534,-42.60595125391555" fill="none" id="id10" stroke="none" /><text fill="#e1ed5e" style="font-size:6.75px; font-family:Arial;" text-anchor="middle"><textPath startOffset="22.20632615414155" xlink:href="#id10">October</textPath></text><path d="M 79.03285615573316 98.82574320788736 l -42.79118342032266 -2.3965036986948216 a63.85823851361083,63.85823851361083 0 0,0 0.07091125626841072,-1.0969657484073492 l 42.743591573049834 3.132728511355183" fill="red" stroke="none" /><path d="M 79.05617556472873 98.46500227214037 l -37.5547688729604 -2.75243354280635 a58.65549834365549,58.65549834365549 0 0,0 0.08246827930576488,-1.0063218920219656 l 37.50182610983514 3.398469352036094" fill="red" stroke="none" /><path d="M 79.08570108090925 98.10471618934814 l -41.886960871676756 -3.7958565632353496 a63.05860218925537,63.05860218925537 0 0,0 0.10726831050767187,-1.080177247954778 l 41.815415435486855 4.516309341894558" fill="red" stroke="none" /><path d="M 79.21141760316559 97.0276538004421 l -62.36574719050324 -8.91703859867371 a84.0,84.0 0 0,0 0.21697642624279112,-1.4296035504316318 l 62.20301487082115 9.989241261497433" fill="red" stroke="none" /><path d="M 79.32604984820605 96.31383870115002 l -19.970848253537802 -3.560798366876635 a41.28580944836526,41.28580944836526 0 0,0 0.1307664632501624,-0.6985596755574773 l 19.906596066377777 3.904036119896685" fill="red" stroke="none" /><path d="M 79.81627453868168 94.20196356495316 l -45.756778884555324 -13.144227096800082 a68.60728431513755,68.60728431513755 0 0,0 0.33582972584650583,-1.1322508856548457 l 45.52374326159711 13.929907369201466" fill="red" stroke="none" /><path d="M 79.91906864156998 93.8553929516997 l -39.768877472970274 -12.168963703011702 a62.58902851793173,62.58902851793173 0 0,0 0.32410541083812283,-1.0275027221471125 l 39.55351657836395 12.85171659158523" fill="red" stroke="none" /><path d="M 80.02781315780177 93.51064311812611 l -40.832881420372836 -13.267407427421817 a63.934232320322636,63.934232320322636 0 0,0 0.3490891475463052,-1.0437321182580759 l 40.59845497905476 13.968312648602215" fill="red" stroke="none" /><path d="M 80.14247586403 93.16781622104843 l -41.81899342425498 -14.38825135343695 a65.22499279850209,65.22499279850209 0 0,0 0.37441294933627545,-1.058515826763653 l 41.56512739410889 15.105964806627213" fill="red" stroke="none" /><line stroke="#e1ed5e" stroke-width="0.3" x1="26.266209847984243" x2="21.928928074336255" y1="57.711370442889674" y2="55.22380399835377" /><path d="M 25.398753493254645 57.213857153982495 a86.0,86.0 0 0,1 29.58750427330803,-30.492523968695096" fill="none" id="id11" stroke="none" /><text fill="#e1ed5e" style="font-size:6.75px; font-family:Arial;" text-anchor="middle"><textPath startOffset="21.46611528233685" xlink:href="#id11">November</textPath></text><line stroke="#e1ed5e" stroke-width="0.3" x1="56.762969772571076" x2="54.21961505331055" y1="26.818313649435495" y2="22.513508569990535" /><path d="M 56.25429882871897 25.957352633546506 a86.0,86.0 0 0,1 42.265352541879196,-11.944610805530505" fill="none" id="id12" stroke="none" /><text fill="#e1ed5e" style="font-size:6.75px; font-family:Arial;" text-anchor="middle"><textPath startOffset="22.20632615414155" xlink:href="#id12">December</textPath></text></svg>