<?xml version="1.0" encoding="utf-8" ?>
<svg baseProfile="full" height="200mm" version="1.1" viewBox="0,0,200,200" width="200mm" xmlns="http://www.w3.org/2000/svg" xmlns:ev="http://www.w3.org/2001/xml-events" xmlns:xlink="http://www.w3.org/1999/xlink"><defs /><rect fill="#1a1a1a" height="200" width="200" x="0" y="0" /><text alignment-baseline="middle" fill="#e1ed5e" style="dominant-baseline: central; font-size:9.0px; font-family:Arial;" text-anchor="middle" x="100.0" y="100.0">2024</text><line stroke="#e1ed5e" stroke-width="0.3" x1="100.0" x2="100.0" y1="15.0" y2="10.0" /><path d="M 100.0 14.0 a86.0,86.0 0 0,1 42.35913384403234,11.155469271406648" fill="none" id="id109" stroke="none" /><text fill="#e1ed5e" style="font-size:6.75px; font-family:Arial;" text-anchor="middle"><textPath startOffset="22.145653131862478" xlink:href="#id109">January</textPath></text><path d="M 101.08105385017728 79.02784411241856 l 1.006174177061334 -19.519510233397625 a40.545425711053205,40.545425711053205 0 0,0 0.6947857351102937,0.04179658451905682 l -1.34110426430409 19.49936167105388" fill="#ff770b" stroke="none" /><path d="M 101.44090949804482 79.04949213459386 l 1.3923519902844728 -20.244492359478834 a41.292316648373244,41.292316648373244 0 0,0 0.706749470523055,0.05470687881452694 l -1.7396704555827613 20.217607713669253" fill="#ff830c" stroke="none" /><path d="M 101.80034050326958 79.07731436759882 l 4.648843359690161 -54.02660662937295 a75.22624796597991,75.22624796597991 0 0,0 1.2856539638046416,0.12175276706168583 l -5.575596886879815 53.93884210680608" fill="#40ffc3" stroke="none" /><path d="M 102.51750503828377 79.15144685158666 l 2.6102771390983652 -21.616839227332797 a42.773867018131014,42.773867018131014 0 0,0 0.7282193382131347,0.09428257279075085 l -2.9809742992022916 21.56884505834165" fill="#ff9c0e" stroke="none" /><path d="M 102.87502721639298 79.19773525538626 l 2.4791076108254235 -17.937587705857805 a39.108092866212985,39.108092866212985 0 0,0 0.6642321377591182,0.09761925016069134 l -2.7866648541922237 17.892387382398233" fill="#ff5f08" stroke="none" /><path d="M 103.23170211078529 79.25015418208739 l 4.594101319114028 -29.49742605463125 a50.85303855185806,50.85303855185806 0 0,0 0.8614080881431151,0.14174437309972832 l -5.099786910310213 29.414215683035852" fill="#e6ff1a" stroke="none" /><path d="M 103.94208987418118 79.37332000966035 l 3.438450867790217 -17.991427891315222 a39.317052763438845,39.317052763438845 0 0,0 0.6618436347828778,0.13238726296861722 l -3.7467909881040518 17.92975123168375" fill="#ff6209" stroke="none" /><path d="M 104.29559338865022 79.4440306129975 l 5.869581782497076 -28.088073641772308 a49.69480564853238,49.69480564853238 0 0,0 0.83354182134385,0.18166656037933654 l -6.35088602046006 27.98317562325925" fill="#f7ff19" stroke="none" /><path d="M 104.64783097203109 79.52079915486377 l 13.882002651828417 -61.16666508534267 a83.72217243756668,83.72217243756668 0 0,0 1.3988294441612852,0.3301199400069545 l -14.929964249729586 60.91934900168949" fill="#4dd5ff" stroke="none" /><path d="M 104.9986988182912 79.60360301121754 l 4.379143214379761 -17.868398700955556 a39.39718911758963,39.39718911758963 0 0,0 0.6554842542611387,0.1666215341819447 l -4.685232761866295 17.79059193493834" fill="#ff6409" stroke="none" /><path d="M 105.3480935250658 79.69241777938227 l 4.164826971050819 -15.814526382692634 a37.35374661683596,37.35374661683596 0 0,0 0.6186822770527782,0.16862460576861785 l -4.43569064903829 15.740701282779874" fill="#ff4106" stroke="none" /><path d="M 105.69591212413111 79.78721728523813 l 9.286730123373117 -32.955329019056634 a55.23882397423489,55.23882397423489 0 0,0 0.9104936117379236,0.2650314207008344 l -9.851083747492645 32.791053904053285" fill="#a8ff21" stroke="none" /><path d="M 106.38641147887787 79.99465700312896 l 5.94848126990413 -18.633532854635956 a40.55998405068874,40.55998405068874 0 0,0 0.6614701094633862,0.21743836344644 l -6.26747411701526 18.528673569787493" fill="#ff770b" stroke="none" /><path d="M 106.72888874123014 80.10723608172694 l 4.060895814355333 -12.005316901242997 a33.673535762143075,33.673535762143075 0 0,0 0.5459830743735892,0.1899212550774214 l -4.266384660773941 11.933837213596986" fill="#ff0000" stroke="none" /><path d="M 107.06938296918511 80.22567764915836 l 15.155056613210403 -42.391390595355034 a66.0189486500692,66.0189486500692 0 0,0 1.0638823056939382,0.39067231895623267 l -15.880528070558466 42.12498742739008" fill="#31ff44" stroke="none" /><path d="M 108.07796709384702 80.6158196554323 l 10.169724232229834 -24.403635999237768 a47.43786566542194,47.43786566542194 0 0,0 0.7489872554014697,0.31969812179567075 l -10.587146562801733 24.225463227782697" fill="#ffe515" stroke="none" /><path d="M 108.73861861582097 80.90454125486305 l 9.106674871266469 -19.899728086863906 a42.88448548954433,42.88448548954433 0 0,0 0.6667746910547571,0.3120842228414732 l -9.44693827619273 19.7404676324519" fill="#ff9e0e" stroke="none" /><path d="M 109.06512990194946 81.05736502329252 l 27.195389705848374 -56.82790493012246 a84.0,84.0 0 0,0 1.2953590029517317,0.6336249996111154 l -28.166908958062173 56.352686180414125" fill="#4dd2ff" stroke="none" /><line stroke="#e1ed5e" stroke-width="0.3" x1="143.13028292997686" x2="145.6673583964461" y1="26.7553504044142" y2="22.446841604673864" /><path d="M 143.63769802327073 25.89364864446614 a86.0,86.0 0 0,1 29.32050498858742,28.57503671076993" fill="none" id="id110" stroke="none" /><text fill="#e1ed5e" style="font-size:6.75px; font-family:Arial;" text-anchor="middle"><textPath startOffset="20.669276256404974" xlink:href="#id110">February</textPath></text><line stroke="#e1ed5e" stroke-width="0.3" x1="172.87174338648825" x2="177.1583165268699" y1="56.24261187166439" y2="53.66864786411523" /><path d="M 173.72905801456457 55.72781907015455 a86.0,86.0 0 0,1 12.242430191666344,42.057860355516425" fill="none" id="id111" stroke="none" /><text fill="#e1ed5e" style="font-size:6.75px; font-family:Arial;" text-anchor="middle"><textPath startOffset="22.145653131862474" xlink:href="#id111">March</textPath></text><line stroke="#e1ed5e" stroke-width="0.3" x1="184.99686870605535" x2="189.99668451229388" y1="99.2704041080226" y2="99.22748670261217" /><path d="M 185.99683186730306 99.26182062694052 a86.0,86.0 0 0,1 -10.086455211305974,41.156179273409016" fill="none" id="id112" stroke="none" /><text fill="#e1ed5e" style="font-size:6.75px; font-family:Arial;" text-anchor="middle"><textPath startOffset="21.40746469413373" xlink:href="#id112">April</textPath></text><line stroke="#e1ed5e" stroke-width="0.3" x1="174.33088141563837" x2="178.70328620479359" y1="141.23008692659167" y2="143.65538615756765" /><path d="M 175.20536237346943 141.71514677278685 a86.0,86.0 0 0,1 -30.301960400862466,31.631185727798858" fill="none" id="id113" stroke="none" /><text fill="#e1ed5e" style="font-size:6.75px; font-family:Arial;" text-anchor="middle"><textPath startOffset="22.145653131862474" xlink:href="#id113">May</textPath></text><line stroke="#e1ed5e" stroke-width="0.3" x1="143.1302829299769" x2="145.66735839644613" y1="173.24464959558577" y2="177.55315839532614" /><path d="M 143.63769802327073 174.10635135553383 a86.0,86.0 0 0,1 -40.68552437913181,11.842963189579606" fill="none" id="id114" stroke="none" /><text fill="#e1ed5e" style="font-size:6.75px; font-family:Arial;" text-anchor="middle"><textPath startOffset="21.407464694133747" xlink:href="#id114">June</textPath></text><line stroke="#e1ed5e" stroke-width="0.3" x1="101.45913802915013" x2="101.54496967792366" y1="184.9874750549273" y2="189.98673829345242" /><path d="M 101.47630435890484 185.9873277026323 a86.0,86.0 0 0,1 -42.54439059252881,-10.42667462771756" fill="none" id="id115" stroke="none" /><text fill="#e1ed5e" style="font-size:6.75px; font-family:Arial;" text-anchor="middle"><textPath startOffset="22.145653131862474" xlink:href="#id115">July</textPath></text><line stroke="#e1ed5e" stroke-width="0.3" x1="58.13341422392154" x2="55.67067388415222" y1="173.97424548756322" y2="178.32567169271397" /><path d="M 57.64086615596768 174.84453072859336 a86.0,86.0 0 0,1 -31.369924170532247,-30.572349798747897" fill="none" id="id116" stroke="none" /><text fill="#e1ed5e" style="font-size:6.75px; font-family:Arial;" text-anchor="middle"><textPath startOffset="22.145653131862474" xlink:href="#id116">August</textPath></text><line stroke="#e1ed5e" stroke-width="0.3" x1="26.387840678322732" x2="22.057713659400548" y1="142.50000000000003" y2="145.00000000000006" /><path d="M 25.521815274538298 143.00000000000003 a86.0,86.0 0 0,1 -11.493303480769221,-40.785679425670985" fill="none" id="id117" stroke="none" /><text fill="#e1ed5e" style="font-size:6.75px; font-family:Arial;" text-anchor="middle"><textPath startOffset="21.40746469413373" xlink:href="#id117">September</textPath></text><line stroke="#e1ed5e" stroke-width="0.3" x1="15.003131293944662" x2="10.003315487706104" y1="100.72959589197737" y2="100.7725132973878" /><path d="M 14.003168132696942 100.73817937305945 a86.0,86.0 0 0,1 10.791469493833604,-42.45332614584628" fill="none" id="id118" stroke="none" /><text fill="#e1ed5e" style="font-size:6.75px; font-family:Arial;" text-anchor="middle"><textPath startOffset="22.145653131862435" xlink:href="#id118">October</textPath></text><line stroke="#e1ed5e" stroke-width="0.3" x1="26.387840678322718" x2="22.05771365940052" y1="57.49999999999999" y2="54.99999999999999" /><path d="M 25.521815274538284 56.99999999999999 a86.0,86.0 0 0,1 29.574782752854787,-30.34633250058573" fill="none" id="id119" stroke="none" /><text fill="#e1ed5e" style="font-size:6.75px; font-family:Arial;" text-anchor="middle"><textPath startOffset="21.40746469413373" xlink:href="#id119">November</textPath></text><line stroke="#e1ed5e" stroke-width="0.3" x1="56.869717070023135" x2="54.33264160355391" y1="26.7553504044142" y2="22.446841604673864" /><path d="M 56.362301976729285 25.89364864446614 a86.0,86.0 0 0,1 42.16139366436587,-11.88097634709845" fill="none" id="id120" stroke="none" /><text fill="#e1ed5e" style="font-size:6.75px; font-family:Arial;" text-anchor="middle"><textPath startOffset="22.145653131862474" xlink:href="#id120">December</textPath></text></svg>