<?xml version="1.0" encoding="utf-8" ?>
<svg baseProfile="full" height="200mm" version="1.1" viewBox="0,0,200,200" width="200mm" xmlns="http://www.w3.org/2000/svg" xmlns:ev="http://www.w3.org/2001/xml-events" xmlns:xlink="http://www.w3.org/1999/xlink"><defs /><rect fill="#1a1a1a" height="200" width="200" x="0" y="0" /><text alignment-baseline="middle" fill="#e1ed5e" style="dominant-baseline: central; font-size:9.0px; font-family:Arial;" text-anchor="middle" x="100.0" y="100.0">2016</text><line stroke="#e1ed5e" stroke-width="0.3" x1="100.0" x2="100.0" y1="15.0" y2="10.0" /><path d="M 100.0 14.0 a86.0,86.0 0 0,1 42.35913384403234,11.155469271406648" fill="none" id="id13" stroke="none" /><text fill="#e1ed5e" style="font-size:6.75px; font-family:Arial;" text-anchor="middle"><textPath startOffset="22.145653131862478" xlink:href="#id13">January</textPath></text><line stroke="#e1ed5e" stroke-width="0.3" x1="143.13028292997686" x2="145.6673583964461" y1="26.7553504044142" y2="22.446841604673864" /><path d="M 143.63769802327073 25.89364864446614 a86.0,86.0 0 0,1 29.32050498858742,28.57503671076993" fill="none" id="id14" stroke="none" /><text fill="#e1ed5e" style="font-size:6.75px; font-family:Arial;" text-anchor="middle"><textPath startOffset="20.669276256404974" xlink:href="#id14">February</textPath></text><line stroke="#e1ed5e" stroke-width="0.3" x1="172.87174338648825" x2="177.1583165268699" y1="56.24261187166439" y2="53.66864786411523" /><path d="M 173.72905801456457 55.72781907015455 a86.0,86.0 0 0,1 12.242430191666344,42.057860355516425" fill="none" id="id15" stroke="none" /><text fill="#e1ed5e" style="font-size:6.75px; font-family:Arial;" text-anchor="middle"><textPath startOffset="22.145653131862474" xlink:href="#id15">March</textPath></text><path d="M 120.9064616781168 98.02013634271609 l 21.896378985054795 -2.073609855464087 a42.99434633013282,42.99434633013282 0 0,0 0.06327616616871849,0.7353649658869122 l -21.928748773921257 1.6974238422015124" fill="#ffb710" stroke="none" /><path d="M 120.93736805541906 98.37931529534042 l 24.2730020140643 -1.878883869082262 a45.34561215842122,45.34561215842122 0 0,0 0.0534128963497409,0.7766117904058747 l -24.301678871579107 1.4619286545220531" fill="#ffda14" stroke="none" /><path d="M 120.98066250479742 99.09900007780936 l 22.405636432757323 -0.9621944339426891 a43.4262873005233,43.4262873005233 0 0,0 0.02559113799565594,0.7450580603627266 l -22.418852257749826 0.5774301090158426" fill="#ffbd11" stroke="none" /><path d="M 120.99303781780057 99.45929381324524 l 11.331071549696624 -0.29184820904227426 a32.33482941386704,32.33482941386704 0 0,0 0.009528871598722944,0.5550089992305962 l -11.334411852894013 0.09729229384261165" fill="#ff0901" stroke="none" /><line stroke="#e1ed5e" stroke-width="0.3" x1="184.99686870605535" x2="189.99668451229388" y1="99.2704041080226" y2="99.22748670261217" /><path d="M 185.99683186730306 99.26182062694052 a86.0,86.0 0 0,1 -10.086455211305974,41.156179273409016" fill="none" id="id16" stroke="none" /><text fill="#e1ed5e" style="font-size:6.75px; font-family:Arial;" text-anchor="middle"><textPath startOffset="21.40746469413373" xlink:href="#id16">April</textPath></text><path d="M 120.9064616781168 101.97986365728391 l 23.15961805776144 2.193239909034115 a44.263237304381555,44.263237304381555 0 0,0 -0.07813010989950918,0.7558379393556512 l -23.11855555538026 -2.590482370672697" fill="#ffca12" stroke="none" /><path d="M 120.86939407059847 102.33845913500097 l 10.746131613432159 1.2041264615706513 a31.81338361423753,31.81338361423753 0 0,0 -0.06547181280134987,0.5422005311427065 l -10.723877714371145 -1.3884206696367665" fill="#ff0000" stroke="none" /><path d="M 120.77682067341334 103.0534771498775 l 34.112741314174734 5.013398236420445 a55.47917171053776,55.47917171053776 0 0,0 -0.14656674590026073,0.9410636485689472 l -34.021653076136204 -5.598250066920842" fill="#96ff23" stroke="none" /><path d="M 120.7213421655516 103.40968896794604 l 22.313774773845232 3.6717231476490753 a43.61384742875201,43.61384742875201 0 0,0 -0.12790317875073998,0.7377115460872006 l -22.247456777602256 -4.054227726656864" fill="#ffc011" stroke="none" /><path d="M 119.4528033332814 107.91128576633889 l 32.73397874773794 13.312624186127254 a56.337505958661254,56.337505958661254 0 0,0 -0.3720264790351459,0.8927281182000364 l -32.50062642416631 -13.872584813768567" fill="#8bff24" stroke="none" /><path d="M 119.31412917781788 108.2440532568976 l 20.71000072499046 8.839867816732655 a43.51771287334509,43.51771287334509 0 0,0 -0.2991658700488166,0.6845500570795189 l -20.55520097292468 -9.194079943588019" fill="#ffbf11" stroke="none" /><path d="M 119.16976305983485 108.57439118712176 l 20.536248602647458 9.185602789427435 a43.49695102174685,43.49695102174685 0 0,0 -0.3107246849857509,0.6789895135712698 l -20.37553945280665 -9.536781285213394" fill="#ffbe11" stroke="none" /><path d="M 118.8641267826498 109.22738970284198 l 19.54950712102268 9.562643571186877 a42.76298189000023,42.76298189000023 0 0,0 -0.3282162443978741,0.656652352141511 l -19.382470963413073 -9.896827779492135" fill="#ffb310" stroke="none" /><line stroke="#e1ed5e" stroke-width="0.3" x1="174.33088141563837" x2="178.70328620479359" y1="141.23008692659167" y2="143.65538615756765" /><path d="M 175.20536237346943 141.71514677278685 a86.0,86.0 0 0,1 -30.301960400862466,31.631185727798858" fill="none" id="id17" stroke="none" /><text fill="#e1ed5e" style="font-size:6.75px; font-family:Arial;" text-anchor="middle"><textPath startOffset="22.145653131862474" xlink:href="#id17">May</textPath></text><path d="M 117.81537515405839 111.11811171558189 l 14.229439222436817 8.880222479575226 a37.773052550796365,37.773052550796365 0 0,0 -0.3480198762792689,0.5471450500760078 l -14.074901654531658 -9.123181204329907" fill="#ff6409" stroke="none" /><path d="M 117.01052211995028 112.31430620078461 l 49.989772451920466 36.188740153867485 a82.71387415904893,82.71387415904893 0 0,0 -0.8424919350008551,1.1430021150897163 l -49.361178497335786 -37.04154857822608" fill="#4be0ff" stroke="none" /><path d="M 116.1254893667686 113.45245675266167 l 26.365192542662292 21.994781329655645 a55.33502269623575,55.33502269623575 0 0,0 -0.6147600773090003,0.7241858252777751 l -25.98373790184618 -22.444133937382976" fill="#98ff23" stroke="none" /><path d="M 115.89218393027572 113.72728997021213 l 24.613749887592537 21.260770920073085 a53.524714658929554,53.524714658929554 0 0,0 -0.6065852330285212,0.6901826458710486 l -24.24515359060543 -21.68016584375543" fill="#b0ff20" stroke="none" /><path d="M 115.41159269507618 114.26474011684316 l 45.55608325132772 42.1660305445964 a83.07520320618966,83.07520320618966 0 0,0 -0.977692944456406,1.0382760261100366 l -44.82553447313505 -42.94184803065094" fill="#4cdcff" stroke="none" /><path d="M 114.91283532996324 114.78537596483092 l 26.14810782195332 25.92462106382481 a57.821318824444695,57.821318824444695 0 0,0 -0.7048916575142479,0.6988669786945638 l -25.699224244309107 -26.369668052748032" fill="#78ff26" stroke="none" /><path d="M 114.39649973595853 115.28858382429668 l 24.245849966108352 25.748252450024303 a56.36712802602466,56.36712802602466 0 0,0 -0.7101459024866776,0.6573004454789348 l -23.80027429230771 -26.160670641635615" fill="#8bff24" stroke="none" /><line stroke="#e1ed5e" stroke-width="0.3" x1="143.1302829299769" x2="145.66735839644613" y1="173.24464959558577" y2="177.55315839532614" /><path d="M 143.63769802327073 174.10635135553383 a86.0,86.0 0 0,1 -40.68552437913181,11.842963189579606" fill="none" id="id18" stroke="none" /><text fill="#e1ed5e" style="font-size:6.75px; font-family:Arial;" text-anchor="middle"><textPath startOffset="21.407464694133747" xlink:href="#id18">June</textPath></text><line stroke="#e1ed5e" stroke-width="0.3" x1="101.45913802915013" x2="101.54496967792366" y1="184.9874750549273" y2="189.98673829345242" /><path d="M 101.47630435890484 185.9873277026323 a86.0,86.0 0 0,1 -42.54439059252881,-10.42667462771756" fill="none" id="id19" stroke="none" /><text fill="#e1ed5e" style="font-size:6.75px; font-family:Arial;" text-anchor="middle"><textPath startOffset="22.145653131862474" xlink:href="#id19">July</textPath></text><path d="M 97.48249496171623 120.84855314841334 l -4.365323491703306 36.15114069000527 a57.41374771121165,57.41374771121165 0 0,0 -0.977461339767849,-0.12655193989071883 l 4.985262653361949 -36.070877153914154" fill="#7eff26" stroke="none" /><path d="M 96.76829788921471 120.74984581791261 l -5.73999327987673 36.85487445015621 a58.299186232273314,58.299186232273314 0 0,0 -0.9875396236437488,-0.16249926926767602 l 6.371810406573543 -36.75090918239287" fill="#72ff27" stroke="none" /><path d="M 96.05791012581884 120.62667999033965 l -8.455357287853543 44.24200222395181 a66.04273335011337,66.04273335011337 0 0,0 -1.1117303973527084,-0.2223772152962036 l 9.21358417073721 -44.09033561199274" fill="#33ff4e" stroke="none" /><path d="M 93.95794788825049 120.11202640906438 l -10.832622840607689 36.05827831674422 a58.650300832458726,58.650300832458726 0 0,0 -0.9617514512644659,-0.2979530580463443 l 11.450014924743789 -35.86700867089123" fill="#6eff28" stroke="none" /><path d="M 92.59220618246901 119.65005319985036 l -13.078650196953394 34.69267348453608 a58.07603922318162,58.07603922318162 0 0,0 -0.9298464414927365,-0.3596845789460259 l 13.672268900939658 -34.46304901745201" fill="#75ff27" stroke="none" /><path d="M 91.26138138417905 119.09545874513695 l -11.825908302628495 25.841743877890952 a49.41914555071443,49.41914555071443 0 0,0 -0.7683766082445622,-0.3596390502678488 l 12.267773624744546 -25.634928596052575" fill="#e9ff1a" stroke="none" /><line stroke="#e1ed5e" stroke-width="0.3" x1="58.13341422392154" x2="55.67067388415222" y1="173.97424548756322" y2="178.32567169271397" /><path d="M 57.64086615596768 174.84453072859336 a86.0,86.0 0 0,1 -31.369924170532247,-30.572349798747897" fill="none" id="id20" stroke="none" /><text fill="#e1ed5e" style="font-size:6.75px; font-family:Arial;" text-anchor="middle"><textPath startOffset="22.145653131862474" xlink:href="#id20">August</textPath></text><path d="M 89.03521579738668 117.91015095944536 l -25.91605767380701 42.33193254281729 a70.6350134296519,70.6350134296519 0 0,0 -1.0287009938194258,-0.6419855025398614 l 26.63892279641615 -41.88081124343588" fill="#39ff8c" stroke="none" /><path d="M 88.1277618465304 117.32195027204791 l -20.888892154915325 30.47751792612672 a57.948950112243494,57.948950112243494 0 0,0 -0.8157140054526549,-0.5694317273481617 l 21.409001251541746 -30.11444138297343" fill="#77ff27" stroke="none" /><path d="M 85.08716467003676 114.78537596483092 l -24.741005963098516 24.529545644318258 a55.83986202014539,55.83986202014539 0 0,0 -0.669049824104105,-0.6865040596033398 l 25.15844258835343 -24.10121889264718" fill="#92ff23" stroke="none" /><path d="M 83.8745106332314 113.45245675266167 l -19.137789696675295 15.965424824043613 a45.922876725738526,45.922876725738526 0 0,0 -0.499800930732373,-0.6096758689989134 l 19.4090374466463 -15.634546673346204" fill="#ffe315" stroke="none" /><path d="M 83.64595745247003 113.17365903436017 l -48.41592033357254 39.0004382375514 a83.17021412596151,83.17021412596151 0 0,0 -0.8860937557479514,-1.119550513988325 l 49.07828051996205 -38.163567779648396" fill="#4cdbff" stroke="none" /><path d="M 82.576782715395 111.72311816256416 l -52.26965185381499 35.16935448769248 a84.0,84.0 0 0,0 -0.7947022443170932,-1.2032804866437559 l 52.86567853705281 -34.266894122709665" fill="#4dd2ff" stroke="none" /><line stroke="#e1ed5e" stroke-width="0.3" x1="26.387840678322732" x2="22.057713659400548" y1="142.50000000000003" y2="145.00000000000006" /><path d="M 25.521815274538298 143.00000000000003 a86.0,86.0 0 0,1 -11.493303480769221,-40.785679425670985" fill="none" id="id21" stroke="none" /><text fill="#e1ed5e" style="font-size:6.75px; font-family:Arial;" text-anchor="middle"><textPath startOffset="21.40746469413373" xlink:href="#id21">September</textPath></text><path d="M 81.4637452351635 109.86951160357371 l -19.09288365534067 10.165885135520249 a42.63061318744724,42.63061318744724 0 0,0 -0.33838948728559876,-0.6489064601964873 l 19.264581211601218 -9.836632432219258" fill="#ffb110" stroke="none" /><path d="M 80.9802524753101 108.90220220490708 l -32.45224252178926 15.189288109983035 a56.83102730848083,56.83102730848083 0 0,0 -0.40597795116755586,-0.887135090656091 l 32.70820493781187 -14.629964037112256" fill="#85ff25" stroke="none" /><line stroke="#e1ed5e" stroke-width="0.3" x1="15.003131293944662" x2="10.003315487706104" y1="100.72959589197737" y2="100.7725132973878" /><path d="M 14.003168132696942 100.73817937305945 a86.0,86.0 0 0,1 10.791469493833604,-42.45332614584628" fill="none" id="id22" stroke="none" /><text fill="#e1ed5e" style="font-size:6.75px; font-family:Arial;" text-anchor="middle"><textPath startOffset="22.145653131862435" xlink:href="#id22">October</textPath></text><line stroke="#e1ed5e" stroke-width="0.3" x1="26.387840678322718" x2="22.05771365940052" y1="57.49999999999999" y2="54.99999999999999" /><path d="M 25.521815274538284 56.99999999999999 a86.0,86.0 0 0,1 29.574782752854787,-30.34633250058573" fill="none" id="id23" stroke="none" /><text fill="#e1ed5e" style="font-size:6.75px; font-family:Arial;" text-anchor="middle"><textPath startOffset="21.40746469413373" xlink:href="#id23">November</textPath></text><line stroke="#e1ed5e" stroke-width="0.3" x1="56.869717070023135" x2="54.33264160355391" y1="26.7553504044142" y2="22.446841604673864" /><path d="M 56.362301976729285 25.89364864446614 a86.0,86.0 0 0,1 42.16139366436587,-11.88097634709845" fill="none" id="id24" stroke="none" /><text fill="#e1ed5e" style="font-size:6.75px; font-family:Arial;" text-anchor="middle"><textPath startOffset="22.145653131862474" xlink:href="#id24">December</textPath></text></svg>
