<?xml version="1.0" encoding="utf-8" ?>
<svg baseProfile="full" height="200mm" version="1.1" viewBox="0,0,200,200" width="200mm" xmlns="http://www.w3.org/2000/svg" xmlns:ev="http://www.w3.org/2001/xml-events" xmlns:xlink="http://www.w3.org/1999/xlink"><defs /><rect fill="#1a1a1a" height="200" width="200" x="0" y="0" /><text alignment-baseline="middle" fill="#e1ed5e" style="dominant-baseline: central; font-size:9.0px; font-family:Arial;" text-anchor="middle" x="100.0" y="100.0">2022</text><line stroke="#e1ed5e" stroke-width="0.3" x1="100.0" x2="100.0" y1="15.0" y2="10.0" /><path d="M 100.0 14.0 a86.0,86.0 0 0,1 42.46469731375804,11.215312516191453" fill="none" id="id85" stroke="none" /><text fill="#e1ed5e" style="font-size:6.75px; font-family:Arial;" text-anchor="middle"><textPath startOffset="22.20632615414155" xlink:href="#id85">January</textPath></text><path d="M 102.52436894288641 79.15227682838746 l 0.9901883024960885 -8.177557276791577 a29.2372881392851,29.2372881392851 0 0,0 0.4991017703002833,0.06479773410169648 l -1.130804801304218 8.159301219525744" fill="#ff2403" stroke="none" /><line stroke="#e1ed5e" stroke-width="0.3" x1="143.23703022742887" x2="145.7803849466894" y1="26.81831364943548" y2="22.513508569990506" /><path d="M 143.74570117128098 25.957352633546492 a86.0,86.0 0 0,1 28.547481713284135,27.462654790039103" fill="none" id="id86" stroke="none" /><text fill="#e1ed5e" style="font-size:6.75px; font-family:Arial;" text-anchor="middle"><textPath startOffset="19.985693538727396" xlink:href="#id86">February</textPath></text><line stroke="#e1ed5e" stroke-width="0.3" x1="172.23445277983987" x2="176.4835382374775" y1="55.19839476539836" y2="52.563006222186495" /><path d="M 173.08426987136738 54.67131705675599 a86.0,86.0 0 0,1 12.851231095245387,41.99856678651699" fill="none" id="id87" stroke="none" /><text fill="#e1ed5e" style="font-size:6.75px; font-family:Arial;" text-anchor="middle"><textPath startOffset="22.20632615414155" xlink:href="#id87">March</textPath></text><path d="M 118.21658344932153 89.55222093294921 l 8.590420593084362 -4.926874279102626 a30.903000359899565,30.903000359899565 0 0,0 0.26067763689968576,0.4637164288521596 l -8.67395587127648 4.778274340315673" fill="#ff3e05" stroke="none" /><path d="M 118.73160827565052 90.50648371742162 l 6.400310267614623 -3.243792462718631 a28.175385777985973,28.175385777985973 0 0,0 0.21552826697182836,0.43449183450208634 l -6.45519854753986 3.1331410397175947" fill="#ff1402" stroke="none" /><path d="M 119.196687751892 91.48605970444005 l 5.8268403023364685 -2.584267196874403 a27.37420621362171,27.37420621362171 0 0,0 0.1873298925514121,0.4323832198724312 l -5.870460904730561 2.483584832415369" fill="#ff0701" stroke="none" /><path d="M 120.45610955862082 95.25157060432595 l 5.9778476441300405 -1.3876239465233753 a27.136787650994304,27.136787650994304 0 0,0 0.1017055955650973,0.45592624245513075 l -6.000847626697175 1.2845195345182805" fill="#ff0300" stroke="none" /><path d="M 120.87857604477298 97.74499172005257 l 10.21177002850082 -1.102930866444476 a31.27115882513476,31.27115882513476 0 0,0 0.05319503221339784,0.5356667148870917 l -10.229242186396448 0.9269886208529492" fill="#ff4306" stroke="none" /><path d="M 120.98425023603335 99.18683210126433 l 7.996498788524121 -0.30987507506656775 a29.002500574009055,29.002500574009055 0 0,0 0.015037527990482859,0.4990223455577653 l -8.00064801097025 0.17218258208380335" fill="#ff2103" stroke="none" /><line stroke="#e1ed5e" stroke-width="0.3" x1="184.98032266829074" x2="189.97916517819016" y1="98.17113171792111" y2="98.06355123074" /><path d="M 185.9800911702706 98.14961562048488 a86.0,86.0 0 0,1 -9.607161424134198,41.387399972396054" fill="none" id="id88" stroke="none" /><text fill="#e1ed5e" style="font-size:6.75px; font-family:Arial;" text-anchor="middle"><textPath startOffset="21.466115282336823" xlink:href="#id88">April</textPath></text><path d="M 120.70491114924044 103.5080841355445 l 9.727678298842138 1.6481845138031663 a30.866318324344945,30.866318324344945 0 0,0 -0.0932656052176561,0.5230830440730493 l -9.697866251285292 -1.815386308609434" fill="#ff3d05" stroke="none" /><path d="M 120.41448212921028 104.9243191809786 l 20.300257747341213 4.896766323599552 a41.88249949207292,41.88249949207292 0 0,0 -0.17508617068794582,0.699382218491556 l -20.212960262358205 -5.245476381488504" fill="#ffdc14" stroke="none" /><path d="M 119.67450827220406 107.3425965602758 l 20.48622799489749 7.64553325182082 a42.86640610991252,42.86640610991252 0 0,0 -0.2639462630133115,0.6890804036793428 l -20.35158745229067 -7.997037222333306" fill="#ffea16" stroke="none" /><path d="M 118.64920377521936 109.65438752849418 l 8.768288401376394 4.539199378633673 a30.873561287028107,30.873561287028107 0 0,0 -0.24838146388611623,0.46984412467391357 l -8.688854429265385 -4.689458518393721" fill="#ff3d05" stroke="none" /><line stroke="#e1ed5e" stroke-width="0.3" x1="174.80103733775053" x2="179.2010983576182" y1="140.37084112569926" y2="142.7455964860345" /><path d="M 175.68104954172406 140.8457921977663 a86.0,86.0 0 0,1 -30.038265399797805,32.042727171017184" fill="none" id="id89" stroke="none" /><text fill="#e1ed5e" style="font-size:6.75px; font-family:Arial;" text-anchor="middle"><textPath startOffset="22.206326154141568" xlink:href="#id89">May</textPath></text><path d="M 118.48025628344425 109.97397251340804 l 20.33318417983748 10.974015566085274 a44.10557068189131,44.10557068189131 0 0,0 -0.36633580959646256,0.6650059038464863 l -20.14127196078951 -11.322391988329567" fill="#fffa17" stroke="none" /><path d="M 117.14729908036423 112.12312394758627 l 10.439101195975493 7.380434499164212 a33.78458631228521,33.78458631228521 0 0,0 -0.3398089207326309,0.4719648703695321 l -10.310512482867258 -7.559032974984875" fill="#ff6909" stroke="none" /><path d="M 115.56566222782051 114.09645910891815 l 14.198277526662894 12.858138358800764 a40.15522922802555,40.15522922802555 0 0,0 -0.46838893510285856,0.5083436811159694 l -13.974842183564315 -13.100633294718069" fill="#ffc512" stroke="none" /><path d="M 115.07121518719521 114.62390073753431 l 7.258503250169752 7.043070496646997 a31.11388705955649,31.11388705955649 0 0,0 -0.3762696814160774,0.3811592007277568 l -7.136192943698139 -7.166970191355418" fill="#ff4106" stroke="none" /><path d="M 113.75828350139079 115.86535959552629 l 4.60811419836623 5.313845205104266 a28.033609836278526,28.033609836278526 0 0,0 -0.36728637533949965,0.3130094171720668 l -4.515962346449682 -5.392379012499279" fill="#ff1101" stroke="none" /><path d="M 112.04921762599082 117.19931262002967 l 7.549572381559034 10.776422135316711 a34.157785420918785,34.157785420918785 0 0,0 -0.4844600582928338,0.3332160456364723 l -7.362955438643316 -10.904778970318278" fill="#ff6f0a" stroke="none" /><path d="M 111.1453310114006 117.79835938074945 l 5.804476182099416 9.269366069103697 a31.93677699652006,31.93677699652006 0 0,0 -0.46843769533578794,0.28775269238436885 l -5.644059286831319 -9.367907228316444" fill="#ff4e07" stroke="none" /><line stroke="#e1ed5e" stroke-width="0.3" x1="143.8653032363475" x2="146.44561519142675" y1="172.8068346515853" y2="177.08958963109032" /><path d="M 144.38136562736335 173.6633856474863 a86.0,86.0 0 0,1 -40.68145358897372,12.25698825130547" fill="none" id="id90" stroke="none" /><text fill="#e1ed5e" style="font-size:6.75px; font-family:Arial;" text-anchor="middle"><textPath startOffset="21.466115282336833" xlink:href="#id90">June</textPath></text><line stroke="#e1ed5e" stroke-width="0.3" x1="102.19456741930631" x2="102.32365962044197" y1="184.97166512339345" y2="189.96999836594603" /><path d="M 102.22038585953345 185.97133177190398 a86.0,86.0 0 0,1 -42.740103519485714,-10.115201625700543" fill="none" id="id91" stroke="none" /><text fill="#e1ed5e" style="font-size:6.75px; font-family:Arial;" text-anchor="middle"><textPath startOffset="22.20632615414155" xlink:href="#id91">July</textPath></text><path d="M 100.18074693466247 120.99922214144158 l 0.1708381379861729 19.848015771339856 a40.848750986617425,40.848750986617425 0 0,0 -0.7031701452972431,0.0 l 0.17083813798615924 -19.848015771339856" fill="#ffce13" stroke="none" /><path d="M 99.09653310690486 120.98055641714683 l -0.25517871632794453 5.9258302604008986 a26.931321981847702,26.931321981847702 0 0,0 -0.46297755089738596,-0.023930651063363714 l 0.35714433563881937 -5.920559802575332" fill="#ff0000" stroke="none" /><path d="M 93.76903079525671 120.05430185196036 l -3.351035188871182 10.785267746630172 a32.29386723861911,32.29386723861911 0 0,0 -0.5294328178439778,-0.1695076693363022 l 3.5361893518060996 -10.725987230634162" fill="#ff5307" stroke="none" /><path d="M 90.7491055286396 118.85261126421891 l -3.9387335751423467 8.026836020600092 a29.941125134878536,29.941125134878536 0 0,0 -0.4607313136627371,-0.231020245295673 l 4.076318796487844 -7.957847934395116" fill="#ff2f04" stroke="none" /><path d="M 90.10565033884886 118.52300852407294 l -4.829095963211744 9.040451242727814 a31.24938663989445,31.24938663989445 0 0,0 -0.47227821250473195,-0.25752373737177214 l 4.983996987585116 -8.955986853596276" fill="#ff4306" stroke="none" /><line stroke="#e1ed5e" stroke-width="0.3" x1="58.666819895761336" x2="56.23545636021788" y1="174.27360380694188" y2="178.64263932499728" /><path d="M 58.180547188652646 175.14741091055294 a86.0,86.0 0 0,1 -31.652253787137756,-30.449443065178592" fill="none" id="id92" stroke="none" /><text fill="#e1ed5e" style="font-size:6.75px; font-family:Arial;" text-anchor="middle"><textPath startOffset="22.20632615414155" xlink:href="#id92">August</textPath></text><path d="M 88.24862548938628 117.40417183066458 l -9.743492784029682 14.430433009426475 a38.41186516350226,38.41186516350226 0 0,0 -0.5447956946544279,-0.3747154464956783 l 9.990445363307 -14.260576773565695" fill="#ffac0f" stroke="none" /><path d="M 87.36589467227662 116.77436683061367 l -5.925390415974557 7.8671714279645295 a30.848991717871662,30.848991717871662 0 0,0 -0.42141378470474955,-0.3231221201059601 l 6.059932929172794 -7.764009966031202" fill="#ff3d05" stroke="none" /><path d="M 86.51685102203217 116.09983520530335 l -3.896964599790892 4.653251844955172 a27.0695210539714,27.0695210539714 0 0,0 -0.3546552273557978,-0.30224487883345696 l 3.976485303723747 -4.585482575898763" fill="#ff0200" stroke="none" /><path d="M 83.95833913139862 113.55231037782056 l -4.533815660082917 3.830256575335777 a26.9351790093068,26.9351790093068 0 0,0 -0.2961638369920283,-0.3567484204316382 l 4.5990754969684815 -3.751646897790378" fill="#ff0000" stroke="none" /><path d="M 83.50135304334701 112.99209946851258 l -13.851265660678335 10.907380568911373 a38.63032930145527,38.63032930145527 0 0,0 -0.40689359476680964,-0.5259648210446515 l 14.036966072663214 -10.66733775375347" fill="#ffaf10" stroke="none" /><path d="M 82.85270091963577 112.12312394758628 l -18.083776634986624 12.785212677456306 a43.14688783084155,43.14688783084155 0 0,0 -0.4235362055346116,-0.6101354928954883 l 18.301173747683368 -12.472035922373806" fill="#ffed16" stroke="none" /><path d="M 82.05923443525364 110.91462005526583 l -15.400114805234512 9.368964847124412 a39.02612100039984,39.02612100039984 0 0,0 -0.3442087598375667,-0.5769136803386378 l 15.55910444077031 -9.102489072899662" fill="#ffb510" stroke="none" /><line stroke="#e1ed5e" stroke-width="0.3" x1="26.63291911575756" x2="22.317208475507996" y1="142.92168965132927" y2="145.44649492493687" /><path d="M 25.769776987707644 143.4266507060508 a86.0,86.0 0 0,1 -11.730757126820373,-40.83630448921669" fill="none" id="id93" stroke="none" /><text fill="#e1ed5e" style="font-size:6.75px; font-family:Arial;" text-anchor="middle"><textPath startOffset="21.46611528233685" xlink:href="#id93">September</textPath></text><path d="M 81.51974371655577 109.97397251340807 l -27.952140385510504 15.086039696633769 a52.76335539359306,52.76335539359306 0 0,0 -0.42448745482792744,-0.8029702922603239 l 28.20768034856332 -14.602654389287318" fill="#97ff23" stroke="none" /><path d="M 80.58989483394504 108.01547362559985 l -8.913519301736418 3.68087026129517 a30.643631692620517,30.643631692620517 0 0,0 -0.1971368824444043,-0.48927757514894776 l 8.97555879843821 -3.526893318303417" fill="#ff3a05" stroke="none" /><path d="M 79.86692584326677 105.97154293290107 l -16.510877533399874 4.89718625595959 a38.22183236907409,38.22183236907409 0 0,0 -0.1816581096256495,-0.6323757109119644 l 16.592728279911626 -4.61225306954303" fill="#ffaa0f" stroke="none" /><path d="M 79.67330655649465 105.27499134158121 l -21.908496060628636 5.68548580456933 a43.63419864878233,43.63419864878233 0 0,0 -0.18240899767452065,-0.7286332722062812 l 22.003116372598214 -5.307524692965657" fill="#fff417" stroke="none" /><line stroke="#e1ed5e" stroke-width="0.3" x1="15.007084014347285" x2="10.007500721073583" y1="101.09737516637583" y2="101.16192664675087" /><path d="M 14.007167355692545 101.11028546245083 a86.0,86.0 0 0,1 10.666146001902534,-42.60595125391555" fill="none" id="id94" stroke="none" /><text fill="#e1ed5e" style="font-size:6.75px; font-family:Arial;" text-anchor="middle"><textPath startOffset="22.20632615414155" xlink:href="#id94">October</textPath></text><path d="M 79.21141760316559 97.0276538004421 l -8.049680800868543 -1.1509413041920185 a29.131545171833388,29.131545171833388 0 0,0 0.07524831621803386,-0.49579238580014845 l 8.028676591211209 1.289332802384259" fill="#ff2303" stroke="none" /><path d="M 79.32604984820605 96.31383870115002 l -14.649959070299571 -2.6120848583930942 a35.881004269500735,35.881004269500735 0 0,0 0.11364757258919075,-0.6071098771244113 l 14.602825773800518 2.863872812980078" fill="#ff880c" stroke="none" /><path d="M 79.62865764111835 94.90015583598534 l -21.44037918998126 -5.367471164148156 a43.10202720358799,43.10202720358799 0 0,0 0.18637248447198038,-0.7181692087916927 l 21.34481037363897 5.735736798488713" fill="#ffed16" stroke="none" /><path d="M 79.91906864156998 93.8553929516997 l -14.225311917428765 -4.352833556965905 a35.87637923430259,35.87637923430259 0 0,0 0.1857790239991758,-0.5889702747737456 l 14.148277409661386 4.597053998166065" fill="#ff880c" stroke="none" /><path d="M 80.52162464483688 92.15188598940014 l -13.70654356684481 -5.522561026905067 a35.77728042793076,35.77728042793076 0 0,0 0.23507089529739375,-0.5692428186187954 l 13.609450984661216 5.757678415977174" fill="#ff860c" stroke="none" /><path d="M 80.803312248108 91.48605970444005 l -13.66223533592558 -6.059350313831895 a35.9456482161179,35.9456482161179 0 0,0 0.25572364565421174,-0.5634531557452994 l 13.555909373308015 6.293625478419266" fill="#ff890c" stroke="none" /><path d="M 81.43458229118936 90.18545643968196 l -27.657900767324524 -14.621253134479048 a52.28482888042835,52.28482888042835 0 0,0 0.4274705548817945,-0.7920380166700857 l 27.402122113224255 15.095172134481606" fill="#9dff22" stroke="none" /><line stroke="#e1ed5e" stroke-width="0.3" x1="26.266209847984243" x2="21.928928074336255" y1="57.711370442889674" y2="55.22380399835377" /><path d="M 25.398753493254645 57.213857153982495 a86.0,86.0 0 0,1 29.58750427330803,-30.492523968695096" fill="none" id="id95" stroke="none" /><text fill="#e1ed5e" style="font-size:6.75px; font-family:Arial;" text-anchor="middle"><textPath startOffset="21.46611528233685" xlink:href="#id95">November</textPath></text><path d="M 82.15384107792192 88.93136811851018 l -12.853035618683315 -7.971772550275842 a36.124472956386725,36.124472956386725 0 0,0 0.332297679777759,-0.5256151279480081 l 12.713910342659593 8.191835325938067" fill="#ff8c0c" stroke="none" /><path d="M 82.7489923806493 88.02491185347247 l -51.75302285805211 -35.92526443958256 a84.0,84.0 0 0,0 0.834749520784487,-1.1806939986728553 l 51.12696071746375 36.810784938587204" fill="#4dd2ff" stroke="none" /><path d="M 84.80347519578584 85.50635884689758 l -6.925934058368381 -6.605589382133248 a30.570912896177596,30.570912896177596 0 0,0 0.36646625081843337,-0.37767568476128255 l 6.81120354384683 6.723829262444654" fill="#ff3905" stroke="none" /><path d="M 85.31137513191541 84.99185889309783 l -10.790559406949107 -11.025282465602299 a36.427022582508116,36.427022582508116 0 0,0 0.4518976080024698,-0.43472514086036573 l 10.599178555334209 11.209390693224979" fill="#ff900d" stroke="none" /><path d="M 85.83668400450813 84.49514656593479 l -16.23414260024489 -17.771827001856703 a45.07042211821407,45.07042211821407 0 0,0 0.5773070635338614,-0.5183119817493199 l 15.925824549115058 18.048637992375305" fill="#f7ff18" stroke="none" /><path d="M 86.65592168130627 83.78471172551755 l -6.284098652496895 -7.6362314999885905 a30.889485699253086,30.889485699253086 0 0,0 0.41347283095954795,-0.3343329408612831 l 6.151722422972846 7.743270538114008" fill="#ff3e05" stroke="none" /><path d="M 87.51073957382395 83.11751280151077 l -7.2061381344915425 -9.740971895430931 a33.116722340672354,33.116722340672354 0 0,0 0.46119716931147536,-0.3350793573004768 l 7.037395648826286 9.863570487548076" fill="#ff5f08" stroke="none" /><path d="M 88.09926311788651 82.69761687909137 l -9.285998168150222 -13.500836087458895 a37.38604092022602,37.38604092022602 0 0,0 0.5333658264011778,-0.36013098687982686 l 9.052227647342503 13.658678986637387" fill="#ff9e0e" stroke="none" /><path d="M 89.00827224532344 82.1063720568725 l -5.14589685324708 -8.377096465706936 a30.8313783174089,30.8313783174089 0 0,0 0.45459829894592685,-0.27389038857984005 l 5.000936488083504 8.464433463745394" fill="#ff3d05" stroke="none" /><line stroke="#e1ed5e" stroke-width="0.3" x1="56.762969772571076" x2="54.21961505331055" y1="26.818313649435495" y2="22.513508569990535" /><path d="M 56.25429882871897 25.957352633546506 a86.0,86.0 0 0,1 42.265352541879196,-11.944610805530505" fill="none" id="id96" stroke="none" /><text fill="#e1ed5e" style="font-size:6.75px; font-family:Arial;" text-anchor="middle"><textPath startOffset="22.20632615414155" xlink:href="#id96">December</textPath></text><path d="M 89.94658935756843 81.56283822128135 l -11.602372430244486 -21.277835465161505 a45.23553853522925,45.23553853522925 0 0,0 0.6868369302341703,-0.3668845014618778 l 11.23439045348201 21.47439869312513" fill="#f5ff19" stroke="none" /><path d="M 90.91171255644093 81.06846463323043 l -7.040737083054802 -14.666345438979585 a37.26879427641091,37.26879427641091 0 0,0 0.580721977420671,-0.27265675503058934 l 6.787236894334523 14.785367176650183" fill="#ff9c0e" stroke="none" /><path d="M 91.56875222667455 80.76684994638697 l -3.8636320273246945 -8.813620063281773 a30.623281719998232,30.623281719998232 0 0,0 0.4846006621580266,-0.20748071325952047 l 3.71134760737636 8.87882030450408" fill="#ff3a05" stroke="none" /><path d="M 92.57280143429618 80.3572730644239 l -6.366992704666227 -16.83879836955894 a39.00232558954353,39.00232558954353 0 0,0 0.6300132464736169,-0.23203919557673428 l 6.076197132420041 16.945900832941998" fill="#ffb510" stroke="none" /><path d="M 98.55514903715128 79.0497635885617 l -1.017094830230291 -14.747802848927762 a35.782833651385076,35.782833651385076 0 0,0 0.6148478276894468,-0.03708930004280979 l 0.7630849537012211 14.763125418350878" fill="#ff870c" stroke="none" /><path d="M 99.63851952072746 79.00311137660856 l -0.41916999064035454 -24.347830968509307 a45.351438896955436,45.351438896955436 0 0,0 0.7806504699128843,-0.006719305054689237 l 5.964382339957766e-15 24.351438896955436" fill="#f4ff19" stroke="none" /></svg>
