<?xml version="1.0" encoding="utf-8" ?>
<svg baseProfile="full" height="200mm" version="1.1" viewBox="0,0,200,200" width="200mm" xmlns="http://www.w3.org/2000/svg" xmlns:ev="http://www.w3.org/2001/xml-events" xmlns:xlink="http://www.w3.org/1999/xlink"><defs /><rect fill="#1a1a1a" height="200" width="200" x="0" y="0" /><text alignment-baseline="middle" fill="#e1ed5e" style="dominant-baseline: central; font-size:9.0px; font-family:Arial;" text-anchor="middle" x="100.0" y="100.0">2019</text><line stroke="#e1ed5e" stroke-width="0.3" x1="100.0" x2="100.0" y1="15.0" y2="10.0" /><path d="M 100.0 14.0 a86.0,86.0 0 0,1 42.46469731375804,11.215312516191453" fill="none" id="id49" stroke="none" /><text fill="#e1ed5e" style="font-size:6.75px; font-family:Arial;" text-anchor="middle"><textPath startOffset="22.20632615414155" xlink:href="#id49">January</textPath></text><path d="M 100.0 79.0 l 0.0 -45.86096201966457 a66.86096201966457,66.86096201966457 0 0,0 1.1509015521662223,0.009906173012082253 l -0.7894210728936938 45.854167223261044" fill="#33ff53" stroke="none" /><path d="M 106.74666289553966 80.11325718540242 l 10.015596570905638 -29.52238702663593 a52.17504627777829,52.17504627777829 0 0,0 0.8480134396874877,0.29585523792659196 l -10.522292014656399 29.34561093553713" fill="#cdff1d" stroke="none" /><line stroke="#e1ed5e" stroke-width="0.3" x1="143.23703022742887" x2="145.7803849466894" y1="26.81831364943548" y2="22.513508569990506" /><path d="M 143.74570117128098 25.957352633546492 a86.0,86.0 0 0,1 28.547481713284135,27.462654790039103" fill="none" id="id50" stroke="none" /><text fill="#e1ed5e" style="font-size:6.75px; font-family:Arial;" text-anchor="middle"><textPath startOffset="19.985693538727396" xlink:href="#id50">February</textPath></text><line stroke="#e1ed5e" stroke-width="0.3" x1="172.23445277983987" x2="176.4835382374775" y1="55.19839476539836" y2="52.563006222186495" /><path d="M 173.08426987136738 54.67131705675599 a86.0,86.0 0 0,1 12.851231095245387,41.99856678651699" fill="none" id="id51" stroke="none" /><text fill="#e1ed5e" style="font-size:6.75px; font-family:Arial;" text-anchor="middle"><textPath startOffset="22.20632615414155" xlink:href="#id51">March</textPath></text><path d="M 120.98425023603335 99.18683210126433 l 19.843031674644664 -0.7689441457245145 a40.85792489511921,40.85792489511921 0 0,0 0.021184455722207816,0.7030089513749469 l -19.853327824822514 0.4272650469245685" fill="#ff850c" stroke="none" /><line stroke="#e1ed5e" stroke-width="0.3" x1="184.98032266829074" x2="189.97916517819016" y1="98.17113171792111" y2="98.06355123074" /><path d="M 185.9800911702706 98.14961562048488 a86.0,86.0 0 0,1 -9.607161424134198,41.387399972396054" fill="none" id="id52" stroke="none" /><text fill="#e1ed5e" style="font-size:6.75px; font-family:Arial;" text-anchor="middle"><textPath startOffset="21.466115282336823" xlink:href="#id52">April</textPath></text><path d="M 120.99824983174949 100.27111621757518 l 18.979055877760207 0.2450456530403957 a39.980637749644195,39.980637749644195 0 0,0 -0.014807947344293197,0.6880671263775047 l -18.972025867730906 -0.5717025952080151" fill="#ff770a" stroke="none" /><path d="M 120.9764740272857 100.99374915477107 l 23.87446377876471 1.1310398577901413 a44.901239965396314,44.901239965396314 0 0,0 -0.04321990044644605,0.7717203559581803 l -23.851457527430735 -1.541831930083745" fill="#ffc512" stroke="none" /><path d="M 120.92983693683757 101.71520430193887 l 23.662515943427643 1.939147890322581 a44.74183976261128,44.74183976261128 0 0,0 -0.06951050407436174,0.7670426202436984 l -23.625630843076205 -2.3461718991148497" fill="#ffc312" stroke="none" /><path d="M 120.5718875245553 104.21870165774334 l 28.993783247460144 5.945789918611526 a50.5971600792536,50.5971600792536 0 0,0 -0.18230870262904558,0.8516855649906686 l -28.887140506106654 -6.4439893030183635" fill="#e4ff1b" stroke="none" /><path d="M 120.32669344350535 105.2749913415812 l 17.241849266777354 4.474441740752416 a38.81297266122806,38.81297266122806 0 0,0 -0.17338664896399117,0.6452362222116327 l -17.162274541471586 -4.770568896139598" fill="#ff6309" stroke="none" /><path d="M 120.13307415673323 105.97154293290107 l 28.16772572433756 8.354649775568927 a50.380621936132016,50.380621936132016 0 0,0 -0.2537581421587149,0.8292962909225235 l -28.01974080967271 -8.838273039043507" fill="#e7ff1a" stroke="none" /><path d="M 119.9155931802556 106.66101706037122 l 14.008144687357818 4.685197669088026 a35.770890114694474,35.770890114694474 0 0,0 -0.20033260299096273,0.5822603179045561 l -13.925421253423625 -4.925630690081883" fill="#ff3004" stroke="none" /><path d="M 118.64920377521936 109.65438752849418 l 15.916521129440705 8.239722453634837 a38.922853315721426,38.922853315721426 0 0,0 -0.3131389733534066,0.5923409280814018 l -15.772329647862405 -8.512478396802372" fill="#ff6509" stroke="none" /><line stroke="#e1ed5e" stroke-width="0.3" x1="174.80103733775053" x2="179.2010983576182" y1="140.37084112569926" y2="142.7455964860345" /><path d="M 175.68104954172406 140.8457921977663 a86.0,86.0 0 0,1 -30.038265399797805,32.042727171017184" fill="none" id="id53" stroke="none" /><text fill="#e1ed5e" style="font-size:6.75px; font-family:Arial;" text-anchor="middle"><textPath startOffset="22.206326154141568" xlink:href="#id53">May</textPath></text><path d="M 117.94076556474637 110.91462005526583 l 17.58838538475175 10.700242593737372 a41.587532440955144,41.587532440955144 0 0,0 -0.3773283561408415,0.6083734540631963 l -17.401592388942948 -11.00141237916584" fill="#ff910d" stroke="none" /><path d="M 116.71984013943494 112.70617746262583 l 19.09204707065296 14.50892689053668 a44.97947499139559,44.97947499139559 0 0,0 -0.47376920158128977,0.6124105577748864 l -18.8394710518536 -14.835415442424818" fill="#ffc612" stroke="none" /><path d="M 116.27256486870786 113.27417163493432 l 27.64639187106787 22.5522499829708 a56.67810200645564,56.67810200645564 0 0,0 -0.6232000224634472,0.7506845733930027 l -27.25409584871088 -23.02479581347757" fill="#90ff24" stroke="none" /><path d="M 115.56566222782051 114.09645910891815 l 13.421208208629087 12.154414629855875 a39.10686678511297,39.10686678511297 0 0,0 -0.4561603567164864,0.4950719744511258 l -13.21000144391688 -12.383637859108335" fill="#ff6809" stroke="none" /><path d="M 115.07121518719521 114.62390073753431 l 10.583062456547063 10.26895661307804 a35.746276848087966,35.746276848087966 0 0,0 -0.43229057737772375,0.4379080725699768 l -10.404731254113804 -10.44960517962868" fill="#ff2f04" stroke="none" /><path d="M 114.29624159901734 115.38237550388516 l 20.23393672636564 21.771177444860946 a50.72198450275806,50.72198450275806 0 0,0 -0.64465335789147,0.5888755578502693 l -19.85618381900731 -22.116245769297798" fill="#e2ff1b" stroke="none" /><path d="M 113.48314897796784 116.09983520530334 l 11.43182349766354 13.650407238638792 a38.80506125410454,38.80506125410454 0 0,0 -0.5157929409368375,0.4244624753863807 l -11.195160428182012 -13.845164832882352" fill="#ff6309" stroke="none" /><path d="M 112.63410532772338 116.77436683061366 l 37.65445938255276 49.994020004359115 a83.58802079941955,83.58802079941955 0 0,0 -1.1567588160608084,0.8557425179242124 l -36.78831559607338 -50.6347724710231" fill="#4cd7ff" stroke="none" /><path d="M 112.04921762599082 117.19931262002967 l 10.276070617598732 14.66828441012977 a38.90966763718222,38.90966763718222 0 0,0 -0.5518560298736441,0.37957160943903295 l -10.022057703102204 -14.842996808933897" fill="#ff6509" stroke="none" /><path d="M 111.45004920935366 117.60387380957326 l 8.764954462529802 13.475675910544004 a37.075393244839674,37.075393244839674 0 0,0 -0.537978429427093,0.34336328722878773 l -8.531694231055779 -13.624553626596601" fill="#ff4606" stroke="none" /><line stroke="#e1ed5e" stroke-width="0.3" x1="143.8653032363475" x2="146.44561519142675" y1="172.8068346515853" y2="177.08958963109032" /><path d="M 144.38136562736335 173.6633856474863 a86.0,86.0 0 0,1 -40.68145358897372,12.25698825130547" fill="none" id="id54" stroke="none" /><text fill="#e1ed5e" style="font-size:6.75px; font-family:Arial;" text-anchor="middle"><textPath startOffset="21.466115282336833" xlink:href="#id54">June</textPath></text><path d="M 110.21172684928248 118.3499491758327 l 8.59599177358348 15.446556149532718 a38.67730667981358,38.67730667981358 0 0,0 -0.5845378494539603,0.3187366421760007 l -8.328831112260872 -15.59223344346849" fill="#ff6108" stroke="none" /><path d="M 109.57404056367764 118.69057910512821 l 8.091931384764273 15.797184339702655 a38.749095374082586,38.749095374082586 0 0,0 -0.5962675595696576,0.29898093267971315 l -7.818809917511856 -15.93413311329167" fill="#ff6209" stroke="none" /><path d="M 108.2653958097858 119.30500536409082 l 17.52972332434861 40.94315754448398 a65.53799893956449,65.53799893956449 0 0,0 -1.0408949111318992,0.4350941572722108 l -16.822356953719247 -41.238836744776165" fill="#31ff40" stroke="none" /><path d="M 105.88484417918355 120.15858648285463 l 17.654532537550654 60.47575944856389 a84.0,84.0 0 0,0 -1.391475327581577,0.39324482664592386 l -16.61092604186447 -60.77069306854833" fill="#4dd2ff" stroke="none" /><path d="M 105.18746579009965 120.34920634021253 l 7.610017091236953 29.852304440768137 a51.80701933899519,51.80701933899519 0 0,0 -0.8660325698190094,0.21284973519377243 l -7.095031236674733 -29.97887543427594" fill="#d2ff1c" stroke="none" /><path d="M 103.7750983002368 120.6578951692458 l 8.250431455834608 45.14757883390426 a66.8952447838665,66.8952447838665 0 0,0 -1.1345147730191925,0.19724993558106002 l -7.472067711343366 -45.282907348006326" fill="#33ff54" stroke="none" /><path d="M 101.26447882468166 120.96189622390904 l 3.734242873073755 61.90440682148271 a83.01693441113271,83.01693441113271 0 0,0 -1.427147802197833,0.07376723991054035 l -2.6681070024624427 -61.95951386815545" fill="#4cddff" stroke="none" /><line stroke="#e1ed5e" stroke-width="0.3" x1="102.19456741930631" x2="102.32365962044197" y1="184.97166512339345" y2="189.96999836594603" /><path d="M 102.22038585953345 185.97133177190398 a86.0,86.0 0 0,1 -42.740103519485714,-10.115201625700543" fill="none" id="id55" stroke="none" /><text fill="#e1ed5e" style="font-size:6.75px; font-family:Arial;" text-anchor="middle"><textPath startOffset="22.20632615414155" xlink:href="#id55">July</textPath></text><path d="M 98.37488393609728 120.93702456842531 l -2.368854240771734 30.51890295081424 a51.61069923630038,51.61069923630038 0 0,0 -0.8851374569183741,-0.0763733842470976 l 2.8938360154316496 -30.47360531428848" fill="#d5ff1c" stroke="none" /><path d="M 97.65516085044442 120.86867818915974 l -5.374875707966167 47.83549928255717 a69.13651712045245,69.13651712045245 0 0,0 -1.1814857171556434,-0.14306146653524507 l 6.197488848173199 -47.73589228729658" fill="#37ff73" stroke="none" /><path d="M 96.93821686468263 120.77559828337769 l -3.7279943127707926 25.2961456843398 a46.569374808144886,46.569374808144886 0 0,0 -0.7920433588401117,-0.12370088345644635 l 4.162873535219421 -25.228226493536244" fill="#ffdf14" stroke="none" /><path d="M 95.86986931433489 120.58985236759428 l -12.186791901011913 60.754553590117446 a82.9647777271332,82.9647777271332 0 0,0 -1.397792702879655,-0.2929210513723234 l 13.230776065320956 -60.53577655801858" fill="#4bddff" stroke="none" /><path d="M 95.16358092515715 120.4354850818985 l -7.037805623778326 29.7370781167669 a51.558542552300864,51.558542552300864 0 0,0 -0.8618789050672678,-0.2118288654559553 l 7.548637813588805 -29.611527992996916" fill="#d6ff1c" stroke="none" /><path d="M 94.46302465271185 120.25689768951611 l -6.295597059149283 23.032297874337775 a44.8772127289471,44.8772127289471 0 0,0 -0.7433992176542656,-0.21009204452317418 l 6.691127444908163 -22.920517036476078" fill="#ffc512" stroke="none" /><path d="M 91.7346041902142 119.30500536409082 l -7.116768509149582 16.622223231156532 a39.08166748834916,39.08166748834916 0 0,0 -0.6161491478710975,-0.27010167947234476 l 7.401838331678422 -16.497256998389734" fill="#ff6809" stroke="none" /><path d="M 90.42595943632237 118.69057910512821 l -8.803952949805268 17.18720303634833 a40.31086574328158,40.31086574328158 0 0,0 -0.6148541440288633,-0.3216626283544384 l 9.098497996360628 -17.033110989049174" fill="#ff7c0b" stroke="none" /><line stroke="#e1ed5e" stroke-width="0.3" x1="58.666819895761336" x2="56.23545636021788" y1="174.27360380694188" y2="178.64263932499728" /><path d="M 58.180547188652646 175.14741091055294 a86.0,86.0 0 0,1 -31.652253787137756,-30.449443065178592" fill="none" id="id56" stroke="none" /><text fill="#e1ed5e" style="font-size:6.75px; font-family:Arial;" text-anchor="middle"><textPath startOffset="22.20632615414155" xlink:href="#id56">August</textPath></text><path d="M 89.7882731507175 118.34994917583269 l -7.621107792167279 13.694739657048126 a36.672497511697344,36.672497511697344 0 0,0 -0.5489545148990962,-0.31171070039248433 l 7.855711073987582 -13.561525790861008" fill="#ff3f05" stroke="none" /><path d="M 87.95078237400918 117.19931262002967 l -10.51262098177139 15.005941492114204 a39.32193985284131,39.32193985284131 0 0,0 -0.5510177292695695,-0.3931365194057385 l 10.769366038889846 -14.822760710864246" fill="#ff6c09" stroke="none" /><path d="M 87.36589467227662 116.77436683061367 l -10.936187718705172 14.520032860535707 a39.177776434146026,39.177776434146026 0 0,0 -0.5351894543076848,-0.41036045191404946 l 11.184505901506343 -14.32963306679429" fill="#ff6909" stroke="none" /><path d="M 86.79598089348748 116.32954008644616 l -19.127299604927632 23.65491924273863 a51.4205324502572,51.4205324502572 0 0,0 -0.6834765053811405,-0.5624546330850863 l 19.53164623885346 -23.322169490796362" fill="#d8ff1c" stroke="none" /><path d="M 86.24171649860922 115.8653595955263 l -16.218067962259138 18.701859148338922 a45.754499874422116,45.754499874422116 0 0,0 -0.5905765276141279,-0.5211151204640232 l 16.537586842779856 -18.419920886102613" fill="#ffd213" stroke="none" /><path d="M 84.19399662182784 113.82643327865904 l -9.077318210313035 7.9404598101866055 a33.06020762211287,33.06020762211287 0 0,0 -0.37099455053791097,-0.43155047693788884 l 9.212655270421726 -7.7830322340871865" fill="#ff0000" stroke="none" /><path d="M 83.28015986056508 112.70617746262583 l -49.86837002491089 37.89727377918719 a83.63431718184609,83.63431718184609 0 0,0 -0.86118946705828,-1.1537040246959143 l 50.51332075866425 -37.033256874981966" fill="#4cd6ff" stroke="none" /><path d="M 82.85270091963577 112.12312394758628 l -19.974450904498593 14.121917566452673 a45.46236384100909,45.46236384100909 0 0,0 -0.4462652590690772,-0.6428783897248028 l 20.214577070729803 -13.775997914540858" fill="#ffce13" stroke="none" /><line stroke="#e1ed5e" stroke-width="0.3" x1="26.63291911575756" x2="22.317208475507996" y1="142.92168965132927" y2="145.44649492493687" /><path d="M 25.769776987707644 143.4266507060508 a86.0,86.0 0 0,1 -11.730757126820373,-40.83630448921669" fill="none" id="id57" stroke="none" /><text fill="#e1ed5e" style="font-size:6.75px; font-family:Arial;" text-anchor="middle"><textPath startOffset="21.46611528233685" xlink:href="#id57">September</textPath></text><path d="M 81.18737489456691 109.33194174019688 l -17.176322387849837 8.52025907792968 a40.17344167139522,40.17344167139522 0 0,0 -0.3019641399242037,-0.6221355670677226 l 17.32043978438876 -8.223334554896672" fill="#ff7a0b" stroke="none" /><path d="M 80.73074385275274 108.34839909993369 l -27.59235666136643 11.954379751691045 a51.070672446350336,51.070672446350336 0 0,0 -0.3425359097103594,-0.8096537070833056 l 27.794043552269095 -11.47765151894158" fill="#ddff1b" stroke="none" /><path d="M 80.45479744820244 107.68017299344265 l -16.440965568928338 6.460381232375152 a38.66470703143169,38.66470703143169 0 0,0 -0.2380746570002471,-0.621537804243411 l 16.549734505522093 -6.176419861298584" fill="#ff6108" stroke="none" /><path d="M 80.0844068197444 106.66101706037122 l -28.537878098742038 9.544847153785623 a51.09176953201307,51.09176953201307 0 0,0 -0.2717784079056075,-0.8364479317707925 l 28.697948757663895 -9.052200322037027" fill="#ddff1b" stroke="none" /><path d="M 79.86692584326677 105.97154293290107 l -22.66256046035189 6.721797759494087 a44.63840543984819,44.63840543984819 0 0,0 -0.21215435907429694,-0.738537155974773 l 22.77490745631229 -6.330703128014718" fill="#ffc112" stroke="none" /><path d="M 79.67330655649465 105.27499134158121 l -23.511561069175368 6.10149808239397 a45.29036398984215,45.29036398984215 0 0,0 -0.189332453798412,-0.7562890378474527 l 23.61310483726884 -5.695881205149125" fill="#ffcb12" stroke="none" /><path d="M 79.35854240842038 103.8639653848113 l -60.92957828731087 11.405676191654178 a82.98792591834648,82.98792591834648 0 0,0 -0.25075614963861587,-1.406373654756222 l 61.11688087928867 -10.355183786164742" fill="#4bddff" stroke="none" /><path d="M 79.18660465613746 102.79330883721812 l -26.227631233010907 3.51993862087816 a47.462777782945594,47.462777782945594 0 0,0 -0.10170254129451331,-0.8106693201402198 l 26.28433528355227 -3.0679515464505314" fill="#ffec16" stroke="none" /><line stroke="#e1ed5e" stroke-width="0.3" x1="15.007084014347285" x2="10.007500721073583" y1="101.09737516637583" y2="101.16192664675087" /><path d="M 14.007167355692545 101.11028546245083 a86.0,86.0 0 0,1 10.666146001902534,-42.60595125391555" fill="none" id="id58" stroke="none" /><text fill="#e1ed5e" style="font-size:6.75px; font-family:Arial;" text-anchor="middle"><textPath startOffset="22.20632615414155" xlink:href="#id58">October</textPath></text><path d="M 79.00019446554 99.90962569577889 l -17.670989723619996 -0.0760484852371653 a38.67115336316196,38.67115336316196 0 0,0 0.008594190356933677,-0.6656295142745661 l 17.667062526145347 0.38021425757220334" fill="#ff6108" stroke="none" /><path d="M 79.08570108090925 98.10471618934814 l -26.596409451167858 -2.410204829206767 a47.70539426806694,47.70539426806694 0 0,0 0.08115113351037542,-0.817180839791252 l 26.550981191975254 2.8676611997024493" fill="#fff016" stroke="none" /><path d="M 79.46518482838121 95.60439243477599 l -21.8566473157227 -4.678554128123184 a43.35177622950057,43.35177622950057 0 0,0 0.16247752965206372,-0.7283549067882361 l 21.7728753990686 5.054087204461379" fill="#ffad10" stroke="none" /><path d="M 79.71946130924805 94.55025226153421 l -17.115542387255815 -4.599255958624848 a38.722724017004175,38.722724017004175 0 0,0 0.17851771259779609,-0.6422231940928759 l 17.033837904091655 4.893190456136667" fill="#ff6209" stroke="none" /><path d="M 80.38941819471856 92.48833698450439 l -16.53755257733644 -6.334565863239038 a38.70924532338633,38.70924532338633 0 0,0 0.24369580528398363,-0.6201792432755879 l 16.426063222170765 6.618294111410389" fill="#ff6109" stroke="none" /><path d="M 80.95270993114464 91.15688171328213 l -40.25678588411105 -18.690087573053997 a65.38387300819511,65.38387300819511 0 0,0 0.48272541737200575,-1.0167428393153526 l 39.929102272897296 19.380272828009883" fill="#31ff3e" stroke="none" /><path d="M 81.43458229118936 90.18545643968196 l -23.905719019560582 -12.637675291671725 a48.04060351804136,48.04060351804136 0 0,0 0.3927705967954424,-0.7277442643463747 l 23.68464032354667 13.047300539350573" fill="#fff517" stroke="none" /><line stroke="#e1ed5e" stroke-width="0.3" x1="26.266209847984243" x2="21.928928074336255" y1="57.711370442889674" y2="55.22380399835377" /><path d="M 25.398753493254645 57.213857153982495 a86.0,86.0 0 0,1 29.58750427330803,-30.492523968695096" fill="none" id="id59" stroke="none" /><text fill="#e1ed5e" style="font-size:6.75px; font-family:Arial;" text-anchor="middle"><textPath startOffset="21.46611528233685" xlink:href="#id59">November</textPath></text><path d="M 82.15384107792192 88.93136811851018 l -39.79242068907161 -24.680249582212372 a67.82468861334102,67.82468861334102 0 0,0 0.6238980063480081,-0.9868568166122482 l 39.361695086477646 25.361554046538835" fill="#35ff61" stroke="none" /><path d="M 82.7489923806493 88.02491185347247 l -14.629569515579528 -10.155371115731418 a38.808870450126975,38.808870450126975 0 0,0 0.385662928695604,-0.5454928623302051 l 14.452593967080045 10.405690478393408" fill="#ff6309" stroke="none" /><path d="M 83.6137871275137 86.86637796730984 l -48.64488801992474 -38.98909272373506 a83.34159511827579,83.34159511827579 0 0,0 0.9068419122516562,-1.111680958225849 l 47.966547615596696 39.82065785156899" fill="#4cd9ff" stroke="none" /><path d="M 85.31137513191541 84.99185889309783 l -31.994211421874923 -32.69016970178607 a66.74141186757579,66.74141186757579 0 0,0 0.8279645779270418,-0.7965012679703304 l 31.426763600335452 33.23605405651871" fill="#33ff52" stroke="none" /><path d="M 87.22198572758235 83.33499621200491 l -11.956500029616853 -15.59359021180905 a40.64988418927844,40.64988418927844 0 0,0 0.5589433528061981,-0.4209845452226821 l 11.686310523052263 15.797091346537584" fill="#ff810b" stroke="none" /><path d="M 88.09926311788651 82.69761687909137 l -18.63918887305968 -27.099362849486138 a53.890649563268,53.890649563268 0 0,0 0.7688278868827316,-0.519116021196964 l 18.16995629177041 27.41619078298177" fill="#b5ff1f" stroke="none" /><line stroke="#e1ed5e" stroke-width="0.3" x1="56.762969772571076" x2="54.21961505331055" y1="26.818313649435495" y2="22.513508569990535" /><path d="M 56.25429882871897 25.957352633546506 a86.0,86.0 0 0,1 42.265352541879196,-11.944610805530505" fill="none" id="id60" stroke="none" /><text fill="#e1ed5e" style="font-size:6.75px; font-family:Arial;" text-anchor="middle"><textPath startOffset="22.20632615414155" xlink:href="#id60">December</textPath></text><path d="M 89.3179101791058 81.91981866633112 l -24.240761311788106 -41.029177579656924 a68.6550933462322,68.6550933462322 0 0,0 1.0226446443618995,-0.5923817851588338 l 23.530919934960885 41.44036352220581" fill="#36ff6d" stroke="none" /><path d="M 90.26544431104013 81.39251694778311 l -9.959802493944737 -19.038039539872024 a42.48591667209287,42.48591667209287 0 0,0 0.650923719734456,-0.3334284112624266 l 9.630618286621518 19.206660476446956" fill="#ff9f0e" stroke="none" /><path d="M 92.23578459929587 80.48803036053334 l -11.61934771941883 -29.200163600709153 a52.42703924541641,52.42703924541641 0 0,0 0.8413711826156188,-0.3264389473692663 l 11.114993371803534 29.39584525196897" fill="#caff1d" stroke="none" /><path d="M 93.59665428221793 80.00007090966166 l -19.004629511626735 -59.35822605441614 a83.32635833418604,83.32635833418604 0 0,0 1.3697846540813474,-0.425598759793103 l 17.980059484834662 59.67656494909177" fill="#4cd9ff" stroke="none" /><path d="M 94.63758080256005 79.69619591428918 l -6.657918580585645 -25.20897182811837 a47.07336074342111,47.07336074342111 0 0,0 0.7852085641973764,-0.20016714641189334 l 6.223001127703269 25.319841970699127" fill="#ffe615" stroke="none" /><path d="M 95.33964822691252 79.52364482259891 l -4.588714411292677 -20.161599524715534 a41.67719505502172,41.67719505502172 0 0,0 0.700885936693039,-0.1531865188320622 l 4.240985750446117 20.237599541643462" fill="#ff920d" stroke="none" /><path d="M 96.40284397218896 79.31037775812273 l -10.377288039041366 -59.686643493629404 a81.58203957098873,81.58203957098873 0 0,0 1.385615753266352,-0.22863847170285315 l 9.348343079636129 59.85642822827188" fill="#49edff" stroke="none" /></svg>