<?xml version="1.0" encoding="utf-8" ?>
<svg baseProfile="full" height="200mm" version="1.1" viewBox="0,0,200,200" width="200mm" xmlns="http://www.w3.org/2000/svg" xmlns:ev="http://www.w3.org/2001/xml-events" xmlns:xlink="http://www.w3.org/1999/xlink"><defs /><rect fill="#1a1a1a" height="200" width="200" x="0" y="0" /><text alignment-baseline="middle" fill="#e1ed5e" style="dominant-baseline: central; font-size:9.0px; font-family:Arial;" text-anchor="middle" x="100.0" y="100.0">2025</text><line stroke="#e1ed5e" stroke-width="0.3" x1="100.0" x2="100.0" y1="15.0" y2="10.0" /><path d="M 100.0 14.0 a86.0,86.0 0 0,1 42.46469731375804,11.215312516191453" fill="none" id="id121" stroke="none" /><text fill="#e1ed5e" style="font-size:6.75px; font-family:Arial;" text-anchor="middle"><textPath startOffset="22.20632615414155" xlink:href="#id121">January</textPath></text><path d="M 100.0 79.0 l 0.0 -14.764159898744857 a35.76415989874486,35.76415989874486 0 0,0 0.6156212219513157,0.005298846215891137 l -0.2541407426787874 14.761972429137526" fill="#ff9a0e" stroke="none" /><path d="M 100.36148047927253 79.00311137660856 l 0.3606289800596724 -20.94742859674983 a41.950532644235835,41.950532644235835 0 0,0 0.721895482715002,0.01864443051939906 l -0.7211510979695424 20.93811737408807" fill="#ffed16" stroke="none" /><path d="M 101.08401301168833 79.027996857942 l 0.8269491378410633 -15.99868242366749 a37.02004008016032,37.02004008016032 0 0,0 0.6361064483047857,0.03837167809310456 l -1.1022176349854609 15.98207747619408" fill="#ffab0f" stroke="none" /><path d="M 101.44485096284872 79.0497635885617 l 2.1159347831209048 -30.6809041744812 a51.75378124670394,51.75378124670394 0 0,0 0.8882176428051135,0.06894278386343354 l -2.64374261528836 30.6399361284293" fill="#98ff23" stroke="none" /><path d="M 102.16513564639614 79.11191278185805 l 2.0753879078628885 -20.022248353388246 a41.129522202299334,41.129522202299334 0 0,0 0.7035758973239016,0.07905494990026508 l -2.419730508696515 19.98355745001738" fill="#ffe215" stroke="none" /><path d="M 102.52436894288641 79.15227682838746 l 1.774682044156966 -14.656367912652126 a35.76342158000211,35.76342158000211 0 0,0 0.610507614028353,0.07926140998672371 l -2.026704386693165 14.623648179501265" fill="#ff9a0e" stroke="none" /><path d="M 102.88285421437855 79.19881850522331 l 3.0002238722996784 -21.648060100090863 a42.85497310410294,42.85497310410294 0 0,0 0.7298222726153747,0.10755683160569271 l -3.372415125343709 21.5932087843242" fill="#fff917" stroke="none" /><path d="M 103.59715602781102 79.31037775812273 l 2.694926618029927 -15.500304480967644 a36.73283408923109,36.73283408923109 0 0,0 0.6220178579927741,0.11366978771008882 l -2.961339597125602 15.451619211906818" fill="#ffa70f" stroke="none" /><path d="M 103.95276090670814 79.375362276772 l 6.405354340374281 -33.42173126002344 a55.029996835776814,55.029996835776814 0 0,0 0.9287847316912908,0.1863054796241655 l -6.979705481532697 33.30652182432207" fill="#73ff27" stroke="none" /><path d="M 104.66035177308747 79.52364482259891 l 3.9410554863436706 -17.315957215554914 a38.7587807193334,38.7587807193334 0 0,0 0.6492581418702444,0.1536584254914376 l -4.238537315176439 17.245552877922606" fill="#ffc312" stroke="none" /><path d="M 105.36241919743992 79.69619591428918 l 4.620545290259738 -17.49483635807056 a39.09471574728404,39.09471574728404 0 0,0 0.6491623762512846,0.17744059968030537 l -4.921005555734733 17.41270921756396" fill="#ffc712" stroke="none" /><path d="M 105.71112130821622 79.79150937346287 l 3.6307174171207546 -12.847095155540705 a34.350279506381185,34.350279506381185 0 0,0 0.5676134767927979,0.16570193886219176 l -3.8513211116369797 12.78269488775981" fill="#ff860c" stroke="none" /><path d="M 106.40334571778207 80.00007090966166 l 2.7049706243467684 -8.448586576881247 a29.871047357873643,29.871047357873643 0 0,0 0.48834493693182246,0.1609996477577952 l -2.8499983835210085 8.400773204864215" fill="#ff4506" stroke="none" /><path d="M 107.08798089147638 80.2323363322302 l 5.334862529435232 -14.878393411370656 a36.80592764476321,36.80592764476321 0 0,0 0.5945343415923527,0.21897201549017004 l -5.590179196800161 14.784358128074162" fill="#ffa80f" stroke="none" /><path d="M 107.4271985657038 80.35727306442388 l 5.223558700149031 -13.814756165638807 a35.7693281299441,35.7693281299441 0 0,0 0.5740412264972448,0.22271907761539497 l -5.460583091645942 13.722794384132866" fill="#ff9a0e" stroke="none" /><path d="M 107.76421540070413 80.48803036053334 l 7.872040351773929 -19.782940634354304 a42.29163590338572,42.29163590338572 0 0,0 0.6740806056360994,0.2749744041950003 l -8.211404826998416 19.644505343975727" fill="#fff216" stroke="none" /><path d="M 108.43124777332544 80.76684994638697 l 15.412082603048527 -35.15765463338966 a59.38740639173083,59.38740639173083 0 0,0 0.9327156459939551,0.4184823223489889 l -16.01498036750926 34.887151980524145" fill="#44ff2d" stroke="none" /><path d="M 108.76106565485865 80.91482961587045 l 6.901537709199555 -15.034360919270362 a37.542769750026366,37.542769750026366 0 0,0 0.5849910604938559,0.2746611467756035 l -7.159306980993009 14.913334789854755" fill="#ffb210" stroke="none" /><path d="M 109.08828744355905 81.06846463323043 l 6.387970417031697 -13.306587035560842 a35.76046830503111,35.76046830503111 0 0,0 0.5526333081021599,0.2711747642256236 l -6.61607499214429 13.194657111200387" fill="#ff9a0e" stroke="none" /><path d="M 109.41281617654863 81.2277094730956 l 12.276406458012438 -24.483243307177357 a48.38867208100412,48.38867208100412 0 0,0 0.7413594172176124,0.37975308805484753 l -12.696026362818806 24.26829769381001" fill="#c0ff1e" stroke="none" /><path d="M 110.05341064243156 81.56283822128135 l 9.916622331823639 -18.186302811367668 a41.71427064655627,41.71427064655627 0 0,0 0.6274539637703157,0.34917745150818813 l -10.22820038466599 18.012909962299297" fill="#ffea16" stroke="none" /><line stroke="#e1ed5e" stroke-width="0.3" x1="143.23703022742887" x2="145.7803849466894" y1="26.81831364943548" y2="22.513508569990506" /><path d="M 143.74570117128098 25.957352633546492 a86.0,86.0 0 0,1 28.547481713284135,27.462654790039103" fill="none" id="id122" stroke="none" /><text fill="#e1ed5e" style="font-size:6.75px; font-family:Arial;" text-anchor="middle"><textPath startOffset="19.985693538727396" xlink:href="#id122">February</textPath></text><path d="M 110.68208982089419 81.91981866633111 l 8.14141768228894 -13.779916708901101 a37.00527370530535,37.00527370530535 0 0,0 0.5456303090076923,0.3287361560779376 l -8.37741005751427 13.63773394336455" fill="#ffab0f" stroke="none" /><path d="M 110.99172775467656 82.1063720568725 l 18.551028342140185 -30.199547016204065 a56.44225292690644,56.44225292690644 0 0,0 0.8234678711316524,0.5156555053575531 l -19.0681153656441 29.875747169523567" fill="#63ff29" stroke="none" /><path d="M 111.60114157652 82.49532879139004 l 15.228767114668907 -22.978304289838288 a48.56660689800654,48.56660689800654 0 0,0 0.6928727350116963,0.467830763597141 l -15.622044544087144 22.712761613942476" fill="#beff1f" stroke="none" /><path d="M 111.90073688211348 82.69761687909136 l 8.36980419047913 -12.16878922584314 a35.7693281299441,35.7693281299441 0 0,0 0.5042944865376671,0.35329051515717796 l -8.578029816600447 12.022913867922025" fill="#ff9a0e" stroke="none" /><path d="M 112.19680574252982 82.90503203632743 l 14.048860870399112 -19.69079704763354 a45.18879864993144,45.18879864993144 0 0,0 0.6293178958818114,0.457226214992983 l -14.385724082634713 19.446051597823885" fill="#e7ff1a" stroke="none" /><path d="M 112.77801427241765 83.33499621200491 l 10.782895565396347 -14.062982840047047 a38.72112646345322,38.72112646345322 0 0,0 0.5254409747447061,0.41011501519488136 l -11.023369095300483 13.875289435628941" fill="#ffc212" stroke="none" /><path d="M 113.06298171725822 83.55741782278167 l 23.59814810660485 -29.70336312730133 a58.936293639911405,58.936293639911405 0 0,0 0.7888948496849663,0.6378981044858437 l -24.105946354854307 29.292758925551357" fill="#49ff2c" stroke="none" /><path d="M 113.6212207817346 84.01681056812373 l 14.54213656288553 -17.06379532005607 a43.41978694230566,43.41978694230566 0 0,0 0.56467681311333,0.4896821679141635 l -14.833707174645623 16.810948158722233" fill="#feff18" stroke="none" /><path d="M 113.89432698308785 84.25364557470407 l 9.768967795513507 -11.07111049457048 a35.764898217487605,35.764898217487605 0 0,0 0.45811260239294893,0.4112980176565926 l -9.958091385502446 10.90131346814459" fill="#ff9a0e" stroke="none" /><path d="M 114.16331599549186 84.49514656593476 l 17.07774330127587 -18.695332855325198 a46.32123193755933,46.32123193755933 0 0,0 0.5840712871417173,0.5428306070098212 l -17.397022472212434 18.398597662240736" fill="#d9ff1c" stroke="none" /><path d="M 114.68862486808459 84.99185889309783 l 2.99525451727633 -3.0604091839831478 a25.282248707942202,25.282248707942202 0 0,0 0.30840033382098847,0.30707596477825777 l -3.0474906512646407 3.0083973685547716" fill="#ff0000" stroke="none" /><path d="M 114.94478906791727 85.2469230424477 l 23.895479282450566 -23.588947504678245 a54.57725978272334,54.57725978272334 0 0,0 0.6542403179271692,0.6742521569714868 l -24.297983864080845 23.174131152156644" fill="#78ff26" stroke="none" /><path d="M 115.4437574822437 85.77008943001954 l 14.68631130259563 -13.531998069712468 a40.97004535386563,40.97004535386563 0 0,0 0.4734115261602351,0.5227528313337361 l -14.917066469371902 13.277192451109183" fill="#ffe015" stroke="none" /><path d="M 115.68641384162765 86.03803664274999 l 8.971858818535274 -7.985557778565669 a33.010969307035126,33.010969307035126 0 0,0 0.37413710886934676,0.4277033915764864 l -9.10798779098247 7.829938830786235" fill="#ff730a" stroke="none" /><path d="M 115.9244219780498 86.31012108654704 l 14.56785359732996 -12.523666607884053 a40.21105368632001,40.21105368632001 0 0,0 0.4467053355008661,0.5287582191171806 l -14.781269546317944 12.271049439137766" fill="#ffd614" stroke="none" /><path d="M 116.38621287248628 86.86637796730983 l 7.199033718475148 -5.770057339960496 a30.226031009387196,30.226031009387196 0 0,0 0.3219013569090358,0.4087820336798707 l -7.297289155978148 5.645282912327587" fill="#ff4b06" stroke="none" /><path d="M 116.60985879189232 87.15038557335679 l 26.900344594627956 -20.81047529154972 a55.0103575572197,55.0103575572197 0 0,0 0.5729566064113434,0.7539437328188412 l -27.25457714126341 20.344346782849847" fill="#73ff27" stroke="none" /><path d="M 117.04232023915458 87.72973835380427 l 17.699135323574694 -12.743160454920549 a42.80934500580108,42.80934500580108 0 0,0 0.4254176217701122,0.6017230563745702 l -17.91586556514869 12.436610898214184" fill="#fff817" stroke="none" /><path d="M 117.45458315368197 88.32363383020206 l 21.76069748723983 -14.556971640861894 a47.180782617867315,47.180782617867315 0 0,0 0.44575361989672413,0.6789133445007454 l -22.00804774249448 14.180240232383476" fill="#cfff1d" stroke="none" /><line stroke="#e1ed5e" stroke-width="0.3" x1="172.23445277983987" x2="176.4835382374775" y1="55.19839476539836" y2="52.563006222186495" /><path d="M 173.08426987136738 54.67131705675599 a86.0,86.0 0 0,1 12.851231095245387,41.99856678651699" fill="none" id="id123" stroke="none" /><text fill="#e1ed5e" style="font-size:6.75px; font-family:Arial;" text-anchor="middle"><textPath startOffset="22.20632615414155" xlink:href="#id123">March</textPath></text><path d="M 117.84615892207809 88.93136811851018 l 13.72829719843436 -8.51463156372384 a37.15441409134058,37.15441409134058 0 0,0 0.332415591985457,0.5464038304292811 l -13.87282858870604 8.27705996008748" fill="#ffad10" stroke="none" /><path d="M 118.03404312379186 89.2402003453031 l 29.351050321223948 -17.511958851570817 a55.178251239320744,55.178251239320744 0 0,0 0.4796312353992226,0.8198452560465364 l -29.648141231093497 17.004134183170386" fill="#71ff27" stroke="none" /><path d="M 118.3937258080291 89.86733742301442 l 23.627365823652607 -13.01574939045619 a47.975213585064864,47.975213585064864 0 0,0 0.392235981467615,0.7267537033379097 l -23.84790990433869 12.607114703785822" fill="#c5ff1e" stroke="none" /><path d="M 118.73160827565052 90.50648371742162 l 24.92806090953568 -12.63399002665532 a48.946841050522096,48.946841050522096 0 0,0 0.3744199958251172,0.7548078641655985 l -25.14184091831421 12.203022573990772" fill="#b9ff1f" stroke="none" /><path d="M 119.04729006885535 91.15688171328212 l 15.552306878989446 -7.220496399491478 a38.14671448159477,38.14671448159477 0 0,0 0.2713824170957618,0.5979551829679409 l -15.674291613048554 6.951719207681474" fill="#ffbb11" stroke="none" /><path d="M 119.196687751892 91.48605970444005 l 34.15097702715206 -15.146330617142787 a58.3590760468305,58.3590760468305 0 0,0 0.39936863775842973,0.9217978783747227 l -34.40663637475317 14.556233594181462" fill="#4fff2b" stroke="none" /><path d="M 119.47837535516314 92.15188598940014 l 22.790856513723195 -9.182759704418064 a45.57124775867524,45.57124775867524 0 0,0 0.2868958520779033,0.7301186503117638 l -22.9455459156828 8.789092049210515" fill="#e3ff1b" stroke="none" /><path d="M 119.7369772167798 92.82701384747503 l 18.143058267760953 -6.593710084868608 a40.30408184790634,40.30408184790634 0 0,0 0.23135870940735176,0.6540822265934514 l -18.253870057978112 6.280430231848542" fill="#ffd814" stroke="none" /><path d="M 119.97218684219823 93.5106431181261 l 31.470431033774215 -10.225362891812546 a54.08996941250923,54.08996941250923 0 0,0 0.28009464555980196,0.8879765691886969 l -31.641781163102223 9.682136156197432" fill="#7eff26" stroke="none" /><path d="M 120.08093135843002 93.85539295169968 l 58.02240490669805 -17.754399523872767 a81.67798755405548,81.67798755405548 0 0,0 0.3998102598257466,1.3479614398056337 l -58.319421063635495 16.753008697320602" fill="#4ae9ff" stroke="none" /><path d="M 120.28053869075195 94.5502522615342 l 17.638072129983865 -4.739669156081582 a39.26379073937348,39.26379073937348 0 0,0 0.16977601065771203,0.6542162250575585 l -17.71704447251188 4.4353565054751725" fill="#ffca12" stroke="none" /><path d="M 120.45610955862082 95.25157060432595 l 14.388247647216128 -3.3399106454964356 a35.770804767429595,35.770804767429595 0 0,0 0.13406491031671347,0.6009867054626375 l -14.443606944534878 3.091745770483834" fill="#ff9a0e" stroke="none" /><path d="M 120.67395015179393 96.31383870115 l 62.02185045538181 -11.058483896549978 a84.0,84.0 0 0,0 0.2415525539191079,1.4256568467366484 l -62.20301487082114 9.98924126149749" fill="#4dd2ff" stroke="none" /><path d="M 120.87857604477298 97.74499172005257 l 9.286316134979224 -1.002976435255034 a30.340322750764685,30.340322750764685 0 0,0 0.0516115969707707,0.519721738084523 l -9.302204857632223 0.8429791664660761" fill="#ff4c07" stroke="none" /><path d="M 120.94382443527127 98.46500227214037 l 11.544249577445973 -0.8460917405983108 a32.575213585064866,32.575213585064866 0 0,0 0.03617308231945941,0.5595815728968352 l -11.557103250769849 0.6472511034484405" fill="#ff6d0a" stroke="none" /><path d="M 120.96714384426684 98.82574320788733 l 62.5247409409354 -3.5016739652431994 a83.62271912245544,83.62271912245544 0 0,0 0.06811823780423851,1.4378683385287214 l -62.57575278697313 2.424894520091478" fill="#4dd6ff" stroke="none" /><line stroke="#e1ed5e" stroke-width="0.3" x1="184.98032266829074" x2="189.97916517819016" y1="98.17113171792111" y2="98.06355123074" /><path d="M 185.9800911702706 98.14961562048488 a86.0,86.0 0 0,1 -9.607161424134198,41.387399972396054" fill="none" id="id124" stroke="none" /><text fill="#e1ed5e" style="font-size:6.75px; font-family:Arial;" text-anchor="middle"><textPath startOffset="21.466115282336823" xlink:href="#id124">April</textPath></text><path d="M 120.99980553446 99.90962569577887 l 14.7618082430121 -0.06352859538716994 a35.761944942516614,35.761944942516614 0 0,0 -0.0026492835561770047,0.6156001970343538 l -14.76071466216642 -0.19058107985086856" fill="#ff9a0e" stroke="none" /><path d="M 120.9764740272857 100.99374915477107 l 17.403622145536655 0.8244872219509013 a38.42314101887987,38.42314101887987 0 0,0 -0.03698437573117227,0.6603808733783955 l -17.386851418917953 -1.1239398116647201" fill="#ffbe11" stroke="none" /><path d="M 120.95626037817324 101.35467743843564 l 17.889041310060335 1.1564029183003677 a38.92637907393735,38.92637907393735 0 0,0 -0.04897947113666366,0.6682859692887804 l -17.866485280259333 -1.4641620240859183" fill="#ffc512" stroke="none" /><path d="M 120.89721153311464 102.0752229133903 l 15.253649297398761 1.514782127013467 a36.328678409450475,36.328678409450475 0 0,0 -0.06715217549349022,0.6217457448295746 l -15.225314820404218 -1.777124193727833" fill="#ffa20e" stroke="none" /><path d="M 120.8583938346157 102.4346265915055 l 16.308018215173643 1.9034991436170412 a37.418732201244595,37.418732201244595 0 0,0 -0.08018030833106529,0.6391159475076658 l -16.272836397595732 -2.183932845412102" fill="#ffb110" stroke="none" /><path d="M 120.76222939487914 103.15116336523771 l 23.120727555229834 3.509121697097319 a44.385507857820905,44.385507857820905 0 0,0 -0.12114759248540673,0.7543861740510354 l -23.05689820838314 -3.9065871008415596" fill="#f2ff19" stroke="none" /><path d="M 120.5718875245553 104.21870165774334 l 15.214647750467432 3.1200860694121166 a36.53127307246071,36.53127307246071 0 0,0 -0.1316273282689337,0.6149190566785281 l -15.158686383474056 -3.381518945506814" fill="#ffa40f" stroke="none" /><path d="M 120.41448212921028 104.9243191809786 l 16.662891295283412 4.019371870252759 a38.14080793165278,38.14080793165278 0 0,0 -0.15944435238306265,0.6369009297391247 l -16.591235628605286 -4.30560063938928" fill="#ffba11" stroke="none" /><path d="M 120.23288151984713 105.62410040840565 l 10.665957371184042 2.9647984222351513 a32.07035122877333,32.07035122877333 0 0,0 -0.15242177096573847,0.5306001805895113 l -10.613342963332205 -3.1479560783292446" fill="#ff6509" stroke="none" /><path d="M 120.02730092923936 106.31721596034902 l 29.936530315639217 9.442886376732092 a52.39050733045037,52.39050733045037 0 0,0 -0.27868693533340105,0.857710192901439 l -29.769551129289567 -9.956795469611327" fill="#91ff24" stroke="none" /><path d="M 119.79798401119884 107.00284435728193 l 15.77045192648208 5.5782457558648915 a37.72794009070773,37.72794009070773 0 0,0 -0.22183263254527003,0.6103881314399361 l -15.672095032931583 -5.848881684310959" fill="#ffb510" stroke="none" /><path d="M 119.54520255179757 107.68017299344265 l 15.433858921821656 6.06464456747607 a37.582638962134794,37.582638962134794 0 0,0 -0.24177696538536553,0.6000706001018621 l -15.327179342178898 -6.329414535420746" fill="#ffb310" stroke="none" /><path d="M 119.26925614724726 108.34839909993367 l 28.678625715475565 12.42500547404958 a52.254509018036075,52.254509018036075 0 0,0 -0.36468400759920405,0.8222661633698988 l -28.460500623145087 -12.916819973912167" fill="#92ff23" stroke="none" /><line stroke="#e1ed5e" stroke-width="0.3" x1="174.80103733775053" x2="179.2010983576182" y1="140.37084112569926" y2="142.7455964860345" /><path d="M 175.68104954172406 140.8457921977663 a86.0,86.0 0 0,1 -30.038265399797805,32.042727171017184" fill="none" id="id125" stroke="none" /><text fill="#e1ed5e" style="font-size:6.75px; font-family:Arial;" text-anchor="middle"><textPath startOffset="22.206326154141568" xlink:href="#id125">May</textPath></text><path d="M 118.48025628344425 109.97397251340804 l 26.238676291200388 14.161266602730748 a50.81626410716169,50.81626410716169 0 0,0 -0.42207405923007246,0.7661870172005159 l -25.991025822518807 -14.610824138329068" fill="#a3ff21" stroke="none" /><path d="M 118.12598468904814 110.60418214915192 l 12.219091882987343 7.148493074845799 a35.156523573462714,35.156523573462714 0 0,0 -0.31007907189387596,0.5197103602090278 l -12.09423193539524 -7.357765528940931" fill="#ff910d" stroke="none" /><path d="M 117.75023020441432 111.22182372390056 l 13.771827168407535 8.706648593293163 a37.29321801497733,37.29321801497733 0 0,0 -0.34770622458818734,0.5396477821034171 l -13.619916080442298 -8.942417975318033" fill="#ffaf10" stroke="none" /><path d="M 117.35343817320211 111.8261652097733 l 13.564027615463532 9.243726222398477 a37.41430228878811,37.41430228878811 0 0,0 -0.3672643015701139,0.5290716182777058 l -13.40290240673128 -9.475839102863203" fill="#ffb110" stroke="none" /><path d="M 116.498646956653 112.99209946851258 l 29.33653516973334 23.1014812298289 a58.340470414513234,58.340470414513234 0 0,0 -0.6280826363340558,0.7836296609469401 l -28.934534621344433 -23.60303872435409" fill="#4fff2b" stroke="none" /><path d="M 116.27256486870786 113.27417163493432 l 8.693805004566483 7.091878921508346 a32.21949161480856,32.21949161480856 0 0,0 -0.35426711882170164,0.426737566389346 l -8.570441885851238 -7.2404777450114635" fill="#ff6809" stroke="none" /><path d="M 115.80600337817218 113.82643327865902 l 12.477868011583803 10.915119109763731 a37.57820904967831,37.57820904967831 0 0,0 -0.4300757138645194,0.4831946237281271 l -12.288133448070946 -11.128287903232724" fill="#ffb310" stroke="none" /><path d="M 115.32070863581623 114.36230785411682 l 19.928394386703946 18.681755656587942 a48.31572618922054,48.31572618922054 0 0,0 -0.5740217690275388,0.6018595299165845 l -19.603866066297446 -19.022022303087034" fill="#c1ff1e" stroke="none" /><path d="M 115.07121518719521 114.62390073753431 l 7.58038197335072 7.355395842603308 a31.56238793376226,31.56238793376226 0 0,0 -0.3816935386387128,0.38665353945858616 l -7.4526478096564714 -7.484789876042559" fill="#ff5e08" stroke="none" /><path d="M 114.81725581225074 114.88116024355365 l 10.433290177035925 10.478287272573041 a35.786752452272964,35.786752452272964 0 0,0 -0.44026234287430394,0.4308893654425054 l -10.251377881785826 -10.65632674093812" fill="#ff9a0e" stroke="none" /><path d="M 114.29624159901734 115.38237550388516 l 12.078848938671213 12.996520011393516 a38.74283303449003,38.74283303449003 0 0,0 -0.49240379008740265,0.44979918746366454 l -11.853345599116945 -13.202511965443763" fill="#ffc312" stroke="none" /><path d="M 114.0293411484842 115.62618273729858 l 12.845752672588459 14.307876366788374 a40.22833034490033,40.22833034490033 0 0,0 -0.5192474557040573,0.4581755077923694 l -12.597562863977814 -14.526875016353033" fill="#ffd714" stroke="none" /><path d="M 113.48314897796784 116.09983520530334 l 11.464208236936122 13.689076911895928 a38.85550047463347,38.85550047463347 0 0,0 -0.5164633739436254,0.4250141961081205 l -11.226874734447806 -13.884386226861226" fill="#ffc412" stroke="none" /><path d="M 113.20401910651253 116.32954008644616 l 23.59667725570551 29.182242470697826 a58.52874169391414,58.52874169391414 0 0,0 -0.7888629427211414,0.6267204315674031 l -23.090856820267017 -29.584096816270357" fill="#4dff2c" stroke="none" /><path d="M 112.63410532772338 116.77436683061366 l 9.494479293992251 12.605869146398094 a36.78141546250396,36.78141546250396 0 0,0 -0.5090110544134602,0.3765542093194085 l -9.276083269160226 -12.76743330445727" fill="#ffa80f" stroke="none" /><path d="M 112.34349029814194 116.9893568818739 l 13.02960140320689 17.93370780231979 a43.167281932285626,43.167281932285626 0 0,0 -0.604902447795917,0.43158183534627265 l -12.71897162756209 -18.155333899510282" fill="#fffd17" stroke="none" /><path d="M 111.7513745106137 117.40417183066458 l 11.243854612964448 16.652518183834488 a41.093049256407554,41.093049256407554 0 0,0 -0.5896369260419285,0.39077920266173877 l -10.955542988182556 -16.843595407587546" fill="#ffe215" stroke="none" /><path d="M 111.1453310114006 117.79835938074945 l 19.679073859640397 31.426184514027856 a58.07925324332876,58.07925324332876 0 0,0 -0.8518865738735323,0.5232983119825299 l -19.135208085834556 -31.760271292838766" fill="#52ff2b" stroke="none" /><line stroke="#e1ed5e" stroke-width="0.3" x1="143.8653032363475" x2="146.44561519142675" y1="172.8068346515853" y2="177.08958963109032" /><path d="M 144.38136562736335 173.6633856474863 a86.0,86.0 0 0,1 -40.68145358897372,12.25698825130547" fill="none" id="id126" stroke="none" /><text fill="#e1ed5e" style="font-size:6.75px; font-family:Arial;" text-anchor="middle"><textPath startOffset="21.466115282336833" xlink:href="#id126">June</textPath></text><path d="M 110.21172684928248 118.3499491758327 l 8.690541086162922 15.616456412832903 a38.87174348697395,38.87174348697395 0 0,0 -0.5874764116980458,0.320338980610338 l -8.420441862596226 -15.763736045203013" fill="#ffc412" stroke="none" /><path d="M 109.89434966115114 118.52300852407294 l 10.56287833881525 19.774547313285154 a43.418900959814366,43.418900959814366 0 0,0 -0.6622604276061721,0.3464633553627565 l -10.220927008682581 -19.953440087592625" fill="#feff18" stroke="none" /><path d="M 108.92500713936063 119.00905698771935 l 15.952865835709817 33.97744461750349 a58.53612488134163,58.53612488134163 0 0,0 -0.9157614489178948,0.42038116593550545 l -15.365636391024502 -34.247012853773064" fill="#4dff2c" stroke="none" /><path d="M 108.59647513512805 119.15986991738527 l 9.075396996363638 20.227293532021164 a43.16993987975952,43.16993987975952 0 0,0 -0.6806035509741005,0.29835659565240186 l -8.725872770731783 -20.380514680968023" fill="#fffd17" stroke="none" /><line stroke="#e1ed5e" stroke-width="0.3" x1="102.19456741930631" x2="102.32365962044197" y1="184.97166512339345" y2="189.96999836594603" /><path d="M 102.22038585953345 185.97133177190398 a86.0,86.0 0 0,1 -42.740103519485714,-10.115201625700543" fill="none" id="id127" stroke="none" /><text fill="#e1ed5e" style="font-size:6.75px; font-family:Arial;" text-anchor="middle"><textPath startOffset="22.20632615414155" xlink:href="#id127">July</textPath></text><line stroke="#e1ed5e" stroke-width="0.3" x1="58.666819895761336" x2="56.23545636021788" y1="174.27360380694188" y2="178.64263932499728" /><path d="M 58.180547188652646 175.14741091055294 a86.0,86.0 0 0,1 -31.652253787137756,-30.449443065178592" fill="none" id="id128" stroke="none" /><text fill="#e1ed5e" style="font-size:6.75px; font-family:Arial;" text-anchor="middle"><textPath startOffset="22.20632615414155" xlink:href="#id128">August</textPath></text><line stroke="#e1ed5e" stroke-width="0.3" x1="26.63291911575756" x2="22.317208475507996" y1="142.92168965132927" y2="145.44649492493687" /><path d="M 25.769776987707644 143.4266507060508 a86.0,86.0 0 0,1 -11.730757126820373,-40.83630448921669" fill="none" id="id129" stroke="none" /><text fill="#e1ed5e" style="font-size:6.75px; font-family:Arial;" text-anchor="middle"><textPath startOffset="21.46611528233685" xlink:href="#id129">September</textPath></text><line stroke="#e1ed5e" stroke-width="0.3" x1="15.007084014347285" x2="10.007500721073583" y1="101.09737516637583" y2="101.16192664675087" /><path d="M 14.007167355692545 101.11028546245083 a86.0,86.0 0 0,1 10.666146001902534,-42.60595125391555" fill="none" id="id130" stroke="none" /><text fill="#e1ed5e" style="font-size:6.75px; font-family:Arial;" text-anchor="middle"><textPath startOffset="22.20632615414155" xlink:href="#id130">October</textPath></text><line stroke="#e1ed5e" stroke-width="0.3" x1="26.266209847984243" x2="21.928928074336255" y1="57.711370442889674" y2="55.22380399835377" /><path d="M 25.398753493254645 57.213857153982495 a86.0,86.0 0 0,1 29.58750427330803,-30.492523968695096" fill="none" id="id131" stroke="none" /><text fill="#e1ed5e" style="font-size:6.75px; font-family:Arial;" text-anchor="middle"><textPath startOffset="21.46611528233685" xlink:href="#id131">November</textPath></text><line stroke="#e1ed5e" stroke-width="0.3" x1="56.762969772571076" x2="54.21961505331055" y1="26.818313649435495" y2="22.513508569990535" /><path d="M 56.25429882871897 25.957352633546506 a86.0,86.0 0 0,1 42.265352541879196,-11.944610805530505" fill="none" id="id132" stroke="none" /><text fill="#e1ed5e" style="font-size:6.75px; font-family:Arial;" text-anchor="middle"><textPath startOffset="22.20632615414155" xlink:href="#id132">December</textPath></text></svg>