<?xml version="1.0" encoding="utf-8" ?>
<svg baseProfile="full" height="200mm" version="1.1" viewBox="0,0,200,200" width="200mm" xmlns="http://www.w3.org/2000/svg" xmlns:ev="http://www.w3.org/2001/xml-events" xmlns:xlink="http://www.w3.org/1999/xlink"><defs /><rect fill="#1a1a1a" height="200" width="200" x="0" y="0" /><text alignment-baseline="middle" fill="#e1ed5e" style="dominant-baseline: central; font-size:9.0px; font-family:Arial;" text-anchor="middle" x="100.0" y="100.0">2015</text><line stroke="#e1ed5e" stroke-width="0.3" x1="100.0" x2="100.0" y1="15.0" y2="10.0" /><path d="M 100.0 14.0 a86.0,86.0 0 0,1 42.46469731375804,11.215312516191453" fill="none" id="id1" stroke="none" /><text fill="#e1ed5e" style="font-size:6.75px; font-family:Arial;" text-anchor="middle"><textPath startOffset="22.20632615414155" xlink:href="#id1">January</textPath></text><line stroke="#e1ed5e" stroke-width="0.3" x1="143.23703022742887" x2="145.7803849466894" y1="26.81831364943548" y2="22.513508569990506" /><path d="M 143.74570117128098 25.957352633546492 a86.0,86.0 0 0,1 28.547481713284135,27.462654790039103" fill="none" id="id2" stroke="none" /><text fill="#e1ed5e" style="font-size:6.75px; font-family:Arial;" text-anchor="middle"><textPath startOffset="19.985693538727396" xlink:href="#id2">February</textPath></text><line stroke="#e1ed5e" stroke-width="0.3" x1="172.23445277983987" x2="176.4835382374775" y1="55.19839476539836" y2="52.563006222186495" /><path d="M 173.08426987136738 54.67131705675599 a86.0,86.0 0 0,1 12.851231095245387,41.99856678651699" fill="none" id="id3" stroke="none" /><text fill="#e1ed5e" style="font-size:6.75px; font-family:Arial;" text-anchor="middle"><textPath startOffset="22.20632615414155" xlink:href="#id3">March</textPath></text><line stroke="#e1ed5e" stroke-width="0.3" x1="184.98032266829074" x2="189.97916517819016" y1="98.17113171792111" y2="98.06355123074" /><path d="M 185.9800911702706 98.14961562048488 a86.0,86.0 0 0,1 -9.607161424134198,41.387399972396054" fill="none" id="id4" stroke="none" /><text fill="#e1ed5e" style="font-size:6.75px; font-family:Arial;" text-anchor="middle"><textPath startOffset="21.466115282336823" xlink:href="#id4">April</textPath></text><line stroke="#e1ed5e" stroke-width="0.3" x1="174.80103733775053" x2="179.2010983576182" y1="140.37084112569926" y2="142.7455964860345" /><path d="M 175.68104954172406 140.8457921977663 a86.0,86.0 0 0,1 -30.038265399797805,32.042727171017184" fill="none" id="id5" stroke="none" /><text fill="#e1ed5e" style="font-size:6.75px; font-family:Arial;" text-anchor="middle"><textPath startOffset="22.206326154141568" xlink:href="#id5">May</textPath></text><line stroke="#e1ed5e" stroke-width="0.3" x1="143.8653032363475" x2="146.44561519142675" y1="172.8068346515853" y2="177.08958963109032" /><path d="M 144.38136562736335 173.6633856474863 a86.0,86.0 0 0,1 -40.68145358897372,12.25698825130547" fill="none" id="id6" stroke="none" /><text fill="#e1ed5e" style="font-size:6.75px; font-family:Arial;" text-anchor="middle"><textPath startOffset="21.466115282336833" xlink:href="#id6">June</textPath></text><line stroke="#e1ed5e" stroke-width="0.3" x1="102.19456741930631" x2="102.32365962044197" y1="184.97166512339345" y2="189.96999836594603" /><path d="M 102.22038585953345 185.97133177190398 a86.0,86.0 0 0,1 -42.740103519485714,-10.115201625700543" fill="none" id="id7" stroke="none" /><text fill="#e1ed5e" style="font-size:6.75px; font-family:Arial;" text-anchor="middle"><textPath startOffset="22.20632615414155" xlink:href="#id7">July</textPath></text><line stroke="#e1ed5e" stroke-width="0.3" x1="58.666819895761336" x2="56.23545636021788" y1="174.27360380694188" y2="178.64263932499728" /><path d="M 58.180547188652646 175.14741091055294 a86.0,86.0 0 0,1 -31.652253787137756,-30.449443065178592" fill="none" id="id8" stroke="none" /><text fill="#e1ed5e" style="font-size:6.75px; font-family:Arial;" text-anchor="middle"><textPath startOffset="22.20632615414155" xlink:href="#id8">August</textPath></text><line stroke="#e1ed5e" stroke-width="0.3" x1="26.63291911575756" x2="22.317208475507996" y1="142.92168965132927" y2="145.44649492493687" /><path d="M 25.769776987707644 143.4266507060508 a86.0,86.0 0 0,1 -11.730757126820373,-40.83630448921669" fill="none" id="id9" stroke="none" /><text fill="#e1ed5e" style="font-size:6.75px; font-family:Arial;" text-anchor="middle"><textPath startOffset="21.46611528233685" xlink:href="#id9">September</textPath></text><path d="M 80.45479744820244 107.68017299344265 l -38.48287050358598 15.121618820195332 a62.34724510700868,62.34724510700868 0 0,0 -0.38389787828199157,-1.0022362200477544 l 38.73746266146148 -14.45695903331442" fill="#7cff26" stroke="none" /><path d="M 80.20201598880116 107.00284435728193 l -44.31420528856445 15.67460011468437 a68.00470060655952,68.00470060655952 0 0,0 -0.38085601572819017,-1.1069458564553283 l 44.57745213523587 -14.909481555139745" fill="#30ff37" stroke="none" /><path d="M 79.97269907076064 106.31721596034903 l -52.41247850964286 16.532479685226445 a75.95808209959841,75.95808209959841 0 0,0 -0.3825872141866119,-1.2503171523099186 l 52.689292496335604 -15.627835560364478" fill="#3effba" stroke="none" /><path d="M 79.86692584326677 105.97154293290107 l -32.0173471214158 9.49646146657585 a54.39600720264913,54.39600720264913 0 0,0 -0.2585296210867095,-0.8999755269027903 l 32.176069379388615 -8.943928464168463" fill="#fffe18" stroke="none" /><path d="M 79.76711848015287 105.62410040840567 l -53.57418107618576 14.891925965909202 a76.60541643543425,76.60541643543425 0 0,0 -0.34221435611654766,-1.2735069259749374 l 53.82258350864409 -13.967528106758726" fill="#40ffc4" stroke="none" /><path d="M 79.67330655649465 105.27499134158121 l -51.233897313396675 13.295736735281928 a73.93098194114295,73.93098194114295 0 0,0 -0.30906208273755725,-1.2345493891796668 l 51.45517071042929 -12.41185950670487" fill="#3bff9a" stroke="none" /><path d="M 79.50377843672027 104.57218783832718 l -29.31944086718689 6.540424562918995 a51.040085989019786,51.040085989019786 0 0,0 -0.18390462714030406,-0.8591411929966275 l 29.427679533051634 -6.034769550506204" fill="#ffc112" stroke="none" /><path d="M 79.29508885075956 103.50808413554451 l -41.886511593066544 7.096934913354047 a63.48348312698103,63.48348312698103 0 0,0 -0.17327437523205486,-1.0789796999733305 l 42.00246772265989 -6.374875983687503" fill="#6bff28" stroke="none" /><line stroke="#e1ed5e" stroke-width="0.3" x1="15.007084014347285" x2="10.007500721073583" y1="101.09737516637583" y2="101.16192664675087" /><path d="M 14.007167355692545 101.11028546245083 a86.0,86.0 0 0,1 10.666146001902534,-42.60595125391555" fill="none" id="id10" stroke="none" /><text fill="#e1ed5e" style="font-size:6.75px; font-family:Arial;" text-anchor="middle"><textPath startOffset="22.20632615414155" xlink:href="#id10">October</textPath></text><path d="M 79.03285615573316 98.82574320788736 l -42.837820140364784 -2.3991155701866225 a63.904948314819755,63.904948314819755 0 0,0 0.07096312507595803,-1.0977681359024283 l 42.79017642428441 3.1361427703420626" fill="#64ff29" stroke="none" /><path d="M 79.05617556472873 98.46500227214037 l -37.605243963513786 -2.7561329220459156 a58.70610881859033,58.70610881859033 0 0,0 0.08253943646750733,-1.007190189629705 l 37.55223004322678 3.403037028883399" fill="#b6ff1f" stroke="none" /><path d="M 79.08570108090925 98.10471618934814 l -41.837202554868064 -3.791347393090195 a63.008639976463776,63.008639976463776 0 0,0 0.10718332032442464,-1.07932140840805 l 41.76574210886141 4.510944332202675" fill="#72ff27" stroke="none" /><path d="M 79.21141760316559 97.0276538004421 l -62.36574719050324 -8.91703859867371 a84.0,84.0 0 0,0 0.21697642624279112,-1.4296035504316318 l 62.20301487082115 9.989241261497433" fill="#4dd2ff" stroke="none" /><path d="M 79.32604984820605 96.31383870115002 l -20.009056971157033 -3.56761097381109 a41.324620757481924,41.324620757481924 0 0,0 0.130889392113496,-0.6992163664608835 l 19.944681855133673 3.9115054177345465" fill="#ff0000" stroke="none" /><path d="M 79.81627453868168 94.20196356495316 l -45.78467747533374 -13.15224132817326 a68.63631118668658,68.63631118668658 0 0,0 0.3359718111427219,-1.1327299266393018 l 45.55149976707931 13.9384006415591" fill="#31ff42" stroke="none" /><path d="M 79.91906864156998 93.8553929516997 l -39.812057448538724 -12.1821764359018 a62.634184764459945,62.634184764459945 0 0,0 0.32433924389448254,-1.0282440368364176 l 39.59646272087604 12.865670639164632" fill="#78ff26" stroke="none" /><path d="M 80.02781315780177 93.51064311812611 l -40.664971336639724 -13.212850134020812 a63.75768121020858,63.75768121020858 0 0,0 0.34812515573329206,-1.0408499054363605 l 40.431508887134655 13.910873142379495" fill="#67ff28" stroke="none" /><path d="M 80.14247586403 93.16781622104843 l -41.978040644139 -14.442973172145992 a65.39319058563278,65.39319058563278 0 0,0 0.3753784600530951,-1.0612454555771735 l 41.7232091032761 15.163416254149775" fill="#4eff2b" stroke="none" /><line stroke="#e1ed5e" stroke-width="0.3" x1="26.266209847984243" x2="21.928928074336255" y1="57.711370442889674" y2="55.22380399835377" /><path d="M 25.398753493254645 57.213857153982495 a86.0,86.0 0 0,1 29.58750427330803,-30.492523968695096" fill="none" id="id11" stroke="none" /><text fill="#e1ed5e" style="font-size:6.75px; font-family:Arial;" text-anchor="middle"><textPath startOffset="21.46611528233685" xlink:href="#id11">November</textPath></text><line stroke="#e1ed5e" stroke-width="0.3" x1="56.762969772571076" x2="54.21961505331055" y1="26.818313649435495" y2="22.513508569990535" /><path d="M 56.25429882871897 25.957352633546506 a86.0,86.0 0 0,1 42.265352541879196,-11.944610805530505" fill="none" id="id12" stroke="none" /><text fill="#e1ed5e" style="font-size:6.75px; font-family:Arial;" text-anchor="middle"><textPath startOffset="22.20632615414155" xlink:href="#id12">December</textPath></text></svg>
