<?xml version="1.0" encoding="utf-8" ?>
<svg baseProfile="full" height="200mm" version="1.1" viewBox="0,0,200,200" width="200mm" xmlns="http://www.w3.org/2000/svg" xmlns:ev="http://www.w3.org/2001/xml-events" xmlns:xlink="http://www.w3.org/1999/xlink"><defs /><rect fill="#1a1a1a" height="200" width="200" x="0" y="0" /><text alignment-baseline="middle" fill="#e1ed5e" style="dominant-baseline: central; font-size:9.0px; font-family:Arial;" text-anchor="middle" x="100.0" y="100.0">2020</text><line stroke="#e1ed5e" stroke-width="0.3" x1="100.0" x2="100.0" y1="15.0" y2="10.0" /><path d="M 100.0 14.0 a86.0,86.0 0 0,1 42.35913384403234,11.155469271406648" fill="none" id="id61" stroke="none" /><text fill="#e1ed5e" style="font-size:6.75px; font-family:Arial;" text-anchor="middle"><textPath startOffset="22.145653131862478" xlink:href="#id61">January</textPath></text><path d="M 101.44090949804482 79.04949213459386 l 4.322728494134444 -62.8515235962184 a84.0,84.0 0 0,0 1.437724020899066,0.1112889320197854 l -5.401021509808744 62.76805689720356" fill="#4dd2ff" stroke="none" /><path d="M 105.3480935250658 79.69241777938227 l 2.369332950566793 -8.996743134005296 a30.303500720154375,30.303500720154375 0 0,0 0.5019105317742202,0.1367979473320605 l -2.523424883275706 8.954744692529093" fill="#ff3705" stroke="none" /><line stroke="#e1ed5e" stroke-width="0.3" x1="143.13028292997686" x2="145.6673583964461" y1="26.7553504044142" y2="22.446841604673864" /><path d="M 143.63769802327073 25.89364864446614 a86.0,86.0 0 0,1 29.32050498858742,28.57503671076993" fill="none" id="id62" stroke="none" /><text fill="#e1ed5e" style="font-size:6.75px; font-family:Arial;" text-anchor="middle"><textPath startOffset="20.669276256404974" xlink:href="#id62">February</textPath></text><path d="M 114.39649973595853 84.71141617570332 l 3.9647833848933307 -4.210462559431608 a26.783381558699165,26.783381558699165 0 0,0 0.3320214829189046,0.318069070006514 l -4.036477353677547 4.1417813591195145" fill="#ff0000" stroke="none" /><path d="M 115.16444852881244 85.47280134310134 l 6.553512859952855 -6.278117073376413 a30.07542201732723,30.07542201732723 0 0,0 0.3539507190239271,0.37588339782004293 l -6.660319412713042 6.1646922156118755" fill="#ff3304" stroke="none" /><path d="M 115.6541949942343 86.00192230759917 l 8.9003691703125 -7.958764994493253 a32.939786916248565,32.939786916248565 0 0,0 0.3733002305537499,0.42474713659200775 l -9.03568046482484 7.804805580089947" fill="#ff5f08" stroke="none" /><path d="M 116.35404254752997 86.82634096563983 l 11.732801063058053 -9.451114014990127 a36.065927681680904,36.065927681680904 0 0,0 0.38424565392599336,0.48548183142031986 l -11.893313147625605 9.248312239655128" fill="#ff8c0c" stroke="none" /><path d="M 117.42321728460499 88.27688183743584 l 10.466423399592859 -7.0422767648813895 a33.61505770152215,33.61505770152215 0 0,0 0.3180233547410542,0.48152789273387875 l -10.585771193254637 6.861568993808452" fill="#ff6909" stroke="none" /><line stroke="#e1ed5e" stroke-width="0.3" x1="172.87174338648825" x2="177.1583165268699" y1="56.24261187166439" y2="53.66864786411523" /><path d="M 173.72905801456457 55.72781907015455 a86.0,86.0 0 0,1 12.242430191666344,42.057860355516425" fill="none" id="id63" stroke="none" /><text fill="#e1ed5e" style="font-size:6.75px; font-family:Arial;" text-anchor="middle"><textPath startOffset="22.145653131862474" xlink:href="#id63">March</textPath></text><path d="M 118.00360718960297 89.18935116829356 l 10.213149931366788 -6.132703086153478 a32.91295423744647,32.91295423744647 0 0,0 0.286697362253563,0.4868747991366851 l -10.31692100375012 5.956477118723236" fill="#ff5e08" stroke="none" /><path d="M 118.36410011445183 89.81374322990088 l 7.828217533044764 -4.342180305422828 a29.95184447750693,29.95184447750693 0 0,0 0.2455404435428989,0.4517667603224151 l -7.901603326203005 4.2071587116258105" fill="#ff3104" stroke="none" /><path d="M 118.70294669586156 90.45014215332178 l 10.204547150143021 -5.210514485140178 a32.45784638312749,32.45784638312749 0 0,0 0.24912183319012368,0.49841054648044036 l -10.292488896544883 5.034572082495987" fill="#ff5708" stroke="none" /><path d="M 119.0197475246899 91.09779779509293 l 12.846687860520083 -6.012898586020502 a35.184228508854524,35.184228508854524 0 0,0 0.2513419461151413,0.5492275122608917 l -12.948014271490276 5.7914820915449265" fill="#ff800b" stroke="none" /><path d="M 120.05942366710727 93.78553927170692 l 13.86376131789079 -4.295028695053498 a35.51382614512031,35.51382614512031 0 0,0 0.17541070183444155,0.5838851771679361 l -13.93544833972886 4.056405914294839" fill="#ff840c" stroke="none" /><path d="M 120.26092885502905 94.47779374421319 l 8.762544531607455 -2.3882704773943506 a30.082181595938124,30.082181595938124 0 0,0 0.13151717670711746,0.49939214168294427 l -8.802251189119303 2.237497831338608" fill="#ff3304" stroke="none" /><path d="M 120.51834098615036 95.52812308129327 l 11.079195710543097 -2.414659138828741 a32.33927494812811,32.33927494812811 0 0,0 0.11356057928357967,0.5434284812644031 l -11.119014000651042 2.2241142062789336" fill="#ff5607" stroke="none" /><path d="M 120.65975698304385 96.23510406497455 l 21.8215895820294 -3.976620537240802 a43.180966678297395,43.180966678297395 0 0,0 0.1266337006545092,0.730389533778808 l -21.886638100176143 3.6014379705414017" fill="#ffef16" stroke="none" /><path d="M 120.82617615685814 97.30363454192243 l 9.026322709394591 -1.168638188007358 a30.101660116077817,30.101660116077817 0 0,0 0.06194909287321781,0.5130273566974554 l -9.045053888527473 1.0135171543864896" fill="#ff3404" stroke="none" /><path d="M 120.9064616781168 98.02013634271609 l 6.944330185062537 -0.657635288518294 a27.975400052461165,27.975400052461165 0 0,0 0.04117229853347651,0.47848451857570723 l -6.954596106293754 0.5383297225669248" fill="#ff1302" stroke="none" /><path d="M 120.96210409425399 98.7389718711861 l 15.337846268320797 -0.9226867442699976 a36.36557447603876,36.36557447603876 0 0,0 0.0321374886082814,0.6234586934015797 l -15.351425346385652 0.6592562574916874" fill="#ff910d" stroke="none" /><line stroke="#e1ed5e" stroke-width="0.3" x1="184.99686870605535" x2="189.99668451229388" y1="99.2704041080226" y2="99.22748670261217" /><path d="M 185.99683186730306 99.26182062694052 a86.0,86.0 0 0,1 -10.086455211305974,41.156179273409016" fill="none" id="id64" stroke="none" /><text fill="#e1ed5e" style="font-size:6.75px; font-family:Arial;" text-anchor="middle"><textPath startOffset="21.40746469413373" xlink:href="#id64">April</textPath></text><path d="M 120.98066250479742 100.90099992219065 l 8.475321612012397 0.3639667770842675 a29.483133161860984,29.483133161860984 0 0,0 -0.026055242348778703,0.5054647408523738 l -8.467824780207046 -0.509403311313372" fill="#ff2a04" stroke="none" /><path d="M 120.9064616781168 101.97986365728391 l 11.729934625673486 1.110837004618327 a32.78241593109848,32.78241593109848 0 0,0 -0.057865034630320764,0.5597917191205666 l -11.709137198561498 -1.312033246021825" fill="#ff5c08" stroke="none" /><path d="M 120.7213421655516 103.40968896794604 l 17.10816378752281 2.8151418408170255 a38.33823208301889,38.33823208301889 0 0,0 -0.11243176285037122,0.6484765305426546 l -17.0573172071802 -3.108411404280268" fill="#ffad10" stroke="none" /><path d="M 120.51834098615036 104.47187691870673 l 11.226194433845333 2.446696826391213 a32.48972440168922,32.48972440168922 0 0,0 -0.12344414848760578,0.543917695210364 l -11.182539423800064 -2.639048855540594" fill="#ff5808" stroke="none" /><path d="M 120.16314734710363 105.8691983318838 l 9.252451240816667 2.693253709532504 a30.63646561284792,30.63646561284792 0 0,0 -0.15132033121175437,0.5036961683334413 l -9.204854589601283 -2.8516874814566693" fill="#ff3c05" stroke="none" /><path d="M 119.94978838288452 106.5578916946017 l 13.530598161060757 4.447776367369343 a35.24288598600122,35.24288598600122 0 0,0 -0.19386033891648272,0.5731136452817853 l -13.45225240057191 -4.679391687125289" fill="#ff810b" stroke="none" /><path d="M 119.58574465831526 107.57618678355244 l 12.782956768090939 4.944722287085275 a34.70599366085071,34.70599366085071 0 0,0 -0.21970765637575138,0.5538068177306459 l -12.696190436749063 -5.163430122029486" fill="#ff790b" stroke="none" /><path d="M 118.8641267826498 109.22738970284198 l 9.77332612049047 4.780623553149299 a31.879901884409946,31.879901884409946 0 0,0 -0.24468596916812635,0.4895358469689323 l -9.689820238110611 -4.947691256281978" fill="#ff4f07" stroke="none" /><path d="M 118.5362547648365 109.86951160357373 l 7.6135133830159125 4.053767043609263 a29.62546307610293,29.62546307610293 0 0,0 -0.2428648208738183,0.4468439159729625 l -7.5428032125267555 -4.183865793056829" fill="#ff2c04" stroke="none" /><line stroke="#e1ed5e" stroke-width="0.3" x1="174.33088141563837" x2="178.70328620479359" y1="141.23008692659167" y2="143.65538615756765" /><path d="M 175.20536237346943 141.71514677278685 a86.0,86.0 0 0,1 -30.301960400862466,31.631185727798858" fill="none" id="id65" stroke="none" /><text fill="#e1ed5e" style="font-size:6.75px; font-family:Arial;" text-anchor="middle"><textPath startOffset="22.145653131862474" xlink:href="#id65">May</textPath></text><path d="M 118.18653347947321 110.5 l 7.164474411600318 4.136411230139627 a29.272822460279258,29.272822460279258 0 0,0 -0.2549889907947123,0.43302705228743316 l -7.09241171067584 -4.258789450720609" fill="#ff2703" stroke="none" /><path d="M 117.62189284568427 111.42229804090321 l 15.254131615565468 9.887543818019822 a39.17834024597009,39.17834024597009 0 0,0 -0.3706561300248944,0.5612206228222087 l -15.082151046619847 -10.147944319181093" fill="#ffb911" stroke="none" /><path d="M 116.79662413953412 112.60449989151573 l 8.746159919530886 6.563281457101419 a31.934897202220963,31.934897202220963 0 0,0 -0.33280424314760065,0.4356514374399392 l -8.632203699028981 -6.712453807782235" fill="#ff5007" stroke="none" /><path d="M 116.1254893667686 113.45245675266167 l 9.005779868649826 7.512941868087954 a32.72810157509933,32.72810157509933 0 0,0 -0.36360209636009727,0.42832235524772766 l -8.875483208782615 -7.666431005785239" fill="#ff5b08" stroke="none" /><path d="M 115.6541949942343 113.99807769240083 l 11.727053570111869 10.486403614994822 a36.73176551480634,36.73176551480634 0 0,0 -0.4243433698109033,0.46642769743930307 l -11.545312499459085 -10.686168887991796" fill="#ff960d" stroke="none" /><path d="M 115.16444852881244 114.52719865689866 l 10.153957695111364 9.727261780101099 a35.06138252849722,35.06138252849722 0 0,0 -0.4200907911462089,0.4310501596947943 l -9.985480102814348 -9.90013463186363" fill="#ff7e0b" stroke="none" /><path d="M 114.39649973595853 115.28858382429668 l 8.394632466773084 8.91480877270878 a33.2451488233572,33.2451488233572 0 0,0 -0.4188417441379432,0.38767366542991333 l -8.240360951321174 -9.057600184271072" fill="#ff6309" stroke="none" /><path d="M 113.86319453409587 115.77377054828091 l 7.581461034204479 8.626310947318267 a32.48441517766507,32.48441517766507 0 0,0 -0.42201976420809406,0.3645306209556645 l -7.43226179023353 -8.755185700738648" fill="#ff5808" stroke="none" /><path d="M 113.31354834802062 116.24036423190432 l 14.619732447758842 17.833696451021144 a44.060297178293624,44.060297178293624 0 0,0 -0.5890425947964083,0.47449101823051376 l -14.311439082607182 -18.08203576304506" fill="#fffb17" stroke="none" /><path d="M 112.45986205192187 116.90419585922612 l 7.070540575746288 9.5925462276354 a32.91677335366402,32.91677335366402 0 0,0 -0.4577296617374316,0.33136097599294406 l -6.904829903634889 -9.712507975001422" fill="#ff5e08" stroke="none" /><path d="M 111.8722381534696 117.32195027204791 l 7.656046887319552 11.170401212332463 a34.54226410853495,34.54226410853495 0 0,0 -0.4919866386855457,0.3310305671736983 l -7.4631639605370035 -11.300181453563281" fill="#ff760a" stroke="none" /><path d="M 110.96478420261333 117.91015095944535 l 9.368118667017642 15.30211780112321 a38.94203044693594,38.94203044693594 0 0,0 -0.5731288573471841,0.3441474115073861 l -9.10405705311302 -15.460679213166518" fill="#ffb510" stroke="none" /><line stroke="#e1ed5e" stroke-width="0.3" x1="143.1302829299769" x2="145.66735839644613" y1="173.24464959558577" y2="177.55315839532614" /><path d="M 143.63769802327073 174.10635135553383 a86.0,86.0 0 0,1 -40.68552437913181,11.842963189579606" fill="none" id="id66" stroke="none" /><text fill="#e1ed5e" style="font-size:6.75px; font-family:Arial;" text-anchor="middle"><textPath startOffset="21.407464694133747" xlink:href="#id66">June</textPath></text><path d="M 109.71004243097381 118.62028667847754 l 6.2178484266579295 11.923544212162618 a34.44739921458009,34.44739921458009 0 0,0 -0.5266724843126948,0.2689227231800853 l -6.012248720631653 -12.028524887015541" fill="#ff750a" stroke="none" /><path d="M 108.4095320186766 119.2426549942271 l 3.710298014215624 8.489887957469568 a30.2652311835528,30.2652311835528 0 0,0 -0.47785186201543844,0.20396654506625925 l -3.5640110770297544 -8.552329152195233" fill="#ff3605" stroke="none" /><path d="M 107.407793817531 119.65005319985036 l 3.193627382278408 8.471476057251508 a30.053461351628115,30.053461351628115 0 0,0 -0.4843055881778275,0.17784372031028645 l -3.0477326424464533 -8.525050626570515" fill="#ff3304" stroke="none" /><path d="M 107.06938296918513 119.77432235084164 l 6.0053447363518355 16.79801803950644 a38.83921454150974,38.83921454150974 0 0,0 -0.6297394461756725,0.2190560689572004 l -5.7160995181311405 -16.898632541032235" fill="#ffb410" stroke="none" /><path d="M 105.3480935250658 120.30758222061773 l 3.1789160739609326 12.070862119714077 a33.482436449605316,33.482436449605316 0 0,0 -0.5570755269242437,0.14160642051723818 l -2.9712352538112916 -12.123653772066584" fill="#ff6709" stroke="none" /><path d="M 104.64783097203109 120.47920084513623 l 2.705876500033891 11.922591126869785 a33.22579023261686,33.22579023261686 0 0,0 -0.5573034313074515,0.12146168897680598 l -2.5008106521073037 -11.96728427398031" fill="#ff6309" stroke="none" /><path d="M 104.29559338865022 120.5559693870025 l 3.2885392366689614 15.736850712065447 a37.07678328039991,37.07678328039991 0 0,0 -0.6241320568965885,0.1248438912170194 l -3.0179106942414142 -15.790983999945327" fill="#ff9b0e" stroke="none" /><path d="M 103.58742460773223 120.69131181640829 l 2.5187011726864275 14.527199045265064 a35.74392646814417,35.74392646814417 0 0,0 -0.605472322568363,0.09963024026938032 l -2.268951347064992 -14.568295284030114" fill="#ff880c" stroke="none" /><path d="M 102.15924093988457 120.88869738790638 l 3.197239633132846 30.93039314857713 a52.09520158476582,52.09520158476582 0 0,0 -0.8903328854437189,0.08431544992713154 l -2.6658071843041116 -30.980720354009446" fill="#9eff22" stroke="none" /><path d="M 101.08105385017728 120.97215588758144 l 0.7601120748698931 14.745971186902658 a35.76554897764815,35.76554897764815 0 0,0 -0.6134204476056286,0.02634291340592217 l -0.5068658666634349 -14.756846668734411" fill="#ff880c" stroke="none" /><line stroke="#e1ed5e" stroke-width="0.3" x1="101.45913802915013" x2="101.54496967792366" y1="184.9874750549273" y2="189.98673829345242" /><path d="M 101.47630435890484 185.9873277026323 a86.0,86.0 0 0,1 -42.54439059252881,-10.42667462771756" fill="none" id="id67" stroke="none" /><text fill="#e1ed5e" style="font-size:6.75px; font-family:Arial;" text-anchor="middle"><textPath startOffset="22.145653131862474" xlink:href="#id67">July</textPath></text><path d="M 100.36049292484886 120.99690560180557 l 0.15664497200360755 9.123784305992245 a30.12512891467975,30.12512891467975 0 0,0 -0.5171378968524587,0.0044390068819382825 l -1.1175059917169516e-15 -9.125128914679749" fill="#ff3404" stroke="none" /><path d="M 98.19965949673042 120.92268563240118 l -1.019807601402514 11.851710168675163 a32.89550509504143,32.89550509504143 0 0,0 -0.5622005305371821,-0.05324097475955921 l 1.2231076953247113 -11.83245743841042" fill="#ff5e08" stroke="none" /><path d="M 96.41257539226777 120.69131181640829 l -1.4192642129145139 8.185938825303241 a29.308062671746455,29.308062671746455 0 0,0 -0.49497865983701295,-0.09020160042899729 l 1.559577606302584 -8.160369050942878" fill="#ff2803" stroke="none" /><path d="M 95.70440661134978 120.55596938700252 l -3.6090163926716095 17.270449917574553 a38.64350984577681,38.64350984577681 0 0,0 -0.6481760248300491,-0.1412669477835985 l 3.904954834120795 -17.205951511657236" fill="#ffb110" stroke="none" /><path d="M 93.61358852112213 120.00534299687104 l -3.647837291256764 11.426798359254924 a32.9949338325209,32.9949338325209 0 0,0 -0.5380959338312191,-0.17688282139364137 l 3.8434559627357268 -11.362494616459262" fill="#ff5f08" stroke="none" /><path d="M 92.93061703081489 119.77432235084164 l -3.2591613937664623 9.116454473421362 a30.681522357386886,30.681522357386886 0 0,0 -0.4944266671193531,-0.18156032068916464 l 3.4151772125399344 -9.059163303723478" fill="#ff3d05" stroke="none" /><path d="M 91.59046798132341 119.24265499422711 l -6.55770581042908 15.005314229552503 a37.375681989576684,37.375681989576684 0 0,0 -0.5857064762809389,-0.2619790569548466 l 6.814325689565654 -14.890531421687802" fill="#ff9f0e" stroke="none" /><path d="M 91.26138138417905 119.09545874513695 l -3.752785920638368 8.200514506622454 a30.018416731304164,30.018416731304164 0 0,0 -0.46673104068950994,-0.2184536936744885 l 3.893005675199368 -8.13488458137744" fill="#ff3204" stroke="none" /><path d="M 90.93487009805054 118.94263497670748 l -4.07521124818682 8.515624151262797 a30.44050853518594,30.44050853518594 0 0,0 -0.46942127125573635,-0.22961746677106365 l 4.220792768704626 -8.444412934394512" fill="#ff3905" stroke="none" /><path d="M 90.28995756902619 118.62028667847754 l -8.342021228159497 15.996925641724218 a39.04136769089077,39.04136769089077 0 0,0 -0.5915904688681246,-0.31498860320660327 l 8.615400512814183 -15.851366570795042" fill="#ffb710" stroke="none" /><line stroke="#e1ed5e" stroke-width="0.3" x1="58.13341422392154" x2="55.67067388415222" y1="173.97424548756322" y2="178.32567169271397" /><path d="M 57.64086615596768 174.84453072859336 a86.0,86.0 0 0,1 -31.369924170532247,-30.572349798747897" fill="none" id="id68" stroke="none" /><text fill="#e1ed5e" style="font-size:6.75px; font-family:Arial;" text-anchor="middle"><textPath startOffset="22.145653131862474" xlink:href="#id68">August</textPath></text><path d="M 89.65649057296885 118.27599006163327 l -7.582526886109463 13.397598464062021 a36.3944911764829,36.3944911764829 0 0,0 -0.541077822556485,-0.31239142650552554 l 7.811397176526348 -13.265460140280325" fill="#ff910d" stroke="none" /><path d="M 87.83215693770417 117.11559508785305 l -8.921509540850142 12.549220440454786 a36.39728112851773,36.39728112851773 0 0,0 -0.5061284409659478,-0.3663979597469682 l 9.135618992190043 -12.394221709334753" fill="#ff910d" stroke="none" /><path d="M 87.2517909369889 116.68781488649013 l -4.72699201143811 6.187784281454568 a28.786727668925884,28.786727668925884 0 0,0 -0.3901150676700106,-0.30335583621009116 l 4.832517023743349 -6.105727393623684" fill="#ff1f03" stroke="none" /><path d="M 86.96720088162412 116.46651593811092 l -5.626517864955976 7.108921518534781 a30.066116502745572,30.066116502745572 0 0,0 -0.4019542403121318,-0.3237858831477146 l 5.74772287562337 -7.011287341593656" fill="#ff3304" stroke="none" /><path d="M 86.13680546590413 115.77377054828092 l -13.213327214778891 15.034340833396605 a41.01557944151388,41.01557944151388 0 0,0 -0.5248724114780539,-0.4693441468675729 l 13.469464653080315 -14.805301156645651" fill="#ffd213" stroke="none" /><path d="M 85.08716467003676 114.78537596483092 l -8.48284813953288 8.410345599643207 a32.9454018628012,32.9454018628012 0 0,0 -0.39473799762245193,-0.4050359600802174 l 8.625972938306141 -8.263486947495254" fill="#ff5f08" stroke="none" /><path d="M 84.58840730492382 114.26474011684316 l -9.09226331521167 8.415663184950272 a33.38921462545836,33.38921462545836 0 0,0 -0.38572858262952997,-0.42398328201189966 l 9.23538959868308 -8.2583423273807" fill="#ff6509" stroke="none" /><path d="M 83.8745106332314 113.45245675266167 l -10.544660694372979 8.796730985099384 a34.73216462119727,34.73216462119727 0 0,0 -0.3780069856620078,-0.4611070594315261 l 10.694114499273615 -8.614421643969361" fill="#ff790b" stroke="none" /><line stroke="#e1ed5e" stroke-width="0.3" x1="26.387840678322732" x2="22.057713659400548" y1="142.50000000000003" y2="145.00000000000006" /><path d="M 25.521815274538298 143.00000000000003 a86.0,86.0 0 0,1 -11.493303480769221,-40.785679425670985" fill="none" id="id69" stroke="none" /><text fill="#e1ed5e" style="font-size:6.75px; font-family:Arial;" text-anchor="middle"><textPath startOffset="21.40746469413373" xlink:href="#id69">September</textPath></text><path d="M 80.9802524753101 108.90220220490708 l -31.683571186272708 14.829511112470243 a55.98232529364634,55.98232529364634 0 0,0 -0.39991516607546124,-0.8738868110713607 l 31.933470817203226 -14.283435319184193" fill="#71ff27" stroke="none" /><path d="M 80.05021161711548 106.5578916946017 l -14.756452798294545 4.850739135195059 a36.533272975970256,36.533272975970256 0 0,0 -0.1907302745860778,-0.597459868597792 l 14.837547788657877 -4.596710232905875" fill="#ff930d" stroke="none" /><path d="M 79.48165901384964 104.47187691870673 l -18.09142497651309 3.9429418700854826 a39.51611320638526,39.51611320638526 0 0,0 -0.13876231653153903,-0.664027917127464 l 18.156445003868992 -3.6317975016726094" fill="#ffbd11" stroke="none" /><line stroke="#e1ed5e" stroke-width="0.3" x1="15.003131293944662" x2="10.003315487706104" y1="100.72959589197737" y2="100.7725132973878" /><path d="M 14.003168132696942 100.73817937305945 a86.0,86.0 0 0,1 10.791469493833604,-42.45332614584628" fill="none" id="id70" stroke="none" /><text fill="#e1ed5e" style="font-size:6.75px; font-family:Arial;" text-anchor="middle"><textPath startOffset="22.145653131862435" xlink:href="#id70">October</textPath></text><line stroke="#e1ed5e" stroke-width="0.3" x1="26.387840678322718" x2="22.05771365940052" y1="57.49999999999999" y2="54.99999999999999" /><path d="M 25.521815274538284 56.99999999999999 a86.0,86.0 0 0,1 29.574782752854787,-30.34633250058573" fill="none" id="id71" stroke="none" /><text fill="#e1ed5e" style="font-size:6.75px; font-family:Arial;" text-anchor="middle"><textPath startOffset="21.40746469413373" xlink:href="#id71">November</textPath></text><line stroke="#e1ed5e" stroke-width="0.3" x1="56.869717070023135" x2="54.33264160355391" y1="26.7553504044142" y2="22.446841604673864" /><path d="M 56.362301976729285 25.89364864446614 a86.0,86.0 0 0,1 42.16139366436587,-11.88097634709845" fill="none" id="id72" stroke="none" /><text fill="#e1ed5e" style="font-size:6.75px; font-family:Arial;" text-anchor="middle"><textPath startOffset="22.145653131862474" xlink:href="#id72">December</textPath></text></svg>