<?xml version="1.0" encoding="utf-8" ?>
<svg baseProfile="full" height="200mm" version="1.1" viewBox="0,0,200,200" width="200mm" xmlns="http://www.w3.org/2000/svg" xmlns:ev="http://www.w3.org/2001/xml-events" xmlns:xlink="http://www.w3.org/1999/xlink"><defs /><rect fill="#1a1a1a" height="200" width="200" x="0" y="0" /><text alignment-baseline="middle" fill="#e1ed5e" style="dominant-baseline: central; font-size:9.0px; font-family:Arial;" text-anchor="middle" x="100.0" y="100.0">2024</text><line stroke="#e1ed5e" stroke-width="0.3" x1="100.0" x2="100.0" y1="15.0" y2="10.0" /><path d="M 100.0 14.0 a86.0,86.0 0 0,1 42.35913384403234,11.155469271406648" fill="none" id="id109" stroke="none" /><text fill="#e1ed5e" style="font-size:6.75px; font-family:Arial;" text-anchor="middle"><textPath startOffset="22.145653131862478" xlink:href="#id109">January</textPath></text><path d="M 101.08105385017728 79.02784411241856 l 0.8392331081774489 -16.28089809571533 a37.3025137636172,37.3025137636172 0 0,0 0.639215250356867,0.03845360214997746 l -1.1185927106667781 16.26409251574066" fill="#ff9f0e" stroke="none" /><path d="M 101.44090949804482 79.04949213459386 l 1.1622807760848313 -16.899307398706775 a37.93922923743704,37.93922923743704 0 0,0 0.6493588239173737,0.05026447980343078 l -1.4522085947774384 16.876865151908287" fill="#ffa80f" stroke="none" /><path d="M 101.80034050326958 79.07731436759882 l 3.8635935642791406 -44.900813712724904 a66.066733044395,66.066733044395 0 0,0 1.1291133016837693,0.10692820360412648 l -4.633806429347923 44.82787375361559" fill="#35ff64" stroke="none" /><path d="M 102.51750503828377 79.15144685158666 l 2.1735531609904997 -18.00013819583241 a39.13089375658896,39.13089375658896 0 0,0 0.6661982079626526,0.08625269577354061 l -2.482229190843944 17.960173903858472" fill="#ffb911" stroke="none" /><path d="M 102.87502721639298 79.19773525538626 l 2.064907388570329 -14.940641231229863 a36.08265901370505,36.08265901370505 0 0,0 0.6128465996717747,0.09006734562003926 l -2.321079093849786 14.902992812310941" fill="#ff8e0d" stroke="none" /><path d="M 103.23170211078529 79.25015418208739 l 3.886968799285606 -24.95712801469022 a46.258003982663695,46.258003982663695 0 0,0 0.7835720324044827,0.1289364797480293 l -4.314818334743159 24.88672553644652" fill="#e6ff1a" stroke="none" /><path d="M 103.94208987418118 79.37332000966035 l 2.8695015691855037 -15.014444745925811 a36.28618952793721,36.28618952793721 0 0,0 0.61082359641979,0.12218182639648964 l -3.1268216511362508 14.962973522866463" fill="#ff910d" stroke="none" /><path d="M 104.29559338865022 79.4440306129975 l 4.949236077603266 -23.683886274959846 a45.19548319081645,45.19548319081645 0 0,0 0.7580737037554157,0.16521863540480963 l -5.355072197977815 23.59543618142132" fill="#f4ff19" stroke="none" /><path d="M 104.64783097203109 79.52079915486377 l 11.543422036336613 -50.862447396404164 a73.15591191284994,73.15591191284994 0 0,0 1.2222884406693502,0.2884567438790887 l -12.414842630745849 50.65679450887885" fill="#3effb9" stroke="none" /><path d="M 104.9986988182912 79.60360301121754 l 3.659174010208174 -14.930678657842124 a36.37253133419234,36.37253133419234 0 0,0 0.6051604723885851,0.15382942561955976 l -3.914939775822153 14.865664000387298" fill="#ff920d" stroke="none" /><path d="M 105.3480935250658 79.69241777938227 l 3.4697894540415213 -13.175355721796864 a34.62458943422748,34.62458943422748 0 0,0 0.5734798185821162,0.15630447470603454 l -3.69545067355833 13.113850752946687" fill="#ff780b" stroke="none" /><path d="M 105.69591212413111 79.78721728523813 l 7.729973918451255 -27.430950442948777 a49.4992901487642,49.4992901487642 0 0,0 0.8158896990101243,0.2374936004779689 l -8.199723629842984 27.294213148168293" fill="#bdff1f" stroke="none" /><path d="M 106.38641147887787 79.99465700312896 l 4.958374861768872 -15.532038633091357 a37.304284877591655,37.304284877591655 0 0,0 0.6083747313755388,0.19998485806075095 l -5.224272330792153 15.444632853628585" fill="#ff9f0e" stroke="none" /><path d="M 106.72888874123014 80.10723608172694 l 3.4503427301112906 -10.200325195848885 a31.768077779079302,31.768077779079302 0 0,0 0.5150879579524484,0.17917432983033735 l -3.6249364601087573 10.139592433449957" fill="#ff4e07" stroke="none" /><path d="M 107.06938296918511 80.22567764915836 l 12.599930941106942 -35.24424933743718 a58.42880402951857,58.42880402951857 0 0,0 0.9415686256887751,0.3457570414373353 l -13.203088718449841 35.022761446991126" fill="#55ff2b" stroke="none" /><path d="M 108.07796709384702 80.6158196554323 l 8.892311716115579 -21.338310986261725 a44.11702237319902,44.11702237319902 0 0,0 0.6965551050892472,0.29731795463576244 l -9.257301896375255 21.18251838196656" fill="#fffc17" stroke="none" /><path d="M 108.73861861582097 80.90454125486305 l 7.593416350972868 -16.59298512034085 a39.2479348717348,39.2479348717348 0 0,0 0.610233032993216,0.2856198719129895 l -7.877138097837589 16.460189016857324" fill="#ffba11" stroke="none" /><path d="M 109.06512990194946 81.05736502329252 l 22.60820248918824 -47.24244791462781 a73.37346374604661,73.37346374604661 0 0,0 1.1314878195380234,0.5534673921137497 l -23.41585055798833 46.84738677241684" fill="#3fffbc" stroke="none" /><path d="M 109.71004243097381 81.37971332152246 l 8.029091569091703 -15.396841759139555 a38.36459177697083,38.36459177697083 0 0,0 0.5813353419626243,0.3095283257517421 l -8.292215726840887 15.25674296566524" fill="#ffae10" stroke="none" /><path d="M 110.02825361518725 81.54914285379988 l 8.619458422415313 -15.858832667409231 a39.04986529225724,39.04986529225724 0 0,0 0.5862236659574037,0.325168385542162 l -8.890426276528817 15.708531366433924" fill="#ffb811" stroke="none" /><path d="M 110.34350942703115 81.72400993836675 l 13.91470389417251 -24.58594849982733 a49.250448635351994,49.250448635351994 0 0,0 0.7322076678672146,0.42274029414584446 l -14.334704029900122 24.343461308405313" fill="#c0ff1e" stroke="none" /><line stroke="#e1ed5e" stroke-width="0.3" x1="143.13028292997686" x2="145.6673583964461" y1="26.7553504044142" y2="22.446841604673864" /><path d="M 143.63769802327073 25.89364864446614 a86.0,86.0 0 0,1 29.32050498858742,28.57503671076993" fill="none" id="id110" stroke="none" /><text fill="#e1ed5e" style="font-size:6.75px; font-family:Arial;" text-anchor="middle"><textPath startOffset="20.669276256404974" xlink:href="#id110">February</textPath></text><path d="M 110.96478420261332 82.08984904055464 l 9.41787239593328 -15.383386778169024 a39.037319901604775,39.037319901604775 0 0,0 0.5685244162772376,0.3548012836410228 l -9.68056094100023 15.219449697686457" fill="#ffb711" stroke="none" /><path d="M 111.27062007382361 82.28071324371311 l 24.130111092809063 -37.936542542817584 a65.96046620592713,65.96046620592713 0 0,0 0.9501899395390039,0.6159016389400158 l -24.777786664605074 37.51672706217368" fill="#35ff63" stroke="none" /><path d="M 111.8722381534696 82.67804972795209 l 10.402984363011521 -15.178265082588078 a39.40113623052595,39.40113623052595 0 0,0 0.5546271087178503,0.3871727963970228 l -10.662006562903132 14.99744747038593" fill="#ffbd11" stroke="none" /><path d="M 112.16784306229584 82.88440491214696 l 9.845305839616785 -13.848655624850046 a37.99162469251493,37.99162469251493 0 0,0 0.5282988503314107,0.3824476263943478 l -10.081585700322163 13.677607227082623" fill="#ffa90f" stroke="none" /><path d="M 112.45986205192187 83.09580414077388 l 13.691428269170638 -18.575051962064602 a44.07569638046152,44.07569638046152 0 0,0 0.605195014903935,0.45414962175334295 l -14.00827627298534 18.337283313047244" fill="#fffc17" stroke="none" /><path d="M 113.03279911837588 83.53348406188908 l 16.582996495178676 -20.952074347903086 a47.72050134707743,47.72050134707743 0 0,0 0.6379759043548947,0.5139082286035962 l -16.94022316988883 20.66431782550608" fill="#d3ff1c" stroke="none" /><path d="M 113.59037401385872 83.9905735841838 l 20.076088289349162 -23.649581524247353 a52.02179922689469,52.02179922689469 0 0,0 0.6758387775596879,0.5837734394076204 l -20.47910654667171 23.301463952375013" fill="#9eff22" stroke="none" /><path d="M 114.39649973595853 84.71141617570332 l 19.744537158078092 -20.968014236074243 a49.80111748857913,49.80111748857913 0 0,0 0.6173619579491113,0.5914187904227746 l -20.101571601892516 20.625983315345888" fill="#b9ff1f" stroke="none" /><path d="M 114.65682725009322 84.96080404539774 l 4.132308481697243 -4.240112538729317 a26.920686423802273,26.920686423802273 0 0,0 0.32818634476861935,0.32538135012985525 l -4.204486746595824 4.1685511783708025" fill="#ff0300" stroke="none" /><path d="M 115.16444852881244 85.47280134310134 l 12.059653367216953 -11.552875125398133 a37.7004240365468,37.7004240365468 0 0,0 0.4436876126810392,0.47118086914788326 l -12.256196813634253 11.344152796305755" fill="#ffa50f" stroke="none" /><path d="M 115.41159269507618 85.73525988315684 l 14.276077665768122 -13.213724357970682 a40.45273515286401,40.45273515286401 0 0,0 0.46732983596759103,0.5136773538660054 l -14.50080520257759 12.966709428547004" fill="#ffcb12" stroke="none" /><path d="M 115.6541949942343 86.00192230759917 l 11.482151239427957 -10.267410440754556 a36.40323064308305,36.40323064308305 0 0,0 0.41255076805797053,0.46940704315002013 l -11.656713071444516 10.068791119793238" fill="#ff920d" stroke="none" /><path d="M 115.8921839302757 86.27271002978787 l 11.460578539537078 -9.8993747825247 a36.144057631486476,36.144057631486476 0 0,0 0.4015526258256212,0.4730279835328692 l -11.628825728869812 9.701180016542278" fill="#ff8f0d" stroke="none" /><path d="M 116.1254893667686 86.54754324733833 l 20.929324971496946 -17.45998726845987 a48.255968138690406,48.255968138690406 0 0,0 0.5251930956579589,0.6406501814998571 l -21.225964886393534 17.09813480526152" fill="#ccff1d" stroke="none" /><path d="M 116.57777611688842 87.10902102172516 l 12.198268271460462 -9.485447188453689 a36.452231463043226,36.452231463043226 0 0,0 0.37988089412905407,0.49727628475545776 l -12.359301142943822 9.27464999045735" fill="#ff930d" stroke="none" /><path d="M 116.7966241395341 87.39550010848427 l 41.85422822221708 -31.40819314071064 a73.32830033969779,73.32830033969779 0 0,0 0.7468940642862867,1.013305243362729 l -42.38722430608719 30.685081588079036" fill="#3fffbb" stroke="none" /><path d="M 117.21940702142032 87.97951657250589 l 13.991953211536917 -9.767470011500988 a38.06394517980556,38.06394517980556 0 0,0 0.3694201278544387,0.5389950067939058 l -14.15756307620668 9.525840269637033" fill="#ffaa0f" stroke="none" /><path d="M 117.42321728460499 88.27688183743584 l 12.571778862766578 -8.458853879533672 a36.152618015696376,36.152618015696376 0 0,0 0.3420305556549146,0.5178778547544439 l -12.715133857342217 8.24179614644017" fill="#ff8f0d" stroke="none" /><path d="M 117.62189284568427 88.57770195909679 l 21.41267430701557 -13.879436785215871 a46.517472179922684,46.517472179922684 0 0,0 0.42858609033808986,0.6738085202689423 l -21.64777808897955 13.509814590268256" fill="#e3ff1b" stroke="none" /><path d="M 117.81537515405839 88.88188828441811 l 12.575772526752925 -7.848212156808471 a35.823781187770884,35.823781187770884 0 0,0 0.32110396447039896,0.5244991940626171 l -12.708644455678726 7.6311758466213" fill="#ff8a0c" stroke="none" /><line stroke="#e1ed5e" stroke-width="0.3" x1="172.87174338648825" x2="177.1583165268699" y1="56.24261187166439" y2="53.66864786411523" /><path d="M 173.72905801456457 55.72781907015455 a86.0,86.0 0 0,1 12.242430191666344,42.057860355516425" fill="none" id="id111" stroke="none" /><text fill="#e1ed5e" style="font-size:6.75px; font-family:Arial;" text-anchor="middle"><textPath startOffset="22.145653131862474" xlink:href="#id111">March</textPath></text><path d="M 118.18653347947321 89.5 l 40.91682439813682 -23.623339580648942 a68.24667916129788,68.24667916129788 0 0,0 0.5770634841494022,1.0196158833368956 l -41.31632124730759 22.91746692721293" fill="#38ff7f" stroke="none" /><path d="M 118.70294669586156 90.45014215332178 l 13.227410941392685 -6.754010275709519 a35.8519714185311,35.8519714185311 0 0,0 0.275172564989008,0.5505294607716188 l -13.34140341959343 6.52594895877415" fill="#ff8a0c" stroke="none" /><path d="M 118.8641267826498 90.77261029715802 l 24.257760033647813 -11.865686004314032 a48.0043223614853,48.0043223614853 0 0,0 0.35573658414409204,0.7433526418472194 l -24.457875875751817 11.44752086040171" fill="#d0ff1d" stroke="none" /><path d="M 119.31412917781788 91.75594674310238 l 16.361241582305645 -6.98364113192364 a38.7893639451798,38.7893639451798 0 0,0 0.2561467755268951,0.6146590143050694 l -16.478714202369023 6.701749608177293" fill="#ffb410" stroke="none" /><path d="M 119.4528033332814 92.08871423366111 l 27.353599169471305 -11.124470651350268 a50.52919292491508,50.52919292491508 0 0,0 0.31987704096812103,0.8062991023885027 l -27.540534885405553 10.6532705317482" fill="#b0ff20" stroke="none" /><path d="M 119.71291397450082 92.76114493625339 l 15.285878871781726 -5.613186453202508 a37.28391706688532,37.28391706688532 0 0,0 0.21546523025394884,0.6026945968285955 l -15.379984272079618 5.349956899992995" fill="#ff9f0e" stroke="none" /><path d="M 119.83427380445688 93.10060997987247 l 17.057382538606713 -5.933443090309463 a39.0599016047792,39.0599016047792 0 0,0 0.2148565746333797,0.6351852853921954 l -17.156724534812458 5.639756130443105" fill="#ffb811" stroke="none" /><path d="M 120.05942366710727 93.78553927170692 l 14.877574281896418 -4.60911054282754 a36.57517629143727,36.57517629143727 0 0,0 0.18065294673637886,0.6013349054987328 l -14.954503548636424 4.353038033738083" fill="#ff950d" stroke="none" /><path d="M 120.16314734710363 94.1308016681162 l 30.814825332081465 -8.969746554092549 a53.093765959939084,53.093765959939084 0 0,0 0.2472184998572414,0.8772912418212758 l -30.964262324013287 8.43944738836826" fill="#92ff23" stroke="none" /><path d="M 120.43855184770803 95.1765574152323 l 12.708005385811317 -2.9990546689467825 a34.057094998242945,34.057094998242945 0 0,0 0.12939934608373874,0.5701573946266256 l -12.757615593452723 2.7804629403811307" fill="#ff700a" stroke="none" /><path d="M 120.51834098615036 95.52812308129327 l 19.13115981201817 -4.1695472382099785 a40.580255359025415,40.580255359025415 0 0,0 0.14249909169077574,0.6819097389922558 l -19.19991661453331 3.8405210479323184" fill="#ffcd13" stroke="none" /><path d="M 120.65975698304385 96.23510406497455 l 14.577507103052731 -2.6565073964873847 a35.81758228886025,35.81758228886025 0 0,0 0.10503963534506544,0.6058407034734832 l -14.62096155589003 2.405873660093309" fill="#ff8a0c" stroke="none" /><path d="M 120.77682067341334 96.94652285012252 l 62.330462020240034 -9.160431449632455 a84.0,84.0 0 0,0 0.19742193377914985,1.4284467671996575 l -62.478528470574396 8.089096374232712" fill="#4dd2ff" stroke="none" /><path d="M 120.9064616781168 98.02013634271609 l 15.610419271522517 -1.4783229351049065 a36.680262387255475,36.680262387255475 0 0,0 0.05398352518506593,0.6273703917257296 l -15.633496419405324 1.210131496003515" fill="#ff960d" stroke="none" /><path d="M 120.96210409425399 98.7389718711861 l 14.942589254490182 -0.8989090638276979 a35.96960290500176,35.96960290500176 0 0,0 0.03178755513309899,0.6166700774685201 l -14.955818399079854 0.6422671929824472" fill="#ff8c0c" stroke="none" /><path d="M 120.98066250479742 99.09900007780936 l 12.372373110917382 -0.5313229364278259 a33.38377650228418,33.38377650228418 0 0,0 0.019673080163953957,0.5727602637602155 l -12.379670878078183 0.3188564081034905" fill="#ff6609" stroke="none" /><path d="M 120.99303781780057 99.45929381324524 l 30.00246176477785 -0.7727569890019945 a51.01241185428136,51.01241185428136 0 0,0 0.015033038098916197,0.8755991036538988 l -30.01130623447543 0.25761096937902933" fill="#abff21" stroke="none" /><line stroke="#e1ed5e" stroke-width="0.3" x1="184.99686870605535" x2="189.99668451229388" y1="99.2704041080226" y2="99.22748670261217" /><path d="M 185.99683186730306 99.26182062694052 a86.0,86.0 0 0,1 -10.086455211305974,41.156179273409016" fill="none" id="id112" stroke="none" /><text fill="#e1ed5e" style="font-size:6.75px; font-family:Arial;" text-anchor="middle"><textPath startOffset="21.40746469413373" xlink:href="#id112">April</textPath></text><path d="M 120.99922638620191 100.18025310272382 l 14.825891671260953 0.12726244887516855 a35.826437858732575,35.826437858732575 0 0,0 -0.010557826726896381,0.6149404769534565 l -14.821522412935387 -0.38174984179769617" fill="#ff8a0c" stroke="none" /><path d="M 120.98066250479742 100.90099992219065 l 32.528259893961256 1.3969034403348606 a53.5582405997423,53.5582405997423 0 0,0 -0.047331229382555955,0.9182132053820378 l -32.499487075122126 -1.9550884390936292" fill="#8cff24" stroke="none" /><path d="M 120.96210409425399 101.26102812881392 l 5.6971153706791755 0.34272431351458843 a26.707414782710554,26.707414782710554 0 0,0 -0.03145884044027697,0.457404635735207 l -5.690392569073833 -0.4404723734041389" fill="#ff0000" stroke="none" /><path d="M 120.9064616781168 101.97986365728391 l 29.886664908016566 2.830298239837515 a51.02038186716645,51.02038186716645 0 0,0 -0.09005730907084035,0.8712227718554199 l -29.83367520646406 -3.3429255339758663" fill="#aaff21" stroke="none" /><path d="M 120.82617615685814 102.69636545807757 l 15.12145788395589 1.9577754652116854 a36.24766779899262,36.24766779899262 0 0,0 -0.08519148418882955,0.6164031414999788 l -15.08562188321185 -2.2170669149117495" fill="#ff900d" stroke="none" /><path d="M 120.77682067341334 103.0534771498775 l 22.552573213667447 3.3144516218977063 a43.79482722267775,43.79482722267775 0 0,0 -0.11569865077983539,0.7428683346184782 l -22.492353070749342 -3.7011081384476348" fill="#fff817" stroke="none" /><path d="M 120.65975698304385 103.76489593502545 l 15.024001792448498 2.737873602415954 a36.271430244816685,36.271430244816685 0 0,0 -0.11688676994741778,0.6116009720125068 l -14.97478873021892 -2.9953771394617754" fill="#ff900d" stroke="none" /><path d="M 120.592083275326 104.11899336999214 l 36.922471255952935 7.385528325306735 a58.653883097106714,58.653883097106714 0 0,0 -0.20596531469622684,0.9856185911046561 l -36.79024823043235 -8.0182633676968" fill="#52ff2b" stroke="none" /><path d="M 120.43855184770803 104.8234425847677 l 14.819183058336307 3.497286851223913 a36.22626683846784,36.22626683846784 0 0,0 -0.1480316934518863,0.6040198252229653 l -14.756963838368126 -3.751162501054978" fill="#ff900d" stroke="none" /><path d="M 120.35273937422433 105.17358676015961 l 14.68672936466956 3.733309172490576 a36.15379875834602,36.15379875834602 0 0,0 -0.1580618588040498,0.6001866232448458 l -14.62047802506078 -3.984876300108225" fill="#ff8f0d" stroke="none" /><path d="M 120.26092885502905 105.52220625578681 l 20.933286960292 5.7054604472199095 a42.69688415134122,42.69688415134122 0 0,0 -0.1988078912397678,0.7054990702165059 l -20.832260576977653 -6.063967441339424" fill="#ffe915" stroke="none" /><path d="M 120.05942366710727 106.21446072829308 l 21.336957771336653 6.6102440594366785 a43.33743703877241,43.33743703877241 0 0,0 -0.22625296320148267,0.7087341847411636 l -21.220340092357915 -6.975547277869225" fill="#fff216" stroke="none" /><path d="M 119.94978838288452 106.5578916946017 l 27.39105711283874 9.00398452851526 a49.83299754011948,49.83299754011948 0 0,0 -0.27411608107772734,0.8103754864706706 l -27.232455610188648 -9.472861689460093" fill="#b9ff1f" stroke="none" /><path d="M 119.83427380445688 106.89939002012753 l 8.218456926898632 2.858805936698878 a29.70148295654211,29.70148295654211 0 0,0 -0.17164604385946042,0.4801245336854231 l -8.168170712995227 -2.9994654267652225" fill="#ff2f04" stroke="none" /><path d="M 119.58574465831526 107.57618678355244 l 15.513506545569621 6.000957599904142 a37.63371207684198,37.63371207684198 0 0,0 -0.2382416928304161,0.6005246969251121 l -15.40820617777308 -6.266383314042818" fill="#ffa40f" stroke="none" /><path d="M 119.4528033332814 107.91128576633889 l 20.287425894475525 8.250719496044237 a42.901005036898205,42.901005036898205 0 0,0 -0.28329812581084945,0.6798123708845579 l -20.14280192412819 -8.597764376370074" fill="#ffec16" stroke="none" /><path d="M 119.16976305983485 108.57439118712176 l 13.547051720743076 6.0594239231469595 a35.840459177697085,35.840459177697085 0 0,0 -0.2560297934944164,0.5594713048063703 l -13.441037462393604 -6.2910842101680196" fill="#ff8a0c" stroke="none" /><path d="M 119.0197475246899 108.90220220490707 l 33.958169584874774 15.894138014222104 a58.493744875248915,58.493744875248915 0 0,0 -0.43346857058046817,0.9057825971821127 l -33.68032175633439 -16.47473311346932" fill="#54ff2b" stroke="none" /><path d="M 118.8641267826498 109.22738970284198 l 11.698719590353429 5.722429981956445 a34.023296239896915,34.023296239896915 0 0,0 -0.2611370400366441,0.5224490088414555 l -11.598762637105052 -5.922410846961646" fill="#ff700a" stroke="none" /><path d="M 118.5362547648365 109.86951160357373 l 16.137419780159046 8.592267089150825 a39.28232400140564,39.28232400140564 0 0,0 -0.32203022641709367,0.5924993455871341 l -15.987544204126612 -8.868021268212562" fill="#ffbb11" stroke="none" /><line stroke="#e1ed5e" stroke-width="0.3" x1="174.33088141563837" x2="178.70328620479359" y1="141.23008692659167" y2="143.65538615756765" /><path d="M 175.20536237346943 141.71514677278685 a86.0,86.0 0 0,1 -30.301960400862466,31.631185727798858" fill="none" id="id113" stroke="none" /><text fill="#e1ed5e" style="font-size:6.75px; font-family:Arial;" text-anchor="middle"><textPath startOffset="22.145653131862474" xlink:href="#id113">May</textPath></text><path d="M 118.18653347947321 110.5 l 13.621558062836925 7.864410214361012 a36.72882042872203,36.72882042872203 0 0,0 -0.31993651677791435,0.5433221502923101 l -13.484547835929245 -8.097083532946872" fill="#ff970d" stroke="none" /><path d="M 117.62189284568427 111.42229804090321 l 26.171514255727573 16.964059345297855 a52.188579126156725,52.188579126156725 0 0,0 -0.49374263046758277,0.7475892724781907 l -25.876447186339263 -17.410828496115105" fill="#9cff22" stroke="none" /><path d="M 117.21940702142032 112.02048342749411 l 12.419757007142362 8.669954957923082 a36.14656670961696,36.14656670961696 0 0,0 -0.35954628693421636,0.505746879788075 l -12.269095621678185 -8.88187906442066" fill="#ff8f0d" stroke="none" /><path d="M 117.01052211995028 112.31430620078461 l 18.891303639104674 13.675846978917509 a44.321881222912026,44.321881222912026 0 0,0 -0.4514457562774445,0.6124728710582517 l -18.6537558632434 -13.998126159244638" fill="#ffff18" stroke="none" /><path d="M 116.57777611688842 112.89097897827486 l 17.7038298611383 13.766605180678747 a43.426435515989226,43.426435515989226 0 0,0 -0.4626643534526822,0.5845612965354876 l -17.464899077044056 -14.068486421128917" fill="#fff316" stroke="none" /><path d="M 116.1254893667686 113.45245675266167 l 34.57186297682508 28.841077686182604 a66.02245519503339,66.02245519503339 0 0,0 -0.7334951298861543,0.8640554186586195 l -34.071673283431814 -29.430299887290783" fill="#35ff64" stroke="none" /><path d="M 115.6541949942343 113.99807769240083 l 13.473206412045915 12.047824253564993 a39.07421810940612,39.07421810940612 0 0,0 -0.4514045310070371,0.4961726540115506 l -13.264404180197 -12.277334483134215" fill="#ffb811" stroke="none" /><path d="M 115.41159269507618 114.26474011684316 l 17.087966711316984 15.81636687946475 a44.28424505095467,44.28424505095467 0 0,0 -0.5211710867493975,0.5534656335016043 l -16.813939790831327 -16.10737397291085" fill="#ffff18" stroke="none" /><path d="M 114.65682725009322 115.03919595460226 l 12.415982582549383 12.739891918061684 a38.7893639451798,38.7893639451798 0 0,0 -0.4808542233673499,0.4606474686233299 l -12.195455873316721 -12.951151516990594" fill="#ffb410" stroke="none" /><path d="M 114.39649973595853 115.28858382429668 l 15.182345920444492 16.12312523956226 a43.14630432236149,43.14630432236149 0 0,0 -0.5435822667392544,0.5031316308818159 l -14.90333388239127 -16.381374616576455" fill="#ffef16" stroke="none" /><path d="M 114.13192950727249 115.5334660781643 l 10.269544219285091 11.288028056351479 a36.26050837530749,36.26050837530749 0 0,0 -0.46402222598137804,0.41493153577558456 l -10.074256966480334 -11.46265512201045" fill="#ff900d" stroke="none" /><path d="M 113.86319453409587 115.77377054828091 l 10.099979468696578 11.49192260771793 a36.2994728827457,36.2994728827457 0 0,0 -0.47158290839070466,0.40734208444080444 l -9.901217080543018 -11.663608824623452" fill="#ff910d" stroke="none" /><path d="M 113.59037401385872 116.0094264158162 l 13.622053578445328 16.04674486324208 a42.048951622349776,42.048951622349776 0 0,0 -0.554296620507202,0.4624139550695657 l -13.344582623776232 -16.278221002223514" fill="#ffe115" stroke="none" /><path d="M 113.03279911837588 116.46651593811092 l 9.516523352960018 12.023816376174539 a36.33415719807895,36.33415719807895 0 0,0 -0.4923971337444533,0.3828909894371266 l -9.308716274580334 -12.185408417232459" fill="#ff910d" stroke="none" /><path d="M 112.45986205192187 116.90419585922612 l 22.779611075382444 30.90491737473658 a59.39302799578306,59.39302799578306 0 0,0 -0.8258996202932957,0.597887633529799 l -22.245730444715182 -31.291405779639458" fill="#4aff2c" stroke="none" /><path d="M 111.8722381534696 117.32195027204791 l 10.022243896611505 14.622753363543765 a38.72767014173597,38.72767014173597 0 0,0 -0.5515995187022896,0.3711407732872696 l -9.76974808981221 -14.792643810888157" fill="#ffb310" stroke="none" /><path d="M 111.5731344415666 117.5232005979908 l 13.337098660304619 20.19406725116001 a45.20079653273984,45.20079653273984 0 0,0 -0.6511376373610163,0.42205954971566056 l -12.988475390686592 -20.420040642579565" fill="#f3ff19" stroke="none" /><path d="M 111.27062007382361 117.71928675628689 l 8.393357641014525 13.195752311323604 a36.638936394517984,36.638936394517984 0 0,0 -0.5335952872588395,0.33300292378632823 l -8.16559822496597 -13.33789103195148" fill="#ff960d" stroke="none" /><line stroke="#e1ed5e" stroke-width="0.3" x1="143.1302829299769" x2="145.66735839644613" y1="173.24464959558577" y2="177.55315839532614" /><path d="M 143.63769802327073 174.10635135553383 a86.0,86.0 0 0,1 -40.68552437913181,11.842963189579606" fill="none" id="id114" stroke="none" /><text fill="#e1ed5e" style="font-size:6.75px; font-family:Arial;" text-anchor="middle"><textPath startOffset="21.407464694133747" xlink:href="#id114">June</textPath></text><path d="M 110.65571695917076 118.09573695890943 l 19.8421756839525 33.69635222529555 a60.104425442192806,60.104425442192806 0 0,0 -0.8935740160940805,0.5159051987327743 l -19.26080919999802 -34.03200432130449" fill="#43ff2d" stroke="none" /><path d="M 110.02825361518725 118.45085714620011 l 7.954471381117726 14.63533141047308 a37.65732692983484,37.65732692983484 0 0,0 -0.5706182188883641,0.3038220613590592 l -7.702064346442808 -14.769723939554709" fill="#ffa40f" stroke="none" /><path d="M 109.71004243097381 118.62028667847754 l 8.209802772258284 15.743379318876764 a38.75541759400258,38.75541759400258 0 0,0 -0.5925385524074629,0.3025544068635897 l -7.938336998137238 -15.88199167741319" fill="#ffb410" stroke="none" /><path d="M 109.3889696526874 118.78422872680471 l 10.007187717718274 20.021078984730384 a43.382748037952446,43.382748037952446 0 0,0 -0.6690027767112842,0.3272427822461468 l -9.662024691744922 -20.189915517073754" fill="#fff316" stroke="none" /><path d="M 109.06512990194946 118.94263497670748 l 5.836002570119977 12.195000800279296 a34.51950333840928,34.51950333840928 0 0,0 -0.5367146395971832,0.2512095516423454 l -5.625799216651288 -12.293386583492175" fill="#ff770a" stroke="none" /><path d="M 108.73861861582097 119.09545874513695 l 3.778068109304628 8.255760651566824 a30.07917301159658,30.07917301159658 0 0,0 -0.4713644138715801,0.21083530681146093 l -3.635790292577421 -8.319399709288135" fill="#ff3405" stroke="none" /><path d="M 108.4095320186766 119.2426549942271 l 17.977524602493638 41.13609447086147 a65.89286868923509,65.89286868923509 0 0,0 -1.0403697168452801,0.44407196791385195 l -17.268719810477926 -41.43864108843473" fill="#35ff62" stroke="none" /><path d="M 107.74402155503746 119.51999308798841 l 8.586475309119038 21.643526879797772 a44.284540236617076,44.284540236617076 0 0,0 -0.7090328938224773,0.2742691550918981 l -8.213670152803031 -21.78773592302771" fill="#ffff18" stroke="none" /><path d="M 107.407793817531 119.65005319985036 l 6.260657419876552 16.607137617069274 a38.74803795244231,38.74803795244231 0 0,0 -0.6244169712011469,0.22929456090132516 l -5.974651297021278 -16.71216302697932" fill="#ffb310" stroke="none" /><path d="M 107.06938296918513 119.77432235084164 l 6.829982873555345 19.10467767570655 a41.28884854164227,41.28884854164227 0 0,0 -0.6694578384445957,0.23287218755762754 l -6.501019263065728 -19.21910829583277" fill="#ffd614" stroke="none" /><path d="M 106.38641147887787 120.00534299687104 l 2.724215569081891 8.53356646954968 a29.95785170434579,29.95785170434579 0 0,0 -0.49125080254448794,0.15219075437153065 l -2.577324133665779 -8.579073811727854" fill="#ff3304" stroke="none" /><path d="M 106.0420521117495 120.11202640906438 l 2.69864644513305 8.982916328659071 a30.379524423099447,30.379524423099447 0 0,0 -0.5007413432221103,0.14575850712942476 l -2.544045089529333 -9.027918530091014" fill="#ff3905" stroke="none" /><path d="M 105.69591212413111 120.21278271476187 l 10.416173281984028 36.96332434204614 a59.40291671547382,59.40291671547382 0 0,0 -0.9838780605890042,0.2681603405249334 l -9.780113820460329 -37.13668517671522" fill="#4aff2c" stroke="none" /><path d="M 105.3480935250658 120.30758222061773 l 4.252100831836025 16.145919447398715 a37.69643903010425,37.69643903010425 0 0,0 -0.6271874410176173,0.1594285949092661 l -3.9743080975930107 -16.21653327414325" fill="#ffa50f" stroke="none" /><path d="M 104.9986988182912 120.39639698878246 l 3.9136702564752603 15.96911018966881 a37.44169380344383,37.44169380344383 0 0,0 -0.6255755459592977,0.14763412549249452 l -3.6389625567760833 -16.03394045880753" fill="#ffa10e" stroke="none" /><path d="M 104.64783097203109 120.47920084513623 l 5.137385805116516 22.6362697686394 a44.211924563664056,44.211924563664056 0 0,0 -0.7415762602343854,0.16162309437402436 l -4.748047128262995 -22.721124321147144" fill="#fffe18" stroke="none" /><path d="M 103.94208987418118 120.62667999033965 l 1.675653711541367 8.767728282645487 a29.92641443129905,29.92641443129905 0 0,0 -0.505421892768484,0.09210470535150714 l -1.5248970852218258 -8.79520116192836" fill="#ff3204" stroke="none" /><path d="M 103.58742460773223 120.69131181640829 l 6.408400171241087 36.961949221643636 a58.513374721799224,58.513374721799224 0 0,0 -0.9911677981347459,0.16309628399948475 l -5.772954870053269 -37.06651150413879" fill="#54ff2b" stroke="none" /><path d="M 103.2317021107853 120.74984581791261 l 2.5751710571625837 16.534445490054797 a37.7337800163992,37.7337800163992 0 0,0 -0.6408900953510482,0.09418877375408216 l -2.29095585620385 -16.57621533710776" fill="#ffa50f" stroke="none" /><path d="M 102.875027216393 120.80226474461374 l 2.480976396976673 17.9511093115134 a39.12174300105424,39.12174300105424 0 0,0 -0.6660424175793441,0.08623252558938958 l -2.1724561575065535 -17.991053433303183" fill="#ffb911" stroke="none" /><path d="M 102.15924093988457 120.88869738790638 l 2.341996138844738 22.65668815569431 a43.77741126859553,43.77741126859553 0 0,0 -0.7481777151510803,0.07085320750224529 l -1.9527188603086423 -22.69355311870174" fill="#fff817" stroke="none" /><path d="M 101.44090949804482 120.95050786540614 l 0.6676253390554376 9.707125906245047 a30.730057397212136,30.730057397212136 0 0,0 -0.5265897482704908,0.031678331618254466 l -0.5008912386524818 -9.717156215687993" fill="#ff3e05" stroke="none" /><path d="M 101.08105385017728 120.97215588758144 l 1.926993367152366 37.38315652233933 a58.432789035961115,58.432789035961115 0 0,0 -1.0021897784285467,0.04303834124293265 l -1.2849778281229898 -37.410727432008095" fill="#55ff2b" stroke="none" /><path d="M 100.72087961077811 120.9876233191556 l 0.5404139824577938 15.733563455882024 a36.74284174768654,36.74284174768654 0 0,0 -0.630553855670089,0.016240830593551872 l -0.2702468127169608 -15.740522003825621" fill="#ff970d" stroke="none" /><line stroke="#e1ed5e" stroke-width="0.3" x1="101.45913802915013" x2="101.54496967792366" y1="184.9874750549273" y2="189.98673829345242" /><path d="M 101.47630435890484 185.9873277026323 a86.0,86.0 0 0,1 -42.54439059252881,-10.42667462771756" fill="none" id="id115" stroke="none" /><text fill="#e1ed5e" style="font-size:6.75px; font-family:Arial;" text-anchor="middle"><textPath startOffset="22.145653131862474" xlink:href="#id115">July</textPath></text><path d="M 100.36049292484886 120.99690560180557 l 0.33532302760328736 19.530885272297276 a40.53376361719573,40.53376361719573 0 0,0 -0.6958159524521372,0.005972743092890569 l -2.3921961089099776e-15 -19.53376361719573" fill="#ffcc13" stroke="none" /><path d="M 99.63950707515114 120.99690560180557 l -0.3654909267915824 21.28801415832773 a42.29115145835774,42.29115145835774 0 0,0 -0.725769900867132,-0.01869325816325858 l 0.7308741417294583 -21.278603182814425" fill="#ffe415" stroke="none" /><path d="M 99.27912038922189 120.98762331915562 l -0.5175386999745065 15.067574565503758 a36.07646011479442,36.07646011479442 0 0,0 -0.6187529324790599,-0.026571913250662226 l 0.7761173930544052 -15.056470083827268" fill="#ff8e0d" stroke="none" /><path d="M 98.55909050195518 120.95050786540614 l -2.5682384715227546 37.341623725074804 a58.42983717933701,58.42983717933701 0 0,0 -1.0000711958327801,-0.07741183544974245 l 3.208878662130771 -37.29203412263001" fill="#55ff2b" stroke="none" /><path d="M 98.19965949673042 120.92268563240118 l -0.7676068171314233 8.92075476553556 a29.95371910507204,29.95371910507204 0 0,0 -0.5119239459549031,-0.04847972992724946 l 0.9206303264713417 -8.906263280103127" fill="#ff3304" stroke="none" /><path d="M 97.84075906011543 120.88869738790638 l -1.487137045125841 14.386701889618497 a35.46335949396744,35.46335949396744 0 0,0 -0.6050118340625228,-0.06779283794062942 l 1.733884780789163 -14.359053291170897" fill="#ff850c" stroke="none" /><path d="M 97.12497278360702 120.80226474461374 l -2.073596120230505 15.00350856523608 a36.14612393112335,36.14612393112335 0 0,0 -0.6139245207535692,-0.09022576289881272 l 2.3308457465917587 -14.965701729038384" fill="#ff8f0d" stroke="none" /><path d="M 96.76829788921471 120.74984581791261 l -2.6707479751584815 17.148117865843318 a38.35485065011128,38.35485065011128 0 0,0 -0.6496992020611626,-0.10690775645962042 l 2.9647246802727074 -17.09974411088803" fill="#ffae10" stroke="none" /><path d="M 96.41257539226777 120.69131181640829 l -2.187249043369596 12.615471243341354 a33.80367810706337,33.80367810706337 0 0,0 -0.5709043096569488,-0.10403778304265773 l 2.403488086577602 -12.57606528636733" fill="#ff6c0a" stroke="none" /><path d="M 96.05791012581884 120.62667999033965 l -3.649977181852834 19.098222949003254 a40.443879582991684,40.443879582991684 0 0,0 -0.6808120748262042,-0.13618148221942478 l 3.9772857422099963 -19.032752070120967" fill="#ffcb12" stroke="none" /><path d="M 95.70440661134978 120.55596938700252 l -4.392313426270729 21.01880978006444 a42.472838233571515,42.472838233571515 0 0,0 -0.7124061856533132,-0.15526561238636788 l 4.752482028543178 -20.940312709544354" fill="#ffe615" stroke="none" /><path d="M 95.00130118170881 120.39639698878247 l -3.5251454100550847 14.383796231845603 a35.80946468314396,35.80946468314396 0 0,0 -0.5957922577487258,-0.15144806209222703 l 3.7715429610291893 -14.321162937918112" fill="#ff8a0c" stroke="none" /><path d="M 94.6519064749342 120.30758222061772 l -4.045180919533203 15.360210836941876 a36.88394049431885,36.88394049431885 0 0,0 -0.6109009767020024,-0.16650377775610523 l 4.3082632971698995 -15.288506565041626" fill="#ff990e" stroke="none" /><path d="M 94.30408787586889 120.21278271476187 l -4.676359199580949 16.594749065186186 a38.24105657725196,38.24105657725196 0 0,0 -0.6303218500078223,-0.18347750412820868 l 4.960541061970378 -16.51202786675546" fill="#ffac10" stroke="none" /><path d="M 93.95794788825049 120.11202640906438 l -4.549268193030747 15.14303424530679 a36.81162000702823,36.81162000702823 0 0,0 -0.6036393413614357,-0.18700901098641898 l 4.808548167263816 -15.062708646513723" fill="#ff980e" stroke="none" /><path d="M 93.61358852112213 120.00534299687104 l -5.313506319804822 16.64448286730416 a38.472039358088324,38.472039358088324 0 0,0 -0.6274189864983977,-0.20624508298660693 l 5.598448043950963 -16.550816862915532" fill="#ffb010" stroke="none" /><path d="M 93.27111125876986 119.89276391827306 l -6.737953075366728 19.91956101152128 a42.02828862598102,42.02828862598102 0 0,0 -0.6814471279986857,-0.2370426848248035 l 7.078905975410436 -19.80095989412789" fill="#ffe015" stroke="none" /><path d="M 92.59220618246901 119.65005319985036 l -5.806662137537059 15.402861192779511 a37.46102846433173,37.46102846433173 0 0,0 -0.5997827069156094,-0.23200883583500148 l 6.070217106946197 -15.30091246880647" fill="#ffa10e" stroke="none" /><path d="M 92.25597844496254 119.51999308798841 l -5.567313797808001 14.033267609021909 a36.097270703994376,36.097270703994376 0 0,0 -0.5740248816571388,-0.23345092210997395 l 5.807393140655581 -13.935629430332643" fill="#ff8e0d" stroke="none" /><path d="M 91.92203290615298 119.3841803445677 l -7.233721597715804 17.35829849063421 a39.80524540236617,39.80524540236617 0 0,0 -0.6284772952218133,-0.2682595857601559 l 7.530633968108048 -17.231564255214646" fill="#ffc212" stroke="none" /><path d="M 91.59046798132341 119.24265499422711 l -6.446132365596417 14.750012352983845 a37.09706454257936,37.09706454257936 0 0,0 -0.5813403206839198,-0.26002613109155714 l 6.698386089135972 -14.637182470982433" fill="#ff9c0e" stroke="none" /><path d="M 91.26138138417905 119.09545874513695 l -7.265326619364225 15.876049846006628 a38.45949396743587,38.45949396743587 0 0,0 -0.5979742304361505,-0.27988213333305473 l 7.536789563671865 -15.748991481103047" fill="#ffaf10" stroke="none" /><path d="M 90.93487009805054 118.94263497670748 l -9.151884161407034 19.123918012621388 a42.200972238491275,42.200972238491275 0 0,0 -0.650778682410064,-0.3183284645024134 l 9.478823093079168 -18.963995798021756" fill="#ffe315" stroke="none" /><path d="M 90.28995756902619 118.62028667847754 l -7.364254506686546 14.121929029925111 a36.926742415368395,36.926742415368395 0 0,0 -0.5595477349113797,-0.2979276521888041 l 7.605591057384487 -13.993430910013734" fill="#ff9a0e" stroke="none" /><path d="M 89.97174638481275 118.45085714620012 l -7.270806908347547 13.377465783310322 a36.225676467143025,36.225676467143025 0 0,0 -0.543826430678264,-0.3016513538224431 l 7.499377527181913 -13.250681514054731" fill="#ff900d" stroke="none" /><line stroke="#e1ed5e" stroke-width="0.3" x1="58.13341422392154" x2="55.67067388415222" y1="173.97424548756322" y2="178.32567169271397" /><path d="M 57.64086615596768 174.84453072859336 a86.0,86.0 0 0,1 -31.369924170532247,-30.572349798747897" fill="none" id="id116" stroke="none" /><text fill="#e1ed5e" style="font-size:6.75px; font-family:Arial;" text-anchor="middle"><textPath startOffset="22.145653131862474" xlink:href="#id116">August</textPath></text><path d="M 89.65649057296885 118.27599006163327 l -8.534431203335618 15.079522182890631 a38.32710319784468,38.32710319784468 0 0,0 -0.5698100144504223,-0.32897996522989836 l 8.792033685646441 -14.930795320384561" fill="#ffae10" stroke="none" /><path d="M 89.34428304082925 118.09573695890944 l -6.368716201531312 10.815472444551888 a33.55129436570223,33.55129436570223 0 0,0 -0.4937907649303767,-0.2965071665796404 l 6.553439723019116 -10.704551277436329" fill="#ff6909" stroke="none" /><path d="M 89.03521579738668 117.91015095944536 l -9.63557544411683 15.738988346357615 a39.454269649759866,39.454269649759866 0 0,0 -0.5745967110142814,-0.35859084466191077 l 9.904336283920824 -15.571261704854157" fill="#ffbd11" stroke="none" /><path d="M 88.72937992617639 117.7192867562869 l -8.465044963259881 13.308456688841046 a36.77250790675882,36.77250790675882 0 0,0 -0.5297243799874884,-0.3433609431594997 l 8.69225497550438 -13.161181903977651" fill="#ff980e" stroke="none" /><path d="M 88.1277618465304 117.32195027204791 l -8.173612506497046 11.925544918348354 a35.45775096638164,35.45775096638164 0 0,0 -0.4991183448381226,-0.3484233681811213 l 8.377125942508934 -11.783476734362104" fill="#ff850c" stroke="none" /><path d="M 87.54013794807813 116.9041958592261 l -8.421243768699076 11.425034518935075 a35.19326461286166,35.19326461286166 0 0,0 -0.48323203150434074,-0.3626263252707585 l 8.616128789114184 -11.278789166400301" fill="#ff810b" stroke="none" /><path d="M 86.96720088162412 116.46651593811092 l -3.8590031171876005 4.875724374880728 a27.218085978681035,27.218085978681035 0 0,0 -0.36387888909137855,-0.29311507541696974 l 3.942132776634241 -4.808761005670348" fill="#ff0801" stroke="none" /><path d="M 86.68645165197938 116.24036423190432 l -9.877321051543094 12.048725652944743 a36.579899262035845,36.579899262035845 0 0,0 -0.4822026175954268,-0.4022705737284928 l 10.082698003300413 -11.87739289530438" fill="#ff950d" stroke="none" /><path d="M 86.40962598614128 116.0094264158162 l -9.356487763445424 11.021919058784876 a35.45775096638164,35.45775096638164 0 0,0 -0.4606477173851001,-0.3978965268967855 l 9.544314960593386 -10.859678399423368" fill="#ff850c" stroke="none" /><path d="M 86.13680546590413 115.77377054828092 l -10.988574999803193 12.502981204885478 a37.645519503338406,37.645519503338406 0 0,0 -0.48174607971190064,-0.4307803150721206 l 11.201586106338464 -12.312505359929975" fill="#ffa40f" stroke="none" /><path d="M 85.60350026404147 115.28858382429668 l -9.815657299182407 10.423887900632693 a35.31798055523018,35.31798055523018 0 0,0 -0.4378210515333445,-0.41942266345608165 l 9.993150836581066 -10.253853106871027" fill="#ff830c" stroke="none" /><path d="M 85.34317274990678 115.03919595460226 l -11.26534352632208 11.559234880604219 a37.14075202061614,37.14075202061614 0 0,0 -0.4527777433203406,-0.44890787133203264 l 11.462113189772383 -11.364146999043527" fill="#ff9d0e" stroke="none" /><path d="M 85.08716467003676 114.78537596483092 l -12.337283682956357 12.23183744748915 a38.37315216118074,38.37315216118074 0 0,0 -0.4597710269143531,-0.47176557723089196 l 12.545441511021519 -12.018249178190521" fill="#ffae10" stroke="none" /><path d="M 84.83555147118756 114.52719865689866 l -17.05001279182455 16.333526567675037 a44.6111631720745,44.6111631720745 0 0,0 -0.5250185108675394,-0.5575514645867048 l 17.32788713642834 -16.038433643143843" fill="#fbff18" stroke="none" /><path d="M 84.58840730492382 114.26474011684316 l -12.160120327370699 11.255225834958857 a37.569509195267656,37.569509195267656 0 0,0 -0.43402139566733666,-0.47706554319611094 l 12.351539423879915 -11.044822716205072" fill="#ffa30f" stroke="none" /><path d="M 84.3458050057657 113.99807769240083 l -12.601287738066949 11.268149198775648 a37.90454492210378,37.90454492210378 0 0,0 -0.42956487224501017,-0.4887659704788444 l 12.792863674270553 -11.050170950485503" fill="#ffa80f" stroke="none" /><path d="M 83.8745106332314 113.45245675266167 l -12.064933610444077 10.064996722065825 a36.711994845964625,36.711994845964625 0 0,0 -0.3995544378162019,-0.48739144749293056 l 12.235934867498909 -9.856402992874399" fill="#ff970d" stroke="none" /><path d="M 83.64595745247003 113.17365903436017 l -16.629515350427337 13.395560424677734 a42.353730818788804,42.353730818788804 0 0,0 -0.45123577960638633,-0.5701216668227496 l 16.857017560675285 -13.108118813940305" fill="#ffe515" stroke="none" /><path d="M 83.4222238831116 112.89097897827486 l -24.57538311435882 19.109966552601318 a52.13101792198665,52.13101792198665 0 0,0 -0.5432747709873611,-0.7111641145768837 l 24.899809862700476 -18.685281524783562" fill="#9dff22" stroke="none" /><path d="M 83.20337586046588 112.60449989151573 l -7.355847113214316 5.519964807826425 a30.196656905236033,30.196656905236033 0 0,0 -0.30757161558809376,-0.4172799673843721 l 7.449520748386241 -5.3928785311731735" fill="#ff3605" stroke="none" /><path d="M 82.98947788004972 112.3143062007846 l -12.24889101885561 8.867252490111655 a36.121623521143256,36.121623521143256 0 0,0 -0.3592981795310412,-0.5053978856541678 l 12.399304296916613 -8.655677377747983" fill="#ff8e0d" stroke="none" /><path d="M 82.78059297857968 112.02048342749411 l -13.977793642919085 9.757585532918222 a38.04667681855452,38.04667681855452 0 0,0 -0.36925253408056524,-0.5387504824692197 l 14.143235913814976 -9.516200315378951" fill="#ffaa0f" stroke="none" /><path d="M 82.37810715431573 111.42229804090323 l -11.987387044448411 7.770079454709958 a35.28536253953379,35.28536253953379 0 0,0 -0.3250996855222071,-0.5111107032634109 l 12.119004421596507 -7.563155076767875" fill="#ff820c" stroke="none" /><path d="M 82.18462484594161 111.11811171558189 l -16.481465373283623 10.285653356837612 a40.4276443715591,40.4276443715591 0 0,0 -0.36237037106340814,-0.5919047679414466 l 16.655603708802435 -10.001211472771608" fill="#ffcb12" stroke="none" /><line stroke="#e1ed5e" stroke-width="0.3" x1="26.387840678322732" x2="22.057713659400548" y1="142.50000000000003" y2="145.00000000000006" /><path d="M 25.521815274538298 143.00000000000003 a86.0,86.0 0 0,1 -11.493303480769221,-40.785679425670985" fill="none" id="id117" stroke="none" /><text fill="#e1ed5e" style="font-size:6.75px; font-family:Arial;" text-anchor="middle"><textPath startOffset="21.40746469413373" xlink:href="#id117">September</textPath></text><path d="M 81.81346652052679 110.50000000000001 l -26.964726036052483 15.56809183553943 a52.13618367107883,52.13618367107883 0 0,0 -0.4408403188143253,-0.7789226028414148 l 27.227999719888185 -15.102912462598894" fill="#9dff22" stroke="none" /><path d="M 81.4637452351635 109.86951160357371 l -10.442097421805833 5.559828723635312 a32.830008199601735,32.830008199601735 0 0,0 -0.2605951172552316,-0.4997254980910796 l 10.536000608036014 -5.37975698243973" fill="#ff5e08" stroke="none" /><path d="M 81.29705330413844 109.54985784667822 l -14.91231925167185 7.614336464385084 a37.74381632892117,37.74381632892117 0 0,0 -0.28969293293408444,-0.5795799234706404 l 15.04083209781767 -7.35722468475069" fill="#ffa50f" stroke="none" /><path d="M 81.1358732173502 109.22738970284198 l -8.534929096636395 4.174861511916027 a30.501288508843857,30.501288508843857 0 0,0 -0.22603015004405194,-0.47231608066577657 l 8.605338504640358 -4.027732929185146" fill="#ff3b05" stroke="none" /><path d="M 80.9802524753101 108.90220220490708 l -16.05371848877334 7.513950852512468 a38.72516106360548,38.72516106360548 0 0,0 -0.27663694097766295,-0.6045016410552674 l 16.18033989460606 -7.237260229242511" fill="#ffb310" stroke="none" /><path d="M 80.68587082218212 108.24405325689762 l -17.142584870679922 7.317150120186756 a39.63890828159775,39.63890828159775 0 0,0 -0.2617567680688704,-0.6281209541597379 l 17.265667483285277 -7.021796656585737" fill="#ffc011" stroke="none" /><path d="M 80.41425534168474 107.57618678355246 l -15.538972372640872 6.010808328883587 a37.66101675061497,37.66101675061497 0 0,0 -0.22806313081089422,-0.6049645500058125 l 15.639866187266202 -5.74317549868363" fill="#ffa40f" stroke="none" /><path d="M 80.28708602549918 107.23885506374661 l -14.708831056128947 5.4012865023497145 a36.66919292491507,36.66919292491507 0 0,0 -0.2119127151425492,-0.5927575797967953 l 14.799383941315439 -5.147993966171998" fill="#ff960d" stroke="none" /><path d="M 80.16572619554312 106.89939002012753 l -24.31425937388198 8.457761555820525 a46.74328921166686,46.74328921166686 0 0,0 -0.2571205403622195,-0.7601311902549628 l 24.45586533581657 -8.0391286910914" fill="#e0ff1b" stroke="none" /><path d="M 79.94057633289273 106.21446072829308 l -15.158410912644062 4.696114448912303 a36.86918121119831,36.86918121119831 0 0,0 -0.18210510255612014,-0.606168659934581 l 15.23679233520381 -4.4352081853869985" fill="#ff990e" stroke="none" /><path d="M 79.73907114497094 105.5222062557868 l -35.15447967780095 9.58150976121198 a57.43683261098747,57.43683261098747 0 0,0 -0.2511097820450679,-0.9535047435841054 l 35.31377894065075 -8.976624513255071" fill="#60ff29" stroke="none" /><path d="M 79.64726062577567 105.17358676015961 l -18.139232943465007 4.610922081310151 a39.716099332318144,39.716099332318144 0 0,0 -0.1622922248014668,-0.6622076595474925 l 18.215712694782766 -4.298858597154559" fill="#ffc111" stroke="none" /><path d="M 79.56144815229197 104.8234425847677 l -15.206024010374817 3.5885802625916954 a36.62373433290384,36.62373433290384 0 0,0 -0.13915124804587192,-0.6131260740184519 l 15.265386119978356 -3.327019854634217" fill="#ff950d" stroke="none" /><path d="M 79.48165901384964 104.47187691870673 l -19.9806869064266 4.35469771445293 a41.44972472765609,41.44972472765609 0 0,0 -0.14555226605320043,-0.6965202835780101 l 20.05249688330417 -4.011060979589511" fill="#ffd914" stroke="none" /><path d="M 79.34024301695615 103.76489593502545 l -14.510714401549627 2.6443355412915683 a35.749689586505795,35.749689586505795 0 0,0 -0.1048405313229014,-0.604692324383476 l 14.553969750364763 -2.3948501839875" fill="#ff890c" stroke="none" /><path d="M 79.2786578344484 103.40968896794605 l -12.527904536304876 2.061461924022181 a33.69637811877708,33.69637811877708 0 0,0 -0.08902022754164211,-0.5715737196197568 l 12.561446255984785 -1.8461000224709745" fill="#ff6b09" stroke="none" /><path d="M 79.17382384314188 102.69636545807758 l -16.63727758839835 2.1540286737194916 a37.77613915895513,37.77613915895513 0 0,0 -0.07774313921975014,-0.6438247174481726 l 16.67180281387776 -1.8681102793479196" fill="#ffa60f" stroke="none" /><path d="M 79.13060592940153 102.33845913500099 l -13.832910072377707 1.5500064262992332 a34.91947991097575,34.91947991097575 0 0,0 -0.06163721790878074,-0.5962841704908538 l 13.857479682768155 -1.3123177335254481" fill="#ff7d0b" stroke="none" /><path d="M 79.0935383218832 101.97986365728391 l -25.7519021228072 2.4387319051815295 a46.867119597048145,46.867119597048145 0 0,0 -0.06897585149221315,-0.8016039490184447 l 25.78997159699715 -1.9963069087874228" fill="#deff1b" stroke="none" /><path d="M 79.03789590574601 101.26102812881392 l -32.372786293669215 1.947466434707225 a53.4313107649057,53.4313107649057 0 0,0 -0.04721905719278896,-0.916037094867599 l 32.40144694031858 -1.3914575464628953" fill="#8eff24" stroke="none" /><path d="M 79.01933749520258 100.90099992219065 l -17.113408094079475 0.7349233780228196 a38.129181211198315,38.129181211198315 0 0,0 -0.022469550097260777,-0.6541764346521055 l 17.123502331173583 -0.44104067880659414" fill="#ffab0f" stroke="none" /><line stroke="#e1ed5e" stroke-width="0.3" x1="15.003131293944662" x2="10.003315487706104" y1="100.72959589197737" y2="100.7725132973878" /><path d="M 14.003168132696942 100.73817937305945 a86.0,86.0 0 0,1 10.791469493833604,-42.45332614584628" fill="none" id="id118" stroke="none" /><text fill="#e1ed5e" style="font-size:6.75px; font-family:Arial;" text-anchor="middle"><textPath startOffset="22.145653131862435" xlink:href="#id118">October</textPath></text><path d="M 79.00077361379809 100.18025310272382 l -28.061233996633906 0.24087194457201597 a49.06226777556519,49.06226777556519 0 0,0 0.0,-0.8422500945916567 l 28.061233996633906 0.24087194457200564" fill="#c2ff1e" stroke="none" /><path d="M 79.00077361379809 99.81974689727619 l -14.846406319036628 -0.12743854245331604 a35.84695326227012,35.84695326227012 0 0,0 0.010563872487760981,-0.6152926122142145 l 14.842031014950201 0.38227807063658287" fill="#ff8a0c" stroke="none" /><path d="M 79.00696218219943 99.45929381324524 l -17.5513796393963 -0.45206128048110217 a38.55720042169381,38.55720042169381 0 0,0 0.022721782083030006,-0.6615198937086302 l 17.541033170316418 0.7532874387538709" fill="#ffb110" stroke="none" /><path d="M 79.03789590574601 98.7389718711861 l -45.94008276343506 -2.7636412997591497 a67.0231345906056,67.0231345906056 0 0,0 0.07894699333677994,-1.1478719566333822 l 45.88587180893321 3.551856680546857" fill="#36ff70" stroke="none" /><path d="M 79.13060592940154 97.66154086499901 l -16.96383254512688 -1.9008328198501214 a38.06999648588497,38.06999648588497 0 0,0 0.07834789639150985,-0.6488329743714663 l 16.9287025624757 2.191759471145024" fill="#ffaa0f" stroke="none" /><path d="M 79.17382384314186 97.30363454192245 l -28.72973074429974 -3.719638834097196 a49.96952090898442,49.96952090898442 0 0,0 0.11744142199845593,-0.8497476262018835 l 28.661644805746075 4.212274768499147" fill="#b7ff1f" stroke="none" /><path d="M 79.2786578344484 96.59031103205396 l -24.769928824248662 -4.0758823619667295 a46.10303150989809,46.10303150989809 0 0,0 0.13520302903325454,-0.7798151426570118 l 24.696310977723176 4.500490537544334" fill="#e8ff1a" stroke="none" /><path d="M 79.34024301695615 96.23510406497455 l -16.028651143970198 -2.920954180893925 a37.292625043926435,37.292625043926435 0 0,0 0.12017762891684314,-0.6288201367251774 l 15.976147222771196 3.1956768826524167" fill="#ff9f0e" stroke="none" /><path d="M 79.407916724674 95.88100663000787 l -34.31783925848748 -6.864528978840184 a55.99765491390418,55.99765491390418 0 0,0 0.19663786961040186,-0.9409833897958836 l 34.19494367805271 7.452628819921477" fill="#70ff27" stroke="none" /><path d="M 79.56144815229197 95.17655741523228 l -16.48634833474137 -3.890733316999817 a37.93922923743704,37.93922923743704 0 0,0 0.15503138585379286,-0.6325809588736183 l 16.417129422371275 4.173170100481554" fill="#ffa80f" stroke="none" /><path d="M 79.64726062577567 94.8264132398404 l -25.815818005597762 -6.562279985051913 a47.636816211783994,47.636816211783994 0 0,0 0.20826480139113107,-0.7908153733827855 l 25.69936372340191 7.0044758628074835" fill="#d4ff1c" stroke="none" /><path d="M 79.73907114497095 94.47779374421319 l -31.787610272752506 -8.663854533062832 a53.94714770996837,53.94714770996837 0 0,0 0.25119206911218883,-0.891392037304416 l 31.634199711565735 9.208254494270262" fill="#88ff25" stroke="none" /><path d="M 79.94057633289273 93.78553927170692 l -17.297534506185254 -5.358820406253689 a39.10860723907696,39.10860723907696 0 0,0 0.20417539381961047,-0.6395765131000016 l 17.202994396588387 5.654965953045083" fill="#ffb811" stroke="none" /><path d="M 80.05021161711548 93.44210830539832 l -30.991693629220197 -10.187585269178516 a53.623181445472646,53.623181445472646 0 0,0 0.2949647237439216,-0.8720107939522435 l 30.81224348390391 10.718097737604921" fill="#8bff24" stroke="none" /><path d="M 80.28708602549916 92.7611449362534 l -15.95810840396595 -5.860038448769787 a38.00003748389364,38.00003748389364 0 0,0 0.23011613246916934,-0.6104103808156571 l 15.855161587682344 6.1331171097795885" fill="#ffa90f" stroke="none" /><path d="M 80.5471966667186 92.08871423366112 l -30.384381019949338 -12.357063245012192 a53.80103080707509,53.80103080707509 0 0,0 0.35527678620181136,-0.8525349529116015 l 30.167778389211048 12.876830707365057" fill="#89ff24" stroke="none" /><path d="M 80.83023694016515 91.42560881287825 l -12.864377319261177 -5.754072346631921 a35.092606301979615,35.092606301979615 0 0,0 0.2506874340010777,-0.5477972851710369 l 12.763705420405051 5.974058614017629" fill="#ff7f0b" stroke="none" /><line stroke="#e1ed5e" stroke-width="0.3" x1="26.387840678322718" x2="22.05771365940052" y1="57.49999999999999" y2="54.99999999999999" /><path d="M 25.521815274538284 56.99999999999999 a86.0,86.0 0 0,1 29.574782752854787,-30.34633250058573" fill="none" id="id119" stroke="none" /><text fill="#e1ed5e" style="font-size:6.75px; font-family:Arial;" text-anchor="middle"><textPath startOffset="21.40746469413373" xlink:href="#id119">November</textPath></text><line stroke="#e1ed5e" stroke-width="0.3" x1="56.869717070023135" x2="54.33264160355391" y1="26.7553504044142" y2="22.446841604673864" /><path d="M 56.362301976729285 25.89364864446614 a86.0,86.0 0 0,1 42.16139366436587,-11.88097634709845" fill="none" id="id120" stroke="none" /><text fill="#e1ed5e" style="font-size:6.75px; font-family:Arial;" text-anchor="middle"><textPath startOffset="22.145653131862474" xlink:href="#id120">December</textPath></text></svg>