<?xml version="1.0" encoding="utf-8" ?>
<svg baseProfile="full" height="200mm" version="1.1" viewBox="0,0,200,200" width="200mm" xmlns="http://www.w3.org/2000/svg" xmlns:ev="http://www.w3.org/2001/xml-events" xmlns:xlink="http://www.w3.org/1999/xlink"><defs /><rect fill="#1a1a1a" height="200" width="200" x="0" y="0" /><rect fill="#1a1a1a" height="200" width="180" x="10" y="0" /><text alignment-baseline="middle" fill="#e1ed5e" style="dominant-baseline: central; font-size:9.0px; font-family:Arial;" text-anchor="middle" x="100.0" y="100.0">2025</text><line stroke="#e1ed5e" stroke-width="0.3" x1="100.0" x2="100.0" y1="15.0" y2="10.0" /><path d="M 100.0 14.0 a86.0,86.0 0 0,1 42.46469731375804,11.215312516191453" fill="none" id="id121" stroke="none" /><text fill="#e1ed5e" style="font-size:6.75px; font-family:Arial;" text-anchor="middle"><textPath startOffset="22.20632615414155" xlink:href="#id121">January</textPath></text><path d="M 100.0 79.0 l 0.0 -4.404871959832729 a25.40487195983273,25.40487195983273 0 0,0 0.43730310913797865,0.003764005921869365 l -0.0758226298654503 4.404219330519418" fill="#ff2d04" stroke="none" /><path d="M 100.36148047927253 79.00311137660856 l 0.10759328624603777 -6.249643832715857 a27.25056992209899,27.25056992209899 0 0,0 0.46893476883840196,0.012111201586767251 l -0.21515469027930753 6.24686583898673" fill="#ff4706" stroke="none" /><path d="M 101.08401301168833 79.027996857942 l 0.2467194269410221 -4.773190488696393 a25.77956252360107,25.77956252360107 0 0,0 0.4429640248965397,0.026720799664039653 l -0.3288455006771737 4.768236419652049" fill="#ff3304" stroke="none" /><path d="M 101.44485096284872 79.0497635885617 l 0.6312869718917347 -9.153616286150914 a30.17535908588691,30.17535908588691 0 0,0 0.5178807359079933,0.040197512323648626 l -0.7887578971620691 9.1413935116388" fill="#ff700a" stroke="none" /><path d="M 102.16513564639614 79.11191278185805 l 0.619189853253914 -5.973617256214129 a27.005622298988825,27.005622298988825 0 0,0 0.4619675582017632,0.051907437858655474 l -0.7219241149654024 5.962073864884873" fill="#ff4406" stroke="none" /><path d="M 102.52436894288641 79.15227682838746 l 0.5294745672993029 -4.372712331361427 a25.404651683193244,25.404651683193244 0 0,0 0.4336758788482445,0.05630357565556431 l -0.6046651746553934 4.3629504325417265" fill="#ff2d04" stroke="none" /><path d="M 102.88285421437855 79.19881850522331 l 0.895113714491613 -6.458676522987977 a27.520408805471252,27.520408805471252 0 0,0 0.4686738981009944,0.06907034962825594 l -1.0061565930212633 6.442311689198752" fill="#ff4b07" stroke="none" /><path d="M 103.59715602781102 79.31037775812273 l 0.804028591872406 -4.62449994075778 a25.693874910840407,25.693874910840407 0 0,0 0.43508891790793414,0.07950971872929999 l -0.8835126308832411 4.609974740677742" fill="#ff3104" stroke="none" /><path d="M 103.95276090670814 79.375362276772 l 1.911030896455284 -9.971339235418178 a31.152814645949007,31.152814645949007 0 0,0 0.5257906642937539,0.1054686608755704 l -2.082387970216163 9.9369666184654" fill="#ff7d0b" stroke="none" /><path d="M 104.66035177308747 79.52364482259891 l 1.1758098613803274 -5.166198071516781 a26.29831400959427,26.29831400959427 0 0,0 0.4405297114950899,0.10425914976675174 l -1.2645632598379408 5.1451930096091605" fill="#ff3a05" stroke="none" /><path d="M 105.36241919743992 79.69619591428918 l 1.378534947317426 -5.219566480181405 a26.39853988056111,26.39853988056111 0 0,0 0.4383441227506527,0.11981600729292004 l -1.4681769592917895 5.195063932062191" fill="#ff3b05" stroke="none" /><path d="M 105.71112130821622 79.79150937346287 l 1.0832208167910131 -3.832917660337383 a24.983042195214054,24.983042195214054 0 0,0 0.4128266682270315,0.12051542490808219 l -1.1490377027414718 3.8137039065105975" fill="#ff2703" stroke="none" /><path d="M 106.40334571778207 80.00007090966166 l 0.8070252108532939 -2.520627138147369 a23.646667878770927,23.646667878770927 0 0,0 0.38658606092907216,0.1274513462322299 l -0.8502940940247835 2.5063620676559024" fill="#ff1402" stroke="none" /><path d="M 107.08798089147638 80.2323363322302 l 1.5916507628361107 -4.438953411137072 a25.715682298149677,25.715682298149677 0 0,0 0.41539114001665045,0.15299206249816966 l -1.6678242286253377 4.4108980808325775" fill="#ff3204" stroke="none" /><path d="M 107.4271985657038 80.35727306442388 l 1.558443379550694 -4.121618330015643 a25.406413896309143,25.406413896309143 0 0,0 0.4077328190496469,0.15819399928185815 l -1.629159363600008 4.094181626843238" fill="#ff2d04" stroke="none" /><path d="M 107.76421540070413 80.48803036053334 l 2.3486151633421817 -5.902220043736515 a27.352337729542242,27.352337729542242 0 0,0 0.4359651734544729,0.17784114068567364 l -2.449864206385042 5.860918016867261" fill="#ff4906" stroke="none" /><path d="M 108.43124777332544 80.76684994638697 l 4.598179033983888 -10.489250193048024 a32.45284331687669,32.45284331687669 0 0,0 0.5096918110715133,0.22868385846810524 l -4.778052963522181 10.408546004063387" fill="#ff8f0d" stroke="none" /><path d="M 108.76106565485865 80.91482961587045 l 2.059066695529744 -4.485486157118156 a25.93551838435826,25.93551838435826 0 0,0 0.404126986504851,0.18974303891530497 l -2.135971893334193 4.4493781355628474" fill="#ff3505" stroke="none" /><path d="M 109.08828744355905 81.06846463323043 l 1.9058444207594927 -3.970006591367154 a25.403770576635292,25.403770576635292 0 0,0 0.3925834989711011,0.1926390179737026 l -1.9738991867410256 3.9366124132586195" fill="#ff2d04" stroke="none" /><path d="M 109.41281617654863 81.2277094730956 l 3.6626532728764047 -7.304550524321816 a29.171382218430512,29.171382218430512 0 0,0 0.44693268053904184,0.2289362779315885 l -3.787846441004202 7.240421721077727" fill="#ff6209" stroke="none" /><path d="M 110.05341064243156 81.56283822128135 l 2.958614099635596 -5.425864787174973 a27.18008139746297,27.18008139746297 0 0,0 0.4088349033580881,0.22751618108261798 l -3.051573092065719 5.374133208532175" fill="#ff4606" stroke="none" /><line stroke="#e1ed5e" stroke-width="0.3" x1="143.23703022742887" x2="145.7803849466894" y1="26.81831364943548" y2="22.513508569990506" /><path d="M 143.74570117128098 25.957352633546492 a86.0,86.0 0 0,1 28.547481713284135,27.462654790039103" fill="none" id="id122" stroke="none" /><text fill="#e1ed5e" style="font-size:6.75px; font-family:Arial;" text-anchor="middle"><textPath startOffset="19.985693538727396" xlink:href="#id122">February</textPath></text><path d="M 110.68208982089419 81.91981866633111 l 2.428983613557968 -4.111224013838346 a25.77515699081132,25.77515699081132 0 0,0 0.38004601683575395,0.22897347277963545 l -2.4993916966113594 4.068803931600096" fill="#ff3304" stroke="none" /><path d="M 110.99172775467656 82.1063720568725 l 5.534680275123704 -9.01000387178388 a31.57415980196081,31.57415980196081 0 0,0 0.4606532306313508,0.28846101076094327 l -5.688952658127318 8.913398519699992" fill="#ff830c" stroke="none" /><path d="M 111.60114157652 82.49532879139004 l 4.543487046081815 -6.855553512355113 a29.224468888547015,29.224468888547015 0 0,0 0.416929223212893,0.28151247264529455 l -4.66082096370125 6.776329127411148" fill="#ff6309" stroke="none" /><path d="M 111.90073688211348 82.69761687909136 l 2.4971224939839782 -3.630545782058885 a25.406413896309143,25.406413896309143 0 0,0 0.35819276235934966,0.25093692062416634 l -2.5592463959269787 3.5870240186707827" fill="#ff2d04" stroke="none" /><path d="M 112.19680574252982 82.90503203632743 l 4.191463228522279 -5.874729099164776 a28.21670326289143,28.21670326289143 0 0,0 0.39295747744228243,0.2855003190595237 l -4.29196602231835 5.801709545288578" fill="#ff5507" stroke="none" /><path d="M 112.77801427241765 83.33499621200491 l 3.2170658301971478 -4.1956765036795804 a26.287079900980405,26.287079900980405 0 0,0 0.35671247579534676,0.27841974543780346 l -3.2888108611519247 4.139678369018553" fill="#ff3a05" stroke="none" /><path d="M 113.06298171725822 83.55741782278167 l 7.040483279214574 -8.861967917544842 a32.31825429014979,32.31825429014979 0 0,0 0.43259768787093617,0.3497972451056396 l -7.1919843656500015 8.739464575175074" fill="#ff8d0d" stroke="none" /><path d="M 113.6212207817346 84.01681056812373 l 4.33863152534391 -5.090965828677446 a27.688920434679236,27.688920434679236 0 0,0 0.36009599426129685,0.3122716977785455 l -4.425621318251971 5.01552913747923" fill="#ff4e07" stroke="none" /><path d="M 113.89432698308785 84.25364557470407 l 2.9145615202003197 -3.3030544586481474 a25.405092236472218,25.405092236472218 0 0,0 0.32541384146292585,0.292159759876927 l -2.9709863492592357 3.2523956900019226" fill="#ff2d04" stroke="none" /><path d="M 114.16331599549186 84.49514656593476 l 5.0951271945657 -5.577733378596256 a28.554563572537447,28.554563572537447 0 0,0 0.36004872931841764,0.3346260543734093 l -5.190383807678965 5.489202738148206" fill="#ff5a08" stroke="none" /><path d="M 114.68862486808459 84.99185889309783 l 0.893631112518258 -0.9130699404906852 a22.277604509027846,22.277604509027846 0 0,0 0.2717487968211412,0.270581821126108 l -0.9092157095067218 0.8975522687144586" fill="#ff0000" stroke="none" /><path d="M 114.94478906791727 85.2469230424477 l 7.12919173050805 -7.0377382890683 a31.017741010615236,31.017741010615236 0 0,0 0.37182256531302366,0.383195837681294 l -7.249278559524183 6.913978255836892" fill="#ff7b0b" stroke="none" /><path d="M 115.4437574822437 85.77008943001954 l 4.381645911033351 -4.037257742166177 a26.958042544859513,26.958042544859513 0 0,0 0.3115019266692205,0.3439682076459057 l -4.450491478318607 3.9612367472507217" fill="#ff4306" stroke="none" /><path d="M 115.68641384162765 86.03803664274999 l 2.676744874640901 -2.3824829711725353 a24.58346037118362,24.58346037118362 0 0,0 0.27862207570253494,0.31851319722382715 l -2.717358813921284 2.3360542177457604" fill="#ff2203" stroke="none" /><path d="M 115.9244219780498 86.31012108654704 l 4.346304176188334 -3.736423084936359 a26.7315981594663,26.7315981594663 0 0,0 0.29696181595860954,0.3515091235165555 l -4.409976605634061 3.661055011790697" fill="#ff4006" stroke="none" /><path d="M 116.38621287248628 86.86637796730983 l 2.147824324707928 -1.7214906881074723 a23.752576887036547,23.752576887036547 0 0,0 0.25296032838875465,0.3212339285301734 l -2.1771387336906467 1.6842643656242604" fill="#ff1602" stroke="none" /><path d="M 116.60985879189232 87.15038557335679 l 8.025690213825712 -6.208783954604294 a31.14695528733864,31.14695528733864 0 0,0 0.32440897667165336,0.42688418650708554 l -8.131375130721478 6.069714992216174" fill="#ff7d0b" stroke="none" /><path d="M 117.04232023915458 87.72973835380427 l 5.280518866957473 -3.801908849029788 a27.50679570915092,27.50679570915092 0 0,0 0.273348625434881,0.3866322454346901 l -5.345180112196237 3.7104501032633044" fill="#ff4b07" stroke="none" /><path d="M 117.45458315368197 88.32363383020206 l 6.492281771893706 -4.343057555639447 a28.811009636228864,28.811009636228864 0 0,0 0.27220005955062165,0.4145793652682633 l -6.566078466802252 4.23066012639351" fill="#ff5d08" stroke="none" /><line stroke="#e1ed5e" stroke-width="0.3" x1="172.23445277983987" x2="176.4835382374775" y1="55.19839476539836" y2="52.563006222186495" /><path d="M 173.08426987136738 54.67131705675599 a86.0,86.0 0 0,1 12.851231095245387,41.99856678651699" fill="none" id="id123" stroke="none" /><text fill="#e1ed5e" style="font-size:6.75px; font-family:Arial;" text-anchor="middle"><textPath startOffset="22.20632615414155" xlink:href="#id123">March</textPath></text><path d="M 117.84615892207809 88.93136811851018 l 4.095823385844974 -2.5403315922189615 a25.819652871987806,25.819652871987806 0 0,0 0.2310049937323921,0.3797114710226747 l -4.13894417786359 2.4694523479892054" fill="#ff3304" stroke="none" /><path d="M 118.03404312379186 89.2402003453031 l 8.756855753275193 -5.2246749585519305 a31.19704619515811,31.19704619515811 0 0,0 0.27117709371563803,0.46352955650647176 l -8.845492521461157 5.073165989691564" fill="#ff7e0b" stroke="none" /><path d="M 118.3937258080291 89.86733742301442 l 7.049200355122494 -3.8832354783088223 a29.04802730031748,29.04802730031748 0 0,0 0.2374910010069254,0.44003475623375665 l -7.114999455347884 3.761319738742607" fill="#ff6008" stroke="none" /><path d="M 118.73160827565052 90.50648371742162 l 7.437261399664937 -3.769337963750409 a29.337911357883108,29.337911357883108 0 0,0 0.22442103335735253,0.4524191088913428 l -7.501042445975698 3.6407592663601167" fill="#ff6409" stroke="none" /><path d="M 119.04729006885535 91.15688171328212 l 4.640014802860416 -2.1542276935714475 a26.115704675459085,26.115704675459085 0 0,0 0.1857917033039559,0.40936739060674143 l -4.676408823127719 2.0740382941226434" fill="#ff3705" stroke="none" /><path d="M 119.196687751892 91.48605970444005 l 10.188908961937098 -4.518892201613183 a32.146042013398414,32.146042013398414 0 0,0 0.21998499424346896,0.5077556968571076 l -10.265184666023249 4.342837360169473" fill="#ff8b0c" stroke="none" /><path d="M 119.47837535516314 92.15188598940014 l 6.7996286606463086 -2.739666937589296 a28.330806562145984,28.330806562145984 0 0,0 0.17835787450331175,0.45390133618757417 l -6.845780085031321 2.6222165965059374" fill="#ff5608" stroke="none" /><path d="M 119.7369772167798 92.82701384747503 l 5.4129628219527515 -1.967226639598585 a26.759353016041736,26.759353016041736 0 0,0 0.153607503124122,0.43426909634072164 l -5.446023405886684 1.8737599168312487" fill="#ff4006" stroke="none" /><path d="M 119.97218684219823 93.5106431181261 l 9.389170814677138 -3.0507265289837657 a30.872358428553447,30.872358428553447 0 0,0 0.1598666515355994,0.5068209728698923 l -9.440292949980943 2.8886553896874543" fill="#ff790b" stroke="none" /><path d="M 120.08093135843002 93.85539295169968 l 17.310924981061937 -5.297006884423084 a39.1032153396456,39.1032153396456 0 0,0 0.19140856861365674,0.645334539068737 l -17.399539446787298 4.9982429586078165" fill="#ffe415" stroke="none" /><path d="M 120.28053869075195 94.5502522615342 l 5.262300725791923 -1.4140754304809908 a26.448983231003762,26.448983231003762 0 0,0 0.11436498550838071,0.4406949415774634 l -5.2858620431706065 1.323284063354677" fill="#ff3c05" stroke="none" /><path d="M 120.45610955862082 95.25157060432595 l 4.292718925222391 -0.9964589148038675 a25.406854449588117,25.406854449588117 0 0,0 0.09522200256213532,0.42686156632768213 l -4.309235314786564 0.9224191789262215" fill="#ff2d04" stroke="none" /><path d="M 120.67395015179393 96.31383870115 l 18.504155457641414 -3.2992873260818487 a39.795985370833975,39.795985370833975 0 0,0 0.11443835597681433,0.675421654959059 l -18.55820567513845 2.980279882806952" fill="#ffed16" stroke="none" /><path d="M 120.87857604477298 97.74499172005257 l 2.770562892412841 -0.299236990545156 a23.78667571082922,23.78667571082922 0 0,0 0.04046325842169219,0.407459490303988 l -2.7753032765167616 0.25150196953673304" fill="#ff1602" stroke="none" /><path d="M 120.94382443527127 98.46500227214037 l 3.4442150186496945 -0.25243060283602065 a24.45345309855806,24.45345309855806 0 0,0 0.027154289245696107,0.4200648358580166 l -3.448049898899806 0.19310670272496874" fill="#ff2003" stroke="none" /><path d="M 120.96714384426684 98.82574320788733 l 18.654192318111203 -1.044720835303831 a39.68342400805583,39.68342400805583 0 0,0 0.032325723700860697,0.6823449362132935 l -18.66941165004556 0.7234647924675379" fill="#ffec16" stroke="none" /><line stroke="#e1ed5e" stroke-width="0.3" x1="184.98032266829074" x2="189.97916517819016" y1="98.17113171792111" y2="98.06355123074" /><path d="M 185.9800911702706 98.14961562048488 a86.0,86.0 0 0,1 -9.607161424134198,41.387399972396054" fill="none" id="id124" stroke="none" /><text fill="#e1ed5e" style="font-size:6.75px; font-family:Arial;" text-anchor="middle"><textPath startOffset="21.466115282336823" xlink:href="#id124">April</textPath></text><path d="M 120.99980553446 99.90962569577887 l 4.404170345757329 -0.018953691262331374 a25.404211129914266,25.404211129914266 0 0,0 -0.0018819714339450163,0.437303882722689 l -4.403844077033881 -0.05685966966404231" fill="#ff2d04" stroke="none" /><path d="M 120.9764740272857 100.99374915477107 l 5.192352813444908 0.24598491686077284 a26.19817624928323,26.19817624928323 0 0,0 -0.025217178194746424,0.4502696566093273 l -5.187349284362633 -0.3353262898055234" fill="#ff3905" stroke="none" /><path d="M 120.95626037817324 101.35467743843564 l 5.33717712320855 0.3450116243676734 a26.348316806757946,26.348316806757946 0 0,0 -0.033153009687467344,0.45234647699666075 l -5.330447554856745 -0.43683123786110445" fill="#ff3b05" stroke="none" /><path d="M 120.89721153311464 102.0752229133903 l 4.550910619773637 0.45193369364041114 a25.573295478384917,25.573295478384917 0 0,0 -0.04727126064306947,0.43767316459326533 l -4.542457057629515 -0.5302031801184679" fill="#ff3004" stroke="none" /><path d="M 120.8583938346157 102.4346265915055 l 4.865480504757109 0.5679070167749352 a25.898511908924352,25.898511908924352 0 0,0 -0.055494949935910774,0.4423493529575063 l -4.85498404557435 -0.6515741240198364" fill="#ff3405" stroke="none" /><path d="M 120.76222939487914 103.15116336523771 l 6.898045347478379 1.0469428584621792 a27.977042279128963,27.977042279128963 0 0,0 -0.07636166579046347,0.4755041657701182 l -6.879001927326628 -1.1655262539255025" fill="#ff5207" stroke="none" /><path d="M 120.5718875245553 104.21870165774334 l 4.53927454825679 0.9308744780383015 a25.633739388260302,25.633739388260302 0 0,0 -0.09236197770951533,0.4314844109732115 l -4.522578531822831 -1.008872708427682" fill="#ff3104" stroke="none" /><path d="M 120.41448212921028 104.9243191809786 l 4.9713565241578355 1.199175474177975 a26.113942462343182,26.113942462343182 0 0,0 -0.10916708034969096,0.43606822024390335 l -4.949978129513084 -1.2845715338192742" fill="#ff3705" stroke="none" /><path d="M 120.23288151984713 105.62410040840565 l 3.1821774399160963 0.8845445678064057 a24.302827932476468,24.302827932476468 0 0,0 -0.11550481772149167,0.4020874232970183 l -3.1664799853085053 -0.9391894666080061" fill="#ff1d03" stroke="none" /><path d="M 120.02730092923936 106.31721596034902 l 8.931533108988608 2.8172754634206956 a30.36532565978098,30.36532565978098 0 0,0 -0.16152581793393944,0.4971253506840562 l -8.881715040038422 -2.970599714082547" fill="#ff720a" stroke="none" /><path d="M 119.79798401119884 107.00284435728193 l 4.705098153993612 1.664263898764336 a25.99076376554174,25.99076376554174 0 0,0 -0.15282041728518297,0.42049615461123946 l -4.675753475703202 -1.7450078503817066" fill="#ff3605" stroke="none" /><path d="M 119.54520255179757 107.68017299344265 l 4.604675976350403 1.8093804852315554 a25.94741332289059,25.94741332289059 0 0,0 -0.1669251288907345,0.4142944804766199 l -4.572848233202275 -1.8883743335509886" fill="#ff3505" stroke="none" /><path d="M 119.26925614724726 108.34839909993367 l 8.556238561963518 3.706987636869332 a30.324750702787373,30.324750702787373 0 0,0 -0.21163631279976608,0.4771840150086012 l -8.49116116443248 -3.8537199883706212" fill="#ff720a" stroke="none" /><line stroke="#e1ed5e" stroke-width="0.3" x1="174.80103733775053" x2="179.2010983576182" y1="140.37084112569926" y2="142.7455964860345" /><path d="M 175.68104954172406 140.8457921977663 a86.0,86.0 0 0,1 -30.038265399797805,32.042727171017184" fill="none" id="id125" stroke="none" /><text fill="#e1ed5e" style="font-size:6.75px; font-family:Arial;" text-anchor="middle"><textPath startOffset="22.206326154141568" xlink:href="#id125">May</textPath></text><path d="M 118.48025628344425 109.97397251340804 l 7.828282154276996 4.224999363450903 a29.89565180906561,29.89565180906561 0 0,0 -0.24830985382498558,0.45075451116496024 l -7.7543958910005015 -4.359124393013668" fill="#ff6c0a" stroke="none" /><path d="M 118.12598468904814 110.60418214915192 l 3.645553528214385 2.132745575528724 a25.223584285534468,25.223584285534468 0 0,0 -0.22247096157707863,0.3728741281089852 l -3.6083016909390793 -2.1951817975238135" fill="#ff2b04" stroke="none" /><path d="M 117.75023020441432 111.22182372390056 l 4.108810507730823 2.59761967600842 a25.861064880211465,25.861064880211465 0 0,0 -0.24111765387790332,0.37421995333934105 l -4.063487990475869 -2.667961229269214" fill="#ff3404" stroke="none" /><path d="M 117.35343817320211 111.8261652097733 l 4.046813724283184 2.7578562356856535 a25.897190249087426,25.897190249087426 0 0,0 -0.2542106335712597,0.36620937758436317 l -3.9987421835497874 -2.8271068754570363" fill="#ff3405" stroke="none" /><path d="M 116.498646956653 112.99209946851258 l 8.75252517271848 6.892303226039041 a32.140491042083326,32.140491042083326 0 0,0 -0.3460185391607839,0.43171133038568016 l -8.632588721502842 -7.041942390002972" fill="#ff8a0c" stroke="none" /><path d="M 116.27256486870786 113.27417163493432 l 2.5937878044875378 2.1158548009586786 a24.347323813652956,24.347323813652956 0 0,0 -0.2677092600218884,0.32247304943682825 l -2.5569825445721057 -2.1601891075092774" fill="#ff1e03" stroke="none" /><path d="M 115.80600337817218 113.82643327865902 l 3.722759120713117 3.2565145890163403 a25.946091663053664,25.946091663053664 0 0,0 -0.29694826273466557,0.33362452110931656 l -3.6661520083301133 -3.3201132798665234" fill="#ff3505" stroke="none" /><path d="M 115.32070863581623 114.36230785411682 l 5.945616021534878 5.573682635281299 a29.14961888644914,29.14961888644914 0 0,0 -0.346316140093765,0.3631110883346304 l -5.848793330062149 -5.675200840198436" fill="#ff6209" stroke="none" /><path d="M 115.07121518719521 114.62390073753431 l 2.261599185340217 2.1944748040359485 a24.151277604509026,24.151277604509026 0 0,0 -0.29206873164530256,0.29586408315580137 l -2.2234898286393787 -2.2330793811724146" fill="#ff1b02" stroke="none" /><path d="M 114.81725581225074 114.88116024355365 l 3.1127614212259225 3.126186258518711 a25.41161242500105,25.41161242500105 0 0,0 -0.31262339429556574,0.30596778982061934 l -3.058488074554562 -3.1793041512619022" fill="#ff2d04" stroke="none" /><path d="M 114.29624159901734 115.38237550388516 l 3.603712189647265 3.8774984127921215 a26.293556034181343,26.293556034181343 0 0,0 -0.3341791405543456,0.3052647215854481 l -3.5364334996260554 -3.9389559009641526" fill="#ff3a05" stroke="none" /><path d="M 114.0293411484842 115.62618273729858 l 3.832517131925779 4.268740236156435 a26.73675263283031,26.73675263283031 0 0,0 -0.3451048218844562,0.30451488066342086 l -3.758469957134735 -4.334078258592145" fill="#ff4006" stroke="none" /><path d="M 113.48314897796784 116.09983520530334 l 3.4203347668197743 4.084122053590747 a26.327170249367143,26.327170249367143 0 0,0 -0.3499380784518039,0.287975214902748 l -3.3495265598232793 -4.142392387350673" fill="#ff3a05" stroke="none" /><path d="M 113.20401910651253 116.32954008644616 l 7.040044452357643 8.706492104243909 a32.196661585152654,32.196661585152654 0 0,0 -0.43395351529488346,0.34475891775022827 l -6.889133444345409 -8.826384935999263" fill="#ff8b0c" stroke="none" /><path d="M 112.63410532772338 116.77436683061366 l 2.832668157358165 3.760948127973744 a25.70836911371869,25.70836911371869 0 0,0 -0.3557732595463726,0.2631925520750152 l -2.7675099273932284 -3.809150628788528" fill="#ff3204" stroke="none" /><path d="M 112.34349029814194 116.9893568818739 l 3.8873682121027695 5.350503325352601 a27.61358582397449,27.61358582397449 0 0,0 -0.3869487470521492,0.2760776568952651 l -3.7946921372017357 -5.416625244092085" fill="#ff4c07" stroke="none" /><path d="M 111.7513745106137 117.40417183066458 l 3.3545924891597423 4.9682617169984065 a26.994740632998138,26.994740632998138 0 0,0 -0.38734277874641404,0.2567096725969678 l -3.2685750116733643 -5.025269410686693" fill="#ff4406" stroke="none" /><path d="M 111.1453310114006 117.79835938074945 l 5.871231498053368 9.375969910901539 a32.06255716703263,32.06255716703263 0 0,0 -0.47028259575264186,0.28888598090366746 l -5.708969702368418 -9.475644358633584" fill="#ff890c" stroke="none" /><line stroke="#e1ed5e" stroke-width="0.3" x1="143.8653032363475" x2="146.44561519142675" y1="172.8068346515853" y2="177.08958963109032" /><path d="M 144.38136562736335 173.6633856474863 a86.0,86.0 0 0,1 -40.68145358897372,12.25698825130547" fill="none" id="id126" stroke="none" /><text fill="#e1ed5e" style="font-size:6.75px; font-family:Arial;" text-anchor="middle"><textPath startOffset="21.466115282336833" xlink:href="#id126">June</textPath></text><path d="M 110.21172684928248 118.3499491758327 l 2.592814017780156 4.659153750474184 a26.332016335435867,26.332016335435867 0 0,0 -0.397961014398545,0.21700007546960037 l -2.5122301915129626 -4.703094477703555" fill="#ff3a05" stroke="none" /><path d="M 109.89434966115114 118.52300852407294 l 3.1514239163534996 5.8997159050059045 a27.68865610271185,27.68865610271185 0 0,0 -0.4223299260244701,0.2209430567510161 l -3.049403087802534 -5.9530883807016375" fill="#ff4e07" stroke="none" /><path d="M 108.92500713936063 119.00905698771935 l 4.759521156680615 10.137135745538364 a32.19886435154753,32.19886435154753 0 0,0 -0.5037313066393762,0.2312383364177437 l -4.584321854273819 -10.217561152290182" fill="#ff8b0c" stroke="none" /><path d="M 108.59647513512805 119.15986991738527 l 2.707635383780342 6.034792274911659 a27.614378819876645,27.614378819876645 0 0,0 -0.43535951949666535,0.1908488193104262 l -2.6033551896259226 -6.0805056475165395" fill="#ff4d07" stroke="none" /><path d="M 107.93186726928326 119.44442032107085 l 2.197201891941307 5.3862874486828645 a26.817197661571164,26.817197661571164 0 0,0 -0.4289205473400525,0.17067633769786553 l -2.1041602685593883 -5.423310630786799" fill="#ff4106" stroke="none" /><path d="M 107.59598834532513 119.57807347666477 l 1.6932974117304271 4.3643433398772045 a25.68131914238962,25.68131914238962 0 0,0 -0.4135056558191015,0.15635245675831383 l -1.6179215351510507 -4.392844046742149" fill="#ff3104" stroke="none" /><path d="M 107.2578585660854 119.70592522655815 l 2.0351156821785192 5.5255743957044565 a26.888435126781445,26.888435126781445 0 0,0 -0.4356956437580982,0.15622495654314836 l -1.939700477790686 -5.559786893287566" fill="#ff4206" stroke="none" /><path d="M 106.57524785965236 119.94407469862006 l 2.3415371620872207 7.10236223288644 a28.47839191060265,28.47839191060265 0 0,0 -0.4668810695693012,0.1494805748578557 l -2.218934747426979 -7.141615654404003" fill="#ff5908" stroke="none" /><path d="M 105.88484417918355 120.15858648285463 l 1.3003677656118167 4.454421436565386 a25.64034768744493,25.64034768744493 0 0,0 -0.42473703806777335,0.12003492954155352 l -1.2234995594394376 -4.476145159445458" fill="#ff3104" stroke="none" /><path d="M 105.53697534728816 120.25689768951611 l 1.678063389872776 6.13915653820345 a27.364364834058264,27.364364834058264 0 0,0 -0.455433668376016,0.12028417119030356 l -1.5721392786852624 -6.167132058697337" fill="#ff4906" stroke="none" /><path d="M 104.83641907484287 120.43548508189849 l 1.0327402804547268 4.363672433699083 a25.48421560537615,25.48421560537615 0 0,0 -0.42774630997252755,0.09735366752732492 l -0.9574738210893371 -4.380802834804093" fill="#ff2e04" stroke="none" /><path d="M 104.13013068566511 120.58985236759428 l 1.828441046007434 9.115288126549943 a30.29686368022825,30.29686368022825 0 0,0 -0.5122079896851108,0.09816588028844146 l -1.671265441750619 -9.145411205186853" fill="#ff720a" stroke="none" /><path d="M 103.7750983002368 120.6578951692458 l 1.8082995934876527 9.895282312122687 a31.0591530188389,31.0591530188389 0 0,0 -0.5267499663269742,0.09158223356476604 l -1.6377006556886284 -9.92494312420846" fill="#ff7c0b" stroke="none" /><path d="M 103.06178313531738 120.77559828337769 l 0.8046382009228008 5.459838037842946 a26.51881092572132,26.51881092572132 0 0,0 -0.4521727613439574,0.06266702451468756 l -0.7105368483920129 -5.4728796278502365" fill="#ff3d05" stroke="none" /><path d="M 102.70371172650421 120.8252237178851 l 0.546331198508172 4.20809264592109 a25.24340918308835,25.24340918308835 0 0,0 -0.4313889192620651,0.05223519043908216 l -0.4738148561947266 -4.216873365085523" fill="#ff2b04" stroke="none" /><path d="M 101.98527174616119 120.90594882070398 l 5.955815238483573 62.71784646211194 a84.0,84.0 0 0,0 -1.4406227290338331,0.12430299088534635 l -4.8753481917081976 -62.81107370527595" fill="#4dd2ff" stroke="none" /><path d="M 101.62511606390274 120.93702456842531 l 1.0947526485582215 14.104139149401728 a35.14656228584216,35.14656228584216 0 0,0 -0.603579009089404,0.04162634231478054 l -0.8518108786898871 -14.120893836232794" fill="#ffb210" stroke="none" /><path d="M 101.26447882468166 120.96189622390904 l 0.07952841603045328 1.3183822228908542 a22.320778730367408,22.320778730367408 0 0,0 -0.383717497331679,0.019833811634609035 l -0.05682285028529471 -1.3195558412876651" fill="#ff0100" stroke="none" /><line stroke="#e1ed5e" stroke-width="0.3" x1="102.19456741930631" x2="102.32365962044197" y1="184.97166512339345" y2="189.96999836594603" /><path d="M 102.22038585953345 185.97133177190398 a86.0,86.0 0 0,1 -42.740103519485714,-10.115201625700543" fill="none" id="id127" stroke="none" /><text fill="#e1ed5e" style="font-size:6.75px; font-family:Arial;" text-anchor="middle"><textPath startOffset="22.20632615414155" xlink:href="#id127">July</textPath></text><path d="M 100.54218724476979 120.99299961872073 l 0.12601582354260946 4.87921868524591 a25.88084572243745,25.88084572243745 0 0,0 -0.44544670970275285,0.007668769073449074 l -0.042009423947188665 -4.880664931598519" fill="#ff3404" stroke="none" /><path d="M 100.18074693466247 120.99922214144158 l 0.046343877053005245 5.384242731137305 a26.384442175633907,26.384442175633907 0 0,0 -0.45418162343091767,0.0 l 0.04634387705300153 -5.384242731137305" fill="#ff3b05" stroke="none" /><path d="M 99.81925306533755 120.99922214144158 l -0.05087512669122251 5.9106843989256435 a26.910903344009174,26.910903344009174 0 0,0 -0.4631754880917674,-0.007973986071258828 l 0.15261030467565784 -5.9089329355752245" fill="#ff4306" stroke="none" /><path d="M 99.45781275523022 120.99299961872073 l -0.08194116679462168 3.172687848839824 a24.17374582173676,24.17374582173676 0 0,0 -0.41588011377064876,-0.014323752002678268 l 0.13654163223991345 -3.1708072984110522" fill="#ff1c02" stroke="none" /><path d="M 99.09653310690486 120.98055641714683 l -0.23743156955433034 5.513701142031545 a26.51881092572132,26.51881092572132 0 0,0 -0.4558860550320061,-0.023564101729075786 l 0.3323056929998253 -5.5087972335402675" fill="#ff3d05" stroke="none" /><path d="M 98.73552117531835 120.96189622390904 l -0.3396510627125779 5.6305650912849226 a26.64080012866953,26.64080012866953 0 0,0 -0.45750783852589066,-0.03155241917194164 l 0.4365216620173986 -5.623884327596696" fill="#ff3f05" stroke="none" /><path d="M 98.01472825383883 120.90594882070398 l -0.635722324164785 6.694488247700568 a27.72460525027622,27.72460525027622 0 0,0 -0.4747078247607978,-0.04920540699964411 l 0.7508627455311763 -6.682553472245163" fill="#ff4e07" stroke="none" /><path d="M 97.65516085044442 120.86867818915974 l -0.6091905293932183 5.4216943265385265 a26.455811806827874,26.455811806827874 0 0,0 -0.4521078742087523,-0.05474396734320883 l 0.7024258266533598 -5.410404830469969" fill="#ff3c05" stroke="none" /><path d="M 97.2962882734958 120.8252237178851 l -0.7546653442847996 5.812777476534478 a26.861561376763962,26.861561376763962 0 0,0 -0.4580170059571085,-0.06347698356518922 l 0.8546109414287392 -5.7989259274766844" fill="#ff4206" stroke="none" /><path d="M 96.93821686468263 120.77559828337769 l -0.4753191256349245 3.2252575620689568 a24.260094264415883,24.260094264415883 0 0,0 -0.4126112198440984,-0.06444138676132805 l 0.53076620908754 -3.216597867960523" fill="#ff1d02" stroke="none" /><path d="M 96.58105272829116 120.7198165907248 l -0.9195165946624676 5.5725384685478225 a26.647893036461028,26.647893036461028 0 0,0 -0.4519368815732568,-0.0785750198208499 l 1.0153024477077743 -5.555884870205967" fill="#ff3f05" stroke="none" /><path d="M 96.22490169976321 120.6578951692458 l -1.2669105503885543 6.932721549819411 a28.04753080376498,28.04753080376498 0 0,0 -0.47418008412545454,-0.0908777416807529 l 1.3860582490857039 -6.90988660979019" fill="#ff5307" stroke="none" /><path d="M 95.51606077576429 120.51570834832081 l -1.2082009075974498 5.527973553359377 a26.65846631515643,26.65846631515643 0 0,0 -0.4474558201991306,-0.10183948788624085 l 1.3031768771894432 -5.506357331895449" fill="#ff3f05" stroke="none" /><path d="M 95.16358092515715 120.4354850818985 l -1.1311989258630564 4.779693077958763 a25.911728507293603,25.911728507293603 0 0,0 -0.4331536751957682,-0.10645863478656052 l 1.2133058858020351 -4.759513184858172" fill="#ff3505" stroke="none" /><path d="M 94.81253420990036 120.34920634021253 l -1.6760141076383523 6.574608544027606 a27.784872938840017,27.784872938840017 0 0,0 -0.4624323160663338,-0.12213257765503573 l 1.7889368665161756 -6.544784617068988" fill="#ff4f07" stroke="none" /><path d="M 94.46302465271185 120.25689768951611 l -0.7435318218904235 2.7201941674366643 a23.819981538719738,23.819981538719738 0 0,0 -0.39458234064971887,-0.11151291084408009 l 0.7902453306447563 -2.7069924632540627" fill="#ff1602" stroke="none" /><path d="M 94.11515582081647 120.15858648285463 l -1.557774657409082 5.336171051607524 a26.558901274108052,26.558901274108052 0 0,0 -0.4377476372542684,-0.13188977220608727 l 1.6493972691035963 -5.308565910295711" fill="#ff3e05" stroke="none" /><path d="M 93.76903079525671 120.05430185196036 l -2.7578842592762474 8.876218384483987 a30.294793079817065,30.294793079817065 0 0,0 -0.4966595529651289,-0.15901470486768837 l 2.9102651573323164 -8.827430832956592" fill="#ff720a" stroke="none" /><path d="M 93.08242187328487 119.8279376855182 l -1.9472468211129257 5.581417068242745 a26.91134389728815,26.91134389728815 0 0,0 -0.4360668535911303,-0.15635805918225965 l 2.0430332353337826 -5.547071468020528" fill="#ff4306" stroke="none" /><path d="M 92.7421414339146 119.70592522655815 l -1.418612360530992 3.851696591708694 a25.104634900211185,25.104634900211185 0 0,0 -0.4042202217477192,-0.15284150011552797 l 1.4847028030389942 -3.8267068414865326" fill="#ff2904" stroke="none" /><path d="M 92.40401165467489 119.57807347666478 l -1.750378075468598 4.511464343485714 a25.839125326918506,25.839125326918506 0 0,0 -0.41327702908690284,-0.16445145893951357 l 1.8277761805973591 -4.480666040140133" fill="#ff3304" stroke="none" /><path d="M 92.06813273071674 119.44442032107085 l -1.5118315843500034 3.706149861409405 a25.002646816128447,25.002646816128447 0 0,0 -0.3970998238706544,-0.16598775858368342 l 1.57540286771812 -3.6795770598057485" fill="#ff2803" stroke="none" /><path d="M 91.40352486487194 119.15986991738527 l -0.5417507022123751 1.2074568725995174 a22.32342205004126,22.32342205004126 0 0,0 -0.3492361232109446,-0.16031717521598313 l 0.5624548211907391 -1.19795262704946" fill="#ff0100" stroke="none" /><path d="M 90.7491055286396 118.85261126421891 l -2.117907680297254 4.316132922471455 a25.807757933455477,25.807757933455477 0 0,0 -0.3971274346507321,-0.1991279399641847 l 2.1918890226307464 -4.279037141597968" fill="#ff3304" stroke="none" /><path d="M 90.10565033884886 118.52300852407294 l -2.990888608568971 5.5991810566992095 a27.34793219675249,27.34793219675249 0 0,0 -0.413314753419637,-0.2253721581756239 l 3.086826173857249 -5.54686824676382" fill="#ff4906" stroke="none" /><line stroke="#e1ed5e" stroke-width="0.3" x1="58.666819895761336" x2="56.23545636021788" y1="174.27360380694188" y2="178.64263932499728" /><path d="M 58.180547188652646 175.14741091055294 a86.0,86.0 0 0,1 -31.652253787137756,-30.449443065178592" fill="none" id="id128" stroke="none" /><text fill="#e1ed5e" style="font-size:6.75px; font-family:Arial;" text-anchor="middle"><textPath startOffset="22.20632615414155" xlink:href="#id128">August</textPath></text><path d="M 89.7882731507175 118.34994917583269 l -2.5703199690429086 4.618733099081984 a26.28575824114348,26.28575824114348 0 0,0 -0.39347431026259483,-0.22342498241579734 l 2.6494430462267107 -4.573804950871554" fill="#ff3a05" stroke="none" /><path d="M 89.4739219176387 118.17145234162733 l -2.1386777715207286 3.69205708861402 a25.26675850687403,25.26675850687403 0 0,0 -0.37446795439553054,-0.22124226798824032 l 2.201913596944641 -3.65469624833203" fill="#ff2b04" stroke="none" /><path d="M 89.1626897886671 117.98757091392108 l -2.6666230850349715 4.426012627432771 a26.167249409099174,26.167249409099174 0 0,0 -0.38381224278864523,-0.2357688275990415 l 2.7424145277559253 -4.3794553330053505" fill="#ff3805" stroke="none" /><path d="M 88.54995079064634 117.60387380957326 l -3.121087629373611 4.7985149907678535 a26.724240919707416,26.724240919707416 0 0,0 -0.3834614260036513,-0.2541373236427588 l 3.2032237541172246 -4.744079646033777" fill="#ff4006" stroke="none" /><path d="M 88.24862548938628 117.40417183066458 l -4.257800363060854 6.305942259983943 a28.608795681179284,28.608795681179284 0 0,0 -0.4057587063271257,-0.2790845381172139 l 4.36571595401087 -6.2317169325016275" fill="#ff5a08" stroke="none" /><path d="M 87.65650970185807 116.9893568818739 l -4.143470474410897 5.702997848985277 a28.04929301688088,28.04929301688088 0 0,0 -0.3881688628494855,-0.28715804492916785 l 4.241024307678947 -5.6308298553163425" fill="#ff5307" stroke="none" /><path d="M 87.36589467227662 116.77436683061367 l -3.6273334332336113 4.816029314912654 a27.029235954741893,27.029235954741893 0 0,0 -0.3692338707707796,-0.28311278716706806 l 3.709696032497878 -4.752877185918218" fill="#ff4406" stroke="none" /><path d="M 87.07902340077011 116.55440617244103 l -3.1121047048801747 3.9872408203898293 a26.057992195913343,26.057992195913343 0 0,0 -0.3512152117087061,-0.27902660542761354 l 3.180277409306239 -3.933080300957085" fill="#ff3705" stroke="none" /><path d="M 86.51685102203217 116.09983520530335 l -3.6486022293423965 4.356689577345936 a26.682696745500063,26.682696745500063 0 0,0 -0.3495871929862897,-0.29792578999510455 l 3.7230548989057426 -4.29323939712788" fill="#ff3f05" stroke="none" /><path d="M 86.24171649860922 115.8653595955263 l -5.006886838616786 5.773689729589685 a28.642277730381394,28.642277730381394 0 0,0 -0.36970040042824864,-0.3262176190494362 l 5.105529591951623 -5.686648968767959" fill="#ff5b08" stroke="none" /><path d="M 85.70375840098266 115.38237550388516 l -6.327797933809329 6.808542179173458 a30.29501335645655,30.29501335645655 0 0,0 -0.3789244954948912,-0.35829676176491476 l 6.4440582636950365 -6.698610780662612" fill="#ff720a" stroke="none" /><path d="M 85.44109423537348 115.13401014063109 l -3.2500520882517208 3.378435306634638 a25.687927441574246,25.687927441574246 0 0,0 -0.31602272751894517,-0.3092947528445022 l 3.3077247681464605 -3.3219904508675664" fill="#ff3104" stroke="none" /><path d="M 85.18274418774928 114.88116024355367 l -3.552361493316204 3.5676822547236657 a26.034642872127662,26.034642872127662 0 0,0 -0.3148448395575218,-0.3189361602225415 l 3.613246957929259 -3.5060056005204596" fill="#ff3605" stroke="none" /><path d="M 84.67929136418377 114.36230785411682 l -3.3117980542254757 3.104625532415346 a25.53946098655963,25.53946098655963 0 0,0 -0.2979039384052726,-0.3233158883965192 l 3.3647484006264774 -3.0471583892174827" fill="#ff2f04" stroke="none" /><path d="M 83.95833913139862 113.55231037782056 l -3.3658411318159907 2.843528738977896 a25.406193619669654,25.406193619669654 0 0,0 -0.27935198734576366,-0.3364974645190143 l 3.4142891190552906 -2.7851700173451204" fill="#ff2d04" stroke="none" /><path d="M 83.50135304334701 112.99209946851258 l -3.996897081047996 3.1474147291480437 a26.087377099620987,26.087377099620987 0 0,0 -0.2747785700522686,-0.3551883423165538 l 4.050482468318333 -3.078148392718237" fill="#ff3705" stroke="none" /><path d="M 83.06392112726016 112.41649034213515 l -4.263923914737223 3.1260465013628593 a26.287079900980405,26.287079900980405 0 0,0 -0.2643982130725751,-0.367225993036594 l 4.317101920185405 -3.052186902875127" fill="#ff3a05" stroke="none" /><path d="M 82.85270091963577 112.12312394758628 l -4.707982925641074 3.3285393975559145 a26.765785093914772,26.765785093914772 0 0,0 -0.26273688849299387,-0.37849208371726684 l 4.764580721296202 -3.247006051651635" fill="#ff4106" stroke="none" /><path d="M 82.44556493220864 111.52570212397912 l -5.522830374004843 3.626120551656851 a27.606845358806172,27.606845358806172 0 0,0 -0.25739457422648704,-0.39948209518333383 l 5.584429811608375 -3.530516856552069" fill="#ff4c07" stroke="none" /><path d="M 82.05923443525364 110.91462005526583 l -9.419899313739782 5.730782312342343 a32.026167466189285,32.026167466189285 0 0,0 -0.28246946156330266,-0.47343506519316914 l 9.517149651001317 -5.5677851532630624" fill="#ff890c" stroke="none" /><line stroke="#e1ed5e" stroke-width="0.3" x1="26.63291911575756" x2="22.317208475507996" y1="142.92168965132927" y2="145.44649492493687" /><path d="M 25.769776987707644 143.4266507060508 a86.0,86.0 0 0,1 -11.730757126820373,-40.83630448921669" fill="none" id="id129" stroke="none" /><text fill="#e1ed5e" style="font-size:6.75px; font-family:Arial;" text-anchor="middle"><textPath startOffset="21.46611528233685" xlink:href="#id129">September</textPath></text><path d="M 81.69416730710424 110.29060199501025 l -4.965317265902428 2.79124717348608 a26.696089565180905,26.696089565180905 0 0,0 -0.2217346569315598,-0.4025128095156443 l 5.012628332285504 -2.705363845572613" fill="#ff4006" stroke="none" /><path d="M 81.51974371655577 109.97397251340807 l -8.013599055512351 4.3250166819795135 a30.106236276415714,30.106236276415714 0 0,0 -0.24220824312806574,-0.4581667174386589 l 8.086859806865302 -4.186434949454728" fill="#ff6f0a" stroke="none" /><path d="M 81.18737489456691 109.33194174019688 l -4.914367795125652 2.437756224715702 a26.485769429798186,26.485769429798186 0 0,0 -0.19908059288319407,-0.41016498706321014 l 4.955601644623565 -2.352802281687207" fill="#ff3d05" stroke="none" /><path d="M 81.02952815118164 109.00673069616217 l -4.775318353183274 2.2672080451304835 a26.286198794422454,26.286198794422454 0 0,0 -0.19054412777644972,-0.4104150996290767 l 4.813637097799551 -2.1846728782225795" fill="#ff3a05" stroke="none" /><path d="M 80.87730276802145 108.67885076344099 l -8.808566754213212 3.9977747580389065 a30.673316457112488,30.673316457112488 0 0,0 -0.21406895179278987,-0.4826689737399424 l 8.876076790737281 -3.8455574478062684" fill="#ff770a" stroke="none" /><path d="M 80.58989483394504 108.01547362559985 l -4.594836995855248 1.8974546731780393 a25.971203199955244,25.971203199955244 0 0,0 -0.16707817413829135,-0.41467432622990236 l 4.626817784250927 -1.8180809791053316" fill="#ff3505" stroke="none" /><path d="M 80.45479744820244 107.68017299344265 l -9.662479951050296 3.7968149663873674 a31.38168207437658,31.38168207437658 0 0,0 -0.19323004800927265,-0.5044626810211369 l 9.726404278653076 -3.6299287185330726" fill="#ff800b" stroke="none" /><path d="M 80.32549172779594 107.34259656027581 l -5.25302023986394 1.960445862770386 a26.606921581516342,26.606921581516342 0 0,0 -0.15644330022160827,-0.43046477248598397 l 5.285987801090773 -1.8697332932782849" fill="#ff3e05" stroke="none" /><path d="M 80.20201598880116 107.00284435728193 l -6.187683370837615 2.188676561896746 a27.563362750171326,27.563362750171326 0 0,0 -0.15436686616466758,-0.448662370602868 l 6.22444106794551 -2.081841488204581" fill="#ff4c07" stroke="none" /><path d="M 79.97269907076064 106.31721596034903 l -9.22698068343039 2.9104685571533215 a30.675122725556285,30.675122725556285 0 0,0 -0.15450508259298265,-0.50493154951812 l 9.275712538529502 -2.751210035083154" fill="#ff770a" stroke="none" /><path d="M 79.76711848015287 105.62410040840567 l -6.791955994007392 1.887948705788643 a28.049469238192472,28.049469238192472 0 0,0 -0.12530355556319264,-0.4663011443174667 l 6.823447625912359 -1.7707566282956375" fill="#ff5307" stroke="none" /><path d="M 79.67330655649465 105.27499134158121 l -3.211856932416655 0.8335107505794952 a24.318247297240596,24.318247297240596 0 0,0 -0.10166033185107129,-0.4060824915138998 l 3.225728578562785 -0.7781004196682035" fill="#ff1e03" stroke="none" /><path d="M 79.4281124754447 104.21870165774334 l -2.799607719579939 0.5741189141504535 a23.857869120711598,23.857869120711598 0 0,0 -0.07903778827550874,-0.40301197961817914 l 2.8090754408311143 -0.5258432074643195" fill="#ff1702" stroke="none" /><path d="M 79.35854240842038 103.8639653848113 l -9.136531944827452 1.7103076667627064 a30.29523363309604,30.29523363309604 0 0,0 -0.09154001686597185,-0.5134050281988276 l 9.164618404032613 -1.5527838878306652" fill="#ff720a" stroke="none" /><path d="M 79.23777060512086 103.15116336523772 l -4.730237574895196 0.717926339767591 a25.784408609669796,25.784408609669796 0 0,0 -0.06282303502331095,-0.43938416063228003 l 4.741894660935106 -0.6363967071549104" fill="#ff3304" stroke="none" /><path d="M 79.18660465613746 102.79330883721812 l -7.639864722134576 1.025325339326838 a28.70836072222766,28.70836072222766 0 0,0 -0.06151585259510999,-0.4903418711702747 l 7.656382083976535 -0.8936657138691547" fill="#ff5c08" stroke="none" /><path d="M 79.1416061653843 102.43462659150553 l -8.874174353491695 1.0358084630088853 a29.93442049761542,29.93442049761542 0 0,0 -0.0553326337912937,-0.5123114680519312 l 8.89068928878404 -0.8829006730721721" fill="#ff6d0a" stroke="none" /><path d="M 79.10278846688536 102.07522291339032 l -5.566763934367835 0.5528142380015008 a26.594145536426062,26.594145536426062 0 0,0 -0.04131641594248167,-0.45592320708387896 l 5.575454946587391 -0.4569096423690556" fill="#ff3e05" stroke="none" /><path d="M 79.07016306316243 101.71520430193888 l -9.136272947874197 0.7487193861649556 a30.16690046293059,30.16690046293059 0 0,0 -0.0379577773648134,-0.5179037145483231 l 9.147807283903346 -0.5913425351198718" fill="#ff700a" stroke="none" /><path d="M 79.04373962182676 101.35467743843564 l -4.488240630217141 0.2901337457306078 a25.497608425056992,25.497608425056992 0 0,0 -0.02454284332910568,-0.438228954590805 l 4.492569824433779 -0.21283307480436517" fill="#ff2f04" stroke="none" /><path d="M 79.0095281055655 100.63252640178507 l -4.73674932574783 0.1427370962521124 a25.738899455951668,25.738899455951668 0 0,0 -0.009533121263108941,-0.442966685415945 l 4.738504509695947 -0.06118059504603856" fill="#ff3204" stroke="none" /><line stroke="#e1ed5e" stroke-width="0.3" x1="15.007084014347285" x2="10.007500721073583" y1="101.09737516637583" y2="101.16192664675087" /><path d="M 14.007167355692545 101.11028546245083 a86.0,86.0 0 0,1 10.666146001902534,-42.60595125391555" fill="none" id="id130" stroke="none" /><text fill="#e1ed5e" style="font-size:6.75px; font-family:Arial;" text-anchor="middle"><textPath startOffset="22.20632615414155" xlink:href="#id130">October</textPath></text><path d="M 79.00175016825051 100.2711162175752 l -8.766720113739252 0.11319038571413288 a29.76745080488385,29.76745080488385 0 0,0 -0.0022052049477020723,-0.5124119678097089 l 8.767369615976458 0.037731060299251364" fill="#ff6a09" stroke="none" /><path d="M 79.00019446554 99.90962569577889 l -9.296160819938892 -0.04000675456974988 a30.29624690563768,30.29624690563768 0 0,0 0.006732969936597301,-0.5214759415826496 l 9.29409484288458 0.2000189542128715" fill="#ff720a" stroke="none" /><path d="M 79.01574976396665 99.18683210126434 l -4.767613670918754 -0.18475143725207618 a25.771192011300542,25.771192011300542 0 0,0 0.0209929574683349,-0.4431281525888791 l 4.763727105216921 0.26679069646396436" fill="#ff3304" stroke="none" /><path d="M 79.05617556472873 98.46500227214037 l -10.036682199354098 -0.7356003397981226 a31.063602606956543,31.063602606956543 0 0,0 0.043674709590305144,-0.5329420809845056 l 10.022533005944295 0.9082563379904064" fill="#ff7c0b" stroke="none" /><path d="M 79.16333360222342 97.38593545837743 l -6.99402796529612 -0.8774359659157424 a28.048852463601907,28.048852463601907 0 0,0 0.06422385944221491,-0.47854235065919304 l 6.977888106796072 0.9976966586395948" fill="#ff5307" stroke="none" /><path d="M 79.26566170972629 96.67025291283419 l -2.8560789054825233 -0.4586604251898027 a23.892672829750634,23.892672829750634 0 0,0 0.06870638264261839,-0.40550895960206707 l 2.8477606613196818 0.5077551731076977" fill="#ff1802" stroke="none" /><path d="M 79.32604984820605 96.31383870115002 l -18.490753720749122 -3.2968977989954817 a39.78237227451364,39.78237227451364 0 0,0 0.12600455680893652,-0.6731213809371348 l 18.431263440030325 3.614697257395189" fill="#ffed16" stroke="none" /><path d="M 79.54389044137918 95.25157060432595 l -6.122113257555746 -1.4211119896731461 a27.284889022531154,27.284889022531154 0 0,0 0.11013636369687622,-0.45658633119294534 l 6.096744093598056 1.5262835525254883" fill="#ff4806" stroke="none" /><path d="M 79.71946130924805 94.55025226153421 l -4.488176444708657 -1.2060542277676316 a25.647396539908534,25.647396539908534 0 0,0 0.1182384421711281,-0.4253665862658222 l 4.466751231971168 1.2831321174523964" fill="#ff3104" stroke="none" /><path d="M 79.81627453868168 94.20196356495316 l -10.78354791685052 -3.0977137417370053 a32.21965846631516,32.21965846631516 0 0,0 0.1577138517815268,-0.531732704451805 l 10.728628167957284 3.2828758329353493" fill="#ff8c0c" stroke="none" /><path d="M 79.91906864156998 93.8553929516997 l -5.260975967122452 -1.6098172655198257 a26.50176151382498,26.50176151382498 0 0,0 0.137234344529111,-0.435070374823715 l 5.232486138825137 1.7001378067699553" fill="#ff3d05" stroke="none" /><path d="M 80.14247586403 93.16781622104843 l -7.165897010354148 -2.465499977768886 a28.578177228290514,28.578177228290514 0 0,0 0.1640481533781751,-0.4637862205620181 l 7.122395776166163 2.5884838247575157" fill="#ff5a08" stroke="none" /><path d="M 80.38941819471856 92.48833698450439 l -7.072875674390534 -2.7092035893707913 a28.57399197214025,28.57399197214025 0 0,0 0.17988885925455803,-0.4577975253870026 l 7.025193265254285 2.8305501196535574" fill="#ff5a08" stroke="none" /><path d="M 80.65960295795068 91.81776055985345 l -8.561454762540723 -3.6220493649011662 a30.29611473965399,30.29611473965399 0 0,0 0.20732538779811296,-0.47853557975456035 l 8.49783866489993 3.768884089242326" fill="#ff720a" stroke="none" /><path d="M 80.803312248108 91.48605970444005 l -3.3660719829786756 -1.4928896205447189 a24.682276471657737,24.682276471657737 0 0,0 0.17559404366360218,-0.38689819934023384 l 3.339875622351722 1.5506098287270236" fill="#ff2303" stroke="none" /><path d="M 81.10775173730289 90.83032412892265 l -3.792136432584565 -1.8405782870407685 a25.21521377323394,25.21521377323394 0 0,0 0.1928843625671061,-0.38884310497193963 l 3.7598920570640457 1.9055809805116697" fill="#ff2b04" stroke="none" /><path d="M 81.43458229118936 90.18545643968196 l -4.304169612491514 -2.275384309438274 a25.86859834128194,25.86859834128194 0 0,0 0.21149661046517063,-0.39187109842361134 l 4.264364902807872 2.349136391194358" fill="#ff3404" stroke="none" /><path d="M 81.6062741919709 89.86733742301443 l -2.566853556069349 -1.414018086364695 a23.930560411742494,23.930560411742494 0 0,0 0.201862662691907,-0.3590911524877091 l 2.5421332520850113 1.4579927487871887" fill="#ff1802" stroke="none" /><line stroke="#e1ed5e" stroke-width="0.3" x1="26.266209847984243" x2="21.928928074336255" y1="57.711370442889674" y2="55.22380399835377" /><path d="M 25.398753493254645 57.213857153982495 a86.0,86.0 0 0,1 29.58750427330803,-30.492523968695096" fill="none" id="id131" stroke="none" /><text fill="#e1ed5e" style="font-size:6.75px; font-family:Arial;" text-anchor="middle"><textPath startOffset="21.46611528233685" xlink:href="#id131">November</textPath></text><path d="M 81.96595687620814 89.24020034530311 l -16.49902701980175 -9.843950356106872 a40.21252849610495,40.21252849610495 0 0,0 0.3597761340658777,-0.5913773676393365 l 16.327135087449655 10.126495496953282" fill="#fff216" stroke="none" /><path d="M 82.95767976084542 87.72973835380427 l -3.1100130990685586 -2.2391713049138375 a24.83224080782087,24.83224080782087 0 0,0 0.25274182265218925,-0.344739562060616 l 3.071008663902736 2.2923733106459543" fill="#ff2503" stroke="none" /><path d="M 83.17141714833178 87.43820079747576 l -4.019280160935943 -3.000216403567315 a26.015566915148042,26.015566915148042 0 0,0 0.27096335300250174,-0.35655601058407066 l 3.9670408677093327 3.068957190032412" fill="#ff3605" stroke="none" /><path d="M 83.84228863543731 86.58626213691792 l -4.944292218505772 -4.10463080080574 a27.426042293114783,27.426042293114783 0 0,0 0.3046764086208063,-0.36064076792080985 l 4.872905196397841 4.1891305183556655" fill="#ff4a06" stroke="none" /><path d="M 84.07557802195018 86.31012108654704 l -3.9911833968425863 -3.4311334816091223 a26.26329002391575,26.26329002391575 0 0,0 0.29766079594794287,-0.34027774563990043 l 3.9315307373167996 3.499326783451966" fill="#ff3905" stroke="none" /><path d="M 84.5562425177563 85.77008943001954 l -3.8243824559181965 -3.523794024588104 a26.200290905022307,26.200290905022307 0 0,0 0.3084556231238939,-0.3290389523022025 l 3.7631595108238467 3.589102393768357" fill="#ff3905" stroke="none" /><path d="M 84.80347519578584 85.50635884689758 l -8.093470899803883 -7.719124235055685 a32.184326093341355,32.184326093341355 0 0,0 0.3858069060155345,-0.3976079300334838 l 7.959399730085229 7.8572963606392925" fill="#ff8b0c" stroke="none" /><path d="M 85.31137513191541 84.99185889309783 l -2.791826854970834 -2.852556434774348 a24.99141270751458,24.99141270751458 0 0,0 0.31003246552880276,-0.29825098620030455 l 2.7423111458296034 2.900190507736966" fill="#ff2703" stroke="none" /><path d="M 85.57189188830299 84.74124197986013 l -4.639833063401985 -4.906955882240612 a27.753241213409602,27.753241213409602 0 0,0 0.3499447367833592,-0.32523549448496136 l 4.55468044282377 4.986095962800221" fill="#ff4e07" stroke="none" /><path d="M 86.10567301691215 84.25364557470407 l -3.6685465471332286 -4.157541004121209 a26.544671403197157,26.544671403197157 0 0,0 0.3452149701474665,-0.2993670203070769 l 3.5964377783389883 4.220073017847967" fill="#ff3d05" stroke="none" /><path d="M 86.93701828274178 83.55741782278169 l -3.8755406381477027 -4.8782044408516265 a27.230304471266138,27.230304471266138 0 0,0 0.3695119184479799,-0.28840991344957717 l 3.7909961645402968 4.944192743524425" fill="#ff4706" stroke="none" /><path d="M 87.51073957382395 83.11751280151077 l -3.5043675934624265 -4.737065207755002 a26.89240010629222,26.89240010629222 0 0,0 0.37451468407491517,-0.2721008453429188 l 3.4223075930337297 4.796685287914589" fill="#ff4206" stroke="none" /><path d="M 87.80319425747018 82.90503203632743 l -2.6500558886198893 -3.7143020454880435 a25.56276625501741,25.56276625501741 0 0,0 0.3603970987720128,-0.2524811991510961 l 2.585727650264216 3.759368087403082" fill="#ff3004" stroke="none" /><path d="M 88.39885842347998 82.49532879139004 l -3.964857780095826 -5.982474342865098 a28.17705346778367,28.17705346778367 0 0,0 0.406598872237031,-0.26446321678640317 l 3.861291882074508 6.049836483811037" fill="#ff5407" stroke="none" /><path d="M 88.70189139769569 82.29822771554957 l -2.9373881464949574 -4.6022726378902545 a26.45977678633865,26.45977678633865 0 0,0 0.38603661142093826,-0.24173609065672583 l 2.857732382701777 4.65215306986991" fill="#ff3c05" stroke="none" /><path d="M 89.00827224532344 82.1063720568725 l -5.5357871189417445 -9.011805722404018 a31.576274457699892,31.576274457699892 0 0,0 0.46558154188698164,-0.2805076695594816 l 5.379843510837114 9.10576000142212" fill="#ff830c" stroke="none" /><line stroke="#e1ed5e" stroke-width="0.3" x1="56.762969772571076" x2="54.21961505331055" y1="26.818313649435495" y2="22.513508569990535" /><path d="M 56.25429882871897 25.957352633546506 a86.0,86.0 0 0,1 42.265352541879196,-11.944610805530505" fill="none" id="id132" stroke="none" /><text fill="#e1ed5e" style="font-size:6.75px; font-family:Arial;" text-anchor="middle"><textPath startOffset="22.20632615414155" xlink:href="#id132">December</textPath></text><path d="M 89.63071344664047 81.73862282372117 l -2.829100622629193 -4.982336371323318 a26.729527559055118,26.729527559055118 0 0,0 0.4020578031614475,-0.2237447321605997 l 2.7429187303957 5.030296501044102" fill="#ff4006" stroke="none" /><path d="M 89.94658935756843 81.56283822128135 l -2.7987460152669246 -5.13267933602879 a26.84614201199983,26.84614201199983 0 0,0 0.4076202553395578,-0.2177366236189856 l 2.7099807133990614 5.180094686149525" fill="#ff4206" stroke="none" /><path d="M 90.58718382345135 81.22770947309562 l -2.2292264825049495 -4.445820081360198 a25.97340596635012,25.97340596635012 0 0,0 0.40138650141349747,-0.19695861304116596 l 2.152368714081026 4.483533854536193" fill="#ff3505" stroke="none" /><path d="M 91.90106846888425 80.62456947434976 l -1.7627672613388479 -4.21714573999569 a25.570740269366862,25.570740269366862 0 0,0 0.4075685349868119,-0.16625743885758446 l 1.6899148567636555 4.246864065036851" fill="#ff3004" stroke="none" /><path d="M 92.23578459929587 80.48803036053334 l -1.8853748883893315 -4.738067619547138 a26.099404204137006,26.099404204137006 0 0,0 0.4188542190605902,-0.16250892970478706 l 1.8035375043290651 4.769819253142477" fill="#ff3705" stroke="none" /><path d="M 92.91201910852362 80.23233633223022 l -1.8692677260475292 -5.213199115415182 a26.538195269996223,26.538195269996223 0 0,0 0.43133160120630054,-0.15048312624287846 l 1.7792541207779433 5.2446030948302695" fill="#ff3d05" stroke="none" /><path d="M 93.25333710446033 80.11325718540243 l -1.8590806520100467 -5.47990308253883 a26.786667319338193,26.786667319338193 0 0,0 0.43792014407650837,-0.144375386351561 l 1.764477685691129 5.511092193149625" fill="#ff4106" stroke="none" /><path d="M 93.59665428221793 80.00007090966166 l -0.7381655792061479 -2.305553985638156 a23.42084026796828,23.42084026796828 0 0,0 0.3850103163765822,-0.11962457943239044 l 0.698369890118837 2.317918699953072" fill="#ff1101" stroke="none" /><path d="M 94.28887869178378 79.79150937346287 l -1.361652058483376 -4.818131392320351 a26.00684396022433,26.00684396022433 0 0,0 0.4318400658837861,-0.11803820285903491 l 1.2785141033758674 4.840856136005682" fill="#ff3605" stroke="none" /><path d="M 94.63758080256005 79.69619591428918 l -1.046388347680194 -3.9619550853115184 a25.097806324387072,25.097806324387072 0 0,0 0.41864468899705704,-0.10672185273818677 l 0.9780347699981375 3.979379934218568" fill="#ff2904" stroke="none" /></svg>