<?xml version="1.0" encoding="utf-8" ?>
<svg baseProfile="full" height="200mm" version="1.1" viewBox="0,0,200,200" width="200mm" xmlns="http://www.w3.org/2000/svg" xmlns:ev="http://www.w3.org/2001/xml-events" xmlns:xlink="http://www.w3.org/1999/xlink"><defs /><rect fill="#1a1a1a" height="200" width="200" x="0" y="0" /><text alignment-baseline="middle" fill="#e1ed5e" style="dominant-baseline: central; font-size:9.0px; font-family:Arial;" text-anchor="middle" x="100.0" y="100.0">2021</text><line stroke="#e1ed5e" stroke-width="0.3" x1="100.0" x2="100.0" y1="15.0" y2="10.0" /><path d="M 100.0 14.0 a86.0,86.0 0 0,1 42.46469731375804,11.215312516191453" fill="none" id="id73" stroke="none" /><text fill="#e1ed5e" style="font-size:6.75px; font-family:Arial;" text-anchor="middle"><textPath startOffset="22.20632615414155" xlink:href="#id73">January</textPath></text><line stroke="#e1ed5e" stroke-width="0.3" x1="143.23703022742887" x2="145.7803849466894" y1="26.81831364943548" y2="22.513508569990506" /><path d="M 143.74570117128098 25.957352633546492 a86.0,86.0 0 0,1 28.547481713284135,27.462654790039103" fill="none" id="id74" stroke="none" /><text fill="#e1ed5e" style="font-size:6.75px; font-family:Arial;" text-anchor="middle"><textPath startOffset="19.985693538727396" xlink:href="#id74">February</textPath></text><path d="M 115.9244219780498 86.31012108654704 l 14.671344325495134 -12.61263533398282 a40.34752992981973,40.34752992981973 0 0,0 0.448221452601801,0.5305528235567372 l -14.886276391584051 12.358223560796976" fill="#ff0000" stroke="none" /><path d="M 117.45458315368197 88.32363383020206 l 24.768358535952718 -16.568967654184164 a50.79936700151369,50.79936700151369 0 0,0 0.4799412064184722,0.7309833842488604 l -25.049896377729112 16.140166205957627" fill="#ffcb12" stroke="none" /><line stroke="#e1ed5e" stroke-width="0.3" x1="172.23445277983987" x2="176.4835382374775" y1="55.19839476539836" y2="52.563006222186495" /><path d="M 173.08426987136738 54.67131705675599 a86.0,86.0 0 0,1 12.851231095245387,41.99856678651699" fill="none" id="id75" stroke="none" /><text fill="#e1ed5e" style="font-size:6.75px; font-family:Arial;" text-anchor="middle"><textPath startOffset="22.20632615414155" xlink:href="#id75">March</textPath></text><line stroke="#e1ed5e" stroke-width="0.3" x1="184.98032266829074" x2="189.97916517819016" y1="98.17113171792111" y2="98.06355123074" /><path d="M 185.9800911702706 98.14961562048488 a86.0,86.0 0 0,1 -9.607161424134198,41.387399972396054" fill="none" id="id76" stroke="none" /><text fill="#e1ed5e" style="font-size:6.75px; font-family:Arial;" text-anchor="middle"><textPath startOffset="21.466115282336823" xlink:href="#id76">April</textPath></text><line stroke="#e1ed5e" stroke-width="0.3" x1="174.80103733775053" x2="179.2010983576182" y1="140.37084112569926" y2="142.7455964860345" /><path d="M 175.68104954172406 140.8457921977663 a86.0,86.0 0 0,1 -30.038265399797805,32.042727171017184" fill="none" id="id77" stroke="none" /><text fill="#e1ed5e" style="font-size:6.75px; font-family:Arial;" text-anchor="middle"><textPath startOffset="22.206326154141568" xlink:href="#id77">May</textPath></text><path d="M 116.27256486870786 113.27417163493432 l 30.450692921600183 24.839828724314508 a60.297096463464975,60.297096463464975 0 0,0 -0.6629924175342353,0.7986170766684697 l -30.018604504172405 -25.360307058096748" fill="#94ff23" stroke="none" /><path d="M 115.56566222782051 114.09645910891815 l 36.75291252732329 33.283898943218965 a70.58421632035228,70.58421632035228 0 0,0 -0.8233265393560607,0.8935583495046094 l -36.17453957997151 -33.911608547524914" fill="#35ff68" stroke="none" /><path d="M 114.81725581225074 114.88116024355365 l 24.663482359293372 24.769851975509148 a55.95472684739232,55.95472684739232 0 0,0 -0.6883764926582491,0.6737212821123212 l -24.233455914259327 -25.19072336054404" fill="#daff1c" stroke="none" /><path d="M 113.20401910651253 116.32954008644616 l 27.447049945386983 33.94403618492381 a64.65247007018027,64.65247007018027 0 0,0 -0.8713998681276305,0.6922927568848655 l -26.858692584542002 -34.4114628558138" fill="#53ff2b" stroke="none" /><line stroke="#e1ed5e" stroke-width="0.3" x1="143.8653032363475" x2="146.44561519142675" y1="172.8068346515853" y2="177.08958963109032" /><path d="M 144.38136562736335 173.6633856474863 a86.0,86.0 0 0,1 -40.68145358897372,12.25698825130547" fill="none" id="id78" stroke="none" /><text fill="#e1ed5e" style="font-size:6.75px; font-family:Arial;" text-anchor="middle"><textPath startOffset="21.466115282336833" xlink:href="#id78">June</textPath></text><path d="M 107.59598834532513 119.57807347666477 l 16.318430996436053 42.05949595337805 a66.11421494426861,66.11421494426861 0 0,0 -1.0645326144625373,0.40251514635481317 l -15.592028161213241 -42.33415934983949" fill="#3eff2d" stroke="none" /><path d="M 104.48393922423573 120.51570834832081 l 5.475605339076909 25.052953786669004 a46.64435117655154,46.64435117655154 0 0,0 -0.7858652248738367,0.16468569869677233 l -5.043548652773694 -25.14349546609232" fill="#ff7e0b" stroke="none" /><line stroke="#e1ed5e" stroke-width="0.3" x1="102.19456741930631" x2="102.32365962044197" y1="184.97166512339345" y2="189.96999836594603" /><path d="M 102.22038585953345 185.97133177190398 a86.0,86.0 0 0,1 -42.740103519485714,-10.115201625700543" fill="none" id="id79" stroke="none" /><text fill="#e1ed5e" style="font-size:6.75px; font-family:Arial;" text-anchor="middle"><textPath startOffset="22.20632615414155" xlink:href="#id79">July</textPath></text><path d="M 99.45781275523022 120.99299961872073 l -0.8884499395511962 34.39997790831519 a55.41144901610018,55.41144901610018 0 0,0 -0.953287086368339,-0.03283313474331247 l 1.4804573775941783 -34.37958797514579" fill="#e3ff1b" stroke="none" /><path d="M 98.01472825383883 120.90594882070398 l -3.7333235070579214 39.31384724564933 a60.49071143525526,60.49071143525526 0 0,0 -1.035737525726432,-0.10735842941677616 l 4.409493629389947 -39.24375944777679" fill="#91ff24" stroke="none" /><path d="M 96.22490169976321 120.6578951692458 l -7.863013218031402 43.02756904695649 a64.74012659969728,64.74012659969728 0 0,0 -1.0945162656962373,-0.20976664729134592 l 8.602497098299335 -42.88584520131668" fill="#52ff2b" stroke="none" /><path d="M 95.51606077576429 120.51570834832081 l -12.444520193201873 56.938360234361966 a79.28244117242329,79.28244117242329 0 0,0 -1.3307363342964247,-0.30287125718031865 l 13.422776676891159 -56.71571224360396" fill="#45ffed" stroke="none" /><line stroke="#e1ed5e" stroke-width="0.3" x1="58.666819895761336" x2="56.23545636021788" y1="174.27360380694188" y2="178.64263932499728" /><path d="M 58.180547188652646 175.14741091055294 a86.0,86.0 0 0,1 -31.652253787137756,-30.449443065178592" fill="none" id="id80" stroke="none" /><text fill="#e1ed5e" style="font-size:6.75px; font-family:Arial;" text-anchor="middle"><textPath startOffset="22.20632615414155" xlink:href="#id80">August</textPath></text><path d="M 89.7882731507175 118.34994917583269 l -23.766469822748697 42.707126793843166 a69.87477638640428,69.87477638640428 0 0,0 -1.0459629580081473,-0.5939250655133852 l 24.49808154767805 -42.291698562535146" fill="#34ff5d" stroke="none" /><path d="M 87.07902340077011 116.55440617244103 l -38.76292979768965 49.663218517323095 a84.0,84.0 0 0,0 -1.1321700291305676,-0.8994643439794774 l 39.61205731953757 -48.98862025933849" fill="#4dd2ff" stroke="none" /><path d="M 85.70375840098266 115.38237550388516 l -26.852093986356678 28.892138531860446 a60.443511765515346,60.443511765515346 0 0,0 -0.7560164087799013,-0.7148607026663727 l 27.345446229527397 -28.425643192448142" fill="#92ff23" stroke="none" /><path d="M 84.19399662182784 113.82643327865904 l -38.334687657408566 33.53358774333549 a71.9318150543553,71.9318150543553 0 0,0 -0.8072033817965831,-0.9389598954893418 l 38.90623354877593 -32.86875074868462" fill="#38ff7e" stroke="none" /><line stroke="#e1ed5e" stroke-width="0.3" x1="26.63291911575756" x2="22.317208475507996" y1="142.92168965132927" y2="145.44649492493687" /><path d="M 25.769776987707644 143.4266507060508 a86.0,86.0 0 0,1 -11.730757126820373,-40.83630448921669" fill="none" id="id81" stroke="none" /><text fill="#e1ed5e" style="font-size:6.75px; font-family:Arial;" text-anchor="middle"><textPath startOffset="21.46611528233685" xlink:href="#id81">September</textPath></text><path d="M 81.18737489456691 109.33194174019688 l -35.73501328166792 17.726237575072847 a60.88998211091234,60.88998211091234 0 0,0 -0.45768025623788255,-0.9429568882640446 l 36.03484679452052 -17.108491730843518" fill="#8bff24" stroke="none" /><path d="M 80.45479744820244 107.68017299344265 l -45.1885871942023 17.756590961950526 a69.55208476675381,69.55208476675381 0 0,0 -0.42826106793040114,-1.1180545092799337 l 45.48754254172621 -16.976112885837434" fill="#34ff57" stroke="none" /><path d="M 79.18660465613746 102.79330883721812 l -24.788285097276226 3.3267679144970397 a46.01052704004403,46.01052704004403 0 0,0 -0.09859067978852694,-0.7858647221496621 l 24.8418772863116 -2.8995854380599693" fill="#ff710a" stroke="none" /><line stroke="#e1ed5e" stroke-width="0.3" x1="15.007084014347285" x2="10.007500721073583" y1="101.09737516637583" y2="101.16192664675087" /><path d="M 14.007167355692545 101.11028546245083 a86.0,86.0 0 0,1 10.666146001902534,-42.60595125391555" fill="none" id="id82" stroke="none" /><text fill="#e1ed5e" style="font-size:6.75px; font-family:Arial;" text-anchor="middle"><textPath startOffset="22.20632615414155" xlink:href="#id82">October</textPath></text><path d="M 79.16333360222342 97.38593545837743 l -42.95358207952277 -5.388742791492608 a64.29028484931882,64.29028484931882 0 0,0 0.14720638653651313,-1.0968585640452027 l 42.85445969392842 6.12731969760247" fill="#58ff2a" stroke="none" /><path d="M 79.71946130924805 94.55025226153421 l -37.80146919719513 -10.157938820532387 a60.14249346360259,60.14249346360259 0 0,0 0.2772661437334717,-0.9974738408368053 l 37.621016282895305 10.807123964788135" fill="#96ff23" stroke="none" /><path d="M 80.2630227832202 92.82701384747504 l -50.8525241390363 -18.481272358167207 a75.10671528828954,75.10671528828954 0 0,0 0.45205448500735496,-1.2112812724699191 l 50.52686506552732 19.353876767666467" fill="#3dffb0" stroke="none" /><path d="M 81.6062741919709 89.86733742301443 l -45.60337937020235 -25.121808400928725 a73.06508875739645,73.06508875739645 0 0,0 0.6163296267458626,-1.0963816340730572 l 45.16419210216406 25.903073544936564" fill="#3aff90" stroke="none" /><line stroke="#e1ed5e" stroke-width="0.3" x1="26.266209847984243" x2="21.928928074336255" y1="57.711370442889674" y2="55.22380399835377" /><path d="M 25.398753493254645 57.213857153982495 a86.0,86.0 0 0,1 29.58750427330803,-30.492523968695096" fill="none" id="id83" stroke="none" /><text fill="#e1ed5e" style="font-size:6.75px; font-family:Arial;" text-anchor="middle"><textPath startOffset="21.46611528233685" xlink:href="#id83">November</textPath></text><path d="M 84.07557802195018 86.31012108654704 l -18.9963065993373 -16.33071125006717 a46.050983899821105,46.050983899821105 0 0,0 0.5219289932572929,-0.5966550638423832 l 18.71238574250216 16.655281870112496" fill="#ff720a" stroke="none" /><path d="M 84.5562425177563 85.77008943001954 l -43.97443646932526 -40.518138091927305 a80.79523875051603,80.79523875051603 0 0,0 0.9512011070631654,-1.0146750204357502 l 43.27046804029165 41.26908252924111" fill="#47fcff" stroke="none" /><line stroke="#e1ed5e" stroke-width="0.3" x1="56.762969772571076" x2="54.21961505331055" y1="26.818313649435495" y2="22.513508569990535" /><path d="M 56.25429882871897 25.957352633546506 a86.0,86.0 0 0,1 42.265352541879196,-11.944610805530505" fill="none" id="id84" stroke="none" /><text fill="#e1ed5e" style="font-size:6.75px; font-family:Arial;" text-anchor="middle"><textPath startOffset="22.20632615414155" xlink:href="#id84">December</textPath></text></svg>