<?xml version="1.0" encoding="utf-8" ?>
<svg baseProfile="full" height="200mm" version="1.1" viewBox="0,0,200,200" width="200mm" xmlns="http://www.w3.org/2000/svg" xmlns:ev="http://www.w3.org/2001/xml-events" xmlns:xlink="http://www.w3.org/1999/xlink"><defs /><rect fill="#1a1a1a" height="200" width="200" x="0" y="0" /><text alignment-baseline="middle" fill="#e1ed5e" style="dominant-baseline: central; font-size:9.0px; font-family:Arial;" text-anchor="middle" x="100.0" y="100.0">2022</text><line stroke="#e1ed5e" stroke-width="0.3" x1="100.0" x2="100.0" y1="15.0" y2="10.0" /><path d="M 100.0 14.0 a86.0,86.0 0 0,1 42.46469731375804,11.215312516191453" fill="none" id="id85" stroke="none" /><text fill="#e1ed5e" style="font-size:6.75px; font-family:Arial;" text-anchor="middle"><textPath startOffset="22.20632615414155" xlink:href="#id85">January</textPath></text><path d="M 102.52436894288641 79.15227682838746 l 1.4072174477346997 -11.621629189864542 a32.70651638925605,32.70651638925605 0 0,0 0.5583240193983351,0.07248648172455342 l -1.6070561956408809 11.595684384975852" fill="#ff910d" stroke="none" /><path d="M 104.307194497241 79.44645832069477 l 1.1733959315260312 -5.599339012992335 a26.720966299021505,26.720966299021505 0 0,0 0.4493668412451343,0.09821418648188583 l -1.2696054969246935 5.578311328414578" fill="#ff3e05" stroke="none" /><line stroke="#e1ed5e" stroke-width="0.3" x1="143.23703022742887" x2="145.7803849466894" y1="26.81831364943548" y2="22.513508569990506" /><path d="M 143.74570117128098 25.957352633546492 a86.0,86.0 0 0,1 28.547481713284135,27.462654790039103" fill="none" id="id86" stroke="none" /><text fill="#e1ed5e" style="font-size:6.75px; font-family:Arial;" text-anchor="middle"><textPath startOffset="19.985693538727396" xlink:href="#id86">February</textPath></text><path d="M 114.94478906791727 85.2469230424477 l 4.010872728640804 -3.9594211576806133 a26.63596628354388,26.63596628354388 0 0,0 0.31929640877938475,0.32906301619386846 l -4.078433401123298 3.8897939459366304" fill="#ff3d05" stroke="none" /><path d="M 117.04232023915458 87.72973835380427 l 6.962112663681422 -5.01263576759907 a29.578900283859625,29.578900283859625 0 0,0 0.29394015282480235,0.41575750062494105 l -7.047365436310107 4.892051766642336" fill="#ff6609" stroke="none" /><line stroke="#e1ed5e" stroke-width="0.3" x1="172.23445277983987" x2="176.4835382374775" y1="55.19839476539836" y2="52.563006222186495" /><path d="M 173.08426987136738 54.67131705675599 a86.0,86.0 0 0,1 12.851231095245387,41.99856678651699" fill="none" id="id87" stroke="none" /><text fill="#e1ed5e" style="font-size:6.75px; font-family:Arial;" text-anchor="middle"><textPath startOffset="22.20632615414155" xlink:href="#id87">March</textPath></text><path d="M 118.21658344932153 89.55222093294921 l 12.214653449197357 -7.005484918334503 a35.08100059743629,35.08100059743629 0 0,0 0.2959205329357824,0.5264096083923582 l -12.333431623425572 6.794191800007351" fill="#ffb010" stroke="none" /><path d="M 118.73160827565052 90.50648371742162 l 9.102684454191474 -4.61340434891402 a31.20501660749055,31.20501660749055 0 0,0 0.23870349826742696,0.4812116866222306 l -9.180747965412309 4.45603307379284" fill="#ff7d0b" stroke="none" /><path d="M 119.196687751892 91.48605970444005 l 8.308596487661912 -3.684953120565323 a30.089095394787755,30.089095394787755 0 0,0 0.20590869241241963,0.47526565147935285 l -8.370795889917012 3.5413883244993674" fill="#ff6d0a" stroke="none" /><path d="M 120.45610955862082 95.25157060432595 l 8.610669657340623 -1.9987748305798325 a29.839611573548122,29.839611573548122 0 0,0 0.1118354724055809,0.5013364940617777 l -8.64379951674824 1.850260166968091" fill="#ff6a09" stroke="none" /><path d="M 120.87857604477298 97.74499172005257 l 14.521979209969636 -1.5684586577878386 a35.60643497695382,35.60643497695382 0 0,0 0.060569723885029444,0.6099288535996075 l -14.546826059536894 1.318254273483796" fill="#ffb711" stroke="none" /><path d="M 120.98425023603335 99.18683210126433 l 11.383993033879554 -0.44114502974642317 a32.39253730881265,32.39253730881265 0 0,0 0.016795230646441377,0.5573519395392139 l -11.389899958981639 0.24512294278221022" fill="#ff8d0c" stroke="none" /><line stroke="#e1ed5e" stroke-width="0.3" x1="184.98032266829074" x2="189.97916517819016" y1="98.17113171792111" y2="98.06355123074" /><path d="M 185.9800911702706 98.14961562048488 a86.0,86.0 0 0,1 -9.607161424134198,41.387399972396054" fill="none" id="id88" stroke="none" /><text fill="#e1ed5e" style="font-size:6.75px; font-family:Arial;" text-anchor="middle"><textPath startOffset="21.466115282336823" xlink:href="#id88">April</textPath></text><path d="M 120.70491114924044 103.5080841355445 l 27.637295844490264 4.68265516343271 a49.03118586459556,49.03118586459556 0 0,0 -0.14815253235414616,0.8309180799297159 l -27.55259686979693 -5.157691994095644" fill="#a5ff21" stroke="none" /><path d="M 120.41448212921028 104.9243191809786 l 28.654837936438685 6.912032702330267 a50.476701532594326,50.476701532594326 0 0,0 -0.2110134898222354,0.8428939993584584 l -28.531613132321386 -7.404254541086122" fill="#95ff23" stroke="none" /><path d="M 119.67450827220406 107.3425965602758 l 29.35830007966693 10.95662215279131 a52.336198757456344,52.336198757456344 0 0,0 -0.3222557087462052,0.8413079667644648 l -29.165350091327216 -11.460353686388919" fill="#81ff25" stroke="none" /><path d="M 118.64920377521936 109.65438752849418 l 12.472819760265152 6.4569746242286055 a35.045061554510646,35.045061554510646 0 0,0 -0.2819416785113716,0.5333274032477989 l -12.359825573528887 -6.670717042562538" fill="#ffb010" stroke="none" /><line stroke="#e1ed5e" stroke-width="0.3" x1="174.80103733775053" x2="179.2010983576182" y1="140.37084112569926" y2="142.7455964860345" /><path d="M 175.68104954172406 140.8457921977663 a86.0,86.0 0 0,1 -30.038265399797805,32.042727171017184" fill="none" id="id89" stroke="none" /><text fill="#e1ed5e" style="font-size:6.75px; font-family:Arial;" text-anchor="middle"><textPath startOffset="22.206326154141568" xlink:href="#id89">May</textPath></text><path d="M 118.48025628344425 109.97397251340804 l 30.36233744115665 16.38684628806869 a55.50217770169665,55.50217770169665 0 0,0 -0.4609947199042997,0.8368393215943388 l -30.07576631180084 -16.907056128060834" fill="#5fff29" stroke="none" /><path d="M 117.14729908036423 112.12312394758627 l 14.937022148020075 10.56046028354701 a39.29311214776797,39.29311214776797 0 0,0 -0.39521425266953686,0.5489180305426213 l -14.753028102974936 -10.816011919540763" fill="#ffe615" stroke="none" /><path d="M 115.56566222782051 114.09645910891815 l 20.930980064123002 18.955358292186453 a49.238476135051556,49.238476135051556 0 0,0 -0.574340075909419,0.6233327188570418 l -20.601593580217862 -19.31284226584483" fill="#a3ff22" stroke="none" /><path d="M 115.07121518719521 114.62390073753431 l 10.315648963325929 10.009479966227046 a35.37366698963309,35.37366698963309 0 0,0 -0.42778449324670725,0.4333434331354989 l -10.141823845023687 -10.18556389334321" fill="#ffb410" stroke="none" /><path d="M 113.75828350139079 115.86535959552629 l 6.564411286271512 7.56974847764264 a31.019610149606713,31.019610149606713 0 0,0 -0.4064078883465634,0.3463496192797858 l -6.433137921347901 -7.681622487145372" fill="#ff7a0b" stroke="none" /><path d="M 112.04921762599082 117.19931262002967 l 10.778937435528231 15.38608733113874 a39.786089949759635,39.786089949759635 0 0,0 -0.564286332348124,0.3881212848265295 l -10.512494218557224 -15.569349405330364" fill="#ffec16" stroke="none" /><path d="M 111.1453310114006 117.79835938074945 l 8.265073939377299 13.198778585492864 a36.57302807331441,36.57302807331441 0 0,0 -0.5364406365733543,0.3295256530705042 l -8.036654102871635 -13.339092705391746" fill="#ffc312" stroke="none" /><line stroke="#e1ed5e" stroke-width="0.3" x1="143.8653032363475" x2="146.44561519142675" y1="172.8068346515853" y2="177.08958963109032" /><path d="M 144.38136562736335 173.6633856474863 a86.0,86.0 0 0,1 -40.68145358897372,12.25698825130547" fill="none" id="id90" stroke="none" /><text fill="#e1ed5e" style="font-size:6.75px; font-family:Arial;" text-anchor="middle"><textPath startOffset="21.466115282336833" xlink:href="#id90">June</textPath></text><line stroke="#e1ed5e" stroke-width="0.3" x1="102.19456741930631" x2="102.32365962044197" y1="184.97166512339345" y2="189.96999836594603" /><path d="M 102.22038585953345 185.97133177190398 a86.0,86.0 0 0,1 -42.740103519485714,-10.115201625700543" fill="none" id="id91" stroke="none" /><text fill="#e1ed5e" style="font-size:6.75px; font-family:Arial;" text-anchor="middle"><textPath startOffset="22.20632615414155" xlink:href="#id91">July</textPath></text><path d="M 100.18074693466247 120.99922214144158 l 0.24589596527747476 28.568252115526878 a49.56931034802985,49.56931034802985 0 0,0 -0.8532857998798408,0.0 l 0.24589596527745508 -28.568252115526878" fill="#9fff22" stroke="none" /><path d="M 99.09653310690486 120.98055641714683 l -0.7294663471863216 16.93986793375618 a37.95556683702371,37.95556683702371 0 0,0 -0.6524958332521358,-0.03372658150614399 l 1.0209502488519464 -16.924801545487835" fill="#ffd513" stroke="none" /><path d="M 93.76903079525671 120.05430185196036 l -9.810058919056925 31.57356043398849 a54.0624707859847,54.0624707859847 0 0,0 -0.8863121296790069,-0.28376915510866046 l 10.35209239382687 -31.400018432220126" fill="#6eff28" stroke="none" /><path d="M 90.7491055286396 118.85261126421891 l -11.187054894516905 22.79835725839709 a46.395182434754076,46.395182434754076 0 0,0 -0.7139248526731529,-0.3579767419671441 l 11.577833654872817 -22.602412675520647" fill="#c3ff1e" stroke="none" /><path d="M 90.10565033884886 118.52300852407294 l -13.710306752801923 25.66678332047735 a50.0990769145047,50.0990769145047 0 0,0 -0.7571573409096288,-0.4128625522981688 l 14.150086905580192 -25.426980116419415" fill="#99ff23" stroke="none" /><line stroke="#e1ed5e" stroke-width="0.3" x1="58.666819895761336" x2="56.23545636021788" y1="174.27360380694188" y2="178.64263932499728" /><path d="M 58.180547188652646 175.14741091055294 a86.0,86.0 0 0,1 -31.652253787137756,-30.449443065178592" fill="none" id="id92" stroke="none" /><text fill="#e1ed5e" style="font-size:6.75px; font-family:Arial;" text-anchor="middle"><textPath startOffset="22.20632615414155" xlink:href="#id92">August</textPath></text><path d="M 88.24862548938628 117.40417183066458 l -14.105755819251513 20.8910879197934 a46.207338251090405,46.207338251090405 0 0,0 -0.6553589322851741,-0.4507618495075309 l 14.463271636159577 -20.645185280920767" fill="#c5ff1e" stroke="none" /><path d="M 87.36589467227662 116.77436683061367 l -8.421772191885237 11.181630392185491 a34.998396518153704,34.998396518153704 0 0,0 -0.47809688142151807,-0.36658430157713734 l 8.612997801800242 -11.035006748780988" fill="#ffaf10" stroke="none" /><path d="M 86.51685102203217 116.09983520530335 l -11.025521374703448 13.165253715977931 a38.1722458341975,38.1722458341975 0 0,0 -0.5001191745512079,-0.42621241040632657 l 11.250506025831712 -12.973516915348652" fill="#ffd814" stroke="none" /><path d="M 84.19399662182784 113.82643327865904 l -1.0484544737744155 0.9171442951462857 a22.39298615990862,22.39298615990862 0 0,0 -0.25128928198382616,-0.2923062059328502 l 1.0640862653290204 -0.8989609900519052" fill="#ff0000" stroke="none" /><path d="M 83.95833913139862 113.55231037782056 l -6.446660229869335 5.44626526213046 a29.43926735119038,29.43926735119038 0 0,0 -0.32369736150445116,-0.3899143244072375 l 6.539453591267322 -5.334489680609462" fill="#ff6409" stroke="none" /><path d="M 83.50135304334701 112.99209946851258 l -26.4095422855553 20.796578118999278 a54.61490123728126,54.61490123728126 0 0,0 -0.5752592300950045,-0.7436001006223836 l 26.763608332868372 -20.338900024263644" fill="#68ff28" stroke="none" /><path d="M 82.85270091963577 112.12312394758628 l -51.44189724109269 36.36937184275885 a84.0,84.0 0 0,0 -0.8245563713514645,-1.1878349512519497 l 52.06031451960629 -35.47849562931989" fill="#4dd2ff" stroke="none" /><path d="M 82.05923443525364 110.91462005526583 l -14.57679417166621 8.868081433502603 a38.0624088754887,38.0624088754887 0 0,0 -0.3357088590825649,-0.5626673577598768 l 14.727283906447006 -8.615851981856615" fill="#ffd614" stroke="none" /><line stroke="#e1ed5e" stroke-width="0.3" x1="26.63291911575756" x2="22.317208475507996" y1="142.92168965132927" y2="145.44649492493687" /><path d="M 25.769776987707644 143.4266507060508 a86.0,86.0 0 0,1 -11.730757126820373,-40.83630448921669" fill="none" id="id93" stroke="none" /><text fill="#e1ed5e" style="font-size:6.75px; font-family:Arial;" text-anchor="middle"><textPath startOffset="21.46611528233685" xlink:href="#id93">September</textPath></text><path d="M 81.51974371655577 109.97397251340807 l -26.379812787712556 14.237439330817473 a50.97664426538553,50.97664426538553 0 0,0 -0.4101131517975776,-0.7757795280244356 l 26.62097844773502 -13.78124478770691" fill="#8fff24" stroke="none" /><path d="M 80.58989483394504 108.01547362559985 l -8.396202707050428 3.4672424893013183 a30.083941345996095,30.083941345996095 0 0,0 -0.19353627755610261,-0.48034116909964075 l 8.454641598863919 -3.322201952358872" fill="#ff6d0a" stroke="none" /><path d="M 79.86692584326677 105.97154293290107 l -15.357226190302564 4.555009076693571 a37.018505047253186,37.018505047253186 0 0,0 -0.1759390178659423,-0.6124668022220715 l 15.43335784505461 -4.289984798966903" fill="#ffc912" stroke="none" /><path d="M 79.67330655649465 105.27499134158121 l -21.61039670709965 5.608125878166801 a43.3262249765514,43.3262249765514 0 0,0 -0.18112154034514552,-0.723490520156284 l 21.703729561739856 -5.235307518613125" fill="#e7ff1a" stroke="none" /><line stroke="#e1ed5e" stroke-width="0.3" x1="15.007084014347285" x2="10.007500721073583" y1="101.09737516637583" y2="101.16192664675087" /><path d="M 14.007167355692545 101.11028546245083 a86.0,86.0 0 0,1 10.666146001902534,-42.60595125391555" fill="none" id="id94" stroke="none" /><text fill="#e1ed5e" style="font-size:6.75px; font-family:Arial;" text-anchor="middle"><textPath startOffset="22.20632615414155" xlink:href="#id94">October</textPath></text><path d="M 79.21141760316559 97.0276538004421 l -5.455312616172833 -0.7799992040126197 a26.510792547214493,26.510792547214493 0 0,0 0.06847877409236455,-0.451189561312551 l 5.441077948641166 0.8737878777172627" fill="#ff3b05" stroke="none" /><path d="M 79.32604984820605 96.31383870115002 l -13.909139723338699 -2.4799969126373806 a35.12850142548917,35.12850142548917 0 0,0 0.11126413535465744,-0.5943774601125509 l 13.86438986407418 2.719052450212504" fill="#ffb110" stroke="none" /><path d="M 79.62865764111835 94.90015583598534 l -40.813230835560574 -10.21734912822618 a63.07272316412163,63.07272316412163 0 0,0 0.2727254582014704,-1.0509224421663397 l 40.6313090454888 10.918367995941383" fill="#33ff51" stroke="none" /><path d="M 79.91906864156998 93.8553929516997 l -13.591951253980728 -4.159030175674768 a35.214030775707556,35.214030775707556 0 0,0 0.18234917815599522,-0.5780967261609666 l 13.51834659205653 4.392377068262149" fill="#ffb210" stroke="none" /><path d="M 80.52162464483688 92.15188598940014 l -12.99352825877159 -5.235277034938134 a35.00856531712104,35.00856531712104 0 0,0 0.23002013271384072,-0.5570119963998275 l 12.90148643917155 5.458163601791273" fill="#ffaf10" stroke="none" /><path d="M 80.803312248108 91.48605970444005 l -25.931367885077513 -11.50084435446374 a49.367327354843106,49.367327354843106 0 0,0 0.3512078249773957,-0.7738398879763397 l 25.729557743136763 11.945506251282152" fill="#a1ff22" stroke="none" /><path d="M 81.43458229118936 90.18545643968196 l -26.184144447789503 -13.842156977191614 a50.61781103059307,50.61781103059307 0 0,0 0.4138413423448918,-0.7667851557578563 l 25.94199500622614 14.290823116281944" fill="#93ff23" stroke="none" /><line stroke="#e1ed5e" stroke-width="0.3" x1="26.266209847984243" x2="21.928928074336255" y1="57.711370442889674" y2="55.22380399835377" /><path d="M 25.398753493254645 57.213857153982495 a86.0,86.0 0 0,1 29.58750427330803,-30.492523968695096" fill="none" id="id95" stroke="none" /><text fill="#e1ed5e" style="font-size:6.75px; font-family:Arial;" text-anchor="middle"><textPath startOffset="21.46611528233685" xlink:href="#id95">November</textPath></text><path d="M 82.15384107792192 88.93136811851018 l -24.34364242464426 -15.098532845611889 a49.64574349862403,49.64574349862403 0 0,0 0.4566756003707416,-0.7223511289038697 l 24.080139228027555 15.515331622229974" fill="#9eff22" stroke="none" /><path d="M 82.7489923806493 88.02491185347247 l -48.997787034844606 -34.01266938569306 a80.64599578389523,80.64599578389523 0 0,0 0.8014191230213608,-1.1335505147504938 l 48.40505529201936 34.85104640077534" fill="#49f1ff" stroke="none" /><path d="M 84.80347519578584 85.50635884689758 l -6.588458785984508 -6.283723326637391 a30.10455754116274,30.10455754116274 0 0,0 0.36087585516744963,-0.37191429063329273 l 6.479318667113939 6.396201812820808" fill="#ff6e0a" stroke="none" /><path d="M 85.31137513191541 84.99185889309783 l -20.43980088620918 -20.88442033561266 a50.22232832993342,50.22232832993342 0 0,0 0.6230360987974258,-0.5993602334122631 l 20.07728154379933 21.233163655787237" fill="#98ff23" stroke="none" /><path d="M 85.83668400450813 84.49514656593479 l -30.700317691981475 -33.60822609231639 a66.51947239875312,66.51947239875312 0 0,0 0.8520479612465545,-0.7649770724020705 l 30.117258743138947 34.131702173487746" fill="#37ff79" stroke="none" /><path d="M 86.65592168130627 83.78471172551755 l -5.951472301779241 -7.2320348192017345 a30.366021043377586,30.366021043377586 0 0,0 0.4064659673529667,-0.3286672111194627 l 5.8261029358617735 7.333408127585331" fill="#ff710a" stroke="none" /><path d="M 87.51073957382395 83.11751280151077 l -6.884718002932793 -9.306488901946041 a32.576272183304596,32.576272183304596 0 0,0 0.45367063694006887,-0.3296110114442409 l 6.723502049638942 9.423619148206951" fill="#ff8f0d" stroke="none" /><path d="M 88.09926311788651 82.69761687909137 l -8.783265870102104 -12.769917749019118 a36.49892120960727,36.49892120960727 0 0,0 0.5207097835059012,-0.3515855702215778 l 8.562151392189664 12.919215231539361" fill="#ffc212" stroke="none" /><path d="M 89.00827224532344 82.1063720568725 l -4.8693657895163 -7.926926658052208 a30.303058068949717,30.303058068949717 0 0,0 0.4468083946550564,-0.26919705840642455 l 4.732195328643594 8.009570325917252" fill="#ff700a" stroke="none" /><line stroke="#e1ed5e" stroke-width="0.3" x1="56.762969772571076" x2="54.21961505331055" y1="26.818313649435495" y2="22.513508569990535" /><path d="M 56.25429882871897 25.957352633546506 a86.0,86.0 0 0,1 42.265352541879196,-11.944610805530505" fill="none" id="id96" stroke="none" /><text fill="#e1ed5e" style="font-size:6.75px; font-family:Arial;" text-anchor="middle"><textPath startOffset="22.20632615414155" xlink:href="#id96">December</textPath></text><path d="M 89.94658935756843 81.56283822128135 l -10.968871464738692 -20.11604468555203 a43.91225425402496,43.91225425402496 0 0,0 0.6667447517621121,-0.3561519555583096 l 10.620981666448275 20.301875367612087" fill="#e0ff1b" stroke="none" /><path d="M 90.91171255644093 81.06846463323043 l -6.66089418858672 -13.875106249517666 a36.391104080830345,36.391104080830345 0 0,0 0.5670458176243535,-0.26623561462893625 l 6.421070159662758 13.98770684678661" fill="#ffc111" stroke="none" /><path d="M 91.56875222667455 80.76684994638697 l -7.31062914618056 -16.676823067595564 a39.2088364850935,39.2088364850935 0 0,0 0.6204634858162157,-0.26565008395852546 l 7.022481902574036 16.800192679516876" fill="#ffe515" stroke="none" /><path d="M 92.57280143429618 80.3572730644239 l -6.029344347071772 -15.945819081365487 a38.04764322219368,38.04764322219368 0 0,0 0.6145920496984572,-0.22635943865960978 l 5.753969971600745 16.04724178783142" fill="#ffd614" stroke="none" /><path d="M 98.55514903715128 79.0497635885617 l -0.964369582558067 -13.983290499912297 a35.01650533823252,35.01650533823252 0 0,0 0.6016801925259155,-0.0362949923304938 l 0.7235273411925285 13.997818761623098" fill="#ffaf10" stroke="none" /><path d="M 99.63851952072746 79.00311137660856 l -0.39678260051320385 -23.047441143824507 a44.05085637693586,44.05085637693586 0 0,0 0.7582630797857339,-0.006526609719913549 l 5.645831495923972e-15 23.05085637693586" fill="#deff1b" stroke="none" /></svg>