<?xml version="1.0" encoding="utf-8" ?>
<svg baseProfile="full" height="200mm" version="1.1" viewBox="0,0,200,200" width="200mm" xmlns="http://www.w3.org/2000/svg" xmlns:ev="http://www.w3.org/2001/xml-events" xmlns:xlink="http://www.w3.org/1999/xlink"><defs /><rect fill="#1a1a1a" height="200" width="200" x="0" y="0" /><text alignment-baseline="middle" fill="#e1ed5e" style="dominant-baseline: central; font-size:9.0px; font-family:Arial;" text-anchor="middle" x="100.0" y="100.0">2022</text><line stroke="#e1ed5e" stroke-width="0.3" x1="100.0" x2="100.0" y1="15.0" y2="10.0" /><path d="M 100.0 14.0 a86.0,86.0 0 0,1 42.46469731375804,11.215312516191453" fill="none" id="id85" stroke="none" /><text fill="#e1ed5e" style="font-size:6.75px; font-family:Arial;" text-anchor="middle"><textPath startOffset="22.20632615414155" xlink:href="#id85">January</textPath></text><path d="M 102.52436894288641 79.15227682838746 l 0.7409986727950596 -6.11960278013088 a27.164301843653476,27.164301843653476 0 0,0 0.46371438672937776,0.06020343608948408 l -0.8462277880322835 6.1059410208772595" fill="#ff1b02" stroke="none" /><line stroke="#e1ed5e" stroke-width="0.3" x1="143.23703022742887" x2="145.7803849466894" y1="26.81831364943548" y2="22.513508569990506" /><path d="M 143.74570117128098 25.957352633546492 a86.0,86.0 0 0,1 28.547481713284135,27.462654790039103" fill="none" id="id86" stroke="none" /><text fill="#e1ed5e" style="font-size:6.75px; font-family:Arial;" text-anchor="middle"><textPath startOffset="19.985693538727396" xlink:href="#id86">February</textPath></text><line stroke="#e1ed5e" stroke-width="0.3" x1="172.23445277983987" x2="176.4835382374775" y1="55.19839476539836" y2="52.563006222186495" /><path d="M 173.08426987136738 54.67131705675599 a86.0,86.0 0 0,1 12.851231095245387,41.99856678651699" fill="none" id="id87" stroke="none" /><text fill="#e1ed5e" style="font-size:6.75px; font-family:Arial;" text-anchor="middle"><textPath startOffset="22.20632615414155" xlink:href="#id87">March</textPath></text><path d="M 118.21658344932153 89.55222093294921 l 6.425234613358888 -3.685072553868019 a28.406983162123193,28.406983162123193 0 0,0 0.23962285719545917,0.4262623251137938 l -6.4877151118467795 3.5739267188194312" fill="#ff2e04" stroke="none" /><path d="M 118.73160827565052 90.50648371742162 l 4.786003004502699 -2.425632480836062 a26.365586425657103,26.365586425657103 0 0,0 0.20168416485206456,0.4065829694072047 l -4.8270471823081715 2.342889922929907" fill="#ff0f01" stroke="none" /><path d="M 119.196687751892 91.48605970444005 l 4.345761930139294 -1.9273927924507004 a25.75399723704578,25.75399723704578 0 0,0 0.1762423172214005,0.4067915673258264 l -4.378294957203376 1.8523020805382713" fill="#ff0500" stroke="none" /><path d="M 120.45610955862082 95.25157060432595 l 4.412367382907628 -1.0242326345325148 a25.529684140355542,25.529684140355542 0 0,0 0.0956823542814782,0.4289252328195952 l -4.429344124191143 0.9481292321629557" fill="#ff0200" stroke="none" /><path d="M 120.87857604477298 97.74499172005257 l 7.636898637576627 -0.8248297021753037 a28.68131270280089,28.68131270280089 0 0,0 0.04878947280718354,0.49130333289119993 l -7.649965236066039 0.6932508385796688" fill="#ff3204" stroke="none" /><path d="M 120.98425023603335 99.18683210126433 l 5.973670932386166 -0.23148777703220094 a26.978154481054393,26.978154481054393 0 0,0 0.013987923286310882,0.46419107530404685 l -5.976770550128122 0.128626554303155" fill="#ff1802" stroke="none" /><line stroke="#e1ed5e" stroke-width="0.3" x1="184.98032266829074" x2="189.97916517819016" y1="98.17113171792111" y2="98.06355123074" /><path d="M 185.9800911702706 98.14961562048488 a86.0,86.0 0 0,1 -9.607161424134198,41.387399972396054" fill="none" id="id88" stroke="none" /><text fill="#e1ed5e" style="font-size:6.75px; font-family:Arial;" text-anchor="middle"><textPath startOffset="21.466115282336823" xlink:href="#id88">April</textPath></text><path d="M 120.70491114924044 103.5080841355445 l 7.277931765833981 1.2331179198629008 a28.381657713035896,28.381657713035896 0 0,0 -0.08575795972397775,0.4809761811036859 l -7.255627363770814 -1.358212851699805" fill="#ff2d04" stroke="none" /><path d="M 120.41448212921028 104.9243191809786 l 15.295018122324201 3.689417671066338 a36.733702110876585,36.733702110876585 0 0,0 -0.15356206806621925,0.6134041279120729 l -15.22924473996292 -3.9521496383758064" fill="#ffa60f" stroke="none" /><path d="M 119.67450827220406 107.3425965602758 l 15.201217892355242 5.673148658363214 a37.2253394759786,37.2253394759786 0 0,0 -0.22921187325322306,0.5983998725583916 l -15.101311739508512 -5.93397209775475" fill="#ffad10" stroke="none" /><path d="M 118.64920377521936 109.65438752849418 l 6.555482496706521 3.393665982864243 a28.381823593657295,28.381823593657295 0 0,0 -0.22833513848342626,0.4319240316669982 l -6.496094849998202 -3.5060050296173753" fill="#ff2d04" stroke="none" /><line stroke="#e1ed5e" stroke-width="0.3" x1="174.80103733775053" x2="179.2010983576182" y1="140.37084112569926" y2="142.7455964860345" /><path d="M 175.68104954172406 140.8457921977663 a86.0,86.0 0 0,1 -30.038265399797805,32.042727171017184" fill="none" id="id89" stroke="none" /><text fill="#e1ed5e" style="font-size:6.75px; font-family:Arial;" text-anchor="middle"><textPath startOffset="22.206326154141568" xlink:href="#id89">May</textPath></text><path d="M 118.48025628344425 109.97397251340804 l 14.438689527499594 7.792699964119415 a37.40737419583991,37.40737419583991 0 0,0 -0.31070135810615934,0.5640132142727673 l -14.302411759941926 -8.040083696789988" fill="#ffaf10" stroke="none" /><path d="M 117.14729908036423 112.12312394758627 l 7.758232513847049 5.485062920915924 a30.501372900024514,30.501372900024514 0 0,0 -0.3067860150843971,0.4260989426890841 l -7.662666706387049 -5.617795469056139" fill="#ff4d07" stroke="none" /><path d="M 115.56566222782051 114.09645910891815 l 10.225739559065357 9.260558108165684 a34.79578508112341,34.79578508112341 0 0,0 -0.40587393058238325,0.4404959905723378 l -10.064819220487252 -9.435205353539356" fill="#ff8b0c" stroke="none" /><path d="M 115.07121518719521 114.62390073753431 l 5.431760462649198 5.270545529953923 a28.56853168764697,28.56853168764697 0 0,0 -0.34548792621314045,0.3499774452219899 l -5.3402319113805214 -5.3632634691565775" fill="#ff3004" stroke="none" /><path d="M 113.75828350139079 115.86535959552629 l 3.4401995188239267 3.9670648188766235 a26.25095953197937,26.25095953197937 0 0,0 -0.3439307257250649,0.293105225880648 l -3.3714033165218145 -4.025694434980219" fill="#ff0d01" stroke="none" /><path d="M 112.04921762599082 117.19931262002967 l 5.623250636102039 8.026749008373613 a30.800492199876942,30.800492199876942 0 0,0 -0.4368435500933301,0.30046497710635073 l -5.484250201385826 -8.122354774845059" fill="#ff5107" stroke="none" /><path d="M 111.1453310114006 117.79835938074945 l 4.335253503423861 6.9231142423372924 a29.168471934909387,29.168471934909387 0 0,0 -0.42783314581632326,0.2628100616703633 l -4.215441157675229 -6.996712770836034" fill="#ff3905" stroke="none" /><line stroke="#e1ed5e" stroke-width="0.3" x1="143.8653032363475" x2="146.44561519142675" y1="172.8068346515853" y2="177.08958963109032" /><path d="M 144.38136562736335 173.6633856474863 a86.0,86.0 0 0,1 -40.68145358897372,12.25698825130547" fill="none" id="id90" stroke="none" /><text fill="#e1ed5e" style="font-size:6.75px; font-family:Arial;" text-anchor="middle"><textPath startOffset="21.466115282336833" xlink:href="#id90">June</textPath></text><line stroke="#e1ed5e" stroke-width="0.3" x1="102.19456741930631" x2="102.32365962044197" y1="184.97166512339345" y2="189.96999836594603" /><path d="M 102.22038585953345 185.97133177190398 a86.0,86.0 0 0,1 -42.740103519485714,-10.115201625700543" fill="none" id="id91" stroke="none" /><text fill="#e1ed5e" style="font-size:6.75px; font-family:Arial;" text-anchor="middle"><textPath startOffset="22.20632615414155" xlink:href="#id91">July</textPath></text><path d="M 100.18074693466247 120.99922214144158 l 0.1261968089476774 14.661575476132798 a35.662118573962196,35.662118573962196 0 0,0 -0.6138874872202555,0.0 l 0.1261968089476673 -14.661575476132798" fill="#ff970d" stroke="none" /><path d="M 99.09653310690486 120.98055641714683 l -0.18985415312772114 4.408845305974418 a25.41293117230175,25.41293117230175 0 0,0 -0.4368748271327483,-0.022581438400667325 l 0.26571704867395834 -4.404924060811548" fill="#ff0000" stroke="none" /><path d="M 93.76903079525671 120.05430185196036 l -2.5080471631460837 8.072120598894312 a29.452776557774314,29.452776557774314 0 0,0 -0.48285534745941067,-0.15459503418719947 l 2.6466238556964345 -8.027752718047406" fill="#ff3d05" stroke="none" /><path d="M 90.7491055286396 118.85261126421891 l -2.948028596607494 6.0078554889696925 a27.692174548138954,27.692174548138954 0 0,0 -0.4261246663332391,-0.21366775390244888 l 3.0510071706234934 -5.956219894157941" fill="#ff2303" stroke="none" /><path d="M 90.10565033884886 118.52300852407294 l -3.6118603210634688 6.761689429422874 a28.665897137246347,28.665897137246347 0 0,0 -0.4332334204134301,-0.23623340358540226 l 3.7277165533455396 -6.698515374077706" fill="#ff3204" stroke="none" /><line stroke="#e1ed5e" stroke-width="0.3" x1="58.666819895761336" x2="56.23545636021788" y1="174.27360380694188" y2="178.64263932499728" /><path d="M 58.180547188652646 175.14741091055294 a86.0,86.0 0 0,1 -31.652253787137756,-30.449443065178592" fill="none" id="id92" stroke="none" /><text fill="#e1ed5e" style="font-size:6.75px; font-family:Arial;" text-anchor="middle"><textPath startOffset="22.20632615414155" xlink:href="#id92">August</textPath></text><path d="M 88.24862548938628 117.40417183066458 l -7.154232886593127 10.595654011571074 a33.784793002959915,33.784793002959915 0 0,0 -0.47916990477963617,-0.3295774298118963 l 7.335559675995653 -10.470935792394076" fill="#ff7c0b" stroke="none" /><path d="M 87.36589467227662 116.77436683061367 l -4.433770258246241 5.886739648377545 a28.369669082848233,28.369669082848233 0 0,0 -0.3875449067626519,-0.2971529087430048 l 4.534443893502379 -5.809547397807173" fill="#ff2d04" stroke="none" /><path d="M 86.51685102203217 116.09983520530335 l -2.9094206132475637 3.474054354271343 a25.531421626953456,25.531421626953456 0 0,0 -0.33450359626867,-0.2850712216407065 l 2.9687896860932903 -3.423458742407685" fill="#ff0200" stroke="none" /><path d="M 83.95833913139862 113.55231037782056 l -3.3910499275520998 2.864825625058783 a25.439194236924596,25.439194236924596 0 0,0 -0.27971484327577073,-0.33693454786176474 l 3.439860770721407 -2.806029820083257" fill="#ff0000" stroke="none" /><path d="M 83.50135304334701 112.99209946851258 l -13.840752486730825 10.89910181720436 a38.61694780093115,38.61694780093115 0 0,0 -0.4067526473053178,-0.5257826274507643 l 14.026311951254211 -10.659241195640343" fill="#ffc011" stroke="none" /><path d="M 82.85270091963577 112.12312394758628 l -13.523447660554986 9.561064481306138 a37.56193197194892,37.56193197194892 0 0,0 -0.36871345628262814,-0.5311592337241547 l 13.686022023999747 -9.32686398539497" fill="#ffb110" stroke="none" /><path d="M 82.05923443525364 110.91462005526583 l -15.40194327164892 9.370077230881115 a39.0282612543686,39.0282612543686 0 0,0 -0.3442276367883228,-0.5769453191939051 l 15.560951784135474 -9.1035698178011" fill="#ffc512" stroke="none" /><line stroke="#e1ed5e" stroke-width="0.3" x1="26.63291911575756" x2="22.317208475507996" y1="142.92168965132927" y2="145.44649492493687" /><path d="M 25.769776987707644 143.4266507060508 a86.0,86.0 0 0,1 -11.730757126820373,-40.83630448921669" fill="none" id="id93" stroke="none" /><text fill="#e1ed5e" style="font-size:6.75px; font-family:Arial;" text-anchor="middle"><textPath startOffset="21.46611528233685" xlink:href="#id93">September</textPath></text><path d="M 81.51974371655577 109.97397251340807 l -27.99681040253272 15.11014853555459 a52.81411607261605,52.81411607261605 0 0,0 -0.4248958305137244,-0.8037427851574563 l 28.252758741271332 -14.625990735311008" fill="#8dff24" stroke="none" /><path d="M 80.58989483394504 108.01547362559985 l -8.936211694226872 3.6902411674264304 a30.66818283431824,30.66818283431824 0 0,0 -0.19729482506632617,-0.4896695757837777 l 8.998409133550586 -3.5358722237998474" fill="#ff4f07" stroke="none" /><path d="M 79.86692584326677 105.97154293290107 l -16.65656952990936 4.940399031383929 a38.37379783162001,38.37379783162001 0 0,0 -0.18238036067808241,-0.6348899615759198 l 16.739142527473547 -4.652951594303413" fill="#ffbc11" stroke="none" /><path d="M 79.67330655649465 105.27499134158121 l -21.447898115656713 5.565955779755909 a43.15834374049173,43.15834374049173 0 0,0 -0.18041972734189793,-0.7206871260718231 l 21.54052915729367 -5.195940814286694" fill="#fffc17" stroke="none" /><line stroke="#e1ed5e" stroke-width="0.3" x1="15.007084014347285" x2="10.007500721073583" y1="101.09737516637583" y2="101.16192664675087" /><path d="M 14.007167355692545 101.11028546245083 a86.0,86.0 0 0,1 10.666146001902534,-42.60595125391555" fill="none" id="id94" stroke="none" /><text fill="#e1ed5e" style="font-size:6.75px; font-family:Arial;" text-anchor="middle"><textPath startOffset="22.20632615414155" xlink:href="#id94">October</textPath></text><path d="M 79.21141760316559 97.0276538004421 l -9.19860082205827 -1.3152135952694168 a30.292149583640622,30.292149583640622 0 0,0 0.07824621856988566,-0.5155448166068894 l 9.174598710049082 1.4733575242683983" fill="#ff4a06" stroke="none" /><path d="M 79.32604984820605 96.31383870115002 l -14.629208048489371 -2.6083849552325113 a35.85992598234155,35.85992598234155 0 0,0 0.1135808103505425,-0.6067532305759734 l 14.582141514228967 2.8598162632710578" fill="#ff9a0e" stroke="none" /><path d="M 79.62865764111835 94.90015583598534 l -21.35403079191862 -5.345854357254733 a43.01301410237108,43.01301410237108 0 0,0 0.1859875932290235,-0.7166860658255605 l 21.25884686681929 5.712636848629157" fill="#fffa17" stroke="none" /><path d="M 79.91906864156998 93.8553929516997 l -14.159549126104391 -4.332710660080546 a35.807606596561754,35.807606596561754 0 0,0 0.18542289794102765,-0.5878412578491946 l 14.082870744395159 4.575802084356155" fill="#ff990e" stroke="none" /><path d="M 80.52162464483688 92.15188598940014 l -13.697686759768214 -5.518992493573124 a35.767731738924766,35.767731738924766 0 0,0 0.23500815663065586,-0.5690908919609033 l 13.600656916251358 5.753957955987338" fill="#ff980e" stroke="none" /><path d="M 80.803312248108 91.48605970444005 l -13.677982091402074 -6.066334171552998 a35.96287420162542,35.96287420162542 0 0,0 0.255846194336252,-0.5637231755217318 l 13.571533580102471 6.300879355916801" fill="#ff9b0e" stroke="none" /><path d="M 81.43458229118936 90.18545643968196 l -27.658590661849388 -14.62161784482236 a52.28560924450361,52.28560924450361 0 0,0 0.42747693498614603,-0.7920498380344791 l 27.40280562764477 15.09554866618931" fill="#93ff23" stroke="none" /><line stroke="#e1ed5e" stroke-width="0.3" x1="26.266209847984243" x2="21.928928074336255" y1="57.711370442889674" y2="55.22380399835377" /><path d="M 25.398753493254645 57.213857153982495 a86.0,86.0 0 0,1 29.58750427330803,-30.492523968695096" fill="none" id="id95" stroke="none" /><text fill="#e1ed5e" style="font-size:6.75px; font-family:Arial;" text-anchor="middle"><textPath startOffset="21.46611528233685" xlink:href="#id95">November</textPath></text><path d="M 82.15384107792192 88.93136811851018 l -12.824307233093055 -7.953954490600564 a36.09066758123403,36.09066758123403 0 0,0 0.33198671475023267,-0.5251232559528743 l 12.68549292209686 8.173525394267653" fill="#ff9d0e" stroke="none" /><path d="M 82.7489923806493 88.02491185347247 l -51.75302285805211 -35.92526443958256 a84.0,84.0 0 0,0 0.834749520784487,-1.1806939986728553 l 51.12696071746375 36.810784938587204" fill="#4dd2ff" stroke="none" /><path d="M 84.80347519578584 85.50635884689758 l -6.909357277756051 -6.5897793260339625 a30.54800552772699,30.54800552772699 0 0,0 0.36619165066302684,-0.377392685163101 l 6.794901363389906 6.707736206747187" fill="#ff4e07" stroke="none" /><path d="M 85.31137513191541 84.99185889309783 l -10.766516970675786 -11.00071704308084 a36.392649646561146,36.392649646561146 0 0,0 0.4514711924891164,-0.4343149294743683 l 10.575562534574242 11.184415059317523" fill="#ffa10e" stroke="none" /><path d="M 85.83668400450813 84.49514656593479 l -16.24664552628574 -17.785514194589116 a45.08896025200572,45.08896025200572 0 0,0 0.5775445185005486,-0.5185251711629509 l 15.93809002018922 18.062538374521345" fill="#eaff1a" stroke="none" /><path d="M 86.65592168130627 83.78471172551755 l -6.283076148488029 -7.634988986502864 a30.88787655220873,30.88787655220873 0 0,0 0.4134512916373871,-0.33431552422738847 l 6.150721458286142 7.742010607994387" fill="#ff5307" stroke="none" /><path d="M 87.51073957382395 83.11751280151077 l -7.173131005117818 -9.696354166270373 a33.06122267990818,33.06122267990818 0 0,0 0.4604242580861773,-0.33451780442492496 l 7.005161430677859 9.818391205511967" fill="#ff720a" stroke="none" /><path d="M 88.09926311788651 82.69761687909137 l -9.290434465874082 -13.507285984101179 a37.3938691961659,37.3938691961659 0 0,0 0.5334775080546291,-0.3602063948307734 l 9.056552263412913 13.665204291230618" fill="#ffaf10" stroke="none" /><path d="M 89.00827224532344 82.1063720568725 l -5.147261760071027 -8.379318421656887 a30.833986009660983,30.833986009660983 0 0,0 0.45463674849073044,-0.2739135540003693 l 5.002262945362648 8.466678585115876" fill="#ff5207" stroke="none" /><line stroke="#e1ed5e" stroke-width="0.3" x1="56.762969772571076" x2="54.21961505331055" y1="26.818313649435495" y2="22.513508569990535" /><path d="M 56.25429882871897 25.957352633546506 a86.0,86.0 0 0,1 42.265352541879196,-11.944610805530505" fill="none" id="id96" stroke="none" /><text fill="#e1ed5e" style="font-size:6.75px; font-family:Arial;" text-anchor="middle"><textPath startOffset="22.20632615414155" xlink:href="#id96">December</textPath></text><path d="M 89.94658935756843 81.56283822128135 l -11.61076034711262 -21.293218242786395 a45.25305957962859,45.25305957962859 0 0,0 0.6871029622244905,-0.36702660653783564 l 11.242512338359825 21.48992357582598" fill="#e8ff1a" stroke="none" /><path d="M 90.91171255644093 81.06846463323043 l -7.04339318496426 -14.671878284144192 a37.27493164172258,37.27493164172258 0 0,0 0.580817609785204,-0.27270165570802757 l 6.7897973638794475 14.790944922492226" fill="#ffad10" stroke="none" /><path d="M 91.56875222667455 80.76684994638697 l -3.8619982913965707 -8.809893226033198 a30.619212517501403,30.619212517501403 0 0,0 0.48453626872552485,-0.20745314335227935 l 3.7097782648807374 8.875065897348264" fill="#ff4f07" stroke="none" /><path d="M 92.57280143429618 80.3572730644239 l -6.366293198388218 -16.83694838390323 a39.00034777358665,39.00034777358665 0 0,0 0.6299812983722386,-0.23202742882137553 l 6.07552957424341 16.94403908053093" fill="#ffc512" stroke="none" /><path d="M 98.55514903715128 79.0497635885617 l -1.0163399529484818 -14.736857181919765 a35.77186198487718,35.77186198487718 0 0,0 0.6146593041816599,-0.03707792778998471 l 0.7625185999271988 14.752168379090056" fill="#ff980e" stroke="none" /><path d="M 99.63851952072746 79.00311137660856 l -0.41920794648424664 -24.350035664675506 a45.35364391981957,45.35364391981957 0 0,0 0.7806884257567763,-0.006719631752620704 l 5.964922414796287e-15 24.353643919819568" fill="#e6ff1a" stroke="none" /></svg>