<?xml version="1.0" encoding="utf-8" ?>
<svg baseProfile="full" height="200mm" version="1.1" viewBox="0,0,200,200" width="200mm" xmlns="http://www.w3.org/2000/svg" xmlns:ev="http://www.w3.org/2001/xml-events" xmlns:xlink="http://www.w3.org/1999/xlink"><defs /><rect fill="#1a1a1a" height="200" width="200" x="0" y="0" /><text alignment-baseline="middle" fill="#e1ed5e" style="dominant-baseline: central; font-size:9.0px; font-family:Arial;" text-anchor="middle" x="100.0" y="100.0">2018</text><line stroke="#e1ed5e" stroke-width="0.3" x1="100.0" x2="100.0" y1="15.0" y2="10.0" /><path d="M 100.0 14.0 a86.0,86.0 0 0,1 42.46469731375804,11.215312516191453" fill="none" id="id37" stroke="none" /><text fill="#e1ed5e" style="font-size:6.75px; font-family:Arial;" text-anchor="middle"><textPath startOffset="22.20632615414155" xlink:href="#id37">January</textPath></text><line stroke="#e1ed5e" stroke-width="0.3" x1="143.23703022742887" x2="145.7803849466894" y1="26.81831364943548" y2="22.513508569990506" /><path d="M 143.74570117128098 25.957352633546492 a86.0,86.0 0 0,1 28.547481713284135,27.462654790039103" fill="none" id="id38" stroke="none" /><text fill="#e1ed5e" style="font-size:6.75px; font-family:Arial;" text-anchor="middle"><textPath startOffset="19.985693538727396" xlink:href="#id38">February</textPath></text><line stroke="#e1ed5e" stroke-width="0.3" x1="172.23445277983987" x2="176.4835382374775" y1="55.19839476539836" y2="52.563006222186495" /><path d="M 173.08426987136738 54.67131705675599 a86.0,86.0 0 0,1 12.851231095245387,41.99856678651699" fill="none" id="id39" stroke="none" /><text fill="#e1ed5e" style="font-size:6.75px; font-family:Arial;" text-anchor="middle"><textPath startOffset="22.20632615414155" xlink:href="#id39">March</textPath></text><path d="M 120.78858239683441 97.02765380044208 l 8.684081872655616 -1.2416478073448733 a29.772398032948015,29.772398032948015 0 0,0 0.06817028643174991,0.5079478156169209 l -8.704168158145203 1.091981649663288" fill="#ff6809" stroke="none" /><path d="M 120.96714384426684 98.82574320788733 l 7.332929511007438 -0.4106778848058693 a28.344420435846004,28.344420435846004 0 0,0 0.02308908382714621,0.4873740670758126 l -7.338912203068081 0.28439271110705694" fill="#ff5407" stroke="none" /><line stroke="#e1ed5e" stroke-width="0.3" x1="184.98032266829074" x2="189.97916517819016" y1="98.17113171792111" y2="98.06355123074" /><path d="M 185.9800911702706 98.14961562048488 a86.0,86.0 0 0,1 -9.607161424134198,41.387399972396054" fill="none" id="id40" stroke="none" /><text fill="#e1ed5e" style="font-size:6.75px; font-family:Arial;" text-anchor="middle"><textPath startOffset="21.466115282336823" xlink:href="#id40">April</textPath></text><path d="M 120.92983693683757 101.71520430193887 l 8.474118179449011 0.6944556711260026 a29.50252595399904,29.50252595399904 0 0,0 -0.0458348485759658,0.505783734679452 l -8.46090873459597 -0.8402207943540252" fill="#ff6409" stroke="none" /><path d="M 120.81339534386255 102.79330883721812 l 11.847744406065807 1.5900533576480576 a32.95396658819287,32.95396658819287 0 0,0 -0.08029147491676668,0.5615583885614819 l -11.818618880132439 -1.7937572181899488" fill="#ff930d" stroke="none" /><path d="M 120.32669344350535 105.2749913415812 l 11.18805543409397 2.90341838961678 a32.55865142399945,32.55865142399945 0 0,0 -0.14544712960966297,0.5412628769378598 l -11.13642022814253 -3.095572199730188" fill="#ff8d0d" stroke="none" /><path d="M 119.9155931802556 106.66101706037122 l 8.48126330479773 2.8366636662756455 a29.943069271837096,29.943069271837096 0 0,0 -0.16769426171762097,0.4873980204953288 l -8.431178212136878 -2.982234389860275" fill="#ff6a09" stroke="none" /><path d="M 119.41010516605496 108.01547362559984 l 12.246371367979123 5.057183661271651 a34.249479924370306,34.249479924370306 0 0,0 -0.22971455438196528,0.5429773499765808 l -12.157505832404848 -5.267235536914396" fill="#ffa40f" stroke="none" /><path d="M 119.12269723197855 108.67885076344098 l 10.839496552645395 4.91951380027727 a32.90362556307657,32.90362556307657 0 0,0 -0.23851271469990715,0.5137351683763854 l -10.753209221105656 -5.105369035932486" fill="#ff920d" stroke="none" /><path d="M 118.81262510543309 109.33194174019688 l 1.3567452590621596 0.6730090905920342 a22.514496264111326,22.514496264111326 0 0,0 -0.17520709183681663,0.3457002140951486 l -1.344959497439074 -0.696263516389877" fill="#ff0000" stroke="none" /><line stroke="#e1ed5e" stroke-width="0.3" x1="174.80103733775053" x2="179.2010983576182" y1="140.37084112569926" y2="142.7455964860345" /><path d="M 175.68104954172406 140.8457921977663 a86.0,86.0 0 0,1 -30.038265399797805,32.042727171017184" fill="none" id="id41" stroke="none" /><text fill="#e1ed5e" style="font-size:6.75px; font-family:Arial;" text-anchor="middle"><textPath startOffset="22.206326154141568" xlink:href="#id41">May</textPath></text><path d="M 118.12598468904814 110.60418214915192 l 1.491877679274811 0.8727880403012152 a22.728426444258254,22.728426444258254 0 0,0 -0.20046377346489377,0.3359888149818682 l -1.47663303011169 -0.8983389491691874" fill="#ff0300" stroke="none" /><path d="M 116.498646956653 112.99209946851258 l 9.24996205227154 7.28401713054524 a32.77364444539328,32.77364444539328 0 0,0 -0.352834950751731,0.4402158519165822 l -9.123209189464955 -7.442160816040073" fill="#ff900d" stroke="none" /><path d="M 116.0416608686014 113.55231037782055 l 11.289187925860025 9.537327832697052 a35.77857862629968,35.77857862629968 0 0,0 -0.4014995261999217,0.4670346552818391 l -11.123345890089325 -9.730239587140419" fill="#ffb811" stroke="none" /><path d="M 115.56566222782051 114.09645910891815 l 10.924910760444078 9.893736324814443 a35.73905334777711,35.73905334777711 0 0,0 -0.4168766424938343,0.45243726129022377 l -10.752987709954523 -10.080324840906002" fill="#ffb711" stroke="none" /><path d="M 114.81725581225074 114.88116024355365 l 6.011572831855136 6.0374997745983485 a29.52000067141863,29.52000067141863 0 0,0 -0.36316636092036136,0.35543472054732406 l -5.90675651855898 -6.140084598068245" fill="#ff6409" stroke="none" /><path d="M 114.55890576462653 115.13401014063108 l 8.06133644528309 8.379774516184785 a32.62780143561754,32.62780143561754 0 0,0 -0.40810258284518525,0.38588646455900455 l -7.915898028047097 -8.517295617489712" fill="#ff8e0d" stroke="none" /><path d="M 113.75828350139079 115.86535959552629 l 7.689002502844947 8.86657042836813 a32.7361335477221,32.7361335477221 0 0,0 -0.42889716677917405,0.3655154702545327 l -7.535239859488726 -8.99761028884561" fill="#ff900d" stroke="none" /><path d="M 113.20401910651253 116.32954008644616 l 8.445300331392005 10.444385848815033 a34.43161544440346,34.43161544440346 0 0,0 -0.4640767031036159,0.3686905999744601 l -8.264266135571038 -10.58821036279462" fill="#ffa60f" stroke="none" /><path d="M 112.04921762599082 117.19931262002967 l 8.16066702155929 11.648711779344499 a35.22283278236107,35.22283278236107 0 0,0 -0.4995656308716979,0.3436057961961797 l -7.958944506064707 -11.787458364905772" fill="#ffb110" stroke="none" /><line stroke="#e1ed5e" stroke-width="0.3" x1="143.8653032363475" x2="146.44561519142675" y1="172.8068346515853" y2="177.08958963109032" /><path d="M 144.38136562736335 173.6633856474863 a86.0,86.0 0 0,1 -40.68145358897372,12.25698825130547" fill="none" id="id42" stroke="none" /><text fill="#e1ed5e" style="font-size:6.75px; font-family:Arial;" text-anchor="middle"><textPath startOffset="21.466115282336833" xlink:href="#id42">June</textPath></text><path d="M 110.5260780823613 118.17145234162733 l 7.408017645854024 12.788660557548601 a35.779328952881585,35.779328952881585 0 0,0 -0.5355845797652556,0.30411890228961685 l -7.186784299167569 -12.914282625632845" fill="#ffb811" stroke="none" /><path d="M 109.89434966115114 118.52300852407294 l 7.608576594363627 14.243859772493886 a37.14862158237562,37.14862158237562 0 0,0 -0.5666210214969276,0.2964293382838818 l -7.362264670340204 -14.372718529722485" fill="#ffca12" stroke="none" /><path d="M 109.2508944713604 118.85261126421891 l 8.230991896523786 16.774128277487467 a39.68476938766558,39.68476938766558 0 0,0 -0.6158458865129702,0.2956434504191168 l -7.9410333420105825 -16.913326004406144" fill="#ffea16" stroke="none" /><path d="M 108.59647513512805 119.15986991738527 l 3.0993433503728522 6.9078330931009395 a28.57126721531085,28.57126721531085 0 0,0 -0.4504455178008645,0.1974620776303641 l -2.979977157914234 -6.960159724025758" fill="#ff5708" stroke="none" /><path d="M 107.93186726928326 119.44442032107085 l 5.623377598573111 13.78531863161523 a35.88816259285517,35.88816259285517 0 0,0 -0.5740036873582257,0.2284079132858652 l -5.385252835173019 -13.880073389307164" fill="#ffb911" stroke="none" /><path d="M 106.57524785965236 119.94407469862006 l 2.809133611229261 8.520678121436292 a29.97179955721599,29.97179955721599 0 0,0 -0.4913643255601081,0.15731934027037076 l -2.662047940578213 -8.56777030836637" fill="#ff6a09" stroke="none" /><path d="M 105.88484417918355 120.15858648285463 l 6.161507246539304 21.106298299869387 a42.98726903169709,42.98726903169709 0 0,0 -0.7120919554490248,0.2012442995041835 l -5.797284122985673 -21.20923139271209" fill="#ecff1a" stroke="none" /><path d="M 105.18746579009965 120.34920634021253 l 3.984221388581343 15.629161988126057 a37.12900258925869,37.12900258925869 0 0,0 -0.6206673523676225,0.15254493445030304 l -3.7146007514705093 -15.69542818089039" fill="#ffc912" stroke="none" /><path d="M 104.48393922423573 120.51570834832081 l 3.115074933773364 14.252639393289725 a35.5890856985,35.5890856985 0 0,0 -0.5996058285738528,0.12565323123592198 l -2.869277643770133 -14.30414860525219" fill="#ffb510" stroke="none" /><path d="M 103.41894727170886 120.7198165907248 l 3.1528932513816565 19.107451711622897 a40.36583194098846,40.36583194098846 0 0,0 -0.686534643091756,0.10722259195288568 l -2.8235227446813833 -19.158892610922887" fill="#fff216" stroke="none" /><path d="M 101.98527174616119 120.90594882070398 l 1.3797540243522854 14.52953081815894 a35.594895921641466,35.594895921641466 0 0,0 -0.6104620964560761,0.05267323837276966 l -1.1294476101546678 -14.551128308810373" fill="#ffb610" stroke="none" /><path d="M 101.62511606390274 120.93702456842531 l 0.7013736373627742 9.036078962781794 a30.063258133850937,30.063258133850937 0 0,0 -0.5162824007324938,0.03560585709633945 l -0.5457284758513502 -9.046813164394418" fill="#ff6c09" stroke="none" /><line stroke="#e1ed5e" stroke-width="0.3" x1="102.19456741930631" x2="102.32365962044197" y1="184.97166512339345" y2="189.96999836594603" /><path d="M 102.22038585953345 185.97133177190398 a86.0,86.0 0 0,1 -42.740103519485714,-10.115201625700543" fill="none" id="id43" stroke="none" /><text fill="#e1ed5e" style="font-size:6.75px; font-family:Arial;" text-anchor="middle"><textPath startOffset="22.20632615414155" xlink:href="#id43">July</textPath></text><path d="M 100.54218724476979 120.99299961872073 l 0.3815037012424904 14.771478178400569 a35.77640391465481,35.77640391465481 0 0,0 -0.6157635488303811,0.010600927915661943 l -0.12718046251944143 -14.775856583595392" fill="#ffb811" stroke="none" /><path d="M 99.81925306533755 120.99922214144158 l -0.06612183430066321 7.682050539182353 a28.68233509966359,28.68233509966359 0 0,0 -0.4936643853821344,-0.008498880087829194 l 0.19834590957546555 -7.679774181815365" fill="#ff5808" stroke="none" /><path d="M 99.09653310690486 120.98055641714683 l -0.5051885881527571 11.73162819362055 a32.74250039740056,32.74250039740056 0 0,0 -0.5628777768303659,-0.029094351643055988 l 0.7070544333966119 -11.721194035215293" fill="#ff900d" stroke="none" /><path d="M 98.01472825383883 120.90594882070398 l -1.4137634734962912 14.887668088081785 a35.95464437089298,35.95464437089298 0 0,0 -0.6156246722100623,-0.06381201441198613 l 1.6698207423119467 -14.861126705214039" fill="#ffba11" stroke="none" /><path d="M 95.51606077576429 120.51570834832081 l -3.5831373183118846 16.394200839553275 a37.78120061883203,37.78120061883203 0 0,0 -0.6341481880897238,-0.14433006299997278 l 3.864805655794471 -16.330094042975613" fill="#ffd213" stroke="none" /><path d="M 94.46302465271185 120.25689768951611 l -2.776525495258918 10.157855031328525 a31.530484920615432,31.530484920615432 0 0,0 -0.5223082361156941,-0.14760952472225045 l 2.9509648994792257 -10.108556713267754" fill="#ff800b" stroke="none" /><path d="M 93.42475214034765 119.94407469862007 l -6.795475855883474 20.612071358413385 a42.703363282961945,42.703363282961945 0 0,0 -0.6961263693873823,-0.23616386005178872 l 7.149271958208082 -20.492044511463472" fill="#efff19" stroke="none" /><path d="M 90.7491055286396 118.85261126421891 l -4.084002945860238 8.322883822595974 a30.27089397988268,30.27089397988268 0 0,0 -0.4658057666927875,-0.23356468138885714 l 4.226662620235786 -8.251351300297816" fill="#ff6e0a" stroke="none" /><line stroke="#e1ed5e" stroke-width="0.3" x1="58.666819895761336" x2="56.23545636021788" y1="174.27360380694188" y2="178.64263932499728" /><path d="M 58.180547188652646 175.14741091055294 a86.0,86.0 0 0,1 -31.652253787137756,-30.449443065178592" fill="none" id="id44" stroke="none" /><text fill="#e1ed5e" style="font-size:6.75px; font-family:Arial;" text-anchor="middle"><textPath startOffset="22.20632615414155" xlink:href="#id44">August</textPath></text><path d="M 88.54995079064634 117.60387380957326 l -8.07917446699933 12.421323716792196 a35.817636213160256,35.817636213160256 0 0,0 -0.5139409534453794,-0.3406120395999695 l 8.291790119184672 -12.280413656100908" fill="#ffb811" stroke="none" /><path d="M 87.36589467227662 116.77436683061367 l -7.011128225857468 9.308711120124503 a32.653669881944694,32.653669881944694 0 0,0 -0.4460666570660672,-0.3420248913802117 l 7.170323611417022 -9.186646886916924" fill="#ff8f0d" stroke="none" /><path d="M 86.79598089348748 116.32954008644616 l -3.8163165846930966 4.719676194771502 a27.069564700874057,27.069564700874057 0 0,0 -0.35980591025267644,-0.296095768676292 l 3.896992623490462 -4.653285307238029" fill="#ff4206" stroke="none" /><path d="M 85.97065885151581 115.62618273729859 l -5.8623810465472115 6.5296464416591755 a29.775180578654112,29.775180578654112 0 0,0 -0.3784290052927877,-0.3456859238698463 l 5.973909601306854 -6.427767751202753" fill="#ff6809" stroke="none" /><path d="M 85.70375840098266 115.38237550388516 l -9.92679876349632 10.68097129402871 a35.581648791368465,35.581648791368465 0 0,0 -0.4450487662277997,-0.42082138701175914 l 10.109183364114937 -10.50851527027102" fill="#ffb510" stroke="none" /><path d="M 84.67929136418377 114.36230785411682 l -21.194648626781426 19.8687982177302 a50.05137299732332,50.05137299732332 0 0,0 -0.583822076211425,-0.6336235574670616 l 21.53351711098858 -19.501023405461794" fill="#9aff22" stroke="none" /><path d="M 83.95833913139862 113.55231037782056 l -8.990561124066332 7.595402734301618 a32.76946608907173,32.76946608907173 0 0,0 -0.36031432387237017,-0.4340218144317926 l 9.119971447832238 -7.439519662756064" fill="#ff900d" stroke="none" /><path d="M 83.72743513129214 113.27417163493432 l -14.577922922813622 11.891785500292642 a39.81303800901027,39.81303800901027 0 0,0 -0.4286197505007726,-0.5347690420491724 l 14.780460585369255 -11.63908862466521" fill="#ffeb16" stroke="none" /><path d="M 83.28015986056508 112.70617746262583 l -24.595235007170544 18.691053151819087 a51.891439801052876,51.891439801052876 0 0,0 -0.5343304386641867,-0.7158229416230045 l 24.913326712529816 -18.264917330686774" fill="#86ff25" stroke="none" /><path d="M 82.6465618267979 111.8261652097733 l -7.265799896301671 4.951557673885548 a29.79259754173431,29.79259754173431 0 0,0 -0.2851533136969764,-0.42626551386731265 l 7.349956315409377 -4.825755245812414" fill="#ff6809" stroke="none" /><path d="M 82.44556493220864 111.52570212397912 l -12.247580696208754 8.04138477249552 a35.65152217243888,35.65152217243888 0 0,0 -0.3323997454556646,-0.5158917865774162 l 12.384185305041465 -7.829371385996656" fill="#ffb610" stroke="none" /><path d="M 82.05923443525364 110.91462005526583 l -26.92750081078904 16.381878428039087 a52.51914086307076,52.51914086307076 0 0,0 -0.46321663236853206,-0.7763777200205746 l 27.205498318855806 -15.915938614132402" fill="#7fff26" stroke="none" /><line stroke="#e1ed5e" stroke-width="0.3" x1="26.63291911575756" x2="22.317208475507996" y1="142.92168965132927" y2="145.44649492493687" /><path d="M 25.769776987707644 143.4266507060508 a86.0,86.0 0 0,1 -11.730757126820373,-40.83630448921669" fill="none" id="id45" stroke="none" /><text fill="#e1ed5e" style="font-size:6.75px; font-family:Arial;" text-anchor="middle"><textPath startOffset="21.46611528233685" xlink:href="#id45">September</textPath></text><path d="M 80.87730276802145 108.67885076344099 l -7.973635875976419 3.6188407404104685 a29.75641921033437,29.75641921033437 0 0,0 -0.20766992960704336,-0.46824086800360454 l 8.034746890314743 -3.481051535914168" fill="#ff6709" stroke="none" /><path d="M 80.73074385275274 108.34839909993369 l -8.888456085116475 3.8509207731605706 a30.686807646392268,30.686807646392268 0 0,0 -0.20581936892070354,-0.48649619006983286 l 8.953426435229485 -3.697350057424579" fill="#ff740a" stroke="none" /><path d="M 80.58989483394504 108.01547362559985 l -13.819588602660453 5.7068494484504075 a35.95156044612272,35.95156044612272 0 0,0 -0.23128389664946097,-0.5740276640296449 l 13.915775113567301 -5.468122416577957" fill="#ffba11" stroke="none" /><path d="M 79.76711848015287 105.62410040840567 l -60.698644559541364 16.872301225217015 a84.0,84.0 0 0,0 -0.3752476946329004,-1.3964362672978443 l 60.98008033051604 -15.824974024743632" fill="#4dd2ff" stroke="none" /><line stroke="#e1ed5e" stroke-width="0.3" x1="15.007084014347285" x2="10.007500721073583" y1="101.09737516637583" y2="101.16192664675087" /><path d="M 14.007167355692545 101.11028546245083 a86.0,86.0 0 0,1 10.666146001902534,-42.60595125391555" fill="none" id="id46" stroke="none" /><text fill="#e1ed5e" style="font-size:6.75px; font-family:Arial;" text-anchor="middle"><textPath startOffset="22.20632615414155" xlink:href="#id46">October</textPath></text><path d="M 81.43458229118936 90.18545643968196 l -8.232301217657835 -4.3519774329676615 a30.31184680475954,30.31184680475954 0 0,0 0.2478237425765551,-0.4591797570908016 l 8.156169375862808 4.493038173390936" fill="#ff6f0a" stroke="none" /><line stroke="#e1ed5e" stroke-width="0.3" x1="26.266209847984243" x2="21.928928074336255" y1="57.711370442889674" y2="55.22380399835377" /><path d="M 25.398753493254645 57.213857153982495 a86.0,86.0 0 0,1 29.58750427330803,-30.492523968695096" fill="none" id="id47" stroke="none" /><text fill="#e1ed5e" style="font-size:6.75px; font-family:Arial;" text-anchor="middle"><textPath startOffset="21.46611528233685" xlink:href="#id47">November</textPath></text><path d="M 81.78341655067845 89.55222093294921 l -9.732626421059125 -5.581964964629746 a32.21973038527451,32.21973038527451 0 0,0 0.2800666701431605,-0.4787247242196438 l 9.635100076445639 5.748669101203282" fill="#ff890c" stroke="none" /><path d="M 82.7489923806493 88.02491185347247 l -7.901846005408653 -5.485204373158611 a30.619076738882534,30.619076738882534 0 0,0 0.304276900412448,-0.4303780970297884 l 7.8062564851923275 5.620408970520185" fill="#ff730a" stroke="none" /><path d="M 83.17141714833178 87.43820079747576 l -7.539273504698281 -5.627737090740394 a30.4080853387467,30.4080853387467 0 0,0 0.31671332739535396,-0.41675761413334533 l 7.441284237078818 5.756679480754765" fill="#ff700a" stroke="none" /><path d="M 83.6137871275137 86.86637796730984 l -12.478282300375792 -10.00139840887327 a36.991732217020285,36.991732217020285 0 0,0 0.4025079329664489,-0.49342713274314737 l 12.30427587533295 10.2147097112245" fill="#ffc812" stroke="none" /><path d="M 85.05521093208273 85.24692304244772 l -6.338233665949253 -6.256926653413753 a29.906308839826515,29.906308839826515 0 0,0 0.3648059844715889,-0.36323939163930785 l 6.22959188131035 6.36510189570317" fill="#ff6909" stroke="none" /><line stroke="#e1ed5e" stroke-width="0.3" x1="56.762969772571076" x2="54.21961505331055" y1="26.818313649435495" y2="22.513508569990535" /><path d="M 56.25429882871897 25.957352633546506 a86.0,86.0 0 0,1 42.265352541879196,-11.944610805530505" fill="none" id="id48" stroke="none" /><text fill="#e1ed5e" style="font-size:6.75px; font-family:Arial;" text-anchor="middle"><textPath startOffset="22.20632615414155" xlink:href="#id48">December</textPath></text><path d="M 91.56875222667455 80.76684994638697 l -9.27845060885363 -21.16576782261178 a44.110157360382566,44.110157360382566 0 0,0 0.6980248446324052,-0.2988578100414768 l 8.912742006430916 21.32234516061604" fill="#dfff1b" stroke="none" /><path d="M 93.94186890950719 79.89281104454417 l -2.545956593094365 -8.450135780335625 a29.8253436012446,29.8253436012446 0 0,0 0.49284218997104945,-0.14387414987524147 l 2.400124185399894 8.492708259129564" fill="#ff6809" stroke="none" /><path d="M 94.28887869178378 79.79150937346287 l -6.403327611399877 -22.657824800089415 a44.54526765977535,44.54526765977535 0 0,0 0.7396680408599007,-0.20217921668912936 l 6.0123616813162535 22.76469055760484" fill="#d9ff1c" stroke="none" /><path d="M 96.40284397218896 79.31037775812273 l -1.738868931634493 -10.001384717678501 a31.151421645878806,31.151421645878806 0 0,0 0.5290858232541854,-0.08730369421920776 l 1.566453902241422 10.029834674837337" fill="#ff7a0b" stroke="none" /><path d="M 96.75951476605007 79.25152402106235 l -4.822483680656848 -30.87784068837198 a52.25215823629917,52.25215823629917 0 0,0 0.8898567916595832,-0.13114175969270583 l 4.290257908568616 30.956276932225656" fill="#82ff25" stroke="none" /><path d="M 99.27714615592234 79.0124445844662 l -0.3513357358484801 -10.200787179856388 a31.206835743167744,31.206835743167744 0 0,0 0.5370152017823451,-0.013869518312867864 l 0.17569389887125605 10.205323490311615" fill="#ff7b0b" stroke="none" /></svg>