<?xml version="1.0" encoding="utf-8" ?>
<svg baseProfile="full" height="200mm" version="1.1" viewBox="0,0,200,200" width="200mm" xmlns="http://www.w3.org/2000/svg" xmlns:ev="http://www.w3.org/2001/xml-events" xmlns:xlink="http://www.w3.org/1999/xlink"><defs /><rect fill="#1a1a1a" height="200" width="200" x="0" y="0" /><text alignment-baseline="middle" fill="#e1ed5e" style="dominant-baseline: central; font-size:9.0px; font-family:Arial;" text-anchor="middle" x="100.0" y="100.0">2025</text><line stroke="#e1ed5e" stroke-width="0.3" x1="100.0" x2="100.0" y1="15.0" y2="10.0" /><path d="M 100.0 14.0 a86.0,86.0 0 0,1 42.46469731375804,11.215312516191453" fill="none" id="id121" stroke="none" /><text fill="#e1ed5e" style="font-size:6.75px; font-family:Arial;" text-anchor="middle"><textPath startOffset="22.20632615414155" xlink:href="#id121">January</textPath></text><path d="M 100.0 79.0 l 0.0 -15.329151659690453 a36.32915165969045,36.32915165969045 0 0,0 0.6253466263575845,0.005382555842035642 l -0.2638661470850561 15.326880480456976" fill="#ffa00e" stroke="none" /><path d="M 100.36148047927253 79.00311137660856 l 0.3744294539023629 -21.74904038172961 a42.752263214250945,42.752263214250945 0 0,0 0.7356918671794543,0.01900075042681694 l -0.748747956276685 21.739372839160435" fill="#fff617" stroke="none" /><path d="M 101.08401301168833 79.027996857942 l 0.858594653251729 -16.61091663254555 a37.63309159933807,37.63309159933807 0 0,0 0.6466403651683982,0.03900711272519682 l -1.1443970672597392 16.593676250440048" fill="#ffb210" stroke="none" /><path d="M 101.44485096284872 79.0497635885617 l 2.1969069296812482 -31.854994552520033 a52.93066046919109,52.93066046919109 0 0,0 0.9084156817441607,0.07051054041985838 l -2.74491280078775 31.81245874991171" fill="#8cff24" stroke="none" /><path d="M 102.16513564639614 79.11191278185805 l 2.1548084151420275 -20.788455535703612 a41.89983451766767,41.89983451766767 0 0,0 0.7167531274370837,0.08053556524025064 l -2.5123282460888365 20.74828401699276" fill="#ffeb16" stroke="none" /><path d="M 102.52436894288641 79.15227682838746 l 1.8425952027872794 -15.217234712580227 a36.32838508712158,36.32838508712158 0 0,0 0.6201519519442046,0.08051352184255277 l -2.10426188323933 15.183262867573537" fill="#ffa00e" stroke="none" /><path d="M 102.88285421437855 79.19881850522331 l 3.1150358074498596 -22.476483503852982 a43.69131461111652,43.69131461111652 0 0,0 0.7440652090850461,0.10965587020306145 l -3.5014699969635616 22.419533149488952" fill="#fcff18" stroke="none" /><path d="M 103.59715602781102 79.31037775812273 l 2.798055502164359 -16.09346686771742 a37.3348948700477,37.3348948700477 0 0,0 0.6322128937571067,0.11553286533099195 l -3.0746635170243666 16.04291852103569" fill="#ffae10" stroke="none" /><path d="M 103.95276090670814 79.375362276772 l 6.650473090988478 -34.70070703161857 a56.33224958629417,56.33224958629417 0 0,0 0.9507638801744898,0.1907142900408016 l -7.246803380630093 34.58108878550056" fill="#66ff29" stroke="none" /><path d="M 104.66035177308747 79.52364482259891 l 4.091870967514591 -17.97860061868594 a39.43836999902658,39.43836999902658 0 0,0 0.6606421138316855,0.15635264385332803 l -4.4007367683088 17.905502062691745" fill="#ffca12" stroke="none" /><path d="M 105.36241919743992 79.69619591428918 l 4.797363344112884 -18.164325070546617 a39.78716051786236,39.78716051786236 0 0,0 0.6606603263987447,0.18058342379318934 l -5.109321559735339 18.079055105927132" fill="#ffcf13" stroke="none" /><path d="M 105.71112130821622 79.79150937346287 l 3.7696569464311405 -13.338725086721658 a34.86116519030468,34.86116519030468 0 0,0 0.5760554925045366,0.16816639474376135 l -3.998702656659104 13.271860363059192" fill="#ff8b0c" stroke="none" /><path d="M 106.40334571778207 80.00007090966166 l 2.80848387039917 -8.7718953083167 a30.210522729485056,30.210522729485056 0 0,0 0.4938948286699099,0.16282935980629082 l -2.9590615213114972 8.722252224251173" fill="#ff4806" stroke="none" /><path d="M 107.08798089147638 80.2323363322302 l 5.539015924926739 -15.447756636314212 a37.410785554365816,37.410785554365816 0 0,0 0.6043047460368032,0.2225705379028961 l -5.804102996736118 15.35012283060499" fill="#ffaf10" stroke="none" /><path d="M 107.4271985657038 80.35727306442388 l 5.4234527441474825 -14.343416344517108 a36.33451766767254,36.33451766767254 0 0,0 0.5831116259820324,0.22623825169838177 l -5.669547535129182 14.247935388928179" fill="#ffa00e" stroke="none" /><path d="M 107.76421540070413 80.48803036053334 l 8.173285933716022 -20.539990039287677 a43.10641974106882,43.10641974106882 0 0,0 0.6870673338871095,0.2802720167259143 l -8.525637137191518 20.396257136378185" fill="#fffb17" stroke="none" /><path d="M 108.43124777332544 80.76684994638697 l 16.001868933557965 -36.50306035496577 a60.856407573250266,60.856407573250266 0 0,0 0.9557872106443617,0.42883386088765896 l -16.627838262669105 36.22220616356158" fill="#35ff2f" stroke="none" /><path d="M 108.76106565485865 80.91482961587045 l 7.165644300451289 -15.609692675951772 a38.17582497809792,38.17582497809792 0 0,0 0.5948553206879376,0.2792925492020135 l -7.433277832438825 15.484035144109756" fill="#ffb911" stroke="none" /><path d="M 109.08828744355905 81.06846463323043 l 6.632423923329334 -13.815800705214782 a36.325318796846105,36.325318796846105 0 0,0 0.5613623659325053,0.27545807499309216 l -6.869257556272271 13.699587470086858" fill="#ffa00e" stroke="none" /><path d="M 109.41281617654863 81.2277094730956 l 12.746197394331539 -25.42016290467897 a49.43677601479607,49.43677601479607 0 0,0 0.7574173433421139,0.38797858150905157 l -13.181875225262408 25.196991797857418" fill="#b5ff20" stroke="none" /><path d="M 110.05341064243156 81.56283822128135 l 10.296109546288564 -18.882252416421586 a42.5069599922126,42.5069599922126 0 0,0 0.639377367062796,0.35581281253125857 l -10.619611002423396 18.70222420633015" fill="#fff316" stroke="none" /><line stroke="#e1ed5e" stroke-width="0.3" x1="143.23703022742887" x2="145.7803849466894" y1="26.81831364943548" y2="22.513508569990506" /><path d="M 143.74570117128098 25.957352633546492 a86.0,86.0 0 0,1 28.547481713284135,27.462654790039103" fill="none" id="id122" stroke="none" /><text fill="#e1ed5e" style="font-size:6.75px; font-family:Arial;" text-anchor="middle"><textPath startOffset="19.985693538727396" xlink:href="#id122">February</textPath></text><path d="M 110.68208982089419 81.91981866633111 l 8.452971739171042 -14.307243658787867 a37.617760147960674,37.617760147960674 0 0,0 0.5546612155111924,0.3341771761987939 l -8.697995020899873 14.159619873130458" fill="#ffb210" stroke="none" /><path d="M 110.99172775467656 82.1063720568725 l 19.260935186976543 -31.355216919907484 a57.79854959602842,57.79854959602842 0 0,0 0.8432556484230939,0.5280466096821195 l -19.7978099877719 31.019025968902422" fill="#56ff2b" stroke="none" /><path d="M 111.60114157652 82.49532879139004 l 15.81153836668431 -23.857633198038688 a49.62152000389371,49.62152000389371 0 0,0 0.7079225928370682,0.4779924947819498 l -16.21986565392792 23.581928790958067" fill="#b2ff20" stroke="none" /><path d="M 111.90073688211348 82.69761687909136 l 8.690098094147203 -12.634461888591082 a36.33451766767254,36.33451766767254 0 0,0 0.5122628209355005,0.3588728426255648 l -8.906292054666354 12.483004203201581" fill="#ffa00e" stroke="none" /><path d="M 112.19680574252982 82.90503203632743 l 14.58647971880519 -20.444320321200266 a46.114450501314124,46.114450501314124 0 0,0 0.642208906327652,0.4665920823108475 l -14.936233941486632 20.19020900407274" fill="#ddff1b" stroke="none" /><path d="M 112.77801427241765 83.33499621200491 l 11.195533141483805 -14.601142105012835 a39.39927479801421,39.39927479801421 0 0,0 0.5346433651315029,0.41729762685767396 l -11.445209061774738 14.406266088931936" fill="#ffca12" stroke="none" /><path d="M 113.06298171725822 83.55741782278167 l 24.501197067415617 -30.840045170464993 a60.388031733670786,60.388031733670786 0 0,0 0.8083271660816437,0.6536110195849343 l -25.028427632061753 30.41372805361593" fill="#3aff2e" stroke="none" /><path d="M 113.6212207817346 84.01681056812373 l 15.098631981583514 -17.716789044887864 a44.27774262630196,44.27774262630196 0 0,0 0.5758345758650274,0.4993580698220156 l -15.401360356095305 17.45426598164618" fill="#f4ff19" stroke="none" /><path d="M 113.89432698308785 84.25364557470407 l 10.142804597286235 -11.494777418855305 a36.32991823225932,36.32991823225932 0 0,0 0.4653499440958985,0.417795774496238 l -10.339165528978123 11.318482635589769" fill="#ffa00e" stroke="none" /><path d="M 114.16331599549186 84.49514656593476 l 17.731270784514855 -19.410761914874474 a47.29021950744671,47.29021950744671 0 0,0 0.596289395199192,0.5541860068717241 l -18.062768063508894 19.10267132192811" fill="#cfff1d" stroke="none" /><path d="M 114.68862486808459 84.99185889309783 l 3.109876286195268 -3.177524277962839 a25.446120899445148,25.446120899445148 0 0,0 0.3103992951929494,0.3090663419748197 l -3.1641113815555397 3.1235220853379007" fill="#ff0000" stroke="none" /><path d="M 114.94478906791727 85.2469230424477 l 24.809906450066002 -24.49164437879259 a55.86218728706317,55.86218728706317 0 0,0 0.6696432784696985,0.6901262617690196 l -25.227813992238808 24.060953921473455" fill="#6bff28" stroke="none" /><path d="M 115.4437574822437 85.77008943001954 l 15.248323969862533 -14.049837721338644 a41.734254842791785,41.734254842791785 0 0,0 0.48224201627402086,0.5325036790718278 l -15.48790962675259 13.785281254997267" fill="#ffe915" stroke="none" /><path d="M 115.68641384162765 86.03803664274999 l 9.315192021887428 -8.291147421483865 a33.47060255037477,33.47060255037477 0 0,0 0.37934646371148667,0.4336585846890913 l -9.456530349176763 8.129573280591826" fill="#ff780b" stroke="none" /><path d="M 115.9244219780498 86.31012108654704 l 15.12533315008479 -13.002919643533273 a40.94621824199358,40.94621824199358 0 0,0 0.4548722920808234,0.5384253197171401 l -15.34691605565273 12.740635374187026" fill="#ffde14" stroke="none" /><path d="M 116.38621287248628 86.86637796730983 l 7.474524824342524 -5.990864678787711 a30.579090820597685,30.579090820597685 0 0,0 0.325661375293964,0.4135568751928842 l -7.576540280230452 5.861315409641788" fill="#ff4e07" stroke="none" /><path d="M 116.60985879189232 87.15038557335679 l 27.929761315037098 -21.606846176295218 a56.31185875596223,56.31185875596223 0 0,0 0.5865123028871599,0.7717814404001357 l -28.297549558148372 21.12287996001405" fill="#66ff29" stroke="none" /><path d="M 117.04232023915458 87.72973835380427 l 18.376442105827227 -13.230813034871936 a43.64394042636036,43.64394042636036 0 0,0 0.43371140900059757,0.6134540302361675 l -18.601466134631707 12.912532504303975" fill="#fcff18" stroke="none" /><path d="M 117.45458315368197 88.32363383020206 l 22.593431274806377 -15.114034765198875 a48.182663292124985,48.182663292124985 0 0,0 0.4552191673606571,0.6933300226821995 l -22.85024707752496 14.722886678539002" fill="#c4ff1e" stroke="none" /><line stroke="#e1ed5e" stroke-width="0.3" x1="172.23445277983987" x2="176.4835382374775" y1="55.19839476539836" y2="52.563006222186495" /><path d="M 173.08426987136738 54.67131705675599 a86.0,86.0 0 0,1 12.851231095245387,41.99856678651699" fill="none" id="id123" stroke="none" /><text fill="#e1ed5e" style="font-size:6.75px; font-family:Arial;" text-anchor="middle"><textPath startOffset="22.20632615414155" xlink:href="#id123">March</textPath></text><path d="M 117.84615892207809 88.93136811851018 l 14.253648783768199 -8.840467690803463 a37.77260780687239,37.77260780687239 0 0,0 0.33794648878294115,0.5554951705129514 l -14.403711070837364 8.593804747083428" fill="#ffb410" stroke="none" /><path d="M 118.03404312379186 89.2402003453031 l 30.474250132139083 -18.182102804021298 a56.486177358123236,56.486177358123236 0 0,0 0.49100024775612583,0.839278583483986 l -30.782710054365538 17.65484480818342" fill="#64ff29" stroke="none" /><path d="M 118.3937258080291 89.86733742301442 l 24.531532881904667 -13.513833346371996 a49.007495376228945,49.007495376228945 0 0,0 0.40067571588985923,0.7423912494488109 l -24.760516697012992 13.089561113590726" fill="#baff1f" stroke="none" /><path d="M 118.73160827565052 90.50648371742162 l 25.88200269334384 -13.117464895654528 a50.016304876861675,50.016304876861675 0 0,0 0.38260088416845,0.7713000358611841 l -26.1039635904657 12.670005271294395" fill="#aeff20" stroke="none" /><path d="M 119.04729006885535 91.15688171328212 l 16.14745928255245 -7.496808834714888 a38.80288133943347,38.80288133943347 0 0,0 0.27605050320274,0.6082406919264056 l -16.274112102718536 7.217746133946419" fill="#ffc212" stroke="none" /><path d="M 119.196687751892 91.48605970444005 l 35.457859422148566 -15.725947206636047 a59.788725299328334,59.788725299328334 0 0,0 0.4091521558179729,0.9443795869458967 l -35.72330228780922 15.113268475103547" fill="#41ff2d" stroke="none" /><path d="M 119.47837535516314 92.15188598940014 l 23.66301220991296 -9.534163618445062 a46.511535091988705,46.511535091988705 0 0,0 0.2928154735268831,0.7451834412154402 l -23.823621233321543 9.125431172333837" fill="#d8ff1c" stroke="none" /><path d="M 119.7369772167798 92.82701384747503 l 18.83735299972956 -6.846036793436112 a41.04280638567118,41.04280638567118 0 0,0 0.23559923165295885,0.6660707540166494 l -18.95240531219233 6.520768412992848" fill="#ffe015" stroke="none" /><path d="M 119.97218684219823 93.5106431181261 l 32.67473485935122 -10.616664924991154 a55.356249391609076,55.356249391609076 0 0,0 0.2866518362141457,0.9087646554768983 l -32.852642179333564 10.052650103087837" fill="#70ff27" stroke="none" /><path d="M 120.08093135843002 93.85539295169968 l 60.24279407529006 -18.433821144900946 a84.0,84.0 0 0,0 0.41117641155319085,1.3862824530138804 l -60.551176383954946 17.394109305140535" fill="#4dd2ff" stroke="none" /><line stroke="#e1ed5e" stroke-width="0.3" x1="184.98032266829074" x2="189.97916517819016" y1="98.17113171792111" y2="98.06355123074" /><path d="M 185.9800911702706 98.14961562048488 a86.0,86.0 0 0,1 -9.607161424134198,41.387399972396054" fill="none" id="id124" stroke="none" /><text fill="#e1ed5e" style="font-size:6.75px; font-family:Arial;" text-anchor="middle"><textPath startOffset="21.466115282336823" xlink:href="#id124">April</textPath></text><line stroke="#e1ed5e" stroke-width="0.3" x1="174.80103733775053" x2="179.2010983576182" y1="140.37084112569926" y2="142.7455964860345" /><path d="M 175.68104954172406 140.8457921977663 a86.0,86.0 0 0,1 -30.038265399797805,32.042727171017184" fill="none" id="id125" stroke="none" /><text fill="#e1ed5e" style="font-size:6.75px; font-family:Arial;" text-anchor="middle"><textPath startOffset="22.206326154141568" xlink:href="#id125">May</textPath></text><line stroke="#e1ed5e" stroke-width="0.3" x1="143.8653032363475" x2="146.44561519142675" y1="172.8068346515853" y2="177.08958963109032" /><path d="M 144.38136562736335 173.6633856474863 a86.0,86.0 0 0,1 -40.68145358897372,12.25698825130547" fill="none" id="id126" stroke="none" /><text fill="#e1ed5e" style="font-size:6.75px; font-family:Arial;" text-anchor="middle"><textPath startOffset="21.466115282336833" xlink:href="#id126">June</textPath></text><line stroke="#e1ed5e" stroke-width="0.3" x1="102.19456741930631" x2="102.32365962044197" y1="184.97166512339345" y2="189.96999836594603" /><path d="M 102.22038585953345 185.97133177190398 a86.0,86.0 0 0,1 -42.740103519485714,-10.115201625700543" fill="none" id="id127" stroke="none" /><text fill="#e1ed5e" style="font-size:6.75px; font-family:Arial;" text-anchor="middle"><textPath startOffset="22.20632615414155" xlink:href="#id127">July</textPath></text><line stroke="#e1ed5e" stroke-width="0.3" x1="58.666819895761336" x2="56.23545636021788" y1="174.27360380694188" y2="178.64263932499728" /><path d="M 58.180547188652646 175.14741091055294 a86.0,86.0 0 0,1 -31.652253787137756,-30.449443065178592" fill="none" id="id128" stroke="none" /><text fill="#e1ed5e" style="font-size:6.75px; font-family:Arial;" text-anchor="middle"><textPath startOffset="22.20632615414155" xlink:href="#id128">August</textPath></text><line stroke="#e1ed5e" stroke-width="0.3" x1="26.63291911575756" x2="22.317208475507996" y1="142.92168965132927" y2="145.44649492493687" /><path d="M 25.769776987707644 143.4266507060508 a86.0,86.0 0 0,1 -11.730757126820373,-40.83630448921669" fill="none" id="id129" stroke="none" /><text fill="#e1ed5e" style="font-size:6.75px; font-family:Arial;" text-anchor="middle"><textPath startOffset="21.46611528233685" xlink:href="#id129">September</textPath></text><line stroke="#e1ed5e" stroke-width="0.3" x1="15.007084014347285" x2="10.007500721073583" y1="101.09737516637583" y2="101.16192664675087" /><path d="M 14.007167355692545 101.11028546245083 a86.0,86.0 0 0,1 10.666146001902534,-42.60595125391555" fill="none" id="id130" stroke="none" /><text fill="#e1ed5e" style="font-size:6.75px; font-family:Arial;" text-anchor="middle"><textPath startOffset="22.20632615414155" xlink:href="#id130">October</textPath></text><line stroke="#e1ed5e" stroke-width="0.3" x1="26.266209847984243" x2="21.928928074336255" y1="57.711370442889674" y2="55.22380399835377" /><path d="M 25.398753493254645 57.213857153982495 a86.0,86.0 0 0,1 29.58750427330803,-30.492523968695096" fill="none" id="id131" stroke="none" /><text fill="#e1ed5e" style="font-size:6.75px; font-family:Arial;" text-anchor="middle"><textPath startOffset="21.46611528233685" xlink:href="#id131">November</textPath></text><line stroke="#e1ed5e" stroke-width="0.3" x1="56.762969772571076" x2="54.21961505331055" y1="26.818313649435495" y2="22.513508569990535" /><path d="M 56.25429882871897 25.957352633546506 a86.0,86.0 0 0,1 42.265352541879196,-11.944610805530505" fill="none" id="id132" stroke="none" /><text fill="#e1ed5e" style="font-size:6.75px; font-family:Arial;" text-anchor="middle"><textPath startOffset="22.20632615414155" xlink:href="#id132">December</textPath></text></svg>