<?xml version="1.0" encoding="utf-8" ?>
<svg baseProfile="full" height="200mm" version="1.1" viewBox="0,0,200,200" width="200mm" xmlns="http://www.w3.org/2000/svg" xmlns:ev="http://www.w3.org/2001/xml-events" xmlns:xlink="http://www.w3.org/1999/xlink"><defs /><rect fill="#1a1a1a" height="200" width="200" x="0" y="0" /><text alignment-baseline="middle" fill="#e1ed5e" style="dominant-baseline: central; font-size:9.0px; font-family:Arial;" text-anchor="middle" x="100.0" y="100.0">2019</text><line stroke="#e1ed5e" stroke-width="0.3" x1="100.0" x2="100.0" y1="15.0" y2="10.0" /><path d="M 100.0 14.0 a86.0,86.0 0 0,1 42.46469731375804,11.215312516191453" fill="none" id="id49" stroke="none" /><text fill="#e1ed5e" style="font-size:6.75px; font-family:Arial;" text-anchor="middle"><textPath startOffset="22.20632615414155" xlink:href="#id49">January</textPath></text><path d="M 100.0 79.0 l 0.0 -23.17072780995288 a44.17072780995288,44.17072780995288 0 0,0 0.7603264694551507,0.006544369966233719 l -0.3988459901826223 23.167294816595206" fill="#fff917" stroke="none" /><path d="M 106.74666289553966 80.11325718540242 l 5.060265894536708 -14.915849209638285 a36.75083644026813,36.75083644026813 0 0,0 0.5973200877519397,0.20839324992927985 l -5.316267986351921 14.826535106536799" fill="#ff930d" stroke="none" /><line stroke="#e1ed5e" stroke-width="0.3" x1="143.23703022742887" x2="145.7803849466894" y1="26.81831364943548" y2="22.513508569990506" /><path d="M 143.74570117128098 25.957352633546492 a86.0,86.0 0 0,1 28.547481713284135,27.462654790039103" fill="none" id="id50" stroke="none" /><text fill="#e1ed5e" style="font-size:6.75px; font-family:Arial;" text-anchor="middle"><textPath startOffset="19.985693538727396" xlink:href="#id50">February</textPath></text><line stroke="#e1ed5e" stroke-width="0.3" x1="172.23445277983987" x2="176.4835382374775" y1="55.19839476539836" y2="52.563006222186495" /><path d="M 173.08426987136738 54.67131705675599 a86.0,86.0 0 0,1 12.851231095245387,41.99856678651699" fill="none" id="id51" stroke="none" /><text fill="#e1ed5e" style="font-size:6.75px; font-family:Arial;" text-anchor="middle"><textPath startOffset="22.20632615414155" xlink:href="#id51">March</textPath></text><path d="M 120.98425023603335 99.18683210126433 l 10.025465354615072 -0.38850025636182195 a31.032989984335693,31.032989984335693 0 0,0 0.01609031794782636,0.5339593188572141 l -10.030667367018545 0.21587079007960874" fill="#ff3e05" stroke="none" /><line stroke="#e1ed5e" stroke-width="0.3" x1="184.98032266829074" x2="189.97916517819016" y1="98.17113171792111" y2="98.06355123074" /><path d="M 185.9800911702706 98.14961562048488 a86.0,86.0 0 0,1 -9.607161424134198,41.387399972396054" fill="none" id="id52" stroke="none" /><text fill="#e1ed5e" style="font-size:6.75px; font-family:Arial;" text-anchor="middle"><textPath startOffset="21.466115282336823" xlink:href="#id52">April</textPath></text><path d="M 120.99824983174949 100.27111621757518 l 9.588951440767977 0.12380652035115526 a30.589750663489,30.589750663489 0 0,0 -0.011329769673422335,0.526449877248858 l -9.585399608409546 -0.288846213390128" fill="#ff3705" stroke="none" /><path d="M 120.9764740272857 100.99374915477107 l 12.062300428611508 0.571444983553244 a33.07582879140432,33.07582879140432 0 0,0 -0.03183729510921918,0.5684762912602357 l -12.050676782614758 -0.7789929911489031" fill="#ff5d08" stroke="none" /><path d="M 120.92983693683757 101.71520430193887 l 23.905828911548873 1.959087436478553 a44.98596838845607,44.98596838845607 0 0,0 -0.06988978002571933,0.7712278987623741 l -23.868564535246076 -2.370296723789498" fill="#faff18" stroke="none" /><path d="M 120.5718875245553 104.21870165774334 l 14.648778181312652 3.0040425179095966 a35.953627441350484,35.953627441350484 0 0,0 -0.1295459896044298,0.6051957353512856 l -14.59489815298378 -3.2557520726770512" fill="#ff870c" stroke="none" /><path d="M 120.32669344350535 105.2749913415812 l 8.711247621221524 2.260660638388071 a29.99980120003741,29.99980120003741 0 0,0 -0.1340161457114176,0.49872393342210136 l -8.671043399168328 -2.4102755049857207" fill="#ff2e04" stroke="none" /><path d="M 120.13307415673323 105.97154293290107 l 14.231422042655332 4.221091476759375 a35.84422401512948,35.84422401512948 0 0,0 -0.18054091719492532,0.5900181634205746 l -14.156654352954273 -4.465436612732006" fill="#ff850c" stroke="none" /><path d="M 119.9155931802556 106.66101706037122 l 7.077455277410675 2.367142666560625 a28.462823702031287,28.462823702031287 0 0,0 -0.15940424021929597,0.4633033375481499 l -7.035660206248148 -2.488618707198076" fill="#ff1602" stroke="none" /><path d="M 118.64920377521936 109.65438752849418 l 8.041640701158839 4.163025758615044 a30.055317147037247,30.055317147037247 0 0,0 -0.24179859269034787,0.45739181319130223 l -7.968789600243597 -4.30083258689248" fill="#ff2f04" stroke="none" /><line stroke="#e1ed5e" stroke-width="0.3" x1="174.80103733775053" x2="179.2010983576182" y1="140.37084112569926" y2="142.7455964860345" /><path d="M 175.68104954172406 140.8457921977663 a86.0,86.0 0 0,1 -30.038265399797805,32.042727171017184" fill="none" id="id53" stroke="none" /><text fill="#e1ed5e" style="font-size:6.75px; font-family:Arial;" text-anchor="middle"><textPath startOffset="22.206326154141568" xlink:href="#id53">May</textPath></text><path d="M 117.94076556474637 110.91462005526583 l 8.886331041025484 5.406175486106084 a31.401615872414602,31.401615872414602 0 0,0 -0.2849103902504158,0.45936626652686774 l -8.791956011107104 -5.558338083998224" fill="#ff4306" stroke="none" /><path d="M 116.71984013943494 112.70617746262583 l 9.646038951804423 7.330469771894028 a33.1153561456682,33.1153561456682 0 0,0 -0.3488043345151213,0.4508766216582608 l -9.518427800071233 -7.495424387665541" fill="#ff5d08" stroke="none" /><path d="M 116.27256486870786 113.27417163493432 l 13.968024061447561 11.394266994080226 a39.02595396958408,39.02595396958408 0 0,0 -0.4291070895022578,0.5168871322398083 l -13.769820972051761 -11.633015383433804" fill="#ffb310" stroke="none" /><path d="M 115.56566222782051 114.09645910891815 l 6.780912318182644 6.140879315984298 a30.148287852946304,30.148287852946304 0 0,0 -0.35166340011229236,0.38166116645685405 l -6.674202510074629 -6.256691737242487" fill="#ff3004" stroke="none" /><path d="M 115.07121518719521 114.62390073753431 l 5.34697155875704 5.188273165133816 a28.450388129903324,28.450388129903324 0 0,0 -0.3440591803046504,0.34853013315987097 l -5.256871753396854 -5.279543792274351" fill="#ff1502" stroke="none" /><path d="M 114.29624159901734 115.38237550388516 l 10.222965671967307 10.999639005844564 a36.016693557142304,36.016693557142304 0 0,0 -0.45775579700548474,0.4181490672793194 l -10.032110325494958 -11.173980839710467" fill="#ff880c" stroke="none" /><path d="M 113.48314897796784 116.09983520530334 l 5.775798390845067 6.896712513049532 a29.995804051853423,29.995804051853423 0 0,0 -0.3987011871044038,0.32810393354830275 l -5.6562270751959725 -6.995111565455012" fill="#ff2e04" stroke="none" /><path d="M 112.63410532772338 116.77436683061366 l 19.024485984614714 25.25890820060946 a52.62188341110658,52.62188341110658 0 0,0 -0.7282242954356952,0.5387229243792239 l -18.586876718760458 -25.582641073728453" fill="#9aff23" stroke="none" /><path d="M 112.04921762599082 117.19931262002967 l 10.381254542792584 14.818426209221235 a39.09298762505481,39.09298762505481 0 0,0 -0.5544560582688284,0.38135993267756535 l -10.124641599900873 -14.994926931263894" fill="#ffb410" stroke="none" /><path d="M 111.45004920935366 117.60387380957326 l 4.428393238476495 6.808431503126106 a29.121909024813338,29.121909024813338 0 0,0 -0.4225702685235406,0.2697043385919951 l -4.310541167906024 -6.88365027054191" fill="#ff2003" stroke="none" /><line stroke="#e1ed5e" stroke-width="0.3" x1="143.8653032363475" x2="146.44561519142675" y1="172.8068346515853" y2="177.08958963109032" /><path d="M 144.38136562736335 173.6633856474863 a86.0,86.0 0 0,1 -40.68145358897372,12.25698825130547" fill="none" id="id54" stroke="none" /><text fill="#e1ed5e" style="font-size:6.75px; font-family:Arial;" text-anchor="middle"><textPath startOffset="21.466115282336833" xlink:href="#id54">June</textPath></text><path d="M 110.21172684928248 118.3499491758327 l 4.343026767665562 7.804196257124095 a29.93125751080828,29.93125751080828 0 0,0 -0.4523570640959867,0.24666113889671215 l -4.208046891700927 -7.877798047780577" fill="#ff2d04" stroke="none" /><path d="M 109.57404056367764 118.69057910512821 l 4.088356007289865 7.981347149716364 a29.967527929514837,29.967527929514837 0 0,0 -0.4611375974681169,0.23122396443000384 l -3.9503645021389877 -8.05053895505567" fill="#ff2d04" stroke="none" /><path d="M 108.2653958097858 119.30500536409082 l 8.856692704311367 20.68606320854051 a43.502315808074854,43.502315808074854 0 0,0 -0.6909173285689396,0.2888034993768713 l -8.499303916244966 -20.835451750937352" fill="#fff116" stroke="none" /><path d="M 105.88484417918355 120.15858648285463 l 8.919751135271428 30.5546874634251 a52.83003120172462,52.83003120172462 0 0,0 -0.8751391068162465,0.2473230531145351 l -8.392480860350576 -30.703699309878154" fill="#97ff23" stroke="none" /><path d="M 105.18746579009965 120.34920634021253 l 3.844874308884601 15.082536218937019 a36.56489502845001,36.56489502845001 0 0,0 -0.6112374425450793,0.15022729204448804 l -3.5846835815963103 -15.146484769295537" fill="#ff900d" stroke="none" /><path d="M 103.7750983002368 120.6578951692458 l 4.168436359792157 22.810299094690393 a44.188048785416825,44.188048785416825 0 0,0 -0.7494104296937827,0.13029460919886363 l -3.775176958626324 -22.878672282410264" fill="#fffa17" stroke="none" /><path d="M 101.26447882468166 120.96189622390904 l 3.7730195606795864 62.547227314506785 a83.66092339997755,83.66092339997755 0 0,0 -1.4382186454732295,0.0743394760522003 l -2.6958128467928772 -62.60290659732119" fill="#4dd5ff" stroke="none" /><line stroke="#e1ed5e" stroke-width="0.3" x1="102.19456741930631" x2="102.32365962044197" y1="184.97166512339345" y2="189.96999836594603" /><path d="M 102.22038585953345 185.97133177190398 a86.0,86.0 0 0,1 -42.740103519485714,-10.115201625700543" fill="none" id="id55" stroke="none" /><text fill="#e1ed5e" style="font-size:6.75px; font-family:Arial;" text-anchor="middle"><textPath startOffset="22.20632615414155" xlink:href="#id55">July</textPath></text><path d="M 98.37488393609728 120.93702456842531 l -1.1968365777159047 15.419327510584495 a36.46570653647697,36.46570653647697 0 0,0 -0.6253967341276946,-0.05396186175275491 l 1.462077629585141 -15.396441396553076" fill="#ff8e0d" stroke="none" /><path d="M 97.65516085044442 120.86867818915974 l -1.286799754840316 11.452303661315874 a32.52437038453928,32.52437038453928 0 0,0 -0.5558145054062232,-0.0673013961238612 l 1.4837416832979287 -11.428456736466664" fill="#ff5407" stroke="none" /><path d="M 96.93821686468263 120.77559828337769 l -1.883526591989624 12.780588990728694 a33.9186348881245,33.9186348881245 0 0,0 -0.5768819017807147,-0.09009708888262365 l 2.103244357378856 -12.746273594498964" fill="#ff6909" stroke="none" /><path d="M 95.86986931433489 120.58985236759428 l -6.157237562827527 30.695545022544277 a52.306996959723506,52.306996959723506 0 0,0 -0.8812696262541563,-0.18467861860564244 l 6.68469865051107 -30.58501042321209" fill="#9eff22" stroke="none" /><path d="M 95.16358092515715 120.4354850818985 l -3.5557709935958286 15.024319433409733 a36.43935496696772,36.43935496696772 0 0,0 -0.6091388508204855,-0.1497115092570656 l 3.8138631291595244 -14.960886665838638" fill="#ff8e0d" stroke="none" /><path d="M 94.46302465271185 120.25689768951611 l -3.1807785845429764 11.636805714088688 a33.06368930432703,33.06368930432703 0 0,0 -0.547706046497534,-0.15478719962802928 l 3.380615799145124 -11.580329721122137" fill="#ff5c08" stroke="none" /><path d="M 91.7346041902142 119.30500536409082 l -3.5956660905028963 8.39818863634515 a30.135556195767677,30.135556195767677 0 0,0 -0.47510760067182983,-0.20827321000918478 l 3.7396943658324693 -8.335050873041512" fill="#ff3004" stroke="none" /><path d="M 90.42595943632237 118.69057910512821 l -4.4480967792193224 8.683638236783233 a30.756594589539176,30.756594589539176 0 0,0 -0.46912462163494106,-0.24542382984051714 l 4.596912303380759 -8.605784987998" fill="#ff3905" stroke="none" /><line stroke="#e1ed5e" stroke-width="0.3" x1="58.666819895761336" x2="56.23545636021788" y1="174.27360380694188" y2="178.64263932499728" /><path d="M 58.180547188652646 175.14741091055294 a86.0,86.0 0 0,1 -31.652253787137756,-30.449443065178592" fill="none" id="id56" stroke="none" /><text fill="#e1ed5e" style="font-size:6.75px; font-family:Arial;" text-anchor="middle"><textPath startOffset="22.20632615414155" xlink:href="#id56">August</textPath></text><path d="M 89.7882731507175 118.34994917583269 l -3.8504777589903356 6.9191109616402775 a28.918350552480604,28.918350552480604 0 0,0 -0.4328818645131936,-0.24580162019327667 l 3.9690083904247366 -6.851806175652367" fill="#ff1d02" stroke="none" /><path d="M 87.95078237400918 117.19931262002967 l -5.311381807328387 7.581580728654753 a30.25695106654065,30.25695106654065 0 0,0 -0.42399018292839946,-0.30250573788185137 l 5.441099318105674 -7.489030728928682" fill="#ff3204" stroke="none" /><path d="M 87.36589467227662 116.77436683061367 l -5.525384068481004 7.336080936522514 a30.184114144076865,30.184114144076865 0 0,0 -0.41233120018138386,-0.3161579815947159 l 5.650843997155874 -7.239883613100431" fill="#ff3004" stroke="none" /><path d="M 86.79598089348748 116.32954008644616 l -9.663849892533046 11.951378056676937 a36.36962693753593,36.36962693753593 0 0,0 -0.4834213948548584,-0.39782289680454136 l 9.868141415932593 -11.783260041015215" fill="#ff8d0d" stroke="none" /><path d="M 86.24171649860922 115.8653595955263 l -8.193993797942836 9.448900955902966 a33.506928625173714,33.506928625173714 0 0,0 -0.43249091592697575,-0.38162294844901 l 8.3554270667764 -9.306454865681667" fill="#ff6309" stroke="none" /><path d="M 84.19399662182784 113.82643327865904 l -4.586211458130906 4.01182672244889 a27.093282300176664,27.093282300176664 0 0,0 -0.30403499592143196,-0.35366138749333303 l 4.654588963623117 -3.9322882357940268" fill="#ff0000" stroke="none" /><path d="M 83.28015986056508 112.70617746262583 l -25.195424982096235 19.147165188124266 a52.64527413010917,52.64527413010917 0 0,0 -0.5420927329707055,-0.7262218033425927 l 25.521278981762023 -18.710630505272366" fill="#99ff23" stroke="none" /><path d="M 82.85270091963577 112.12312394758628 l -10.091863421071537 7.1349377264820895 a33.35933022741682,33.35933022741682 0 0,0 -0.3274600986075481,-0.471730695172397 l 10.213184426841218 -6.960165769122679" fill="#ff6108" stroke="none" /><line stroke="#e1ed5e" stroke-width="0.3" x1="26.63291911575756" x2="22.317208475507996" y1="142.92168965132927" y2="145.44649492493687" /><path d="M 25.769776987707644 143.4266507060508 a86.0,86.0 0 0,1 -11.730757126820373,-40.83630448921669" fill="none" id="id57" stroke="none" /><text fill="#e1ed5e" style="font-size:6.75px; font-family:Arial;" text-anchor="middle"><textPath startOffset="21.46611528233685" xlink:href="#id57">September</textPath></text><path d="M 81.18737489456691 109.33194174019688 l -8.678140913272088 4.3047636872584 a30.687162645158047,30.687162645158047 0 0,0 -0.23066041367964973,-0.4752287715378553 l 8.750954583566458 -4.15474595975526" fill="#ff3805" stroke="none" /><path d="M 80.73074385275274 108.34839909993369 l -13.940723388260439 6.039813976088745 a36.192864162288444,36.192864162288444 0 0,0 -0.24274901929040274,-0.5737869747014362 l 14.042623388743147 -5.7989524757211495" fill="#ff8b0c" stroke="none" /><path d="M 80.45479744820244 107.68017299344265 l -8.306610270563 3.264033907960908 a29.924891682218966,29.924891682218966 0 0,0 -0.18425998462169196,-0.4810446760470277 l 8.361564534778202 -3.1205656650807225" fill="#ff2c04" stroke="none" /><path d="M 80.0844068197444 106.66101706037122 l -14.418437306570997 4.822425122550616 a36.203523224112416,36.203523224112416 0 0,0 -0.1925816230784066,-0.5927052909109043 l 14.499311180665654 -4.573520931661908" fill="#ff8b0c" stroke="none" /><path d="M 79.86692584326677 105.97154293290107 l -11.450000104190021 3.3961116256568165 a32.94303464618071,32.94303464618071 0 0,0 -0.1565694010002387,-0.5450386248575517 l 11.506762142076365 -3.1985155252946686" fill="#ff5b08" stroke="none" /><path d="M 79.67330655649465 105.27499134158121 l -11.878947975128668 3.0827122911089377 a33.27242926504641,33.27242926504641 0 0,0 -0.13909251597090744,-0.5556054599462512 l 11.930251805394635 -2.8777789917652945" fill="#ff5f08" stroke="none" /><path d="M 79.35854240842038 103.8639653848113 l -30.78397425385759 5.762587762811432 a52.31869231922481,52.31869231922481 0 0,0 -0.15808605522934172,-0.8866305515509687 l 30.878606751426123 -5.231838460527249" fill="#9dff22" stroke="none" /><path d="M 79.18660465613746 102.79330883721812 l -26.500265985502224 3.5565281849970836 a47.737856870606606,47.737856870606606 0 0,0 -0.10229197671272758,-0.8153677003740685 l 26.5575594714618 -3.0998427303356064" fill="#d6ff1c" stroke="none" /><line stroke="#e1ed5e" stroke-width="0.3" x1="15.007084014347285" x2="10.007500721073583" y1="101.09737516637583" y2="101.16192664675087" /><path d="M 14.007167355692545 101.11028546245083 a86.0,86.0 0 0,1 10.666146001902534,-42.60595125391555" fill="none" id="id58" stroke="none" /><text fill="#e1ed5e" style="font-size:6.75px; font-family:Arial;" text-anchor="middle"><textPath startOffset="22.20632615414155" xlink:href="#id58">October</textPath></text><path d="M 79.00019446554 99.90962569577889 l -17.852726934977845 -0.07683060552873659 a38.85289225746992,38.85289225746992 0 0,0 0.008634579601036984,-0.6687577057408759 l 17.848759348259094 0.38412456933008443" fill="#ffb110" stroke="none" /><path d="M 79.08570108090925 98.10471618934814 l -13.437532423563757 -1.217728490733314 a34.49259575884014,34.49259575884014 0 0,0 0.05867498396127326,-0.5908490811416851 l 13.414580313920256 1.4488531025794291" fill="#ff720a" stroke="none" /><path d="M 79.46518482838121 95.60439243477599 l -11.04282168292928 -2.363786093287596 a32.29297991744397,32.29297991744397 0 0,0 0.12103041809206275,-0.5425556326266185 l 11.000496877835179 2.5535198954641736" fill="#ff5107" stroke="none" /><path d="M 79.71946130924805 94.55025226153421 l -8.647432511441156 -2.3237215979007426 a29.954204102234876,29.954204102234876 0 0,0 0.13809348734532012,-0.4967957478043023 l 8.606152253529475 2.4722286491239873" fill="#ff2d04" stroke="none" /><path d="M 80.38941819471856 92.48833698450439 l -16.7085937223963 -6.400081688125383 a38.89240480748127,38.89240480748127 0 0,0 0.2448488941029214,-0.6231137285463747 l 16.595951278411686 6.6867444215675205" fill="#ffb110" stroke="none" /><path d="M 80.95270993114464 91.15688171328213 l -40.68249782141423 -18.88773359010056 a65.85322852549174,65.85322852549174 0 0,0 0.48619064247353,-1.024041487121742 l 40.351348985098944 19.585217492862835" fill="#34ff60" stroke="none" /><path d="M 81.43458229118936 90.18545643968196 l -12.078091782417063 -6.385041251605957 a34.661956407820966,34.661956407820966 0 0,0 0.2833893895459644,-0.525077499439462 l 11.966394293652627 6.591999734377891" fill="#ff740a" stroke="none" /><line stroke="#e1ed5e" stroke-width="0.3" x1="26.266209847984243" x2="21.928928074336255" y1="57.711370442889674" y2="55.22380399835377" /><path d="M 25.398753493254645 57.213857153982495 a86.0,86.0 0 0,1 29.58750427330803,-30.492523968695096" fill="none" id="id59" stroke="none" /><text fill="#e1ed5e" style="font-size:6.75px; font-family:Arial;" text-anchor="middle"><textPath startOffset="21.46611528233685" xlink:href="#id59">November</textPath></text><path d="M 82.15384107792192 88.93136811851018 l -20.10466654167146 -12.46941451219319 a44.65763967577277,44.65763967577277 0 0,0 0.410791600102414,-0.6497736595458737 l 19.887047345323083 12.813635819453278" fill="#feff18" stroke="none" /><path d="M 82.7489923806493 88.02491185347247 l -7.391423081725328 -5.130885388552762 a29.99772860468275,29.99772860468275 0 0,0 0.29810225687359554,-0.42164450163530914 l 7.302008205047854 5.257356390519857" fill="#ff2e04" stroke="none" /><path d="M 83.6137871275137 86.86637796730984 l -49.15863861745889 -39.40086609807048 a84.0,84.0 0 0,0 0.9140060316944298,-1.1204633215676711 l 48.47313409368807 40.241213589246236" fill="#4dd2ff" stroke="none" /><path d="M 84.07557802195018 86.31012108654704 l -7.278474797382842 -6.257146337125185 a30.59833712995831,30.59833712995831 0 0,0 0.3467930094246787,-0.3964443590056924 l 7.16968992438032 6.38150625233382" fill="#ff3705" stroke="none" /><path d="M 85.31137513191541 84.99185889309783 l -16.16471028306116 -16.516335263452756 a44.110326459617056,44.110326459617056 0 0,0 0.5472132939264928,-0.5264187552007558 l 15.87801374552224 16.792137105415826" fill="#fff917" stroke="none" /><path d="M 87.22198572758235 83.33499621200491 l -6.040885222319459 -7.8784835395046 a30.927879791349337,30.927879791349337 0 0,0 0.42526401170715644,-0.3203000369702676 l 5.904375056853913 7.981300165980723" fill="#ff3c05" stroke="none" /><path d="M 88.09926311788651 82.69761687909137 l -18.65513063691527 -27.122540448368017 a53.91878034578034,53.91878034578034 0 0,0 0.7692292130914634,-0.5193869984445812 l 18.185496729417267 27.439639359111265" fill="#8aff24" stroke="none" /><line stroke="#e1ed5e" stroke-width="0.3" x1="56.762969772571076" x2="54.21961505331055" y1="26.818313649435495" y2="22.513508569990535" /><path d="M 56.25429882871897 25.957352633546506 a86.0,86.0 0 0,1 42.265352541879196,-11.944610805530505" fill="none" id="id60" stroke="none" /><text fill="#e1ed5e" style="font-size:6.75px; font-family:Arial;" text-anchor="middle"><textPath startOffset="22.20632615414155" xlink:href="#id60">December</textPath></text><path d="M 89.3179101791058 81.91981866633112 l -24.3019931846741 -41.132816791060435 a68.77546954154286,68.77546954154286 0 0,0 1.0244376951822123,-0.5934204359273811 l 23.590358757026568 41.54504138437787" fill="#38ff84" stroke="none" /><path d="M 90.26544431104013 81.39251694778311 l -5.032076573734535 -9.618752263076091 a31.85551425508526,31.85551425508526 0 0,0 0.48805607733525325,-0.2500012790120045 l 4.865760008810519 9.7039460674006" fill="#ff4a06" stroke="none" /><path d="M 92.23578459929587 80.48803036053334 l -5.870542864329986 -14.753049500095806 a36.87815301205442,36.87815301205442 0 0,0 0.5918361147038206,-0.2296232177793691 l 5.615723584626489 14.851915421765726" fill="#ff940d" stroke="none" /><path d="M 93.59665428221793 80.00007090966166 l -9.601872227496756 -29.990066466525224 a52.4896814359843,52.4896814359843 0 0,0 0.8628669434979,-0.26809695956585217 l 9.084219911288127 30.150903560973603" fill="#9bff22" stroke="none" /><path d="M 94.63758080256005 79.69619591428918 l -3.36383739934259 -12.736545394482613 a34.17326803169708,34.17326803169708 0 0,0 0.5700281921946929,-0.14531287839756757 l 3.1441003184628977 12.792561269049044" fill="#ff6d0a" stroke="none" /><path d="M 95.33964822691252 79.52364482259891 l -2.31839560138491 -10.18641812616463 a31.446916885166466,31.446916885166466 0 0,0 0.5288432143302872,-0.11558464333504645 l 2.1427096629011015 10.224816267595545" fill="#ff4406" stroke="none" /><path d="M 96.40284397218896 79.31037775812273 l -5.243006382094769 -30.155995630610132 a51.60838428267758,51.60838428267758 0 0,0 0.8765334948567651,-0.14463553708016155 l 4.723143681099119 30.24177743062992" fill="#a6ff21" stroke="none" /></svg>