<?xml version="1.0" encoding="utf-8" ?>
<svg baseProfile="full" height="200mm" version="1.1" viewBox="0,0,200,200" width="200mm" xmlns="http://www.w3.org/2000/svg" xmlns:ev="http://www.w3.org/2001/xml-events" xmlns:xlink="http://www.w3.org/1999/xlink"><defs /><rect fill="#1a1a1a" height="200" width="200" x="0" y="0" /><text alignment-baseline="middle" fill="#e1ed5e" style="dominant-baseline: central; font-size:9.0px; font-family:Arial;" text-anchor="middle" x="100.0" y="100.0">2018</text><line stroke="#e1ed5e" stroke-width="0.3" x1="100.0" x2="100.0" y1="15.0" y2="10.0" /><path d="M 100.0 14.0 a86.0,86.0 0 0,1 42.46469731375804,11.215312516191453" fill="none" id="id37" stroke="none" /><text fill="#e1ed5e" style="font-size:6.75px; font-family:Arial;" text-anchor="middle"><textPath startOffset="22.20632615414155" xlink:href="#id37">January</textPath></text><line stroke="#e1ed5e" stroke-width="0.3" x1="143.23703022742887" x2="145.7803849466894" y1="26.81831364943548" y2="22.513508569990506" /><path d="M 143.74570117128098 25.957352633546492 a86.0,86.0 0 0,1 28.547481713284135,27.462654790039103" fill="none" id="id38" stroke="none" /><text fill="#e1ed5e" style="font-size:6.75px; font-family:Arial;" text-anchor="middle"><textPath startOffset="19.985693538727396" xlink:href="#id38">February</textPath></text><line stroke="#e1ed5e" stroke-width="0.3" x1="172.23445277983987" x2="176.4835382374775" y1="55.19839476539836" y2="52.563006222186495" /><path d="M 173.08426987136738 54.67131705675599 a86.0,86.0 0 0,1 12.851231095245387,41.99856678651699" fill="none" id="id39" stroke="none" /><text fill="#e1ed5e" style="font-size:6.75px; font-family:Arial;" text-anchor="middle"><textPath startOffset="22.20632615414155" xlink:href="#id39">March</textPath></text><path d="M 120.78858239683441 97.02765380044208 l 4.344895177928708 -0.6212320024072665 a25.389082285398974,25.389082285398974 0 0,0 0.058133745549133274,0.4331639283175907 l -4.354944922535678 0.5463497320250115" fill="#ff3404" stroke="none" /><path d="M 120.96714384426684 98.82574320788733 l 3.6510557449510244 -0.20447596671890103 a24.65677706097945,24.65677706097945 0 0,0 0.020085166100211993,0.423966111580594 l -3.6540345192847328 0.14159874851530727" fill="#ff2904" stroke="none" /><line stroke="#e1ed5e" stroke-width="0.3" x1="184.98032266829074" x2="189.97916517819016" y1="98.17113171792111" y2="98.06355123074" /><path d="M 185.9800911702706 98.14961562048488 a86.0,86.0 0 0,1 -9.607161424134198,41.387399972396054" fill="none" id="id40" stroke="none" /><text fill="#e1ed5e" style="font-size:6.75px; font-family:Arial;" text-anchor="middle"><textPath startOffset="21.466115282336823" xlink:href="#id40">April</textPath></text><path d="M 120.92983693683757 101.71520430193887 l 4.535346527579479 0.37167255045338293 a25.55055036341625,25.55055036341625 0 0,0 -0.039695096235684506,0.4380320792217588 l -4.528276835066719 -0.4496860182237123" fill="#ff3605" stroke="none" /><path d="M 120.81339534386255 102.79330883721812 l 5.928400383102582 0.7956343934806803 a26.9815520720345,26.9815520720345 0 0,0 -0.06573984365764912,0.4597843134273293 l -5.913826488428333 -0.897564178888419" fill="#ff4a06" stroke="none" /><path d="M 120.32669344350535 105.2749913415812 l 5.672658041449716 1.4721145933333848 a26.860560607239655,26.860560607239655 0 0,0 -0.1199924219573063,0.44653644037976503 l -5.646477543150632 -1.569541966888698" fill="#ff4806" stroke="none" /><path d="M 119.9155931802556 106.66101706037122 l 4.233043162070468 1.415793768462449 a25.463532951235898,25.463532951235898 0 0,0 -0.14260690245926266,0.41448241135797603 l -4.208045428667974 -1.4884488829097255" fill="#ff3505" stroke="none" /><path d="M 119.41010516605496 108.01547362559984 l 6.102436216156467 2.5200232623185217 a27.602290891416747,27.602290891416747 0 0,0 -0.18513121851907224,0.4375955137012122 l -6.058154016445086 -2.6246933016858973" fill="#ff5307" stroke="none" /><path d="M 119.12269723197855 108.67885076344098 l 5.428200323144547 2.4635928680527104 a26.961094577987062,26.961094577987062 0 0,0 -0.19543633107388694,0.42095247030092775 l -5.384989375230829 -2.5566654056324687" fill="#ff4a06" stroke="none" /><path d="M 118.81262510543309 109.33194174019688 l 0.6924846900433882 0.34350478719723704 a21.773001025078173,21.773001025078173 0 0,0 -0.169436799536343,0.33431487995854176 l -0.6864692207207762 -0.35537387885847305" fill="#ff0000" stroke="none" /><line stroke="#e1ed5e" stroke-width="0.3" x1="174.80103733775053" x2="179.2010983576182" y1="140.37084112569926" y2="142.7455964860345" /><path d="M 175.68104954172406 140.8457921977663 a86.0,86.0 0 0,1 -30.038265399797805,32.042727171017184" fill="none" id="id41" stroke="none" /><text fill="#e1ed5e" style="font-size:6.75px; font-family:Arial;" text-anchor="middle"><textPath startOffset="22.206326154141568" xlink:href="#id41">May</textPath></text><path d="M 118.12598468904814 110.60418214915192 l 0.7529758423688657 0.44051085352703495 a21.872365996165726,21.872365996165726 0 0,0 -0.1929133560103661,0.3233338810288793 l -0.7452816106602724 -0.4534068284420183" fill="#ff0100" stroke="none" /><path d="M 116.498646956653 112.99209946851258 l 4.631442111951714 3.647096441255171 a26.895046097205338,26.895046097205338 0 0,0 -0.28954705604938735,0.3612544723167397 l -4.5679771438474726 -3.7262787471501606" fill="#ff4906" stroke="none" /><path d="M 116.0416608686014 113.55231037782055 l 5.629938887733809 4.756283020798117 a28.37010448050432,28.37010448050432 0 0,0 -0.31836322024240254,0.37032834939458936 l -5.547233157920628 -4.852488469354234" fill="#ff5d08" stroke="none" /><path d="M 115.56566222782051 114.09645910891815 l 5.452431648343555 4.937790544990388 a28.35600342210734,28.35600342210734 0 0,0 -0.33075737586337106,0.35897180612458535 l -5.366627864484462 -5.030913605916307" fill="#ff5d08" stroke="none" /><path d="M 114.81725581225074 114.88116024355365 l 3.0165469948434764 3.0295568748540926 a25.27525094352073,25.27525094352073 0 0,0 -0.3109458230939206,0.30432593331787533 l -2.9639512193737616 -3.08103291109454" fill="#ff3204" stroke="none" /><path d="M 114.55890576462653 115.13401014063108 l 4.1993741065057115 4.365257344173166 a27.057244800010018,27.057244800010018 0 0,0 -0.33842707757515667,0.3200039254004293 l -4.1236111945397464 -4.436895906319517" fill="#ff4b07" stroke="none" /><path d="M 113.75828350139079 115.86535959552629 l 3.830010069158095 4.4165747126476305 a26.845948111491488,26.845948111491488 0 0,0 -0.351726054261549,0.29974857397548077 l -3.7534185383194987 -4.4818476768460584" fill="#ff4806" stroke="none" /><path d="M 113.20401910651253 116.32954008644616 l 4.220780664936371 5.219880894460439 a27.71283442175165,27.71283442175165 0 0,0 -0.37351953041149927,0.2967465051544434 l -4.1303036418075205 -5.291761313620008" fill="#ff5407" stroke="none" /><path d="M 112.04921762599082 117.19931262002967 l 4.306106220982978 6.146628716372828 a28.504904753781183,28.504904753781183 0 0,0 -0.4042852207330558,0.2780710612896566 l -4.19966411562704 -6.219840567027579" fill="#ff5f08" stroke="none" /><line stroke="#e1ed5e" stroke-width="0.3" x1="143.8653032363475" x2="146.44561519142675" y1="172.8068346515853" y2="177.08958963109032" /><path d="M 144.38136562736335 173.6633856474863 a86.0,86.0 0 0,1 -40.68145358897372,12.25698825130547" fill="none" id="id42" stroke="none" /><text fill="#e1ed5e" style="font-size:6.75px; font-family:Arial;" text-anchor="middle"><textPath startOffset="21.466115282336833" xlink:href="#id42">June</textPath></text><path d="M 110.5260780823613 118.17145234162733 l 3.698452683536137 6.3847385655687985 a28.37857972803826,28.37857972803826 0 0,0 -0.424801977644471,0.24121364955712207 l -3.588001938970467 -6.447455380920549" fill="#ff5d08" stroke="none" /><path d="M 109.89434966115114 118.52300852407294 l 3.8028971329008403 7.119325516205723 a29.07135815145898,29.07135815145898 0 0,0 -0.4434200234201348,0.2319763989288679 l -3.67978620695421 -7.183731334079308" fill="#ff6709" stroke="none" /><path d="M 109.2508944713604 118.85261126421891 l 4.127326225577404 8.411173333813217 a30.369240023811408,30.369240023811408 0 0,0 -0.4712833622009737,0.2262446536992235 l -3.9819301953761976 -8.480972264012001" fill="#ff780b" stroke="none" /><path d="M 108.59647513512805 119.15986991738527 l 3.096370516327978 6.901207224626894 a28.564004992834658,28.564004992834658 0 0,0 -0.4503310239095358,0.1974118868730709 l -2.9771188177606884 -6.953483664794419" fill="#ff6008" stroke="none" /><path d="M 107.93186726928326 119.44442032107085 l 2.8143514413892725 6.8991865975247855 a28.45113076942792,28.45113076942792 0 0,0 -0.4550540565822666,0.1810754003595062 l -2.6951763087651397 -6.9466088422903605" fill="#ff5e08" stroke="none" /><path d="M 106.57524785965236 119.94407469862006 l 1.406576886830692 4.266436049117537 a25.49231956785979,25.49231956785979 0 0,0 -0.4179267376826033,0.13380694371458304 l -1.3329288040571483 -4.290015839491827" fill="#ff3505" stroke="none" /><path d="M 105.88484417918355 120.15858648285463 l 3.0844809627762246 10.565917184823364 a32.00693548478752,32.00693548478752 0 0,0 -0.5302007266497275,0.14984002138312544 l -2.9021490680218913 -10.617445999545009" fill="#ff8e0d" stroke="none" /><path d="M 105.18746579009965 120.34920634021253 l 2.001186143615226 7.850181843959324 a29.10124070526399,29.10124070526399 0 0,0 -0.48647118854667054,0.11956278235955756 l -1.8657616703253443 -7.883465884632911" fill="#ff6709" stroke="none" /><path d="M 104.48393922423573 120.51570834832081 l 1.5671973031160347 7.17051708043249 a28.33978355182687,28.33978355182687 0 0,0 -0.4774694000895055,0.10005835513677631 l -1.4435364415971512 -7.196431416295808" fill="#ff5d08" stroke="none" /><path d="M 103.41894727170886 120.7198165907248 l 1.581415722135778 9.583840028034269 a30.713437361159546,30.713437361159546 0 0,0 -0.5223684919386883,0.08158321539019622 l -1.4162113665885727 -9.60964155077157" fill="#ff7d0b" stroke="none" /><path d="M 101.98527174616119 120.90594882070398 l 1.3855835202906026 14.59091845638661 a35.65655972909824,35.65655972909824 0 0,0 -0.6115196474391832,0.0527644883215346 l -1.1342195551098777 -14.612607196986808" fill="#ffbe11" stroke="none" /><path d="M 101.62511606390274 120.93702456842531 l 0.3552947218839071 4.57740495361963 a25.59117310159616,25.59117310159616 0 0,0 -0.439482381704197,0.03030927813366713 l -0.27644957940077974 -4.582842576269583" fill="#ff3705" stroke="none" /><line stroke="#e1ed5e" stroke-width="0.3" x1="102.19456741930631" x2="102.32365962044197" y1="184.97166512339345" y2="189.96999836594603" /><path d="M 102.22038585953345 185.97133177190398 a86.0,86.0 0 0,1 -42.740103519485714,-10.115201625700543" fill="none" id="id43" stroke="none" /><text fill="#e1ed5e" style="font-size:6.75px; font-family:Arial;" text-anchor="middle"><textPath startOffset="22.20632615414155" xlink:href="#id43">July</textPath></text><path d="M 100.54218724476979 120.99299961872073 l 0.19114666817040563 7.401026067525472 a28.40349403328889,28.40349403328889 0 0,0 -0.48886512816779487,0.00841625652254253 l -0.06372185010994282 -7.403219801327174" fill="#ff5e08" stroke="none" /><path d="M 99.81925306533755 120.99922214144158 l -0.033108874957201835 3.846597019074869 a24.846739505705656,24.846739505705656 0 0,0 -0.4276482491475405,-0.0073623524339549865 l 0.09931681399741028 -3.845457189361754" fill="#ff2c04" stroke="none" /><path d="M 99.09653310690486 120.98055641714683 l -0.5065275912369743 11.762722891130617 a32.77362391170249,32.77362391170249 0 0,0 -0.5634128225454087,-0.029122007395013763 l 0.7089284821958719 -11.7522610769734" fill="#ff980e" stroke="none" /><path d="M 98.01472825383883 120.90594882070398 l -0.7097034228776048 7.473547873356517 a28.507169690622153,28.507169690622153 0 0,0 -0.48810709446574946,-0.05059429609087064 l 0.8382431139489476 -7.460224208809885" fill="#ff5f08" stroke="none" /><path d="M 95.51606077576429 120.51570834832081 l -3.631074421653447 16.613531116356132 a38.00570838306124,38.00570838306124 0 0,0 -0.6379164958609455,-0.145187717580146 l 3.916511066907255 -16.548566665198297" fill="#ffdb14" stroke="none" /><path d="M 94.46302465271185 120.25689768951611 l -1.4221302921890988 5.202831152958902 a26.393691368085637,26.393691368085637 0 0,0 -0.43721631360110885,-0.12356169745938818 l 1.5114777738948215 -5.1775806621609926" fill="#ff4206" stroke="none" /><path d="M 93.42475214034765 119.94407469862007 l -3.4577871876743567 10.488177394206243 a32.043466724157945,32.043466724157945 0 0,0 -0.522354691490386,-0.1772110721320519 l 3.6378116121019684 -10.427103335176069" fill="#ff8f0d" stroke="none" /><path d="M 90.7491055286396 118.85261126421891 l -2.0464117414350302 4.1704296992304215 a25.64545852330061,25.64545852330061 0 0,0 -0.3946299860708779,-0.19787566740006376 l 2.1178956351886686 -4.1345861909210555" fill="#ff3705" stroke="none" /><line stroke="#e1ed5e" stroke-width="0.3" x1="58.666819895761336" x2="56.23545636021788" y1="174.27360380694188" y2="178.64263932499728" /><path d="M 58.180547188652646 175.14741091055294 a86.0,86.0 0 0,1 -31.652253787137756,-30.449443065178592" fill="none" id="id44" stroke="none" /><text fill="#e1ed5e" style="font-size:6.75px; font-family:Arial;" text-anchor="middle"><textPath startOffset="22.20632615414155" xlink:href="#id44">August</textPath></text><path d="M 88.54995079064634 117.60387380957326 l -4.0648488223338415 6.249500278557899 a28.455149205758666,28.455149205758666 0 0,0 -0.40829792413450317,-0.2705976003110383 l 4.171821445208306 -6.1786046571555415" fill="#ff5e08" stroke="none" /><path d="M 87.36589467227662 116.77436683061367 l -3.537766400687695 4.697110703670915 a26.880360538978426,26.880360538978426 0 0,0 -0.3672001526842974,-0.2815534188605415 l 3.6180952818654792 -4.6355179429830065" fill="#ff4906" stroke="none" /><path d="M 86.79598089348748 116.32954008644616 l -1.9174007204457448 2.3712682989724394 a24.04948173768552,24.04948173768552 0 0,0 -0.3196632736193816,-0.26306111162387885 l 1.9579341226098153 -2.33791206849138" fill="#ff2103" stroke="none" /><path d="M 85.97065885151581 115.62618273729859 l -2.9754820983993744 3.314156132426283 a25.453888704042107,25.453888704042107 0 0,0 -0.3235073506156847,-0.29551629450217676 l 3.032088998481914 -3.26244707133753" fill="#ff3505" stroke="none" /><path d="M 85.70375840098266 115.38237550388516 l -5.003444237422728 5.383572846032273 a28.349646986456882,28.349646986456882 0 0,0 -0.35459220814345654,-0.33528906532933295 l 5.095372279957002 -5.296649143957009" fill="#ff5d08" stroke="none" /><path d="M 84.67929136418377 114.36230785411682 l -10.684909651028816 10.016505466512582 a35.645739175996724,35.645739175996724 0 0,0 -0.4157881833717982,-0.451255953886538 l 10.855744242396344 -9.8310982578247" fill="#ffbe11" stroke="none" /><path d="M 83.95833913139862 113.55231037782056 l -9.037711193547937 7.635236039667226 a32.8311898387024,32.8311898387024 0 0,0 -0.3609930029529079,-0.4348393271045783 l 9.167800196394381 -7.4785354554488865" fill="#ff990e" stroke="none" /><path d="M 83.72743513129214 113.27417163493432 l -7.384061312058626 6.023469441355975 a30.529246852253866,30.529246852253866 0 0,0 -0.32867218436905327,-0.4100690856590165 l 7.48665140848254 -5.895472522118699" fill="#ff7b0b" stroke="none" /><path d="M 83.28015986056508 112.70617746262583 l -12.31202829393782 9.35647799997037 a36.463819750458,36.463819750458 0 0,0 -0.3754709616332275,-0.5030047116953239 l 12.471260522266132 -9.143160408765738" fill="#ffc812" stroke="none" /><path d="M 82.6465618267979 111.8261652097733 l -7.31236492107943 4.983291193809534 a29.84894750020208,29.84894750020208 0 0,0 -0.2856926549666076,-0.42707175588662694 l 7.397060681456768 -4.856682523717086" fill="#ff710a" stroke="none" /><path d="M 82.44556493220864 111.52570212397912 l -6.169347516703098 4.050603821896531 a28.380260165049297,28.380260165049297 0 0,0 -0.26460556744813407,-0.41067371679848735 l 6.238157947528278 -3.943808505176595" fill="#ff5d08" stroke="none" /><path d="M 82.05923443525364 110.91462005526583 l -13.55226572389759 8.24478926111175 a36.863179259255475,36.863179259255475 0 0,0 -0.32513170387516194,-0.5449394372354385 l 13.692178303470982 -8.0102877299902" fill="#ffcd13" stroke="none" /><line stroke="#e1ed5e" stroke-width="0.3" x1="26.63291911575756" x2="22.317208475507996" y1="142.92168965132927" y2="145.44649492493687" /><path d="M 25.769776987707644 143.4266507060508 a86.0,86.0 0 0,1 -11.730757126820373,-40.83630448921669" fill="none" id="id45" stroke="none" /><text fill="#e1ed5e" style="font-size:6.75px; font-family:Arial;" text-anchor="middle"><textPath startOffset="21.46611528233685" xlink:href="#id45">September</textPath></text><path d="M 80.87730276802145 108.67885076344099 l -4.017476332754214 1.8233347061167944 a25.41187777876612,25.41187777876612 0 0,0 -0.17734939248558357,-0.399876061182741 l 4.048266809971078 -1.7539103084413574" fill="#ff3405" stroke="none" /><path d="M 80.73074385275274 108.34839909993369 l -4.512391197243243 1.954992051677915 a25.91768931908901,25.91768931908901 0 0,0 -0.17383243382649155,-0.4108885242949923 l 4.545374612262042 -1.8770290017167637" fill="#ff3b05" stroke="none" /><path d="M 80.58989483394504 108.01547362559985 l -6.946033108893994 2.8683896718009927 a28.514987375847426,28.514987375847426 0 0,0 -0.18344286899812273,-0.455290156813146 l 6.994378592149505 -2.7484001471450417" fill="#ff5f08" stroke="none" /><path d="M 79.76711848015287 105.62410040840567 l -60.698644559541364 16.872301225217015 a84.0,84.0 0 0,0 -0.3752476946329004,-1.3964362672978443 l 60.98008033051604 -15.824974024743632" fill="#4dd2ff" stroke="none" /><line stroke="#e1ed5e" stroke-width="0.3" x1="15.007084014347285" x2="10.007500721073583" y1="101.09737516637583" y2="101.16192664675087" /><path d="M 14.007167355692545 101.11028546245083 a86.0,86.0 0 0,1 10.666146001902534,-42.60595125391555" fill="none" id="id46" stroke="none" /><text fill="#e1ed5e" style="font-size:6.75px; font-family:Arial;" text-anchor="middle"><textPath startOffset="22.20632615414155" xlink:href="#id46">October</textPath></text><path d="M 81.43458229118936 90.18545643968196 l -4.145783431757272 -2.191654005356244 a25.6894421355026,25.6894421355026 0 0,0 0.2100318642981677,-0.3891571462325442 l 4.107443468240633 2.262692134921261" fill="#ff3805" stroke="none" /><line stroke="#e1ed5e" stroke-width="0.3" x1="26.266209847984243" x2="21.928928074336255" y1="57.711370442889674" y2="55.22380399835377" /><path d="M 25.398753493254645 57.213857153982495 a86.0,86.0 0 0,1 29.58750427330803,-30.492523968695096" fill="none" id="id47" stroke="none" /><text fill="#e1ed5e" style="font-size:6.75px; font-family:Arial;" text-anchor="middle"><textPath startOffset="21.46611528233685" xlink:href="#id47">November</textPath></text><path d="M 81.78341655067845 89.55222093294921 l -4.900489885839266 -2.8105838721076126 a26.649263918721125,26.649263918721125 0 0,0 0.2316459671833132,-0.39595804705979015 l 4.8513842441856285 2.8945213315212945" fill="#ff4506" stroke="none" /><path d="M 82.7489923806493 88.02491185347247 l -4.0053155010737855 -2.780359689031133 a25.875751456291763,25.875751456291763 0 0,0 0.25714013247711953,-0.36370648161421526 l 3.956862748792788 2.848892670977134" fill="#ff3b05" stroke="none" /><path d="M 83.17141714833178 87.43820079747576 l -3.8038392037738538 -2.8393991756566765 a25.746723118835426,25.746723118835426 0 0,0 0.2681632288798799,-0.3528713754655606 l 3.754400034669865 2.9044553270032636" fill="#ff3905" stroke="none" /><path d="M 83.6137871275137 86.86637796730984 l -6.3111596583667335 -5.058422357012496 a29.08816252156938,29.08816252156938 0 0,0 0.3165089999478842,-0.38800260949068893 l 6.223152166342457 5.166309136111267" fill="#ff6709" stroke="none" /><path d="M 85.05521093208273 85.24692304244772 l -3.2219987557516556 -3.1806668789181076 a25.527462620134138,25.527462620134138 0 0,0 0.3113915255164516,-0.31005431134598305 l 3.166771430067891 3.2356570409142" fill="#ff3605" stroke="none" /><line stroke="#e1ed5e" stroke-width="0.3" x1="56.762969772571076" x2="54.21961505331055" y1="26.818313649435495" y2="22.513508569990535" /><path d="M 56.25429882871897 25.957352633546506 a86.0,86.0 0 0,1 42.265352541879196,-11.944610805530505" fill="none" id="id48" stroke="none" /><text fill="#e1ed5e" style="font-size:6.75px; font-family:Arial;" text-anchor="middle"><textPath startOffset="22.20632615414155" xlink:href="#id48">December</textPath></text><path d="M 91.56875222667455 80.76684994638697 l -4.642792582429559 -10.591021496032885 a32.56396382270775,32.56396382270775 0 0,0 0.5153111470959327,-0.22062934019512442 l 4.459797677543318 10.669370364190796" fill="#ff960d" stroke="none" /><path d="M 93.94186890950719 79.89281104454417 l -2.5683630620894777 -8.524503782476799 a29.903013734470306,29.903013734470306 0 0,0 0.49412563263867065,-0.14424882198423536 l 2.4212472117273856 8.567450933379734" fill="#ff720a" stroke="none" /><path d="M 94.28887869178378 79.79150937346287 l -3.2057957822989707 -11.343533173420767 a32.7878272575697,32.7878272575697 0 0,0 0.5444373605944057,-0.14881529689089668 l 3.0100605324808423 11.397035011137959" fill="#ff990e" stroke="none" /><path d="M 96.40284397218896 79.31037775812273 l -0.8783348678752075 -5.051884454749557 a26.12767088299021,26.12767088299021 0 0,0 0.44376081502752573,-0.07322433676892712 l 0.7912448467087961 5.066255054458112" fill="#ff3e05" stroke="none" /><path d="M 96.75951476605007 79.25152402106235 l -2.410702592509593 -15.435467598807461 a36.62258451676186,36.62258451676186 0 0,0 0.6236843923841678,-0.09191486706259264 l 2.1446492196967766 15.474676950031023" fill="#ffca12" stroke="none" /><path d="M 99.27714615592234 79.0124445844662 l -0.17804937654800979 -5.169539025929457 a26.17260430741583,26.17260430741583 0 0,0 0.4503848611563744,-0.0116321121988993 l 0.08903788019675639 5.171837930270716" fill="#ff3f05" stroke="none" /></svg>