<?xml version="1.0" encoding="utf-8" ?>
<svg baseProfile="full" height="200mm" version="1.1" viewBox="0,0,200,200" width="200mm" xmlns="http://www.w3.org/2000/svg" xmlns:ev="http://www.w3.org/2001/xml-events" xmlns:xlink="http://www.w3.org/1999/xlink"><defs /><rect fill="#1a1a1a" height="200" width="200" x="0" y="0" /><text alignment-baseline="middle" fill="#e1ed5e" style="dominant-baseline: central; font-size:9.0px; font-family:Arial;" text-anchor="middle" x="100.0" y="100.0">2024</text><line stroke="#e1ed5e" stroke-width="0.3" x1="100.0" x2="100.0" y1="15.0" y2="10.0" /><path d="M 100.0 14.0 a86.0,86.0 0 0,1 42.35913384403234,11.155469271406648" fill="none" id="id109" stroke="none" /><text fill="#e1ed5e" style="font-size:6.75px; font-family:Arial;" text-anchor="middle"><textPath startOffset="22.145653131862478" xlink:href="#id109">January</textPath></text><path d="M 101.08105385017728 79.02784411241856 l 1.0095128722352311 -19.584280027831646 a40.61028149843174,40.61028149843174 0 0,0 0.6958971027952967,0.04186344163921719 l -1.3455543271629902 19.56406460836774" fill="#ffbe11" stroke="none" /><path d="M 101.44090949804482 79.04949213459386 l 1.3981066680714165 -20.328164111522824 a41.37618606119188,41.37618606119188 0 0,0 0.7081849594448176,0.054817994735737806 l -1.7468606222914675 20.301168349792032" fill="#ffc912" stroke="none" /><path d="M 101.80034050326958 79.07731436759882 l 4.64751378159439 -54.01115491650473 a75.21073915530744,75.21073915530744 0 0,0 1.2853889105226544,0.1217276662403068 l -5.574002255502057 53.92341549475924" fill="#41ffce" stroke="none" /><path d="M 102.51750503828377 79.15144685158666 l 2.614565456399432 -21.652352646296794 a42.80963841161501,42.80963841161501 0 0,0 0.7288283413803918,0.09436142044342047 l -2.985871619670615 21.60427962965298" fill="#ffdd14" stroke="none" /><path d="M 102.87502721639298 79.19773525538626 l 2.4838755387789386 -17.972086057388786 a39.142919140709765,39.142919140709765 0 0,0 0.6648236452723666,0.09770618139545893 l -2.792024289658987 17.926798802694446" fill="#ffa90f" stroke="none" /><path d="M 103.23170211078529 79.25015418208739 l 4.6756318341361895 -30.02091044711871 a51.38283392184325,51.38283392184325 0 0,0 0.8703823801374986,0.14322108943228548 l -5.190291717326759 29.936223359190755" fill="#b0ff20" stroke="none" /><path d="M 103.94208987418118 79.37332000966035 l 3.4517212712006806 -18.06086424949749 a39.38774584262127,39.38774584262127 0 0,0 0.6630336467800029,0.132625298696272 l -3.7612514035116402 17.998949554138363" fill="#ffad10" stroke="none" /><path d="M 104.29559338865022 79.4440306129975 l 5.953432341250141 -28.489328919649683 a50.104728463495945,50.104728463495945 0 0,0 0.8404175461874427,0.18316509260707342 l -6.441612304056719 28.382932368908893" fill="#c0ff1e" stroke="none" /><path d="M 104.64783097203109 79.52079915486377 l 13.885573652632466 -61.182399573779186 a83.73830706409169,83.73830706409169 0 0,0 1.399099021383144,0.3301835594972925 l -14.933804827755496 60.935019870635664" fill="#4dd5ff" stroke="none" /><path d="M 104.9986988182912 79.60360301121754 l 4.401617654331985 -17.960102085382065 a39.49160633618054,39.49160633618054 0 0,0 0.6570551531375216,0.167020850533369 l -4.709278100694901 17.88189600301343" fill="#ffae10" stroke="none" /><path d="M 105.3480935250658 79.69241777938227 l 4.173807114697784 -15.848625450820178 a37.389008344347346,37.389008344347346 0 0,0 0.6192663096558083,0.16878378645165132 l -4.445254825288285 15.774641170224385" fill="#ff8f0d" stroke="none" /><path d="M 105.69591212413111 79.78721728523813 l 9.298379790647113 -32.99666957842218 a55.28177460398872,55.28177460398872 0 0,0 0.9112015608070281,0.26523749435709043 l -9.863441363835745 32.83218838976257" fill="#81ff25" stroke="none" /><path d="M 106.38641147887787 79.99465700312896 l 5.964425377823489 -18.683477545603775 a40.612411970094485,40.612411970094485 0 0,0 0.6623251270971436,0.21771942472546416 l -6.284273242568375 18.57833719947629" fill="#ffbe11" stroke="none" /><path d="M 106.72888874123014 80.10723608172694 l 4.150414665163701 -12.269963477200562 a33.95291263093524,33.95291263093524 0 0,0 0.5505128939568209,0.19149696146998443 l -4.36043333116554 12.196908083161986" fill="#ff5c08" stroke="none" /><path d="M 107.06938296918511 80.22567764915836 l 15.156447416553704 -42.39528091983695 a66.02308010967984,66.02308010967984 0 0,0 1.063948883348783,0.39069676719328833 l -15.881985451556611 42.12885330363494" fill="#34ff5e" stroke="none" /><path d="M 108.07796709384702 80.6158196554323 l 10.696555049933451 -25.667838175701398 a48.80744876018386,48.80744876018386 0 0,0 0.7706113371092119,0.3289281564293251 l -11.135601462213094 25.48043536961267" fill="#d1ff1d" stroke="none" /><path d="M 108.73861861582097 80.90454125486305 l 9.134114795823512 -19.95968927413898 a42.950427080662024,42.950427080662024 0 0,0 0.6677999612321475,0.312564101053418 l -9.475403470927166 19.79994894151503" fill="#ffdf14" stroke="none" /><path d="M 109.06512990194946 81.05736502329252 l 27.195389705848374 -56.82790493012246 a84.0,84.0 0 0,0 1.2953590029517317,0.6336249996111154 l -28.166908958062173 56.352686180414125" fill="#4dd2ff" stroke="none" /><path d="M 109.71004243097381 81.37971332152246 l 9.65818818677922 -18.520849327996032 a41.887854338863356,41.887854338863356 0 0,0 0.6347230349204671,0.33795426517802873 l -9.974700037486247 18.35232459509543" fill="#ffd013" stroke="none" /><path d="M 110.02825361518725 81.54914285379988 l 10.368340028936018 -19.076577842766763 a42.71216933304401,42.71216933304401 0 0,0 0.6412028389858527,0.3556644060378663 l -10.694287056077972 18.89578052129575" fill="#ffdc14" stroke="none" /><path d="M 110.34350942703115 81.72400993836675 l 16.73798680918903 -29.574418888917595 a54.98244333537175,54.98244333537175 0 0,0 0.8174253783210454,0.47194076221608733 l -17.243204655370473 29.282731229425337" fill="#84ff25" stroke="none" /><line stroke="#e1ed5e" stroke-width="0.3" x1="143.13028292997686" x2="145.6673583964461" y1="26.7553504044142" y2="22.446841604673864" /><path d="M 143.63769802327073 25.89364864446614 a86.0,86.0 0 0,1 29.32050498858742,28.57503671076993" fill="none" id="id110" stroke="none" /><text fill="#e1ed5e" style="font-size:6.75px; font-family:Arial;" text-anchor="middle"><textPath startOffset="20.669276256404974" xlink:href="#id110">February</textPath></text><path d="M 110.96478420261332 82.08984904055464 l 11.328751594906374 -18.50466434154462 a42.6970784920995,42.6970784920995 0 0,0 0.6218237237507275,0.38806399350421733 l -11.644739447446813 18.307464551198855" fill="#ffdb14" stroke="none" /><path d="M 111.27062007382361 82.28071324371311 l 29.026092416156505 -45.63383838400256 a75.0829108555422,75.0829108555422 0 0,0 1.0816028240841824,0.701081883016772 l -29.805180872497694 45.128842659281894" fill="#41ffcc" stroke="none" /><path d="M 111.8722381534696 82.67804972795209 l 12.513742036379966 -18.257923608789945 a43.134712879490266,43.134712879490266 0 0,0 0.6071825175232252,0.4238605534019137 l -12.825319645076952 18.040418239582905" fill="#ffe115" stroke="none" /><path d="M 112.16784306229584 82.88440491214696 l 11.842910961616074 -16.658537395885155 a41.43921251454836,41.43921251454836 0 0,0 0.5762398556855637,0.4171532171658453 l -12.127131827675605 16.452783407346235" fill="#ffca12" stroke="none" /><path d="M 112.45986205192187 83.09580414077388 l 16.469408728439504 -22.343915981657865 a48.757737754719585,48.757737754719585 0 0,0 0.6694832356688607,0.5023927011320138 l -16.85054495301913 22.057904253261835" fill="#d1ff1c" stroke="none" /><path d="M 113.03279911837588 83.53348406188908 l 19.947673964472465 -25.203234415014844 a53.14207089736256,53.14207089736256 0 0,0 0.7104569269600343,0.5722938097519146 l -20.37738166178776 24.85709231146952" fill="#9aff22" stroke="none" /><path d="M 113.59037401385872 83.9905735841838 l 24.149511446518932 -28.448063760916508 a58.316098869666426,58.316098869666426 0 0,0 0.7576108777058511,0.6544062319240193 l -24.634301803987647 28.029313396527765" fill="#5dff2a" stroke="none" /><path d="M 114.39649973595853 84.71141617570332 l 23.750688841022384 -25.222408494461877 a55.64484248318309,55.64484248318309 0 0,0 0.6898039770506347,0.6608166060172658 l -24.18016530393833 24.81097975813903" fill="#7cff26" stroke="none" /><path d="M 114.65682725009322 84.96080404539774 l 4.970750752886333 -5.100428171701951 a28.12198922928215,28.12198922928215 0 0,0 0.34283126022449517,0.3399010961202926 l -5.05757393324079 5.014347065352999" fill="#ff0000" stroke="none" /><path d="M 115.16444852881244 85.47280134310134 l 14.506547930811964 -13.896944766327817 a41.08892746533052,41.08892746533052 0 0,0 0.48356612957573336,0.5135304721427236 l -14.742969894123958 13.645872834240599" fill="#ffc512" stroke="none" /><path d="M 115.41159269507618 85.73525988315684 l 17.172683046216925 -15.894779054306692 a44.39968042925059,44.39968042925059 0 0,0 0.5129268835248613,0.5637964965585026 l -17.44300763058366 15.597644982190518" fill="#fff316" stroke="none" /><path d="M 115.6541949942343 86.00192230759917 l 13.811871057288336 -12.350660267650598 a39.528534511668276,39.528534511668276 0 0,0 0.4479692319860991,0.5097067534224836 l -14.021851353233025 12.111741236416817" fill="#ffaf10" stroke="none" /><path d="M 115.8921839302757 86.27271002978787 l 13.785921272876225 -11.907950452219856 a39.21677549168525,39.21677549168525 0 0,0 0.4356898535205339,0.5132415519206385 l -13.988305689903871 11.669542117849664" fill="#ffaa0f" stroke="none" /><path d="M 116.1254893667686 86.54754324733833 l 25.175869207310875 -21.002605503555284 a53.78618349673525,53.78618349673525 0 0,0 0.5853811104377942,0.7140697730969447 l -25.5326971369873 20.567333448759843" fill="#93ff23" stroke="none" /><path d="M 116.57777611688842 87.10902102172516 l 14.673287694477109 -11.410037261812581 a39.58747756100448,39.58747756100448 0 0,0 0.4125543421788848,0.5400468770844591 l -14.8669940140103 11.15646947148724" fill="#ffaf10" stroke="none" /><path d="M 116.7966241395341 87.39550010848427 l 50.346419530037565 -37.780891816881834 a83.94567297259977,83.94567297259977 0 0,0 0.8550385673102721,1.1600240314679418 l -50.98756011693166 36.91106147614502" fill="#4dd3ff" stroke="none" /><path d="M 117.21940702142032 87.97951657250589 l 16.830909954726156 -11.749282302738884 a41.526206774110825,41.526206774110825 0 0,0 0.40302224436632195,0.5880214989961621 l -17.030121935907804 11.458626068672672" fill="#ffcb12" stroke="none" /><path d="M 117.42321728460499 88.27688183743584 l 15.122583302771913 -10.175148945554469 a39.227072771388556,39.227072771388556 0 0,0 0.37111717582634274,0.5619187049281763 l -15.29502491751898 9.914050362287234" fill="#ffaa0f" stroke="none" /><path d="M 117.62189284568427 88.57770195909679 l 25.75728975809451 -16.695564030450512 a51.69494802043674,51.69494802043674 0 0,0 0.47628847020351106,0.7488045845720817 l -26.040095919923914 16.250945771199756" fill="#acff20" stroke="none" /><path d="M 117.81537515405839 88.88188828441811 l 15.127387278166006 -9.440608478301304 a38.83151519933719,38.83151519933719 0 0,0 0.3480635785358201,0.5685356975448286 l -15.287218821157229 9.17953566463192" fill="#ffa50f" stroke="none" /><line stroke="#e1ed5e" stroke-width="0.3" x1="172.87174338648825" x2="177.1583165268699" y1="56.24261187166439" y2="53.66864786411523" /><path d="M 173.72905801456457 55.72781907015455 a86.0,86.0 0 0,1 12.242430191666344,42.057860355516425" fill="none" id="id111" stroke="none" /><text fill="#e1ed5e" style="font-size:6.75px; font-family:Arial;" text-anchor="middle"><textPath startOffset="22.145653131862474" xlink:href="#id111">March</textPath></text><path d="M 118.18653347947321 89.5 l 49.218817177758275 -28.416497346773724 a77.83299469354743,77.83299469354743 0 0,0 0.6581210932401104,1.1628369118100845 l -49.69937163601976 27.56740366486452" fill="#45ffeb" stroke="none" /><path d="M 118.70294669586156 90.45014215332178 l 15.911242635172131 -8.124393861611232 a38.86542520663602,38.86542520663602 0 0,0 0.29830155275563514,0.5968029297995477 l -16.0483641011395 7.850059075647934" fill="#ffa50f" stroke="none" /><path d="M 118.8641267826498 90.77261029715802 l 29.17964123072098 -14.273224736414566 a53.483478981318925,53.483478981318925 0 0,0 0.3963399374265858,0.8281980338470822 l -29.420360426107475 13.77021420050238" fill="#96ff23" stroke="none" /><path d="M 119.31412917781788 91.75594674310238 l 19.680925147194642 -8.400616645187998 a42.39881245931391,42.39881245931391 0 0,0 0.2799818814500662,0.6718545916550368 l -19.822232873181193 8.061529544091684" fill="#ffd714" stroke="none" /><path d="M 119.4528033332814 92.08871423366111 l 32.903623789953606 -13.381617347925925 a56.5206438758803,56.5206438758803 0 0,0 0.3578061566013015,0.901905250916277 l -33.12848862152103 12.814811079796081" fill="#72ff27" stroke="none" /><path d="M 119.71291397450082 92.76114493625339 l 18.387372154566364 -6.7520977467993335 a40.587911545972815,40.587911545972815 0 0,0 0.23455914492813018,0.6561036744457691 l -18.50057146953844 6.435459115972648" fill="#ffbe11" stroke="none" /><path d="M 119.83427380445688 93.10060997987247 l 20.518312577967297 -7.137334213792814 a42.72424200579962,42.72424200579962 0 0,0 0.23501299066381898,0.6947741478257741 l -20.637810990203484 6.784058391492878" fill="#ffdc14" stroke="none" /><path d="M 120.05942366710727 93.78553927170692 l 17.89622287164891 -5.544295592251213 a39.73536780226067,39.73536780226067 0 0,0 0.19626183687904072,0.6532918242672632 l -17.988761028531577 5.236266164393227" fill="#ffb210" stroke="none" /><path d="M 120.16314734710363 94.1308016681162 l 37.06713012785359 -10.789701358075375 a59.60556684354842,59.60556684354842 0 0,0 0.2775391527005457,0.9848885421895518 l -37.24688777262872 10.15180489198281" fill="#4fff2b" stroke="none" /><path d="M 120.43855184770803 95.1765574152323 l 15.286450084496197 -3.6075605970954965 a36.70636971573985,36.70636971573985 0 0,0 0.13946521976022133,0.6145094913235445 l -15.346126165814084 3.344616771832926" fill="#ff850c" stroke="none" /><path d="M 120.51834098615036 95.52812308129327 l 23.01285769452519 -5.0155452249815555 a44.553074388968895,44.553074388968895 0 0,0 0.1564497950121353,0.7486689045964146 l -23.09556520036169 4.619759869099736" fill="#fff517" stroke="none" /><line stroke="#e1ed5e" stroke-width="0.3" x1="184.99686870605535" x2="189.99668451229388" y1="99.2704041080226" y2="99.22748670261217" /><path d="M 185.99683186730306 99.26182062694052 a86.0,86.0 0 0,1 -10.086455211305974,41.156179273409016" fill="none" id="id112" stroke="none" /><text fill="#e1ed5e" style="font-size:6.75px; font-family:Arial;" text-anchor="middle"><textPath startOffset="21.40746469413373" xlink:href="#id112">April</textPath></text><line stroke="#e1ed5e" stroke-width="0.3" x1="174.33088141563837" x2="178.70328620479359" y1="141.23008692659167" y2="143.65538615756765" /><path d="M 175.20536237346943 141.71514677278685 a86.0,86.0 0 0,1 -30.301960400862466,31.631185727798858" fill="none" id="id113" stroke="none" /><text fill="#e1ed5e" style="font-size:6.75px; font-family:Arial;" text-anchor="middle"><textPath startOffset="22.145653131862474" xlink:href="#id113">May</textPath></text><line stroke="#e1ed5e" stroke-width="0.3" x1="143.1302829299769" x2="145.66735839644613" y1="173.24464959558577" y2="177.55315839532614" /><path d="M 143.63769802327073 174.10635135553383 a86.0,86.0 0 0,1 -40.68552437913181,11.842963189579606" fill="none" id="id114" stroke="none" /><text fill="#e1ed5e" style="font-size:6.75px; font-family:Arial;" text-anchor="middle"><textPath startOffset="21.407464694133747" xlink:href="#id114">June</textPath></text><line stroke="#e1ed5e" stroke-width="0.3" x1="101.45913802915013" x2="101.54496967792366" y1="184.9874750549273" y2="189.98673829345242" /><path d="M 101.47630435890484 185.9873277026323 a86.0,86.0 0 0,1 -42.54439059252881,-10.42667462771756" fill="none" id="id115" stroke="none" /><text fill="#e1ed5e" style="font-size:6.75px; font-family:Arial;" text-anchor="middle"><textPath startOffset="22.145653131862474" xlink:href="#id115">July</textPath></text><line stroke="#e1ed5e" stroke-width="0.3" x1="58.13341422392154" x2="55.67067388415222" y1="173.97424548756322" y2="178.32567169271397" /><path d="M 57.64086615596768 174.84453072859336 a86.0,86.0 0 0,1 -31.369924170532247,-30.572349798747897" fill="none" id="id116" stroke="none" /><text fill="#e1ed5e" style="font-size:6.75px; font-family:Arial;" text-anchor="middle"><textPath startOffset="22.145653131862474" xlink:href="#id116">August</textPath></text><line stroke="#e1ed5e" stroke-width="0.3" x1="26.387840678322732" x2="22.057713659400548" y1="142.50000000000003" y2="145.00000000000006" /><path d="M 25.521815274538298 143.00000000000003 a86.0,86.0 0 0,1 -11.493303480769221,-40.785679425670985" fill="none" id="id117" stroke="none" /><text fill="#e1ed5e" style="font-size:6.75px; font-family:Arial;" text-anchor="middle"><textPath startOffset="21.40746469413373" xlink:href="#id117">September</textPath></text><line stroke="#e1ed5e" stroke-width="0.3" x1="15.003131293944662" x2="10.003315487706104" y1="100.72959589197737" y2="100.7725132973878" /><path d="M 14.003168132696942 100.73817937305945 a86.0,86.0 0 0,1 10.791469493833604,-42.45332614584628" fill="none" id="id118" stroke="none" /><text fill="#e1ed5e" style="font-size:6.75px; font-family:Arial;" text-anchor="middle"><textPath startOffset="22.145653131862435" xlink:href="#id118">October</textPath></text><line stroke="#e1ed5e" stroke-width="0.3" x1="26.387840678322718" x2="22.05771365940052" y1="57.49999999999999" y2="54.99999999999999" /><path d="M 25.521815274538284 56.99999999999999 a86.0,86.0 0 0,1 29.574782752854787,-30.34633250058573" fill="none" id="id119" stroke="none" /><text fill="#e1ed5e" style="font-size:6.75px; font-family:Arial;" text-anchor="middle"><textPath startOffset="21.40746469413373" xlink:href="#id119">November</textPath></text><line stroke="#e1ed5e" stroke-width="0.3" x1="56.869717070023135" x2="54.33264160355391" y1="26.7553504044142" y2="22.446841604673864" /><path d="M 56.362301976729285 25.89364864446614 a86.0,86.0 0 0,1 42.16139366436587,-11.88097634709845" fill="none" id="id120" stroke="none" /><text fill="#e1ed5e" style="font-size:6.75px; font-family:Arial;" text-anchor="middle"><textPath startOffset="22.145653131862474" xlink:href="#id120">December</textPath></text></svg>