<?xml version="1.0" encoding="utf-8" ?>
<svg baseProfile="full" height="200mm" version="1.1" viewBox="0,0,200,200" width="200mm" xmlns="http://www.w3.org/2000/svg" xmlns:ev="http://www.w3.org/2001/xml-events" xmlns:xlink="http://www.w3.org/1999/xlink"><defs /><rect fill="#1a1a1a" height="200" width="200" x="0" y="0" /><rect fill="#1a1a1a" height="200" width="180" x="10" y="0" /><text alignment-baseline="middle" fill="#e1ed5e" style="dominant-baseline: central; font-size:9.0px; font-family:Arial;" text-anchor="middle" x="100.0" y="100.0">2018</text><line stroke="#e1ed5e" stroke-width="0.3" x1="100.0" x2="100.0" y1="15.0" y2="10.0" /><path d="M 100.0 14.0 a86.0,86.0 0 0,1 42.46469731375804,11.215312516191453" fill="none" id="id37" stroke="none" /><text fill="#e1ed5e" style="font-size:6.75px; font-family:Arial;" text-anchor="middle"><textPath startOffset="22.20632615414155" xlink:href="#id37">January</textPath></text><line stroke="#e1ed5e" stroke-width="0.3" x1="143.23703022742887" x2="145.7803849466894" y1="26.81831364943548" y2="22.513508569990506" /><path d="M 143.74570117128098 25.957352633546492 a86.0,86.0 0 0,1 28.547481713284135,27.462654790039103" fill="none" id="id38" stroke="none" /><text fill="#e1ed5e" style="font-size:6.75px; font-family:Arial;" text-anchor="middle"><textPath startOffset="19.985693538727396" xlink:href="#id38">February</textPath></text><line stroke="#e1ed5e" stroke-width="0.3" x1="172.23445277983987" x2="176.4835382374775" y1="55.19839476539836" y2="52.563006222186495" /><path d="M 173.08426987136738 54.67131705675599 a86.0,86.0 0 0,1 12.851231095245387,41.99856678651699" fill="none" id="id39" stroke="none" /><text fill="#e1ed5e" style="font-size:6.75px; font-family:Arial;" text-anchor="middle"><textPath startOffset="22.20632615414155" xlink:href="#id39">March</textPath></text><path d="M 120.78858239683441 97.02765380044208 l 8.689404395556842 -1.2424088203093708 a29.777774685323443,29.777774685323443 0 0,0 0.06818259742974447,0.5080395468515501 l -8.709502992044422 1.0926509313931565" fill="#ff6709" stroke="none" /><path d="M 120.96714384426684 98.82574320788733 l 7.301787163879208 -0.40893376968416884 a28.313229287707262,28.313229287707262 0 0,0 0.023063675827160096,0.48683774435368987 l -7.307744447939864 0.28318491870747914" fill="#ff5307" stroke="none" /><line stroke="#e1ed5e" stroke-width="0.3" x1="184.98032266829074" x2="189.97916517819016" y1="98.17113171792111" y2="98.06355123074" /><path d="M 185.9800911702706 98.14961562048488 a86.0,86.0 0 0,1 -9.607161424134198,41.387399972396054" fill="none" id="id40" stroke="none" /><text fill="#e1ed5e" style="font-size:6.75px; font-family:Arial;" text-anchor="middle"><textPath startOffset="21.466115282336823" xlink:href="#id40">April</textPath></text><path d="M 120.92983693683757 101.71520430193887 l 9.070290176922015 0.743312084955077 a30.100696498027403,30.100696498027403 0 0,0 -0.04676416074235089,0.5160386169971777 l -9.056151419902587 -0.8993320905008252" fill="#ff6c09" stroke="none" /><path d="M 120.81339534386255 102.79330883721812 l 11.856274141948408 1.591198110160868 a32.96257279830781,32.96257279830781 0 0,0 -0.08031244372189437,0.5617050443357067 l -11.827127647209911 -1.795048626476984" fill="#ff920d" stroke="none" /><path d="M 120.32669344350535 105.2749913415812 l 11.34481217642688 2.9440984176222584 a32.72060061648077,32.72060061648077 0 0,0 -0.14617059462307103,0.543955159388342 l -11.292453505462031 -3.138944510186149" fill="#ff8f0d" stroke="none" /><path d="M 119.9155931802556 106.66101706037122 l 8.465710299738904 2.8314617709015426 a29.926669403488752,29.926669403488752 0 0,0 -0.167602415294331,0.48713107179689047 l -8.415717053501341 -2.9767655457877336" fill="#ff6909" stroke="none" /><path d="M 119.41010516605496 108.01547362559984 l 12.204330348322468 5.039822669078752 a34.20399529637696,34.20399529637696 0 0,0 -0.22940948460940835,0.5422562551504101 l -12.11576988252075 -5.249153449895325" fill="#ffa30f" stroke="none" /><path d="M 119.12269723197855 108.67885076344098 l 10.855918455179188 4.926966893301419 a32.92165962746749,32.92165962746749 0 0,0 -0.23864344052666162,0.514016740177299 l -10.769500397812696 -5.113103700757549" fill="#ff920d" stroke="none" /><path d="M 118.81262510543309 109.33194174019688 l 1.3849078661518803 0.6869790606063427 a22.545933383894962,22.545933383894962 0 0,0 -0.175451734500299,0.3461829172794548 l -1.3728774618653123 -0.7107161895884919" fill="#ff0000" stroke="none" /><line stroke="#e1ed5e" stroke-width="0.3" x1="174.80103733775053" x2="179.2010983576182" y1="140.37084112569926" y2="142.7455964860345" /><path d="M 175.68104954172406 140.8457921977663 a86.0,86.0 0 0,1 -30.038265399797805,32.042727171017184" fill="none" id="id41" stroke="none" /><text fill="#e1ed5e" style="font-size:6.75px; font-family:Arial;" text-anchor="middle"><textPath startOffset="22.206326154141568" xlink:href="#id41">May</textPath></text><path d="M 118.12598468904814 110.60418214915192 l 1.5058847973283627 0.8809825761442406 a22.74465449940509,22.74465449940509 0 0,0 -0.20060690423458033,0.3362287103847294 l -1.490497017395555 -0.9067733804150742" fill="#ff0300" stroke="none" /><path d="M 116.498646956653 112.99209946851258 l 9.262472809423578 7.293868908195415 a32.78956853304017,32.78956853304017 0 0,0 -0.35300638651286576,0.4404297443880511 l -9.135548510855859 -7.452226486161717" fill="#ff900d" stroke="none" /><path d="M 116.0416608686014 113.55231037782055 l 11.259377663769563 9.51214353740473 a35.739554269094555,35.739554269094555 0 0,0 -0.4010616032435135,0.46652525194848554 l -11.093973550955269 -9.704545888514744" fill="#ffb711" stroke="none" /><path d="M 115.56566222782051 114.09645910891815 l 10.904378953090392 9.875142462339632 a35.711353404908195,35.711353404908195 0 0,0 -0.41655353770792697,0.4520865948590916 l -10.732779007386743 -10.06138031200006" fill="#ffb710" stroke="none" /><path d="M 114.81725581225074 114.88116024355365 l 6.032826027552739 6.058844631896562 a29.55012211329052,29.55012211329052 0 0,0 -0.3635369264414144,0.35579739690337797 l -5.92763914873553 -6.161792131722512" fill="#ff6409" stroke="none" /><path d="M 114.55890576462653 115.13401014063108 l 8.398375179456878 8.730126919259249 a33.113951530417,33.113951530417 0 0,0 -0.41418325946477236,0.3916361238395223 l -8.246856085601298 -8.873397679844693" fill="#ff940d" stroke="none" /><path d="M 113.75828350139079 115.86535959552629 l 7.6596799156463735 8.832757097647802 a32.6913769230234,32.6913769230234 0 0,0 -0.4283107814169599,0.36501573992749503 l -7.506503657652367 -8.963297227798245" fill="#ff8f0d" stroke="none" /><path d="M 113.20401910651253 116.32954008644616 l 8.441186394757533 10.439298102982209 a34.42507253738197,34.42507253738197 0 0,0 -0.46398851639845967,0.36862053912241477 l -8.260240385641723 -10.583052556109749" fill="#ffa60f" stroke="none" /><path d="M 112.04921762599082 117.19931262002967 l 8.611829927317553 12.29271142310222 a36.009142841238805,36.009142841238805 0 0,0 -0.510717870756865,0.35127640848075015 l -8.398955171937803 -12.439128620948065" fill="#ffbb11" stroke="none" /><line stroke="#e1ed5e" stroke-width="0.3" x1="143.8653032363475" x2="146.44561519142675" y1="172.8068346515853" y2="177.08958963109032" /><path d="M 144.38136562736335 173.6633856474863 a86.0,86.0 0 0,1 -40.68145358897372,12.25698825130547" fill="none" id="id42" stroke="none" /><text fill="#e1ed5e" style="font-size:6.75px; font-family:Arial;" text-anchor="middle"><textPath startOffset="21.466115282336833" xlink:href="#id42">June</textPath></text><path d="M 110.5260780823613 118.17145234162733 l 7.396576830743789 12.768909970017488 a35.756504011299825,35.756504011299825 0 0,0 -0.5352429107875806,0.30392489372708037 l -7.175685153035009 -12.894338029539195" fill="#ffb711" stroke="none" /><path d="M 109.89434966115114 118.52300852407294 l 7.6054564515943515 14.23801861738103 a37.14199931811382,37.14199931811382 0 0,0 -0.5665200133307882,0.2963764955852984 l -7.359245535737068 -14.366824531911044" fill="#ffc912" stroke="none" /><path d="M 109.2508944713604 118.85261126421891 l 8.254285817667611 16.82159949678453 a39.73764777099757,39.73764777099757 0 0,0 -0.6166664767636617,0.2960373836066362 l -7.963506672903717 -16.961191156890724" fill="#ffea16" stroke="none" /><path d="M 108.59647513512805 119.15986991738527 l 3.0942621032383277 6.8965079822170905 a28.558854431216474,28.558854431216474 0 0,0 -0.4502498217921223,0.19737629025110712 l -2.9750916067884514 -6.948748825762652" fill="#ff5608" stroke="none" /><path d="M 107.93186726928326 119.44442032107085 l 5.628452881827141 13.797760335124568 a35.90159964931568,35.90159964931568 0 0,0 -0.5742186027898981,0.22849343257147667 l -5.390113202995376 -13.892600612102115" fill="#ffb911" stroke="none" /><path d="M 106.57524785965236 119.94407469862006 l 2.8130288263805436 8.532493107517817 a29.984240079599775,29.984240079599775 0 0,0 -0.4915682782416631,0.15738463947839126 l -2.66573920304794 -8.579650593655916" fill="#ff6a09" stroke="none" /><path d="M 105.88484417918355 120.15858648285463 l 6.168687928792863 21.13089579129088 a43.01289321523251,43.01289321523251 0 0,0 -0.7125164247249648,0.20136425876147312 l -5.804040335963292 -21.233948843390873" fill="#ecff1a" stroke="none" /><path d="M 105.18746579009965 120.34920634021253 l 4.00219452036293 15.699666350371945 a37.201761771234146,37.201761771234146 0 0,0 -0.6218836319789204,0.15284386638682412 l -3.7313576036407983 -15.766231475072798" fill="#ffca12" stroke="none" /><path d="M 104.48393922423573 120.51570834832081 l 3.1342553909190634 14.340397198449475 a35.6789151051705,35.6789151051705 0 0,0 -0.6011192767212221,0.12597038901018393 l -2.8869446527684635 -14.3922235681862" fill="#ffb610" stroke="none" /><path d="M 103.41894727170886 120.7198165907248 l 3.1626909659257154 19.166828716363806 a40.42601187038596,40.42601187038596 0 0,0 -0.6875581722589637,0.10738244615886304 l -2.8322969300582344 -19.218429469869776" fill="#fff316" stroke="none" /><path d="M 101.98527174616119 120.90594882070398 l 1.3857906529174073 14.593099671176702 a35.658750756684924,35.658750756684924 0 0,0 -0.6115572241551512,0.0527677305987029 l -1.1343891110207145 -14.61479165405407" fill="#ffb610" stroke="none" /><path d="M 101.62511606390274 120.93702456842531 l 0.710557882670933 9.15440329292076 a30.181938365838896,30.181938365838896 0 0,0 -0.5183205203141249,0.03574641775551715 l -0.5528746015778778 -9.165278055192562" fill="#ff6d0a" stroke="none" /><line stroke="#e1ed5e" stroke-width="0.3" x1="102.19456741930631" x2="102.32365962044197" y1="184.97166512339345" y2="189.96999836594603" /><path d="M 102.22038585953345 185.97133177190398 a86.0,86.0 0 0,1 -42.740103519485714,-10.115201625700543" fill="none" id="id43" stroke="none" /><text fill="#e1ed5e" style="font-size:6.75px; font-family:Arial;" text-anchor="middle"><textPath startOffset="22.20632615414155" xlink:href="#id43">July</textPath></text><path d="M 100.54218724476979 120.99299961872073 l 0.3822763566387748 14.801394696349064 a35.80633040864465,35.80633040864465 0 0,0 -0.6162786269860054,0.010609795453224175 l -0.12743803976010135 -14.805781969081448" fill="#ffb811" stroke="none" /><path d="M 99.81925306533755 120.99922214144158 l -0.06621480882818485 7.692852342048715 a28.693137302653096,28.693137302653096 0 0,0 -0.4938503068868187,-0.008502080895140495 l 0.19862480560767146 -7.690572783874415" fill="#ff5808" stroke="none" /><path d="M 99.09653310690486 120.98055641714683 l -0.5066163618904748 11.764784347635759 a32.77568727864792,32.77568727864792 0 0,0 -0.5634482939781011,-0.029123840862914828 l 0.7090527242820648 -11.754320700010643" fill="#ff900d" stroke="none" /><path d="M 98.01472825383883 120.90594882070398 l -1.4193438022673475 14.946431865844698 a36.0136725137247,36.0136725137247 0 0,0 -0.6166353672598336,-0.06391677708637764 l 1.6764117661327742 -14.91978572030256" fill="#ffbb11" stroke="none" /><path d="M 95.51606077576429 120.51570834832081 l -3.632103401280449 16.618239085146126 a38.010527487666906,38.010527487666906 0 0,0 -0.6379973833500628,-0.14520612730932206 l 3.9176209340233745 -16.55325622425912" fill="#ffd413" stroke="none" /><path d="M 94.46302465271185 120.25689768951611 l -2.844134255476682 10.405200134520475 a31.786903610517747,31.786903610517747 0 0,0 -0.5265558585029543,-0.14880994523724342 l 3.02282128208425 -10.35470139594471" fill="#ff830c" stroke="none" /><path d="M 93.42475214034765 119.94407469862007 l -6.915267217516908 20.975423115740586 a43.08595244887593,43.08595244887593 0 0,0 -0.7023631242132232,-0.23827970590771197 l 7.275300074667356 -20.853280422934752" fill="#ebff1a" stroke="none" /><path d="M 90.7491055286396 118.85261126421891 l -4.0926416985787295 8.340488936059721 a30.29050438703303,30.29050438703303 0 0,0 -0.46610752985656784,-0.2337159917036771 l 4.235603136118058 -8.268805103446741" fill="#ff6e0a" stroke="none" /><line stroke="#e1ed5e" stroke-width="0.3" x1="58.666819895761336" x2="56.23545636021788" y1="174.27360380694188" y2="178.64263932499728" /><path d="M 58.180547188652646 175.14741091055294 a86.0,86.0 0 0,1 -31.652253787137756,-30.449443065178592" fill="none" id="id44" stroke="none" /><text fill="#e1ed5e" style="font-size:6.75px; font-family:Arial;" text-anchor="middle"><textPath startOffset="22.20632615414155" xlink:href="#id44">August</textPath></text><path d="M 88.54995079064634 117.60387380957326 l -8.129336561095121 12.498445409314257 a35.90963616501645,35.90963616501645 0 0,0 -0.5152610445505688,-0.34148692400212116 l 8.343272304385652 -12.356660464220818" fill="#ffb911" stroke="none" /><path d="M 87.36589467227662 116.77436683061367 l -7.075218538930047 9.393804159471678 a32.76019872111551,32.76019872111551 0 0,0 -0.4475218981872598,-0.3431407082172773 l 7.235869165610794 -9.270624109427033" fill="#ff900d" stroke="none" /><path d="M 86.79598089348748 116.32954008644616 l -3.8346311167460096 4.742325956401658 a27.098692587618896,27.098692587618896 0 0,0 -0.3601930751709075,-0.2964143790459427 l 3.915694320461606 -4.675616458498535" fill="#ff4206" stroke="none" /><path d="M 85.97065885151581 115.62618273729859 l -5.950699882490112 6.628017865875228 a29.90738176580689,29.90738176580689 0 0,0 -0.38010922226479216,-0.34722076223621245 l 6.063908654221759 -6.524604337052439" fill="#ff6909" stroke="none" /><path d="M 85.70375840098266 115.38237550388516 l -10.006444015137522 10.766667465246929 a35.69864109825423,35.69864109825423 0 0,0 -0.44651208464069697,-0.4222050459068836 l 10.190291934169036 -10.592827782594114" fill="#ffb710" stroke="none" /><path d="M 84.67929136418377 114.36230785411682 l -21.36887015351167 20.03212115932471 a50.2901773599872,50.2901773599872 0 0,0 -0.5866075993743206,-0.6366466927128785 l 21.710524160881718 -19.66132321181049" fill="#98ff23" stroke="none" /><path d="M 83.95833913139862 113.55231037782056 l -9.038732912687061 7.636099208076394 a32.8325273624225,32.8325273624225 0 0,0 -0.3610077095994417,-0.4348570422077255 l 9.168836622180038 -7.479380908754908" fill="#ff910d" stroke="none" /><path d="M 83.72743513129214 113.27417163493432 l -14.767466692407343 12.046403813399374 a40.0576472143558,40.0576472143558 0 0,0 -0.43125316763768295,-0.5380546348338635 l 14.972637772099887 -11.790421344987251" fill="#ffee16" stroke="none" /><path d="M 83.28015986056508 112.70617746262583 l -24.622962901159074 18.712124856975656 a51.926265838198155,51.926265838198155 0 0,0 -0.5346890452431546,-0.7163033537381815 l 24.941413213097313 -18.285508623728166" fill="#86ff25" stroke="none" /><path d="M 82.6465618267979 111.8261652097733 l -7.313199297492549 4.983859811579119 a29.849957208163154,29.849957208163154 0 0,0 -0.2857023191649228,-0.4270862025518525 l 7.397904722068202 -4.857236694821446" fill="#ff6809" stroke="none" /><path d="M 82.44556493220864 111.52570212397912 l -12.33814700563467 8.100847825614585 a35.759864736047426,35.759864736047426 0 0,0 -0.33340988579108444,-0.5174595468102625 l 12.475761754802802 -7.887266678882874" fill="#ffb711" stroke="none" /><path d="M 82.05923443525364 110.91462005526583 l -27.103327589856605 16.488846131403687 a52.72494938038812,52.72494938038812 0 0,0 -0.4650318549090733,-0.7794201374099272 l 27.38314032046391 -16.019863900107648" fill="#7dff26" stroke="none" /><line stroke="#e1ed5e" stroke-width="0.3" x1="26.63291911575756" x2="22.317208475507996" y1="142.92168965132927" y2="145.44649492493687" /><path d="M 25.769776987707644 143.4266507060508 a86.0,86.0 0 0,1 -11.730757126820373,-40.83630448921669" fill="none" id="id45" stroke="none" /><text fill="#e1ed5e" style="font-size:6.75px; font-family:Arial;" text-anchor="middle"><textPath startOffset="21.46611528233685" xlink:href="#id45">September</textPath></text><path d="M 80.87730276802145 108.67885076344099 l -8.034595790069677 3.6465074440427796 a29.823363647116942,29.823363647116942 0 0,0 -0.20813713456123997,-0.46929429183681215 l 8.096174009362198 -3.5076648157132717" fill="#ff6809" stroke="none" /><path d="M 80.73074385275274 108.34839909993369 l -9.024381555388771 3.9098104399441747 a30.834941796143866,30.834941796143866 0 0,0 -0.20681291890377138,-0.4888446487398848 l 9.090345455484849 -3.753891265538131" fill="#ff760a" stroke="none" /><path d="M 80.58989483394504 108.01547362559985 l -13.891449196452204 5.736524542394001 a36.02930718972439,36.02930718972439 0 0,0 -0.23178405768806037,-0.5752690227095403 l 13.988135868397652 -5.496556151841656" fill="#ffbb11" stroke="none" /><path d="M 79.76711848015287 105.62410040840567 l -60.698644559541364 16.872301225217015 a84.0,84.0 0 0,0 -0.3752476946329004,-1.3964362672978443 l 60.98008033051604 -15.824974024743632" fill="#4dd2ff" stroke="none" /><line stroke="#e1ed5e" stroke-width="0.3" x1="15.007084014347285" x2="10.007500721073583" y1="101.09737516637583" y2="101.16192664675087" /><path d="M 14.007167355692545 101.11028546245083 a86.0,86.0 0 0,1 10.666146001902534,-42.60595125391555" fill="none" id="id46" stroke="none" /><text fill="#e1ed5e" style="font-size:6.75px; font-family:Arial;" text-anchor="middle"><textPath startOffset="22.20632615414155" xlink:href="#id46">October</textPath></text><path d="M 81.43458229118936 90.18545643968196 l -8.29119859045987 -4.383113324441816 a30.37846770433972,30.37846770433972 0 0,0 0.24836842204706444,-0.4601889654271803 l 8.214522069194334 4.525183273201469" fill="#ff6f0a" stroke="none" /><line stroke="#e1ed5e" stroke-width="0.3" x1="26.266209847984243" x2="21.928928074336255" y1="57.711370442889674" y2="55.22380399835377" /><path d="M 25.398753493254645 57.213857153982495 a86.0,86.0 0 0,1 29.58750427330803,-30.492523968695096" fill="none" id="id47" stroke="none" /><text fill="#e1ed5e" style="font-size:6.75px; font-family:Arial;" text-anchor="middle"><textPath startOffset="21.46611528233685" xlink:href="#id47">November</textPath></text><path d="M 81.78341655067845 89.55222093294921 l -9.800544457482944 -5.620918077939828 a32.29802600908718,32.29802600908718 0 0,0 0.2807472467459374,-0.4798880502459366 l 9.702337536266683 5.7887855405396555" fill="#ff8a0c" stroke="none" /><path d="M 82.7489923806493 88.02491185347247 l -8.010275206964632 -5.560472396623743 a30.751069795921207,30.751069795921207 0 0,0 0.30558858066375644,-0.43223337572397946 l 7.913374006496998 5.697532272679508" fill="#ff750a" stroke="none" /><path d="M 83.17141714833178 87.43820079747576 l -7.607340509655514 -5.6785461253529075 a30.493024582692616,30.493024582692616 0 0,0 0.3175980062653609,-0.41792174782538294 l 7.508466563166044 5.808652649059317" fill="#ff710a" stroke="none" /><path d="M 83.6137871275137 86.86637796730984 l -12.621758691682928 -10.116395370569421 a37.1756065655898,37.1756065655898 0 0,0 0.40450867420057296,-0.4958798049258771 l 12.445751525405962 10.33215934510338" fill="#ffca12" stroke="none" /><path d="M 85.05521093208273 85.24692304244772 l -6.443711298934933 -6.361051216809486 a30.05452306236475,30.05452306236475 0 0,0 0.3666139453154142,-0.3650395885247017 l 6.333261553452205 6.471026655984296" fill="#ff6b09" stroke="none" /><line stroke="#e1ed5e" stroke-width="0.3" x1="56.762969772571076" x2="54.21961505331055" y1="26.818313649435495" y2="22.513508569990535" /><path d="M 56.25429882871897 25.957352633546506 a86.0,86.0 0 0,1 42.265352541879196,-11.944610805530505" fill="none" id="id48" stroke="none" /><text fill="#e1ed5e" style="font-size:6.75px; font-family:Arial;" text-anchor="middle"><textPath startOffset="22.20632615414155" xlink:href="#id48">December</textPath></text><path d="M 91.56875222667455 80.76684994638697 l -9.285172742108458 -21.1811021836751 a44.12690040982751,44.12690040982751 0 0,0 0.6982897964073899,-0.29897124856425633 l 8.91919918791076 21.33779296020214" fill="#dfff1b" stroke="none" /><path d="M 93.94186890950719 79.89281104454417 l -2.568780110177719 -8.5258879824204 a29.90445939646115,29.90445939646115 0 0,0 0.4941495211554653,-0.14425579569735397 l 2.421640371298832 8.568842107036453" fill="#ff6909" stroke="none" /><path d="M 94.28887869178378 79.79150937346287 l -6.41130679135186 -22.686058692273622 a44.57460739359445,44.57460739359445 0 0,0 0.7401552231033453,-0.2023123819996786 l 6.019853679024793 22.793057615099595" fill="#d9ff1c" stroke="none" /><path d="M 96.40284397218896 79.31037775812273 l -1.756591712604694 -10.10332014681031 a31.254886271126296,31.254886271126296 0 0,0 0.5308430999219742,-0.08759365992632043 l 1.582419406543834 10.132060069676257" fill="#ff7b0b" stroke="none" /><path d="M 96.75951476605007 79.25152402106235 l -4.821191040498066 -30.86956405343999 a52.24378126761249,52.24378126761249 0 0,0 0.8897141314761388,-0.13112073529004875 l 4.289107928593278 30.947979272891008" fill="#82ff25" stroke="none" /><path d="M 99.27714615592234 79.0124445844662 l -0.3560829368362307 -10.338618837826221 a31.344749128507715,31.344749128507715 0 0,0 0.5393884505495817,-0.013930812326759712 l 0.17806785109176992 10.343216442295342" fill="#ff7d0b" stroke="none" /></svg>