<?xml version="1.0" encoding="utf-8" ?>
<svg baseProfile="full" height="200mm" version="1.1" viewBox="0,0,200,200" width="200mm" xmlns="http://www.w3.org/2000/svg" xmlns:ev="http://www.w3.org/2001/xml-events" xmlns:xlink="http://www.w3.org/1999/xlink"><defs /><rect fill="#1a1a1a" height="200" width="200" x="0" y="0" /><text alignment-baseline="middle" fill="#e1ed5e" style="dominant-baseline: central; font-size:9.0px; font-family:Arial;" text-anchor="middle" x="100.0" y="100.0">2024</text><line stroke="#e1ed5e" stroke-width="0.3" x1="100.0" x2="100.0" y1="15.0" y2="10.0" /><path d="M 100.0 14.0 a86.0,86.0 0 0,1 42.35913384403234,11.155469271406648" fill="none" id="id109" stroke="none" /><text fill="#e1ed5e" style="font-size:6.75px; font-family:Arial;" text-anchor="middle"><textPath startOffset="22.145653131862478" xlink:href="#id109">January</textPath></text><path d="M 101.08105385017728 79.02784411241856 l 0.5879797328281395 -11.406649736817542 a32.421794009027494,32.421794009027494 0 0,0 0.5555793184831638,0.03342227217479541 l -0.7837034034437657 11.394875486818055" fill="#ff3e05" stroke="none" /><path d="M 101.44090949804482 79.04949213459386 l 0.8143119397157328 -11.839916886562143 a32.86788674599918,32.86788674599918 0 0,0 0.5625589320346793,0.04354561921082748 l -1.0174398665256454 11.824193500356262" fill="#ff4506" stroke="none" /><path d="M 101.80034050326958 79.07731436759882 l 2.7068935788470263 -31.458206538000198 a52.57445219532212,52.57445219532212 0 0,0 0.8985235165568987,0.08509111120931617 l -3.2465166587889382 31.407103671285697" fill="#a4ff21" stroke="none" /><path d="M 102.51750503828377 79.15144685158666 l 1.5228250582992116 -12.611176017876181 a33.70278539187525,33.70278539187525 0 0,0 0.5737853924595452,0.074288006637642 l -1.7390882726495485 12.583176415038142" fill="#ff5207" stroke="none" /><path d="M 102.87502721639298 79.19773525538626 l 1.446706144950751 -10.46764498900364 a31.567144850225688,31.567144850225688 0 0,0 0.5361527645581549,0.07879599295559722 l -1.626184015116588 10.44126792274916" fill="#ff3104" stroke="none" /><path d="M 103.23170211078529 79.25015418208739 l 2.7232706310628827 -17.485350993960644 a38.6961493639721,38.6961493639721 0 0,0 0.6554805178087377,0.10785906976583735 l -3.0230286519246907 17.436025925699138" fill="#ff9e0e" stroke="none" /><path d="M 103.94208987418118 79.37332000966035 l 2.0104173078487193 -10.51935287615664 a31.709741485432907,31.709741485432907 0 0,0 0.5337859551431118,0.10677214057617743 l -2.190699748522788 10.483291338917603" fill="#ff3304" stroke="none" /><path d="M 104.29559338865022 79.4440306129975 l 3.467511562946171 -16.593298082013316 a37.951730816577765,37.951730816577765 0 0,0 0.6365726641882137,0.13873804933763267 l -3.751846643753519 16.531328574541966" fill="#ff930d" stroke="none" /><path d="M 104.64783097203109 79.52079915486377 l 8.087500527222458 -35.63501956693494 a57.54124086992203,57.54124086992203 0 0,0 0.9613986311982881,0.2268874592100404 l -8.698031312160632 35.49093596407868" fill="#69ff28" stroke="none" /><path d="M 104.9986988182912 79.60360301121754 l 2.563674068538956 -10.46066505555997 a31.77023389413213,31.77023389413213 0 0,0 0.5285881693143301,0.134365045611746 l -2.7428675310786805 10.415114778112956" fill="#ff3404" stroke="none" /><path d="M 105.3480935250658 79.69241777938227 l 2.430988310968607 -9.230858579973727 a30.54559868691014,30.54559868691014 0 0,0 0.505920349661532,0.13789084102811547 l -2.589090061564832 9.18776724480147" fill="#ff2003" stroke="none" /><path d="M 105.69591212413111 79.78721728523813 l 5.415739625918619 -19.218549358346635 a40.967044727123515,40.967044727123515 0 0,0 0.6752539216480377,0.1965565753356457 l -5.744853559948261 19.122749088708474" fill="#ffbe11" stroke="none" /><path d="M 106.38641147887787 79.99465700312896 l 3.473914336883123 -10.881987181838399 a32.42303487894952,32.42303487894952 0 0,0 0.5287691534521141,0.17381692342963118 l -3.6602062279829792 10.820749337006745" fill="#ff3e05" stroke="none" /><path d="M 106.72888874123014 80.10723608172694 l 2.417363634547402 -7.1465060481708615 a28.54428231432089,28.54428231432089 0 0,0 0.4628173032925585,0.16099188278632517 l -2.539686709884979 7.103955732815947" fill="#ff0000" stroke="none" /><path d="M 107.06938296918511 80.22567764915836 l 8.82770705328108 -24.692667754920084 a47.22320065654493,47.22320065654493 0 0,0 0.7609925426566126,0.27944700250855264 l -9.250288747591817 24.537489903402808" fill="#e9ff1a" stroke="none" /><path d="M 108.07796709384702 80.6158196554323 l 6.230091515837396 -14.949951652828583 a37.1961444398851,37.1961444398851 0 0,0 0.5872827064362063,0.2506760653892496 l -6.485809297444033 14.840800937779932" fill="#ff870c" stroke="none" /><path d="M 108.73861861582097 80.90454125486305 l 5.320065276016037 -11.625302747012713 a33.784786212556426,33.784786212556426 0 0,0 0.5252911427541925,0.24586277831365494 l -5.518845132641735 11.532263737128524" fill="#ff5307" stroke="none" /><path d="M 109.06512990194946 81.05736502329252 l 15.839657336906033 -33.0987917806465 a57.6936610586787,57.6936610586787 0 0,0 0.8896905150667285,0.4351922138793942 l -16.40550810123483 32.822005816669886" fill="#67ff28" stroke="none" /><path d="M 109.71004243097381 81.37971332152246 l 5.625306091533513 -10.787266154926089 a33.16590233894132,33.16590233894132 0 0,0 0.5025600504181825,0.26758492004026885 l -5.809654957738256 10.689110767163246" fill="#ff4a06" stroke="none" /><path d="M 110.02825361518725 81.54914285379988 l 6.038926266077924 -11.110944151142599 a33.64601559294214,33.64601559294214 0 0,0 0.5051000933840707,0.2801705073347 l -6.228770547618095 11.005640728374754" fill="#ff5107" stroke="none" /><path d="M 110.34350942703115 81.72400993836675 l 9.748857377476464 -17.225296868529004 a40.79270250307755,40.79270250307755 0 0,0 0.6064661417995635,0.35014339022237173 l -10.043115987136424 17.05540658103046" fill="#ffbc11" stroke="none" /><line stroke="#e1ed5e" stroke-width="0.3" x1="143.13028292997686" x2="145.6673583964461" y1="26.7553504044142" y2="22.446841604673864" /><path d="M 143.63769802327073 25.89364864446614 a86.0,86.0 0 0,1 29.32050498858742,28.57503671076993" fill="none" id="id110" stroke="none" /><text fill="#e1ed5e" style="font-size:6.75px; font-family:Arial;" text-anchor="middle"><textPath startOffset="20.669276256404974" xlink:href="#id110">February</textPath></text><path d="M 110.96478420261332 82.08984904055464 l 6.598307480023178 -10.77783938655962 a33.637226097661056,33.637226097661056 0 0,0 0.48987954041312315,0.30572106455194537 l -6.782351149226013 10.662982525166129" fill="#ff5107" stroke="none" /><path d="M 111.27062007382361 82.28071324371311 l 33.81186022147082 -53.157860268860695 a84.0,84.0 0 0,0 1.2100574709719707,0.7843446331844213 l -34.719403324699805 52.56960179397238" fill="#4dd2ff" stroke="none" /><path d="M 111.8722381534696 82.67804972795209 l 7.288492204105815 -10.634127945018827 a33.892121460812476,33.892121460812476 0 0,0 0.4770798797310142,0.3330388079429037 l -7.46996717501059 10.507444321270798" fill="#ff5507" stroke="none" /><line stroke="#e1ed5e" stroke-width="0.3" x1="172.87174338648825" x2="177.1583165268699" y1="56.24261187166439" y2="53.66864786411523" /><path d="M 173.72905801456457 55.72781907015455 a86.0,86.0 0 0,1 12.242430191666344,42.057860355516425" fill="none" id="id111" stroke="none" /><text fill="#e1ed5e" style="font-size:6.75px; font-family:Arial;" text-anchor="middle"><textPath startOffset="22.145653131862474" xlink:href="#id111">March</textPath></text><line stroke="#e1ed5e" stroke-width="0.3" x1="184.99686870605535" x2="189.99668451229388" y1="99.2704041080226" y2="99.22748670261217" /><path d="M 185.99683186730306 99.26182062694052 a86.0,86.0 0 0,1 -10.086455211305974,41.156179273409016" fill="none" id="id112" stroke="none" /><text fill="#e1ed5e" style="font-size:6.75px; font-family:Arial;" text-anchor="middle"><textPath startOffset="21.40746469413373" xlink:href="#id112">April</textPath></text><line stroke="#e1ed5e" stroke-width="0.3" x1="174.33088141563837" x2="178.70328620479359" y1="141.23008692659167" y2="143.65538615756765" /><path d="M 175.20536237346943 141.71514677278685 a86.0,86.0 0 0,1 -30.301960400862466,31.631185727798858" fill="none" id="id113" stroke="none" /><text fill="#e1ed5e" style="font-size:6.75px; font-family:Arial;" text-anchor="middle"><textPath startOffset="22.145653131862474" xlink:href="#id113">May</textPath></text><line stroke="#e1ed5e" stroke-width="0.3" x1="143.1302829299769" x2="145.66735839644613" y1="173.24464959558577" y2="177.55315839532614" /><path d="M 143.63769802327073 174.10635135553383 a86.0,86.0 0 0,1 -40.68552437913181,11.842963189579606" fill="none" id="id114" stroke="none" /><text fill="#e1ed5e" style="font-size:6.75px; font-family:Arial;" text-anchor="middle"><textPath startOffset="21.407464694133747" xlink:href="#id114">June</textPath></text><line stroke="#e1ed5e" stroke-width="0.3" x1="101.45913802915013" x2="101.54496967792366" y1="184.9874750549273" y2="189.98673829345242" /><path d="M 101.47630435890484 185.9873277026323 a86.0,86.0 0 0,1 -42.54439059252881,-10.42667462771756" fill="none" id="id115" stroke="none" /><text fill="#e1ed5e" style="font-size:6.75px; font-family:Arial;" text-anchor="middle"><textPath startOffset="22.145653131862474" xlink:href="#id115">July</textPath></text><line stroke="#e1ed5e" stroke-width="0.3" x1="58.13341422392154" x2="55.67067388415222" y1="173.97424548756322" y2="178.32567169271397" /><path d="M 57.64086615596768 174.84453072859336 a86.0,86.0 0 0,1 -31.369924170532247,-30.572349798747897" fill="none" id="id116" stroke="none" /><text fill="#e1ed5e" style="font-size:6.75px; font-family:Arial;" text-anchor="middle"><textPath startOffset="22.145653131862474" xlink:href="#id116">August</textPath></text><line stroke="#e1ed5e" stroke-width="0.3" x1="26.387840678322732" x2="22.057713659400548" y1="142.50000000000003" y2="145.00000000000006" /><path d="M 25.521815274538298 143.00000000000003 a86.0,86.0 0 0,1 -11.493303480769221,-40.785679425670985" fill="none" id="id117" stroke="none" /><text fill="#e1ed5e" style="font-size:6.75px; font-family:Arial;" text-anchor="middle"><textPath startOffset="21.40746469413373" xlink:href="#id117">September</textPath></text><line stroke="#e1ed5e" stroke-width="0.3" x1="15.003131293944662" x2="10.003315487706104" y1="100.72959589197737" y2="100.7725132973878" /><path d="M 14.003168132696942 100.73817937305945 a86.0,86.0 0 0,1 10.791469493833604,-42.45332614584628" fill="none" id="id118" stroke="none" /><text fill="#e1ed5e" style="font-size:6.75px; font-family:Arial;" text-anchor="middle"><textPath startOffset="22.145653131862435" xlink:href="#id118">October</textPath></text><line stroke="#e1ed5e" stroke-width="0.3" x1="26.387840678322718" x2="22.05771365940052" y1="57.49999999999999" y2="54.99999999999999" /><path d="M 25.521815274538284 56.99999999999999 a86.0,86.0 0 0,1 29.574782752854787,-30.34633250058573" fill="none" id="id119" stroke="none" /><text fill="#e1ed5e" style="font-size:6.75px; font-family:Arial;" text-anchor="middle"><textPath startOffset="21.40746469413373" xlink:href="#id119">November</textPath></text><line stroke="#e1ed5e" stroke-width="0.3" x1="56.869717070023135" x2="54.33264160355391" y1="26.7553504044142" y2="22.446841604673864" /><path d="M 56.362301976729285 25.89364864446614 a86.0,86.0 0 0,1 42.16139366436587,-11.88097634709845" fill="none" id="id120" stroke="none" /><text fill="#e1ed5e" style="font-size:6.75px; font-family:Arial;" text-anchor="middle"><textPath startOffset="22.145653131862474" xlink:href="#id120">December</textPath></text></svg>