<?xml version="1.0" encoding="utf-8" ?>
<svg baseProfile="full" height="200mm" version="1.1" viewBox="0,0,200,200" width="200mm" xmlns="http://www.w3.org/2000/svg" xmlns:ev="http://www.w3.org/2001/xml-events" xmlns:xlink="http://www.w3.org/1999/xlink"><defs /><rect fill="#1a1a1a" height="200" width="200" x="0" y="0" /><text alignment-baseline="middle" fill="#e1ed5e" style="dominant-baseline: central; font-size:9.0px; font-family:Arial;" text-anchor="middle" x="100.0" y="100.0">2016</text><line stroke="#e1ed5e" stroke-width="0.3" x1="100.0" x2="100.0" y1="15.0" y2="10.0" /><path d="M 100.0 14.0 a86.0,86.0 0 0,1 42.35913384403234,11.155469271406648" fill="none" id="id13" stroke="none" /><text fill="#e1ed5e" style="font-size:6.75px; font-family:Arial;" text-anchor="middle"><textPath startOffset="22.145653131862478" xlink:href="#id13">January</textPath></text><line stroke="#e1ed5e" stroke-width="0.3" x1="143.13028292997686" x2="145.6673583964461" y1="26.7553504044142" y2="22.446841604673864" /><path d="M 143.63769802327073 25.89364864446614 a86.0,86.0 0 0,1 29.32050498858742,28.57503671076993" fill="none" id="id14" stroke="none" /><text fill="#e1ed5e" style="font-size:6.75px; font-family:Arial;" text-anchor="middle"><textPath startOffset="20.669276256404974" xlink:href="#id14">February</textPath></text><line stroke="#e1ed5e" stroke-width="0.3" x1="172.87174338648825" x2="177.1583165268699" y1="56.24261187166439" y2="53.66864786411523" /><path d="M 173.72905801456457 55.72781907015455 a86.0,86.0 0 0,1 12.242430191666344,42.057860355516425" fill="none" id="id15" stroke="none" /><text fill="#e1ed5e" style="font-size:6.75px; font-family:Arial;" text-anchor="middle"><textPath startOffset="22.145653131862474" xlink:href="#id15">March</textPath></text><path d="M 120.9064616781168 98.02013634271609 l 11.272867997165351 -1.0675523196882262 a32.323304325009836,32.323304325009836 0 0,0 0.047571249482119084,0.5528500282292746 l -11.28953286934521 0.8738812440832894" fill="red" stroke="none" /><path d="M 120.93736805541906 98.37931529534042 l 12.194394709973714 -0.943923273294175 a33.230872965103565,33.230872965103565 0 0,0 0.03914286496112178,0.569128665856736 l -12.208801536099902 0.7344511832831049" fill="red" stroke="none" /><path d="M 120.98066250479742 99.09900007780936 l 11.342323067032888 -0.48708815551086565 a32.35277708000053,32.35277708000053 0 0,0 0.019065511566009725,0.5550715669465578 l -11.349013265595746 0.29231032400018786" fill="red" stroke="none" /><path d="M 120.99303781780057 99.45929381324524 l 5.654971393529253 -0.1456520035327986 a26.656846822017307,26.656846822017307 0 0,0 0.00785560571056839,0.45754964988268243 l -5.656638430838488 0.048555437681049834" fill="red" stroke="none" /><line stroke="#e1ed5e" stroke-width="0.3" x1="184.99686870605535" x2="189.99668451229388" y1="99.2704041080226" y2="99.22748670261217" /><path d="M 185.99683186730306 99.26182062694052 a86.0,86.0 0 0,1 -10.086455211305974,41.156179273409016" fill="none" id="id16" stroke="none" /><text fill="#e1ed5e" style="font-size:6.75px; font-family:Arial;" text-anchor="middle"><textPath startOffset="21.40746469413373" xlink:href="#id16">April</textPath></text><path d="M 120.9064616781168 101.97986365728391 l 11.565007053505626 1.0952181920594803 a32.6167504507867,32.6167504507867 0 0,0 -0.057572614487295365,0.5569628194989651 l -11.544502046536666 -1.2935855338413769" fill="red" stroke="none" /><path d="M 120.86939407059847 102.33845913500097 l 5.395308482230902 0.604555568970543 a26.42907368290448,26.42907368290448 0 0,0 -0.05439092507927425,0.45043488496041195 l -5.384135470891964 -0.6970841308543635" fill="red" stroke="none" /><path d="M 120.77682067341334 103.0534771498775 l 17.442153643952384 2.563395932112611 a38.629512824919836,38.629512824919836 0 0,0 -0.1020527490929624,0.6552518568793829 l -17.395579402721154 -2.8624359709234444" fill="red" stroke="none" /><path d="M 120.7213421655516 103.40968896794604 l 11.187275365552225 1.8408619041440577 a32.33772034647268,32.33772034647268 0 0,0 -0.09483449568679084,0.546980169834893 l -11.154026052373199 -2.0326351068995385" fill="red" stroke="none" /><path d="M 119.4528033332814 107.91128576633889 l 16.32618897625108 6.639718926546431 a38.62470748443222,38.62470748443222 0 0,0 -0.25505946144899644,0.6120498563409146 l -16.209803670265597 -6.919001292328623" fill="red" stroke="none" /><path d="M 119.31412917781788 108.2440532568976 l 20.778754984697915 8.869214921820769 a43.59246848052591,43.59246848052591 0 0,0 -0.29967978323006234,0.6857259910104122 l -20.62344131945089 -9.224602982607026" fill="red" stroke="none" /><path d="M 119.16976305983485 108.57439118712176 l 10.280283824340666 4.598240194696305 a32.2617959667684,32.2617959667684 0 0,0 -0.23046526603294074,0.5036081986403999 l -10.199834093452669 -4.774037375551393" fill="red" stroke="none" /><path d="M 118.8641267826498 109.22738970284198 l 9.758388586777153 4.773316856880757 a31.86327306232908,31.86327306232908 0 0,0 -0.24455833893068915,0.48928050099795134 l -9.675010334634733 -4.940129214042454" fill="red" stroke="none" /><line stroke="#e1ed5e" stroke-width="0.3" x1="174.33088141563837" x2="178.70328620479359" y1="141.23008692659167" y2="143.65538615756765" /><path d="M 175.20536237346943 141.71514677278685 a86.0,86.0 0 0,1 -30.301960400862466,31.631185727798858" fill="none" id="id17" stroke="none" /><text fill="#e1ed5e" style="font-size:6.75px; font-family:Arial;" text-anchor="middle"><textPath startOffset="22.145653131862474" xlink:href="#id17">May</textPath></text><path d="M 117.81537515405839 111.11811171558189 l 10.077939187212904 6.289379413980452 a32.879442397442844,32.879442397442844 0 0,0 -0.3029328768148012,0.4762607981663055 l -9.968488618772213 -6.461453886825429" fill="red" stroke="none" /><path d="M 117.01052211995028 112.31430620078461 l 25.45918702570763 18.43048805009419 a52.43013034931011,52.43013034931011 0 0,0 -0.5340332854606702,0.7245187157895308 l -25.139051720663133 -18.864813075152597" fill="red" stroke="none" /><path d="M 116.1254893667686 113.45245675266167 l 13.226912313394354 11.034360683271604 a38.22522351189538,38.22522351189538 0 0,0 -0.4246739264990886,0.5002648175885268 l -13.035543823388151 -11.259792283309688" fill="red" stroke="none" /><path d="M 115.89218393027572 113.72728997021213 l 12.296841187485237 10.62171854031196 a37.249098680845044,37.249098680845044 0 0,0 -0.42213682683599846,0.4803142183508759 l -12.112693296690653 -10.83124503647413" fill="red" stroke="none" /><path d="M 115.41159269507618 114.26474011684316 l 22.74707578037263 21.054353748189868 a51.99540721319744,51.99540721319744 0 0,0 -0.6119219792975874,0.649839936512722 l -22.382297967338783 -21.441735144647087" fill="red" stroke="none" /><path d="M 114.91283532996324 114.78537596483092 l 13.111961541173304 12.99989416721662 a39.464040289601854,39.464040289601854 0 0,0 -0.4811006275454608,0.47698868107821063 l -12.88686899349788 -13.223062858523493" fill="red" stroke="none" /><path d="M 114.39649973595853 115.28858382429668 l 24.235540050794683 25.737303677240266 a56.35208907728309,56.35208907728309 0 0,0 -0.709956433052975,0.6571250753997141 l -23.79015384642774 -26.14954649877236" fill="red" stroke="none" /><line stroke="#e1ed5e" stroke-width="0.3" x1="143.1302829299769" x2="145.66735839644613" y1="173.24464959558577" y2="177.55315839532614" /><path d="M 143.63769802327073 174.10635135553383 a86.0,86.0 0 0,1 -40.68552437913181,11.842963189579606" fill="none" id="id18" stroke="none" /><text fill="#e1ed5e" style="font-size:6.75px; font-family:Arial;" text-anchor="middle"><textPath startOffset="21.407464694133747" xlink:href="#id18">June</textPath></text><line stroke="#e1ed5e" stroke-width="0.3" x1="101.45913802915013" x2="101.54496967792366" y1="184.9874750549273" y2="189.98673829345242" /><path d="M 101.47630435890484 185.9873277026323 a86.0,86.0 0 0,1 -42.54439059252881,-10.42667462771756" fill="none" id="id19" stroke="none" /><text fill="#e1ed5e" style="font-size:6.75px; font-family:Arial;" text-anchor="middle"><textPath startOffset="22.145653131862474" xlink:href="#id19">July</textPath></text><path d="M 97.48249496171623 120.84855314841334 l -2.1847644765517753 18.09298397162568 a39.22441397728625,39.22441397728625 0 0,0 -0.6677903771531696,-0.08645883395159126 l 2.495032675595739 -18.052813541473693" fill="red" stroke="none" /><path d="M 96.76829788921471 120.74984581791261 l -2.8765432479642157 18.46947114482379 a39.692133784747185,39.692133784747185 0 0,0 -0.6723516637648631,-0.11063521041269163 l 3.193172414782142 -18.417369935915428" fill="red" stroke="none" /><path d="M 96.05791012581884 120.62667999033965 l -4.264839935690627 22.31544469335161 a43.71932946939887,43.71932946939887 0 0,0 -0.7359493627458311,-0.14721048401315878 l 4.6472857839674155 -22.238944812675587" fill="red" stroke="none" /><path d="M 93.95794788825049 120.11202640906438 l -5.400069365792713 17.975074641346495 a39.768698876516474,39.768698876516474 0 0,0 -0.6521297131731327,-0.2020314521255553 l 5.7078397118374795 -17.87972660141429" fill="red" stroke="none" /><path d="M 92.59220618246901 119.65005319985036 l -6.5248683829508805 17.307988586774684 a39.49703696095012,39.49703696095012 0 0,0 -0.632380922647131,-0.2446185259693866 l 6.82102156809154 -17.19343017266726" fill="red" stroke="none" /><path d="M 91.26138138417905 119.09545874513695 l -5.9788663401342514 13.064901966773371 a35.36796805796105,35.36796805796105 0 0,0 -0.5499067018265203,-0.25738410287194535 l 6.202261755832262 -12.9603416323309" fill="red" stroke="none" /><line stroke="#e1ed5e" stroke-width="0.3" x1="58.13341422392154" x2="55.67067388415222" y1="173.97424548756322" y2="178.32567169271397" /><path d="M 57.64086615596768 174.84453072859336 a86.0,86.0 0 0,1 -31.369924170532247,-30.572349798747897" fill="none" id="id20" stroke="none" /><text fill="#e1ed5e" style="font-size:6.75px; font-family:Arial;" text-anchor="middle"><textPath startOffset="22.145653131862474" xlink:href="#id20">August</textPath></text><path d="M 89.03521579738668 117.91015095944536 l -13.000428531551698 21.23522298615571 a45.89871155854735,45.89871155854735 0 0,0 -0.6684510684256199,-0.4171629051248469 l 13.36304372876703 -21.008924284189312" fill="red" stroke="none" /><path d="M 88.1277618465304 117.32195027204791 l -10.409025650770603 15.187079501974663 a39.41182225630313,39.41182225630313 0 0,0 -0.5547775297500119,-0.38727780195975947 l 10.66819827169438 -15.006156884209775" fill="red" stroke="none" /><path d="M 85.08716467003676 114.78537596483092 l -12.880598072379954 12.770508152086157 a39.13823820454173,39.13823820454173 0 0,0 -0.46893796723649256,-0.48117166556477226 l 13.097922840767255 -12.547513794453646" fill="red" stroke="none" /><path d="M 83.8745106332314 113.45245675266167 l -19.132394476936565 15.960923939849923 a45.9158506062865,45.9158506062865 0 0,0 -0.4997244620681268,-0.6095825896621638 l 19.40356575824332 -15.630139068489264" fill="red" stroke="none" /><path d="M 83.64595745247003 113.17365903436017 l -24.21943620091807 19.50946339952645 a52.09984327979488,52.09984327979488 0 0,0 -0.5550706619049408,-0.701313648588989 l 24.550773293464573 -19.09082980702278" fill="red" stroke="none" /><path d="M 82.576782715395 111.72311816256416 l -52.26965185381499 35.16935448769248 a84.0,84.0 0 0,0 -0.7947022443170932,-1.2032804866437559 l 52.86567853705281 -34.266894122709665" fill="red" stroke="none" /><line stroke="#e1ed5e" stroke-width="0.3" x1="26.387840678322732" x2="22.057713659400548" y1="142.50000000000003" y2="145.00000000000006" /><path d="M 25.521815274538298 143.00000000000003 a86.0,86.0 0 0,1 -11.493303480769221,-40.785679425670985" fill="none" id="id21" stroke="none" /><text fill="#e1ed5e" style="font-size:6.75px; font-family:Arial;" text-anchor="middle"><textPath startOffset="21.40746469413373" xlink:href="#id21">September</textPath></text><path d="M 81.4637452351635 109.86951160357371 l -9.560786436235723 5.090580263857903 a31.831557815110834,31.831557815110834 0 0,0 -0.25266970665411287,-0.4845274782588762 l 9.646764211864786 -4.925706542494524" fill="red" stroke="none" /><path d="M 80.9802524753101 108.90220220490708 l -16.55347712065943 7.747863126527799 a39.27695236661748,39.27695236661748 0 0,0 -0.2805787156257425,-0.6131151300383838 l 16.68404030114023 -7.462559014274726" fill="red" stroke="none" /><line stroke="#e1ed5e" stroke-width="0.3" x1="15.003131293944662" x2="10.003315487706104" y1="100.72959589197737" y2="100.7725132973878" /><path d="M 14.003168132696942 100.73817937305945 a86.0,86.0 0 0,1 10.791469493833604,-42.45332614584628" fill="none" id="id22" stroke="none" /><text fill="#e1ed5e" style="font-size:6.75px; font-family:Arial;" text-anchor="middle"><textPath startOffset="22.145653131862435" xlink:href="#id22">October</textPath></text><line stroke="#e1ed5e" stroke-width="0.3" x1="26.387840678322718" x2="22.05771365940052" y1="57.49999999999999" y2="54.99999999999999" /><path d="M 25.521815274538284 56.99999999999999 a86.0,86.0 0 0,1 29.574782752854787,-30.34633250058573" fill="none" id="id23" stroke="none" /><text fill="#e1ed5e" style="font-size:6.75px; font-family:Arial;" text-anchor="middle"><textPath startOffset="21.40746469413373" xlink:href="#id23">November</textPath></text><line stroke="#e1ed5e" stroke-width="0.3" x1="56.869717070023135" x2="54.33264160355391" y1="26.7553504044142" y2="22.446841604673864" /><path d="M 56.362301976729285 25.89364864446614 a86.0,86.0 0 0,1 42.16139366436587,-11.88097634709845" fill="none" id="id24" stroke="none" /><text fill="#e1ed5e" style="font-size:6.75px; font-family:Arial;" text-anchor="middle"><textPath startOffset="22.145653131862474" xlink:href="#id24">December</textPath></text></svg>