<?xml version="1.0" encoding="utf-8" ?>
<svg baseProfile="full" height="200mm" version="1.1" viewBox="0,0,200,200" width="200mm" xmlns="http://www.w3.org/2000/svg" xmlns:ev="http://www.w3.org/2001/xml-events" xmlns:xlink="http://www.w3.org/1999/xlink"><defs /><rect fill="#1a1a1a" height="200" width="200" x="0" y="0" /><text alignment-baseline="middle" fill="#e1ed5e" style="dominant-baseline: central; font-size:9.0px; font-family:Arial;" text-anchor="middle" x="100.0" y="100.0">2024</text><line stroke="#e1ed5e" stroke-width="0.3" x1="100.0" x2="100.0" y1="15.0" y2="10.0" /><path d="M 100.0 14.0 a86.0,86.0 0 0,1 42.35913384403234,11.155469271406648" fill="none" id="id109" stroke="none" /><text fill="#e1ed5e" style="font-size:6.75px; font-family:Arial;" text-anchor="middle"><textPath startOffset="22.145653131862478" xlink:href="#id109">January</textPath></text><path d="M 101.08105385017728 79.02784411241856 l 1.0078501355080078 -19.552023379527203 a40.57798202392733,40.57798202392733 0 0,0 0.6953436195417937,0.0418301454611066 l -1.3433381071822639 19.531841256241403" fill="#ff760a" stroke="none" /><path d="M 101.44090949804482 79.04949213459386 l 1.395240723859289 -20.286493911666785 a41.334417422331256,41.334417422331256 0 0,0 0.7074700573566012,0.05476265679275306 l -1.7432797759911236 20.25955348787898" fill="#ff820c" stroke="none" /><path d="M 101.80034050326958 79.07731436759882 l 4.648175937980763 -54.018850177421434 a75.21846285206846,75.21846285206846 0 0,0 1.2855209123388358,0.12174016694954096 l -5.574796413704612 53.93109825496671" fill="#40ffc2" stroke="none" /><path d="M 102.51750503828377 79.15144685158666 l 2.6124297889296324 -21.634666255972107 a42.79182354483867,42.79182354483867 0 0,0 0.7285250456674107,0.09432215274118334 l -2.9834326564878344 21.586632507030526" fill="#ff9a0e" stroke="none" /><path d="M 102.87502721639298 79.19773525538626 l 2.481501015646954 -17.954905190873124 a39.12557496202257,39.12557496202257 0 0,0 0.66452906274372,0.0976628879082544 l -2.789355183998356 17.909661229665986" fill="#ff5d08" stroke="none" /><path d="M 103.23170211078529 79.25015418208739 l 4.635028012985742 -29.76020478811688 a51.118985270287865,51.118985270287865 0 0,0 0.8659130038923861,0.14248565527194937 l -5.145218519931199 29.676253134349263" fill="#e3ff1b" stroke="none" /><path d="M 103.94208987418118 79.37332000966035 l 3.445112345861178 -18.026283559455187 a39.35253928047804,39.35253928047804 0 0,0 0.6624409970919074,0.13250675216053034 l -3.754049828484042 17.964487410631797" fill="#ff6108" stroke="none" /><path d="M 104.29559338865022 79.4440306129975 l 5.911673092089884 -28.28949579539949 a49.900578733057664,49.900578733057664 0 0,0 0.8369932982018505,0.18241879369620953 l -6.396428806910869 28.18384554356956" fill="#f5ff19" stroke="none" /><path d="M 104.64783097203109 79.52079915486377 l 13.883795223072243 -61.174563484994565 a83.73027169856539,83.73027169856539 0 0,0 1.398964766554757,0.33015187572335014 l -14.931892143366884 60.92721546562498" fill="#4dd5ff" stroke="none" /><path d="M 104.9986988182912 79.60360301121754 l 4.390424935384624 -17.914431972552126 a39.4445846798578,39.4445846798578 0 0,0 0.6562728141935721,0.16682198303312964 l -4.697303042803591 17.83642475768373" fill="#ff6309" stroke="none" /><path d="M 105.3480935250658 79.69241777938227 l 4.16933482421308 -15.831643435396003 a37.37144730138155,37.37144730138155 0 0,0 0.6189754497814042,0.16870451129948605 l -4.440491674929177 15.757738429952374" fill="#ff3f05" stroke="none" /><path d="M 105.69591212413111 79.78721728523813 l 9.292578024200195 -32.976081156059315 a55.26038433448841,55.26038433448841 0 0,0 0.9108489880632189,0.26513486556981775 l -9.857287024645018 32.81170259618698" fill="#a8ff21" stroke="none" /><path d="M 106.38641147887787 79.99465700312896 l 5.956484894359293 -18.658604094247313 a40.58630182149231,40.58630182149231 0 0,0 0.6618993112774826,0.2175794506077647 l -6.275906943284518 18.55360372223753" fill="#ff760a" stroke="none" /><path d="M 106.72888874123014 80.10723608172694 l 4.1058324936070925 -12.138164208726193 a33.813777383096735,33.813777383096735 0 0,0 0.5482569535380545,0.1907122282871773 l -4.313595219190165 12.065893547870425" fill="#ff0000" stroke="none" /><path d="M 107.06938296918511 80.22567764915836 l 15.155754768774017 -42.393343460721944 a66.0210225604656,66.0210225604656 0 0,0 1.0639157263499683,0.3906845914840513 l -15.881259646778108 42.126928020229165" fill="#31ff43" stroke="none" /><path d="M 108.07796709384702 80.6158196554323 l 10.434182804489309 -25.038240299897677 a48.12536908712802,48.12536908712802 0 0,0 0.7598421135128055,0.32433141525363807 l -10.862459993172543 24.85543423498464" fill="#ffee16" stroke="none" /><path d="M 108.73861861582097 80.90454125486305 l 9.12044916659508 -19.929827408021442 a42.91758685425856,42.91758685425856 0 0,0 0.6672893562531119,0.3123251121412725 l -9.461227236719697 19.770326064309636" fill="#ff9c0e" stroke="none" /><path d="M 109.06512990194946 81.05736502329252 l 27.195389705848374 -56.82790493012246 a84.0,84.0 0 0,0 1.2953590029517317,0.6336249996111154 l -28.166908958062173 56.352686180414125" fill="#4dd2ff" stroke="none" /><path d="M 109.71004243097381 81.37971332152246 l 9.700062334292529 -18.601148527166107 a41.97841595113545,41.97841595113545 0 0,0 0.6360953072007234,0.33868492287372165 l -10.01794645727981 18.431893136569812" fill="#ff8d0d" stroke="none" /><path d="M 110.02825361518725 81.54914285379988 l 10.406548742410237 -19.146877572022238 a42.79218156785062,42.79218156785062 0 0,0 0.6424039971783004,0.3563306682393097 l -10.733696927744639 18.965413988349784" fill="#ff9a0e" stroke="none" /><line stroke="#e1ed5e" stroke-width="0.3" x1="143.13028292997686" x2="145.6673583964461" y1="26.7553504044142" y2="22.446841604673864" /><path d="M 143.63769802327073 25.89364864446614 a86.0,86.0 0 0,1 29.32050498858742,28.57503671076993" fill="none" id="id110" stroke="none" /><text fill="#e1ed5e" style="font-size:6.75px; font-family:Arial;" text-anchor="middle"><textPath startOffset="20.669276256404974" xlink:href="#id110">February</textPath></text><line stroke="#e1ed5e" stroke-width="0.3" x1="172.87174338648825" x2="177.1583165268699" y1="56.24261187166439" y2="53.66864786411523" /><path d="M 173.72905801456457 55.72781907015455 a86.0,86.0 0 0,1 12.242430191666344,42.057860355516425" fill="none" id="id111" stroke="none" /><text fill="#e1ed5e" style="font-size:6.75px; font-family:Arial;" text-anchor="middle"><textPath startOffset="22.145653131862474" xlink:href="#id111">March</textPath></text><line stroke="#e1ed5e" stroke-width="0.3" x1="184.99686870605535" x2="189.99668451229388" y1="99.2704041080226" y2="99.22748670261217" /><path d="M 185.99683186730306 99.26182062694052 a86.0,86.0 0 0,1 -10.086455211305974,41.156179273409016" fill="none" id="id112" stroke="none" /><text fill="#e1ed5e" style="font-size:6.75px; font-family:Arial;" text-anchor="middle"><textPath startOffset="21.40746469413373" xlink:href="#id112">April</textPath></text><line stroke="#e1ed5e" stroke-width="0.3" x1="174.33088141563837" x2="178.70328620479359" y1="141.23008692659167" y2="143.65538615756765" /><path d="M 175.20536237346943 141.71514677278685 a86.0,86.0 0 0,1 -30.301960400862466,31.631185727798858" fill="none" id="id113" stroke="none" /><text fill="#e1ed5e" style="font-size:6.75px; font-family:Arial;" text-anchor="middle"><textPath startOffset="22.145653131862474" xlink:href="#id113">May</textPath></text><line stroke="#e1ed5e" stroke-width="0.3" x1="143.1302829299769" x2="145.66735839644613" y1="173.24464959558577" y2="177.55315839532614" /><path d="M 143.63769802327073 174.10635135553383 a86.0,86.0 0 0,1 -40.68552437913181,11.842963189579606" fill="none" id="id114" stroke="none" /><text fill="#e1ed5e" style="font-size:6.75px; font-family:Arial;" text-anchor="middle"><textPath startOffset="21.407464694133747" xlink:href="#id114">June</textPath></text><line stroke="#e1ed5e" stroke-width="0.3" x1="101.45913802915013" x2="101.54496967792366" y1="184.9874750549273" y2="189.98673829345242" /><path d="M 101.47630435890484 185.9873277026323 a86.0,86.0 0 0,1 -42.54439059252881,-10.42667462771756" fill="none" id="id115" stroke="none" /><text fill="#e1ed5e" style="font-size:6.75px; font-family:Arial;" text-anchor="middle"><textPath startOffset="22.145653131862474" xlink:href="#id115">July</textPath></text><line stroke="#e1ed5e" stroke-width="0.3" x1="58.13341422392154" x2="55.67067388415222" y1="173.97424548756322" y2="178.32567169271397" /><path d="M 57.64086615596768 174.84453072859336 a86.0,86.0 0 0,1 -31.369924170532247,-30.572349798747897" fill="none" id="id116" stroke="none" /><text fill="#e1ed5e" style="font-size:6.75px; font-family:Arial;" text-anchor="middle"><textPath startOffset="22.145653131862474" xlink:href="#id116">August</textPath></text><line stroke="#e1ed5e" stroke-width="0.3" x1="26.387840678322732" x2="22.057713659400548" y1="142.50000000000003" y2="145.00000000000006" /><path d="M 25.521815274538298 143.00000000000003 a86.0,86.0 0 0,1 -11.493303480769221,-40.785679425670985" fill="none" id="id117" stroke="none" /><text fill="#e1ed5e" style="font-size:6.75px; font-family:Arial;" text-anchor="middle"><textPath startOffset="21.40746469413373" xlink:href="#id117">September</textPath></text><line stroke="#e1ed5e" stroke-width="0.3" x1="15.003131293944662" x2="10.003315487706104" y1="100.72959589197737" y2="100.7725132973878" /><path d="M 14.003168132696942 100.73817937305945 a86.0,86.0 0 0,1 10.791469493833604,-42.45332614584628" fill="none" id="id118" stroke="none" /><text fill="#e1ed5e" style="font-size:6.75px; font-family:Arial;" text-anchor="middle"><textPath startOffset="22.145653131862435" xlink:href="#id118">October</textPath></text><line stroke="#e1ed5e" stroke-width="0.3" x1="26.387840678322718" x2="22.05771365940052" y1="57.49999999999999" y2="54.99999999999999" /><path d="M 25.521815274538284 56.99999999999999 a86.0,86.0 0 0,1 29.574782752854787,-30.34633250058573" fill="none" id="id119" stroke="none" /><text fill="#e1ed5e" style="font-size:6.75px; font-family:Arial;" text-anchor="middle"><textPath startOffset="21.40746469413373" xlink:href="#id119">November</textPath></text><line stroke="#e1ed5e" stroke-width="0.3" x1="56.869717070023135" x2="54.33264160355391" y1="26.7553504044142" y2="22.446841604673864" /><path d="M 56.362301976729285 25.89364864446614 a86.0,86.0 0 0,1 42.16139366436587,-11.88097634709845" fill="none" id="id120" stroke="none" /><text fill="#e1ed5e" style="font-size:6.75px; font-family:Arial;" text-anchor="middle"><textPath startOffset="22.145653131862474" xlink:href="#id120">December</textPath></text></svg>
