<?xml version="1.0" encoding="utf-8" ?>
<svg baseProfile="full" height="200mm" version="1.1" viewBox="0,0,200,200" width="200mm" xmlns="http://www.w3.org/2000/svg" xmlns:ev="http://www.w3.org/2001/xml-events" xmlns:xlink="http://www.w3.org/1999/xlink"><defs /><rect fill="#1a1a1a" height="200" width="200" x="0" y="0" /><rect fill="#1a1a1a" height="200" width="180" x="10" y="0" /><text alignment-baseline="middle" fill="#e1ed5e" style="dominant-baseline: central; font-size:9.0px; font-family:Arial;" text-anchor="middle" x="100.0" y="100.0">2026</text><line stroke="#e1ed5e" stroke-width="0.3" x1="100.0" x2="100.0" y1="15.0" y2="10.0" /><path d="M 100.0 14.0 a86.0,86.0 0 0,1 42.46469731375804,11.215312516191453" fill="none" id="id133" stroke="none" /><text fill="#e1ed5e" style="font-size:6.75px; font-family:Arial;" text-anchor="middle"><textPath startOffset="22.20632615414155" xlink:href="#id133">January</textPath></text><path d="M 100.0 79.0 l 0.0 -17.315128752846178 a38.31512875284618,38.31512875284618 0 0,0 0.6595319573794033,0.005676799778834616 l -0.2980514781068749 17.312563329675903" fill="#ff730a" stroke="none" /><path d="M 100.36148047927253 79.00311137660856 l 0.2752660145968511 -15.989051087700522 a36.99142038919274,36.99142038919274 0 0,0 0.6365578121411312,0.016440410259128162 l -0.5504504619328501 15.981943885299035" fill="#ff5e08" stroke="none" /><path d="M 100.72285384407766 79.0124445844662 l 0.7184082276097761 -20.858480053010155 a41.870848102157225,41.870848102157225 0 0,0 0.7200971737013258,0.031008899064221416 l -1.0773462337004334 20.843023427421738" fill="#ffab0f" stroke="none" /><path d="M 101.08401301168833 79.027996857942 l 1.1158812282991706 -21.58854586957879 a42.617365789535455,42.617365789535455 0 0,0 0.7322839502547043,0.0441733676600887 l -1.4873272273934868 21.566139232538397" fill="#ffb610" stroke="none" /><path d="M 101.80526077348638 79.07773832637324 l 1.1658914030405545 -13.512222375683509 a34.56242811201615,34.56242811201615 0 0,0 0.5922928297268754,0.05624534099816424 l -1.3983093598576741 13.490151490170167" fill="#ff3605" stroke="none" /><path d="M 102.16513564639614 79.11191278185805 l 1.627274703407807 -15.699088410112216 a36.78319992488439,36.78319992488439 0 0,0 0.6292261983084307,0.07070089491753458 l -1.8972676052259632 15.668751561724081" fill="#ff5b08" stroke="none" /><path d="M 102.52436894288641 79.15227682838746 l 2.178265937754815 -17.989401031269487 a39.1207999812211,39.1207999812211 0 0,0 0.6678205048694426,0.08670226810887806 l -2.4876011711321038 17.949240439996473" fill="#ff800b" stroke="none" /><path d="M 102.88285421437855 79.19881850522331 l 1.9529457739122695 -14.091444267279122 a35.22613084199901,35.22613084199901 0 0,0 0.599902718503699,0.08841006652575042 l -2.1952174728446243 14.055739716592402" fill="#ff4106" stroke="none" /><path d="M 103.2404852339499 79.25152402106235 l 1.5976129989589414 -10.229342996305897 a31.353348512945708,31.353348512945708 0 0,0 0.5325154144912791,0.0878696061592008 l -1.7734576195890956 10.200327127207071" fill="#ff0000" stroke="none" /><path d="M 103.59715602781102 79.31037775812273 l 2.353700731063282 -13.537688835188858 a34.74077603812117,34.74077603812117 0 0,0 0.5882852121822534,0.10750536230186196 l -2.586381064348436 13.495167991536258" fill="#ff3905" stroke="none" /><path d="M 104.307194497241 79.44645832069477 l 3.1356246524901783 -14.96291658686332 a36.2879369028896,36.2879369028896 0 0,0 0.6102547115577692,0.13337804337389608 l -3.3927220882014755 14.906725045393554" fill="#ff5307" stroke="none" /><path d="M 104.66035177308747 79.52364482259891 l 3.6760123149939776 -16.151427502317055 a37.56447031759818,37.56447031759818 0 0,0 0.6292519461681148,0.14892360534300242 l -3.9534879481246157 16.085757984833183" fill="#ff6709" stroke="none" /><path d="M 105.01212808612495 79.60689891045804 l 4.97530275125119 -20.243267971985407 a41.84570784723363,41.84570784723363 0 0,0 0.6980085478842494,0.1779379206643266 l -5.323020187820465 20.154627055152215" fill="#ffab0f" stroke="none" /><path d="M 105.36241919743992 79.69619591428918 l 6.290876369814212 -23.819234684433937 a45.63597098659656,45.63597098659656 0 0,0 0.7577790195405577,0.20712963130873427 l -6.69995327857848 23.707418512298908" fill="#ffe315" stroke="none" /><path d="M 105.71112130821622 79.79150937346287 l 3.9663610798168465 -14.034751912488332 a35.58445341658647,35.58445341658647 0 0,0 0.588007306310501,0.1716554569340362 l -4.207358603850775 13.964398126635592" fill="#ff4706" stroke="none" /><path d="M 106.0581310904928 79.89281104454417 l 4.867722054120048 -16.15617187261456 a37.873547569305885,37.873547569305885 0 0,0 0.6225953622981341,0.19344340970496143 l -5.1451027891289 16.069988328027076" fill="#ff6c0a" stroke="none" /><path d="M 106.74666289553966 80.11325718540242 l 6.646922319224288 -19.592743363302223 a41.68954249900237,41.68954249900237 0 0,0 0.6775900522513558,0.23639786440105715 l -6.983194375538917 19.47542464572896" fill="#ffa80f" stroke="none" /><path d="M 107.08798089147638 80.2323363322302 l 7.276540050752222 -20.293536141061107 a42.55865590009624,42.55865590009624 0 0,0 0.6874594415559935,0.2531971140339573 l -7.624781818080792 20.165275759220826" fill="#ffb610" stroke="none" /><path d="M 107.4271985657038 80.35727306442388 l 7.71599822824901 -20.406515982048777 a42.81656533884181,42.81656533884181 0 0,0 0.6871382540991156,0.26659896725717563 l -8.066119647347792 20.270674310901054" fill="#ffb911" stroke="none" /><path d="M 107.76421540070413 80.48803036053334 l 11.758682876520021 -29.550321757684326 a52.803901316870494,52.803901316870494 0 0,0 0.8416341675914067,0.3433237091359632 l -12.265600913699815 29.343537162364782" fill="#b6ff1f" stroke="none" /><path d="M 108.09893153111575 80.62456947434976 l 6.13742016146262 -14.682820503948838 a36.91392925048708,36.91392925048708 0 0,0 0.5841475358912396,0.25010148945273547 l -6.389251455144175 14.574999486533311" fill="#ff5d08" stroke="none" /><path d="M 108.43124777332544 80.76684994638697 l 6.730471480166837 -15.3533820129396 a37.76381775075703,37.76381775075703 0 0,0 0.5931039223410135,0.2661084413900464 l -6.99375752097463 15.235253241033023" fill="#ff6b09" stroke="none" /><path d="M 109.08828744355905 81.06846463323043 l 6.308403441727156 -13.140843487465613 a35.5766155724044,35.5766155724044 0 0,0 0.5497920940842543,0.26978059284629435 l -6.533666802821843 13.030307734484486" fill="#ff4706" stroke="none" /><path d="M 109.41281617654863 81.2277094730956 l 9.114706470546434 -18.177760483504024 a41.33491702072722,41.33491702072722 0 0,0 0.6332893356099059,0.32439539479063767 l -9.426256293745094 18.01817256340089" fill="#ffa30f" stroke="none" /><path d="M 109.73455568895987 81.39251694778311 l 9.113935204670415 -17.421174656408795 a40.66115818877491,40.66115818877491 0 0,0 0.6173815096374669,0.3297838211726558 l -9.412461760836193 17.261712108734383" fill="#ff980e" stroke="none" /><path d="M 110.05341064243156 81.56283822128135 l 14.349136891209323 -26.31518473259334 a50.973099223022935,50.973099223022935 0 0,0 0.7667225785663767,0.4266802848592661 l -14.799983558847735 26.064289050173894" fill="#cfff1d" stroke="none" /><path d="M 110.36928655335952 81.73862282372117 l 8.265149689455582 -14.55577634207165 a37.73867749583343,37.73867749583343 0 0,0 0.5621324587206609,0.3256234032306054 l -8.51447888064157 14.411348781450997" fill="#ff6a09" stroke="none" /><line stroke="#e1ed5e" stroke-width="0.3" x1="143.23703022742887" x2="145.7803849466894" y1="26.81831364943548" y2="22.513508569990506" /><path d="M 143.74570117128098 25.957352633546492 a86.0,86.0 0 0,1 28.547481713284135,27.462654790039103" fill="none" id="id134" stroke="none" /><text fill="#e1ed5e" style="font-size:6.75px; font-family:Arial;" text-anchor="middle"><textPath startOffset="19.985693538727396" xlink:href="#id134">February</textPath></text><path d="M 110.68208982089419 81.91981866633111 l 8.52816968846817 -14.434521427652225 a37.76559235698693,37.76559235698693 0 0,0 0.556840951689734,0.3354904428571306 l -8.77537270637554 14.28558437533648" fill="#ff6b09" stroke="none" /><path d="M 111.2981086023043 82.29822771554956 l 8.397082321981626 -13.156471082884329 a36.60780967582921,36.60780967582921 0 0,0 0.5282558783614063,0.3435923176794846 l -8.622305226127313 13.009979841045315" fill="#ff5808" stroke="none" /><path d="M 111.60114157652 82.49532879139004 l 9.087892225338042 -13.712492372801858 a37.45059975117955,37.45059975117955 0 0,0 0.5342868512910917,0.36075286699685777 l -9.322583771035676 13.55402759350633" fill="#ff6609" stroke="none" /><path d="M 111.90073688211348 82.69761687909136 l 7.745354118294832 -11.260906420279172 a34.66742564728528,34.66742564728528 0 0,0 0.4887592954742983,0.34240712102863086 l -7.938044553352781 11.125914456486605" fill="#ff3805" stroke="none" /><path d="M 112.77801427241765 83.33499621200491 l 9.92342490055786 -12.942066743081845 a37.30863125278749,37.30863125278749 0 0,0 0.5062735866002797,0.3951545647200837 l -10.14473104231757 12.769333789138537" fill="#ff6309" stroke="none" /><path d="M 113.34407831869373 83.78471172551755 l 9.13202176716971 -11.0969346812108 a35.37135278514589,35.37135278514589 0 0,0 0.4668049443792055,0.3909357163260602 l -9.321684248508035 10.938097807490921" fill="#ff4406" stroke="none" /><path d="M 113.6212207817346 84.01681056812373 l 9.59122461420373 -11.254377441562228 a35.78690641064764,35.78690641064764 0 0,0 0.4654107651426543,0.40359962929787346 l -9.783529177993149 11.087612818844683" fill="#ff4b06" stroke="none" /><path d="M 113.89432698308785 84.25364557470407 l 17.319556953661035 -19.628146265263496 a47.17692072956034,47.17692072956034 0 0,0 0.6042892054907952,0.5425368152095762 l -17.65485714674782 19.327110441284624" fill="#fffa17" stroke="none" /><path d="M 114.16331599549186 84.49514656593476 l 13.937572666439975 -15.25772788579805 a41.66528954719372,41.66528954719372 0 0,0 0.5253638186429465,0.48826841321126635 l -14.198144368877768 15.015554886512144" fill="#ffa80f" stroke="none" /><path d="M 114.42810811169701 84.74124197986012 l 9.404873589242895 -9.94632762641413 a34.688720922044084,34.688720922044084 0 0,0 0.43033300275452235,0.41398000769745924 l -9.574689835609835 9.782964531954368" fill="#ff3805" stroke="none" /><path d="M 114.68862486808459 84.99185889309783 l 22.731664991504445 -23.226138515430318 a53.498955423581606,53.498955423581606 0 0,0 0.6525960527602792,0.6497935979153838 l -23.128096844432047 22.831409066864815" fill="#adff20" stroke="none" /><path d="M 115.19652480421416 85.50635884689758 l 13.400451885991155 -12.780641852478706 a39.51801600901388,39.51801600901388 0 0,0 0.4652449965867914,0.49629092408950454 l -13.61846420454841 12.548081511511146" fill="#ff870c" stroke="none" /><path d="M 115.4437574822437 85.77008943001954 l 18.25474538199529 -16.819960722785062 a45.822304640736135,45.822304640736135 0 0,0 0.5294796963192364,0.584664705208136 l -18.541568718930563 16.50324323030738" fill="#ffe615" stroke="none" /><path d="M 115.68641384162765 86.03803664274999 l 22.632312673648677 -20.144280485623092 a51.29873946620971,51.29873946620971 0 0,0 0.5814055895789554,0.6646470950073123 l -22.97571012680548 19.75171783441283" fill="#cbff1d" stroke="none" /><path d="M 116.15771136456269 86.58626213691792 l 10.793894320625178 -8.960827785067636 a35.02870589892256,35.02870589892256 0 0,0 0.3811481961197999,0.46724262097287184 l -10.946541008821388 8.773700994486662" fill="#ff3e05" stroke="none" /><path d="M 116.38621287248628 86.86637796730983 l 25.976153468641964 -20.82000180121747 a54.29013403441234,54.29013403441234 0 0,0 0.5781793781334796,0.7342290951943868 l -26.33068692736941 20.369780312070045" fill="#a3ff22" stroke="none" /><path d="M 116.82858285166822 87.43820079747576 l 14.76021685529876 -11.017854679522037 a39.41893382784441,39.41893382784441 0 0,0 0.40120475875531914,0.5472428400592787 l -14.947684226567704 10.762149395791264" fill="#ff850c" stroke="none" /><path d="M 117.04232023915458 87.72973835380427 l 12.178732235597254 -8.768537907556052 a36.00695758315533,36.00695758315533 0 0,0 0.35781893556482847,0.5061095086773636 l -12.327863790965965 8.557601898546896" fill="#ff4e07" stroke="none" /><path d="M 117.2510076193507 88.02491185347247 l 18.62822122732731 -12.931105019050243 a43.67650994108119,43.67650994108119 0 0,0 0.4234032785228801,0.6212920660118818 l -18.848048971518924 12.608534929767954" fill="#ffc612" stroke="none" /><path d="M 117.45458315368197 88.32363383020206 l 16.389960518848817 -10.964179370060776 a40.719128658951675,40.719128658951675 0 0,0 0.38470533958236,0.5859326253001998 l -16.576262493789102 10.680428680782903" fill="#ff990e" stroke="none" /><path d="M 117.65298651832404 88.62581576622439 l 10.96075553147084 -7.06224143019175 a34.03891927419544,34.03891927419544 0 0,0 0.31311332654220014,0.49527008826174584 l -11.080696454258996 6.872523694215798" fill="#ff2e04" stroke="none" /><line stroke="#e1ed5e" stroke-width="0.3" x1="172.23445277983987" x2="176.4835382374775" y1="55.19839476539836" y2="52.563006222186495" /><path d="M 173.08426987136738 54.67131705675599 a86.0,86.0 0 0,1 12.851231095245387,41.99856678651699" fill="none" id="id135" stroke="none" /><text fill="#e1ed5e" style="font-size:6.75px; font-family:Arial;" text-anchor="middle"><textPath startOffset="22.20632615414155" xlink:href="#id135">March</textPath></text><path d="M 117.84615892207809 88.93136811851018 l 31.067799588986187 -19.26902245574904 a57.55821929062699,57.55821929062699 0 0,0 0.5149657182612342,0.8464682397028311 l -31.394881105533646 18.73138644283913" fill="#79ff26" stroke="none" /><path d="M 118.21658344932153 89.55222093294921 l 21.09584785620545 -12.099127053484912 a45.319203774559284,45.319203774559284 0 0,0 0.3822833643511574,0.6800394488566172 l -21.30098886184904 11.734204094693501" fill="#ffdf14" stroke="none" /><path d="M 118.56541770881063 90.18545643968196 l 11.091922995343962 -5.863706549076661 a33.54646604539799,33.54646604539799 0 0,0 0.26548124797902867,0.5128252701114234 l -11.191213676483107 5.671908556704893" fill="#ff2503" stroke="none" /><path d="M 118.89224826269711 90.83032412892265 l 10.512890244724248 -5.1026111171042805 a32.68578202389615,32.68578202389615 0 0,0 0.24131727050854845,0.5082757152677798 l -10.599165709074553 4.92089298619596" fill="#ff1702" stroke="none" /><path d="M 119.04729006885535 91.15688171328212 l 28.318094969625662 -13.147290904146939 a52.2212389380531,52.2212389380531 0 0,0 0.3715110525070752,0.8185753585431891 l -28.540208339096083 12.657893536761687" fill="#beff1f" stroke="none" /><path d="M 119.34039704204932 91.81776055985345 l 15.070173935138314 -6.375658745467585 a37.36334827820943,37.36334827820943 0 0,0 0.24549198893861132,0.594478323464741 l -15.177687610963122 6.11530585154954" fill="#ff6409" stroke="none" /><path d="M 119.47837535516314 92.15188598940014 l 23.314519324314528 -9.39375088646973 a46.135818408018594,46.135818408018594 0 0,0 0.2904501321441256,0.7391639053964402 l -23.472763006340355 8.991037976177505" fill="#ffeb16" stroke="none" /><path d="M 119.61058180528143 92.48833698450437 l 28.08846082337226 -10.759040931274173 a51.07854040984953,51.07854040984953 0 0,0 0.30743300637329973,0.8237676110061083 l -28.269498418247185 10.273950183238732" fill="#ceff1d" stroke="none" /><path d="M 119.7369772167798 92.82701384747503 l 18.287409030214683 -6.6461713107602165 a40.457670007746295,40.457670007746295 0 0,0 0.23224035604986593,0.6565747603756525 l -18.399102467074357 6.33039892395795" fill="#ff950d" stroke="none" /><path d="M 119.85752413597 93.16781622104841 l 13.976851745664662 -4.808878444446449 a35.78099105654797,35.78099105654797 0 0,0 0.19536882219389917,0.5841279113467035 l -14.05755786163033 4.567577430177432" fill="#ff4a06" stroke="none" /><path d="M 119.97218684219823 93.5106431181261 l 29.316231722643586 -9.525421106014848 a51.824910213375276,51.824910213375276 0 0,0 0.2683654661861736,0.8507918652869951 l -29.475852672597966 9.019379074301433" fill="#c3ff1e" stroke="none" /><path d="M 120.18372546131832 94.20196356495316 l 15.63946160859917 -4.492637813814755 a37.27195605736955,37.27195605736955 0 0,0 0.17182944920107385,0.6181619521070163 l -15.714477828366608 4.222764558288787" fill="#ff6309" stroke="none" /><path d="M 120.37134235888165 94.90015583598534 l 13.836407388423762 -3.4638621367048628 a35.26339757282693,35.26339757282693 0 0,0 0.14234187931133122,0.5900989851884398 l -13.893982067995912 3.225177919857017" fill="#ff4206" stroke="none" /><path d="M 120.45610955862082 95.25157060432595 l 10.246541674406938 -2.378506018034521 a31.51897842773644,31.51897842773644 0 0,0 0.11812954848688334,0.5295516029899606 l -10.285965609895857 2.201776245494597" fill="#ff0300" stroke="none" /><path d="M 120.6074358757038 95.95851677861258 l 61.822307627111385 -12.124449664162288 a84.0,84.0 0 0,0 0.26605710436056285,1.4212876901497489 l -62.02185045538181 11.058483896549978" fill="#4dd2ff" stroke="none" /><path d="M 120.78858239683441 97.02765380044208 l 15.192876325509793 -2.1722735751986115 a36.34738621159128,36.34738621159128 0 0,0 0.08322513108777842,0.6201238949288039 l -15.228017455655408 1.9104313382051432" fill="#ff5407" stroke="none" /><path d="M 120.94382443527127 98.46500227214037 l 38.37054551592807 -2.812222780310055 a59.47346306424732,59.47346306424732 0 0,0 0.06604219093233195,1.0216434627575772 l -38.41326829786482 2.1513202532994424" fill="#61ff29" stroke="none" /><path d="M 120.98425023603335 99.18683210126433 l 17.45050663392769 -0.6762305849277838 a38.46360414074787,38.46360414074787 0 0,0 0.01994302258197993,0.6618118292228392 l -17.459561350965316 0.37574860827994555" fill="#ff760a" stroke="none" /><line stroke="#e1ed5e" stroke-width="0.3" x1="184.98032266829074" x2="189.97916517819016" y1="98.17113171792111" y2="98.06355123074" /><path d="M 185.9800911702706 98.14961562048488 a86.0,86.0 0 0,1 -9.607161424134198,41.387399972396054" fill="none" id="id136" stroke="none" /><text fill="#e1ed5e" style="font-size:6.75px; font-family:Arial;" text-anchor="middle"><textPath startOffset="21.466115282336823" xlink:href="#id136">April</textPath></text><path d="M 120.99980553446 99.90962569577887 l 25.1991751114198 -0.10844661937006571 a46.199408464590036,46.199408464590036 0 0,0 -0.0034225021415104835,0.7952689653593218 l -25.197308311988788 -0.32533182419294077" fill="#ffec16" stroke="none" /><path d="M 120.9904718944345 100.63252640178507 l 31.198647703962553 0.9401393390293348 a52.21280955846107,52.21280955846107 0 0,0 -0.03480323674594124,0.898116895706701 l -31.177842334365412 -1.477033481750042" fill="#beff1f" stroke="none" /><path d="M 120.9764740272857 100.99374915477107 l 14.246679919919043 0.6749287849949202 a35.26265815356447,35.26265815356447 0 0,0 -0.033942238032816964,0.6060614611817484 l -14.232951330998695 -0.9200619625120918" fill="#ff4206" stroke="none" /><path d="M 120.92983693683757 101.71520430193887 l 14.289437039222571 1.1710222089127496 a35.33733949907279,35.33733949907279 0 0,0 -0.05489976036434772,0.6058142808973304 l -14.267162682581148 -1.4168178783586505" fill="#ff4306" stroke="none" /><path d="M 120.89721153311464 102.0752229133903 l 12.744056609711475 1.265563984175958 a33.80674162578343,33.80674162578343 0 0,0 -0.06249047160292859,0.5785841564474805 l -12.720383836607494 -1.48474446250823" fill="#ff2a04" stroke="none" /><path d="M 120.81339534386255 102.79330883721812 l 17.988507386344807 2.414188354206092 a39.149785216309475,39.149785216309475 0 0,0 -0.0953874244327955,0.6671394243167036 l -17.94428591089541 -2.7234732505032047" fill="#ff810b" stroke="none" /><path d="M 120.70491114924044 103.5080841355445 l 61.85461588130096 10.48018004614094 a83.73617520715476,83.73617520715476 0 0,0 -0.2530170581810948,1.4190540305497308 l -61.66505238078067 -11.54335282742389" fill="#4dd5ff" stroke="none" /><path d="M 120.5718875245553 104.21870165774334 l 14.888191926705108 3.0531393819366874 a36.19802352057464,36.19802352057464 0 0,0 -0.1304265831409285,0.6093095751891241 l -14.833431304839737 -3.3089627765419807" fill="#ff5107" stroke="none" /><path d="M 120.41448212921028 104.9243191809786 l 20.84614724275205 5.028444124482875 a42.444045914415156,42.444045914415156 0 0,0 -0.1774336669917428,0.708759299310671 l -20.756502261465247 -5.3865312631909426" fill="#ffb410" stroke="none" /><path d="M 120.32669344350535 105.2749913415812 l 18.180512201072375 4.718034672619626 a39.78272810497406,39.78272810497406 0 0,0 -0.17771877389998383,0.6613576706884945 l -18.096605350830615 -5.03028327648367" fill="#ff8b0c" stroke="none" /><path d="M 120.13307415673323 105.97154293290107 l 36.0308349645354 10.686876540761125 a58.582314969132185,58.582314969132185 0 0,0 -0.29506859658797174,0.9643012462042316 l -35.8415395954413 -11.305504759517413" fill="#6cff28" stroke="none" /><path d="M 119.9155931802556 106.66101706037122 l 24.48157986112123 8.188167916657362 a46.81460529095561,46.81460529095561 0 0,0 -0.26218222990428197,0.7620242848832711 l -24.337006800273716 -8.608364904629934" fill="#fff517" stroke="none" /><path d="M 119.79798401119884 107.00284435728193 l 14.605550139760966 5.16620249432305 a36.49231238703317,36.49231238703317 0 0,0 -0.21456739236271613,0.5903973107540461 l -14.514458486393023 -5.4168476020832275" fill="#ff5608" stroke="none" /><path d="M 119.54520255179757 107.68017299344265 l 14.11171790822856 5.545116991375985 a36.162087744419146,36.162087744419146 0 0,0 -0.23263826272694355,0.5773890895632088 l -14.014177031244223 -5.787205448782007" fill="#ff5107" stroke="none" /><path d="M 119.41010516605496 108.01547362559984 l 34.70636700579574 14.332120665778179 a58.54918898617403,58.54918898617403 0 0,0 -0.3926950390804136,0.9282150721468297 l -34.45452098552302 -14.927410263591172" fill="#6dff28" stroke="none" /><path d="M 119.12269723197855 108.67885076344098 l 12.310957355091276 5.58733741081506 a34.51954179479355,34.51954179479355 0 0,0 -0.25022621315361443,0.5389650019639287 l -12.21295652509783 -5.79842248005782" fill="#ff3605" stroke="none" /><path d="M 118.97047184881838 109.00673069616215 l 19.50132087797207 9.258765241428579 a42.587641135184626,42.587641135184626 0 0,0 -0.3201104981738155,0.659522439835694 l -19.33905712318354 -9.593076637229549" fill="#ffb610" stroke="none" /><path d="M 118.81262510543309 109.33194174019688 l 13.871998132367068 6.881159735330261 a36.48491819440858,36.48491819440858 0 0,0 -0.2839244697175907,0.5602099146742279 l -13.751494992863208 -7.1189238617071835" fill="#ff5608" stroke="none" /><path d="M 118.64920377521936 109.65438752849418 l 17.737340404317692 9.182330787529104 a40.97319311753245,40.97319311753245 0 0,0 -0.32963420034400864,0.6235436811590245 l -17.57665369574879 -9.486289483774263" fill="#ff9d0e" stroke="none" /><line stroke="#e1ed5e" stroke-width="0.3" x1="174.80103733775053" x2="179.2010983576182" y1="140.37084112569926" y2="142.7455964860345" /><path d="M 175.68104954172406 140.8457921977663 a86.0,86.0 0 0,1 -30.038265399797805,32.042727171017184" fill="none" id="id137" stroke="none" /><text fill="#e1ed5e" style="font-size:6.75px; font-family:Arial;" text-anchor="middle"><textPath startOffset="22.206326154141568" xlink:href="#id137">May</textPath></text><path d="M 118.12598468904814 110.60418214915192 l 20.93285092212205 12.246273396299657 a45.25191662167555,45.25191662167555 0 0,0 -0.3991200176020753,0.668948106841598 l -20.718950028821748 -12.604783597027359" fill="#ffde14" stroke="none" /><path d="M 117.94076556474637 110.91462005526583 l 13.901113783644593 8.457017887332526 a37.27151240581207,37.27151240581207 0 0,0 -0.33816862125530445,0.5452354926966756 l -13.753480522721325 -8.695049711394477" fill="#ff6309" stroke="none" /><path d="M 117.55443506779139 111.5257021239791 l 18.540509646257256 12.173128362393266 a43.179620196708996,43.179620196708996 0 0,0 -0.4132842651944294,0.6178039013202119 l -18.328222275652102 -12.490469177919284" fill="#ffbf11" stroke="none" /><path d="M 117.35343817320211 111.8261652097733 l 15.149562523605251 10.32424972341296 a39.33301330954672,39.33301330954672 0 0,0 -0.38609865153378975,0.5562039041325788 l -14.969602964909326 -10.583494889732558" fill="#ff840c" stroke="none" /><path d="M 117.14729908036423 112.12312394758627 l 12.99565706176118 9.187917035894438 a36.91555597286449,36.91555597286449 0 0,0 -0.371300542721833,0.5157039789774388 l -12.835576726663746 -9.410254620323009" fill="#ff5d08" stroke="none" /><path d="M 116.93607887273984 112.41649034213515 l 8.979489061256187 6.583208548104657 a32.13417525410202,32.13417525410202 0 0,0 -0.33088825489261614,0.44327889041446855 l -8.864839539668479 -6.73680031802844" fill="#ff0d01" stroke="none" /><path d="M 116.498646956653 112.99209946851258 l 19.703104707615147 15.515496323571535 a46.07873524095679,46.07873524095679 0 0,0 -0.49607507967367115,0.6189299369233765 l -19.43311171588662 -15.852354094073162" fill="#ffea16" stroke="none" /><path d="M 116.0416608686014 113.55231037782055 l 13.100758744618934 11.067778464232173 a38.15009037346541,38.15009037346541 0 0,0 -0.42811212176470714,0.49799111621067643 l -12.908304113283448 -11.291646679604376" fill="#ff710a" stroke="none" /><path d="M 115.80600337817218 113.82643327865902 l 13.924539489279637 12.180607050258754 a39.500269946714866,39.500269946714866 0 0,0 -0.45207334848545816,0.5079091994200753 l -13.71280729114584 -12.418490419419696" fill="#ff860c" stroke="none" /><path d="M 115.32070863581623 114.36230785411682 l 27.53196183614987 25.8096750690875 a58.73788878195347,58.73788878195347 0 0,0 -0.6978437350918288,0.731686366301296 l -27.083611549679077 -26.279768551971305" fill="#6aff28" stroke="none" /><path d="M 114.81725581225074 114.88116024355365 l 16.049215627442685 16.118433302464638 a43.746015351752305,43.746015351752305 0 0,0 -0.5381802452140212,0.5267226418684836 l -15.769385429852868 -16.392306047255694" fill="#ffc712" stroke="none" /><path d="M 114.55890576462653 115.13401014063108 l 10.472016105523712 10.885680592762137 a36.10500457735734,36.10500457735734 0 0,0 -0.4515948048394113,0.42701107510216785 l -10.283085466293493 -11.064326304610226" fill="#ff5007" stroke="none" /><path d="M 114.29624159901734 115.38237550388516 l 11.960136187331244 12.8687882501776 a38.568453792164505,38.568453792164505 0 0,0 -0.4901875092140546,0.44777466743337335 l -11.736849128650325 -13.072755684197555" fill="#ff780b" stroke="none" /><path d="M 113.75828350139079 115.86535959552629 l 10.944263839113654 12.620373849564945 a37.70481209361283,37.70481209361283 0 0,0 -0.49399502410134055,0.42099327653233704 l -10.725403338435267 -12.80689151632023" fill="#ff6a09" stroke="none" /><path d="M 113.48314897796784 116.09983520530334 l 24.12952266217436 28.812359714962586 a58.58172343372221,58.58172343372221 0 0,0 -0.7786623300802541,0.6407860865945146 l -23.629990203549415 -29.22344092041428" fill="#6cff28" stroke="none" /><path d="M 113.20401910651253 116.32954008644616 l 10.530422974666397 13.02307749670215 a37.74784629468792,37.74784629468792 0 0,0 -0.5087735742746913,0.4042004976677419 l -10.304691907674354 -13.202411908375018" fill="#ff6a09" stroke="none" /><path d="M 112.63410532772338 116.77436683061366 l 14.920528144901752 19.810062202020415 a45.800417830567355,45.800417830567355 0 0,0 -0.6338233229844022,0.46888734176827007 l -14.577319851498785 -20.063959492528454" fill="#ffe615" stroke="none" /><path d="M 112.34349029814194 116.9893568818739 l 9.62248099343428 13.244208869440435 a37.37074247083402,37.37074247083402 0 0,0 -0.5236756308173097,0.3736286581377877 l -9.393078034768084 -13.407881789422442" fill="#ff6409" stroke="none" /><path d="M 112.04921762599082 117.19931262002967 l 8.486353266208628 12.113603335928598 a35.790455623107434,35.790455623107434 0 0,0 -0.5076162287406077,0.34914307081968654 l -8.276580152845137 -12.257887196113378" fill="#ff4b06" stroke="none" /><path d="M 111.1453310114006 117.79835938074945 l 17.812724882259104 28.44574815055443 a54.56268397455459,54.56268397455459 0 0,0 -0.8003067415087096,0.4916137661325789 l -17.320438940818086 -28.748150383515387" fill="#9fff22" stroke="none" /><line stroke="#e1ed5e" stroke-width="0.3" x1="143.8653032363475" x2="146.44561519142675" y1="172.8068346515853" y2="177.08958963109032" /><path d="M 144.38136562736335 173.6633856474863 a86.0,86.0 0 0,1 -40.68145358897372,12.25698825130547" fill="none" id="id138" stroke="none" /><text fill="#e1ed5e" style="font-size:6.75px; font-family:Arial;" text-anchor="middle"><textPath startOffset="21.466115282336833" xlink:href="#id138">June</textPath></text><path d="M 110.5260780823613 118.17145234162733 l 7.555619391106452 13.04346942922988 a36.07380108448159,36.07380108448159 0 0,0 -0.5399925644164845,0.30662187101591726 l -7.329978059768769 -13.171594466040425" fill="#ff4f07" stroke="none" /><path d="M 110.21172684928248 118.3499491758327 l 11.74774066298445 21.11008718488925 a45.158749794605754,45.158749794605754 0 0,0 -0.6824931918732958,0.3721497050856224 l -11.382624659242504 -21.30917754173464" fill="#ffdc14" stroke="none" /><path d="M 109.57404056367764 118.69057910512821 l 11.391492408433884 22.238634625495614 a45.986455717001945,45.986455717001945 0 0,0 -0.7076354030699503,0.3548230813692663 l -11.007003097681173 -22.431425547774182" fill="#ffe915" stroke="none" /><line stroke="#e1ed5e" stroke-width="0.3" x1="102.19456741930631" x2="102.32365962044197" y1="184.97166512339345" y2="189.96999836594603" /><path d="M 102.22038585953345 185.97133177190398 a86.0,86.0 0 0,1 -42.740103519485714,-10.115201625700543" fill="none" id="id139" stroke="none" /><text fill="#e1ed5e" style="font-size:6.75px; font-family:Arial;" text-anchor="middle"><textPath startOffset="22.20632615414155" xlink:href="#id139">July</textPath></text><line stroke="#e1ed5e" stroke-width="0.3" x1="58.666819895761336" x2="56.23545636021788" y1="174.27360380694188" y2="178.64263932499728" /><path d="M 58.180547188652646 175.14741091055294 a86.0,86.0 0 0,1 -31.652253787137756,-30.449443065178592" fill="none" id="id140" stroke="none" /><text fill="#e1ed5e" style="font-size:6.75px; font-family:Arial;" text-anchor="middle"><textPath startOffset="22.20632615414155" xlink:href="#id140">August</textPath></text><line stroke="#e1ed5e" stroke-width="0.3" x1="26.63291911575756" x2="22.317208475507996" y1="142.92168965132927" y2="145.44649492493687" /><path d="M 25.769776987707644 143.4266507060508 a86.0,86.0 0 0,1 -11.730757126820373,-40.83630448921669" fill="none" id="id141" stroke="none" /><text fill="#e1ed5e" style="font-size:6.75px; font-family:Arial;" text-anchor="middle"><textPath startOffset="21.46611528233685" xlink:href="#id141">September</textPath></text><line stroke="#e1ed5e" stroke-width="0.3" x1="15.007084014347285" x2="10.007500721073583" y1="101.09737516637583" y2="101.16192664675087" /><path d="M 14.007167355692545 101.11028546245083 a86.0,86.0 0 0,1 10.666146001902534,-42.60595125391555" fill="none" id="id142" stroke="none" /><text fill="#e1ed5e" style="font-size:6.75px; font-family:Arial;" text-anchor="middle"><textPath startOffset="22.20632615414155" xlink:href="#id142">October</textPath></text><line stroke="#e1ed5e" stroke-width="0.3" x1="26.266209847984243" x2="21.928928074336255" y1="57.711370442889674" y2="55.22380399835377" /><path d="M 25.398753493254645 57.213857153982495 a86.0,86.0 0 0,1 29.58750427330803,-30.492523968695096" fill="none" id="id143" stroke="none" /><text fill="#e1ed5e" style="font-size:6.75px; font-family:Arial;" text-anchor="middle"><textPath startOffset="21.46611528233685" xlink:href="#id143">November</textPath></text><line stroke="#e1ed5e" stroke-width="0.3" x1="56.762969772571076" x2="54.21961505331055" y1="26.818313649435495" y2="22.513508569990535" /><path d="M 56.25429882871897 25.957352633546506 a86.0,86.0 0 0,1 42.265352541879196,-11.944610805530505" fill="none" id="id144" stroke="none" /><text fill="#e1ed5e" style="font-size:6.75px; font-family:Arial;" text-anchor="middle"><textPath startOffset="22.20632615414155" xlink:href="#id144">December</textPath></text></svg>