<?xml version="1.0" encoding="utf-8" ?>
<svg baseProfile="full" height="200mm" version="1.1" viewBox="0,0,200,200" width="200mm" xmlns="http://www.w3.org/2000/svg" xmlns:ev="http://www.w3.org/2001/xml-events" xmlns:xlink="http://www.w3.org/1999/xlink"><defs /><rect fill="#1a1a1a" height="200" width="200" x="0" y="0" /><text alignment-baseline="middle" fill="#e1ed5e" style="dominant-baseline: central; font-size:9.0px; font-family:Arial;" text-anchor="middle" x="100.0" y="100.0">2023</text><line stroke="#e1ed5e" stroke-width="0.3" x1="100.0" x2="100.0" y1="15.0" y2="10.0" /><path d="M 100.0 14.0 a86.0,86.0 0 0,1 42.46469731375804,11.215312516191453" fill="none" id="id97" stroke="none" /><text fill="#e1ed5e" style="font-size:6.75px; font-family:Arial;" text-anchor="middle"><textPath startOffset="22.20632615414155" xlink:href="#id97">January</textPath></text><path d="M 101.44485096284872 79.0497635885617 l 0.9483893719678353 -13.751578580566738 a34.784243028123214,34.784243028123214 0 0,0 0.5969801163304853,0.04633714660402275 l -1.184959677660662 13.73321617177425" fill="#ffb010" stroke="none" /><path d="M 102.52436894288641 79.15227682838746 l 1.6464093399439488 -13.597016491203643 a34.69633239873794,34.69633239873794 0 0,0 0.5922916257020755,0.07689645189960737 l -1.8802156941538704 13.5666617161399" fill="#ffaf10" stroke="none" /><path d="M 103.2404852339499 79.25152402106235 l 2.057897784718203 -13.176496626490945 a34.336229101221804,34.336229101221804 0 0,0 0.5831776234157255,0.09622930472229123 l -2.2844046142728036 13.139121058829028" fill="#ffaa0f" stroke="none" /><path d="M 104.66035177308747 79.52364482259891 l 6.515553523251267 -28.62762182243443 a50.35972017786743,50.35972017786743 0 0,0 0.843588413798534,0.19965012229759263 l -7.0073656240123245 28.51122578799597" fill="#94ff23" stroke="none" /><path d="M 106.0581310904928 79.89281104454417 l 3.8686536168029697 -12.840222193002658 a34.41036117233539,34.41036117233539 0 0,0 0.5656647622379684,0.1757547951423069 l -4.089103751751656 12.77172726297783" fill="#ffab0f" stroke="none" /><path d="M 109.73455568895987 81.39251694778311 l 5.009023412276654 -9.574686429479396 a31.80578251528285,31.80578251528285 0 0,0 0.48292530019243657,0.25796197060053416 l -5.1730937589974015 9.487045732377107" fill="#ff890c" stroke="none" /><line stroke="#e1ed5e" stroke-width="0.3" x1="143.23703022742887" x2="145.7803849466894" y1="26.81831364943548" y2="22.513508569990506" /><path d="M 143.74570117128098 25.957352633546492 a86.0,86.0 0 0,1 28.547481713284135,27.462654790039103" fill="none" id="id98" stroke="none" /><text fill="#e1ed5e" style="font-size:6.75px; font-family:Arial;" text-anchor="middle"><textPath startOffset="19.985693538727396" xlink:href="#id98">February</textPath></text><path d="M 110.99172775467656 82.1063720568725 l 7.038513751747681 -11.458120975819739 a34.44727526787719,34.44727526787719 0 0,0 0.5025707330970565,0.3147097469594491 l -7.234703637217001 11.335266887537346" fill="#ffac0f" stroke="none" /><path d="M 111.60114157652 82.49532879139004 l 12.111997972256672 -18.275489596024926 a42.9247352288315,42.9247352288315 0 0,0 0.6123832937333358,0.41348393354886814 l -12.42478596039655 18.064293750177388" fill="#e9ff1a" stroke="none" /><path d="M 112.48926042617603 83.11751280151076 l 7.928522369220779 -10.717462270285022 a34.331371440111376,34.331371440111376 0 0,0 0.4720626452419887,0.35554779751128435 l -8.111831168221151 10.579397883267891" fill="#ffaa0f" stroke="none" /><path d="M 113.06298171725822 83.55741782278167 l 8.324147628720283 -10.477736584420326 a34.38186824315759,34.38186824315759 0 0,0 0.4602203006740499,0.3721328103017986 l -8.503271327958824 10.332897676854397" fill="#ffab0f" stroke="none" /><path d="M 114.16331599549186 84.49514656593476 l 9.174620824463439 -10.043633231208466 a34.60324357481381,34.60324357481381 0 0,0 0.43631743303511045,0.4055095024144686 l -9.346146141293397 9.884219142719356" fill="#ffae10" stroke="none" /><path d="M 114.68862486808459 84.99185889309783 l 9.322194873182596 -9.524977139742878 a34.32773449488758,34.32773449488758 0 0,0 0.41873983995007036,0.4169416380022418 l -9.484770513299988 9.363099651090517" fill="#ffaa0f" stroke="none" /><path d="M 115.68641384162765 86.03803664274999 l 16.34490369023857 -14.548063611281863 a42.88154545458519,42.88154545458519 0 0,0 0.48600746288321983,0.5555905449604203 l -16.592903016699637 14.264557510118495" fill="#e9ff1a" stroke="none" /><path d="M 116.15771136456269 86.58626213691792 l 10.439908629326059 -8.66695749841415 a34.56863458377423,34.56863458377423 0 0,0 0.3761421490120006,0.46110579914038285 l -10.587549270414467 8.485967529665668" fill="#ffad10" stroke="none" /><path d="M 116.60985879189232 87.15038557335679 l 10.52465526639111 -8.142017571665239 a34.30642020280735,34.30642020280735 0 0,0 0.35731616681597694,0.47018619139954454 l -10.6632473734312 7.959646604384661" fill="#ffaa0f" stroke="none" /><path d="M 117.04232023915458 87.72973835380427 l 13.212101509188392 -9.512551116213576 a37.28030267002657,37.28030267002657 0 0,0 0.3704727951012455,0.5240074956096066 l -13.373886924093519 9.283717120272177" fill="#ffd013" stroke="none" /><path d="M 117.65298651832404 88.62581576622439 l 11.261448207968217 -7.255983939238482 a34.396623405442035,34.396623405442035 0 0,0 0.3164037344881838,0.5004747234391146 l -11.384679538702356 7.061061568085162" fill="#ffab0f" stroke="none" /><line stroke="#e1ed5e" stroke-width="0.3" x1="172.23445277983987" x2="176.4835382374775" y1="55.19839476539836" y2="52.563006222186495" /><path d="M 173.08426987136738 54.67131705675599 a86.0,86.0 0 0,1 12.851231095245387,41.99856678651699" fill="none" id="id99" stroke="none" /><text fill="#e1ed5e" style="font-size:6.75px; font-family:Arial;" text-anchor="middle"><textPath startOffset="22.20632615414155" xlink:href="#id99">March</textPath></text><path d="M 118.03404312379186 89.2402003453031 l 12.080036615412263 -7.207411721876224 a35.066771781696744,35.066771781696744 0 0,0 0.3048142826812221,0.52102641610366 l -12.202310572563814 6.998405893418669" fill="#ffb410" stroke="none" /><path d="M 118.73160827565052 90.50648371742162 l 13.197430346484092 -6.688695281195217 a35.79563490746451,35.79563490746451 0 0,0 0.2738195394218872,0.5520034827797458 l -13.310609898859386 6.460532209916521" fill="#ffbd11" stroke="none" /><path d="M 119.04729006885535 91.15688171328212 l 12.715480473546949 -5.903438100304235 a35.01905935065821,35.01905935065821 0 0,0 0.24913172995768454,0.5489287432995356 l -12.81521452046798 5.683687348162636" fill="#ffb310" stroke="none" /><path d="M 119.34039704204932 91.81776055985345 l 12.98897472108918 -5.495176806292751 a35.10356098428732,35.10356098428732 0 0,0 0.23064429185235524,0.5585234472616033 l -13.081640699827732 5.270778788577844" fill="#ffb410" stroke="none" /><path d="M 119.61058180528143 92.48833698450437 l 28.070127455203558 -10.752018493847803 a51.05890811462415,51.05890811462415 0 0,0 0.307314842943125,0.8234509917604014 l -28.251046886648307 10.267244365058069" fill="#8cff24" stroke="none" /><path d="M 119.97218684219823 93.5106431181261 l 19.712687916842142 -6.4050405698744335 a41.727146682757656,41.727146682757656 0 0,0 0.21607611332140864,0.6850203273514809 l -19.820019513931758 6.064770076096534" fill="#f7ff18" stroke="none" /><path d="M 120.37134235888165 94.90015583598534 l 21.11163976717987 -5.285173208651651 a42.76314291421668,42.76314291421668 0 0,0 0.17261485128021567,0.7155999981292934 l -21.199487418720906 4.920987978862951" fill="#ebff1a" stroke="none" /><path d="M 120.53481517161879 95.60439243477599 l 13.688366076643765 -2.930081667606651 a34.99845507286631,34.99845507286631 0 0,0 0.12102916425137616,0.5901811875225282 l -13.73677453681014 2.694024823920711" fill="#ffb310" stroke="none" /><path d="M 120.67395015179393 96.31383870115 l 13.58981001870445 -2.4230604882891917 a34.804135556940466,34.804135556940466 0 0,0 0.10008366465149765,0.5906994541845549 l -13.629505544876169 2.1887752457887992" fill="#ffb010" stroke="none" /><path d="M 120.73433829027371 96.67025291283417 l 13.876426101317838 -2.228428452564088 a35.05421981874242,35.05421981874242 0 0,0 0.09054689691666998,0.5965909179819812 l -13.912728891673808 1.9892384221900248" fill="#ffb310" stroke="none" /><path d="M 120.83666639777658 97.38593545837742 l 20.70949571744942 -2.5981103405123305 a41.8718324593825,41.8718324593825 0 0,0 0.0835635103555042,0.715921125350189 l -20.751149580808516 2.241245476837289" fill="#f5ff19" stroke="none" /><path d="M 120.87857604477298 97.74499172005257 l 14.092149590779915 -1.5220345459058344 a35.174105588990415,35.174105588990415 0 0,0 0.0598342930093106,0.6025231650450354 l -14.116261009471454 1.2792358501563639" fill="#ffb510" stroke="none" /><path d="M 120.94382443527127 98.46500227214037 l 22.527618092992792 -1.6510758430823151 a43.588041712006515,43.588041712006515 0 0,0 0.048402255809470315,0.7487614740269982 l -22.552700939806677 1.263055304802282" fill="#e1ff1b" stroke="none" /><line stroke="#e1ed5e" stroke-width="0.3" x1="184.98032266829074" x2="189.97916517819016" y1="98.17113171792111" y2="98.06355123074" /><path d="M 185.9800911702706 98.14961562048488 a86.0,86.0 0 0,1 -9.607161424134198,41.387399972396054" fill="none" id="id100" stroke="none" /><text fill="#e1ed5e" style="font-size:6.75px; font-family:Arial;" text-anchor="middle"><textPath startOffset="21.466115282336823" xlink:href="#id100">April</textPath></text><path d="M 120.99513854157772 99.54816195383933 l 15.324915739199977 -0.3298087303146052 a36.32846424832478,36.32846424832478 0 0,0 0.008073556384345561,0.6253058393388654 l -15.328322302702038 0.0659666329152771" fill="#ffc412" stroke="none" /><path d="M 120.99824983174949 100.27111621757518 l 13.76658359358951 0.17774548368232382 a34.76773101481349,34.76773101481349 0 0,0 -0.012877201543701975,0.5983529557439753 l -13.761484329360801 -0.414688255216414" fill="#ffb010" stroke="none" /><path d="M 120.9764740272857 100.99374915477107 l 21.580439427195913 1.022361690171009 a42.60464277178406,42.60464277178406 0 0,0 -0.04100929997861924,0.7322485996077349 l -21.559643776329764 -1.3936820061141673" fill="#edff1a" stroke="none" /><path d="M 120.89721153311464 102.0752229133903 l 29.340930472098073 2.91373665426137 a50.48525160582625,50.48525160582625 0 0,0 -0.09332006073707141,0.8640278627478902 l -29.286428109859948 -3.418360838894052" fill="#93ff23" stroke="none" /><path d="M 120.64145759157962 103.86396538481128 l 14.273433893252804 2.6719069736828764 a35.5213636405495,35.5213636405495 0 0,0 -0.11767731663184935,0.6000341022529879 l -14.22532664364529 -2.917204803003809" fill="#ffb911" stroke="none" /><path d="M 120.41448212921028 104.9243191809786 l 27.553559030847588 6.646385560066995 a49.34383630138076,49.34383630138076 0 0,0 -0.206277644597042,0.8239766518203047 l -27.435070071955487 -7.119690051284695" fill="#9fff22" stroke="none" /><path d="M 120.23288151984713 105.62410040840565 l 13.644337135298635 3.792693689219871 a35.161654609611745,35.161654609611745 0 0,0 -0.1671139061574798,0.5817454306190217 l -13.577030592255054 -4.0269965953434745" fill="#ffb510" stroke="none" /><path d="M 120.02730092923936 106.31721596034902 l 13.306657421171115 4.197321892596715 a34.952943875558304,34.952943875558304 0 0,0 -0.18592927050924163,0.5722314549253015 l -13.232435899645628 -4.425752247499812" fill="#ffb210" stroke="none" /><path d="M 119.67450827220406 107.3425965602758 l 13.443311186943912 5.017091614910966 a35.349000799408344,35.349000799408344 0 0,0 -0.21765847685796197,0.5682376002798388 l -13.354958430492443 -5.24775278202395" fill="#ffb711" stroke="none" /><path d="M 119.41010516605496 108.01547362559984 l 13.616363355935075 5.622926842609391 a35.731688882072845,35.731688882072845 0 0,0 -0.23965587235150687,0.5664756890387226 l -13.517556502391258 -5.856477057314277" fill="#ffbc11" stroke="none" /><path d="M 118.97047184881838 109.00673069616215 l 13.043381593857044 6.192688633122539 a35.438808673494286,35.438808673494286 0 0,0 -0.2663762161221567,0.5488139032406633 l -12.934852121120173 -6.416291492328478" fill="#ffb811" stroke="none" /><line stroke="#e1ed5e" stroke-width="0.3" x1="174.80103733775053" x2="179.2010983576182" y1="140.37084112569926" y2="142.7455964860345" /><path d="M 175.68104954172406 140.8457921977663 a86.0,86.0 0 0,1 -30.038265399797805,32.042727171017184" fill="none" id="id101" stroke="none" /><text fill="#e1ed5e" style="font-size:6.75px; font-family:Arial;" text-anchor="middle"><textPath startOffset="22.206326154141568" xlink:href="#id101">May</textPath></text><path d="M 117.94076556474637 110.91462005526583 l 13.738026623183444 8.357800583260321 a37.08061584917828,37.08061584917828 0 0,0 -0.33643659534081094,0.5424429154334548 l -13.59212538817467 -8.593039830059048" fill="#ffcd13" stroke="none" /><path d="M 117.75023020441432 111.22182372390056 l 12.446164061339665 7.868554803326748 a35.72484820073672,35.72484820073672 0 0,0 -0.3330834063951135,0.5169528435375637 l -12.308875791567502 -8.081629246785765" fill="#ffbc11" stroke="none" /><path d="M 117.14729908036423 112.12312394758627 l 12.031548794156256 8.506293418537034 a35.734829286707374,35.734829286707374 0 0,0 -0.35942466958860575,0.49920942988860323 l -11.883344332192047 -8.712136453876768" fill="#ffbc11" stroke="none" /><path d="M 116.27256486870786 113.27417163493432 l 16.252928694979122 13.258153635164058 a41.97465921004891,41.97465921004891 0 0,0 -0.461529367366934,0.5559418545600429 l -16.022303327718646 -13.535956746837872" fill="#f4ff19" stroke="none" /><path d="M 115.80600337817218 113.82643327865902 l 12.325058489091141 10.781447705517019 a37.375184926782225,37.375184926782225 0 0,0 -0.4277521399956632,0.48058406385442964 l -12.137647499447139 -10.992005939112316" fill="#ffd113" stroke="none" /><path d="M 115.07121518719521 114.62390073753431 l 9.81835582891497 9.526946517878308 a34.68074636625145,34.68074636625145 0 0,0 -0.4194047937990821,0.42485484183636696 l -9.652910410060354 -9.69454185369534" fill="#ffaf10" stroke="none" /><path d="M 114.55890576462653 115.13401014063108 l 19.038506509374468 19.790563606463124 a48.461448213249,48.461448213249 0 0,0 -0.6061469456736255,0.5731497709191573 l -18.695023729310034 -20.1153480141282" fill="#a9ff21" stroke="none" /><path d="M 114.0293411484842 115.62618273729858 l 10.980578354932709 12.230404986191576 a37.436420143543316,37.436420143543316 0 0,0 -0.4832108552242512,0.4263773977726329 l -10.768425146801869 -12.4176055257365" fill="#ffd213" stroke="none" /><path d="M 113.20401910651253 116.32954008644616 l 10.231705953241404 12.65365122304148 a37.27275932311342,37.27275932311342 0 0,0 -0.5023702501027024,0.3991133096770221 l -10.01237821042135 -12.827898446723628" fill="#ffd013" stroke="none" /><path d="M 112.63410532772338 116.77436683061366 l 12.814234425239151 17.013525162780386 a42.299404742141164,42.299404742141164 0 0,0 -0.5853734647816418,0.4330452949423898 l -12.519475990038945 -17.231580406462545" fill="#f0ff19" stroke="none" /><path d="M 112.04921762599082 117.19931262002967 l 9.347033522120185 13.34215686087937 a37.29049371148551,37.29049371148551 0 0,0 -0.5288912771895059,0.36377624313908774 l -9.115985360307794 -13.501073893383554" fill="#ffd013" stroke="none" /><path d="M 111.1453310114006 117.79835938074945 l 10.677146091871588 17.05069890786616 a41.11784734791168,41.11784734791168 0 0,0 -0.6031024874840454,0.370474806543575 l -10.382064404455233 -17.23196218123811" fill="#ffff18" stroke="none" /><line stroke="#e1ed5e" stroke-width="0.3" x1="143.8653032363475" x2="146.44561519142675" y1="172.8068346515853" y2="177.08958963109032" /><path d="M 144.38136562736335 173.6633856474863 a86.0,86.0 0 0,1 -40.68145358897372,12.25698825130547" fill="none" id="id102" stroke="none" /><text fill="#e1ed5e" style="font-size:6.75px; font-family:Arial;" text-anchor="middle"><textPath startOffset="21.466115282336833" xlink:href="#id102">June</textPath></text><path d="M 109.89434966115114 118.52300852407294 l 15.859308187071873 29.689884711518744 a54.660168008430965,54.660168008430965 0 0,0 -0.8337213848824114,0.4361636244643895 l -15.345895899662967 -29.95847775492785" fill="#66ff29" stroke="none" /><path d="M 109.57404056367764 118.69057910512821 l 3.2591075253221837 6.362476386955484 a28.14862837446302,28.14862837446302 0 0,0 -0.43314853634751876,0.21718966814075832 l -3.1491050812919044 -6.417633896005544" fill="#ff5708" stroke="none" /><path d="M 108.92500713936063 119.00905698771935 l 7.931028359873867 16.89201674687522 a39.66122827205746,39.66122827205746 0 0,0 -0.6204753721211869,0.2848298109456201 l -7.639084991985261 -17.026033628154916" fill="#ffee16" stroke="none" /><path d="M 107.93186726928326 119.44442032107085 l 0.39061655891574465 0.9575692958632172 a22.03417612256286,22.03417612256286 0 0,0 -0.3524197793500199,0.1402351033187131 l -0.3740757035238585 -0.9641512435879992" fill="#ff0000" stroke="none" /><path d="M 107.59598834532513 119.57807347666477 l 12.149338642245937 31.313982304509786 a54.58827053021817,54.58827053021817 0 0,0 -0.8789485649267175,0.33234313861623926 l -11.608519856558946 -31.518473693232654" fill="#67ff28" stroke="none" /><path d="M 106.57524785965236 119.94407469862006 l 5.2394357754596275 15.892282802843855 a37.73368877237571,37.73368877237571 0 0,0 -0.618614457871933,0.19806081420988408 l -4.965099972496755 -15.980116463713447" fill="#ffd614" stroke="none" /><path d="M 105.18746579009965 120.34920634021253 l 8.283306391415055 32.49345976600032 a54.53264219143399,54.53264219143399 0 0,0 -0.9115954721703181,0.2240479880518174 l -7.722757634501526 -32.63122901236617" fill="#67ff28" stroke="none" /><path d="M 104.48393922423573 120.51570834832081 l 2.869009906390597 13.126799348620771 a34.43666919224843,34.43666919224843 0 0,0 -0.580189885721399,0.12158443163351396 l -2.64262855923982 -13.174239760980827" fill="#ffab0f" stroke="none" /><path d="M 104.13013068566511 120.58985236759428 l 3.675923239807028 18.325501680837768 a39.6905436924489,39.6905436924489 0 0,0 -0.6710204002893393,0.12860265675746474 l -3.359935224945984 -18.3860615359437" fill="#ffee16" stroke="none" /><path d="M 103.06178313531738 120.77559828337769 l 3.9151616225711554 26.566161445854334 a47.853108283736006,47.853108283736006 0 0,0 -0.8159442809165003,0.1130824424338066 l -3.457288750467825 -26.629618453780743" fill="#b0ff20" stroke="none" /><path d="M 102.34483914955558 120.86867818915974 l 1.490644631856895 13.26648914170331 a34.34997211852578,34.34997211852578 0 0,0 -0.5881490610156314,0.06096405497069267 l -1.262062974235661 -13.290182565129761" fill="#ffaa0f" stroke="none" /><path d="M 101.62511606390274 120.93702456842531 l 1.2504426717537513 16.10995640338625 a37.15841273746739,37.15841273746739 0 0,0 -0.6381289230227271,0.044009106663236666 l -0.9729509879520939 -16.129093854565774" fill="#ffce13" stroke="none" /><path d="M 100.90346689309514 120.98055641714683 l 0.5756587342808843 13.368105288537182 a34.38049408593605,34.38049408593605 0 0,0 -0.5914748958389844,0.02037159133913299 l -0.3454634867672476 -13.376033678302408" fill="#ffab0f" stroke="none" /><line stroke="#e1ed5e" stroke-width="0.3" x1="102.19456741930631" x2="102.32365962044197" y1="184.97166512339345" y2="189.96999836594603" /><path d="M 102.22038585953345 185.97133177190398 a86.0,86.0 0 0,1 -42.740103519485714,-10.115201625700543" fill="none" id="id103" stroke="none" /><text fill="#e1ed5e" style="font-size:6.75px; font-family:Arial;" text-anchor="middle"><textPath startOffset="22.20632615414155" xlink:href="#id103">July</textPath></text><path d="M 99.81925306533755 120.99922214144158 l -0.11772833175719452 13.677705768717976 a34.67821242179399,34.67821242179399 0 0,0 -0.5968620881762454,-0.010275522129178132 l 0.35315010982610784 -13.673652769309639" fill="#ffaf10" stroke="none" /><path d="M 99.09653310690486 120.98055641714683 l -0.7805838449045426 18.12693251019725 a39.14373151719822,39.14373151719822 0 0,0 -0.672921624977501,-0.03478236162663842 l 1.0924935382955325 -18.11081034180841" fill="#ffe715" stroke="none" /><path d="M 98.01472825383883 120.90594882070398 l -5.955815238483529 62.71784646211194 a84.0,84.0 0 0,0 -1.4382696135776267,-0.14908252617695705 l 7.034517448666749 -62.60603456747922" fill="#4dd2ff" stroke="none" /><path d="M 96.93821686468263 120.77559828337769 l -1.0808826261695266 7.33428274973262 a28.413501919105478,28.413501919105478 0 0,0 -0.48325161308547854,-0.07547396339256963 l 1.2069701028635222 -7.314590478992944" fill="#ff5b08" stroke="none" /><path d="M 96.22490169976321 120.6578951692458 l -2.4334512984770074 13.316204725119311 a34.53672757734857,34.53672757734857 0 0,0 -0.5838884179368374,-0.11190360496373904 l 2.6623073309855396 -13.272343921807105" fill="#ffad10" stroke="none" /><path d="M 95.16358092515715 120.4354850818985 l -7.745032102887784 32.72534607694868 a54.62935916919653,54.62935916919653 0 0,0 -0.9132122425204674,-0.22444535086805653 l 8.307197630151462 -32.587179467766596" fill="#66ff29" stroke="none" /><path d="M 94.81253420990036 120.34920634021253 l -3.3274427701016664 13.052774177956863 a34.47021859989805,34.47021859989805 0 0,0 -0.5736986113829301,-0.15151901753177008 l 3.551631824296086 -12.993563811121511" fill="#ffac0f" stroke="none" /><path d="M 94.11515582081647 120.15858648285463 l -4.328168179443774 14.826178892940856 a36.44501927337854,36.44501927337854 0 0,0 -0.6006920584535181,-0.18098358965995232 l 4.582735212337538 -14.749479934175179" fill="#ffc512" stroke="none" /><path d="M 93.42475214034765 119.94407469862007 l -5.077848636133541 15.402155883548382 a37.21761242084072,37.21761242084072 0 0,0 -0.6067007237840584,-0.2058258257780837 l 5.342219092854825 -15.312467070872174" fill="#ffcf13" stroke="none" /><path d="M 92.7421414339146 119.70592522655815 l -11.576266442976419 31.430901945923015 a54.494948005527775,54.494948005527775 0 0,0 -0.8774459399423317,-0.33177497442165543 l 12.115582603679034 -31.226978721394726" fill="#68ff28" stroke="none" /><path d="M 92.40401165467489 119.57807347666478 l -4.9502738074783315 12.75894852999169 a34.685612092996905,34.685612092996905 0 0,0 -0.5547698126964435,-0.2207543576160064 l 5.169164696216633 -12.671847327969617" fill="#ffaf10" stroke="none" /><path d="M 91.7346041902142 119.30500536409082 l -5.79147884048336 13.5268210566733 a35.71448657136995,35.71448657136995 0 0,0 -0.563063243761631,-0.2468303791616698 l 6.023462758902735 -13.425126124217178" fill="#ffbc11" stroke="none" /><path d="M 91.07499286063937 119.00905698771935 l -6.374834615819541 13.5775347411185 a35.99959886214731,35.99959886214731 0 0,0 -0.5586577726784147,-0.26818968046257935 l 6.607605056498198 -13.465790784156358" fill="#ffc011" stroke="none" /><path d="M 90.42595943632237 118.69057910512821 l -15.37157827933476 30.00861526433896 a54.7165005432182,54.7165005432182 0 0,0 -0.8345806145669874,-0.43661313282565684 l 15.885849796428241 -29.739572712568588" fill="#66ff29" stroke="none" /><line stroke="#e1ed5e" stroke-width="0.3" x1="58.666819895761336" x2="56.23545636021788" y1="174.27360380694188" y2="178.64263932499728" /><path d="M 58.180547188652646 175.14741091055294 a86.0,86.0 0 0,1 -31.652253787137756,-30.449443065178592" fill="none" id="id104" stroke="none" /><text fill="#e1ed5e" style="font-size:6.75px; font-family:Arial;" text-anchor="middle"><textPath startOffset="22.20632615414155" xlink:href="#id104">August</textPath></text><path d="M 89.7882731507175 118.34994917583269 l -3.5573254558446243 6.392331314779661 a28.31549479097025,28.31549479097025 0 0,0 -0.4238576525132205,-0.240677437102226 l 3.666831875279052 -6.330150711882802" fill="#ff5908" stroke="none" /><path d="M 89.4739219176387 118.17145234162733 l -6.393647073683022 11.03752529475378 a33.755613961512985,33.755613961512985 0 0,0 -0.5002776951421788,-0.2955728803973357 l 6.582692639853583 -10.925833842062694" fill="#ffa30f" stroke="none" /><path d="M 88.54995079064634 117.60387380957326 l -4.200810386306885 6.458534333466452 a28.70450995445322,28.70450995445322 0 0,0 -0.41187595759749435,-0.2729689257861075 l 4.31136104264434 -6.3852673865890255" fill="#ff5f08" stroke="none" /><path d="M 88.24862548938628 117.40417183066458 l -18.79536520628033 27.836553534631044 a54.587787452046214,54.587787452046214 0 0,0 -0.7742188893457592,-0.5325148117967535 l 19.27174098024898 -27.50889793346919" fill="#67ff28" stroke="none" /><path d="M 87.65650970185807 116.9893568818739 l -8.497113933594855 11.695273994383658 a35.45615367254369,35.45615367254369 0 0,0 -0.4906710070662007,-0.362986680740518 l 8.69716991107962 -11.547277364903373" fill="#ffb911" stroke="none" /><path d="M 87.36589467227662 116.77436683061367 l -9.715497858211823 12.899316634480956 a37.14878534966378,37.14878534966378 0 0,0 -0.5074723470562181,-0.3891081559917105 l 9.936098933761528 -12.730169136661878" fill="#ffce13" stroke="none" /><path d="M 86.79598089348748 116.32954008644616 l -10.196662203391979 12.610312273489123 a37.21702487279936,37.21702487279936 0 0,0 -0.49468492231874306,-0.40709201309027265 l 10.41221725425541 -12.43292514154167" fill="#ffcf13" stroke="none" /><path d="M 86.24171649860922 115.8653595955263 l -21.988213378633464 25.35570022815113 a54.561779774680886,54.561779774680886 0 0,0 -0.7042565546168539,-0.6214245269438309 l 22.421412286156908 -24.97345255943501" fill="#67ff28" stroke="none" /><path d="M 85.44109423537348 115.13401014063109 l -12.203076260537433 12.685120905348871 a38.601913606304606,38.601913606304606 0 0,0 -0.47489553421782243,-0.46478523249266557 l 12.41962174713105 -12.473185569933635" fill="#ffe015" stroke="none" /><path d="M 84.67929136418377 114.36230785411682 l -37.50814032838361 35.16178469527821 a72.41217456839205,72.41217456839205 0 0,0 -0.844648679303236,-0.9166993212434784 l 38.10783541568257 -34.51093411923338" fill="#3fffbb" stroke="none" /><path d="M 84.43433777217949 114.09645910891817 l -17.06839719290684 15.457354757098193 a44.02737498764495,44.02737498764495 0 0,0 -0.5038852357854554,-0.5661204040556732 l 17.331941278340633 -15.161260183301655" fill="#dcff1b" stroke="none" /><path d="M 83.95833913139862 113.55231037782056 l -5.123804512977883 4.3286907536531265 a27.707528332252842,27.707528332252842 0 0,0 -0.30465614880858827,-0.36697795708655484 l 5.197556661680008 -4.23985153945281" fill="#ff5107" stroke="none" /><path d="M 83.72743513129214 113.27417163493432 l -12.200387847692287 9.952336562164481 a36.74479173189387,36.74479173189387 0 0,0 -0.3955875826598023,-0.4935563337395694 l 12.36989334240695 -9.740852394846652" fill="#ffc912" stroke="none" /><path d="M 82.85270091963577 112.12312394758628 l -16.403165083837557 11.597021928182187 a41.08867199120853,41.08867199120853 0 0,0 -0.4033324557228745,-0.5810304844248159 l 16.600358446722563 -11.31295018157036" fill="#ffff18" stroke="none" /><path d="M 82.44556493220864 111.52570212397912 l -6.202738473300484 4.072527296955111 a28.420205061358246,28.420205061358246 0 0,0 -0.26497799680195316,-0.41125173542618576 l 6.271921333479483 -3.9651539616074767" fill="#ff5b08" stroke="none" /><path d="M 82.24976979558568 111.22182372390057 l -8.101700568955724 5.1219536085811495 a30.5849862220806,30.5849862220806 0 0,0 -0.27750101764641577,-0.4474199986936195 l 8.188666226270096 -4.981737278522266" fill="#ff780b" stroke="none" /><line stroke="#e1ed5e" stroke-width="0.3" x1="26.63291911575756" x2="22.317208475507996" y1="142.92168965132927" y2="145.44649492493687" /><path d="M 25.769776987707644 143.4266507060508 a86.0,86.0 0 0,1 -11.730757126820373,-40.83630448921669" fill="none" id="id105" stroke="none" /><text fill="#e1ed5e" style="font-size:6.75px; font-family:Arial;" text-anchor="middle"><textPath startOffset="21.46611528233685" xlink:href="#id105">September</textPath></text><path d="M 81.18737489456691 109.33194174019688 l -6.358585017887549 3.1541554995362424 a28.09790816684456,28.09790816684456 0 0,0 -0.21119825238452886,-0.4351309547681463 l 6.411936526886797 -3.0442355888028114" fill="#ff5608" stroke="none" /><path d="M 81.02952815118164 109.00673069616217 l -10.345116636742475 4.911616343023649 a32.45187379116898,32.45187379116898 0 0,0 -0.2352380439107754,-0.5066818188249752 l 10.428129297493077 -4.732814456919847" fill="#ff910d" stroke="none" /><path d="M 80.45479744820244 107.68017299344265 l -18.44173750478569 7.246572859046035 a40.81440133834181,40.81440133834181 0 0,0 -0.25131121752447305,-0.6560942869351151 l 18.56374300190367 -6.928055005277762" fill="#fffc17" stroke="none" /><path d="M 80.0844068197444 106.66101706037122 l -8.937082430641649 2.989118024336141 a30.423707812506436,30.423707812506436 0 0,0 -0.16183637692735445,-0.49808115298540995 l 8.987211058585252 -2.8348379713729277" fill="#ff760a" stroke="none" /><path d="M 79.86692584326677 105.97154293290107 l -8.175047665754764 2.424748835400327 a29.527063460074498,29.527063460074498 0 0,0 -0.14033420687841447,-0.4885217842621087 l 8.215574509519284 -2.2836695756336223" fill="#ff6a09" stroke="none" /><path d="M 79.58551787078972 104.9243191809786 l -5.790837051800411 1.396848070287319 a26.956926916789385,26.956926916789385 0 0,0 -0.10492590240141661,-0.452018041379305 l 5.814023520132383 -1.2969613715594397" fill="#ff4606" stroke="none" /><path d="M 79.4281124754447 104.21870165774334 l -9.812710308724505 2.0123042767445876 a31.01691829382434,31.01691829382434 0 0,0 -0.10275471831379222,-0.5239440949232864 l 9.845894960013963 -1.8430964547533462" fill="#ff7e0b" stroke="none" /><path d="M 79.18660465613746 102.79330883721812 l -20.416366347098815 2.7400246619564936 a41.599411398558914,41.599411398558914 0 0,0 -0.08913860615021972,-0.7105223952741468 l 20.460506462495886 -2.388184512394938" fill="#f9ff18" stroke="none" /><path d="M 79.10278846688536 102.07522291339032 l -6.8682941668363355 0.6820642748597097 a27.90207768988715,27.90207768988715 0 0,0 -0.04334840711147511,-0.47834606031062865 l 6.879017170224886 -0.5637368260005148" fill="#ff5407" stroke="none" /><path d="M 79.0235259727143 100.99374915477108 l -3.295013295680224 0.15609947950653694 a24.298708787724625,24.298708787724625 0 0,0 -0.016196671309425117,-0.41796411820509893 l 3.29721209984085 -0.09935811428744121" fill="#ff2103" stroke="none" /><line stroke="#e1ed5e" stroke-width="0.3" x1="15.007084014347285" x2="10.007500721073583" y1="101.09737516637583" y2="101.16192664675087" /><path d="M 14.007167355692545 101.11028546245083 a86.0,86.0 0 0,1 10.666146001902534,-42.60595125391555" fill="none" id="id106" stroke="none" /><text fill="#e1ed5e" style="font-size:6.75px; font-family:Arial;" text-anchor="middle"><textPath startOffset="22.20632615414155" xlink:href="#id106">October</textPath></text><path d="M 79.12142395522702 97.74499172005258 l -7.237291977981784 -0.7816698466288265 a28.279382042707212,28.279382042707212 0 0,0 0.056437091366024095,-0.48351853327321365 l 7.222764533612172 0.906132118226902" fill="#ff5908" stroke="none" /><path d="M 79.26566170972629 96.67025291283419 l -11.083832358354096 -1.7799631699448129 a32.225845564342016,32.225845564342016 0 0,0 0.0926694678365425,-0.5469404448890872 l 11.05155102899733 1.970489403149728" fill="#ff8e0d" stroke="none" /><path d="M 79.3925641242962 95.95851677861259 l -9.802647146346398 -1.9224727523645446 a30.98938399298762,30.98938399298762 0 0,0 0.10716528022530275,-0.5225759653531952 l 9.7681025702061 2.0909243738811423" fill="#ff7e0b" stroke="none" /><path d="M 79.54389044137918 95.25157060432595 l -19.54766250812501 -4.537553683133204 a41.06739900831376,41.06739900831376 0 0,0 0.1657699245003119,-0.6872233575646522 l 19.466659783363887 4.873362272357253" fill="#ffff18" stroke="none" /><path d="M 79.71946130924805 94.55025226153421 l -6.686733536037655 -1.7968463028233994 a27.92394844131156,27.92394844131156 0 0,0 0.12873369653056232,-0.46312360028671684 l 6.654813068940732 1.9116812065290587" fill="#ff5407" stroke="none" /><path d="M 79.81627453868168 94.20196356495316 l -8.971988107516447 -2.5773197342523524 a30.334835168013583,30.334835168013583 0 0,0 0.14848772225524756,-0.5006267822438627 l 8.926294488149493 2.7313759032427543" fill="#ff750a" stroke="none" /><path d="M 80.02781315780177 93.51064311812611 l -6.467503117459291 -2.1014191483102462 a27.800335213151673,27.800335213151673 0 0,0 0.1517934128377077,-0.4538429837544805 l 6.430372410849811 2.2124352349870486" fill="#ff5207" stroke="none" /><path d="M 80.2630227832202 92.82701384747504 l -13.16611488006458 -4.784945469611505 a35.008650334069074,35.008650334069074 0 0,0 0.2107110840465378,-0.5646009462847243 l 13.081799207516413 5.010869552925571" fill="#ffb310" stroke="none" /><path d="M 80.52162464483688 92.15188598940014 l -4.42114484201279 -1.7813420341699369 a25.766518767062287,25.766518767062287 0 0,0 0.16929622829973004,-0.4099642452841668 l 4.38982692682686 1.857180849907415" fill="#ff3605" stroke="none" /><path d="M 80.95270993114464 91.15688171328213 l -6.252789654851054 -2.9029934620582263 a27.893819660287406,27.893819660287406 0 0,0 0.20593848479921048,-0.43375896984867074 l 6.201892976210091 3.010194847547429" fill="#ff5307" stroke="none" /><path d="M 81.26839172434947 90.50648371742162 l -25.241040166617704 -12.792613548431582 a49.297721994752926,49.297721994752926 0 0,0 0.39013411248681445,-0.7536149281305864 l 25.017096620970776 13.225201198822504" fill="#a0ff22" stroke="none" /><line stroke="#e1ed5e" stroke-width="0.3" x1="26.266209847984243" x2="21.928928074336255" y1="57.711370442889674" y2="55.22380399835377" /><path d="M 25.398753493254645 57.213857153982495 a86.0,86.0 0 0,1 29.58750427330803,-30.492523968695096" fill="none" id="id107" stroke="none" /><text fill="#e1ed5e" style="font-size:6.75px; font-family:Arial;" text-anchor="middle"><textPath startOffset="21.46611528233685" xlink:href="#id107">November</textPath></text><path d="M 81.96595687620814 89.24020034530311 l -5.706307566624959 -3.404601273463946 a27.644791635272966,27.644791635272966 0 0,0 0.2473342670446252,-0.40655250285465677 l 5.646857501294117 3.5023215495256776" fill="#ff5007" stroke="none" /><path d="M 82.34701348167596 88.62581576622439 l -5.44713086362993 -3.50969904860575 a27.479909108721653,27.479909108721653 0 0,0 0.25962411558232906,-0.3954253398186311 l 5.38591011268968 3.6029424524020484" fill="#ff4e07" stroke="none" /><path d="M 82.7489923806493 88.02491185347247 l -5.616258964571177 -3.898624221754102 a27.83678547122651,27.83678547122651 0 0,0 0.2766278968129393,-0.39127054224072466 l 5.548318447954359 3.994721264326613" fill="#ff5307" stroke="none" /><path d="M 83.17141714833178 87.43820079747576 l -7.027552492036481 -5.245759792626269 a29.769520501729986,29.769520501729986 0 0,0 0.3100623991295241,-0.40800577214856143 l 6.936214152682847 5.365950340655857" fill="#ff6d0a" stroke="none" /><path d="M 83.6137871275137 86.86637796730984 l -5.196637887976928 -4.165128232652485 a27.659830218045812,27.659830218045812 0 0,0 0.3009672816064015,-0.3689503004774935 l 5.124172114294135 4.253962702738061" fill="#ff5007" stroke="none" /><path d="M 84.07557802195018 86.31012108654704 l -12.726620702080819 -10.940798769907172 a37.782966132904946,37.782966132904946 0 0,0 0.42822158846638847,-0.4895313012035466 l 12.536407250036588 11.158245627313661" fill="#ffd614" stroke="none" /><path d="M 84.31358615837235 86.03803664274999 l -5.0808882970191585 -4.522332315178875 a27.8019787897124,27.8019787897124 0 0,0 0.32125366460864513,-0.35473632024258855 l 5.002290991794469 4.609121422691019" fill="#ff5207" stroke="none" /><path d="M 84.5562425177563 85.77008943001954 l -4.947288944387816 -4.558442420727775 a27.727188506527256,27.727188506527256 0 0,0 0.32643176517612993,-0.3482146472932695 l 4.86808985724123 4.642926484899095" fill="#ff5107" stroke="none" /><path d="M 85.31137513191541 84.99185889309783 l -4.950554090549286 -5.058241667656128 a28.07769698220169,28.07769698220169 0 0,0 0.34831954974458645,-0.335083130881071 l 4.862751297192272 5.1427078852995125" fill="#ff5608" stroke="none" /><path d="M 85.83668400450813 84.49514656593479 l -13.548778923949055 -14.832107925378985 a41.08882365496139,41.08882365496139 0 0,0 0.526306766466255,-0.47252341148464194 l 13.291461169886828 15.063130345632905" fill="#ffff18" stroke="none" /><path d="M 86.37877921826538 84.01681056812374 l -4.413738983920586 -5.179097190573254 a27.804714507426752,27.804714507426752 0 0,0 0.36694605060652413,-0.30730676457948686 l 4.323935396354952 5.254305112546553" fill="#ff5207" stroke="none" /><path d="M 86.65592168130627 83.78471172551755 l -6.454069382106211 -7.842774380884165 a31.15697403651766,31.15697403651766 0 0,0 0.4170533101275815,-0.33722810600953035 l 6.318112673414129 7.952708584157829" fill="#ff800b" stroke="none" /><path d="M 87.22198572758235 83.33499621200491 l -4.995399344244384 -6.514967601349369 a29.209678279634907,29.209678279634907 0 0,0 0.4016384262249807,-0.30250573579484613 l 4.882514764261013 6.5999899266500694" fill="#ff6609" stroke="none" /><path d="M 88.09926311788651 82.69761687909137 l -3.8989128269477997 -5.668597176387219 a27.880008370655027,27.880008370655027 0 0,0 0.39774855370260137,-0.26856159897128595 l 3.8007595788386586 5.73487068765717" fill="#ff5307" stroke="none" /><path d="M 88.70189139769569 82.29822771554957 l -5.109438758081565 -8.00542148961624 a30.49700677313624,30.49700677313624 0 0,0 0.4449380373934738,-0.2786201581971005 l 4.970881568315849 8.09218598913627" fill="#ff770b" stroke="none" /><line stroke="#e1ed5e" stroke-width="0.3" x1="56.762969772571076" x2="54.21961505331055" y1="26.818313649435495" y2="22.513508569990535" /><path d="M 56.25429882871897 25.957352633546506 a86.0,86.0 0 0,1 42.265352541879196,-11.944610805530505" fill="none" id="id108" stroke="none" /><text fill="#e1ed5e" style="font-size:6.75px; font-family:Arial;" text-anchor="middle"><textPath startOffset="22.20632615414155" xlink:href="#id108">December</textPath></text><path d="M 89.3179101791058 81.91981866633112 l -3.703445958994179 -6.2683403360909775 a28.28063201516568,28.28063201516568 0 0,0 0.42125114772808103,-0.24401585464428346 l 3.594998078800778 6.331160348125308" fill="#ff5908" stroke="none" /><path d="M 89.94658935756843 81.56283822128135 l -8.020419351789446 -14.708816180052326 a37.75339965490968,37.75339965490968 0 0,0 0.5732313566840247,-0.30620033848155376 l 7.766042948577116 14.844695245035629" fill="#ffd614" stroke="none" /><path d="M 90.91171255644093 81.06846463323043 l -3.657305923997243 -7.618422819176939 a29.450813740312896,29.450813740312896 0 0,0 0.4589022833708216,-0.2154607752504226 l 3.525625429326813 7.68024857706737" fill="#ff6909" stroke="none" /><path d="M 91.56875222667455 80.76684994638697 l -2.702994824900021 -6.166003711326923 a27.732442557611144,27.732442557611144 0 0,0 0.43885433800197465,-0.1878945246591348 l 2.596456729107738 6.211617763948843" fill="#ff5107" stroke="none" /><path d="M 91.90106846888425 80.62456947434976 l -5.635764726719888 -13.482688117802619 a35.613169503460774,35.613169503460774 0 0,0 0.567633442280547,-0.23155193353317124 l 5.40284741485096 13.577700937519367" fill="#ffbb11" stroke="none" /><path d="M 92.23578459929587 80.48803036053334 l -3.7211459432746476 -9.351477634509564 a31.064644110940137,31.064644110940137 0 0,0 0.4985384780324042,-0.19342518421661123 l 3.559624300242567 9.414145522616728" fill="#ff7f0b" stroke="none" /><path d="M 92.57280143429618 80.3572730644239 l -2.389623076966975 -6.319840941988532 a27.756529285217937,27.756529285217937 0 0,0 0.44835739565510446,-0.16513381266348778 l 2.280483355539301 6.360038022458341" fill="#ff5207" stroke="none" /><path d="M 93.25333710446033 80.11325718540243 l -3.1358568969611746 -9.243381591583217 a30.76082484864053,30.76082484864053 0 0,0 0.502891408215754,-0.16579539063483986 l 2.9762826665030113 9.29599070647729" fill="#ff7b0b" stroke="none" /><path d="M 94.28887869178378 79.79150937346287 l -1.1410365794750594 -4.037495576864167 a25.195632849630417,25.195632849630417 0 0,0 0.4183700170004877,-0.11435632966518501 l 1.0713686732508492 4.056538447355648" fill="#ff2e04" stroke="none" /><path d="M 94.63758080256005 79.69619591428918 l -4.29974907771157 -16.28020109529103 a37.83843192920281,37.83843192920281 0 0,0 0.6311650652808312,-0.16089802861648728 l 4.018875123745739 16.351802120076382" fill="#ffd714" stroke="none" /><path d="M 95.33964822691252 79.52364482259891 l -1.6207993843148782 -7.121364540805331 a28.3034802366567,28.3034802366567 0 0,0 0.4759799989215399,-0.10403079196096471 l 1.4979766612398175 7.148208830862163" fill="#ff5908" stroke="none" /><path d="M 95.692805502759 79.44645832069477 l -2.4374538356935314 -11.631308740619932 a32.883960796837,32.883960796837 0 0,0 0.5550085855316602,-0.11132950100796221 l 2.2368788406947346 11.671542197705106" fill="#ff970d" stroke="none" /><path d="M 96.40284397218896 79.31037775812273 l -1.4244984076170149 -8.193232017151741 a29.31614373373764,29.31614373373764 0 0,0 0.497914869450416,-0.08216021975854745 l 1.283254332027713 8.216538499849916" fill="#ff6709" stroke="none" /><path d="M 96.75951476605007 79.25152402106235 l -3.1681120857257263 -20.285078549528784 a41.530985021383515,41.530985021383515 0 0,0 0.7072746912857096,-0.10423390423119476 l 2.818468414011368 20.336606937920948" fill="#faff18" stroke="none" /><path d="M 97.47563105711357 79.15227682838746 l -0.9885116460496024 -8.163710461907838 a29.22334018390576,29.22334018390576 0 0,0 0.49990461089149474,-0.05617010775846195 l 0.8478403316483897 8.179516523136899" fill="#ff6609" stroke="none" /><path d="M 97.83486435360386 79.11191278185805 l -0.7036060341584072 -6.7880200638582675 a27.82438845894975,27.82438845894975 0 0,0 0.4768237266884017,-0.045280158322985826 l 0.5866571803797691 6.799125766696434" fill="#ff5307" stroke="none" /><path d="M 98.19473922651362 79.07773832637324 l -1.0023911068005407 -11.61731830869779 a32.66048337834233,32.66048337834233 0 0,0 0.5605313633201424,-0.043508021871772155 l 0.8022695541180641 11.632851592758024" fill="#ff940d" stroke="none" /><path d="M 98.55514903715128 79.0497635885617 l -0.17102329527345903 -2.4798256429008214 a23.48571603098879,23.48571603098879 0 0,0 0.4035494121026865,-0.024343202583673916 l 0.12831183433114954 2.4824021148648017" fill="#ff1502" stroke="none" /><path d="M 98.91598698831166 79.02799685794201 l -0.34336615884244653 -6.642979451791431 a27.651847586645488,27.651847586645488 0 0,0 0.47555801225191247,-0.020478528370421908 l 0.22896731420120994 6.647905706686045" fill="#ff5007" stroke="none" /></svg>