<?xml version="1.0" encoding="utf-8" ?>
<svg baseProfile="full" height="200mm" version="1.1" viewBox="0,0,200,200" width="200mm" xmlns="http://www.w3.org/2000/svg" xmlns:ev="http://www.w3.org/2001/xml-events" xmlns:xlink="http://www.w3.org/1999/xlink"><defs /><rect fill="#1a1a1a" height="200" width="200" x="0" y="0" /><text alignment-baseline="middle" fill="#e1ed5e" style="dominant-baseline: central; font-size:9.0px; font-family:Arial;" text-anchor="middle" x="100.0" y="100.0">2017</text><line stroke="#e1ed5e" stroke-width="0.3" x1="100.0" x2="100.0" y1="15.0" y2="10.0" /><path d="M 100.0 14.0 a86.0,86.0 0 0,1 42.46469731375804,11.215312516191453" fill="none" id="id25" stroke="none" /><text fill="#e1ed5e" style="font-size:6.75px; font-family:Arial;" text-anchor="middle"><textPath startOffset="22.20632615414155" xlink:href="#id25">January</textPath></text><line stroke="#e1ed5e" stroke-width="0.3" x1="143.23703022742887" x2="145.7803849466894" y1="26.81831364943548" y2="22.513508569990506" /><path d="M 143.74570117128098 25.957352633546492 a86.0,86.0 0 0,1 28.547481713284135,27.462654790039103" fill="none" id="id26" stroke="none" /><text fill="#e1ed5e" style="font-size:6.75px; font-family:Arial;" text-anchor="middle"><textPath startOffset="19.985693538727396" xlink:href="#id26">February</textPath></text><path d="M 117.2510076193507 88.02491185347247 l 10.701122891019626 -7.428371299485102 a34.02669302976462,34.02669302976462 0 0,0 0.32985724833620567,0.4840248096867796 l -10.827404605024565 7.243068466527916" fill="#ffa40f" stroke="none" /><line stroke="#e1ed5e" stroke-width="0.3" x1="172.23445277983987" x2="176.4835382374775" y1="55.19839476539836" y2="52.563006222186495" /><path d="M 173.08426987136738 54.67131705675599 a86.0,86.0 0 0,1 12.851231095245387,41.99856678651699" fill="none" id="id27" stroke="none" /><text fill="#e1ed5e" style="font-size:6.75px; font-family:Arial;" text-anchor="middle"><textPath startOffset="22.20632615414155" xlink:href="#id27">March</textPath></text><path d="M 118.56541770881063 90.18545643968196 l 5.600254354815189 -2.960555004809299 a27.334645591911823,27.334645591911823 0 0,0 0.21632191644224535,0.4178650886833199 l -5.650385704417551 2.8637171938656345" fill="#ff4906" stroke="none" /><path d="M 119.61058180528143 92.48833698450437 l 5.82776452648342 -2.2322745796768424 a27.240664161386185,27.240664161386185 0 0,0 0.16395690267463983,0.4393229849245591 l -5.865326017659685 2.13162845772295" fill="#ff4806" stroke="none" /><path d="M 119.97218684219823 93.5106431181261 l 7.7298053357858345 -2.511566001643032 a29.1275983112942,29.1275983112942 0 0,0 0.15083174225503346,0.47817784143889475 l -7.771892561809074 2.3781379937777185" fill="#ff6209" stroke="none" /><path d="M 120.37134235888165 94.90015583598534 l 12.322693827326306 -3.0849129671040196 a33.702970958662874,33.702970958662874 0 0,0 0.13604316528841798,0.5639867491346798 l -12.373969792875544 2.8723409863099336" fill="#ffa00e" stroke="none" /><path d="M 120.45610955862082 95.25157060432595 l 1.2062781157866116 -0.2800105488262568 a22.23835083884967,22.23835083884967 0 0,0 0.0833468111826388,0.3736274118644303 l -1.210919313971288 0.2592049674118626" fill="#ff0000" stroke="none" /><path d="M 120.6074358757038 95.95851677861258 l 7.407007285179566 -1.4526453385227533 a28.548108067736912,28.548108067736912 0 0,0 0.09042174961279173,0.4830366020683239 l -7.430914758702218 1.3249306589918668" fill="#ff5a08" stroke="none" /><path d="M 120.83666639777658 97.38593545837742 l 18.433490992330093 -2.3125741066964096 a39.57798668218054,39.57798668218054 0 0,0 0.07898568812756407,0.6767011401301195 l -18.470567033461247 1.9949292282414375" fill="#ffeb16" stroke="none" /><path d="M 120.94382443527127 98.46500227214037 l 7.901848854579293 -0.5791358724934021 a28.923043208226545,28.923043208226545 0 0,0 0.03211753685569509,0.4968440795993113 l -7.9106469824394035 0.44303272864105564" fill="#ff5f08" stroke="none" /><line stroke="#e1ed5e" stroke-width="0.3" x1="184.98032266829074" x2="189.97916517819016" y1="98.17113171792111" y2="98.06355123074" /><path d="M 185.9800911702706 98.14961562048488 a86.0,86.0 0 0,1 -9.607161424134198,41.387399972396054" fill="none" id="id28" stroke="none" /><text fill="#e1ed5e" style="font-size:6.75px; font-family:Arial;" text-anchor="middle"><textPath startOffset="21.466115282336823" xlink:href="#id28">April</textPath></text><path d="M 120.99980553446 99.90962569577887 l 12.862335488619914 -0.055354065947671414 a33.86245459834274,33.86245459834274 0 0,0 -0.002508567257272521,0.5829026848599501 l -12.861382624073139 -0.1660580971159634" fill="#ffa20e" stroke="none" /><path d="M 120.99824983174949 100.27111621757518 l 6.28595463740343 0.08116029949149449 a27.286478560983664,27.286478560983664 0 0,0 -0.010106310466391377,0.46960053538877083 l -6.283626264252031 -0.18935065067038018" fill="#ff4806" stroke="none" /><path d="M 120.8583938346157 102.4346265915055 l 19.586290576922725 2.2861445730492123 a40.7192605229642,40.7192605229642 0 0,0 -0.0872526318151327,0.6954893241968297 l -19.544036435860743 -2.622951651533437" fill="#fff917" stroke="none" /><path d="M 120.70491114924044 103.5080841355445 l 7.341691153448986 1.2439208300793225 a28.446325807009543,28.446325807009543 0 0,0 -0.08595336070634782,0.4820720935832594 l -7.319191350403449 -1.3701116743958002" fill="#ff5908" stroke="none" /><path d="M 120.41448212921028 104.9243191809786 l 25.521874264289913 6.1563087507539285 a47.253879777983926,47.253879777983926 0 0,0 -0.19754076191278144,0.7890771485048249 l -25.412122188082073 -6.594713738656149" fill="#b8ff1f" stroke="none" /><path d="M 120.02730092923936 106.31721596034902 l 9.410617692414245 2.9683932195010967 a30.86767873708706,30.86767873708706 0 0,0 -0.16419804324160248,0.5053496145210739 l -9.358127398156396 -3.1299417339999662" fill="#ff7a0b" stroke="none" /><path d="M 119.12269723197855 108.67885076344098 l 7.935480364212201 3.6015238322155994 a29.71451791694838,29.71451791694838 0 0,0 -0.21539542263462685,0.46394257787861987 l -7.872310324737743 -3.73758647737305" fill="#ff6a09" stroke="none" /><path d="M 118.81262510543309 109.33194174019688 l 11.217758716453929 5.5645328714545625 a33.52206599160364,33.52206599160364 0 0,0 -0.2608676483743018,0.5147166187627114 l -11.120312398293358 -5.756803701919968" fill="#ff9d0e" stroke="none" /><path d="M 118.64920377521936 109.65438752849418 l 7.095605794945801 3.6732789731678523 a28.990031289800154,28.990031289800154 0 0,0 -0.2332282415663621,0.4411799386858703 l -7.031325045154546 -3.794873926939857" fill="#ff6008" stroke="none" /><line stroke="#e1ed5e" stroke-width="0.3" x1="174.80103733775053" x2="179.2010983576182" y1="140.37084112569926" y2="142.7455964860345" /><path d="M 175.68104954172406 140.8457921977663 a86.0,86.0 0 0,1 -30.038265399797805,32.042727171017184" fill="none" id="id29" stroke="none" /><text fill="#e1ed5e" style="font-size:6.75px; font-family:Arial;" text-anchor="middle"><textPath startOffset="22.206326154141568" xlink:href="#id29">May</textPath></text><path d="M 118.48025628344425 109.97397251340804 l 22.949330509004525 12.385974966320514 a47.07842300979575,47.07842300979575 0 0,0 -0.39102797993948785,0.7098293653447845 l -22.732726119613528 -12.779174850063104" fill="#baff1f" stroke="none" /><path d="M 117.14729908036423 112.12312394758627 l 6.469264050872098 4.573763458071123 a28.922795562823314,28.922795562823314 0 0,0 -0.2909085182789302,0.4040464883114046 l -6.389575740217566 -4.684443551833659" fill="#ff5f08" stroke="none" /><path d="M 116.71984013943494 112.70617746262583 l 6.455182231540125 4.905590621891544 a29.107662856334223,29.107662856334223 0 0,0 -0.30659126621599886,0.3963105405027738 l -6.369784148106057 -5.01597915650757" fill="#ff6209" stroke="none" /><path d="M 116.0416608686014 113.55231037782055 l 20.73086214535984 17.513839776007075 a48.138592981021716,48.138592981021716 0 0,0 -0.5402009530810143,0.6283757500114372 l -20.426318682708047 -17.86809262518004" fill="#aeff20" stroke="none" /><path d="M 115.07121518719521 114.62390073753431 l 5.719953780449732 5.550185255111349 a28.97009583484017,28.97009583484017 0 0,0 -0.3503441633474877,0.3548967878001803 l -5.623568992046709 -5.6478225368921935" fill="#ff6008" stroke="none" /><path d="M 114.0293411484842 115.62618273729858 l 8.595588209360564 9.57395152576708 a33.866416924794414,33.866416924794414 0 0,0 -0.43713101367234714,0.3857172952143863 l -8.42951484278163 -9.720491962753755" fill="#ffa20e" stroke="none" /><path d="M 113.20401910651253 116.32954008644616 l 5.063151393224515 6.261649045829256 a29.05256175411563,29.05256175411563 0 0,0 -0.39157666294613713,0.311092183322493 l -4.954617237561027 -6.347875143156875" fill="#ff6108" stroke="none" /><path d="M 112.04921762599082 117.19931262002967 l 7.107587165714324 10.14552292370758 a33.38747071494835,33.38747071494835 0 0,0 -0.47353468058583176,0.3257014712266836 l -6.931895600505609 -10.266365184299357" fill="#ff9b0e" stroke="none" /><path d="M 111.45004920935366 117.60387380957326 l 6.650787341365271 10.22525047281525 a33.197898158776084,33.197898158776084 0 0,0 -0.4817144620367511,0.30745296120279003 l -6.473791077281589 -10.338217862841848" fill="#ff990e" stroke="none" /><line stroke="#e1ed5e" stroke-width="0.3" x1="143.8653032363475" x2="146.44561519142675" y1="172.8068346515853" y2="177.08958963109032" /><path d="M 144.38136562736335 173.6633856474863 a86.0,86.0 0 0,1 -40.68145358897372,12.25698825130547" fill="none" id="id30" stroke="none" /><text fill="#e1ed5e" style="font-size:6.75px; font-family:Arial;" text-anchor="middle"><textPath startOffset="21.466115282336833" xlink:href="#id30">June</textPath></text><path d="M 110.5260780823613 118.17145234162733 l 3.9114056441246587 6.752365001936131 a28.803430478466645,28.803430478466645 0 0,0 -0.4311616137050241,0.24482481688860983 l -3.7945952634984357 -6.81869298461937" fill="#ff5e08" stroke="none" /><path d="M 108.59647513512805 119.15986991738527 l 4.036098399256519 8.995677773500589 a30.8596302614821,30.8596302614821 0 0,0 -0.48652312225155514,0.21327743919848444 l -3.880654602347211 -9.063819765993529" fill="#ff7a0b" stroke="none" /><path d="M 107.59598834532513 119.57807347666477 l 9.494821207628126 24.47216857107774 a47.24954598342741,47.24954598342741 0 0,0 -0.7607846929787407,0.2876636731261145 l -9.072166293889111 -24.63198049431049" fill="#b8ff1f" stroke="none" /><path d="M 106.57524785965236 119.94407469862006 l 2.6123839483271887 7.923896059740033 a29.34342128020881,29.34342128020881 0 0,0 -0.48106255279905547,0.15402103795154312 l -2.475600050437193 -7.967689944351283" fill="#ff6509" stroke="none" /><path d="M 105.53697534728816 120.25689768951611 l 3.6149573831968382 13.22523892024262 a34.71039245900093,34.71039245900093 0 0,0 -0.5776958999135502,0.15257473776349664 l -3.3867710404717903 -13.285505007309702" fill="#ffad10" stroke="none" /><path d="M 104.48393922423573 120.51570834832081 l 2.1669717292929653 9.914710653735145 a31.14875626975267,31.14875626975267 0 0,0 -0.524795044480652,0.10997590405756254 l -1.9959852233829352 -9.95054253851925" fill="#ff7e0b" stroke="none" /><path d="M 103.06178313531738 120.77559828337769 l 1.230491497822865 8.349447338382323 a29.43963151936351,29.43963151936351 0 0,0 -0.501975730146623,0.06956926218505176 l -1.0865871764894115 -8.369391166059977" fill="#ff6609" stroke="none" /><path d="M 101.62511606390274 120.93702456842531 l 0.5758137382980256 7.4184402292045535 a28.44075378543688,28.44075378543688 0 0,0 -0.4884188060260068,0.03368422046897832 l -0.4480321714930885 -7.427252794189816" fill="#ff5908" stroke="none" /><line stroke="#e1ed5e" stroke-width="0.3" x1="102.19456741930631" x2="102.32365962044197" y1="184.97166512339345" y2="189.96999836594603" /><path d="M 102.22038585953345 185.97133177190398 a86.0,86.0 0 0,1 -42.740103519485714,-10.115201625700543" fill="none" id="id31" stroke="none" /><text fill="#e1ed5e" style="font-size:6.75px; font-family:Arial;" text-anchor="middle"><textPath startOffset="22.20632615414155" xlink:href="#id31">July</textPath></text><path d="M 100.54218724476979 120.99299961872073 l 0.3212190245521515 12.437310034492416 a33.4414574128524,33.4414574128524 0 0,0 -0.57557574941631,0.009909058503308985 l -0.10708358524317355 -12.440996570274883" fill="#ff9c0e" stroke="none" /><path d="M 99.45781275523022 120.99299961872073 l -0.48221216591066307 18.67081882275457 a39.67704484347239,39.67704484347239 0 0,0 -0.6825956575066249,-0.023509974611630624 l 0.803528175091931 -18.659752049716843" fill="#ffec16" stroke="none" /><path d="M 98.73552117531835 120.96189622390904 l -0.9354710733198139 15.507770613980558 a36.53596007798865,36.53596007798865 0 0,0 -0.6274394178484312,-0.04327189580126156 l 1.202273251947175 -15.48937037366301" fill="#ffc412" stroke="none" /><path d="M 98.37488393609728 120.93702456842531 l -0.11478520886427457 1.4788240615330048 a22.483272142643752,22.483272142643752 0 0,0 -0.38559420085411666,-0.0332706901454739 l 0.14022372745993295 -1.4766291191088676" fill="#ff0400" stroke="none" /><path d="M 98.01472825383883 120.90594882070398 l -1.1840061241664446 12.468203148051144 a33.52429480023271,33.52429480023271 0 0,0 -0.5740116015213469,-0.05949864948952045 l 1.3984503222933848 -12.445975130105863" fill="#ff9d0e" stroke="none" /><path d="M 96.93821686468263 120.77559828337769 l -2.5288271108589457 17.159248013780175 a38.34458875139546,38.34458875139546 0 0,0 -0.6521577107942251,-0.10185362212533176 l 2.8238206852616883 -17.113176084307735" fill="#ffdb14" stroke="none" /><path d="M 95.86986931433489 120.58985236759428 l -3.901573712313346 19.45043216589696 a40.83788267111119,40.83788267111119 0 0,0 -0.6880376945801915,-0.1441849885644818 l 4.235802868322924 -19.380391196605935" fill="#fffa17" stroke="none" /><path d="M 95.16358092515715 120.4354850818985 l -4.893557778004221 20.67691517676495 a42.248099419802195,42.248099419802195 0 0,0 -0.7062407870078016,-0.17357680269353784 l 5.248751849755234 -20.589617115757385" fill="#f3ff19" stroke="none" /><path d="M 94.46302465271185 120.25689768951611 l -3.9413045284241126 14.419172488209908 a35.948124184342525,35.948124184342525 0 0,0 -0.5954872366113102,-0.1682906412275903 l 4.188922933140037 -14.349193053643795" fill="#ffbd11" stroke="none" /><path d="M 93.76903079525671 120.05430185196036 l -3.7065664760389505 11.92954105570877 a33.49210089781286,33.49210089781286 0 0,0 -0.5490769260560724,-0.17579709244532368 l 3.9113647471859636 -11.86397111660374" fill="#ff9d0e" stroke="none" /><path d="M 92.7421414339146 119.70592522655815 l -8.6567586237548 23.504100636681834 a46.047599018852495,46.047599018852495 0 0,0 -0.7414316424173145,-0.28034600537849386 l 9.060060486932398 -23.351606381196707" fill="#c6ff1e" stroke="none" /><path d="M 91.7346041902142 119.30500536409082 l -8.418896110511174 19.66352710909722 a42.39000023585277,42.39000023585277 0 0,0 -0.6683072704449636,-0.2929662676227984 l 8.75612405561388 -19.515696288179967" fill="#f1ff19" stroke="none" /><path d="M 91.07499286063937 119.00905698771935 l -10.582783116006416 22.539895397243498 a45.90064623657605,45.90064623657605 0 0,0 -0.7123066256715476,-0.3419504671247038 l 10.969202409678205 -22.354390653619234" fill="#c7ff1e" stroke="none" /><path d="M 90.42595943632237 118.69057910512821 l -28.72212169103289 56.07173731538464 a84.0,84.0 0 0,0 -1.2812363898940176,-0.6702823242211329 l 29.683048983453403 -55.569025572218784" fill="#4dd2ff" stroke="none" /><line stroke="#e1ed5e" stroke-width="0.3" x1="58.666819895761336" x2="56.23545636021788" y1="174.27360380694188" y2="178.64263932499728" /><path d="M 58.180547188652646 175.14741091055294 a86.0,86.0 0 0,1 -31.652253787137756,-30.449443065178592" fill="none" id="id32" stroke="none" /><text fill="#e1ed5e" style="font-size:6.75px; font-family:Arial;" text-anchor="middle"><textPath startOffset="22.20632615414155" xlink:href="#id32">August</textPath></text><path d="M 89.7882731507175 118.34994917583269 l -6.051326043332481 10.873922401219133 a33.444305334989544,33.444305334989544 0 0,0 -0.50063136292941,-0.28427155354729977 l 6.2376061731830985 -10.768147681877199" fill="#ff9c0e" stroke="none" /><path d="M 89.4739219176387 118.17145234162733 l -6.324683530234034 10.918471670670089 a33.61802858535512,33.61802858535512 0 0,0 -0.49823860040232293,-0.2943681472830781 l 6.511690001664739 -10.80798495109326" fill="#ff9f0e" stroke="none" /><path d="M 88.8546689885994 117.79835938074946 l -11.857675189689049 18.935926104877577 a43.342196811270625,43.342196811270625 0 0,0 -0.6289121956027602,-0.4014015191843362 l 12.181869187338732 -18.729010156869435" fill="#e6ff1a" stroke="none" /><path d="M 88.24862548938628 117.40417183066458 l -6.99869102001829 10.365291395667228 a33.50683579930502,33.50683579930502 0 0,0 -0.4752276362330608,-0.32686590155803796 l 7.176075540874241 -10.243284704744088" fill="#ff9d0e" stroke="none" /><path d="M 87.95078237400918 117.19931262002967 l -7.269714211476703 10.376946558899808 a33.670034120033336,33.670034120033336 0 0,0 -0.4718176624724458,-0.33662937463818676 l 7.447259201798036 -10.250272922417402" fill="#ff9f0e" stroke="none" /><path d="M 87.07902340077011 116.55440617244103 l -7.654122912810518 9.806492459711205 a33.43997154043303,33.43997154043303 0 0,0 -0.450711113726874,-0.35807216743223796 l 7.82179151925475 -9.673286378273836" fill="#ff9c0e" stroke="none" /><path d="M 86.79598089348748 116.32954008644616 l -20.399128890629804 25.22780300914778 a53.44328134090159,53.44328134090159 0 0,0 -0.710362678611233,-0.5845801232520977 l 20.830361697785726 -24.8729277670385" fill="#74ff27" stroke="none" /><path d="M 86.24171649860922 115.8653595955263 l -8.181521128274998 9.434518101430134 a33.487890925957956,33.487890925957956 0 0,0 -0.43224518669099976,-0.38140612096870957 l 8.342708667872586 -9.292288838689135" fill="#ff9d0e" stroke="none" /><path d="M 85.44109423537348 115.13401014063109 l -17.40808092154083 18.09573311722606 a46.109696103712324,46.109696103712324 0 0,0 -0.5672591516348445,-0.5551824720997739 l 17.716990025551468 -17.793400542203717" fill="#c5ff1e" stroke="none" /><path d="M 85.18274418774928 114.88116024355367 l -8.786438857817592 8.82433334958459 a33.45272527869935,33.45272527869935 0 0,0 -0.4045539619984499,-0.4098110276285108 l 8.937033444871576 -8.671781827975416" fill="#ff9c0e" stroke="none" /><path d="M 84.43433777217949 114.09645910891817 l -9.216742395176366 8.346797610629377 a33.43452334156198,33.43452334156198 0 0,0 -0.3826519905414519,-0.42991356783922524 l 9.359053235366156 -8.186909873049288" fill="#ff9c0e" stroke="none" /><path d="M 83.95833913139862 113.55231037782056 l -9.5006716946363 8.026354169816791 a33.437247440997496,33.437247440997496 0 0,0 -0.36765686603218745,-0.4428663794673881 l 9.637424560562023 -7.861626533235642" fill="#ff9c0e" stroke="none" /><path d="M 83.06392112726016 112.41649034213515 l -42.73621074013862 31.331558615287673 a73.99103956037045,73.99103956037045 0 0,0 -0.7442096542040995,-1.0336421192737182 l 43.26920018671832 -30.591282890562816" fill="#41ffcb" stroke="none" /><line stroke="#e1ed5e" stroke-width="0.3" x1="26.63291911575756" x2="22.317208475507996" y1="142.92168965132927" y2="145.44649492493687" /><path d="M 25.769776987707644 143.4266507060508 a86.0,86.0 0 0,1 -11.730757126820373,-40.83630448921669" fill="none" id="id33" stroke="none" /><text fill="#e1ed5e" style="font-size:6.75px; font-family:Arial;" text-anchor="middle"><textPath startOffset="21.46611528233685" xlink:href="#id33">September</textPath></text><path d="M 81.69416730710424 110.29060199501025 l -6.691880072568855 3.7618323941019822 a28.676759854714696,28.676759854714696 0 0,0 -0.23818587710266398,-0.4323765527061166 l 6.755642359123035 -3.646085322998043" fill="#ff5c08" stroke="none" /><path d="M 80.73074385275274 108.34839909993369 l -1.5486090265981798 0.6709343684576188 a22.687703423009797,22.687703423009797 0 0,0 -0.15216860791099415,-0.3596816392214785 l 1.5599286157014804 -0.6441782035699815" fill="#ff0701" stroke="none" /><path d="M 79.86692584326677 105.97154293290107 l -7.883243381536167 2.3381986246550364 a29.222694146134373,29.222694146134373 0 0,0 -0.1388876212290264,-0.48348602984238054 l 7.922323639651298 -2.2021551193080597" fill="#ff6309" stroke="none" /><path d="M 79.67330655649465 105.27499134158121 l -12.038721420303414 3.1241751853201287 a33.43749508640073,33.43749508640073 0 0,0 -0.13978255937621706,-0.5583618403374875 l 12.09071529397469 -2.9164855055852494" fill="#ff9c0e" stroke="none" /><path d="M 79.35854240842038 103.8639653848113 l -1.2305958684990816 0.2303606621516868 a22.251971336027296,22.251971336027296 0 0,0 -0.06723651172558705,-0.37709806465305307 l 1.2343788225638572 -0.20914384676542006" fill="#ff0000" stroke="none" /><path d="M 79.29508885075956 103.50808413554451 l -8.597190294112297 1.4566431444038819 a29.719718470416204,29.719718470416204 0 0,0 -0.08111819636193333,-0.5051230861791323 l 8.62099024483552 -1.308440828531536" fill="#ff6a09" stroke="none" /><line stroke="#e1ed5e" stroke-width="0.3" x1="15.007084014347285" x2="10.007500721073583" y1="101.09737516637583" y2="101.16192664675087" /><path d="M 14.007167355692545 101.11028546245083 a86.0,86.0 0 0,1 10.666146001902534,-42.60595125391555" fill="none" id="id34" stroke="none" /><text fill="#e1ed5e" style="font-size:6.75px; font-family:Arial;" text-anchor="middle"><textPath startOffset="22.20632615414155" xlink:href="#id34">October</textPath></text><path d="M 79.00175016825051 100.2711162175752 l -12.552470730822764 0.16206962070803158 a33.5535169578138,33.5535169578138 0 0,0 -0.002485680822760835,-0.5775846834848541 l 12.553400708935028 0.05402454098049791" fill="#ff9e0e" stroke="none" /><path d="M 79.01574976396665 99.18683210126434 l -12.431631540286888 -0.48174242985876015 a33.440962122045946,33.440962122045946 0 0,0 0.027240676148021194,-0.57500761933864 l 12.421497255905368 0.6956611558204092" fill="#ff9c0e" stroke="none" /><path d="M 79.12142395522702 97.74499172005258 l -14.873129355365124 -1.6063849264985695 a35.959627313322535,35.959627313322535 0 0,0 0.07176453746780237,-0.6148347311596564 l 14.843274464893733 1.8621633959830877" fill="#ffbd11" stroke="none" /><path d="M 79.54389044137918 95.25157060432595 l -7.369139862223651 -1.7105813909697976 a28.565071777858144,28.565071777858144 0 0,0 0.11530386404561258,-0.47800895625946294 l 7.338603197917224 1.8371755788886572" fill="#ff5a08" stroke="none" /><path d="M 79.62865764111835 94.90015583598534 l -1.2136514127235105 -0.30383039886557195 a22.251104577115992,22.251104577115992 0 0,0 0.09621342454950123,-0.37074957271518677 l 1.208241656303702 0.3246763971296226" fill="#ff0000" stroke="none" /><path d="M 80.52162464483688 92.15188598940014 l -2.3460900538482745 -0.9452729956174216 a23.52936347269611,23.52936347269611 0 0,0 0.15459723240971804,-0.3743694608226074 l 2.3294711345523567 0.9855170268933403" fill="#ff1302" stroke="none" /><path d="M 81.43458229118936 90.18545643968196 l -1.1051851671497523 -0.584252298296579 a22.250113995503074,22.250113995503074 0 0,0 0.18191258878540978,-0.33705639928522974 l 1.0949644791458708 0.6031896809142814" fill="#ff0000" stroke="none" /><line stroke="#e1ed5e" stroke-width="0.3" x1="26.266209847984243" x2="21.928928074336255" y1="57.711370442889674" y2="55.22380399835377" /><path d="M 25.398753493254645 57.213857153982495 a86.0,86.0 0 0,1 29.58750427330803,-30.492523968695096" fill="none" id="id35" stroke="none" /><text fill="#e1ed5e" style="font-size:6.75px; font-family:Arial;" text-anchor="middle"><textPath startOffset="21.46611528233685" xlink:href="#id35">November</textPath></text><line stroke="#e1ed5e" stroke-width="0.3" x1="56.762969772571076" x2="54.21961505331055" y1="26.818313649435495" y2="22.513508569990535" /><path d="M 56.25429882871897 25.957352633546506 a86.0,86.0 0 0,1 42.265352541879196,-11.944610805530505" fill="none" id="id36" stroke="none" /><text fill="#e1ed5e" style="font-size:6.75px; font-family:Arial;" text-anchor="middle"><textPath startOffset="22.20632615414155" xlink:href="#id36">December</textPath></text></svg>