<?xml version="1.0" encoding="utf-8" ?>
<svg baseProfile="full" height="200mm" version="1.1" viewBox="0,0,200,200" width="200mm" xmlns="http://www.w3.org/2000/svg" xmlns:ev="http://www.w3.org/2001/xml-events" xmlns:xlink="http://www.w3.org/1999/xlink"><defs /><rect fill="#1a1a1a" height="200" width="200" x="0" y="0" /><text alignment-baseline="middle" fill="#e1ed5e" style="dominant-baseline: central; font-size:9.0px; font-family:Arial;" text-anchor="middle" x="100.0" y="100.0">2025</text><line stroke="#e1ed5e" stroke-width="0.3" x1="100.0" x2="100.0" y1="15.0" y2="10.0" /><path d="M 100.0 14.0 a86.0,86.0 0 0,1 42.46469731375804,11.215312516191453" fill="none" id="id121" stroke="none" /><text fill="#e1ed5e" style="font-size:6.75px; font-family:Arial;" text-anchor="middle"><textPath startOffset="22.20632615414155" xlink:href="#id121">January</textPath></text><path d="M 100.0 79.0 l 0.0 -24.23039639951532 a45.23039639951532,45.23039639951532 0 0,0 0.77856692229444,0.0067013713025379645 l -0.4170864430219116 24.226806404821343" fill="#ffab0f" stroke="none" /><path d="M 100.36148047927253 79.00311137660856 l 0.5918510230129401 -34.378149649607955 a55.38324389821707,55.38324389821707 0 0,0 0.9530490095867623,0.024614444149164378 l -1.1835266677945702 34.362868413316434" fill="#b5ff20" stroke="none" /><path d="M 101.08401301168833 79.027996857942 l 1.3571585210093684 -26.256449378360994 a47.29150077895101,47.29150077895101 0 0,0 0.8125984880179324,0.04901815990745554 l -1.8089190578669125 26.22919794907323" fill="#ffcd13" stroke="none" /><path d="M 101.44485096284872 79.0497635885617 l 3.472594370567648 -50.352371902069635 a71.4719750735676,71.4719750735676 0 0,0 1.2266286191506655,0.09520998874074538 l -4.338813179080654 50.28513665114043" fill="#39ff8b" stroke="none" /><path d="M 102.16513564639614 79.11191278185805 l 3.4060503296603857 -32.859777849831055 a54.03583174658127,54.03583174658127 0 0,0 0.924355712710392,0.1038621346130377 l -3.971172745880503 32.796279761747414" fill="#c9ff1d" stroke="none" /><path d="M 102.52436894288641 79.15227682838746 l 2.9125429220446932 -24.053492155072668 a45.229184697940106,45.229184697940106 0 0,0 0.7720950740861825,0.1002400998933858 l -3.326152724638722 23.999793732015146" fill="#ffab0f" stroke="none" /><path d="M 102.88285421437855 79.19881850522331 l 4.923857111523845 -35.52800031313164 a56.867578327851824,56.867578327851824 0 0,0 0.968457619902044,0.14272547858504442 l -5.534683711854545 35.43798035038563" fill="#a0ff22" stroke="none" /><path d="M 103.59715602781102 79.31037775812273 l 4.422814482524103 -25.438529822408565 a46.82014886619353,46.82014886619353 0 0,0 0.7928320651193763,0.14488499224554055 l -4.86004166874638 25.358629348812286" fill="#ffc512" stroke="none" /><path d="M 103.95276090670814 79.375362276772 l 10.512232041040084 -54.850516544275976 a76.84877964341354,76.84877964341354 0 0,0 1.297037566527845,0.26017353394957465 l -11.454836017035054 54.66143905424919" fill="#42ffd4" stroke="none" /><path d="M 104.66035177308747 79.52364482259891 l 6.46791536541879 -28.41831233523908 a50.14505798857539,50.14505798857539 0 0,0 0.839992553155786,0.198799098261052 l -6.9561316055371 28.30276732483716" fill="#fffa17" stroke="none" /><path d="M 105.36241919743992 79.69619591428918 l 7.583069049152256 -28.711882207177947 a50.69638220529687,50.69638220529687 0 0,0 0.8418064516051678,0.2300975026466275 l -8.076173389981134 28.577098163705028" fill="#fbff18" stroke="none" /><path d="M 105.71112130821622 79.79150937346287 l 5.958599936250973 -21.084180226706145 a42.90998788298425,42.90998788298425 0 0,0 0.7090564548935592,0.20699302279164233 l -6.320646608867959 20.9784888749958" fill="#ff840c" stroke="none" /><path d="M 106.40334571778207 80.00007090966166 l 4.439298336408468 -13.865509665122229 a35.5588367664878,35.5588367664878 0 0,0 0.5813314039530073,0.19165582396535702 l -4.677312562603893 13.787040116897636" fill="#ff0000" stroke="none" /><path d="M 107.08798089147638 80.2323363322302 l 8.75538023915102 -24.417872240471734 a46.94010732213952,46.94010732213952 0 0,0 0.7582340016096105,0.2792639817927867 l -9.174396566533208 24.263544990872624" fill="#ffc712" stroke="none" /><path d="M 107.4271985657038 80.35727306442388 l 8.572712486777387 -22.67226989898244 a45.23887831054181,45.23887831054181 0 0,0 0.7260125517706671,0.2816815908052874 l -8.96170820354772 22.521345604286605" fill="#ffab0f" stroke="none" /><path d="M 107.76421540070413 80.48803036053334 l 12.919303198055847 -32.46703481985688 a55.943050025965036,55.943050025965036 0 0,0 0.8916686299102037,0.3637340226063313 l -13.476255697554437 32.239839911066966" fill="#adff20" stroke="none" /><path d="M 108.43124777332544 80.76684994638697 l 25.2937433199763 -57.69945016083909 a84.0,84.0 0 0,0 1.3192715261328791,0.591918677933875 l -26.283196964575957 57.255511152388685" fill="#4dd2ff" stroke="none" /><path d="M 108.76106565485865 80.91482961587045 l 11.32654994303635 -24.673840380059254 a48.14938549420114,48.14938549420114 0 0,0 0.7502632402970327,0.35225865125118017 l -11.74959139463298 24.475216746168073" fill="#ffdb14" stroke="none" /><path d="M 109.08828744355905 81.06846463323043 l 10.483702185196043 -21.838281406292605 a45.22433789163926,45.22433789163926 0 0,0 0.6988855750602766,0.3429401164553497 l -10.858059027266751 21.654586129702423" fill="#ffab0f" stroke="none" /><path d="M 109.41281617654863 81.2277094730956 l 20.147586918541787 -40.18099875287321 a65.94928163406612,65.94928163406612 0 0,0 1.0104042722293463,0.5175683125507202 l -20.83625167835989 39.828237915009986" fill="#30ff39" stroke="none" /><path d="M 110.05341064243156 81.56283822128135 l 16.27479597161501 -29.846691527536237 a54.99549939414921,54.99549939414921 0 0,0 0.8272263556221535,0.4603505712847565 l -16.7861464163092 29.5621255586913" fill="#bbff1f" stroke="none" /><line stroke="#e1ed5e" stroke-width="0.3" x1="143.23703022742887" x2="145.7803849466894" y1="26.81831364943548" y2="22.513508569990506" /><path d="M 143.74570117128098 25.957352633546492 a86.0,86.0 0 0,1 28.547481713284135,27.462654790039103" fill="none" id="id122" stroke="none" /><text fill="#e1ed5e" style="font-size:6.75px; font-family:Arial;" text-anchor="middle"><textPath startOffset="19.985693538727396" xlink:href="#id122">February</textPath></text><path d="M 110.68208982089419 81.91981866633111 l 13.361395368838744 -22.61509266350897 a47.26726674744677,47.26726674744677 0 0,0 0.6969399433913899,0.41989851777906084 l -13.748697378447773 22.381747536271295" fill="#ffcc13" stroke="none" /><path d="M 110.99172775467656 82.1063720568725 l 30.445265658963322 -49.562386231717284 a79.16652241647914,79.16652241647914 0 0,0 1.1550050591286238,0.7232640620659765 l -31.29388987046421 49.03097782832836" fill="#45fff2" stroke="none" /><path d="M 111.60114157652 82.49532879139004 l 24.99289268031433 -37.71114816893834 a66.24130171369222,66.24130171369222 0 0,0 0.9450277633248612,0.6380869643099822 l -25.638325138045733 37.275349292329686" fill="#31ff3d" stroke="none" /><path d="M 111.90073688211348 82.69761687909136 l 13.73621490911072 -19.97096947381319 a45.23887831054181,45.23887831054181 0 0,0 0.6378011022817144,0.4468204313316292 l -14.077947150976085 19.731564199717628" fill="#ffab0f" stroke="none" /><path d="M 112.19680574252982 82.90503203632743 l 23.056473933227274 -32.315812153126814 a60.697767007097106,60.697767007097106 0 0,0 0.8453022022900964,0.6141479989803419 l -23.60932145187116 31.914144919329797" fill="#6bff28" stroke="none" /><line stroke="#e1ed5e" stroke-width="0.3" x1="172.23445277983987" x2="176.4835382374775" y1="55.19839476539836" y2="52.563006222186495" /><path d="M 173.08426987136738 54.67131705675599 a86.0,86.0 0 0,1 12.851231095245387,41.99856678651699" fill="none" id="id123" stroke="none" /><text fill="#e1ed5e" style="font-size:6.75px; font-family:Arial;" text-anchor="middle"><textPath startOffset="22.20632615414155" xlink:href="#id123">March</textPath></text><line stroke="#e1ed5e" stroke-width="0.3" x1="184.98032266829074" x2="189.97916517819016" y1="98.17113171792111" y2="98.06355123074" /><path d="M 185.9800911702706 98.14961562048488 a86.0,86.0 0 0,1 -9.607161424134198,41.387399972396054" fill="none" id="id124" stroke="none" /><text fill="#e1ed5e" style="font-size:6.75px; font-family:Arial;" text-anchor="middle"><textPath startOffset="21.466115282336823" xlink:href="#id124">April</textPath></text><line stroke="#e1ed5e" stroke-width="0.3" x1="174.80103733775053" x2="179.2010983576182" y1="140.37084112569926" y2="142.7455964860345" /><path d="M 175.68104954172406 140.8457921977663 a86.0,86.0 0 0,1 -30.038265399797805,32.042727171017184" fill="none" id="id125" stroke="none" /><text fill="#e1ed5e" style="font-size:6.75px; font-family:Arial;" text-anchor="middle"><textPath startOffset="22.206326154141568" xlink:href="#id125">May</textPath></text><line stroke="#e1ed5e" stroke-width="0.3" x1="143.8653032363475" x2="146.44561519142675" y1="172.8068346515853" y2="177.08958963109032" /><path d="M 144.38136562736335 173.6633856474863 a86.0,86.0 0 0,1 -40.68145358897372,12.25698825130547" fill="none" id="id126" stroke="none" /><text fill="#e1ed5e" style="font-size:6.75px; font-family:Arial;" text-anchor="middle"><textPath startOffset="21.466115282336833" xlink:href="#id126">June</textPath></text><line stroke="#e1ed5e" stroke-width="0.3" x1="102.19456741930631" x2="102.32365962044197" y1="184.97166512339345" y2="189.96999836594603" /><path d="M 102.22038585953345 185.97133177190398 a86.0,86.0 0 0,1 -42.740103519485714,-10.115201625700543" fill="none" id="id127" stroke="none" /><text fill="#e1ed5e" style="font-size:6.75px; font-family:Arial;" text-anchor="middle"><textPath startOffset="22.20632615414155" xlink:href="#id127">July</textPath></text><line stroke="#e1ed5e" stroke-width="0.3" x1="58.666819895761336" x2="56.23545636021788" y1="174.27360380694188" y2="178.64263932499728" /><path d="M 58.180547188652646 175.14741091055294 a86.0,86.0 0 0,1 -31.652253787137756,-30.449443065178592" fill="none" id="id128" stroke="none" /><text fill="#e1ed5e" style="font-size:6.75px; font-family:Arial;" text-anchor="middle"><textPath startOffset="22.20632615414155" xlink:href="#id128">August</textPath></text><line stroke="#e1ed5e" stroke-width="0.3" x1="26.63291911575756" x2="22.317208475507996" y1="142.92168965132927" y2="145.44649492493687" /><path d="M 25.769776987707644 143.4266507060508 a86.0,86.0 0 0,1 -11.730757126820373,-40.83630448921669" fill="none" id="id129" stroke="none" /><text fill="#e1ed5e" style="font-size:6.75px; font-family:Arial;" text-anchor="middle"><textPath startOffset="21.46611528233685" xlink:href="#id129">September</textPath></text><line stroke="#e1ed5e" stroke-width="0.3" x1="15.007084014347285" x2="10.007500721073583" y1="101.09737516637583" y2="101.16192664675087" /><path d="M 14.007167355692545 101.11028546245083 a86.0,86.0 0 0,1 10.666146001902534,-42.60595125391555" fill="none" id="id130" stroke="none" /><text fill="#e1ed5e" style="font-size:6.75px; font-family:Arial;" text-anchor="middle"><textPath startOffset="22.20632615414155" xlink:href="#id130">October</textPath></text><line stroke="#e1ed5e" stroke-width="0.3" x1="26.266209847984243" x2="21.928928074336255" y1="57.711370442889674" y2="55.22380399835377" /><path d="M 25.398753493254645 57.213857153982495 a86.0,86.0 0 0,1 29.58750427330803,-30.492523968695096" fill="none" id="id131" stroke="none" /><text fill="#e1ed5e" style="font-size:6.75px; font-family:Arial;" text-anchor="middle"><textPath startOffset="21.46611528233685" xlink:href="#id131">November</textPath></text><line stroke="#e1ed5e" stroke-width="0.3" x1="56.762969772571076" x2="54.21961505331055" y1="26.818313649435495" y2="22.513508569990535" /><path d="M 56.25429882871897 25.957352633546506 a86.0,86.0 0 0,1 42.265352541879196,-11.944610805530505" fill="none" id="id132" stroke="none" /><text fill="#e1ed5e" style="font-size:6.75px; font-family:Arial;" text-anchor="middle"><textPath startOffset="22.20632615414155" xlink:href="#id132">December</textPath></text></svg>