<?xml version="1.0" encoding="utf-8" ?>
<svg baseProfile="full" height="200mm" version="1.1" viewBox="0,0,200,200" width="200mm" xmlns="http://www.w3.org/2000/svg" xmlns:ev="http://www.w3.org/2001/xml-events" xmlns:xlink="http://www.w3.org/1999/xlink"><defs /><rect fill="#1a1a1a" height="200" width="200" x="0" y="0" /><text alignment-baseline="middle" fill="#e1ed5e" style="dominant-baseline: central; font-size:9.0px; font-family:Arial;" text-anchor="middle" x="100.0" y="100.0">2023</text><line stroke="#e1ed5e" stroke-width="0.3" x1="100.0" x2="100.0" y1="15.0" y2="10.0" /><path d="M 100.0 14.0 a86.0,86.0 0 0,1 42.46469731375804,11.215312516191453" fill="none" id="id97" stroke="none" /><text fill="#e1ed5e" style="font-size:6.75px; font-family:Arial;" text-anchor="middle"><textPath startOffset="22.20632615414155" xlink:href="#id97">January</textPath></text><path d="M 101.44485096284872 79.0497635885617 l 0.946532715743453 -13.724657197091387 a34.75725769765345,34.75725769765345 0 0,0 0.5965169840521709,0.04630119862570612 l -1.182639889157965 13.706330736277218" fill="#ffb310" stroke="none" /><path d="M 102.52436894288641 79.15227682838746 l 1.6439930439752477 -13.577061298204569 a34.676231448167414,34.676231448167414 0 0,0 0.5919484878581457,0.07685190275934323 l -1.8774562603412395 13.54675107228109" fill="#ffb210" stroke="none" /><path d="M 103.2404852339499 79.25152402106235 l 2.0539385621584776 -13.151146153260859 a34.31057131612124,34.31057131612124 0 0,0 0.582741843292843,0.0961573972681074 l -2.2800096115901956 13.113842493053127" fill="#ffad10" stroke="none" /><path d="M 104.66035177308747 79.52364482259891 l 6.502891744757814 -28.5719893109346 a50.30266496802297,50.30266496802297 0 0,0 0.8426326675433594,0.19942392803791587 l -6.993748099263696 28.455819470755817" fill="#93ff23" stroke="none" /><path d="M 106.0581310904928 79.89281104454417 l 3.861521216312034 -12.816549459244504 a34.38563730814818,34.38563730814818 0 0,0 0.5652583317827046,0.1756285152214544 l -4.081564920805457 12.748180809140528" fill="#ffae10" stroke="none" /><path d="M 109.73455568895987 81.39251694778311 l 4.99868804066474 -9.554930494205927 a31.783486397125515,31.783486397125515 0 0,0 0.4825867655392148,0.2577811371129806 l -5.162419852732265 9.467470630591192" fill="#ff8c0c" stroke="none" /><line stroke="#e1ed5e" stroke-width="0.3" x1="143.23703022742887" x2="145.7803849466894" y1="26.81831364943548" y2="22.513508569990506" /><path d="M 143.74570117128098 25.957352633546492 a86.0,86.0 0 0,1 28.547481713284135,27.462654790039103" fill="none" id="id98" stroke="none" /><text fill="#e1ed5e" style="font-size:6.75px; font-family:Arial;" text-anchor="middle"><textPath startOffset="19.985693538727396" xlink:href="#id98">February</textPath></text><path d="M 110.99172775467656 82.1063720568725 l 7.02555410863877 -11.43702374367915 a34.422515511143644,34.422515511143644 0 0,0 0.5022094990372907,0.3144835422243635 l -7.221382760048323 11.314395860131842" fill="#ffaf10" stroke="none" /><path d="M 111.60114157652 82.49532879139004 l 12.084772797386435 -18.23441021331444 a42.875453124264126,42.875453124264126 0 0,0 0.6116802133915191,0.41300921056359047 l -12.396857705184496 18.023689090452176" fill="#e7ff1a" stroke="none" /><path d="M 112.48926042617603 83.11751280151076 l 7.91244134924452 -10.695724584895833 a34.30433209526805,34.30433209526805 0 0,0 0.471690849298019,0.35526776851442465 l -8.095378352300921 10.557940226875562" fill="#ffad10" stroke="none" /><path d="M 113.06298171725822 83.55741782278167 l 8.30711379662357 -10.45629582991991 a34.35448471910669,34.35448471910669 0 0,0 0.4598537570766197,0.3718364242040753 l -8.485870952264682 10.311753308451705" fill="#ffae10" stroke="none" /><path d="M 114.16331599549186 84.49514656593476 l 9.160365038111594 -10.028027148703275 a34.58210646868103,34.58210646868103 0 0,0 0.4360509121273318,0.4052618002771862 l -9.331623834033772 9.86886076235145" fill="#ffb110" stroke="none" /><path d="M 114.68862486808459 84.99185889309783 l 9.303671511208217 -9.506050845907861 a34.30125205660929,34.30125205660929 0 0,0 0.4184167993495382,0.4166199846407103 l -9.465924110725078 9.344495010617033" fill="#ffad10" stroke="none" /><path d="M 115.68641384162765 86.03803664274999 l 16.298769985924316 -14.507001511577437 a42.819784506520165,42.819784506520165 0 0,0 0.4853074815426187,0.5547903452841034 l -16.546069331044784 14.224295610090385" fill="#e7ff1a" stroke="none" /><path d="M 116.15771136456269 86.58626213691792 l 10.438930798142094 -8.666145726816051 a34.56736370732397,34.56736370732397 0 0,0 0.37612832057460693,0.461088847111231 l -10.58655761079311 8.48517271009672" fill="#ffb110" stroke="none" /><path d="M 116.60985879189232 87.15038557335679 l 10.502326928240075 -8.124744063225267 a34.278190275807574,34.278190275807574 0 0,0 0.3570221399473784,0.4697992865059111 l -10.640625008411567 7.942760000838322" fill="#ffad10" stroke="none" /><path d="M 117.04232023915458 87.72973835380427 l 13.174623566883943 -9.485567457205686 a37.23412135331917,37.23412135331917 0 0,0 0.37001386852992757,0.5233583765204728 l -13.335950055217754 9.25738258035342" fill="#ffd313" stroke="none" /><path d="M 117.65298651832404 88.62581576622439 l 11.254079298572606 -7.251235998544103 a34.38785734780373,34.38785734780373 0 0,0 0.31632309827744864,0.5003471763185594 l -11.377229993096009 7.056441174511337" fill="#ffae10" stroke="none" /><line stroke="#e1ed5e" stroke-width="0.3" x1="172.23445277983987" x2="176.4835382374775" y1="55.19839476539836" y2="52.563006222186495" /><path d="M 173.08426987136738 54.67131705675599 a86.0,86.0 0 0,1 12.851231095245387,41.99856678651699" fill="none" id="id99" stroke="none" /><text fill="#e1ed5e" style="font-size:6.75px; font-family:Arial;" text-anchor="middle"><textPath startOffset="22.20632615414155" xlink:href="#id99">March</textPath></text><path d="M 118.03404312379186 89.2402003453031 l 12.055889317622515 -7.193004520749083 a35.03865311467882,35.03865311467882 0 0,0 0.3045698640797501,0.5206086254842907 l -12.177918856172592 6.984416482910897" fill="#ffb710" stroke="none" /><path d="M 118.73160827565052 90.50648371742162 l 13.187652684368064 -6.683739786016262 a35.784673173617904,35.784673173617904 0 0,0 0.2737356873845954,0.5518344421892862 l -13.300748384706068 6.455745755328026" fill="#ffc011" stroke="none" /><path d="M 119.04729006885535 91.15688171328212 l 12.691650864720682 -5.892374686620969 a34.9927867531631,34.9927867531631 0 0,0 0.2489448220913453,0.5485169165916336 l -12.791198003775374 5.673035761187273" fill="#ffb610" stroke="none" /><path d="M 119.34039704204932 91.81776055985345 l 12.967164720952749 -5.48594976493895 a35.07987946410605,35.07987946410605 0 0,0 0.23048869489013707,0.5581466568757516 l -13.059675102729082 5.261928537609895" fill="#ffb711" stroke="none" /><path d="M 119.61058180528143 92.48833698450437 l 28.00046653694039 -10.725335484208488 a50.98431169020127,50.98431169020127 0 0,0 0.3068658598116375,0.8222479401883837 l -28.180936985253656 10.241764406990772" fill="#8bff24" stroke="none" /><path d="M 119.97218684219823 93.5106431181261 l 19.671539038127985 -6.391670488702304 a41.683880191219956,41.683880191219956 0 0,0 0.21585206600277462,0.6843100361249601 l -19.778646587898965 6.052110286150925" fill="#f5ff19" stroke="none" /><path d="M 120.37134235888165 94.90015583598534 l 21.054671917554124 -5.270911646976818 a42.704417042299895,42.704417042299895 0 0,0 0.17237780234142389,0.7146172772399965 l -21.142282520156368 4.907709138077416" fill="#e9ff1a" stroke="none" /><path d="M 120.53481517161879 95.60439243477599 l 13.68712105782122 -2.929815163422927 a34.99718185004667,34.99718185004667 0 0,0 0.12102476128291813,0.5901597170846443 l -13.735525115019135 2.693779790174871" fill="#ffb610" stroke="none" /><path d="M 120.67395015179393 96.31383870115 l 13.557014924232748 -2.417213129311052 a34.7708232494787,34.7708232494787 0 0,0 0.09998787092596995,0.5901340741939185 l -13.596614656678941 2.1834932668012956" fill="#ffb310" stroke="none" /><path d="M 120.73433829027371 96.67025291283417 l 13.85479451205274 -2.224954615090335 a35.03231107160964,35.03231107160964 0 0,0 0.09049030546838037,0.5962180510452368 l -13.89104071096042 1.986137451653016" fill="#ffb710" stroke="none" /><path d="M 120.83666639777658 97.38593545837742 l 20.6668856958033 -2.592764699104222 a41.82888842805396,41.82888842805396 0 0,0 0.08347780706057172,0.7151868718573277 l -20.70845385586746 2.2366340889220417" fill="#f3ff19" stroke="none" /><path d="M 120.87857604477298 97.74499172005257 l 14.086547140279238 -1.5214294484968958 a35.16847055620552,35.16847055620552 0 0,0 0.05982470731559863,0.6024266384175112 l -14.110648973277065 1.2787272793749496" fill="#ffb811" stroke="none" /><path d="M 120.94382443527127 98.46500227214037 l 22.50092266231278 -1.6491193033125757 a43.56127467879284,43.56127467879284 0 0,0 0.04837253240970327,0.74830166618849 l -22.5259757857269 1.2615585728710503" fill="#dfff1b" stroke="none" /><line stroke="#e1ed5e" stroke-width="0.3" x1="184.98032266829074" x2="189.97916517819016" y1="98.17113171792111" y2="98.06355123074" /><path d="M 185.9800911702706 98.14961562048488 a86.0,86.0 0 0,1 -9.607161424134198,41.387399972396054" fill="none" id="id100" stroke="none" /><text fill="#e1ed5e" style="font-size:6.75px; font-family:Arial;" text-anchor="middle"><textPath startOffset="21.466115282336823" xlink:href="#id100">April</textPath></text><path d="M 120.99513854157772 99.54816195383933 l 15.702257776925125 -0.3379295383160562 a36.70589366021151,36.70589366021151 0 0,0 0.008157435450004618,0.6318023654121329 l -15.705748219492845 0.06759091484346061" fill="#ffcc13" stroke="none" /><path d="M 120.99824983174949 100.27111621757518 l 13.752589684866537 0.17756480311930242 a34.753735939722134,34.753735939722134 0 0,0 -0.0128720180762363,0.5981121003788896 l -13.747495604105294 -0.4142667192883069" fill="#ffb310" stroke="none" /><path d="M 120.9764740272857 100.99374915477107 l 21.520559332380667 1.0195249029429527 a42.544695518995795,42.544695518995795 0 0,0 -0.04095159746751836,0.7312182825096742 l -21.49982138402562 -1.3898149017880501" fill="#ebff1a" stroke="none" /><path d="M 120.89721153311464 102.0752229133903 l 29.25648411342646 2.9053506062860217 a50.40038987538467,50.40038987538467 0 0,0 -0.09316319706724377,0.8625754999835128 l -29.202138614858164 -3.408522428154326" fill="#91ff23" stroke="none" /><path d="M 120.64145759157962 103.86396538481128 l 14.281866132112304 2.673485441624155 a35.52994234751648,35.52994234751648 0 0,0 -0.11770573668988149,0.6001790155166089 l -14.233730462446758 -2.9189281842087085" fill="#ffbd11" stroke="none" /><path d="M 120.41448212921028 104.9243191809786 l 27.47916004055596 6.628439262305452 a49.267303436807694,49.267303436807694 0 0,0 -0.20595770556875137,0.8226986544404502 l -27.36099102069215 -7.100465756143298" fill="#9eff22" stroke="none" /><path d="M 120.23288151984713 105.62410040840565 l 13.616766840647772 3.7850300202929468 a35.133039002531746,35.133039002531746 0 0,0 -0.1669779038581199,0.5812719887731244 l -13.549596299903552 -4.018859484570653" fill="#ffb811" stroke="none" /><path d="M 120.02730092923936 106.31721596034902 l 13.285791984108696 4.190740303170557 a34.93106503228037,34.93106503228037 0 0,0 -0.1858128878267204,0.5718732658592935 l -13.21168684526573 -4.418812469007645" fill="#ffb510" stroke="none" /><path d="M 119.67450827220406 107.3425965602758 l 13.432148820470905 5.012925779987151 a35.33708641289916,35.33708641289916 0 0,0 -0.21758511503268715,0.568046075703594 l -13.343869425844712 -5.243395422523889" fill="#ffbb11" stroke="none" /><path d="M 119.41010516605496 108.01547362559984 l 13.607817058836199 5.619397618094298 a35.72244255200194,35.72244255200194 0 0,0 -0.23959385632683736,0.5663291014756414 l -13.509072221317053 -5.852801245236102" fill="#ffbf11" stroke="none" /><path d="M 118.97047184881838 109.00673069616215 l 13.024743192206227 6.183839561490919 a35.41817626973615,35.41817626973615 0 0,0 -0.2662211324201837,0.5484943848803238 l -12.916368803171329 -6.407122902336519" fill="#ffbc11" stroke="none" /><line stroke="#e1ed5e" stroke-width="0.3" x1="174.80103733775053" x2="179.2010983576182" y1="140.37084112569926" y2="142.7455964860345" /><path d="M 175.68104954172406 140.8457921977663 a86.0,86.0 0 0,1 -30.038265399797805,32.042727171017184" fill="none" id="id101" stroke="none" /><text fill="#e1ed5e" style="font-size:6.75px; font-family:Arial;" text-anchor="middle"><textPath startOffset="22.206326154141568" xlink:href="#id101">May</textPath></text><path d="M 117.94076556474637 110.91462005526583 l 13.708439347243242 8.339800577954406 a37.045983392023544,37.045983392023544 0 0,0 -0.3361223711644699,0.5419362860100372 l -13.56285233641081 -8.574533195329716" fill="#ffd013" stroke="none" /><path d="M 117.75023020441432 111.22182372390056 l 12.446770182248725 7.868937997342742 a35.72556529223039,35.72556529223039 0 0,0 -0.33309009225354086,0.5169632201383163 l -12.309475226618135 -8.08202281740251" fill="#ffc011" stroke="none" /><path d="M 117.14729908036423 112.12312394758627 l 12.020641008844155 8.49858162481882 a35.72147071108094,35.72147071108094 0 0,0 -0.3592903076306352,0.49902281288061107 l -11.872570908837917 -8.704238043150564" fill="#ffbf11" stroke="none" /><path d="M 116.27256486870786 113.27417163493432 l 16.234126998255373 13.24281635113092 a41.95039532575136,41.95039532575136 0 0,0 -0.4612625755601519,0.5556204866421354 l -16.003768422801677 -13.520298094886826" fill="#f2ff19" stroke="none" /><path d="M 115.80600337817218 113.82643327865902 l 12.299730754618313 10.759292058551148 a37.34153426815565,37.34153426815565 0 0,0 -0.4273670143764059,0.4801513711385055 l -12.112704890593568 -10.96941759943052" fill="#ffd413" stroke="none" /><path d="M 115.07121518719521 114.62390073753431 l 9.822378906411684 9.530850190225932 a34.686352060708174,34.686352060708174 0 0,0 -0.4194725851638611,0.42492351413097806 l -9.656865696192288 -9.698514198337575" fill="#ffb210" stroke="none" /><path d="M 114.55890576462653 115.13401014063108 l 19.019255895138233 19.77055255647251 a48.43368081743666,48.43368081743666 0 0,0 -0.6057996361568546,0.5728213680930834 l -18.67612042459057 -20.095008561311516" fill="#a7ff21" stroke="none" /><path d="M 114.0293411484842 115.62618273729858 l 10.960579296082553 12.208129603131248 a37.40648429470991,37.40648429470991 0 0,0 -0.4828244580457499,0.42603644718823513 l -10.748812485130214 -12.394989192091773" fill="#ffd513" stroke="none" /><path d="M 113.20401910651253 116.32954008644616 l 10.21181226472385 12.629048503104908 a37.24111990669796,37.24111990669796 0 0,0 -0.5019438072574075,0.3987745176897599 l -9.992910964749091 -12.802956934799795" fill="#ffd313" stroke="none" /><path d="M 112.63410532772338 116.77436683061366 l 12.798474872376518 16.9926011231316 a42.27320972464443,42.27320972464443 0 0,0 -0.5850109568871322,0.43277712026837145 l -12.504078945070823 -17.21038819213974" fill="#eeff19" stroke="none" /><path d="M 112.04921762599082 117.19931262002967 l 9.334335079750637 13.32403083088468 a37.26836220900644,37.26836220900644 0 0,0 -0.5285773859682515,0.363560345894896 l -9.103600809159504 -13.482731966144671" fill="#ffd313" stroke="none" /><path d="M 111.1453310114006 117.79835938074945 l 10.711624047935368 17.105757932323048 a41.182810611595706,41.182810611595706 0 0,0 -0.6040553463628531,0.37106013029221724 l -10.415589501640207 -17.287606529443647" fill="#fbff18" stroke="none" /><line stroke="#e1ed5e" stroke-width="0.3" x1="143.8653032363475" x2="146.44561519142675" y1="172.8068346515853" y2="177.08958963109032" /><path d="M 144.38136562736335 173.6633856474863 a86.0,86.0 0 0,1 -40.68145358897372,12.25698825130547" fill="none" id="id102" stroke="none" /><text fill="#e1ed5e" style="font-size:6.75px; font-family:Arial;" text-anchor="middle"><textPath startOffset="21.466115282336833" xlink:href="#id102">June</textPath></text><path d="M 109.89434966115114 118.52300852407294 l 15.821579570046113 29.619253743471035 a54.58009190594069,54.58009190594069 0 0,0 -0.8324999989720374,0.43552465308234484 l -15.30938866854758 -29.887207815498094" fill="#65ff29" stroke="none" /><path d="M 109.57404056367764 118.69057910512821 l 3.276342956896589 6.3961236433160416 a28.186433109115562,28.186433109115562 0 0,0 -0.433730272170093,0.21748136255883463 l -3.165758777043736 -6.451572846784178" fill="#ff5c08" stroke="none" /><path d="M 108.92500713936063 119.00905698771935 l 7.9281903036011565 16.885972071215033 a39.654550497934,39.654550497934 0 0,0 -0.6203709024775396,0.2847818540561341 l -7.636351405356197 -17.01994099560524" fill="#fff116" stroke="none" /><path d="M 107.93186726928326 119.44442032107085 l 0.2594170219803361 0.6359427663849364 a21.686819039784478,21.686819039784478 0 0,0 -0.3468640687217894,0.1380243714029401 l -0.24843187721668045 -0.6403139821939454" fill="#ff0000" stroke="none" /><path d="M 107.59598834532513 119.57807347666477 l 12.119203744733225 31.2363119328749 a54.50495907435523,54.50495907435523 0 0,0 -0.8776071323467615,0.331835923596323 l -11.579726391626188 -31.440296106577854" fill="#66ff29" stroke="none" /><path d="M 106.57524785965236 119.94407469862006 l 5.23659309055194 15.88366035676217 a37.724609816823666,37.724609816823666 0 0,0 -0.6184656154621504,0.19801315957056004 l -4.96240612999885 -15.971446362992438" fill="#ffd914" stroke="none" /><path d="M 105.18746579009965 120.34920634021253 l 8.259647179214701 32.40065024967913 a54.43686450801184,54.43686450801184 0 0,0 -0.9099944035436395,0.22365448433718593 l -7.7006994909278506 -32.53802599233035" fill="#67ff28" stroke="none" /><path d="M 104.48393922423573 120.51570834832081 l 2.866101699507983 13.113493208364055 a34.42304894864549,34.42304894864549 0 0,0 -0.5799604115078688,0.12153634308093272 l -2.6399498265707364 -13.160885532171529" fill="#ffaf10" stroke="none" /><path d="M 104.13013068566511 120.58985236759428 l 3.6691526208017398 18.29174825840008 a39.656117905486624,39.656117905486624 0 0,0 -0.6704383874671744,0.12849111261489465 l -3.3537466187628606 -18.352196569363443" fill="#fff116" stroke="none" /><path d="M 103.06178313531738 120.77559828337769 l 3.904253637959224 26.492145783619893 a47.778293162374766,47.778293162374766 0 0,0 -0.8146686068257218,0.11290564562879349 l -3.4476564399466714 -26.55542599474129" fill="#aeff20" stroke="none" /><path d="M 102.34483914955558 120.86867818915974 l 1.4854979604158292 13.220684622417073 a34.303879361893465,34.303879361893465 0 0,0 -0.5873598489766995,0.06088224991596404 l -1.257705514833527 -13.244296240788795" fill="#ffad10" stroke="none" /><path d="M 101.62511606390274 120.93702456842531 l 1.252080799484517 16.13106106249773 a37.17958087623002,37.17958087623002 0 0,0 -0.6384924477428606,0.044034177456309796 l -0.9742255909627259 -16.150223584470325" fill="#ffd213" stroke="none" /><path d="M 100.90346689309514 120.98055641714683 l 0.5749618285048099 13.351921551131737 a34.36429535036598,34.36429535036598 0 0,0 -0.5911962161489811,0.020361993047135808 l -0.3450452606811766 -13.359840342604967" fill="#ffae10" stroke="none" /><line stroke="#e1ed5e" stroke-width="0.3" x1="102.19456741930631" x2="102.32365962044197" y1="184.97166512339345" y2="189.96999836594603" /><path d="M 102.22038585953345 185.97133177190398 a86.0,86.0 0 0,1 -42.740103519485714,-10.115201625700543" fill="none" id="id103" stroke="none" /><text fill="#e1ed5e" style="font-size:6.75px; font-family:Arial;" text-anchor="middle"><textPath startOffset="22.20632615414155" xlink:href="#id103">July</textPath></text><path d="M 99.81925306533755 120.99922214144158 l -0.11814812689185937 13.726477667965874 a34.726986127663054,34.726986127663054 0 0,0 -0.5977015540512168,-0.010289974295509078 l 0.3544093708357441 -13.722410216391205" fill="#ffb310" stroke="none" /><path d="M 99.09653310690486 120.98055641714683 l -0.7813748657802987 18.145301814305437 a39.162117844929575,39.162117844929575 0 0,0 -0.6732377051531715,-0.03479869936132416 l 1.093600639346959 -18.12916330818191" fill="#ffeb16" stroke="none" /><path d="M 98.01472825383883 120.90594882070398 l -5.955815238483529 62.71784646211194 a84.0,84.0 0 0,0 -1.4382696135776267,-0.14908252617695705 l 7.034517448666749 -62.60603456747922" fill="#4dd2ff" stroke="none" /><path d="M 96.93821686468263 120.77559828337769 l -1.087630096484975 7.3800674204644485 a28.459781119937816,28.459781119937816 0 0,0 -0.4840387212187247,-0.07559689349528634 l 1.2145046813122167 -7.360252219622057" fill="#ff6008" stroke="none" /><path d="M 96.22490169976321 120.6578951692458 l -2.4329269633271315 13.313335485778179 a34.53381082200297,34.53381082200297 0 0,0 -0.5838391063840727,-0.11189415428728919 l 2.661733684282899 -13.269484133142422" fill="#ffb010" stroke="none" /><path d="M 95.16358092515715 120.4354850818985 l -7.72805487387133 32.653611617025156 a54.55564309872613,54.55564309872613 0 0,0 -0.9119799670728354,-0.22414248754414126 l 8.288988125687377 -32.51574787116699" fill="#66ff29" stroke="none" /><path d="M 94.81253420990036 120.34920634021253 l -3.325716789557217 13.046003562851268 a34.46323145185697,34.46323145185697 0 0,0 -0.573582322096366,-0.15148830447425163 l 3.5497895544650717 -12.986823909073435" fill="#ffaf10" stroke="none" /><path d="M 94.11515582081647 120.15858648285463 l -4.329438014564799 14.830528724529717 a36.44955066566856,36.44955066566856 0 0,0 -0.6007667455140993,-0.18100609225863812 l 4.584079734519144 -14.753807263165355" fill="#ffc912" stroke="none" /><path d="M 93.42475214034765 119.94407469862007 l -5.079790768269707 15.40804676845874 a37.223815194596185,37.223815194596185 0 0,0 -0.6068018379362602,-0.20586012918841257 l 5.344262339143193 -15.318323652372206" fill="#ffd213" stroke="none" /><path d="M 92.7421414339146 119.70592522655815 l -11.549040983682987 31.35698167588606 a54.41617344138379,54.41617344138379 0 0,0 -0.8761775577526312,-0.3312953808086604 l 12.087088762195902 -31.153538044970766" fill="#67ff28" stroke="none" /><path d="M 92.40401165467489 119.57807347666478 l -4.953457355739484 12.767153879834245 a34.69441338526394,34.69441338526394 0 0,0 -0.5549105826286385,-0.22081037287718705 l 5.172489014409981 -12.679996662550991" fill="#ffb210" stroke="none" /><path d="M 91.7346041902142 119.30500536409082 l -5.858444950514534 13.683229913927725 a35.884628249157444,35.884628249157444 0 0,0 -0.5657456433756539,-0.24800626432399928 l 6.093111268547932 -13.580359096309273" fill="#ffc212" stroke="none" /><path d="M 91.07499286063937 119.00905698771935 l -6.3649771989598225 13.556539777650995 a35.976404958677904,35.976404958677904 0 0,0 -0.5582978393774478,-0.26801689060500455 l 6.597387706337512 -13.444968610546429" fill="#ffc312" stroke="none" /><path d="M 90.42595943632237 118.69057910512821 l -15.3501414220501 29.966765924535206 a54.669480270013416,54.669480270013416 0 0,0 -0.8338634230777882,-0.43623793213507095 l 15.863695747654385 -29.698098573455418" fill="#64ff29" stroke="none" /><line stroke="#e1ed5e" stroke-width="0.3" x1="58.666819895761336" x2="56.23545636021788" y1="174.27360380694188" y2="178.64263932499728" /><path d="M 58.180547188652646 175.14741091055294 a86.0,86.0 0 0,1 -31.652253787137756,-30.449443065178592" fill="none" id="id104" stroke="none" /><text fill="#e1ed5e" style="font-size:6.75px; font-family:Arial;" text-anchor="middle"><textPath startOffset="22.20632615414155" xlink:href="#id104">August</textPath></text><path d="M 89.7882731507175 118.34994917583269 l -3.5794181553307407 6.432030762161146 a28.360927526888076,28.360927526888076 0 0,0 -0.4245377399683592,-0.24106360850844605 l 3.689604662220307 -6.369463987858066" fill="#ff5e08" stroke="none" /><path d="M 89.4739219176387 118.17145234162733 l -6.393203779881228 11.036760024714015 a33.75472957040693,33.75472957040693 0 0,0 -0.5002645879551892,-0.2955651364402294 l 6.582236238864799 -10.925076315980037" fill="#ffa60f" stroke="none" /><path d="M 88.54995079064634 117.60387380957326 l -4.249240992342591 6.5329939503279455 a28.793334265000198,28.793334265000198 0 0,0 -0.41315048198486504,-0.27381361105236607 l 4.361066173067417 -6.45888231818426" fill="#ff6409" stroke="none" /><path d="M 88.24862548938628 117.40417183066458 l -18.75054672409302 27.770175889660834 a54.507695704048274,54.507695704048274 0 0,0 -0.7730829476438685,-0.5317335007361237 l 19.22578655635978 -27.443301599559607" fill="#66ff29" stroke="none" /><path d="M 87.65650970185807 116.9893568818739 l -8.496876823373967 11.694947640162468 a35.45575027654156,35.45575027654156 0 0,0 -0.4906654245451963,-0.3629825509249381 l 8.696927218337727 -11.546955140497763" fill="#ffbc11" stroke="none" /><path d="M 87.36589467227662 116.77436683061367 l -9.76504787596 12.965104448703737 a37.23114578166275,37.23114578166275 0 0,0 -0.508597434763331,-0.38997082526932353 l 9.986774039216817 -12.795094281607048" fill="#ffd313" stroke="none" /><path d="M 86.79598089348748 116.32954008644616 l -10.177561688392323 12.58669047903074 a37.18664693925071,37.18664693925071 0 0,0 -0.4942811419050996,-0.40675972929907467 l 10.392712958842113 -12.409635630874483" fill="#ffd213" stroke="none" /><path d="M 86.24171649860922 115.8653595955263 l -21.92988062113674 25.28843383014511 a54.47274338381807,54.47274338381807 0 0,0 -0.7031073167781413,-0.6204104581707593 l 22.36193029082147 -24.90720023020206" fill="#66ff29" stroke="none" /><path d="M 85.44109423537348 115.13401014063109 l -12.184734504992468 12.666054615690694 a38.575457162896605,38.575457162896605 0 0,0 -0.4745700569123737,-0.46446668444539185 l 12.400954514280636 -12.454437828322732" fill="#ffe315" stroke="none" /><path d="M 84.67929136418377 114.36230785411682 l -37.6952214739984 35.33716281067028 a72.66860553064703,72.66860553064703 0 0,0 -0.847639807174925,-0.9199455997932674 l 38.29790768916905 -34.683065956075666" fill="#3fffbe" stroke="none" /><path d="M 84.43433777217949 114.09645910891817 l -23.148018627311988 20.96313624544508 a52.22953486069679,52.22953486069679 0 0,0 -0.5977574519405754,-0.6715868340384823 l 23.5054349289009 -20.561575241665736" fill="#7eff26" stroke="none" /><path d="M 83.95833913139862 113.55231037782056 l -6.852307534946999 5.788964077880844 a29.970296742498892,29.970296742498892 0 0,0 -0.32953625724860525,-0.3969476504707705 l 6.950939792089141 -5.670155170296312" fill="#ff740a" stroke="none" /><path d="M 83.72743513129214 113.27417163493432 l -12.284063499189802 10.020594084479162 a36.85277647158459,36.85277647158459 0 0,0 -0.39675012625101613,-0.49500678561885747 l 12.454731537495679 -9.807659465282045" fill="#ffce13" stroke="none" /><path d="M 82.85270091963577 112.12312394758628 l -21.870204149677726 15.462213286357814 a47.784059984651336,47.784059984651336 0 0,0 -0.4690553703498193,-0.6757092447915305 l 22.133120427189677 -15.083462779379271" fill="#aeff20" stroke="none" /><path d="M 82.44556493220864 111.52570212397912 l -8.297852345912313 5.448114623934721 a30.926545547676383,30.926545547676383 0 0,0 -0.28834605765634846,-0.44751948480877884 l 8.390403266945706 -5.304473539204493" fill="#ff810b" stroke="none" /><path d="M 82.24976979558568 111.22182372390057 l -11.019029448028416 6.9663099943060285 a34.036429147327325,34.036429147327325 0 0,0 -0.3088163472381953,-0.4979102810135813 l 11.137310434934566 -6.775603381927183" fill="#ffaa0f" stroke="none" /><line stroke="#e1ed5e" stroke-width="0.3" x1="26.63291911575756" x2="22.317208475507996" y1="142.92168965132927" y2="145.44649492493687" /><path d="M 25.769776987707644 143.4266507060508 a86.0,86.0 0 0,1 -11.730757126820373,-40.83630448921669" fill="none" id="id105" stroke="none" /><text fill="#e1ed5e" style="font-size:6.75px; font-family:Arial;" text-anchor="middle"><textPath startOffset="21.46611528233685" xlink:href="#id105">September</textPath></text><path d="M 81.18737489456691 109.33194174019688 l -8.533801652885632 4.233164664729614 a30.52604082132283,30.52604082132283 0 0,0 -0.2294493396234266,-0.4727336002737492 l 8.605404249123778 -4.08564210849058" fill="#ff7c0b" stroke="none" /><path d="M 81.02952815118164 109.00673069616217 l -13.904349339900296 6.601455725922951 a36.391885793082885,36.391885793082885 0 0,0 -0.26379851232253854,-0.568198526925363 l 14.015922469062662 -6.361137131718761" fill="#ffc812" stroke="none" /><path d="M 80.45479744820244 107.68017299344265 l -24.705545157963652 9.707899429930428 a47.544439585228105,47.544439585228105 0 0,0 -0.2927508577090859,-0.7642801110522723 l 24.868990295266247 -9.281195752044997" fill="#b1ff20" stroke="none" /><path d="M 80.0844068197444 106.66101706037122 l -12.028402586573696 4.023048377871738 a33.68335078105897,33.68335078105897 0 0,0 -0.1791757759039123,-0.5514463357600756 l 12.095870613493856 -3.815403142133859" fill="#ffa50f" stroke="none" /><path d="M 79.86692584326677 105.97154293290107 l -10.961869216014197 3.2513302309763508 a32.43388494693997,32.43388494693997 0 0,0 -0.1541495491473124,-0.5366148031027764 l 11.016211402047613 -3.0621579523689784" fill="#ff950d" stroke="none" /><path d="M 79.58551787078972 104.9243191809786 l -7.762542199657111 1.8724567787214326 a28.98518351634058,28.98518351634058 0 0,0 -0.11282059509641335,-0.4860281708860468 l 7.79362336068408 -1.7385599504868117" fill="#ff6709" stroke="none" /><path d="M 79.4281124754447 104.21870165774334 l -13.185454247731137 2.7039569230876785 a34.459850918971014,34.459850918971014 0 0,0 -0.11416067324196931,-0.5821028133709376 l 13.230044853948772 -2.476590382648786" fill="#ffaf10" stroke="none" /><path d="M 79.18660465613746 102.79330883721812 l -27.300329113289987 3.6639024681575165 a48.545093047403554,48.545093047403554 0 0,0 -0.10402171050497554,-0.8291553805985435 l 27.359352333041812 -3.193429333271564" fill="#a6ff21" stroke="none" /><path d="M 79.10278846688536 102.07522291339032 l -9.175735523635026 0.911207534827437 a30.22086880783064,30.22086880783064 0 0,0 -0.04695085931966741,-0.5180988202405302 l 9.19006097923177 -0.7531273260383405" fill="#ff770b" stroke="none" /><path d="M 79.0235259727143 100.99374915477108 l -4.426804056855698 0.2097174570004112 a25.4317688984834,25.4317688984834 0 0,0 -0.01695192963809202,-0.4374539797530471 l 4.42975811934499 -0.1334862302333673" fill="#ff3605" stroke="none" /><line stroke="#e1ed5e" stroke-width="0.3" x1="15.007084014347285" x2="10.007500721073583" y1="101.09737516637583" y2="101.16192664675087" /><path d="M 14.007167355692545 101.11028546245083 a86.0,86.0 0 0,1 10.666146001902534,-42.60595125391555" fill="none" id="id106" stroke="none" /><text fill="#e1ed5e" style="font-size:6.75px; font-family:Arial;" text-anchor="middle"><textPath startOffset="22.20632615414155" xlink:href="#id106">October</textPath></text><path d="M 79.12142395522702 97.74499172005258 l -9.690612225357501 -1.046642776742991 a30.746970114058858,30.746970114058858 0 0,0 0.061361650651876584,-0.5257091498567225 l 9.671160221702037 1.2132956649245754" fill="#ff7f0b" stroke="none" /><path d="M 79.26566170972629 96.67025291283419 l -14.907994910901317 -2.3940890678600524 a36.09900575297283,36.09900575297283 0 0,0 0.1038072265901328,-0.6126761275251524 l 14.864575822790961 2.650350983701033" fill="#ffc412" stroke="none" /><path d="M 79.3925641242962 95.95851677861259 l -13.101242174219646 -2.5693856696100714 a34.350816050966664,34.350816050966664 0 0,0 0.11878954511979546,-0.579260009252392 l 13.055073333184856 2.7945213350258657" fill="#ffae10" stroke="none" /><path d="M 79.54389044137918 95.25157060432595 l -26.070430724900383 -6.051668781751829 a47.76359567072144,47.76359567072144 0 0,0 0.19279934545151084,-0.7992777575114673 l 25.962398579188058 6.499531770922693" fill="#afff20" stroke="none" /><path d="M 79.71946130924805 94.55025226153421 l -8.935848858762728 -2.40122428954616 a30.252852150302502,30.252852150302502 0 0,0 0.13947030077377154,-0.5017488782518238 l 8.893191787422596 2.5546844712169263" fill="#ff780b" stroke="none" /><path d="M 79.81627453868168 94.20196356495316 l -12.119052853782302 -3.481354824170241 a33.60917417932445,33.60917417932445 0 0,0 0.16451547183714474,-0.5546643860128978 l 12.05733148483345 3.6894485969296777" fill="#ffa40f" stroke="none" /><path d="M 80.02781315780177 93.51064311812611 l -8.648834522713369 -2.810176685888699 a30.09392278432091,30.09392278432091 0 0,0 0.16431669654635972,-0.4912860080497128 l 8.599180532395236 2.958635796860734" fill="#ff760a" stroke="none" /><path d="M 80.2630227832202 92.82701384747504 l -17.55875441263175 -6.381357229835382 a39.682386801955666,39.682386801955666 0 0,0 0.23884150519384614,-0.6399764893940291 l 17.44630831893628 6.682656856258753" fill="#fff116" stroke="none" /><path d="M 80.52162464483688 92.15188598940014 l -5.912779899023877 -2.382342978867698 a27.37467836076935,27.37467836076935 0 0,0 0.1798624734405622,-0.4355512459997383 l 5.870895738697115 2.4837687953207475" fill="#ff5107" stroke="none" /><path d="M 80.95270993114464 91.15688171328213 l -8.351246695288593 -3.8772477397587513 a30.2074085062537,30.2074085062537 0 0,0 0.22301957972236247,-0.4697361119791356 l 8.28326892172448 4.0204262673784195" fill="#ff770b" stroke="none" /><path d="M 81.26839172434947 90.50648371742162 l -33.57088294577582 -17.014327823657595 a58.63630604947663,58.63630604947663 0 0,0 0.4640381399885503,-0.8963739860844431 l 33.27303537262716 17.589674532002373" fill="#3dff2e" stroke="none" /><line stroke="#e1ed5e" stroke-width="0.3" x1="26.266209847984243" x2="21.928928074336255" y1="57.711370442889674" y2="55.22380399835377" /><path d="M 25.398753493254645 57.213857153982495 a86.0,86.0 0 0,1 29.58750427330803,-30.492523968695096" fill="none" id="id107" stroke="none" /><text fill="#e1ed5e" style="font-size:6.75px; font-family:Arial;" text-anchor="middle"><textPath startOffset="21.46611528233685" xlink:href="#id107">November</textPath></text><path d="M 81.96595687620814 89.24020034530311 l -7.622114427508026 -4.5476448970538454 a29.875680393959996,29.875680393959996 0 0,0 0.2672937314988235,-0.43936061442954344 l 7.542704897722985 4.678173284690463" fill="#ff730a" stroke="none" /><path d="M 82.34701348167596 88.62581576622439 l -7.357836250966561 -4.7408060383196755 a29.75288502089488,29.75288502089488 0 0,0 0.2810986902835466,-0.42813259037447077 l 7.275140925325094 4.866756692671814" fill="#ff710a" stroke="none" /><path d="M 82.7489923806493 88.02491185347247 l -7.499612263623974 -5.205986798181943 a30.129429480944786,30.129429480944786 0 0,0 0.29941103358010307,-0.4234956734712918 l 7.408888610239993 5.334308971985021" fill="#ff760a" stroke="none" /><path d="M 83.17141714833178 87.43820079747576 l -9.547265007043682 -7.126614701242067 a32.91381157374416,32.91381157374416 0 0,0 0.3428115471480017,-0.451099812128897 l 9.423177519671572 7.2898992892519905" fill="#ff9b0e" stroke="none" /><path d="M 83.6137871275137 86.86637796730984 l -6.941160117001576 -5.5633705087617304 a29.895549178528164,29.895549178528164 0 0,0 0.3252941936903833,-0.398772218245992 l 6.8443674312348 5.682026896615805" fill="#ff730a" stroke="none" /><path d="M 84.07557802195018 86.31012108654704 l -16.979546388752148 -14.596946400175787 a43.39142335309194,43.39142335309194 0 0,0 0.4917862766178215,-0.5621967280280307 l 16.725768248556484 14.88705868440676" fill="#e1ff1b" stroke="none" /><path d="M 84.31358615837235 86.03803664274999 l -6.783030853739646 -6.037353673513851 a30.08070189698325,30.08070189698325 0 0,0 0.3475844576207612,-0.38381143953676383 l 6.67810275550284 6.153217900320171" fill="#ff760a" stroke="none" /><path d="M 84.5562425177563 85.77008943001954 l -6.607651628574223 -6.088304084048373 a29.98490437703372,29.98490437703372 0 0,0 0.35301181950446875,-0.37656839601004805 l 6.501872487099298 6.2011418969364716" fill="#ff740a" stroke="none" /><path d="M 85.31137513191541 84.99185889309783 l -6.614658980653648 -6.758545217625472 a30.45683070003001,30.45683070003001 0 0,0 0.3778340354198693,-0.36347604271639644 l 6.497341701621352 6.871404347104183" fill="#ff7b0b" stroke="none" /><path d="M 85.83668400450813 84.49514656593479 l -18.069247678862908 -19.78075169782039 a47.79133907461359,47.79133907461359 0 0,0 0.6121592904355415,-0.5496026551791753 l 17.726077400831397 20.088853361768845" fill="#aeff20" stroke="none" /><path d="M 86.37877921826538 84.01681056812374 l -5.8946965943579395 -6.916858174518238 a30.087924677611213,30.087924677611213 0 0,0 0.39707816918771127,-0.3325415473378911 l 5.774760888211118 7.017300879249941" fill="#ff760a" stroke="none" /><path d="M 86.65592168130627 83.78471172551755 l -8.763100878599818 -10.648634063081284 a34.79077026195172,34.79077026195172 0 0,0 0.46569368009323203,-0.37655856914409064 l 8.578503799942085 10.797898729489509" fill="#ffb410" stroke="none" /><path d="M 87.22198572758235 83.33499621200491 l -6.700173069055576 -8.738322496403631 a32.01138498130237,32.01138498130237 0 0,0 0.4401624065177128,-0.3315211990654625 l 6.548764508779473 8.852360284974948" fill="#ff8f0d" stroke="none" /><path d="M 88.09926311788651 82.69761687909137 l -5.207584131600392 -7.571263584084253 a30.189285322993108,30.189285322993108 0 0,0 0.4306937219995377,-0.2908063236694401 l 5.076485715194314 7.659781820052359" fill="#ff770b" stroke="none" /><path d="M 88.70189139769569 82.29822771554957 l -6.874619664724293 -10.77109064275895 a33.77798063737551,33.77798063737551 0 0,0 0.4928060161349094,-0.3085950820935708 l 6.688194496217141 10.88783006617545" fill="#ffa60f" stroke="none" /><line stroke="#e1ed5e" stroke-width="0.3" x1="56.762969772571076" x2="54.21961505331055" y1="26.818313649435495" y2="22.513508569990535" /><path d="M 56.25429882871897 25.957352633546506 a86.0,86.0 0 0,1 42.265352541879196,-11.944610805530505" fill="none" id="id108" stroke="none" /><text fill="#e1ed5e" style="font-size:6.75px; font-family:Arial;" text-anchor="middle"><textPath startOffset="22.20632615414155" xlink:href="#id108">December</textPath></text><path d="M 89.3179101791058 81.91981866633112 l -4.944425617482883 -8.368784877662153 a30.720283175680002,30.720283175680002 0 0,0 0.45759071223539793,-0.2650660759635093 l 4.799638172782165 8.452655111015709" fill="#ff7e0b" stroke="none" /><path d="M 89.94658935756843 81.56283822128135 l -10.695685649638502 -19.615043458426676 a43.34161187989466,43.34161187989466 0 0,0 0.6580803637786695,-0.35152373956431254 l 10.356460239331527 19.796245924492737" fill="#e1ff1b" stroke="none" /><path d="M 90.91171255644093 81.06846463323043 l -4.973603944354023 -10.360363221078929 a32.49233928614966,32.49233928614966 0 0,0 0.5062953038225664,-0.23771243382354124 l 4.794530429231848 10.444440637542478" fill="#ff960d" stroke="none" /><path d="M 91.56875222667455 80.76684994638697 l -3.6099596462985692 -8.234949017203807 a29.99145116006588,29.99145116006588 0 0,0 0.47460220704421874,-0.2031998965778675 l 3.4676736814640425 8.29586844174446" fill="#ff740a" stroke="none" /><path d="M 91.90106846888425 80.62456947434976 l -7.5150988215306755 -17.978701826351124 a40.48615995157109,40.48615995157109 0 0,0 0.6453033711531312,-0.26323544769607016 l 7.2045115807891635 18.105398160230774" fill="#fffb17" stroke="none" /><path d="M 92.23578459929587 80.48803036053334 l -4.965154436918148 -12.477750503885304 a34.42933416888782,34.42933416888782 0 0,0 0.5525364396555749,-0.21437555441773423 l 4.749634832262896 12.56136876219359" fill="#ffaf10" stroke="none" /><path d="M 92.57280143429618 80.3572730644239 l -3.193476663712606 -8.445794134291747 a30.0293815823961,30.0293815823961 0 0,0 0.4850712847080211,-0.1786558478429322 l 3.047623053232016 8.499513249941002" fill="#ff750a" stroke="none" /><path d="M 93.25333710446033 80.11325718540243 l -4.240403560737133 -12.499189058079912 a34.198891978781276,34.198891978781276 0 0,0 0.5590984322186616,-0.18432596273995297 l 4.024622306276061 12.570328745079099" fill="#ffac0f" stroke="none" /><path d="M 94.28887869178378 79.79150937346287 l -1.5187055390246844 -5.373856549973384 a26.584335299205815,26.584335299205815 0 0,0 0.44142923011511287,-0.12065928367623394 l 1.425978419685849 5.399202374475914" fill="#ff4606" stroke="none" /><path d="M 94.63758080256005 79.69619591428918 l -5.736012167299811 -21.71834446171402 a43.46304346568104,43.46304346568104 0 0,0 0.7249865617488375,-0.18481521708894216 l 5.361316716865974 21.81386267497183" fill="#e0ff1b" stroke="none" /><path d="M 95.33964822691252 79.52364482259891 l -2.1633787819310712 -9.505315151934646 a30.748395965065633,30.748395965065633 0 0,0 0.5170961788414975,-0.11301719636697793 l 1.9994398789360526 9.541145846397491" fill="#ff7f0b" stroke="none" /><path d="M 95.692805502759 79.44645832069477 l -3.1323703065699644 -14.947387143149355 a36.272070132914784,36.272070132914784 0 0,0 0.6121923834889919,-0.12280003292096214 l 2.874611513613836 14.999091132147527" fill="#ffc612" stroke="none" /><path d="M 96.40284397218896 79.31037775812273 l -1.9012084250204007 -10.935106459833804 a32.09915072261241,32.09915072261241 0 0,0 0.5451823605000823,-0.08995976078523393 l 1.7126968583814326 10.966212483558664" fill="#ff900d" stroke="none" /><path d="M 96.75951476605007 79.25152402106235 l -4.227007831532026 -27.065073321879844 a48.39317048328954,48.39317048328954 0 0,0 0.8241380428680503,-0.12145652444799745 l 3.760500808235326 27.13382433048881" fill="#a8ff21" stroke="none" /><path d="M 97.47563105711357 79.15227682838746 l -1.3198419965946453 -10.90003133369697 a31.979647807263706,31.979647807263706 0 0,0 0.5470549667810267,-0.06146799962315549 l 1.1320203263039006 10.921135286790726" fill="#ff8f0d" stroke="none" /><path d="M 97.83486435360386 79.11191278185805 l -0.9403331617689695 -9.071838584263766 a30.120443067859107,30.120443067859107 0 0,0 0.5161709819538842,-0.049016654324075704 l 0.784037052724849 9.086680783103022" fill="#ff760a" stroke="none" /><path d="M 98.19473922651362 79.07773832637324 l -1.3479832305802872 -15.622594971359854 a36.68064196482669,36.68064196482669 0 0,0 0.6295268202195813,-0.04886339722499608 l 1.0788662209983717 15.64348363077331" fill="#ffcc13" stroke="none" /><path d="M 98.55514903715128 79.0497635885617 l -0.28874935298848925 -4.186845124033811 a25.196790235584448,25.196790235584448 0 0,0 0.43295038878219455,-0.026116749787566302 l 0.2166369153666717 4.191195143201683" fill="#ff3204" stroke="none" /><path d="M 98.91598698831166 79.02799685794201 l -0.45845416692438007 -8.86954503825825 a29.881385556818366,29.881385556818366 0 0,0 0.5139017302263902,-0.022129689524556455 l 0.3057116043086658 8.876122454306998" fill="#ff730a" stroke="none" /></svg>
