<?xml version="1.0" encoding="utf-8" ?>
<svg baseProfile="full" height="200mm" version="1.1" viewBox="0,0,200,200" width="200mm" xmlns="http://www.w3.org/2000/svg" xmlns:ev="http://www.w3.org/2001/xml-events" xmlns:xlink="http://www.w3.org/1999/xlink"><defs /><rect fill="#1a1a1a" height="200" width="200" x="0" y="0" /><text alignment-baseline="middle" fill="#e1ed5e" style="dominant-baseline: central; font-size:9.0px; font-family:Arial;" text-anchor="middle" x="100.0" y="100.0">2019</text><line stroke="#e1ed5e" stroke-width="0.3" x1="100.0" x2="100.0" y1="15.0" y2="10.0" /><path d="M 100.0 14.0 a86.0,86.0 0 0,1 42.46469731375804,11.215312516191453" fill="none" id="id49" stroke="none" /><text fill="#e1ed5e" style="font-size:6.75px; font-family:Arial;" text-anchor="middle"><textPath startOffset="22.20632615414155" xlink:href="#id49">January</textPath></text><path d="M 100.0 79.0 l 0.0 -45.865412695731266 a66.86541269573127,66.86541269573127 0 0,0 1.1509781632384926,0.009906832427768261 l -0.7894976839659641 45.85861723991206" fill="#33ff55" stroke="none" /><path d="M 106.74666289553966 80.11325718540242 l 9.97746120371435 -29.409977639770798 a52.05634422857016,52.05634422857016 0 0,0 0.8460841470422827,0.2951821456053341 l -10.482227354819907 29.233874640993253" fill="#ccff1d" stroke="none" /><line stroke="#e1ed5e" stroke-width="0.3" x1="143.23703022742887" x2="145.7803849466894" y1="26.81831364943548" y2="22.513508569990506" /><path d="M 143.74570117128098 25.957352633546492 a86.0,86.0 0 0,1 28.547481713284135,27.462654790039103" fill="none" id="id50" stroke="none" /><text fill="#e1ed5e" style="font-size:6.75px; font-family:Arial;" text-anchor="middle"><textPath startOffset="19.985693538727396" xlink:href="#id50">February</textPath></text><line stroke="#e1ed5e" stroke-width="0.3" x1="172.23445277983987" x2="176.4835382374775" y1="55.19839476539836" y2="52.563006222186495" /><path d="M 173.08426987136738 54.67131705675599 a86.0,86.0 0 0,1 12.851231095245387,41.99856678651699" fill="none" id="id51" stroke="none" /><text fill="#e1ed5e" style="font-size:6.75px; font-family:Arial;" text-anchor="middle"><textPath startOffset="22.20632615414155" xlink:href="#id51">March</textPath></text><path d="M 120.98425023603335 99.18683210126433 l 19.736510879493192 -0.7648163217522177 a40.751324150607516,40.751324150607516 0 0,0 0.02112918422327929,0.7011747594083375 l -19.746751758172117 0.4249714149188811" fill="#ff870c" stroke="none" /><line stroke="#e1ed5e" stroke-width="0.3" x1="184.98032266829074" x2="189.97916517819016" y1="98.17113171792111" y2="98.06355123074" /><path d="M 185.9800911702706 98.14961562048488 a86.0,86.0 0 0,1 -9.607161424134198,41.387399972396054" fill="none" id="id52" stroke="none" /><text fill="#e1ed5e" style="font-size:6.75px; font-family:Arial;" text-anchor="middle"><textPath startOffset="21.466115282336823" xlink:href="#id52">April</textPath></text><path d="M 120.99824983174949 100.27111621757518 l 18.894868578290215 0.24395867948864458 a39.896443433306615,39.896443433306615 0 0,0 -0.014776763624543086,0.6866181414547908 l -18.887869751980663 -0.5691666367335503" fill="#ff790b" stroke="none" /><path d="M 120.9764740272857 100.99374915477107 l 23.809506436641026 1.1279625387065042 a44.8362097709593,44.8362097709593 0 0,0 -0.0431573053258715,0.7706026780312982 l -23.786562780427623 -1.5376369330732256" fill="#ffc812" stroke="none" /><path d="M 120.92983693683757 101.71520430193887 l 23.3572179307621 1.9141286574313927 a44.43551829984382,44.43551829984382 0 0,0 -0.06903460591284817,0.7617911236873502 l -23.320808728572175 -2.3159011696673137" fill="#ffc212" stroke="none" /><path d="M 120.5718875245553 104.21870165774334 l 28.95478972465446 5.9377934701035695 a50.557355079447824,50.557355079447824 0 0,0 -0.18216527960171808,0.851015540354979 l -28.8482904063283 -6.435322829874717" fill="#e1ff1b" stroke="none" /><path d="M 120.32669344350535 105.2749913415812 l 17.055990458593296 4.426209419708545 a38.620957418674564,38.620957418674564 0 0,0 -0.17252887185562718,0.6420441144904935 l -16.97727351039589 -4.719144467374587" fill="#ff6409" stroke="none" /><path d="M 120.13307415673323 105.97154293290107 l 27.544652838885018 8.169844094288402 a49.730719666233135,49.730719666233135 0 0,0 -0.2504847011757247,0.8185984963900838 l -27.39994136520316 -8.642769563230543" fill="#edff19" stroke="none" /><path d="M 119.9155931802556 106.66101706037122 l 13.765547587825225 4.604058061336587 a35.51508356933708,35.51508356933708 0 0,0 -0.19889997464625958,0.5780964293363855 l -13.684256782235733 -4.840327193762272" fill="#ff3004" stroke="none" /><path d="M 118.64920377521936 109.65438752849418 l 15.777284659602527 8.167642012339886 a38.76606561036711,38.76606561036711 0 0,0 -0.3118775976600358,0.5899548806313857 l -15.634354553717598 -8.438011908057407" fill="#ff6709" stroke="none" /><line stroke="#e1ed5e" stroke-width="0.3" x1="174.80103733775053" x2="179.2010983576182" y1="140.37084112569926" y2="142.7455964860345" /><path d="M 175.68104954172406 140.8457921977663 a86.0,86.0 0 0,1 -30.038265399797805,32.042727171017184" fill="none" id="id53" stroke="none" /><text fill="#e1ed5e" style="font-size:6.75px; font-family:Arial;" text-anchor="middle"><textPath startOffset="22.206326154141568" xlink:href="#id53">May</textPath></text><path d="M 117.94076556474637 110.91462005526583 l 17.50812597784771 10.651415193978025 a41.493587311417485,41.493587311417485 0 0,0 -0.3764759814214178,0.6069991546134661 l -17.32218535675833 -10.951210679956764" fill="#ff930d" stroke="none" /><path d="M 116.71984013943494 112.70617746262583 l 18.86417696468787 14.335757890075316 a44.69327176305369,44.69327176305369 0 0,0 -0.47075462048607974,0.6085138053397063 l -18.614615526983723 -14.658349689528274" fill="#ffc512" stroke="none" /><path d="M 116.27256486870786 113.27417163493432 l 27.352148843563498 22.31222436433052 a56.298376767844104,56.298376767844104 0 0,0 -0.6190247807236005,0.745655225749689 l -26.964028062946355 -22.779740847193978" fill="#92ff23" stroke="none" /><path d="M 115.56566222782051 114.09645910891815 l 13.305387591565268 12.049526025149307 a38.95061047409055,38.95061047409055 0 0,0 -0.45433771173275883,0.49309385329804567 l -13.096003471836788 -12.276771133248689" fill="#ff6a09" stroke="none" /><path d="M 115.07121518719521 114.62390073753431 l 10.509232336040032 10.197317774382912 a35.6434030909695,35.6434030909695 0 0,0 -0.4310464938036288,0.43664782247766015 l -10.332145217180868 -10.376706090841237" fill="#ff3204" stroke="none" /><path d="M 114.29624159901734 115.38237550388516 l 20.116021988747605 21.6443043251728 a50.548777476783556,50.548777476783556 0 0,0 -0.6424519753548938,0.5868646470973832 l -19.740470463925845 -21.98736173885677" fill="#e2ff1b" stroke="none" /><path d="M 113.48314897796784 116.09983520530334 l 11.21394265168719 13.39024207096592 a38.46571190975034,38.46571190975034 0 0,0 -0.5112823438478836,0.4207505610620581 l -10.981790179294615 -13.581287750885156" fill="#ff6209" stroke="none" /><path d="M 112.63410532772338 116.77436683061366 l 37.740852557720544 50.108724668784056 a83.7316207324154,83.7316207324154 0 0,0 -1.1587460683834503,0.8572126396840096 l -36.872721518918524 -50.750947257207834" fill="#4dd5ff" stroke="none" /><path d="M 112.04921762599082 117.19931262002967 l 10.138840750681428 14.472399543976751 a38.67049632376456,38.67049632376456 0 0,0 -0.5484638618213988,0.3772384453212589 l -9.888220004237144 -14.644778778663104" fill="#ff6509" stroke="none" /><path d="M 111.45004920935366 117.60387380957326 l 8.75814836657484 13.465211880902181 a37.062910502412905,37.062910502412905 0 0,0 -0.5377972999614836,0.3432476818339918 l -8.525069264566426 -13.613973991559982" fill="#ff4a06" stroke="none" /><line stroke="#e1ed5e" stroke-width="0.3" x1="143.8653032363475" x2="146.44561519142675" y1="172.8068346515853" y2="177.08958963109032" /><path d="M 144.38136562736335 173.6633856474863 a86.0,86.0 0 0,1 -40.68145358897372,12.25698825130547" fill="none" id="id54" stroke="none" /><text fill="#e1ed5e" style="font-size:6.75px; font-family:Arial;" text-anchor="middle"><textPath startOffset="21.466115282336833" xlink:href="#id54">June</textPath></text><path d="M 110.21172684928248 118.3499491758327 l 8.522447349093195 15.3144005923502 a38.526065568776175,38.526065568776175 0 0,0 -0.5822521123801072,0.31749027607584535 l -8.257572424844438 -15.458831520185816" fill="#ff6309" stroke="none" /><path d="M 109.57404056367764 118.69057910512821 l 8.04535084092703 15.706249134910136 a38.646924152425846,38.646924152425846 0 0,0 -0.5946953580922455,0.2981925982205714 l -7.7738015751520235 -15.84240957404001" fill="#ff6509" stroke="none" /><path d="M 108.2653958097858 119.30500536409082 l 17.387811655365976 40.611702694167775 a65.17744209301796,65.17744209301796 0 0,0 -1.0351684349987154,0.4327004897841089 l -16.6861717608698 -40.90498822697185" fill="#31ff3d" stroke="none" /><path d="M 105.88484417918355 120.15858648285463 l 17.650708150328366 60.46265897585518 a83.98635271738338,83.98635271738338 0 0,0 -1.3912492578547966,0.39318093708298624 l -16.607327724368965 -60.75752870627668" fill="#4dd2ff" stroke="none" /><path d="M 105.18746579009965 120.34920634021253 l 7.514595780397135 29.477989115693827 a51.420732930810956,51.420732930810956 0 0,0 -0.8595752091170372,0.21126267304003296 l -7.006067286536887 -29.60297304704789" fill="#d5ff1c" stroke="none" /><path d="M 103.7750983002368 120.6578951692458 l 8.229892957097071 45.03518913697184 a66.7809938586757,66.7809938586757 0 0,0 -1.1325771261374318,0.19691305083376934 l -7.453466859487589 -45.17018076632661" fill="#33ff54" stroke="none" /><path d="M 101.26447882468166 120.96189622390904 l 3.7518979111154325 62.19708319378334 a83.31014279994741,83.31014279994741 0 0,0 -1.432188360617041,0.07402777920550349 l -2.6807214820849117 -62.25245077975105" fill="#4cdaff" stroke="none" /><line stroke="#e1ed5e" stroke-width="0.3" x1="102.19456741930631" x2="102.32365962044197" y1="184.97166512339345" y2="189.96999836594603" /><path d="M 102.22038585953345 185.97133177190398 a86.0,86.0 0 0,1 -42.740103519485714,-10.115201625700543" fill="none" id="id55" stroke="none" /><text fill="#e1ed5e" style="font-size:6.75px; font-family:Arial;" text-anchor="middle"><textPath startOffset="22.20632615414155" xlink:href="#id55">July</textPath></text><path d="M 98.37488393609728 120.93702456842531 l -2.3437597605354226 30.195600658190443 a51.28642449884133,51.28642449884133 0 0,0 -0.8795760574274814,-0.07589352329787473 l 2.8631801357044457 -30.150782882613903" fill="#d7ff1c" stroke="none" /><path d="M 97.65516085044442 120.86867818915974 l -5.364862503425702 47.74638342860327 a69.04684048084601,69.04684048084601 0 0,0 -1.1799532177867076,-0.14287590220382673 l 6.185943144263798 -47.64696199767409" fill="#37ff73" stroke="none" /><path d="M 96.93821686468263 120.77559828337769 l -3.6874420414576137 25.020979984795957 a46.29123698454998,46.29123698454998 0 0,0 -0.7873128419085841,-0.12296207399973608 l 4.117590746974715 -24.953799603449113" fill="#ffde14" stroke="none" /><path d="M 95.86986931433489 120.58985236759428 l -12.189715562873648 60.769128859203924 a82.97964333400358,82.97964333400358 0 0,0 -1.398043159005454,-0.2929735368886238 l 13.233950183308488 -60.550299341588754" fill="#4bddff" stroke="none" /><path d="M 95.16358092515715 120.4354850818985 l -6.986110558764506 29.518649210266066 a51.33407971140747,51.33407971140747 0 0,0 -0.8581266696866567,-0.21090665729083433 l 7.493190513194373 -29.3940212946612" fill="#d6ff1c" stroke="none" /><path d="M 94.46302465271185 120.25689768951611 l -6.2501749860229445 22.86612225850871 a44.70494114097258,44.70494114097258 0 0,0 -0.7405455073648628,-0.2092855574904473 l 6.642851661492421 -22.755147907679742" fill="#ffc612" stroke="none" /><path d="M 91.7346041902142 119.30500536409082 l -7.0665320404867105 16.50488882644944 a38.95403103073738,38.95403103073738 0 0,0 -0.6141368720484698,-0.26921955688704 l 7.3495895871929235 -16.38080471626795" fill="#ff6a09" stroke="none" /><path d="M 90.42595943632237 118.69057910512821 l -8.694652815822277 16.97382574942095 a40.07112341104718,40.07112341104718 0 0,0 -0.6111973987877112,-0.3197495920727209 l 8.985541117136483 -16.821646738403512" fill="#ff7c0b" stroke="none" /><line stroke="#e1ed5e" stroke-width="0.3" x1="58.666819895761336" x2="56.23545636021788" y1="174.27360380694188" y2="178.64263932499728" /><path d="M 58.180547188652646 175.14741091055294 a86.0,86.0 0 0,1 -31.652253787137756,-30.449443065178592" fill="none" id="id56" stroke="none" /><text fill="#e1ed5e" style="font-size:6.75px; font-family:Arial;" text-anchor="middle"><textPath startOffset="22.20632615414155" xlink:href="#id56">August</textPath></text><path d="M 89.7882731507175 118.34994917583269 l -7.547342952357445 13.562188024846076 a36.52080312554018,36.52080312554018 0 0,0 -0.5466837855019707,-0.3104213209783996 l 7.779675504780623 -13.430263538073044" fill="#ff4106" stroke="none" /><path d="M 87.95078237400918 117.19931262002967 l -10.331147117992353 14.746901792410576 a39.00565781216015,39.00565781216015 0 0,0 -0.5465856739712527,-0.38997436562875615 l 10.583460119812493 -14.5668831649376" fill="#ff6b09" stroke="none" /><path d="M 87.36589467227662 116.77436683061367 l -10.8522671647988 14.408611108117293 a39.03828641199411,39.03828641199411 0 0,0 -0.5332839457354376,-0.4088993891959042 l 11.098679839027724 -14.219672377094021" fill="#ff6b09" stroke="none" /><path d="M 86.79598089348748 116.32954008644616 l -19.009783357382553 23.509585745443882 a51.23363169083392,51.23363169083392 0 0,0 -0.680992239431011,-0.5604102513360945 l 19.41164572535825 -23.178880375250607" fill="#d8ff1c" stroke="none" /><path d="M 86.24171649860922 115.8653595955263 l -15.952149866400525 18.39521579320468 a45.34861493881468,45.34861493881468 0 0,0 -0.585337564964775,-0.5164923450497115 l 16.26642978427189 -18.117900306382683" fill="#ffd013" stroke="none" /><path d="M 84.19399662182784 113.82643327865904 l -8.853591293780434 7.744752824045505 a32.76296200380098,32.76296200380098 0 0,0 -0.3676589240401747,-0.4276703897401184 l 8.985592727391388 -7.591205335143856" fill="#ff0000" stroke="none" /><path d="M 83.28015986056508 112.70617746262583 l -50.159520418304766 38.118532387877515 a84.0,84.0 0 0,0 -0.8649549332196598,-1.158748481962768 l 50.80823661821951 -37.24947102640544" fill="#4dd2ff" stroke="none" /><path d="M 82.85270091963577 112.12312394758628 l -19.807396510321457 14.003810270539377 a45.25777521971788,45.25777521971788 0 0,0 -0.444256987031081,-0.6399853240700629 l 20.045514404514673 -13.660783684282302" fill="#ffce13" stroke="none" /><line stroke="#e1ed5e" stroke-width="0.3" x1="26.63291911575756" x2="22.317208475507996" y1="142.92168965132927" y2="145.44649492493687" /><path d="M 25.769776987707644 143.4266507060508 a86.0,86.0 0 0,1 -11.730757126820373,-40.83630448921669" fill="none" id="id57" stroke="none" /><text fill="#e1ed5e" style="font-size:6.75px; font-family:Arial;" text-anchor="middle"><textPath startOffset="21.46611528233685" xlink:href="#id57">September</textPath></text><path d="M 81.18737489456691 109.33194174019688 l -17.08256129642868 8.473749192268542 a40.068778823504005,40.068778823504005 0 0,0 -0.3011774404150105,-0.620514733066087 l 17.225891993458408 -8.178445503237171" fill="#ff7c0b" stroke="none" /><path d="M 80.73074385275274 108.34839909993369 l -27.41032580726905 11.875514942022518 a50.87229177680949,50.87229177680949 0 0,0 -0.34120535148868125,-0.8065086604878032 l 27.61068213995004 -11.401931755868556" fill="#ddff1b" stroke="none" /><path d="M 80.45479744820244 107.68017299344265 l -16.300149828805477 6.405048511136929 a38.513410029789306,38.513410029789306 0 0,0 -0.23714305853392756,-0.6191056946165885 l 16.407987166932916 -6.123519249687183" fill="#ff6309" stroke="none" /><path d="M 80.0844068197444 106.66101706037122 l -28.22864398978672 9.441419972041311 a50.76569758279793,50.76569758279793 0 0,0 -0.2700438953601995,-0.8311096510647664 l 28.386980136163167 -8.954111420998741" fill="#deff1b" stroke="none" /><path d="M 79.86692584326677 105.97154293290107 l -22.447820910594437 6.658105228945312 a44.41441925126117,44.41441925126117 0 0,0 -0.21108981284302064,-0.734831330888355 l 22.55910336032356 -6.270716422552361" fill="#ffc112" stroke="none" /><path d="M 79.67330655649465 105.27499134158121 l -23.304983712980302 6.047889079615218 a45.07694391283093,45.07694391283093 0 0,0 -0.1884402696048947,-0.752725205489286 l 23.405635296880256 -5.64583603472854" fill="#ffcb13" stroke="none" /><path d="M 79.35854240842038 103.8639653848113 l -60.91512512167027 11.40297063990288 a82.9732217010156,82.9732217010156 0 0,0 -0.25071171940517484,-1.4061244664117838 l 61.10238328341463 -10.352727422757884" fill="#4bddff" stroke="none" /><path d="M 79.18660465613746 102.79330883721812 l -26.162084231149787 3.511141737115232 a47.39664311263629,47.39664311263629 0 0,0 -0.10156082889687637,-0.8095397328989815 l 26.21864656929351 -3.060284249928842" fill="#ffee16" stroke="none" /><line stroke="#e1ed5e" stroke-width="0.3" x1="15.007084014347285" x2="10.007500721073583" y1="101.09737516637583" y2="101.16192664675087" /><path d="M 14.007167355692545 101.11028546245083 a86.0,86.0 0 0,1 10.666146001902534,-42.60595125391555" fill="none" id="id58" stroke="none" /><text fill="#e1ed5e" style="font-size:6.75px; font-family:Arial;" text-anchor="middle"><textPath startOffset="22.20632615414155" xlink:href="#id58">October</textPath></text><path d="M 79.00019446554 99.90962569577889 l -17.537364844481186 -0.07547342012720586 a38.53752724661006,38.53752724661006 0 0,0 0.008564493588608198,-0.6633294668407709 l 17.53346734377486 0.37733914502844873" fill="#ff6309" stroke="none" /><path d="M 79.08570108090925 98.10471618934814 l -26.590757095361077 -2.40969260460416 a47.6997187504509,47.6997187504509 0 0,0 0.08114147894835227,-0.8170836196692326 l 26.545338490730494 2.8670517549778225" fill="#fff316" stroke="none" /><path d="M 79.46518482838121 95.60439243477599 l -21.672676897718738 -4.639174092101565 a43.16363824307142,43.16363824307142 0 0,0 0.1617724098639633,-0.7251939930382781 l 21.589610100852738 5.011546254689803" fill="#ffae10" stroke="none" /><path d="M 79.71946130924805 94.55025226153421 l -16.98996077262352 -4.565509906275296 a38.59268733762934,38.59268733762934 0 0,0 0.1779182235085054,-0.6400665128753906 l 16.908855778548652 4.857287722569629" fill="#ff6409" stroke="none" /><path d="M 80.38941819471856 92.48833698450439 l -16.420096103135513 -6.289575181068251 a38.58346700723483,38.58346700723483 0 0,0 0.24290396220397184,-0.6181640890074114 l 16.309398591049852 6.571288274971426" fill="#ff6409" stroke="none" /><path d="M 80.95270993114464 91.15688171328213 l -40.15748762993413 -18.643986200933515 a65.27439479212462,65.27439479212462 0 0,0 0.48191714592655094,-1.0150404135163067 l 39.83061229016583 19.332469030090355" fill="#31ff3e" stroke="none" /><path d="M 81.43458229118936 90.18545643968196 l -23.694456437696186 -12.5259920618681 a47.801636946497595,47.801636946497595 0 0,0 0.39081685275298556,-0.7241242733579979 l 23.47533148572473 12.93199731855857" fill="#fff417" stroke="none" /><line stroke="#e1ed5e" stroke-width="0.3" x1="26.266209847984243" x2="21.928928074336255" y1="57.711370442889674" y2="55.22380399835377" /><path d="M 25.398753493254645 57.213857153982495 a86.0,86.0 0 0,1 29.58750427330803,-30.492523968695096" fill="none" id="id59" stroke="none" /><text fill="#e1ed5e" style="font-size:6.75px; font-family:Arial;" text-anchor="middle"><textPath startOffset="21.46611528233685" xlink:href="#id59">November</textPath></text><path d="M 82.15384107792192 88.93136811851018 l -39.794715655831894 -24.681672977709447 a67.82738915535549,67.82738915535549 0 0,0 0.6239228477857401,-0.9868961098010561 l 39.36396521180019 25.36301673522472" fill="#35ff62" stroke="none" /><path d="M 82.7489923806493 88.02491185347247 l -14.58856308481312 -10.126905785830841 a38.75895249373302,38.75895249373302 0 0,0 0.3851668692887183,-0.5447912214785342 l 14.412083595720524 10.37652350764116" fill="#ff6709" stroke="none" /><path d="M 83.6137871275137 86.86637796730984 l -48.67893860183227 -39.01638441561327 a83.38523315872007,83.38523315872007 0 0,0 0.9073167388251966,-1.1122630394608832 l 48.00012337093069 39.84853162468224" fill="#4cd9ff" stroke="none" /><path d="M 85.31137513191541 84.99185889309783 l -32.05654616653394 -32.75386039115332 a66.83053046442168,66.83053046442168 0 0,0 0.8290701440119992,-0.7975648216681204 l 31.48799277890951 33.30080829958376" fill="#33ff54" stroke="none" /><path d="M 87.22198572758235 83.33499621200491 l -11.65014602867667 -15.19404529995557 a40.1464073670909,40.1464073670909 0 0,0 0.5520204542871432,-0.4157703615848678 l 11.386879420631137 15.392332251046293" fill="#ff7d0b" stroke="none" /><path d="M 88.09926311788651 82.69761687909137 l -18.523015037984337 -26.93045866960128 a53.68564960731998,53.68564960731998 0 0,0 0.7659032666708796,-0.5171413045746982 l 18.056707076906918 27.245311886474646" fill="#b6ff1f" stroke="none" /><line stroke="#e1ed5e" stroke-width="0.3" x1="56.762969772571076" x2="54.21961505331055" y1="26.818313649435495" y2="22.513508569990535" /><path d="M 56.25429882871897 25.957352633546506 a86.0,86.0 0 0,1 42.265352541879196,-11.944610805530505" fill="none" id="id60" stroke="none" /><text fill="#e1ed5e" style="font-size:6.75px; font-family:Arial;" text-anchor="middle"><textPath startOffset="22.20632615414155" xlink:href="#id60">December</textPath></text><path d="M 89.3179101791058 81.91981866633112 l -24.176301505688976 -40.920074866372694 a68.5283713329578,68.5283713329578 0 0,0 1.0207570700847184,-0.5912883803030011 l 23.468347703138935 41.33016740406574" fill="#36ff6c" stroke="none" /><path d="M 90.26544431104013 81.39251694778311 l -9.80967609321822 -18.75107477779489 a42.16205449327434,42.16205449327434 0 0,0 0.6459618502343838,-0.3308867489844327 l 9.485453755395072 18.917154052091828" fill="#ff9e0e" stroke="none" /><path d="M 92.23578459929587 80.48803036053334 l -11.532737122765829 -28.982505634625912 a52.192782152349665,52.192782152349665 0 0,0 0.8376117262307745,-0.324980336698606 l 11.032142231535378 29.17672867521507" fill="#caff1d" stroke="none" /><path d="M 93.59665428221793 80.00007090966166 l -19.024475680211232 -59.42021270669115 a83.39144454983688,83.39144454983688 0 0,0 1.3708545928278986,-0.4259311949698514 l 17.998835714672605 59.73888403654353" fill="#4cd9ff" stroke="none" /><path d="M 94.63758080256005 79.69619591428918 l -6.5289171907100565 -24.72053203063503 a46.56817286316724,46.56817286316724 0 0,0 0.7767817630546622,-0.19801896717006126 l 6.102426538970395 24.829253993973953" fill="#ffe215" stroke="none" /><path d="M 95.33964822691252 79.52364482259891 l -4.511862070009285 -19.823930629113896 a41.330890903418585,41.330890903418585 0 0,0 0.6950621352266347,-0.15191366140077056 l 4.169957210629129 19.898657788610535" fill="#ff910d" stroke="none" /><path d="M 96.40284397218896 79.31037775812273 l -10.393839361795202 -59.78184109215799 a81.67866528728885,81.67866528728885 0 0,0 1.3872568756920742,-0.22890927096477684 l 9.363253279964242 59.9518966260624" fill="#4aecff" stroke="none" /></svg>
