<?xml version="1.0" encoding="utf-8" ?>
<svg baseProfile="full" height="200mm" version="1.1" viewBox="0,0,200,200" width="200mm" xmlns="http://www.w3.org/2000/svg" xmlns:ev="http://www.w3.org/2001/xml-events" xmlns:xlink="http://www.w3.org/1999/xlink"><defs /><rect fill="#1a1a1a" height="200" width="200" x="0" y="0" /><rect fill="#1a1a1a" height="200" width="180" x="10" y="0" /><text alignment-baseline="middle" fill="#e1ed5e" style="dominant-baseline: central; font-size:9.0px; font-family:Arial;" text-anchor="middle" x="100.0" y="100.0">2026</text><line stroke="#e1ed5e" stroke-width="0.3" x1="100.0" x2="100.0" y1="15.0" y2="10.0" /><path d="M 100.0 14.0 a86.0,86.0 0 0,1 42.46469731375804,11.215312516191453" fill="none" id="id133" stroke="none" /><text fill="#e1ed5e" style="font-size:6.75px; font-family:Arial;" text-anchor="middle"><textPath startOffset="22.20632615414155" xlink:href="#id133">January</textPath></text><path d="M 100.0 79.0 l 0.0 -29.838792276980207 a50.83879227698021,50.83879227698021 0 0,0 0.875106237996158,0.007532315671332357 l -0.5136257587236297 29.834371337917435" fill="#ffdf14" stroke="none" /><path d="M 100.36148047927253 79.00311137660856 l 0.4743600551695309 -27.553590904341267 a48.557673871096924,48.557673871096924 0 0,0 0.8355928568527878,0.021580898253450463 l -0.9485795472171865 27.541343213945456" fill="#ffb711" stroke="none" /><path d="M 100.72285384407766 79.0124445844662 l 1.2380175844894026 -35.94497403971075 a56.96628763515891,56.96628763515891 0 0,0 0.9797093821039956,0.04218834686682731 l -1.8565677989827296 35.91833796631973" fill="#bbff1f" stroke="none" /><path d="M 101.08401301168833 79.027996857942 l 1.9229743337327105 -37.20308089875069 a58.25274565246411,58.25274565246411 0 0,0 1.0009429233667788,0.060379610594040414 l -2.5630793059391013 37.16446801877635" fill="#a7ff21" stroke="none" /><path d="M 101.80526077348638 79.07773832637324 l 2.009155801808618 -23.28532478293643 a44.37184325813381,44.37184325813381 0 0,0 0.7603957834901195,0.07220874200974207 l -2.4096767123889817 23.24729049641151" fill="#ff6b09" stroke="none" /><path d="M 102.16513564639614 79.11191278185805 l 2.8042478081249462 -27.053904403124097 a48.19885198354429,48.19885198354429 0 0,0 0.8245063088140682,0.0926428906727336 l -3.2695208204487396 27.001625558980763" fill="#ffb110" stroke="none" /><path d="M 102.52436894288641 79.15227682838746 l 3.7537592569159237 -31.000751321072908 a52.22718833052194,52.22718833052194 0 0,0 0.8915560851399529,0.11574956768213919 l -4.286830070563723 30.931543430226633" fill="#fff717" stroke="none" /><path d="M 102.88285421437855 79.19881850522331 l 3.3654698216665495 -24.283485521577205 a45.51558802470783,45.51558802470783 0 0,0 0.7751326738888347,0.11423440693138336 l -3.78297147598404 24.221956630484854" fill="#ff800b" stroke="none" /><path d="M 103.2404852339499 79.25152402106235 l 2.75313242514026 -17.62800872887425 a38.84170479230125,38.84170479230125 0 0,0 0.659700080151883,0.10885616575346754 l -3.056161711431018 17.57800630018116" fill="#ff0000" stroke="none" /><path d="M 103.59715602781102 79.31037775812273 l 4.056082296519418 -23.329210589739073 a44.67918643738699,44.67918643738699 0 0,0 0.7565779372518054,0.13825978210829548 l -4.457055354874124 23.25593532628004" fill="#ff710a" stroke="none" /><path d="M 104.307194497241 79.44645832069477 l 5.403555122213758 -25.785275192932474 a47.34537577515381,47.34537577515381 0 0,0 0.7962078063181367,0.1740201874962207 l -5.846605652685423 25.688441507340382" fill="#ffa20e" stroke="none" /><path d="M 104.66035177308747 79.52364482259891 l 6.334793661681347 -27.833410718307537 a49.54519859713845,49.54519859713845 0 0,0 0.8299441567243293,0.1964209674763941 l -6.8129615053682 27.720243838690276" fill="#ffc912" stroke="none" /><path d="M 105.01212808612495 79.60689891045804 l 8.573833173794316 -34.88479217482172 a56.92296396975838,56.92296396975838 0 0,0 0.9495051575385209,0.24205000627080528 l -9.173047220017862 34.732039172382045" fill="#bbff1f" stroke="none" /><path d="M 105.36241919743992 79.69619591428918 l 10.840933146869864 -41.04717938228664 a63.454643641614986,63.454643641614986 0 0,0 1.0536556274470659,0.2880038850531979 l -11.545886663540639 40.85448895640715" fill="#5aff2a" stroke="none" /><path d="M 105.71112130821622 79.79150937346287 l 6.8351454987996965 -24.18578879506471 a46.13307767921071,46.13307767921071 0 0,0 0.762315678152911,0.22254085052510975 l -7.250451394676035 24.064549615620898" fill="#ff8c0c" stroke="none" /><path d="M 106.0581310904928 79.89281104454417 l 8.388441651702331 -27.841586590506527 a50.0778248364744,50.0778248364744 0 0,0 0.8232189350657831,0.2557781303493812 l -8.866445959478833 27.693068325274627" fill="#ffd213" stroke="none" /><path d="M 106.74666289553966 80.11325718540242 l 11.454499541734883 -33.7637569837683 a56.6538475540939,56.6538475540939 0 0,0 0.9208084623461017,0.32125199196444393 l -12.033990008144258 33.56158413863165" fill="#bfff1e" stroke="none" /><path d="M 107.08798089147638 80.2323363322302 l 12.539506357053966 -34.97141823903435 a58.15157215149934,58.15157215149934 0 0,0 0.9393352884714199,0.34596511412062186 l -13.139623971297963 34.7503898571074" fill="#a8ff21" stroke="none" /><path d="M 107.4271985657038 80.35727306442388 l 13.296815266500655 -35.16611399064192 a58.59602198949067,58.59602198949067 0 0,0 0.9403736130718124,0.36485035229123153 l -13.900172044572134 34.93202093446014" fill="#a1ff22" stroke="none" /><path d="M 107.76421540070413 80.48803036053334 l 20.263487543844658 -50.92343956729366 a75.8069851825783,75.8069851825783 0 0,0 1.2082771780230026,0.49288659894875125 l -21.137048591456047 50.56709208216133" fill="#3fffbe" stroke="none" /><path d="M 108.09893153111575 80.62456947434976 l 10.576485334209881 -25.30259158399267 a48.424135043627054,48.424135043627054 0 0,0 0.7662917423786881,0.32808613295242 l -11.010460834378884 25.116785923077458" fill="#ffb510" stroke="none" /><path d="M 108.43124777332544 80.76684994638697 l 11.598478029788046 -26.458155938223918 a49.888729779255605,49.888729779255605 0 0,0 0.7835331032465399,0.35154846398496803 l -12.052193251501366 26.254587143722418" fill="#ffcf13" stroke="none" /><path d="M 109.08828744355905 81.06846463323043 l 10.871137176276697 -22.645335461472786 a46.11957088940936,46.11957088940936 0 0,0 0.7127202812744091,0.34972874671115517 l -11.259328724561538 22.4548515546268" fill="#ff8c0c" stroke="none" /><path d="M 109.41281617654863 81.2277094730956 l 15.707179364495163 -31.32534714989158 a56.04272902685582,56.04272902685582 0 0,0 0.8586266814902898,0.43982193550056814 l -16.24406653357421 31.050332689078513" fill="#c9ff1d" stroke="none" /><path d="M 109.73455568895987 81.39251694778311 l 15.70585025845193 -30.021538922032406 a54.88165479412157,54.88165479412157 0 0,0 0.8332994040870916,0.4451196826774237 l -16.220294709067332 29.74674051285323" fill="#dcff1b" stroke="none" /><path d="M 110.05341064243156 81.56283822128135 l 24.727561727219005 -45.34839689466033 a72.65200296105724,72.65200296105724 0 0,0 1.0928103626697694,0.6081477836650513 l -25.504496178960807 44.916033713435105" fill="#3aff90" stroke="none" /><path d="M 110.36928655335952 81.73862282372117 l 14.24315627345676 -25.083659088002236 a49.84540611385508,49.84540611385508 0 0,0 0.7424669478098367,0.4300847790969118 l -14.672819953731926 24.834770151515276" fill="#ffce13" stroke="none" /><line stroke="#e1ed5e" stroke-width="0.3" x1="143.23703022742887" x2="145.7803849466894" y1="26.81831364943548" y2="22.513508569990506" /><path d="M 143.74570117128098 25.957352633546492 a86.0,86.0 0 0,1 28.547481713284135,27.462654790039103" fill="none" id="id134" stroke="none" /><text fill="#e1ed5e" style="font-size:6.75px; font-family:Arial;" text-anchor="middle"><textPath startOffset="19.985693538727396" xlink:href="#id134">February</textPath></text><path d="M 110.68208982089419 81.91981866633111 l 14.696413031015554 -24.874703078747633 a49.89178792034271,49.89178792034271 0 0,0 0.7356376249696547,0.44321343793865087 l -15.122412722202847 24.618043031350368" fill="#ffcf13" stroke="none" /><path d="M 111.2981086023043 82.29822771554956 l 14.470512966709917 -22.67226616352783 a47.89660570610293,47.89660570610293 0 0,0 0.6911548039027614,0.44954631017998936 l -14.858634796396958 22.41982092918831" fill="#ffac0f" stroke="none" /><path d="M 111.60114157652 82.49532879139004 l 15.660970947320923 -23.630445799858897 a49.3489678773831,49.3489678773831 0 0,0 0.7040342434260162,0.47536706390238975 l -16.065409885153482 23.357366823657838" fill="#ffc512" stroke="none" /><path d="M 111.90073688211348 82.69761687909136 l 13.34740364604355 -19.40567998779627 a44.55278327245367,44.55278327245367 0 0,0 0.628128179611997,0.4400439308457275 l -13.679462965239198 19.173051214186604" fill="#ff6f0a" stroke="none" /><path d="M 112.77801427241765 83.33499621200491 l 17.10082659566057 -22.302787735156475 a49.104316590415394,49.104316590415394 0 0,0 0.6663396014006223,0.5200886281968072 l -17.482198752220622 22.005120717736443" fill="#ffc111" stroke="none" /><path d="M 113.34407831869373 83.78471172551755 l 15.737018446059686 -19.12311098520933 a45.765845903668556,45.765845903668556 0 0,0 0.6039837741377234,0.5058190411968707 l -16.06385975715653 18.84939078661864" fill="#ff850c" stroke="none" /><path d="M 113.6212207817346 84.01681056812373 l 16.528352923627093 -19.39442873795017 a46.48196060823028,46.48196060823028 0 0,0 0.6045005568173578,0.5242169260246096 l -16.859747279091216 19.10704681850589" fill="#ff920d" stroke="none" /><path d="M 113.89432698308785 84.25364557470407 l 29.846423301049466 -33.82476605004228 a66.11012948557698,66.11012948557698 0 0,0 0.8468046876298366,0.7602696095789018 l -30.42423897627529 33.30599743169408" fill="#36ff2e" stroke="none" /><path d="M 114.16331599549186 84.49514656593476 l 24.01832187189825 -26.293317219958936 a56.61205295923692,56.61205295923692 0 0,0 0.7138297764664071,0.6634269812460849 l -24.467359532159506 25.87598565263821" fill="#c0ff1e" stroke="none" /><path d="M 114.42810811169701 84.74124197986012 l 16.207218174715987 -17.14029437491629 a44.58948096549882,44.58948096549882 0 0,0 0.5531574738160748,0.5321370515449718 l -16.49985889214448 16.85877423660902" fill="#ff6f0a" stroke="none" /><path d="M 114.68862486808459 84.99185889309783 l 39.172993713945715 -40.02510939714358 a77.0047571083577,77.0047571083577 0 0,0 0.9393267613320062,0.9352929937017849 l -39.856156275445045 39.34488055279167" fill="#41ffcf" stroke="none" /><path d="M 115.19652480421416 85.50635884689758 l 23.09271308063659 -22.024607662239045 a52.91170224385034,52.91170224385034 0 0,0 0.6229286592785042,0.6644968612735899 l -23.468409061885556 21.6238413840874" fill="#fcff18" stroke="none" /><path d="M 115.4437574822437 85.77008943001954 l 31.45801358439139 -28.98547976616411 a63.7757484557601,63.7757484557601 0 0,0 0.7369329017743921,0.8137397161199658 l -31.952290126781822 28.439687262774598" fill="#56ff2b" stroke="none" /><path d="M 115.68641384162765 86.03803664274999 l 39.00178198245644 -34.71420914966807 a73.21317185053942,73.21317185053942 0 0,0 0.8297776473191253,0.9485792924558104 l -39.59355149335342 34.03771430100931" fill="#3bff98" stroke="none" /><path d="M 116.15771136456269 86.58626213691792 l 18.600887991656986 -15.442003506007723 a45.17536982876837,45.17536982876837 0 0,0 0.4915542917561655,0.6025874396593618 l -18.86394077548956 15.11953189674026" fill="#ff7a0b" stroke="none" /><path d="M 116.38621287248628 86.86637796730983 l 44.76415154454799 -35.87866528862887 a78.3681783430215,78.3681783430215 0 0,0 0.8346058713191066,1.0598647010220419 l -45.37511149646106 35.10280819365379" fill="#43ffe2" stroke="none" /><path d="M 116.82858285166822 87.43820079747576 l 25.435967066432962 -18.986834104030127 a52.740956033154134,52.740956033154134 0 0,0 0.5367959121933361,0.7321890209683308 l -25.759025591139924 18.546182639390302" fill="#ffff18" stroke="none" /><path d="M 117.04232023915458 87.72973835380427 l 20.987349650242447 -15.110634459093125 a46.861170103030226,46.861170103030226 0 0,0 0.46568261055838023,0.6586750275170751 l -21.24434488060471 14.747132931244257" fill="#ff990e" stroke="none" /><path d="M 117.2510076193507 88.02491185347247 l 32.101616547349444 -22.283897629801483 a60.077946191279445,60.077946191279445 0 0,0 0.5823999998768952,0.8546001354339596 l -32.48044101289507 21.728019471097117" fill="#8bff24" stroke="none" /><path d="M 117.45458315368197 88.32363383020206 l 28.244469580940752 -18.89433658742032 a54.98155406963339,54.98155406963339 0 0,0 0.5194535866983543,0.791163450203715 l -28.56551980299703 18.40535507323893" fill="#daff1c" stroke="none" /><path d="M 117.65298651832404 88.62581576622439 l 18.8884363593635 -12.170210112398767 a43.469691637440384,43.469691637440384 0 0,0 0.39986403924054464,0.63248888252181 l -19.095127994850003 11.843273582162752" fill="#ff5a08" stroke="none" /><line stroke="#e1ed5e" stroke-width="0.3" x1="172.23445277983987" x2="176.4835382374775" y1="55.19839476539836" y2="52.563006222186495" /><path d="M 173.08426987136738 54.67131705675599 a86.0,86.0 0 0,1 12.851231095245387,41.99856678651699" fill="none" id="id135" stroke="none" /><text fill="#e1ed5e" style="font-size:6.75px; font-family:Arial;" text-anchor="middle"><textPath startOffset="22.20632615414155" xlink:href="#id135">March</textPath></text><path d="M 117.84615892207809 88.93136811851018 l 53.538476766234254 -33.20589564446945 a84.0,84.0 0 0,0 0.7515368068551043,1.2353289071716742 l -54.10212937137558 32.279398964090696" fill="#4dd2ff" stroke="none" /><path d="M 118.21658344932153 89.55222093294921 l 36.35402491503983 -20.850167736834443 a62.908765457568286,62.908765457568286 0 0,0 0.5306574807873696,0.9439804459678189 l -36.70754003711963 20.22130378093183" fill="#62ff29" stroke="none" /><line stroke="#e1ed5e" stroke-width="0.3" x1="184.98032266829074" x2="189.97916517819016" y1="98.17113171792111" y2="98.06355123074" /><path d="M 185.9800911702706 98.14961562048488 a86.0,86.0 0 0,1 -9.607161424134198,41.387399972396054" fill="none" id="id136" stroke="none" /><text fill="#e1ed5e" style="font-size:6.75px; font-family:Arial;" text-anchor="middle"><textPath startOffset="21.466115282336823" xlink:href="#id136">April</textPath></text><line stroke="#e1ed5e" stroke-width="0.3" x1="174.80103733775053" x2="179.2010983576182" y1="140.37084112569926" y2="142.7455964860345" /><path d="M 175.68104954172406 140.8457921977663 a86.0,86.0 0 0,1 -30.038265399797805,32.042727171017184" fill="none" id="id137" stroke="none" /><text fill="#e1ed5e" style="font-size:6.75px; font-family:Arial;" text-anchor="middle"><textPath startOffset="22.206326154141568" xlink:href="#id137">May</textPath></text><line stroke="#e1ed5e" stroke-width="0.3" x1="143.8653032363475" x2="146.44561519142675" y1="172.8068346515853" y2="177.08958963109032" /><path d="M 144.38136562736335 173.6633856474863 a86.0,86.0 0 0,1 -40.68145358897372,12.25698825130547" fill="none" id="id138" stroke="none" /><text fill="#e1ed5e" style="font-size:6.75px; font-family:Arial;" text-anchor="middle"><textPath startOffset="21.466115282336833" xlink:href="#id138">June</textPath></text><line stroke="#e1ed5e" stroke-width="0.3" x1="102.19456741930631" x2="102.32365962044197" y1="184.97166512339345" y2="189.96999836594603" /><path d="M 102.22038585953345 185.97133177190398 a86.0,86.0 0 0,1 -42.740103519485714,-10.115201625700543" fill="none" id="id139" stroke="none" /><text fill="#e1ed5e" style="font-size:6.75px; font-family:Arial;" text-anchor="middle"><textPath startOffset="22.20632615414155" xlink:href="#id139">July</textPath></text><line stroke="#e1ed5e" stroke-width="0.3" x1="58.666819895761336" x2="56.23545636021788" y1="174.27360380694188" y2="178.64263932499728" /><path d="M 58.180547188652646 175.14741091055294 a86.0,86.0 0 0,1 -31.652253787137756,-30.449443065178592" fill="none" id="id140" stroke="none" /><text fill="#e1ed5e" style="font-size:6.75px; font-family:Arial;" text-anchor="middle"><textPath startOffset="22.20632615414155" xlink:href="#id140">August</textPath></text><line stroke="#e1ed5e" stroke-width="0.3" x1="26.63291911575756" x2="22.317208475507996" y1="142.92168965132927" y2="145.44649492493687" /><path d="M 25.769776987707644 143.4266507060508 a86.0,86.0 0 0,1 -11.730757126820373,-40.83630448921669" fill="none" id="id141" stroke="none" /><text fill="#e1ed5e" style="font-size:6.75px; font-family:Arial;" text-anchor="middle"><textPath startOffset="21.46611528233685" xlink:href="#id141">September</textPath></text><line stroke="#e1ed5e" stroke-width="0.3" x1="15.007084014347285" x2="10.007500721073583" y1="101.09737516637583" y2="101.16192664675087" /><path d="M 14.007167355692545 101.11028546245083 a86.0,86.0 0 0,1 10.666146001902534,-42.60595125391555" fill="none" id="id142" stroke="none" /><text fill="#e1ed5e" style="font-size:6.75px; font-family:Arial;" text-anchor="middle"><textPath startOffset="22.20632615414155" xlink:href="#id142">October</textPath></text><line stroke="#e1ed5e" stroke-width="0.3" x1="26.266209847984243" x2="21.928928074336255" y1="57.711370442889674" y2="55.22380399835377" /><path d="M 25.398753493254645 57.213857153982495 a86.0,86.0 0 0,1 29.58750427330803,-30.492523968695096" fill="none" id="id143" stroke="none" /><text fill="#e1ed5e" style="font-size:6.75px; font-family:Arial;" text-anchor="middle"><textPath startOffset="21.46611528233685" xlink:href="#id143">November</textPath></text><line stroke="#e1ed5e" stroke-width="0.3" x1="56.762969772571076" x2="54.21961505331055" y1="26.818313649435495" y2="22.513508569990535" /><path d="M 56.25429882871897 25.957352633546506 a86.0,86.0 0 0,1 42.265352541879196,-11.944610805530505" fill="none" id="id144" stroke="none" /><text fill="#e1ed5e" style="font-size:6.75px; font-family:Arial;" text-anchor="middle"><textPath startOffset="22.20632615414155" xlink:href="#id144">December</textPath></text></svg>