<?xml version="1.0" encoding="utf-8" ?>
<svg baseProfile="full" height="200mm" version="1.1" viewBox="0,0,200,200" width="200mm" xmlns="http://www.w3.org/2000/svg" xmlns:ev="http://www.w3.org/2001/xml-events" xmlns:xlink="http://www.w3.org/1999/xlink"><defs /><rect fill="#1a1a1a" height="200" width="200" x="0" y="0" /><text alignment-baseline="middle" fill="#e1ed5e" style="dominant-baseline: central; font-size:9.0px; font-family:Arial;" text-anchor="middle" x="100.0" y="100.0">2017</text><line stroke="#e1ed5e" stroke-width="0.3" x1="100.0" x2="100.0" y1="15.0" y2="10.0" /><path d="M 100.0 14.0 a86.0,86.0 0 0,1 42.46469731375804,11.215312516191453" fill="none" id="id25" stroke="none" /><text fill="#e1ed5e" style="font-size:6.75px; font-family:Arial;" text-anchor="middle"><textPath startOffset="22.20632615414155" xlink:href="#id25">January</textPath></text><line stroke="#e1ed5e" stroke-width="0.3" x1="143.23703022742887" x2="145.7803849466894" y1="26.81831364943548" y2="22.513508569990506" /><path d="M 143.74570117128098 25.957352633546492 a86.0,86.0 0 0,1 28.547481713284135,27.462654790039103" fill="none" id="id26" stroke="none" /><text fill="#e1ed5e" style="font-size:6.75px; font-family:Arial;" text-anchor="middle"><textPath startOffset="19.985693538727396" xlink:href="#id26">February</textPath></text><path d="M 117.2510076193507 88.02491185347247 l 6.378295692578168 -4.427605321880629 a28.764428171366315,28.764428171366315 0 0,0 0.2788444683199636,0.40916984965937875 l -6.453564626566864 4.317157448950843" fill="#ff6309" stroke="none" /><line stroke="#e1ed5e" stroke-width="0.3" x1="172.23445277983987" x2="176.4835382374775" y1="55.19839476539836" y2="52.563006222186495" /><path d="M 173.08426987136738 54.67131705675599 a86.0,86.0 0 0,1 12.851231095245387,41.99856678651699" fill="none" id="id27" stroke="none" /><text fill="#e1ed5e" style="font-size:6.75px; font-family:Arial;" text-anchor="middle"><textPath startOffset="22.20632615414155" xlink:href="#id27">March</textPath></text><path d="M 118.56541770881063 90.18545643968196 l 6.521727376357183 -3.447688515696578 a28.37695628784615,28.37695628784615 0 0,0 0.22457059288894057,0.4337989060773543 l -6.580107402406241 3.334916887358879" fill="#ff5e08" stroke="none" /><path d="M 119.61058180528143 92.48833698450437 l 6.939192039008009 -2.657997234064732 a28.430836793425616,28.430836793425616 0 0,0 0.17112034836896017,0.4585174579442094 l -6.983916975878595 2.5381566390911896" fill="#ff5f08" stroke="none" /><path d="M 119.97218684219823 93.5106431181261 l 9.165051650764196 -2.9779057983252 a30.636705593971126,30.636705593971126 0 0,0 0.15864636803582294,0.5029523407030637 l -9.214953502568227 2.819703291195717" fill="#ff7c0b" stroke="none" /><path d="M 120.37134235888165 94.90015583598534 l 14.64938146746819 -3.6673853527732576 a36.10145995277067,36.10145995277067 0 0,0 0.14572474603297805,0.6041231517171491 l -14.710339013761986 3.4146769693967025" fill="#ffc412" stroke="none" /><path d="M 120.45610955862082 95.25157060432595 l 0.7194007277861157 -0.16699282692535655 a21.73852827392302,21.73852827392302 0 0,0 0.0814735330225071,0.3652298731854945 l -0.7221686478106604 0.15458478418989818" fill="#ff0000" stroke="none" /><path d="M 120.6074358757038 95.95851677861258 l 7.398006104863347 -1.4508800476131951 a28.53893541822434,28.53893541822434 0 0,0 0.09039269665364139,0.4828813999988206 l -7.421884525426847 1.3233205701518118" fill="#ff6008" stroke="none" /><path d="M 120.83666639777658 97.38593545837742 l 21.90216545313254 -2.7477367541812794 a43.07385124545944,43.07385124545944 0 0,0 0.08596237621300605,0.7364731430545739 l -21.946218182349135 2.370319872801853" fill="#e5ff1a" stroke="none" /><path d="M 120.94382443527127 98.46500227214037 l 7.983815522170339 -0.585143306756487 a29.005229726965364,29.005229726965364 0 0,0 0.03220880071495194,0.4982558911076745 l -7.992704913889706 0.4476283513957772" fill="#ff6609" stroke="none" /><line stroke="#e1ed5e" stroke-width="0.3" x1="184.98032266829074" x2="189.97916517819016" y1="98.17113171792111" y2="98.06355123074" /><path d="M 185.9800911702706 98.14961562048488 a86.0,86.0 0 0,1 -9.607161424134198,41.387399972396054" fill="none" id="id28" stroke="none" /><text fill="#e1ed5e" style="font-size:6.75px; font-family:Arial;" text-anchor="middle"><textPath startOffset="21.466115282336823" xlink:href="#id28">April</textPath></text><path d="M 120.99980553446 99.90962569577887 l 15.084032499500882 -0.064915312656316 a36.08417218291465,36.08417218291465 0 0,0 -0.0026731544986190615,0.6211469633804715 l -15.08291504771276 -0.19474112892784023" fill="#ffc412" stroke="none" /><path d="M 120.99824983174949 100.27111621757518 l 7.475833841945428 0.09652327268648096 a28.476456939924596,28.476456939924596 0 0,0 -0.010547052239610378,0.4900800737287148 l -7.473064727020811 -0.2251931622053106" fill="#ff5f08" stroke="none" /><path d="M 120.8583938346157 102.4346265915055 l 23.25463471571961 2.7143198322720337 a44.41250879152888,44.41250879152888 0 0,0 -0.09516646981808993,0.7585703995750664 l -23.204466736654673 -3.1142079861344953" fill="#d5ff1c" stroke="none" /><path d="M 120.70491114924044 103.5080841355445 l 8.730116646122042 1.4791651839006905 a29.85453930456922,29.85453930456922 0 0,0 -0.0902084157714019,0.505936702094968 l -8.703361788011453 -1.6292206367288768" fill="#ff720a" stroke="none" /><path d="M 120.41448212921028 104.9243191809786 l 30.139851960550434 7.270243260730486 a52.00430797928077,52.00430797928077 0 0,0 -0.21739951659504467,0.868403001892268 l -30.01024112966033 -7.78797410202015" fill="#81ff25" stroke="none" /><path d="M 120.02730092923936 106.31721596034902 l 11.225000280069285 3.5407043203034902 a32.77018344680198,32.77018344680198 0 0,0 -0.17431825841080448,0.5364964341399984 l -11.162389770642234 -3.7333996544212837" fill="#ff990e" stroke="none" /><path d="M 119.12269723197855 108.67885076344098 l 9.362087286517957 4.248990474948323 a31.281176898418913,31.281176898418913 0 0,0 -0.2267518637648969,0.48840334175679007 l -9.287560805913229 -4.409513883983944" fill="#ff850c" stroke="none" /><path d="M 118.81262510543309 109.33194174019688 l 11.96399074362663 5.934698851120713 a34.35506364519006,34.35506364519006 0 0,0 -0.26735000954639754,0.5275069323370198 l -11.860062064293963 -6.139759995160427" fill="#ffad10" stroke="none" /><path d="M 118.64920377521936 109.65438752849418 l 8.399547667311243 4.348308336468281 a30.458339516238212,30.458339516238212 0 0,0 -0.24504095547157476,0.46352514165706604 l -8.323454203614775 -4.4922484932114815" fill="#ff7a0b" stroke="none" /><line stroke="#e1ed5e" stroke-width="0.3" x1="174.80103733775053" x2="179.2010983576182" y1="140.37084112569926" y2="142.7455964860345" /><path d="M 175.68104954172406 140.8457921977663 a86.0,86.0 0 0,1 -30.038265399797805,32.042727171017184" fill="none" id="id29" stroke="none" /><text fill="#e1ed5e" style="font-size:6.75px; font-family:Arial;" text-anchor="middle"><textPath startOffset="22.206326154141568" xlink:href="#id29">May</textPath></text><path d="M 118.48025628344425 109.97397251340804 l 27.385415100878202 14.780172595827349 a52.11935831937821,52.11935831937821 0 0,0 -0.43289741024520395,0.7858345431477985 l -27.126941281181487 -15.249377657372953" fill="#7fff26" stroke="none" /><path d="M 117.14729908036423 112.12312394758627 l 7.665480933089042 5.419487642582353 a30.387781646568826,30.387781646568826 0 0,0 -0.30564350231586257,0.42451209238058024 l -7.571057638397577 -5.550633340414064" fill="#ff790b" stroke="none" /><path d="M 116.71984013943494 112.70617746262583 l 7.622230113295822 5.792484119036584 a30.57346667458161,30.57346667458161 0 0,0 -0.32203059059181066,0.4162679485003808 l -7.521392705485943 -5.922830061650218" fill="#ff7c0b" stroke="none" /><path d="M 116.0416608686014 113.55231037782055 l 24.61499387157657 20.795230595399108 a53.223276351320564,53.223276351320564 0 0,0 -0.5972601779701487,0.6947485193119829 l -24.25339118403564 -21.21585621387262" fill="#74ff27" stroke="none" /><path d="M 115.07121518719521 114.62390073753431 l 6.631612958811658 6.434786341701502 a30.240387746129862,30.240387746129862 0 0,0 -0.3657061890516848,0.3704584387334538 l -6.519866144704437 -6.547985274415621" fill="#ff770b" stroke="none" /><path d="M 114.0293411484842 115.62618273729858 l 10.19802655366696 11.358781912908343 a36.26504740032962,36.26504740032962 0 0,0 -0.46809135333640073,0.41303619527094587 l -10.000992847423971 -11.532641249951578" fill="#ffc612" stroke="none" /><path d="M 113.20401910651253 116.32954008644616 l 6.04121073636326 7.471224639583883 a30.60809163030183,30.60809163030183 0 0,0 -0.4125424284846519,0.32774865546087784 l -5.911710815161257 -7.574107209049887" fill="#ff7c0b" stroke="none" /><path d="M 112.04921762599082 117.19931262002967 l 8.43149592746434 12.035298789703898 a35.69484741439311,35.69484741439311 0 0,0 -0.5062602169911268,0.3482103935736182 l -8.22307882585033 -12.17864997264261" fill="#ffbf11" stroke="none" /><path d="M 111.45004920935366 117.60387380957326 l 7.81031319395298 12.007963054628169 a35.32453032071038,35.32453032071038 0 0,0 -0.5125727248983539,0.32714816456924 l -7.602458667007695 -12.140625648021217" fill="#ffba11" stroke="none" /><line stroke="#e1ed5e" stroke-width="0.3" x1="143.8653032363475" x2="146.44561519142675" y1="172.8068346515853" y2="177.08958963109032" /><path d="M 144.38136562736335 173.6633856474863 a86.0,86.0 0 0,1 -40.68145358897372,12.25698825130547" fill="none" id="id30" stroke="none" /><text fill="#e1ed5e" style="font-size:6.75px; font-family:Arial;" text-anchor="middle"><textPath startOffset="21.466115282336833" xlink:href="#id30">June</textPath></text><path d="M 110.5260780823613 118.17145234162733 l 4.5188907593607555 7.801082932145936 a30.015390652060212,30.015390652060212 0 0,0 -0.44930357441985913,0.25512629565858336 l -4.383938418019698 -7.877712393599147" fill="#ff740a" stroke="none" /><path d="M 108.59647513512805 119.15986991738527 l 4.75837539804797 10.605492624777709 a32.62405309016449,32.62405309016449 0 0,0 -0.5143404517629182,0.2254717389803073 l -4.575114271627298 -10.68582891705247" fill="#ff970d" stroke="none" /><path d="M 107.59598834532513 119.57807347666477 l 11.282938479522398 29.080902779521423 a52.193005741747044,52.193005741747044 0 0,0 -0.8403814052054589,0.31776033887033434 l -10.780686853556665 -29.27081136849839" fill="#7fff26" stroke="none" /><path d="M 106.57524785965236 119.94407469862006 l 3.101757307871565 9.40826578185477 a30.906379935120295,30.906379935120295 0 0,0 -0.5066860434367412,0.16222487049056536 l -2.9393499193438832 -9.460263499005041" fill="#ff800b" stroke="none" /><path d="M 105.53697534728816 120.25689768951611 l 4.304713798858815 15.748696993718644 a37.326420853636236,37.326420853636236 0 0,0 -0.6212352773326709,0.1640738830631298 l -4.032988078714647 -15.820462226085358" fill="#ffd313" stroke="none" /><path d="M 104.48393922423573 120.51570834832081 l 2.5801859051508447 11.80532091702143 a33.08399607989852,33.08399607989852 0 0,0 -0.5574000144335753,0.11680859252338247 l -2.3765944292878913 -11.847985490271354" fill="#ff9d0e" stroke="none" /><path d="M 103.06178313531738 120.77559828337769 l 1.4430427875563268 9.791705008162872 a30.89746732521003,30.89746732521003 0 0,0 -0.5268333168522299,0.07301429719960296 l -1.2742808795172664 -9.815093870855078" fill="#ff800b" stroke="none" /><path d="M 101.62511606390274 120.93702456842531 l 0.6877482185398631 8.860537206111637 a29.887188373889312,29.887188373889312 0 0,0 -0.5132587192018806,0.035397326314869644 l -0.5351267385590522 -8.871062876942792" fill="#ff720a" stroke="none" /><line stroke="#e1ed5e" stroke-width="0.3" x1="102.19456741930631" x2="102.32365962044197" y1="184.97166512339345" y2="189.96999836594603" /><path d="M 102.22038585953345 185.97133177190398 a86.0,86.0 0 0,1 -42.740103519485714,-10.115201625700543" fill="none" id="id31" stroke="none" /><text fill="#e1ed5e" style="font-size:6.75px; font-family:Arial;" text-anchor="middle"><textPath startOffset="22.20632615414155" xlink:href="#id31">July</textPath></text><path d="M 100.54218724476979 120.99299961872073 l 0.3826736921266898 14.816779166984935 a35.82172000942686,35.82172000942686 0 0,0 -0.6165435042278699,0.01061435555515427 l -0.12757049800615203 -14.821170999819248" fill="#ffc011" stroke="none" /><path d="M 99.45781275523022 120.99299961872073 l -0.5711676198684692 22.11509352496062 a43.12246808264714,43.12246808264714 0 0,0 -0.7418700049438185,-0.025551502986510256 l 0.9517579764869308 -22.101985223548017" fill="#e4ff1a" stroke="none" /><path d="M 98.73552117531835 120.96189622390904 l -0.5551018050304599 9.202199517799455 a30.21892694294388,30.21892694294388 0 0,0 -0.5189557326155471,-0.03579022571487849 l 0.713420298424937 -9.191280947568291" fill="#ff770a" stroke="none" /><path d="M 98.37488393609728 120.93702456842531 l -0.1258904509361373 1.62189736642578 a22.626775790591864,22.626775790591864 0 0,0 -0.38805532724618,-0.03348304648646091 l 0.15379009592385898 -1.6194900676606556" fill="#ff0d01" stroke="none" /><path d="M 98.01472825383883 120.90594882070398 l -1.406087479566115 14.806835861177534 a35.873448497912165,35.873448497912165 0 0,0 -0.6142344155808217,-0.06366790862794894 l 1.6607544917525299 -14.780438584093824" fill="#ffc111" stroke="none" /><path d="M 96.93821686468263 120.77559828337769 l -2.9707368569892707 20.157807662637023 a41.375536489558804,41.375536489558804 0 0,0 -0.7037075122870265,-0.10990464094329426 l 3.3172802328848143 -20.103684714346624" fill="#f9ff18" stroke="none" /><path d="M 95.86986931433489 120.58985236759428 l -4.616010529939616 23.012098786266844 a44.470497305370785,44.470497305370785 0 0,0 -0.7492400791010301,-0.15701054330046238 l 5.011442070470033 -22.92923226223984" fill="#d4ff1c" stroke="none" /><path d="M 95.16358092515715 120.4354850818985 l -5.817859012307844 24.582396441414414 a46.261466669414816,46.261466669414816 0 0,0 -0.7733302817742628,-0.1900657682278359 l 6.240142578825317 -24.478609414872547" fill="#c0ff1e" stroke="none" /><path d="M 94.46302465271185 120.25689768951611 l -4.679406402482456 17.119501315673958 a38.74751164464912,38.74751164464912 0 0,0 -0.6418596006989029,-0.18139593451976904 l 4.973397171285973 -17.03641658781567" fill="#ffe515" stroke="none" /><path d="M 93.76903079525671 120.05430185196036 l -4.338409018534607 13.963118923574354 a35.621575937154745,35.621575937154745 0 0,0 -0.5839880118754552,-0.1869745196689363 l 4.578118375501003 -13.886371557245711" fill="#ffbe11" stroke="none" /><path d="M 92.7421414339146 119.70592522655815 l -10.166404164744225 27.60296283941968 a50.41563072849726,50.41563072849726 0 0,0 -0.8117631470694225,-0.3069393624102938 l 10.640037532573931 -27.42387522690275" fill="#92ff23" stroke="none" /><path d="M 91.7346041902142 119.30500536409082 l -9.891658105233567 23.10337183794654 a46.13186603404638,46.13186603404638 0 0,0 -0.7273003373014973,-0.3188270944862766 l 10.287879117192809 -22.92968019016581" fill="#c1ff1e" stroke="none" /><path d="M 91.07499286063937 119.00905698771935 l -6.20929563060355 13.224959112379514 a35.61009567909609,35.61009567909609 0 0,0 -0.5526132891960349,-0.2652879610683807 l 6.436021587799827 -13.11611687481157" fill="#ffbe11" stroke="none" /><path d="M 90.42595943632237 118.69057910512821 l -16.846382518647307 32.88774922205652 a57.95138228615358,57.95138228615358 0 0,0 -0.8839216646390421,-0.4624260382213144 l 17.409995085812845 -32.59289376489049" fill="#44ff2d" stroke="none" /><line stroke="#e1ed5e" stroke-width="0.3" x1="58.666819895761336" x2="56.23545636021788" y1="174.27360380694188" y2="178.64263932499728" /><path d="M 58.180547188652646 175.14741091055294 a86.0,86.0 0 0,1 -31.652253787137756,-30.449443065178592" fill="none" id="id32" stroke="none" /><text fill="#e1ed5e" style="font-size:6.75px; font-family:Arial;" text-anchor="middle"><textPath startOffset="22.20632615414155" xlink:href="#id32">August</textPath></text><path d="M 89.7882731507175 118.34994917583269 l -7.202411141927949 12.942363260246745 a35.81146491801377,35.81146491801377 0 0,0 -0.5360656264445502,-0.30439205314866746 l 7.424125535293707 -12.816468041303445" fill="#ffc011" stroke="none" /><path d="M 89.4739219176387 118.17145234162733 l -7.469278293800297 12.894416465481527 a35.901546705477166,35.901546705477166 0 0,0 -0.5320816578342682,-0.3143632221459893 l 7.690127822662948 -12.763934671041786" fill="#ffc112" stroke="none" /><path d="M 88.8546689885994 117.79835938074946 l -13.965059197238576 22.30127953235707 a47.3129235768796,47.3129235768796 0 0,0 -0.6865289910589705,-0.4381752840888157 l 14.34686999034447 -22.057589819444452" fill="#b4ff20" stroke="none" /><path d="M 88.24862548938628 117.40417183066458 l -8.186890172538606 12.125053387835546 a35.63017738631598,35.63017738631598 0 0,0 -0.5053430016275903,-0.34757952448295787 l 8.394390058789085 -11.982333073987487" fill="#ffbe11" stroke="none" /><path d="M 87.95078237400918 117.19931262002967 l -8.290300107961713 11.833752837456462 a35.44876403358013,35.44876403358013 0 0,0 -0.4967429769817093,-0.3544129247324004 l 8.492770412792309 -11.689295650879844" fill="#ffbb11" stroke="none" /><path d="M 87.07902340077011 116.55440617244103 l -9.124072925394307 11.689798212540076 a35.829028592521446,35.829028592521446 0 0,0 -0.48291133744422554,-0.38365397259993145 l 9.323941755555891 -11.531010325935013" fill="#ffc011" stroke="none" /><path d="M 86.79598089348748 116.32954008644616 l -24.216904701022678 29.94928384267112 a59.51516683057852,59.51516683057852 0 0,0 -0.7910695650981325,-0.6509963963339571 l 24.7288443946655 -29.527992327479986" fill="#34ff2f" stroke="none" /><path d="M 86.24171649860922 115.8653595955263 l -9.736472243296566 11.227609411896875 a35.861295530693134,35.861295530693134 0 0,0 -0.4628799232510087,-0.40843771414317354 l 9.92829451945416 -11.058348555981413" fill="#ffc111" stroke="none" /><path d="M 85.44109423537348 115.13401014063109 l -10.356522702436195 10.765624981319894 a35.93841503388145,35.93841503388145 0 0,0 -0.44212815407341644,-0.4327154544020428 l 10.540300808885405 -10.585759423995281" fill="#ffc212" stroke="none" /><path d="M 85.18274418774928 114.88116024355367 l -9.898767383673553 9.941459168729372 a35.02919121402202,35.02919121402202 0 0,0 -0.42361864312015424,-0.42912344895124505 l 10.06842665184924 -9.769595225797461" fill="#ffb610" stroke="none" /><path d="M 84.43433777217949 114.09645910891817 l -10.992311864521263 9.95477561075128 a35.82998575816253,35.82998575816253 0 0,0 -0.4100676187714494,-0.46071531678670713 l 11.162038332941052 -9.76408612422371" fill="#ffc011" stroke="none" /><path d="M 83.95833913139862 113.55231037782056 l -11.261938987435027 9.514307393976503 a35.74290727583217,35.74290727583217 0 0,0 -0.39300858406781286,-0.4734041569904457 l 11.424043571396377 -9.319041979872296" fill="#ffbf11" stroke="none" /><path d="M 83.06392112726016 112.41649034213515 l -50.80823661821951 37.24947102640544 a84.0,84.0 0 0,0 -0.8448808304975701,-1.1734655781954473 l 51.44189724109269 -36.36937184275885" fill="#4dd2ff" stroke="none" /><line stroke="#e1ed5e" stroke-width="0.3" x1="26.63291911575756" x2="22.317208475507996" y1="142.92168965132927" y2="145.44649492493687" /><path d="M 25.769776987707644 143.4266507060508 a86.0,86.0 0 0,1 -11.730757126820373,-40.83630448921669" fill="none" id="id33" stroke="none" /><text fill="#e1ed5e" style="font-size:6.75px; font-family:Arial;" text-anchor="middle"><textPath startOffset="21.46611528233685" xlink:href="#id33">September</textPath></text><path d="M 81.69416730710424 110.29060199501025 l -7.953567615734474 4.471088540303866 a30.12413670180893,30.12413670180893 0 0,0 -0.25020762312870776,-0.45419951369556616 l 8.029351648314698 -4.333518508210477" fill="#ff760a" stroke="none" /><path d="M 80.73074385275274 108.34839909993369 l -1.6617685750894546 0.7199607068670762 a22.81102684038293,22.81102684038293 0 0,0 -0.1529957499268521,-0.3616367586131652 l 1.6739153062086134 -0.6912494225877522" fill="#ff1001" stroke="none" /><path d="M 79.86692584326677 105.97154293290107 l -9.36389040379327 2.7773639102467267 a30.767097510734327,30.767097510734327 0 0,0 -0.14622775586735737,-0.5090380014536093 l 9.410310796546733 -2.6157684332885216" fill="#ff7e0b" stroke="none" /><path d="M 79.67330655649465 105.27499134158121 l -14.293341271902596 3.709272817101594 a35.76679753862573,35.76679753862573 0 0,0 -0.14952000703765184,-0.5972581033669492 l 14.355072593235306 -3.462686874337253" fill="#ffc011" stroke="none" /><path d="M 79.35854240842038 103.8639653848113 l -0.7339033609438668 0.1373826034281893 a21.746651272636303,21.746651272636303 0 0,0 -0.06570963764084681,-0.36853454391785506 l 0.7361594409239022 -0.12472930877712057" fill="#ff0000" stroke="none" /><path d="M 79.29508885075956 103.50808413554451 l -8.806315671042722 1.492075772530678 a29.93182432703564,29.93182432703564 0 0,0 -0.08169712662817723,-0.5087280854996651 l 8.830694552032188 -1.3402684573377992" fill="#ff730a" stroke="none" /><line stroke="#e1ed5e" stroke-width="0.3" x1="15.007084014347285" x2="10.007500721073583" y1="101.09737516637583" y2="101.16192664675087" /><path d="M 14.007167355692545 101.11028546245083 a86.0,86.0 0 0,1 10.666146001902534,-42.60595125391555" fill="none" id="id34" stroke="none" /><text fill="#e1ed5e" style="font-size:6.75px; font-family:Arial;" text-anchor="middle"><textPath startOffset="22.20632615414155" xlink:href="#id34">October</textPath></text><path d="M 79.00175016825051 100.2711162175752 l -14.962886894514057 0.19319140077629315 a35.96413402557443,35.96413402557443 0 0,0 -0.0026642619421077644,-0.6190806464218025 l 14.963995453745667 0.06439872384918478" fill="#ffc212" stroke="none" /><path d="M 79.01574976396665 99.18683210126434 l -14.787678342871054 -0.5730424099023825 a35.798777259482094,35.798777259482094 0 0,0 0.029161328979162605,-0.6155495649940846 l 14.775623405658393 0.8275030815194762" fill="#ffc011" stroke="none" /><path d="M 79.12142395522702 97.74499172005258 l -8.860940525555709 -0.9570333824682563 a29.91247327584179,29.91247327584179 0 0,0 0.059696247418100465,-0.5114409919943442 l 8.843153925134018 1.1094181127874623" fill="#ff730a" stroke="none" /><path d="M 79.54389044137918 95.25157060432595 l -8.772170381314993 -2.0362636200754536 a30.00540630561791,30.00540630561791 0 0,0 0.12111782236017721,-0.5021115669454472 l 8.735819758694001 2.1869604186802976" fill="#ff740a" stroke="none" /><path d="M 79.62865764111835 94.90015583598534 l -0.7237980181896901 -0.18119852064538694 a21.746134354536366,21.746134354536366 0 0,0 0.09402994128728706,-0.36233572100699646 l 0.7205717450320956 0.19363066720124722" fill="#ff0000" stroke="none" /><path d="M 80.52162464483688 92.15188598940014 l -0.6999476089170872 -0.2820188304242715 a21.75462658046389,21.75462658046389 0 0,0 0.14293650847585945,-0.34613209289644326 l 0.694989413555028 0.29402549377402604" fill="#ff0000" stroke="none" /><path d="M 81.43458229118936 90.18545643968196 l -0.6591108660439318 -0.3484366690439272 a21.745543590993584,21.745543590993584 0 0,0 0.17778731965072697,-0.3294129020984633 l 0.6530154471747329 0.35973055447486324" fill="#ff0000" stroke="none" /><line stroke="#e1ed5e" stroke-width="0.3" x1="26.266209847984243" x2="21.928928074336255" y1="57.711370442889674" y2="55.22380399835377" /><path d="M 25.398753493254645 57.213857153982495 a86.0,86.0 0 0,1 29.58750427330803,-30.492523968695096" fill="none" id="id35" stroke="none" /><text fill="#e1ed5e" style="font-size:6.75px; font-family:Arial;" text-anchor="middle"><textPath startOffset="21.46611528233685" xlink:href="#id35">November</textPath></text><line stroke="#e1ed5e" stroke-width="0.3" x1="56.762969772571076" x2="54.21961505331055" y1="26.818313649435495" y2="22.513508569990535" /><path d="M 56.25429882871897 25.957352633546506 a86.0,86.0 0 0,1 42.265352541879196,-11.944610805530505" fill="none" id="id36" stroke="none" /><text fill="#e1ed5e" style="font-size:6.75px; font-family:Arial;" text-anchor="middle"><textPath startOffset="22.20632615414155" xlink:href="#id36">December</textPath></text></svg>