<?xml version="1.0" encoding="utf-8" ?>
<svg baseProfile="full" height="200mm" version="1.1" viewBox="0,0,200,200" width="200mm" xmlns="http://www.w3.org/2000/svg" xmlns:ev="http://www.w3.org/2001/xml-events" xmlns:xlink="http://www.w3.org/1999/xlink"><defs /><rect fill="#1a1a1a" height="200" width="200" x="0" y="0" /><text alignment-baseline="middle" fill="#e1ed5e" style="dominant-baseline: central; font-size:9.0px; font-family:Arial;" text-anchor="middle" x="100.0" y="100.0">2025</text><line stroke="#e1ed5e" stroke-width="0.3" x1="100.0" x2="100.0" y1="15.0" y2="10.0" /><path d="M 100.0 14.0 a86.0,86.0 0 0,1 42.46469731375804,11.215312516191453" fill="none" id="id121" stroke="none" /><text fill="#e1ed5e" style="font-size:6.75px; font-family:Arial;" text-anchor="middle"><textPath startOffset="22.20632615414155" xlink:href="#id121">January</textPath></text><path d="M 100.0 79.0 l 0.0 -27.333004998785015 a48.333004998785015,48.333004998785015 0 0,0 0.8319732291258246,0.007161056246408504 l -0.47049274985329625 27.328955319147166" fill="#ffc712" stroke="none" /><path d="M 100.36148047927253 79.00311137660856 l 0.667635258780674 -38.780138827630154 a59.78588537508245,59.78588537508245 0 0,0 1.0288107888498803,0.026571147388509776 l -1.3350726828254222 38.76290088809928" fill="#85ff25" stroke="none" /><path d="M 101.08401301168833 79.027996857942 l 1.5309374236912923 -29.618486230107333 a50.65802582705592,50.65802582705592 0 0,0 0.870444678536423,0.05250760009062499 l -2.0405441510673272 29.587745360636404" fill="#ffed16" stroke="none" /><path d="M 101.44485096284872 79.0497635885617 l 3.9172466568222073 -56.79979849308125 a77.93471638837784,77.93471638837784 0 0,0 1.3375445893159477,0.10381920273244034 l -4.894381435500496 56.72395402816034" fill="#43ffdf" stroke="none" /><path d="M 102.16513564639614 79.11191278185805 l 3.8421819086947706 -37.067345387975706 a58.26594230568959,58.26594230568959 0 0,0 0.9967174536945252,0.11199281934791155 l -4.479666065899021 36.99571661515719" fill="#9bff22" stroke="none" /><path d="M 102.52436894288641 79.15227682838746 l 3.2854827851275243 -27.133448849643603 a48.33163814350679,48.33163814350679 0 0,0 0.8250562105493129,0.10711597540109413 l -3.7520537241846834 27.07287455107837" fill="#ffc712" stroke="none" /><path d="M 102.88285421437855 79.19881850522331 l 5.554337982075956 -40.077223424008345 a61.460283090915404,61.460283090915404 0 0,0 1.0466716049975011,0.15425218685331304 l -6.243378567502113 39.97567675299407" fill="#6dff28" stroke="none" /><path d="M 103.59715602781102 79.31037775812273 l 4.989138781152925 -28.695835236585047 a50.126319123824075,50.126319123824075 0 0,0 0.848817316265943,0.15511593904385607 l -5.482351218521769 28.605703816190452" fill="#ffe515" stroke="none" /><path d="M 103.95276090670814 79.375362276772 l 11.858282720124386 -61.87391316968404 a84.0,84.0 0 0,0 1.4177343621314986,0.2843841756911667 l -12.921583491723009 61.66062503791566" fill="#4dd2ff" stroke="none" /><path d="M 104.66035177308747 79.52364482259891 l 7.296106927010344 -32.05716738219195 a53.8769700072899,53.8769700072899 0 0,0 0.9025067555616735,0.21359419021765227 l -7.846837369534541 31.926827279833425" fill="#ddff1b" stroke="none" /><path d="M 105.36241919743992 79.69619591428918 l 8.554051729453196 -32.38832774147349 a54.49888915888499,54.49888915888499 0 0,0 0.9049465564126771,0.24735607842179683 l -9.110296175089584 32.2362851222254" fill="#d3ff1c" stroke="none" /><path d="M 105.71112130821622 79.79150937346287 l 6.721575625835232 -23.78392800636852 a45.71547714097268,45.71547714097268 0 0,0 0.7554151318742178,0.22052639184092113 l -7.129980975432877 23.664703285608894" fill="#ff990e" stroke="none" /><path d="M 106.40334571778207 80.00007090966166 l 5.007733328810823 -15.640934582278177 a37.42303953900094,37.42303953900094 0 0,0 0.6118082056019155,0.20170354630089837 l -5.276224356655156 15.552417311718044" fill="#ff0000" stroke="none" /><path d="M 107.08798089147638 80.2323363322302 l 9.876472835903146 -27.544486396510553 a50.261637796368944,50.261637796368944 0 0,0 0.8118874226735924,0.29902498957049783 l -10.349142584349314 27.37039813913373" fill="#ffe715" stroke="none" /><path d="M 107.4271985657038 80.35727306442388 l 9.670415183918333 -25.57536642260982 a48.34257298573264,48.34257298573264 0 0,0 0.7758219496868671,0.3010068633613474 l -10.109220298604868 25.405116855357928" fill="#ffc712" stroke="none" /><path d="M 107.76421540070413 80.48803036053334 l 14.573570034551446 -36.62431313111437 a60.41737251362516,60.41737251362516 0 0,0 0.9629842446379777,0.3928254524822359 l -15.201838148777812 36.36802679244855" fill="#7cff26" stroke="none" /><line stroke="#e1ed5e" stroke-width="0.3" x1="143.23703022742887" x2="145.7803849466894" y1="26.81831364943548" y2="22.513508569990506" /><path d="M 143.74570117128098 25.957352633546492 a86.0,86.0 0 0,1 28.547481713284135,27.462654790039103" fill="none" id="id122" stroke="none" /><text fill="#e1ed5e" style="font-size:6.75px; font-family:Arial;" text-anchor="middle"><textPath startOffset="19.985693538727396" xlink:href="#id122">February</textPath></text><line stroke="#e1ed5e" stroke-width="0.3" x1="172.23445277983987" x2="176.4835382374775" y1="55.19839476539836" y2="52.563006222186495" /><path d="M 173.08426987136738 54.67131705675599 a86.0,86.0 0 0,1 12.851231095245387,41.99856678651699" fill="none" id="id123" stroke="none" /><text fill="#e1ed5e" style="font-size:6.75px; font-family:Arial;" text-anchor="middle"><textPath startOffset="22.20632615414155" xlink:href="#id123">March</textPath></text><line stroke="#e1ed5e" stroke-width="0.3" x1="184.98032266829074" x2="189.97916517819016" y1="98.17113171792111" y2="98.06355123074" /><path d="M 185.9800911702706 98.14961562048488 a86.0,86.0 0 0,1 -9.607161424134198,41.387399972396054" fill="none" id="id124" stroke="none" /><text fill="#e1ed5e" style="font-size:6.75px; font-family:Arial;" text-anchor="middle"><textPath startOffset="21.466115282336823" xlink:href="#id124">April</textPath></text><line stroke="#e1ed5e" stroke-width="0.3" x1="174.80103733775053" x2="179.2010983576182" y1="140.37084112569926" y2="142.7455964860345" /><path d="M 175.68104954172406 140.8457921977663 a86.0,86.0 0 0,1 -30.038265399797805,32.042727171017184" fill="none" id="id125" stroke="none" /><text fill="#e1ed5e" style="font-size:6.75px; font-family:Arial;" text-anchor="middle"><textPath startOffset="22.206326154141568" xlink:href="#id125">May</textPath></text><line stroke="#e1ed5e" stroke-width="0.3" x1="143.8653032363475" x2="146.44561519142675" y1="172.8068346515853" y2="177.08958963109032" /><path d="M 144.38136562736335 173.6633856474863 a86.0,86.0 0 0,1 -40.68145358897372,12.25698825130547" fill="none" id="id126" stroke="none" /><text fill="#e1ed5e" style="font-size:6.75px; font-family:Arial;" text-anchor="middle"><textPath startOffset="21.466115282336833" xlink:href="#id126">June</textPath></text><line stroke="#e1ed5e" stroke-width="0.3" x1="102.19456741930631" x2="102.32365962044197" y1="184.97166512339345" y2="189.96999836594603" /><path d="M 102.22038585953345 185.97133177190398 a86.0,86.0 0 0,1 -42.740103519485714,-10.115201625700543" fill="none" id="id127" stroke="none" /><text fill="#e1ed5e" style="font-size:6.75px; font-family:Arial;" text-anchor="middle"><textPath startOffset="22.20632615414155" xlink:href="#id127">July</textPath></text><line stroke="#e1ed5e" stroke-width="0.3" x1="58.666819895761336" x2="56.23545636021788" y1="174.27360380694188" y2="178.64263932499728" /><path d="M 58.180547188652646 175.14741091055294 a86.0,86.0 0 0,1 -31.652253787137756,-30.449443065178592" fill="none" id="id128" stroke="none" /><text fill="#e1ed5e" style="font-size:6.75px; font-family:Arial;" text-anchor="middle"><textPath startOffset="22.20632615414155" xlink:href="#id128">August</textPath></text><line stroke="#e1ed5e" stroke-width="0.3" x1="26.63291911575756" x2="22.317208475507996" y1="142.92168965132927" y2="145.44649492493687" /><path d="M 25.769776987707644 143.4266507060508 a86.0,86.0 0 0,1 -11.730757126820373,-40.83630448921669" fill="none" id="id129" stroke="none" /><text fill="#e1ed5e" style="font-size:6.75px; font-family:Arial;" text-anchor="middle"><textPath startOffset="21.46611528233685" xlink:href="#id129">September</textPath></text><line stroke="#e1ed5e" stroke-width="0.3" x1="15.007084014347285" x2="10.007500721073583" y1="101.09737516637583" y2="101.16192664675087" /><path d="M 14.007167355692545 101.11028546245083 a86.0,86.0 0 0,1 10.666146001902534,-42.60595125391555" fill="none" id="id130" stroke="none" /><text fill="#e1ed5e" style="font-size:6.75px; font-family:Arial;" text-anchor="middle"><textPath startOffset="22.20632615414155" xlink:href="#id130">October</textPath></text><line stroke="#e1ed5e" stroke-width="0.3" x1="26.266209847984243" x2="21.928928074336255" y1="57.711370442889674" y2="55.22380399835377" /><path d="M 25.398753493254645 57.213857153982495 a86.0,86.0 0 0,1 29.58750427330803,-30.492523968695096" fill="none" id="id131" stroke="none" /><text fill="#e1ed5e" style="font-size:6.75px; font-family:Arial;" text-anchor="middle"><textPath startOffset="21.46611528233685" xlink:href="#id131">November</textPath></text><line stroke="#e1ed5e" stroke-width="0.3" x1="56.762969772571076" x2="54.21961505331055" y1="26.818313649435495" y2="22.513508569990535" /><path d="M 56.25429882871897 25.957352633546506 a86.0,86.0 0 0,1 42.265352541879196,-11.944610805530505" fill="none" id="id132" stroke="none" /><text fill="#e1ed5e" style="font-size:6.75px; font-family:Arial;" text-anchor="middle"><textPath startOffset="22.20632615414155" xlink:href="#id132">December</textPath></text></svg>