<?xml version="1.0" encoding="utf-8" ?>
<svg baseProfile="full" height="200mm" version="1.1" viewBox="0,0,200,200" width="200mm" xmlns="http://www.w3.org/2000/svg" xmlns:ev="http://www.w3.org/2001/xml-events" xmlns:xlink="http://www.w3.org/1999/xlink"><defs /><rect fill="#1a1a1a" height="200" width="200" x="0" y="0" /><text alignment-baseline="middle" fill="#e1ed5e" style="dominant-baseline: central; font-size:9.0px; font-family:Arial;" text-anchor="middle" x="100.0" y="100.0">2017</text><line stroke="#e1ed5e" stroke-width="0.3" x1="100.0" x2="100.0" y1="15.0" y2="10.0" /><path d="M 100.0 14.0 a86.0,86.0 0 0,1 42.46469731375804,11.215312516191453" fill="none" id="id25" stroke="none" /><text fill="#e1ed5e" style="font-size:6.75px; font-family:Arial;" text-anchor="middle"><textPath startOffset="22.20632615414155" xlink:href="#id25">January</textPath></text><line stroke="#e1ed5e" stroke-width="0.3" x1="143.23703022742887" x2="145.7803849466894" y1="26.81831364943548" y2="22.513508569990506" /><path d="M 143.74570117128098 25.957352633546492 a86.0,86.0 0 0,1 28.547481713284135,27.462654790039103" fill="none" id="id26" stroke="none" /><text fill="#e1ed5e" style="font-size:6.75px; font-family:Arial;" text-anchor="middle"><textPath startOffset="19.985693538727396" xlink:href="#id26">February</textPath></text><path d="M 117.2510076193507 88.02491185347247 l 6.356799131590565 -4.412683108734946 a28.738259973502135,28.738259973502135 0 0,0 0.2785907918979309,0.4087976108120721 l -6.431814389157229 4.302607474652467" fill="#ff5a08" stroke="none" /><line stroke="#e1ed5e" stroke-width="0.3" x1="172.23445277983987" x2="176.4835382374775" y1="55.19839476539836" y2="52.563006222186495" /><path d="M 173.08426987136738 54.67131705675599 a86.0,86.0 0 0,1 12.851231095245387,41.99856678651699" fill="none" id="id27" stroke="none" /><text fill="#e1ed5e" style="font-size:6.75px; font-family:Arial;" text-anchor="middle"><textPath startOffset="22.20632615414155" xlink:href="#id27">March</textPath></text><path d="M 118.56541770881063 90.18545643968196 l 6.658031759339398 -3.519745354127224 a28.53113499190343,28.53113499190343 0 0,0 0.22579073794712715,0.43615583796539886 l -6.717631930446641 3.40461679390148" fill="#ff5708" stroke="none" /><path d="M 119.61058180528143 92.48833698450437 l 6.928514107562996 -2.653907145177318 a28.419402325923745,28.419402325923745 0 0,0 0.171051526263,0.45833304891643445 l -6.973170222327621 2.5342509592315503" fill="#ff5507" stroke="none" /><path d="M 119.97218684219823 93.5106431181261 l 9.18981284750443 -2.985951198848399 a30.66274105697041,30.66274105697041 0 0,0 0.15878118774195285,0.5033797560143025 l -9.239849519014587 2.8273212764076776" fill="#ff740a" stroke="none" /><path d="M 120.37134235888165 94.90015583598534 l 14.650207234321524 -3.6675920785841356 a36.10231120270867,36.10231120270867 0 0,0 0.14572818213171723,0.6041373965647568 l -14.71116821671406 3.4148694503599724" fill="#ffbd11" stroke="none" /><path d="M 120.45610955862082 95.25157060432595 l 1.434120219664269 -0.3328990093873681 a22.47225084645959,22.47225084645959 0 0,0 0.0842234418245039,0.3775571751419165 l -1.4396380484908107 0.3081636646954877" fill="#ff0000" stroke="none" /><path d="M 120.6074358757038 95.95851677861258 l 8.806044622594879 -1.7270213433475372 a29.973796555277488,29.973796555277488 0 0,0 0.09493739902606836,0.5071593817984386 l -8.834467745530807 1.575183884086536" fill="#ff6b09" stroke="none" /><path d="M 120.83666639777658 97.38593545837742 l 21.9152132540024 -2.749373666389256 a43.08700132489327,43.08700132489327 0 0,0 0.08598861979334162,0.7366979820242046 l -21.95929222679933 2.3717319460401987" fill="#eaff1a" stroke="none" /><path d="M 120.94382443527127 98.46500227214037 l 9.394351987968726 -0.6885231969363025 a30.419549536287356,30.419549536287356 0 0,0 0.03377932938562511,0.5225512745105452 l -9.404811908358766 0.5267128581727221" fill="#ff710a" stroke="none" /><line stroke="#e1ed5e" stroke-width="0.3" x1="184.98032266829074" x2="189.97916517819016" y1="98.17113171792111" y2="98.06355123074" /><path d="M 185.9800911702706 98.14961562048488 a86.0,86.0 0 0,1 -9.607161424134198,41.387399972396054" fill="none" id="id28" stroke="none" /><text fill="#e1ed5e" style="font-size:6.75px; font-family:Arial;" text-anchor="middle"><textPath startOffset="21.466115282336823" xlink:href="#id28">April</textPath></text><path d="M 120.99980553446 99.90962569577887 l 15.291776543841596 -0.06580935538602448 a36.291918151037834,36.291918151037834 0 0,0 -0.002688544544604969,0.6247230680670396 l -15.290643702007488 -0.19742319088469987" fill="#ffbf11" stroke="none" /><path d="M 120.99824983174949 100.27111621757518 l 7.473247278065808 0.09648987659770318 a28.473870160459295,28.473870160459295 0 0,0 -0.010546094153489958,0.490035555231426 l -7.470479121227311 -0.22511524761924404" fill="#ff5608" stroke="none" /><path d="M 120.8583938346157 102.4346265915055 l 23.28575390449474 2.7179521159990903 a44.443839246282934,44.443839246282934 0 0,0 -0.09523360425516339,0.7591055270927036 l -23.235518790992728 -3.1183753973791886" fill="#daff1b" stroke="none" /><path d="M 120.70491114924044 103.5080841355445 l 8.728391564018088 1.4788728989873297 a29.8527896363904,29.8527896363904 0 0,0 -0.09020312897756037,0.5059070509474786 l -8.701641992701338 -1.6288987006680267" fill="#ff6909" stroke="none" /><path d="M 120.41448212921028 104.9243191809786 l 30.342452082270956 7.319113844815959 a52.21271897541587,52.21271897541587 0 0,0 -0.21827076075871885,0.8718831892402698 l -30.211970007217175 -7.840324873453625" fill="#82ff25" stroke="none" /><path d="M 120.02730092923936 106.31721596034902 l 11.188097450827833 3.5290640527162696 a32.73148829677609,32.73148829677609 0 0,0 -0.17411242278671016,0.5358629372283591 l -11.125692777024875 -3.721125889922424" fill="#ff900d" stroke="none" /><path d="M 119.12269723197855 108.67885076344098 l 9.434335825320305 4.2817805295382 a31.360518180479904,31.360518180479904 0 0,0 -0.22732699505357087,0.4896421233865124 l -9.359234213426904 -4.443542720203543" fill="#ff7e0b" stroke="none" /><path d="M 118.81262510543309 109.33194174019688 l 13.336571710986398 6.615563193514121 a35.887236861475046,35.887236861475046 0 0,0 -0.2792733326474996,0.5510327799814498 l -13.220719708552629 -6.844150185198266" fill="#ffba11" stroke="none" /><path d="M 118.64920377521936 109.65438752849418 l 8.43582554315265 4.367088798964429 a30.499190343000148,30.499190343000148 0 0,0 -0.24536960522006848,0.46414682312632477 l -8.359403429707687 -4.5116506371768885" fill="#ff720a" stroke="none" /><line stroke="#e1ed5e" stroke-width="0.3" x1="174.80103733775053" x2="179.2010983576182" y1="140.37084112569926" y2="142.7455964860345" /><path d="M 175.68104954172406 140.8457921977663 a86.0,86.0 0 0,1 -30.038265399797805,32.042727171017184" fill="none" id="id29" stroke="none" /><text fill="#e1ed5e" style="font-size:6.75px; font-family:Arial;" text-anchor="middle"><textPath startOffset="22.206326154141568" xlink:href="#id29">May</textPath></text><path d="M 118.48025628344425 109.97397251340804 l 27.284005636842387 14.725440930238989 a52.00412189018107,52.00412189018107 0 0,0 -0.43194026968603483,0.7840970550126376 l -27.026488957704842 -15.192908503649432" fill="#85ff25" stroke="none" /><path d="M 117.14729908036423 112.12312394758627 l 7.691180218131448 5.437657012374836 a30.419255115560134,30.419255115560134 0 0,0 -0.3059600657756247,0.42495177133876716 l -7.596440359980221 -5.569242389164734" fill="#ff710a" stroke="none" /><path d="M 116.71984013943494 112.70617746262583 l 7.6744386213393385 5.832159771598311 a30.639040188429266,30.639040188429266 0 0,0 -0.3227212769839134,0.4171607537676362 l -7.572910527137356 -5.9633985194792" fill="#ff740a" stroke="none" /><path d="M 116.0416608686014 113.55231037782055 l 24.646512429139058 20.821858092280316 a53.26453702340645,53.26453702340645 0 0,0 -0.5977231963719193,0.695287114317827 l -24.28444672319636 -21.24302230575967" fill="#77ff27" stroke="none" /><path d="M 115.07121518719521 114.62390073753431 l 6.8003400415988 6.5985055959066505 a30.475489474459003,30.475489474459003 0 0,0 -0.3685493456219149,0.3733385413284179 l -6.68575007092135 -6.714584631215733" fill="#ff720a" stroke="none" /><path d="M 114.0293411484842 115.62618273729858 l 10.219125000799096 11.382281818347282 a36.29662888267334,36.29662888267334 0 0,0 -0.46849899154096314,0.41339588859119086 l -10.021683656351545 -11.556500848710762" fill="#ffbf11" stroke="none" /><path d="M 113.20401910651253 116.32954008644616 l 6.019480659739573 7.444350840443966 a30.573531576622994,30.573531576622994 0 0,0 -0.4120766206634576,0.32737858955599536 l -5.890446546358764 -7.546863344005088" fill="#ff730a" stroke="none" /><path d="M 112.04921762599082 117.19931262002967 l 8.450069958145809 12.061811760937442 a35.72721919623142,35.72721919623142 0 0,0 -0.506719346150795,0.3485261867962011 l -8.241193727372131 -12.205478737098737" fill="#ffb811" stroke="none" /><path d="M 111.45004920935366 117.60387380957326 l 7.906989671879593 12.156598268910377 a35.50184012954512,35.50184012954512 0 0,0 -0.5151455594425218,0.3287902693047813 l -7.696562310390141 -12.290902967038967" fill="#ffb510" stroke="none" /><line stroke="#e1ed5e" stroke-width="0.3" x1="143.8653032363475" x2="146.44561519142675" y1="172.8068346515853" y2="177.08958963109032" /><path d="M 144.38136562736335 173.6633856474863 a86.0,86.0 0 0,1 -40.68145358897372,12.25698825130547" fill="none" id="id30" stroke="none" /><text fill="#e1ed5e" style="font-size:6.75px; font-family:Arial;" text-anchor="middle"><textPath startOffset="21.466115282336833" xlink:href="#id30">June</textPath></text><path d="M 110.5260780823613 118.17145234162733 l 4.650192893444167 8.027753345682848 a30.27734432504048,30.27734432504048 0 0,0 -0.45322478680609096,0.25735286238884275 l -4.511319339716877 -8.10660937386632" fill="#ff6f0a" stroke="none" /><path d="M 108.59647513512805 119.15986991738527 l 4.798437646490722 10.694783579116015 a32.72191962314147,32.72191962314147 0 0,0 -0.5158833844158517,0.2261481153127424 l -4.613633587417116 -10.775796247723212" fill="#ff900d" stroke="none" /><path d="M 107.59598834532513 119.57807347666477 l 11.288205346473681 29.09447772243553 a52.20756661268953,52.20756661268953 0 0,0 -0.8406158558758076,0.31784898805271383 l -10.785719269837598 -29.284474960594878" fill="#82ff25" stroke="none" /><path d="M 106.57524785965236 119.94407469862006 l 3.1058116638212696 9.420563474602123 a30.919328720741937,30.919328720741937 0 0,0 -0.5068983286984804,0.16229283752762666 l -2.9431919900318486 -9.472629158789456" fill="#ff780b" stroke="none" /><path d="M 105.53697534728816 120.25689768951611 l 4.297751412895828 15.723225263887624 a37.30001472103636,37.30001472103636 0 0,0 -0.6207957918225736,0.1639578109454915 l -4.026465178261757 -15.7948744241367" fill="#ffcc13" stroke="none" /><path d="M 104.48393922423573 120.51570834832081 l 2.576269876531224 11.787403613278869 a33.06565582216988,33.06565582216988 0 0,0 -0.5570910173010049,0.11674383916992949 l -2.3729873978008413 -11.830003433175339" fill="#ff950d" stroke="none" /><path d="M 103.06178313531738 120.77559828337769 l 1.4629070311882475 9.926492982248812 a31.033711173266596,31.033711173266596 0 0,0 -0.5291564133577414,0.07333625720716329 l -1.2918220266436757 -9.950203804948579" fill="#ff790b" stroke="none" /><path d="M 101.62511606390274 120.93702456842531 l 0.6845735772261572 8.819637023867806 a29.84616517002797,29.84616517002797 0 0,0 -0.5125542194407111,0.03534873988661833 l -0.5326565970065157 -8.83011410827071" fill="#ff6909" stroke="none" /><line stroke="#e1ed5e" stroke-width="0.3" x1="102.19456741930631" x2="102.32365962044197" y1="184.97166512339345" y2="189.96999836594603" /><path d="M 102.22038585953345 185.97133177190398 a86.0,86.0 0 0,1 -42.740103519485714,-10.115201625700543" fill="none" id="id31" stroke="none" /><text fill="#e1ed5e" style="font-size:6.75px; font-family:Arial;" text-anchor="middle"><textPath startOffset="22.20632615414155" xlink:href="#id31">July</textPath></text><path d="M 100.54218724476979 120.99299961872073 l 0.3818909520303074 14.786472178571934 a35.7914029147652,35.7914029147652 0 0,0 -0.6160217032709144,0.010605372278470363 l -0.12730955886672501 -14.790855028129565" fill="#ffb811" stroke="none" /><path d="M 99.45781275523022 120.99299961872073 l -0.573292517082286 22.197367622755777 a43.204769615780954,43.204769615780954 0 0,0 -0.7432859034651148,-0.02560026939444481 l 0.9552987722220438 -22.18421055493524" fill="#e9ff1a" stroke="none" /><path d="M 98.73552117531835 120.96189622390904 l -0.5557030449898838 9.212166572517262 a30.228912115412925,30.228912115412925 0 0,0 -0.5191272099980414,-0.03580205179914494 l 0.7141930157668552 -9.201236176201832" fill="#ff6e0a" stroke="none" /><path d="M 98.37488393609728 120.93702456842531 l -0.13646586703042116 1.7581447099266538 a22.763432945679376,22.763432945679376 0 0,0 -0.39039903443313445,-0.03368527140435686 l 0.1667092192050973 -1.7555351862436337" fill="#ff0400" stroke="none" /><path d="M 98.01472825383883 120.90594882070398 l -1.407641488850319 14.823200390932865 a35.889886648020024,35.889886648020024 0 0,0 -0.6145158738165784,-0.06369708292489841 l 1.6625899592724909 -14.796773939552205" fill="#ffba11" stroke="none" /><path d="M 96.93821686468263 120.77559828337769 l -3.00647259057093 20.400290951766973 a41.620638892978064,41.620638892978064 0 0,0 -0.7078761688701083,-0.11055569936881897 l 3.3571846230495557 -20.345516945051045" fill="#fcff18" stroke="none" /><path d="M 95.86986931433489 120.58985236759428 l -4.6385039039612 23.124234523753543 a44.584866774620934,44.584866774620934 0 0,0 -0.7511669788521012,-0.15741434387819467 l 5.035862344242688 -23.040964199148807" fill="#d9ff1c" stroke="none" /><path d="M 95.16358092515715 120.4354850818985 l -5.817854161231156 24.582375943996023 a46.261445605770646,46.261445605770646 0 0,0 -0.7733299296636391,-0.19006568168761143 l 6.240137375638006 -24.478589003994383" fill="#c5ff1e" stroke="none" /><path d="M 94.46302465271185 120.25689768951611 l -4.685739086281538 17.142669294538248 a38.771529515677905,38.771529515677905 0 0,0 -0.6422574611150647,-0.18150837384749663 l 4.980127715501217 -17.05947212735223" fill="#ffdf14" stroke="none" /><path d="M 93.76903079525671 120.05430185196036 l -4.406663653473368 14.182795671585769 a35.85161195348152,35.85161195348152 0 0,0 -0.5877592733174373,-0.18818195849014785 l 4.650144271881746 -14.104840866435914" fill="#ffb911" stroke="none" /><path d="M 92.7421414339146 119.70592522655815 l -10.291849297940812 27.943560881155957 a50.77859561313116,50.77859561313116 0 0,0 -0.817607396417662,-0.30914915744125987 l 10.771326915118758 -27.762263473608066" fill="#92ff23" stroke="none" /><path d="M 91.7346041902142 119.30500536409082 l -10.00905925534736 23.37757889165035 a46.43014868246725,46.43014868246725 0 0,0 -0.7320029667300917,-0.32088858903023265 l 10.409982896735196 -23.201825749325664" fill="#c3ff1e" stroke="none" /><path d="M 91.07499286063937 119.00905698771935 l -6.286413831856441 13.389210441203845 a35.79155012512881,35.79155012512881 0 0,0 -0.555429179924468,-0.26663975973942644 l 6.515955679781151 -13.279016404964857" fill="#ffb811" stroke="none" /><path d="M 90.42595943632237 118.69057910512821 l -17.061970755748693 33.30862366611995 a58.42426026792286,58.42426026792286 0 0,0 -0.8911343846178806,-0.4661993924200443 l 17.63279604289307 -33.00999485475519" fill="#42ff2d" stroke="none" /><line stroke="#e1ed5e" stroke-width="0.3" x1="58.666819895761336" x2="56.23545636021788" y1="174.27360380694188" y2="178.64263932499728" /><path d="M 58.180547188652646 175.14741091055294 a86.0,86.0 0 0,1 -31.652253787137756,-30.449443065178592" fill="none" id="id32" stroke="none" /><text fill="#e1ed5e" style="font-size:6.75px; font-family:Arial;" text-anchor="middle"><textPath startOffset="22.20632615414155" xlink:href="#id32">August</textPath></text><path d="M 89.7882731507175 118.34994917583269 l -7.194301978084864 12.927791508908765 a35.79478875312822,35.79478875312822 0 0,0 -0.5358159991590838,-0.3042503082611076 l 7.415766744165156 -12.802038034853025" fill="#ffb911" stroke="none" /><path d="M 89.4739219176387 118.17145234162733 l -7.519291293593154 12.980755255208027 a36.00132489327248,36.00132489327248 0 0,0 -0.5335604282062905,-0.31523690574721525 l 7.741619592827827 -12.849399777167063" fill="#ffbb11" stroke="none" /><path d="M 88.8546689885994 117.79835938074946 l -14.097355763314404 22.512548432800504 a47.56219637862506,47.56219637862506 0 0,0 -0.6901460367230938,-0.4404838537662517 l 14.482783602084421 -22.266550150210445" fill="#b6ff1f" stroke="none" /><path d="M 88.24862548938628 117.40417183066458 l -8.320605481967071 12.32309015532871 a35.86912998675107,35.86912998675107 0 0,0 -0.5087320676724021,-0.34991055501173357 l 8.531494434262363 -12.178038810951877" fill="#ffb911" stroke="none" /><path d="M 87.95078237400918 117.19931262002967 l -8.642819599741223 12.336946748627206 a36.06315324598852,36.06315324598852 0 0,0 -0.5053524034234347,-0.3605555219041218 l 8.853899331013544 -12.186346964878865" fill="#ffbc11" stroke="none" /><path d="M 87.07902340077011 116.55440617244103 l -9.099835510071497 11.658745140448925 a35.78963639040188,35.78963639040188 0 0,0 -0.48238040088921097,-0.3832321644899626 l 9.299173403678065 -11.500379061953831" fill="#ffb811" stroke="none" /><path d="M 86.79598089348748 116.32954008644616 l -24.2521213165778 29.99283657693918 a59.57117621080524,59.57117621080524 0 0,0 -0.7918140361030361,-0.6516090452876648 l 24.764805481225522 -29.570932412794335" fill="#36ff2e" stroke="none" /><path d="M 86.24171649860922 115.8653595955263 l -9.726848828736612 11.21651217491124 a35.846606801118796,35.846606801118796 0 0,0 -0.4626903283711415,-0.4082704187055094 l 9.918481510014342 -11.047418614433441" fill="#ffb911" stroke="none" /><path d="M 85.44109423537348 115.13401014063109 l -10.341045239853225 10.749536129625351 a35.91609009274253,35.91609009274253 0 0,0 -0.441853504092157,-0.4324466515892221 l 10.524548696321176 -10.56993937511356" fill="#ffba11" stroke="none" /><path d="M 85.18274418774928 114.88116024355367 l -10.446023566151732 10.491075578739654 a35.80479905785367,35.80479905785367 0 0,0 -0.4329983042259405,-0.4386249961307142 l 10.625062495433205 -10.309710088628275" fill="#ffb911" stroke="none" /><path d="M 84.43433777217949 114.09645910891817 l -10.957602940297022 9.923342773273472 a35.783159134403064,35.783159134403064 0 0,0 -0.4095316966466192,-0.46011320259818894 l 11.12679348659198 -9.73325540093442" fill="#ffb811" stroke="none" /><path d="M 83.95833913139862 113.55231037782056 l -11.295160874890804 9.542373897428085 a35.78639776240247,35.78639776240247 0 0,0 -0.3934867806066538,-0.47398017552673977 l 11.457743655390994 -9.346532464787584" fill="#ffb811" stroke="none" /><path d="M 83.06392112726016 112.41649034213515 l -50.80823661821951 37.24947102640544 a84.0,84.0 0 0,0 -0.8448808304975701,-1.1734655781954473 l 51.44189724109269 -36.36937184275885" fill="#4dd2ff" stroke="none" /><line stroke="#e1ed5e" stroke-width="0.3" x1="26.63291911575756" x2="22.317208475507996" y1="142.92168965132927" y2="145.44649492493687" /><path d="M 25.769776987707644 143.4266507060508 a86.0,86.0 0 0,1 -11.730757126820373,-40.83630448921669" fill="none" id="id33" stroke="none" /><text fill="#e1ed5e" style="font-size:6.75px; font-family:Arial;" text-anchor="middle"><textPath startOffset="21.46611528233685" xlink:href="#id33">September</textPath></text><path d="M 81.69416730710424 110.29060199501025 l -7.9558440081466975 4.472368211580866 a30.126748123067863,30.126748123067863 0 0,0 -0.250229313294061,-0.45423888764601666 l 8.031649730892275 -4.334758805537026" fill="#ff6d0a" stroke="none" /><path d="M 80.73074385275274 108.34839909993369 l -1.8411106761651028 0.7976606151437143 a23.006477255998824,23.006477255998824 0 0,0 -0.15430665465375948,-0.36473535015257796 l 1.854568312011169 -0.7658507393249776" fill="#ff0801" stroke="none" /><path d="M 79.86692584326677 105.97154293290107 l -9.372232308652345 2.779838149531813 a30.77579861622258,30.77579861622258 0 0,0 -0.1462691098861649,-0.5091819602182159 l 9.418694055424615 -2.618098713809001" fill="#ff760a" stroke="none" /><path d="M 79.67330655649465 105.27499134158121 l -14.312598049997815 3.71427015412551 a35.786692183129695,35.786692183129695 0 0,0 -0.14960317488020278,-0.5975903175561218 l 14.374412539173075 -3.4673519971719964" fill="#ffb811" stroke="none" /><path d="M 79.35854240842038 103.8639653848113 l -1.4630311154231723 0.27387124004281055 a22.488443986456648,22.488443986456648 0 0,0 -0.0679510370093596,-0.38110550190315906 l 1.4675285947717207 -0.24864698740643779" fill="#ff0000" stroke="none" /><path d="M 79.29508885075956 103.50808413554451 l -10.221029687708361 1.731774255775763 a31.36670101575151,31.36670101575151 0 0,0 -0.08561353684270456,-0.5331155756440327 l 10.249324978912357 -1.5555794504385165" fill="#ff7e0b" stroke="none" /><line stroke="#e1ed5e" stroke-width="0.3" x1="15.007084014347285" x2="10.007500721073583" y1="101.09737516637583" y2="101.16192664675087" /><path d="M 14.007167355692545 101.11028546245083 a86.0,86.0 0 0,1 10.666146001902534,-42.60595125391555" fill="none" id="id34" stroke="none" /><text fill="#e1ed5e" style="font-size:6.75px; font-family:Arial;" text-anchor="middle"><textPath startOffset="22.20632615414155" xlink:href="#id34">October</textPath></text><path d="M 79.00175016825051 100.2711162175752 l -14.923384455232343 0.19268137008283698 a35.92462829383189,35.92462829383189 0 0,0 -0.0026613353147767146,-0.6184006012988712 l 14.924490087836622 0.06422870941970961" fill="#ffba11" stroke="none" /><path d="M 79.01574976396665 99.18683210126434 l -14.779721128999842 -0.5727340571706593 a35.790814073310756,35.790814073310756 0 0,0 0.02915484224666944,-0.6154126403234959 l 14.767672678519673 0.8270578041171642" fill="#ffb811" stroke="none" /><path d="M 79.12142395522702 97.74499172005258 l -8.837606340641472 -0.9545131540736286 a29.889003385838365,29.889003385838365 0 0,0 0.059649408617858175,-0.5110397057578415 l 8.819866579020024 1.106496598156332" fill="#ff6a09" stroke="none" /><path d="M 79.54389044137918 95.25157060432595 l -8.761024791581658 -2.03367642011105 a29.993964375092006,29.993964375092006 0 0,0 0.12107163662635381,-0.5019200972613934 l 8.72472035469449 2.1841817490318403" fill="#ff6b09" stroke="none" /><path d="M 79.62865764111835 94.90015583598534 l -1.442886186719802 -0.3612179584951174 a22.487413513911378,22.487413513911378 0 0,0 0.09723522065773212,-0.3746869699370655 l 1.4364546341917626 0.3860013539810467" fill="#ff0000" stroke="none" /><path d="M 80.52162464483688 92.15188598940014 l -1.3953405659496256 -0.562202526931224 a22.504342705726483,22.504342705726483 0 0,0 0.14786244020338074,-0.3580606272960358 l 1.3854564388600452 0.586137724680571" fill="#ff0000" stroke="none" /><path d="M 81.43458229118936 90.18545643968196 l -1.3139328103029888 -0.6946060144895024 a22.486235831002503,22.486235831002503 0 0,0 0.18384307482126314,-0.34063329671964926 l 1.3017816362632537 0.7171202945416244" fill="#ff0000" stroke="none" /><line stroke="#e1ed5e" stroke-width="0.3" x1="26.266209847984243" x2="21.928928074336255" y1="57.711370442889674" y2="55.22380399835377" /><path d="M 25.398753493254645 57.213857153982495 a86.0,86.0 0 0,1 29.58750427330803,-30.492523968695096" fill="none" id="id35" stroke="none" /><text fill="#e1ed5e" style="font-size:6.75px; font-family:Arial;" text-anchor="middle"><textPath startOffset="21.46611528233685" xlink:href="#id35">November</textPath></text><line stroke="#e1ed5e" stroke-width="0.3" x1="56.762969772571076" x2="54.21961505331055" y1="26.818313649435495" y2="22.513508569990535" /><path d="M 56.25429882871897 25.957352633546506 a86.0,86.0 0 0,1 42.265352541879196,-11.944610805530505" fill="none" id="id36" stroke="none" /><text fill="#e1ed5e" style="font-size:6.75px; font-family:Arial;" text-anchor="middle"><textPath startOffset="22.20632615414155" xlink:href="#id36">December</textPath></text></svg>