<?xml version="1.0" encoding="utf-8" ?>
<svg baseProfile="full" height="200mm" version="1.1" viewBox="0,0,200,200" width="200mm" xmlns="http://www.w3.org/2000/svg" xmlns:ev="http://www.w3.org/2001/xml-events" xmlns:xlink="http://www.w3.org/1999/xlink"><defs /><rect fill="#1a1a1a" height="200" width="200" x="0" y="0" /><text alignment-baseline="middle" fill="#e1ed5e" style="dominant-baseline: central; font-size:9.0px; font-family:Arial;" text-anchor="middle" x="100.0" y="100.0">2015</text><line stroke="#e1ed5e" stroke-width="0.3" x1="100.0" x2="100.0" y1="15.0" y2="10.0" /><path d="M 100.0 14.0 a86.0,86.0 0 0,1 42.46469731375804,11.215312516191453" fill="none" id="id1" stroke="none" /><text fill="#e1ed5e" style="font-size:6.75px; font-family:Arial;" text-anchor="middle"><textPath startOffset="22.20632615414155" xlink:href="#id1">January</textPath></text><line stroke="#e1ed5e" stroke-width="0.3" x1="143.23703022742887" x2="145.7803849466894" y1="26.81831364943548" y2="22.513508569990506" /><path d="M 143.74570117128098 25.957352633546492 a86.0,86.0 0 0,1 28.547481713284135,27.462654790039103" fill="none" id="id2" stroke="none" /><text fill="#e1ed5e" style="font-size:6.75px; font-family:Arial;" text-anchor="middle"><textPath startOffset="19.985693538727396" xlink:href="#id2">February</textPath></text><line stroke="#e1ed5e" stroke-width="0.3" x1="172.23445277983987" x2="176.4835382374775" y1="55.19839476539836" y2="52.563006222186495" /><path d="M 173.08426987136738 54.67131705675599 a86.0,86.0 0 0,1 12.851231095245387,41.99856678651699" fill="none" id="id3" stroke="none" /><text fill="#e1ed5e" style="font-size:6.75px; font-family:Arial;" text-anchor="middle"><textPath startOffset="22.20632615414155" xlink:href="#id3">March</textPath></text><line stroke="#e1ed5e" stroke-width="0.3" x1="184.98032266829074" x2="189.97916517819016" y1="98.17113171792111" y2="98.06355123074" /><path d="M 185.9800911702706 98.14961562048488 a86.0,86.0 0 0,1 -9.607161424134198,41.387399972396054" fill="none" id="id4" stroke="none" /><text fill="#e1ed5e" style="font-size:6.75px; font-family:Arial;" text-anchor="middle"><textPath startOffset="21.466115282336823" xlink:href="#id4">April</textPath></text><line stroke="#e1ed5e" stroke-width="0.3" x1="174.80103733775053" x2="179.2010983576182" y1="140.37084112569926" y2="142.7455964860345" /><path d="M 175.68104954172406 140.8457921977663 a86.0,86.0 0 0,1 -30.038265399797805,32.042727171017184" fill="none" id="id5" stroke="none" /><text fill="#e1ed5e" style="font-size:6.75px; font-family:Arial;" text-anchor="middle"><textPath startOffset="22.206326154141568" xlink:href="#id5">May</textPath></text><line stroke="#e1ed5e" stroke-width="0.3" x1="143.8653032363475" x2="146.44561519142675" y1="172.8068346515853" y2="177.08958963109032" /><path d="M 144.38136562736335 173.6633856474863 a86.0,86.0 0 0,1 -40.68145358897372,12.25698825130547" fill="none" id="id6" stroke="none" /><text fill="#e1ed5e" style="font-size:6.75px; font-family:Arial;" text-anchor="middle"><textPath startOffset="21.466115282336833" xlink:href="#id6">June</textPath></text><line stroke="#e1ed5e" stroke-width="0.3" x1="102.19456741930631" x2="102.32365962044197" y1="184.97166512339345" y2="189.96999836594603" /><path d="M 102.22038585953345 185.97133177190398 a86.0,86.0 0 0,1 -42.740103519485714,-10.115201625700543" fill="none" id="id7" stroke="none" /><text fill="#e1ed5e" style="font-size:6.75px; font-family:Arial;" text-anchor="middle"><textPath startOffset="22.20632615414155" xlink:href="#id7">July</textPath></text><line stroke="#e1ed5e" stroke-width="0.3" x1="58.666819895761336" x2="56.23545636021788" y1="174.27360380694188" y2="178.64263932499728" /><path d="M 58.180547188652646 175.14741091055294 a86.0,86.0 0 0,1 -31.652253787137756,-30.449443065178592" fill="none" id="id8" stroke="none" /><text fill="#e1ed5e" style="font-size:6.75px; font-family:Arial;" text-anchor="middle"><textPath startOffset="22.20632615414155" xlink:href="#id8">August</textPath></text><line stroke="#e1ed5e" stroke-width="0.3" x1="26.63291911575756" x2="22.317208475507996" y1="142.92168965132927" y2="145.44649492493687" /><path d="M 25.769776987707644 143.4266507060508 a86.0,86.0 0 0,1 -11.730757126820373,-40.83630448921669" fill="none" id="id9" stroke="none" /><text fill="#e1ed5e" style="font-size:6.75px; font-family:Arial;" text-anchor="middle"><textPath startOffset="21.46611528233685" xlink:href="#id9">September</textPath></text><path d="M 80.45479744820244 107.68017299344265 l -21.809595220017293 8.569952844581174 a44.432936978094446,44.432936978094446 0 0,0 -0.2735920440823196,-0.7142624942948671 l 21.95388154369312 -8.193266783453149" fill="red" stroke="none" /><path d="M 80.20201598880116 107.00284435728193 l -24.953530055186736 8.826438441529382 a47.46856017574842,47.46856017574842 0 0,0 -0.26584466279005375,-0.7726690291961492 l 25.101765548920017 -8.395596709243934" fill="red" stroke="none" /><path d="M 79.97269907076064 106.31721596034903 l -29.76640715817937 9.389224391558594 a52.2121215200369,52.2121215200369 0 0,0 -0.26298307654649666,-0.8594439102529301 l 29.923617007231996 -8.875453508753617" fill="red" stroke="none" /><path d="M 79.86692584326677 105.97154293290107 l -36.45726021611668 10.813355819467755 a59.02710200033735,59.02710200033735 0 0,0 -0.2805399715670782,-0.9765964444116629 l 36.63799282456986 -10.184201899551498" fill="red" stroke="none" /><path d="M 79.76711848015287 105.62410040840567 l -60.698644559541364 16.872301225217015 a84.0,84.0 0 0,0 -0.3752476946329004,-1.3964362672978443 l 60.98008033051604 -15.824974024743632" fill="red" stroke="none" /><path d="M 79.67330655649465 105.27499134158121 l -28.956637144999306 7.514552755258118 a50.91580414862203,50.91580414862203 0 0,0 -0.21284912037227308,-0.8502264309341203 l 29.08169757966664 -7.014998484926606" fill="red" stroke="none" /><path d="M 79.50377843672027 104.57218783832718 l -16.4665966006734 3.6732805841210467 a37.871330530192026,37.871330530192026 0 0,0 -0.13645574425482926,-0.6374758087021718 l 16.527386383652672 -3.389290956002711" fill="red" stroke="none" /><path d="M 79.29508885075956 103.50808413554451 l -23.618688515458047 4.001772617434549 a44.95530486702014,44.95530486702014 0 0,0 -0.12270281938718673,-0.7640705734530118 l 23.684073089206525 -3.594622814288323" fill="red" stroke="none" /><line stroke="#e1ed5e" stroke-width="0.3" x1="15.007084014347285" x2="10.007500721073583" y1="101.09737516637583" y2="101.16192664675087" /><path d="M 14.007167355692545 101.11028546245083 a86.0,86.0 0 0,1 10.666146001902534,-42.60595125391555" fill="none" id="id10" stroke="none" /><text fill="#e1ed5e" style="font-size:6.75px; font-family:Arial;" text-anchor="middle"><textPath startOffset="22.20632615414155" xlink:href="#id10">October</textPath></text><path d="M 79.03285615573316 98.82574320788736 l -24.151116533911047 -1.3525739527371796 a45.18896207223813,45.18896207223813 0 0,0 0.050179994697551494,-0.7762623077797305 l 24.124255948209083 1.768095324769922" fill="red" stroke="none" /><path d="M 79.05617556472873 98.46500227214037 l -21.19571198921805 -1.5534588653743884 a42.252563167210965,42.252563167210965 0 0,0 0.05940613035529567,-0.7249052605450164 l 21.165831375043258 1.918078043127183" fill="red" stroke="none" /><path d="M 79.08570108090925 98.10471618934814 l -23.640778132413 -2.142361273447968 a44.73765157996777,44.73765157996777 0 0,0 0.0761027383173063,-0.7663441891492386 l 23.600398268413464 2.5489809933016367" fill="red" stroke="none" /><path d="M 79.21141760316559 97.0276538004421 l -35.19889630832094 -5.032729200746366 a56.55686522363824,56.55686522363824 0 0,0 0.14608936304428835,-0.9625463729166251 l 35.107051051837345 5.637874686055084" fill="red" stroke="none" /><path d="M 79.32604984820605 96.31383870115002 l -11.27144063099643 -2.009695676501329 a32.449203055681444,32.449203055681444 0 0,0 0.1027778690928837,-0.5490434864072424 l 11.235177037993685 2.2034172403711443" fill="red" stroke="none" /><path d="M 79.81627453868168 94.20196356495316 l -25.824882855015083 -7.41853192618753 a47.86929828661545,47.86929828661545 0 0,0 0.23431817015546375,-0.7900043839621502 l 25.693358787747915 7.8619656968962195" fill="red" stroke="none" /><path d="M 79.91906864156998 93.8553929516997 l -22.44534311748868 -6.868098449195758 a44.472626695145166,44.472626695145166 0 0,0 0.23029306073908687,-0.7300919357967377 l 22.323794572981388 7.25344055141891" fill="red" stroke="none" /><path d="M 80.02781315780177 93.51064311812611 l -23.045861291380934 -7.488054250221182 a45.23185257292198,45.23185257292198 0 0,0 0.24697174398702162,-0.7384140793642772 l 22.91355225362214 7.8836414325077815" fill="red" stroke="none" /><path d="M 80.14247586403 93.16781622104843 l -23.602417666261086 -8.120652605999812 a45.960350927820805,45.960350927820805 0 0,0 0.26382755758327664,-0.7458760326889161 l 23.459137027868 8.52572626511534" fill="red" stroke="none" /><line stroke="#e1ed5e" stroke-width="0.3" x1="26.266209847984243" x2="21.928928074336255" y1="57.711370442889674" y2="55.22380399835377" /><path d="M 25.398753493254645 57.213857153982495 a86.0,86.0 0 0,1 29.58750427330803,-30.492523968695096" fill="none" id="id11" stroke="none" /><text fill="#e1ed5e" style="font-size:6.75px; font-family:Arial;" text-anchor="middle"><textPath startOffset="21.46611528233685" xlink:href="#id11">November</textPath></text><line stroke="#e1ed5e" stroke-width="0.3" x1="56.762969772571076" x2="54.21961505331055" y1="26.818313649435495" y2="22.513508569990535" /><path d="M 56.25429882871897 25.957352633546506 a86.0,86.0 0 0,1 42.265352541879196,-11.944610805530505" fill="none" id="id12" stroke="none" /><text fill="#e1ed5e" style="font-size:6.75px; font-family:Arial;" text-anchor="middle"><textPath startOffset="22.20632615414155" xlink:href="#id12">December</textPath></text></svg>