<?xml version="1.0" encoding="utf-8" ?>
<svg baseProfile="full" height="200mm" version="1.1" viewBox="0,0,200,200" width="200mm" xmlns="http://www.w3.org/2000/svg" xmlns:ev="http://www.w3.org/2001/xml-events" xmlns:xlink="http://www.w3.org/1999/xlink"><defs /><rect fill="#1a1a1a" height="200" width="200" x="0" y="0" /><text alignment-baseline="middle" fill="#e1ed5e" style="dominant-baseline: central; font-size:9.0px; font-family:Arial;" text-anchor="middle" x="100.0" y="100.0">2024</text><line stroke="#e1ed5e" stroke-width="0.3" x1="100.0" x2="100.0" y1="15.0" y2="10.0" /><path d="M 100.0 14.0 a86.0,86.0 0 0,1 42.35913384403234,11.155469271406648" fill="none" id="id109" stroke="none" /><text fill="#e1ed5e" style="font-size:6.75px; font-family:Arial;" text-anchor="middle"><textPath startOffset="22.145653131862478" xlink:href="#id109">January</textPath></text><path d="M 101.08105385017728 79.02784411241856 l 0.8392331081774489 -16.28089809571533 a37.3025137636172,37.3025137636172 0 0,0 0.639215250356867,0.03845360214997746 l -1.1185927106667781 16.26409251574066" fill="#ff9f0e" stroke="none" /><path d="M 101.44090949804482 79.04949213459386 l 1.1622807760848313 -16.899307398706775 a37.93922923743704,37.93922923743704 0 0,0 0.6493588239173737,0.05026447980343078 l -1.4522085947774384 16.876865151908287" fill="#ffa80f" stroke="none" /><path d="M 101.80034050326958 79.07731436759882 l 3.8635935642791406 -44.900813712724904 a66.066733044395,66.066733044395 0 0,0 1.1291133016837693,0.10692820360412648 l -4.633806429347923 44.82787375361559" fill="#35ff64" stroke="none" /><path d="M 102.51750503828377 79.15144685158666 l 2.1735531609904997 -18.00013819583241 a39.13089375658896,39.13089375658896 0 0,0 0.6661982079626526,0.08625269577354061 l -2.482229190843944 17.960173903858472" fill="#ffb911" stroke="none" /><path d="M 102.87502721639298 79.19773525538626 l 2.064907388570329 -14.940641231229863 a36.08265901370505,36.08265901370505 0 0,0 0.6128465996717747,0.09006734562003926 l -2.321079093849786 14.902992812310941" fill="#ff8e0d" stroke="none" /><path d="M 103.23170211078529 79.25015418208739 l 3.886968799285606 -24.95712801469022 a46.258003982663695,46.258003982663695 0 0,0 0.7835720324044827,0.1289364797480293 l -4.314818334743159 24.88672553644652" fill="#e6ff1a" stroke="none" /><path d="M 103.94208987418118 79.37332000966035 l 2.8695015691855037 -15.014444745925811 a36.28618952793721,36.28618952793721 0 0,0 0.61082359641979,0.12218182639648964 l -3.1268216511362508 14.962973522866463" fill="#ff910d" stroke="none" /><path d="M 104.29559338865022 79.4440306129975 l 4.949236077603266 -23.683886274959846 a45.19548319081645,45.19548319081645 0 0,0 0.7580737037554157,0.16521863540480963 l -5.355072197977815 23.59543618142132" fill="#f4ff19" stroke="none" /><path d="M 104.64783097203109 79.52079915486377 l 11.543422036336613 -50.862447396404164 a73.15591191284994,73.15591191284994 0 0,0 1.2222884406693502,0.2884567438790887 l -12.414842630745849 50.65679450887885" fill="#3effb9" stroke="none" /><path d="M 104.9986988182912 79.60360301121754 l 3.659174010208174 -14.930678657842124 a36.37253133419234,36.37253133419234 0 0,0 0.6051604723885851,0.15382942561955976 l -3.914939775822153 14.865664000387298" fill="#ff920d" stroke="none" /><path d="M 105.3480935250658 79.69241777938227 l 3.4697894540415213 -13.175355721796864 a34.62458943422748,34.62458943422748 0 0,0 0.5734798185821162,0.15630447470603454 l -3.69545067355833 13.113850752946687" fill="#ff780b" stroke="none" /><path d="M 105.69591212413111 79.78721728523813 l 7.729973918451255 -27.430950442948777 a49.4992901487642,49.4992901487642 0 0,0 0.8158896990101243,0.2374936004779689 l -8.199723629842984 27.294213148168293" fill="#bdff1f" stroke="none" /><path d="M 106.38641147887787 79.99465700312896 l 4.958374861768872 -15.532038633091357 a37.304284877591655,37.304284877591655 0 0,0 0.6083747313755388,0.19998485806075095 l -5.224272330792153 15.444632853628585" fill="#ff9f0e" stroke="none" /><path d="M 106.72888874123014 80.10723608172694 l 3.4503427301112906 -10.200325195848885 a31.768077779079302,31.768077779079302 0 0,0 0.5150879579524484,0.17917432983033735 l -3.6249364601087573 10.139592433449957" fill="#ff4e07" stroke="none" /><path d="M 107.06938296918511 80.22567764915836 l 12.599930941106942 -35.24424933743718 a58.42880402951857,58.42880402951857 0 0,0 0.9415686256887751,0.3457570414373353 l -13.203088718449841 35.022761446991126" fill="#55ff2b" stroke="none" /><path d="M 108.07796709384702 80.6158196554323 l 8.892311716115579 -21.338310986261725 a44.11702237319902,44.11702237319902 0 0,0 0.6965551050892472,0.29731795463576244 l -9.257301896375255 21.18251838196656" fill="#fffc17" stroke="none" /><path d="M 108.73861861582097 80.90454125486305 l 7.593416350972868 -16.59298512034085 a39.2479348717348,39.2479348717348 0 0,0 0.610233032993216,0.2856198719129895 l -7.877138097837589 16.460189016857324" fill="#ffba11" stroke="none" /><path d="M 109.06512990194946 81.05736502329252 l 22.60820248918824 -47.24244791462781 a73.37346374604661,73.37346374604661 0 0,0 1.1314878195380234,0.5534673921137497 l -23.41585055798833 46.84738677241684" fill="#3fffbc" stroke="none" /><path d="M 109.71004243097381 81.37971332152246 l 8.029091569091703 -15.396841759139555 a38.36459177697083,38.36459177697083 0 0,0 0.5813353419626243,0.3095283257517421 l -8.292215726840887 15.25674296566524" fill="#ffae10" stroke="none" /><path d="M 110.02825361518725 81.54914285379988 l 8.619458422415313 -15.858832667409231 a39.04986529225724,39.04986529225724 0 0,0 0.5862236659574037,0.325168385542162 l -8.890426276528817 15.708531366433924" fill="#ffb811" stroke="none" /><path d="M 110.34350942703115 81.72400993836675 l 13.91470389417251 -24.58594849982733 a49.250448635351994,49.250448635351994 0 0,0 0.7322076678672146,0.42274029414584446 l -14.334704029900122 24.343461308405313" fill="#c0ff1e" stroke="none" /><line stroke="#e1ed5e" stroke-width="0.3" x1="143.13028292997686" x2="145.6673583964461" y1="26.7553504044142" y2="22.446841604673864" /><path d="M 143.63769802327073 25.89364864446614 a86.0,86.0 0 0,1 29.32050498858742,28.57503671076993" fill="none" id="id110" stroke="none" /><text fill="#e1ed5e" style="font-size:6.75px; font-family:Arial;" text-anchor="middle"><textPath startOffset="20.669276256404974" xlink:href="#id110">February</textPath></text><path d="M 110.96478420261332 82.08984904055464 l 9.41787239593328 -15.383386778169024 a39.037319901604775,39.037319901604775 0 0,0 0.5685244162772376,0.3548012836410228 l -9.68056094100023 15.219449697686457" fill="#ffb711" stroke="none" /><path d="M 111.27062007382361 82.28071324371311 l 24.130111092809063 -37.936542542817584 a65.96046620592713,65.96046620592713 0 0,0 0.9501899395390039,0.6159016389400158 l -24.777786664605074 37.51672706217368" fill="#35ff63" stroke="none" /><path d="M 111.8722381534696 82.67804972795209 l 10.402984363011521 -15.178265082588078 a39.40113623052595,39.40113623052595 0 0,0 0.5546271087178503,0.3871727963970228 l -10.662006562903132 14.99744747038593" fill="#ffbd11" stroke="none" /><path d="M 112.16784306229584 82.88440491214696 l 9.845305839616785 -13.848655624850046 a37.99162469251493,37.99162469251493 0 0,0 0.5282988503314107,0.3824476263943478 l -10.081585700322163 13.677607227082623" fill="#ffa90f" stroke="none" /><path d="M 112.45986205192187 83.09580414077388 l 13.691428269170638 -18.575051962064602 a44.07569638046152,44.07569638046152 0 0,0 0.605195014903935,0.45414962175334295 l -14.00827627298534 18.337283313047244" fill="#fffc17" stroke="none" /><path d="M 113.03279911837588 83.53348406188908 l 16.582996495178676 -20.952074347903086 a47.72050134707743,47.72050134707743 0 0,0 0.6379759043548947,0.5139082286035962 l -16.94022316988883 20.66431782550608" fill="#d3ff1c" stroke="none" /><path d="M 113.59037401385872 83.9905735841838 l 20.076088289349162 -23.649581524247353 a52.02179922689469,52.02179922689469 0 0,0 0.6758387775596879,0.5837734394076204 l -20.47910654667171 23.301463952375013" fill="#9eff22" stroke="none" /><path d="M 114.39649973595853 84.71141617570332 l 19.744537158078092 -20.968014236074243 a49.80111748857913,49.80111748857913 0 0,0 0.6173619579491113,0.5914187904227746 l -20.101571601892516 20.625983315345888" fill="#b9ff1f" stroke="none" /><path d="M 114.65682725009322 84.96080404539774 l 4.132308481697243 -4.240112538729317 a26.920686423802273,26.920686423802273 0 0,0 0.32818634476861935,0.32538135012985525 l -4.204486746595824 4.1685511783708025" fill="#ff0300" stroke="none" /><path d="M 115.16444852881244 85.47280134310134 l 12.059653367216953 -11.552875125398133 a37.7004240365468,37.7004240365468 0 0,0 0.4436876126810392,0.47118086914788326 l -12.256196813634253 11.344152796305755" fill="#ffa50f" stroke="none" /><path d="M 115.41159269507618 85.73525988315684 l 14.276077665768122 -13.213724357970682 a40.45273515286401,40.45273515286401 0 0,0 0.46732983596759103,0.5136773538660054 l -14.50080520257759 12.966709428547004" fill="#ffcb12" stroke="none" /><path d="M 115.6541949942343 86.00192230759917 l 11.482151239427957 -10.267410440754556 a36.40323064308305,36.40323064308305 0 0,0 0.41255076805797053,0.46940704315002013 l -11.656713071444516 10.068791119793238" fill="#ff920d" stroke="none" /><path d="M 115.8921839302757 86.27271002978787 l 11.460578539537078 -9.8993747825247 a36.144057631486476,36.144057631486476 0 0,0 0.4015526258256212,0.4730279835328692 l -11.628825728869812 9.701180016542278" fill="#ff8f0d" stroke="none" /><path d="M 116.1254893667686 86.54754324733833 l 20.929324971496946 -17.45998726845987 a48.255968138690406,48.255968138690406 0 0,0 0.5251930956579589,0.6406501814998571 l -21.225964886393534 17.09813480526152" fill="#ccff1d" stroke="none" /><path d="M 116.57777611688842 87.10902102172516 l 12.198268271460462 -9.485447188453689 a36.452231463043226,36.452231463043226 0 0,0 0.37988089412905407,0.49727628475545776 l -12.359301142943822 9.27464999045735" fill="#ff930d" stroke="none" /><path d="M 116.7966241395341 87.39550010848427 l 41.85422822221708 -31.40819314071064 a73.32830033969779,73.32830033969779 0 0,0 0.7468940642862867,1.013305243362729 l -42.38722430608719 30.685081588079036" fill="#3fffbb" stroke="none" /><path d="M 117.21940702142032 87.97951657250589 l 13.991953211536917 -9.767470011500988 a38.06394517980556,38.06394517980556 0 0,0 0.3694201278544387,0.5389950067939058 l -14.15756307620668 9.525840269637033" fill="#ffaa0f" stroke="none" /><path d="M 117.42321728460499 88.27688183743584 l 12.571778862766578 -8.458853879533672 a36.152618015696376,36.152618015696376 0 0,0 0.3420305556549146,0.5178778547544439 l -12.715133857342217 8.24179614644017" fill="#ff8f0d" stroke="none" /><path d="M 117.62189284568427 88.57770195909679 l 21.41267430701557 -13.879436785215871 a46.517472179922684,46.517472179922684 0 0,0 0.42858609033808986,0.6738085202689423 l -21.64777808897955 13.509814590268256" fill="#e3ff1b" stroke="none" /><path d="M 117.81537515405839 88.88188828441811 l 12.575772526752925 -7.848212156808471 a35.823781187770884,35.823781187770884 0 0,0 0.32110396447039896,0.5244991940626171 l -12.708644455678726 7.6311758466213" fill="#ff8a0c" stroke="none" /><line stroke="#e1ed5e" stroke-width="0.3" x1="172.87174338648825" x2="177.1583165268699" y1="56.24261187166439" y2="53.66864786411523" /><path d="M 173.72905801456457 55.72781907015455 a86.0,86.0 0 0,1 12.242430191666344,42.057860355516425" fill="none" id="id111" stroke="none" /><text fill="#e1ed5e" style="font-size:6.75px; font-family:Arial;" text-anchor="middle"><textPath startOffset="22.145653131862474" xlink:href="#id111">March</textPath></text><path d="M 118.18653347947321 89.5 l 40.91682439813682 -23.623339580648942 a68.24667916129788,68.24667916129788 0 0,0 0.5770634841494022,1.0196158833368956 l -41.31632124730759 22.91746692721293" fill="#38ff7f" stroke="none" /><path d="M 118.70294669586156 90.45014215332178 l 13.227410941392685 -6.754010275709519 a35.8519714185311,35.8519714185311 0 0,0 0.275172564989008,0.5505294607716188 l -13.34140341959343 6.52594895877415" fill="#ff8a0c" stroke="none" /><path d="M 118.8641267826498 90.77261029715802 l 24.257760033647813 -11.865686004314032 a48.0043223614853,48.0043223614853 0 0,0 0.35573658414409204,0.7433526418472194 l -24.457875875751817 11.44752086040171" fill="#d0ff1d" stroke="none" /><path d="M 119.31412917781788 91.75594674310238 l 16.361241582305645 -6.98364113192364 a38.7893639451798,38.7893639451798 0 0,0 0.2561467755268951,0.6146590143050694 l -16.478714202369023 6.701749608177293" fill="#ffb410" stroke="none" /><path d="M 119.4528033332814 92.08871423366111 l 27.353599169471305 -11.124470651350268 a50.52919292491508,50.52919292491508 0 0,0 0.31987704096812103,0.8062991023885027 l -27.540534885405553 10.6532705317482" fill="#b0ff20" stroke="none" /><path d="M 119.71291397450082 92.76114493625339 l 15.285878871781726 -5.613186453202508 a37.28391706688532,37.28391706688532 0 0,0 0.21546523025394884,0.6026945968285955 l -15.379984272079618 5.349956899992995" fill="#ff9f0e" stroke="none" /><path d="M 119.83427380445688 93.10060997987247 l 17.057382538606713 -5.933443090309463 a39.0599016047792,39.0599016047792 0 0,0 0.2148565746333797,0.6351852853921954 l -17.156724534812458 5.639756130443105" fill="#ffb811" stroke="none" /><path d="M 120.05942366710727 93.78553927170692 l 14.877574281896418 -4.60911054282754 a36.57517629143727,36.57517629143727 0 0,0 0.18065294673637886,0.6013349054987328 l -14.954503548636424 4.353038033738083" fill="#ff950d" stroke="none" /><path d="M 120.16314734710363 94.1308016681162 l 30.814825332081465 -8.969746554092549 a53.093765959939084,53.093765959939084 0 0,0 0.2472184998572414,0.8772912418212758 l -30.964262324013287 8.43944738836826" fill="#92ff23" stroke="none" /><path d="M 120.43855184770803 95.1765574152323 l 12.708005385811317 -2.9990546689467825 a34.057094998242945,34.057094998242945 0 0,0 0.12939934608373874,0.5701573946266256 l -12.757615593452723 2.7804629403811307" fill="#ff700a" stroke="none" /><path d="M 120.51834098615036 95.52812308129327 l 19.13115981201817 -4.1695472382099785 a40.580255359025415,40.580255359025415 0 0,0 0.14249909169077574,0.6819097389922558 l -19.19991661453331 3.8405210479323184" fill="#ffcd13" stroke="none" /><path d="M 120.65975698304385 96.23510406497455 l 14.577507103052731 -2.6565073964873847 a35.81758228886025,35.81758228886025 0 0,0 0.10503963534506544,0.6058407034734832 l -14.62096155589003 2.405873660093309" fill="#ff8a0c" stroke="none" /><path d="M 120.77682067341334 96.94652285012252 l 62.330462020240034 -9.160431449632455 a84.0,84.0 0 0,0 0.19742193377914985,1.4284467671996575 l -62.478528470574396 8.089096374232712" fill="#4dd2ff" stroke="none" /><path d="M 120.9064616781168 98.02013634271609 l 15.610419271522517 -1.4783229351049065 a36.680262387255475,36.680262387255475 0 0,0 0.05398352518506593,0.6273703917257296 l -15.633496419405324 1.210131496003515" fill="#ff960d" stroke="none" /><path d="M 120.96210409425399 98.7389718711861 l 14.942589254490182 -0.8989090638276979 a35.96960290500176,35.96960290500176 0 0,0 0.03178755513309899,0.6166700774685201 l -14.955818399079854 0.6422671929824472" fill="#ff8c0c" stroke="none" /><path d="M 120.98066250479742 99.09900007780936 l 12.372373110917382 -0.5313229364278259 a33.38377650228418,33.38377650228418 0 0,0 0.019673080163953957,0.5727602637602155 l -12.379670878078183 0.3188564081034905" fill="#ff6609" stroke="none" /><path d="M 120.99303781780057 99.45929381324524 l 30.00246176477785 -0.7727569890019945 a51.01241185428136,51.01241185428136 0 0,0 0.015033038098916197,0.8755991036538988 l -30.01130623447543 0.25761096937902933" fill="#abff21" stroke="none" /><line stroke="#e1ed5e" stroke-width="0.3" x1="184.99686870605535" x2="189.99668451229388" y1="99.2704041080226" y2="99.22748670261217" /><path d="M 185.99683186730306 99.26182062694052 a86.0,86.0 0 0,1 -10.086455211305974,41.156179273409016" fill="none" id="id112" stroke="none" /><text fill="#e1ed5e" style="font-size:6.75px; font-family:Arial;" text-anchor="middle"><textPath startOffset="21.40746469413373" xlink:href="#id112">April</textPath></text><path d="M 120.99922638620191 100.18025310272382 l 14.825891671260953 0.12726244887516855 a35.826437858732575,35.826437858732575 0 0,0 -0.010557826726896381,0.6149404769534565 l -14.821522412935387 -0.38174984179769617" fill="#ff8a0c" stroke="none" /><path d="M 120.98066250479742 100.90099992219065 l 32.528259893961256 1.3969034403348606 a53.5582405997423,53.5582405997423 0 0,0 -0.047331229382555955,0.9182132053820378 l -32.499487075122126 -1.9550884390936292" fill="#8cff24" stroke="none" /><path d="M 120.96210409425399 101.26102812881392 l 5.6971153706791755 0.34272431351458843 a26.707414782710554,26.707414782710554 0 0,0 -0.03145884044027697,0.457404635735207 l -5.690392569073833 -0.4404723734041389" fill="#ff0000" stroke="none" /><path d="M 120.9064616781168 101.97986365728391 l 29.886664908016566 2.830298239837515 a51.02038186716645,51.02038186716645 0 0,0 -0.09005730907084035,0.8712227718554199 l -29.83367520646406 -3.3429255339758663" fill="#aaff21" stroke="none" /><path d="M 120.82617615685814 102.69636545807757 l 15.12145788395589 1.9577754652116854 a36.24766779899262,36.24766779899262 0 0,0 -0.08519148418882955,0.6164031414999788 l -15.08562188321185 -2.2170669149117495" fill="#ff900d" stroke="none" /><line stroke="#e1ed5e" stroke-width="0.3" x1="174.33088141563837" x2="178.70328620479359" y1="141.23008692659167" y2="143.65538615756765" /><path d="M 175.20536237346943 141.71514677278685 a86.0,86.0 0 0,1 -30.301960400862466,31.631185727798858" fill="none" id="id113" stroke="none" /><text fill="#e1ed5e" style="font-size:6.75px; font-family:Arial;" text-anchor="middle"><textPath startOffset="22.145653131862474" xlink:href="#id113">May</textPath></text><line stroke="#e1ed5e" stroke-width="0.3" x1="143.1302829299769" x2="145.66735839644613" y1="173.24464959558577" y2="177.55315839532614" /><path d="M 143.63769802327073 174.10635135553383 a86.0,86.0 0 0,1 -40.68552437913181,11.842963189579606" fill="none" id="id114" stroke="none" /><text fill="#e1ed5e" style="font-size:6.75px; font-family:Arial;" text-anchor="middle"><textPath startOffset="21.407464694133747" xlink:href="#id114">June</textPath></text><line stroke="#e1ed5e" stroke-width="0.3" x1="101.45913802915013" x2="101.54496967792366" y1="184.9874750549273" y2="189.98673829345242" /><path d="M 101.47630435890484 185.9873277026323 a86.0,86.0 0 0,1 -42.54439059252881,-10.42667462771756" fill="none" id="id115" stroke="none" /><text fill="#e1ed5e" style="font-size:6.75px; font-family:Arial;" text-anchor="middle"><textPath startOffset="22.145653131862474" xlink:href="#id115">July</textPath></text><line stroke="#e1ed5e" stroke-width="0.3" x1="58.13341422392154" x2="55.67067388415222" y1="173.97424548756322" y2="178.32567169271397" /><path d="M 57.64086615596768 174.84453072859336 a86.0,86.0 0 0,1 -31.369924170532247,-30.572349798747897" fill="none" id="id116" stroke="none" /><text fill="#e1ed5e" style="font-size:6.75px; font-family:Arial;" text-anchor="middle"><textPath startOffset="22.145653131862474" xlink:href="#id116">August</textPath></text><line stroke="#e1ed5e" stroke-width="0.3" x1="26.387840678322732" x2="22.057713659400548" y1="142.50000000000003" y2="145.00000000000006" /><path d="M 25.521815274538298 143.00000000000003 a86.0,86.0 0 0,1 -11.493303480769221,-40.785679425670985" fill="none" id="id117" stroke="none" /><text fill="#e1ed5e" style="font-size:6.75px; font-family:Arial;" text-anchor="middle"><textPath startOffset="21.40746469413373" xlink:href="#id117">September</textPath></text><line stroke="#e1ed5e" stroke-width="0.3" x1="15.003131293944662" x2="10.003315487706104" y1="100.72959589197737" y2="100.7725132973878" /><path d="M 14.003168132696942 100.73817937305945 a86.0,86.0 0 0,1 10.791469493833604,-42.45332614584628" fill="none" id="id118" stroke="none" /><text fill="#e1ed5e" style="font-size:6.75px; font-family:Arial;" text-anchor="middle"><textPath startOffset="22.145653131862435" xlink:href="#id118">October</textPath></text><line stroke="#e1ed5e" stroke-width="0.3" x1="26.387840678322718" x2="22.05771365940052" y1="57.49999999999999" y2="54.99999999999999" /><path d="M 25.521815274538284 56.99999999999999 a86.0,86.0 0 0,1 29.574782752854787,-30.34633250058573" fill="none" id="id119" stroke="none" /><text fill="#e1ed5e" style="font-size:6.75px; font-family:Arial;" text-anchor="middle"><textPath startOffset="21.40746469413373" xlink:href="#id119">November</textPath></text><line stroke="#e1ed5e" stroke-width="0.3" x1="56.869717070023135" x2="54.33264160355391" y1="26.7553504044142" y2="22.446841604673864" /><path d="M 56.362301976729285 25.89364864446614 a86.0,86.0 0 0,1 42.16139366436587,-11.88097634709845" fill="none" id="id120" stroke="none" /><text fill="#e1ed5e" style="font-size:6.75px; font-family:Arial;" text-anchor="middle"><textPath startOffset="22.145653131862474" xlink:href="#id120">December</textPath></text></svg>