<?xml version="1.0" encoding="utf-8" ?>
<svg baseProfile="full" height="200mm" version="1.1" viewBox="0,0,200,200" width="200mm" xmlns="http://www.w3.org/2000/svg" xmlns:ev="http://www.w3.org/2001/xml-events" xmlns:xlink="http://www.w3.org/1999/xlink"><defs /><rect fill="#1a1a1a" height="200" width="200" x="0" y="0" /><text alignment-baseline="middle" fill="#e1ed5e" style="dominant-baseline: central; font-size:9.0px; font-family:Arial;" text-anchor="middle" x="100.0" y="100.0">2022</text><line stroke="#e1ed5e" stroke-width="0.3" x1="100.0" x2="100.0" y1="15.0" y2="10.0" /><path d="M 100.0 14.0 a86.0,86.0 0 0,1 42.46469731375804,11.215312516191453" fill="none" id="id85" stroke="none" /><text fill="#e1ed5e" style="font-size:6.75px; font-family:Arial;" text-anchor="middle"><textPath startOffset="22.20632615414155" xlink:href="#id85">January</textPath></text><path d="M 102.52436894288641 79.15227682838746 l 1.4863478770392726 -12.275134807274933 a33.36479537025792,33.36479537025792 0 0,0 0.56956132031367,0.07394540589605963 l -1.6974239258607888 12.247731078214736" fill="#ff6409" stroke="none" /><line stroke="#e1ed5e" stroke-width="0.3" x1="143.23703022742887" x2="145.7803849466894" y1="26.81831364943548" y2="22.513508569990506" /><path d="M 143.74570117128098 25.957352633546492 a86.0,86.0 0 0,1 28.547481713284135,27.462654790039103" fill="none" id="id86" stroke="none" /><text fill="#e1ed5e" style="font-size:6.75px; font-family:Arial;" text-anchor="middle"><textPath startOffset="19.985693538727396" xlink:href="#id86">February</textPath></text><line stroke="#e1ed5e" stroke-width="0.3" x1="172.23445277983987" x2="176.4835382374775" y1="55.19839476539836" y2="52.563006222186495" /><path d="M 173.08426987136738 54.67131705675599 a86.0,86.0 0 0,1 12.851231095245387,41.99856678651699" fill="none" id="id87" stroke="none" /><text fill="#e1ed5e" style="font-size:6.75px; font-family:Arial;" text-anchor="middle"><textPath startOffset="22.20632615414155" xlink:href="#id87">March</textPath></text><path d="M 118.21658344932153 89.55222093294921 l 12.901505913112937 -7.399416240012538 a35.87280119947313,35.87280119947313 0 0,0 0.30259964847249093,0.5382910096564232 l -13.02696320287786 7.176241720421322" fill="#ff890c" stroke="none" /><path d="M 118.73160827565052 90.50648371742162 l 9.614545168996962 -4.872824573750499 a31.778863489868936,31.778863489868936 0 0,0 0.24309315330323608,0.4900609633140407 l -9.696998335253605 4.706604021937509" fill="#ff4d07" stroke="none" /><path d="M 119.196687751892 91.48605970444005 l 8.775804173329481 -3.8921648225428367 a30.600191971750725,30.600191971750725 0 0,0 0.20940627937799983,0.48333856442113743 l -8.841501162550163 3.7405271135350966" fill="#ff3b05" stroke="none" /><path d="M 120.45610955862082 95.25157060432595 l 18.08236519289348 -4.197417606666245 a39.56314212448737,39.56314212448737 0 0,0 0.14827815966825178,0.6647019153674555 l -18.15193773956377 3.8855375217488253" fill="#ffbe11" stroke="none" /><path d="M 120.87857604477298 97.74499172005257 l 15.338576851710663 -1.6566559773542064 a36.42778172204733,36.42778172204733 0 0,0 0.06196690800628115,0.6239983070275313 l -15.364820885399173 1.3923821396222402" fill="#ff910d" stroke="none" /><path d="M 120.98425023603335 99.18683210126433 l 12.024135932492179 -0.46595142739705414 a33.03316066774407,33.03316066774407 0 0,0 0.017127387926007865,0.5683746225791564 l -12.030375014873833 0.25890665739289864" fill="#ff6008" stroke="none" /><line stroke="#e1ed5e" stroke-width="0.3" x1="184.98032266829074" x2="189.97916517819016" y1="98.17113171792111" y2="98.06355123074" /><path d="M 185.9800911702706 98.14961562048488 a86.0,86.0 0 0,1 -9.607161424134198,41.387399972396054" fill="none" id="id88" stroke="none" /><text fill="#e1ed5e" style="font-size:6.75px; font-family:Arial;" text-anchor="middle"><textPath startOffset="21.466115282336823" xlink:href="#id88">April</textPath></text><path d="M 120.70491114924044 103.5080841355445 l 14.605349970068001 2.4746204489725865 a35.813507151064485,35.813507151064485 0 0,0 -0.10821402100218798,0.6069216983593165 l -14.560589506726624 -2.7256608980651214" fill="#ff880c" stroke="none" /><path d="M 120.41448212921028 104.9243191809786 l 30.266152258339304 7.300709033755172 a52.13423075845189,52.13423075845189 0 0,0 -0.21794264754869067,0.8705725400676696 l -30.135998296495554 -7.820609413220239" fill="#9eff22" stroke="none" /><path d="M 119.67450827220406 107.3425965602758 l 31.009171373720484 11.572733199505553 a54.09829093762553,54.09829093762553 0 0,0 -0.3331056420214159,0.8696337188164992 l -30.80537145210556 -12.104790485155197" fill="#87ff25" stroke="none" /><path d="M 118.64920377521936 109.65438752849418 l 13.17418939141715 6.820062201664803 a35.834841237960894,35.834841237960894 0 0,0 -0.2882955497767934,0.5453465331630716 l -13.054841333415462 -7.0458237499140095" fill="#ff890c" stroke="none" /><line stroke="#e1ed5e" stroke-width="0.3" x1="174.80103733775053" x2="179.2010983576182" y1="140.37084112569926" y2="142.7455964860345" /><path d="M 175.68104954172406 140.8457921977663 a86.0,86.0 0 0,1 -30.038265399797805,32.042727171017184" fill="none" id="id89" stroke="none" /><text fill="#e1ed5e" style="font-size:6.75px; font-family:Arial;" text-anchor="middle"><textPath startOffset="22.206326154141568" xlink:href="#id89">May</textPath></text><path d="M 118.48025628344425 109.97397251340804 l 52.86349066383607 28.530935651377032 a81.07131540351435,81.07131540351435 0 0,0 -0.6733690439604816,1.2223604080487043 l -52.364545210424076 -29.43666657782354" fill="#49efff" stroke="none" /><path d="M 117.14729908036423 112.12312394758627 l 15.776958418713313 11.154294418588597 a40.32176754136033,40.32176754136033 0 0,0 -0.40556057675565754,0.563288169783166 l -15.582618049582052 -11.424216193822895" fill="#ffc812" stroke="none" /><path d="M 115.56566222782051 114.09645910891815 l 22.10796762983699 20.02125300639518 a50.826377665885076,50.826377665885076 0 0,0 -0.5928620846583125,0.64343470121281 l -21.760059137182953 -20.398838962409325" fill="#aeff20" stroke="none" /><path d="M 115.07121518719521 114.62390073753431 l 10.89571690686748 10.572331463071473 a36.18192476202042,36.18192476202042 0 0,0 -0.43755899985001645,0.44324495671933956 l -10.712117281961929 -10.758316913771477" fill="#ff8e0d" stroke="none" /><path d="M 113.75828350139079 115.86535959552629 l 6.933540225122174 7.995409378683731 a31.583031285323266,31.583031285323266 0 0,0 -0.4137896314733154,0.35264050091590093 l -6.794885117071812 -8.113574269822578" fill="#ff4a06" stroke="none" /><path d="M 112.04921762599082 117.19931262002967 l 11.385056943279872 16.251275364296347 a40.842466393266506,40.842466393266506 0 0,0 -0.5792689252502708,0.3984264488432022 l -11.103631133406719 -16.444842602504643" fill="#ffcf13" stroke="none" /><path d="M 111.1453310114006 117.79835938074945 l 8.729834271982455 13.940970218667491 a37.448728128765865,37.448728128765865 0 0,0 -0.5492851047495199,0.33741577450338245 l -8.488569967300627 -14.089174459999253" fill="#ffa00e" stroke="none" /><line stroke="#e1ed5e" stroke-width="0.3" x1="143.8653032363475" x2="146.44561519142675" y1="172.8068346515853" y2="177.08958963109032" /><path d="M 144.38136562736335 173.6633856474863 a86.0,86.0 0 0,1 -40.68145358897372,12.25698825130547" fill="none" id="id90" stroke="none" /><text fill="#e1ed5e" style="font-size:6.75px; font-family:Arial;" text-anchor="middle"><textPath startOffset="21.466115282336833" xlink:href="#id90">June</textPath></text><line stroke="#e1ed5e" stroke-width="0.3" x1="102.19456741930631" x2="102.32365962044197" y1="184.97166512339345" y2="189.96999836594603" /><path d="M 102.22038585953345 185.97133177190398 a86.0,86.0 0 0,1 -42.740103519485714,-10.115201625700543" fill="none" id="id91" stroke="none" /><text fill="#e1ed5e" style="font-size:6.75px; font-family:Arial;" text-anchor="middle"><textPath startOffset="22.20632615414155" xlink:href="#id91">July</textPath></text><path d="M 100.18074693466247 120.99922214144158 l 0.25972314836704746 30.174697557218916 a51.17581529608489,51.17581529608489 0 0,0 -0.8809401660589851,0.0 l 0.2597231483670267 -30.174697557218916" fill="#a9ff21" stroke="none" /><path d="M 99.09653310690486 120.98055641714683 l -0.3852459567806418 8.946287453903238 a29.95457836277523,29.95457836277523 0 0,0 -0.5149504854573808,-0.026617058124102467 l 0.5391845106515115 -8.938330589016934" fill="#ff3104" stroke="none" /><path d="M 93.76903079525671 120.05430185196036 l -5.0295022289746445 16.18739437649338 a37.95074126318346,37.95074126318346 0 0,0 -0.6221728645185975,-0.19920010364736782 l 5.307396438584183 -16.098421426186306" fill="#ffa70f" stroke="none" /><path d="M 90.7491055286396 118.85261126421891 l -5.911318715372357 12.046812786031985 a34.41899352620811,34.41899352620811 0 0,0 -0.5296363456898341,-0.2655706587990597 l 6.117808968744952 -11.943274286323623" fill="#ff740a" stroke="none" /><path d="M 90.10565033884886 118.52300852407294 l -7.252724583117335 13.577676540309971 a36.39335291974553,36.39335291974553 0 0,0 -0.5500200007781446,-0.2999147588841898 l 7.48536739576412 -13.450821129666016" fill="#ff910d" stroke="none" /><line stroke="#e1ed5e" stroke-width="0.3" x1="58.666819895761336" x2="56.23545636021788" y1="174.27360380694188" y2="178.64263932499728" /><path d="M 58.180547188652646 175.14741091055294 a86.0,86.0 0 0,1 -31.652253787137756,-30.449443065178592" fill="none" id="id92" stroke="none" /><text fill="#e1ed5e" style="font-size:6.75px; font-family:Arial;" text-anchor="middle"><textPath startOffset="22.20632615414155" xlink:href="#id92">August</textPath></text><path d="M 88.24862548938628 117.40417183066458 l -14.89894845301232 22.06583227674688 a47.624793315085896,47.624793315085896 0 0,0 -0.6754627052455301,-0.4645894078656526 l 15.27656804288074 -21.80610207951613" fill="#d5ff1c" stroke="none" /><path d="M 87.36589467227662 116.77436683061367 l -17.785022764156253 23.613266487665914 a50.56168785673582,50.56168785673582 0 0,0 -0.6906997945227256,-0.5295991494898499 l 18.188851287172465 -23.303627996348695" fill="#b1ff20" stroke="none" /><path d="M 86.51685102203217 116.09983520530335 l -5.863255912932143 7.001142991075619 a30.13201911309985,30.13201911309985 0 0,0 -0.39477898659303573,-0.33643921692179846 l 5.982900376102235 -6.899179383930869" fill="#ff3404" stroke="none" /><path d="M 83.95833913139862 113.55231037782056 l -6.809167809910692 5.75251879032024 a29.913822900221398,29.913822900221398 0 0,0 -0.32891530314940265,-0.3961996712566268 l 6.9071791129536315 -5.634457861949852" fill="#ff3004" stroke="none" /><path d="M 83.50135304334701 112.99209946851258 l -13.872198361285312 10.92386432840662 a38.65697310527151,38.65697310527151 0 0,0 -0.40717423418431115,-0.5263275853223464 l 14.058179412687691 -10.68345874897102" fill="#ffb110" stroke="none" /><path d="M 82.85270091963577 112.12312394758628 l -27.16381293684088 19.204789604414763 a54.267050921557825,54.267050921557825 0 0,0 -0.5326933641883913,-0.7673845212618537 l 27.490367208191408 -18.734363820965896" fill="#85ff25" stroke="none" /><path d="M 82.05923443525364 110.91462005526583 l -30.786877114813077 18.729806439065072 a57.036612656123005,57.036612656123005 0 0,0 -0.5030605452050594,-0.843158409752179 l 31.10471853571637 -18.197085935426784" fill="#65ff29" stroke="none" /><line stroke="#e1ed5e" stroke-width="0.3" x1="26.63291911575756" x2="22.317208475507996" y1="142.92168965132927" y2="145.44649492493687" /><path d="M 25.769776987707644 143.4266507060508 a86.0,86.0 0 0,1 -11.730757126820373,-40.83630448921669" fill="none" id="id93" stroke="none" /><text fill="#e1ed5e" style="font-size:6.75px; font-family:Arial;" text-anchor="middle"><textPath startOffset="21.46611528233685" xlink:href="#id93">September</textPath></text><path d="M 81.51974371655577 109.97397251340807 l -27.863198254703654 15.03803677100626 a52.66228619204648,52.66228619204648 0 0,0 -0.4236743411090223,-0.801432187534061 l 28.11792510403756 -14.556189568386072" fill="#97ff23" stroke="none" /><path d="M 80.58989483394504 108.01547362559985 l -8.868336651812585 3.662211921440704 a30.5947481013013,30.5947481013013 0 0,0 -0.1968224040923597,-0.488497065669355 l 8.930061670162333 -3.509015487928543" fill="#ff3b05" stroke="none" /><path d="M 79.86692584326677 105.97154293290107 l -16.220791308346197 4.811145627803859 a37.919255093557034,37.919255093557034 0 0,0 -0.18022004105386166,-0.6273696055566983 l 16.30120398628616 -4.531218546742565" fill="#ffa70f" stroke="none" /><path d="M 79.67330655649465 105.27499134158121 l -22.825589122193495 5.923481126957809 a44.58166973385522,44.58166973385522 0 0,0 -0.18636981868890085,-0.7444547832782339 l 22.924170255177454 -5.529698504282184" fill="#fdff18" stroke="none" /><line stroke="#e1ed5e" stroke-width="0.3" x1="15.007084014347285" x2="10.007500721073583" y1="101.09737516637583" y2="101.16192664675087" /><path d="M 14.007167355692545 101.11028546245083 a86.0,86.0 0 0,1 10.666146001902534,-42.60595125391555" fill="none" id="id94" stroke="none" /><text fill="#e1ed5e" style="font-size:6.75px; font-family:Arial;" text-anchor="middle"><textPath startOffset="22.20632615414155" xlink:href="#id94">October</textPath></text><path d="M 79.21141760316559 97.0276538004421 l -5.7620748937464334 -0.8238599960814654 a26.820674563509485,26.820674563509485 0 0,0 0.06927921566918119,-0.4564634712019585 l 5.74703978463795 0.9229225796755159" fill="#ff0000" stroke="none" /><path d="M 79.32604984820605 96.31383870115002 l -14.691276271842176 -2.61945170740767 a35.92297308658814,35.92297308658814 0 0,0 0.11378050237428257,-0.6078199933517503 l 14.64401004555803 2.871949778221993" fill="#ff8a0c" stroke="none" /><path d="M 79.62865764111835 94.90015583598534 l -21.612306827967814 -5.410512223778489 a43.27926051173783,43.27926051173783 0 0,0 0.18713883849554067,-0.7211222834599512 l 21.515971657601966 5.781730932787304" fill="#fff016" stroke="none" /><path d="M 79.91906864156998 93.8553929516997 l -14.356251710563114 -4.392900103752767 a36.0133119097219,36.0133119097219 0 0,0 0.18648810388226147,-0.5912182517766785 l 14.27850812291265 4.63936852195586" fill="#ff8b0c" stroke="none" /><path d="M 80.52162464483688 92.15188598940014 l -13.724178287985511 -5.529666306453994 a35.79629274991359,35.79629274991359 0 0,0 0.2351958137790874,-0.5695453186306618 l 13.626960787320224 5.765086195537967" fill="#ff880c" stroke="none" /><path d="M 80.803312248108 91.48605970444005 l -13.630882090981059 -6.04544480789359 a35.911349687520435,35.911349687520435 0 0,0 0.2554796399064009,-0.5629155214241858 l 13.524800134111306 6.279182338159847" fill="#ff8a0c" stroke="none" /><path d="M 81.43458229118936 90.18545643968196 l -27.656527123588415 -14.620526962491116 a52.28327510345922,52.28327510345922 0 0,0 0.4274578515045935,-0.7920144792414409 l 27.400761172865348 15.094422425065028" fill="#9cff22" stroke="none" /><line stroke="#e1ed5e" stroke-width="0.3" x1="26.266209847984243" x2="21.928928074336255" y1="57.711370442889674" y2="55.22380399835377" /><path d="M 25.398753493254645 57.213857153982495 a86.0,86.0 0 0,1 29.58750427330803,-30.492523968695096" fill="none" id="id95" stroke="none" /><text fill="#e1ed5e" style="font-size:6.75px; font-family:Arial;" text-anchor="middle"><textPath startOffset="21.46611528233685" xlink:href="#id95">November</textPath></text><path d="M 82.15384107792192 88.93136811851018 l -12.910236488514352 -8.00724995324111 a36.1917825814829,36.1917825814829 0 0,0 0.3329168398765976,-0.5265944905327514 l 12.770492052391793 8.228292091488077" fill="#ff8e0d" stroke="none" /><path d="M 82.7489923806493 88.02491185347247 l -51.75302285805211 -35.92526443958256 a84.0,84.0 0 0,0 0.834749520784487,-1.1806939986728553 l 51.12696071746375 36.810784938587204" fill="#4dd2ff" stroke="none" /><path d="M 84.80347519578584 85.50635884689758 l -6.9589399600416435 -6.63706866446589 a30.61652358309901,30.61652358309901 0 0,0 0.36701300509725093,-0.378239163106662 l 6.843662691241274 6.755872023122675" fill="#ff3b05" stroke="none" /><path d="M 85.31137513191541 84.99185889309783 l -10.838430118770713 -11.074194491360922 a36.49546227358076,36.49546227358076 0 0,0 0.45274664068468,-0.4355419096279642 l 10.646200234473605 11.2591194877512" fill="#ff920d" stroke="none" /><path d="M 85.83668400450813 84.49514656593479 l -16.20924811939343 -17.74457453661185 a45.03351098115781,45.03351098115781 0 0,0 0.5768342687575055,-0.5178875019309134 l 15.901402863039952 18.020961047312042" fill="#f7ff19" stroke="none" /><path d="M 86.65592168130627 83.78471172551755 l -6.286134552444324 -7.638705459130401 a30.892689659682194,30.892689659682194 0 0,0 0.4135157177399173,-0.33436761898843276 l 6.1537154361399065 7.745779175382968" fill="#ff3f05" stroke="none" /><path d="M 87.51073957382395 83.11751280151077 l -7.271858378494495 -9.829809916274504 a33.22722729268452,33.22722729268452 0 0,0 0.46273610696776385,-0.33619746095571923 l 7.10157695517295 9.95352661204689" fill="#ff6209" stroke="none" /><path d="M 88.09926311788651 82.69761687909137 l -9.277165089527086 -13.487993747359408 a37.370454099601105,37.370454099601105 0 0,0 0.5331434579112563,-0.3599808426828003 l 9.04361693720929 13.645686502340874" fill="#ff9f0e" stroke="none" /><path d="M 89.00827224532344 82.1063720568725 l -5.143179197661357 -8.372672346131393 a30.826186161218903,30.826186161218903 0 0,0 0.4545217423499961,-0.2738442640873894 l 4.998295389093712 8.459963219677402" fill="#ff3e05" stroke="none" /><line stroke="#e1ed5e" stroke-width="0.3" x1="56.762969772571076" x2="54.21961505331055" y1="26.818313649435495" y2="22.513508569990535" /><path d="M 56.25429882871897 25.957352633546506 a86.0,86.0 0 0,1 42.265352541879196,-11.944610805530505" fill="none" id="id96" stroke="none" /><text fill="#e1ed5e" style="font-size:6.75px; font-family:Arial;" text-anchor="middle"><textPath startOffset="22.20632615414155" xlink:href="#id96">December</textPath></text><path d="M 89.94658935756843 81.56283822128135 l -11.585671312828044 -21.247206933746238 a45.20065251711864,45.20065251711864 0 0,0 0.686307235963624,-0.36660155712702625 l 11.218219030336115 21.44348721737501" fill="#f5ff19" stroke="none" /><path d="M 90.91171255644093 81.06846463323043 l -7.0354485387645695 -14.655329033095525 a37.25657421506441,37.25657421506441 0 0,0 0.5805315645477268,-0.27256735363358414 l 6.782138762917234 14.774261369369116" fill="#ff9d0e" stroke="none" /><path d="M 91.56875222667455 80.76684994638697 l -3.8668849464930632 -8.821040540553884 a30.631383878109617,30.631383878109617 0 0,0 0.4847288754312344,-0.20753560749193037 l 3.7144723132715205 8.8862956760086" fill="#ff3b05" stroke="none" /><path d="M 92.57280143429618 80.3572730644239 l -6.368385486290817 -16.84248186191352 a39.00626360383757,39.00626360383757 0 0,0 0.6300768580950407,-0.2320626242737452 l 6.077526302423207 16.949607753993586" fill="#ffb610" stroke="none" /><path d="M 98.55514903715128 79.0497635885617 l -1.0185978606389954 -14.769596683174761 a35.80467925303839,35.80467925303839 0 0,0 0.6152231954105157,-0.037111943248829445 l 0.7642126163888568 14.784941895803897" fill="#ff880c" stroke="none" /><path d="M 99.63851952072746 79.00311137660856 l -0.41909441704855 -24.343441214757778 a45.347048492718145,45.347048492718145 0 0,0 0.7805748963210797,-0.006718654568925141 l 5.963307001058533e-15 24.347048492718145" fill="#f3ff19" stroke="none" /></svg>