<?xml version="1.0" encoding="utf-8" ?>
<svg baseProfile="full" height="200mm" version="1.1" viewBox="0,0,200,200" width="200mm" xmlns="http://www.w3.org/2000/svg" xmlns:ev="http://www.w3.org/2001/xml-events" xmlns:xlink="http://www.w3.org/1999/xlink"><defs /><rect fill="#1a1a1a" height="200" width="200" x="0" y="0" /><rect fill="#1a1a1a" height="200" width="180" x="10" y="0" /><text alignment-baseline="middle" fill="#e1ed5e" style="dominant-baseline: central; font-size:9.0px; font-family:Arial;" text-anchor="middle" x="100.0" y="100.0">2016</text><line stroke="#e1ed5e" stroke-width="0.3" x1="100.0" x2="100.0" y1="15.0" y2="10.0" /><path d="M 100.0 14.0 a86.0,86.0 0 0,1 42.35913384403234,11.155469271406648" fill="none" id="id13" stroke="none" /><text fill="#e1ed5e" style="font-size:6.75px; font-family:Arial;" text-anchor="middle"><textPath startOffset="22.145653131862478" xlink:href="#id13">January</textPath></text><line stroke="#e1ed5e" stroke-width="0.3" x1="143.13028292997686" x2="145.6673583964461" y1="26.7553504044142" y2="22.446841604673864" /><path d="M 143.63769802327073 25.89364864446614 a86.0,86.0 0 0,1 29.32050498858742,28.57503671076993" fill="none" id="id14" stroke="none" /><text fill="#e1ed5e" style="font-size:6.75px; font-family:Arial;" text-anchor="middle"><textPath startOffset="20.669276256404974" xlink:href="#id14">February</textPath></text><line stroke="#e1ed5e" stroke-width="0.3" x1="172.87174338648825" x2="177.1583165268699" y1="56.24261187166439" y2="53.66864786411523" /><path d="M 173.72905801456457 55.72781907015455 a86.0,86.0 0 0,1 12.242430191666344,42.057860355516425" fill="none" id="id15" stroke="none" /><text fill="#e1ed5e" style="font-size:6.75px; font-family:Arial;" text-anchor="middle"><textPath startOffset="22.145653131862474" xlink:href="#id15">March</textPath></text><path d="M 120.9064616781168 98.02013634271609 l 22.561361524772536 -2.1365843933550965 a43.66230409118665,43.66230409118665 0 0,0 0.06425922114896143,0.7467895548875128 l -22.59471436861924 1.7489737910919219" fill="red" stroke="none" /><path d="M 120.93736805541906 98.37931529534042 l 24.405692295578394 -1.8891549360634439 a45.478699369020966,45.478699369020966 0 0,0 0.05356966065497082,0.7788911089988821 l -24.43452591739843 1.4699204029102275" fill="red" stroke="none" /><path d="M 120.98066250479742 99.09900007780936 l 22.700367937462172 -0.9748514729063291 a43.72129045389782,43.72129045389782 0 0,0 0.025764983536604825,0.75011938360533 l -22.713757607995625 0.5850258247368791" fill="red" stroke="none" /><path d="M 120.99303781780057 99.45929381324524 l 11.317781247304778 -0.2915058979966085 a32.321534703846936,32.321534703846936 0 0,0 0.009524953730992691,0.5547808030768798 l -11.321117632634436 0.09717817895066223" fill="red" stroke="none" /><line stroke="#e1ed5e" stroke-width="0.3" x1="184.99686870605535" x2="189.99668451229388" y1="99.2704041080226" y2="99.22748670261217" /><path d="M 185.99683186730306 99.26182062694052 a86.0,86.0 0 0,1 -10.086455211305974,41.156179273409016" fill="none" id="id16" stroke="none" /><text fill="#e1ed5e" style="font-size:6.75px; font-family:Arial;" text-anchor="middle"><textPath startOffset="21.40746469413373" xlink:href="#id16">April</textPath></text><path d="M 120.9064616781168 101.97986365728391 l 23.14604457679233 2.1919544862740454 a44.24960309383269,44.24960309383269 0 0,0 -0.07810604382496406,0.75560512191541 l -23.105006140485703 -2.588964130472387" fill="red" stroke="none" /><path d="M 120.86939407059847 102.33845913500097 l 10.798095501153028 1.2099491235760722 a31.865672705068185,31.865672705068185 0 0,0 -0.06557942353549653,0.5430917023920502 l -10.775733991357868 -1.3951345028915312" fill="red" stroke="none" /><path d="M 120.77682067341334 103.0534771498775 l 34.90848417907418 5.130345034650153 a56.2834622430287,56.2834622430287 0 0,0 -0.1486915477397805,0.9547064006086576 l -34.815271139196135 -5.728839617190261" fill="red" stroke="none" /><path d="M 120.7213421655516 103.40968896794604 l 22.390057620019448 3.6842754609580153 a43.69115611642581,43.69115611642581 0 0,0 -0.1281298963526365,0.7390191929670815 l -22.323512906174578 -4.068087686845685" fill="red" stroke="none" /><path d="M 119.4528033332814 107.91128576633889 l 32.675007984443596 13.288641290074297 a56.27384490128232,56.27384490128232 0 0,0 -0.37160609125572025,0.8917193405662124 l -32.442076048651394 -13.847593140081788" fill="red" stroke="none" /><path d="M 119.31412917781788 108.2440532568976 l 20.77929830962589 8.869446834924425 a43.59305923061267,43.59305923061267 0 0,0 -0.29968384438704915,0.6857352837323617 l -20.623980583221876 -9.22484418843263" fill="red" stroke="none" /><path d="M 119.16976305983485 108.57439118712176 l 20.574817339876887 9.202854095015626 a43.5392021168329,43.5392021168329 0 0,0 -0.311026509778122,0.6796490552133031 l -20.41380636524371 -9.554692132443618" fill="red" stroke="none" /><path d="M 118.8641267826498 109.22738970284198 l 19.53030345612625 9.553250096378115 a42.741603907999185,42.741603907999185 0 0,0 -0.32805216320766994,0.6563240798474708 l -19.36343137970685 -9.887106032389331" fill="red" stroke="none" /><line stroke="#e1ed5e" stroke-width="0.3" x1="174.33088141563837" x2="178.70328620479359" y1="141.23008692659167" y2="143.65538615756765" /><path d="M 175.20536237346943 141.71514677278685 a86.0,86.0 0 0,1 -30.301960400862466,31.631185727798858" fill="none" id="id17" stroke="none" /><text fill="#e1ed5e" style="font-size:6.75px; font-family:Arial;" text-anchor="middle"><textPath startOffset="22.145653131862474" xlink:href="#id17">May</textPath></text><path d="M 117.81537515405839 111.11811171558189 l 20.169847591984315 12.587476652876274 a44.77535110930185,44.77535110930185 0 0,0 -0.41253515670899965,0.648573786614799 l -19.950794743649425 -12.931864114169747" fill="red" stroke="none" /><path d="M 117.01052211995028 112.31430620078461 l 50.953663500559394 36.88652293992401 a83.90382658253613,83.90382658253613 0 0,0 -0.8546123359615808,1.1594457667833447 l -50.31294914501398 -37.75577501597623" fill="red" stroke="none" /><path d="M 116.1254893667686 113.45245675266167 l 26.47215869413131 22.084016297594104 a55.47432322409932,55.47432322409932 0 0,0 -0.616307675902186,0.7260088925291667 l -26.08915645472201 -22.53519197257283" fill="red" stroke="none" /><path d="M 115.89218393027572 113.72728997021213 l 24.610727253555208 21.25816004078259 a53.52072053734989,53.52072053734989 0 0,0 -0.6065399684216086,0.6901311430574913 l -24.242176221175015 -21.677503461651376" fill="red" stroke="none" /><path d="M 115.41159269507618 114.26474011684316 l 45.525681702423334 42.13789132479928 a83.0337777325463,83.0337777325463 0 0,0 -0.9772054175923265,1.0377582894751058 l -44.79562045109475 -42.91319107421888" fill="red" stroke="none" /><path d="M 114.91283532996324 114.78537596483092 l 26.24209781430171 26.0178077277324 a57.95367392631794,57.95367392631794 0 0,0 -0.7065051801567037,0.700466710628071 l -25.791600714015043 -26.46445444858913" fill="red" stroke="none" /><path d="M 114.39649973595853 115.28858382429668 l 24.23552419421783 25.737286838105142 a56.35206594748627,56.35206594748627 0 0,0 -0.7099561416503257,0.6571248056817723 l -23.790138281253537 -26.149529389919294" fill="red" stroke="none" /><line stroke="#e1ed5e" stroke-width="0.3" x1="143.1302829299769" x2="145.66735839644613" y1="173.24464959558577" y2="177.55315839532614" /><path d="M 143.63769802327073 174.10635135553383 a86.0,86.0 0 0,1 -40.68552437913181,11.842963189579606" fill="none" id="id18" stroke="none" /><text fill="#e1ed5e" style="font-size:6.75px; font-family:Arial;" text-anchor="middle"><textPath startOffset="21.407464694133747" xlink:href="#id18">June</textPath></text><line stroke="#e1ed5e" stroke-width="0.3" x1="101.45913802915013" x2="101.54496967792366" y1="184.9874750549273" y2="189.98673829345242" /><path d="M 101.47630435890484 185.9873277026323 a86.0,86.0 0 0,1 -42.54439059252881,-10.42667462771756" fill="none" id="id19" stroke="none" /><text fill="#e1ed5e" style="font-size:6.75px; font-family:Arial;" text-anchor="middle"><textPath startOffset="22.145653131862474" xlink:href="#id19">July</textPath></text><path d="M 97.48249496171623 120.84855314841334 l -4.37255729547793 36.211046962353095 a57.47408915123143,57.47408915123143 0 0,0 -0.9784886446757594,-0.12668494507840863 l 4.993523762044483 -36.130650421074286" fill="red" stroke="none" /><path d="M 96.76829788921471 120.74984581791261 l -5.757073725628949 36.9645431645705 a58.410177081213114,58.410177081213114 0 0,0 -0.9894197161162785,-0.16280863776857168 l 6.390770944798292 -36.86026852830626" fill="red" stroke="none" /><path d="M 96.05791012581884 120.62667999033965 l -8.535591444750287 44.66182123656313 a66.47015062080195,66.47015062080195 0 0,0 -1.118925326273336,-0.22381640258606564 l 9.30101325655458 -44.5087154373142" fill="red" stroke="none" /><path d="M 93.95794788825049 120.11202640906438 l -10.80762386742525 35.97506486549527 a58.56341339303887,58.56341339303887 0 0,0 -0.9603266653763695,-0.2975116557361513 l 11.423591165673253 -35.784236621952466" fill="red" stroke="none" /><path d="M 92.59220618246901 119.65005319985036 l -13.058781006424438 34.63996809605618 a58.019713006309786,58.019713006309786 0 0,0 -0.9289446111850644,-0.35933573160949683 l 13.65149788010303 -34.41069247630865" fill="red" stroke="none" /><path d="M 91.26138138417905 119.09545874513695 l -11.96602009727976 26.147913435356983 a49.75585182169753,49.75585182169753 0 0,0 -0.7736117700343825,-0.3620893703242999 l 12.413120581185632 -25.938647833462156" fill="red" stroke="none" /><line stroke="#e1ed5e" stroke-width="0.3" x1="58.13341422392154" x2="55.67067388415222" y1="173.97424548756322" y2="178.32567169271397" /><path d="M 57.64086615596768 174.84453072859336 a86.0,86.0 0 0,1 -31.369924170532247,-30.572349798747897" fill="none" id="id20" stroke="none" /><text fill="#e1ed5e" style="font-size:6.75px; font-family:Arial;" text-anchor="middle"><textPath startOffset="22.145653131862474" xlink:href="#id20">August</textPath></text><path d="M 89.03521579738668 117.91015095944536 l -26.018877197094824 42.49988050692077 a70.83193568084673,70.83193568084673 0 0,0 -1.0315688932601335,-0.6437752838997884 l 26.74461021914467 -42.04696942617943" fill="red" stroke="none" /><path d="M 88.1277618465304 117.32195027204791 l -20.83247944415911 30.395210095219113 a57.84916547934053,57.84916547934053 0 0,0 -0.8143093946282959,-0.568451199905185 l 21.35118392996117 -30.0331140795088" fill="red" stroke="none" /><path d="M 85.08716467003676 114.78537596483092 l -25.779050179539656 25.55871774128115 a57.30161815591288,57.30161815591288 0 0,0 -0.6865639734973378,-0.7044751197931454 l 26.214000954187803 -25.112419929420266" fill="red" stroke="none" /><path d="M 83.8745106332314 113.45245675266167 l -19.132484498737874 15.96099903923831 a45.91596784042336,45.91596784042336 0 0,0 -0.4997257379840732,-0.6095841460721574 l 19.403657055960576 -15.630212611467657" fill="red" stroke="none" /><path d="M 83.64595745247003 113.17365903436017 l -48.472443409474714 39.04596922643959 a83.24279462650111,83.24279462650111 0 0,0 -0.8868670269123108,-1.1205275168437172 l 49.13557686702858 -38.208121765681184" fill="red" stroke="none" /><path d="M 82.576782715395 111.72311816256416 l -52.26965185381499 35.16935448769248 a84.0,84.0 0 0,0 -0.7947022443170932,-1.2032804866437559 l 52.86567853705281 -34.266894122709665" fill="red" stroke="none" /><line stroke="#e1ed5e" stroke-width="0.3" x1="26.387840678322732" x2="22.057713659400548" y1="142.50000000000003" y2="145.00000000000006" /><path d="M 25.521815274538298 143.00000000000003 a86.0,86.0 0 0,1 -11.493303480769221,-40.785679425670985" fill="none" id="id21" stroke="none" /><text fill="#e1ed5e" style="font-size:6.75px; font-family:Arial;" text-anchor="middle"><textPath startOffset="21.40746469413373" xlink:href="#id21">September</textPath></text><path d="M 81.4637452351635 109.86951160357371 l -19.134825255054555 10.188216674997893 a42.67812945247303,42.67812945247303 0 0,0 -0.33876665766522956,-0.6496297341312081 l 19.306899981694734 -9.85824069776218" fill="red" stroke="none" /><path d="M 80.9802524753101 108.90220220490708 l -33.129899321553275 15.506465709170323 a57.57923875432526,57.57923875432526 0 0,0 -0.4113228721413618,-0.898814707588514 l 33.39120665854969 -14.93546201936712" fill="red" stroke="none" /><line stroke="#e1ed5e" stroke-width="0.3" x1="15.003131293944662" x2="10.003315487706104" y1="100.72959589197737" y2="100.7725132973878" /><path d="M 14.003168132696942 100.73817937305945 a86.0,86.0 0 0,1 10.791469493833604,-42.45332614584628" fill="none" id="id22" stroke="none" /><text fill="#e1ed5e" style="font-size:6.75px; font-family:Arial;" text-anchor="middle"><textPath startOffset="22.145653131862435" xlink:href="#id22">October</textPath></text><line stroke="#e1ed5e" stroke-width="0.3" x1="26.387840678322718" x2="22.05771365940052" y1="57.49999999999999" y2="54.99999999999999" /><path d="M 25.521815274538284 56.99999999999999 a86.0,86.0 0 0,1 29.574782752854787,-30.34633250058573" fill="none" id="id23" stroke="none" /><text fill="#e1ed5e" style="font-size:6.75px; font-family:Arial;" text-anchor="middle"><textPath startOffset="21.40746469413373" xlink:href="#id23">November</textPath></text><line stroke="#e1ed5e" stroke-width="0.3" x1="56.869717070023135" x2="54.33264160355391" y1="26.7553504044142" y2="22.446841604673864" /><path d="M 56.362301976729285 25.89364864446614 a86.0,86.0 0 0,1 42.16139366436587,-11.88097634709845" fill="none" id="id24" stroke="none" /><text fill="#e1ed5e" style="font-size:6.75px; font-family:Arial;" text-anchor="middle"><textPath startOffset="22.145653131862474" xlink:href="#id24">December</textPath></text></svg>