<?xml version="1.0" encoding="utf-8" ?>
<svg baseProfile="full" height="200mm" version="1.1" viewBox="0,0,200,200" width="200mm" xmlns="http://www.w3.org/2000/svg" xmlns:ev="http://www.w3.org/2001/xml-events" xmlns:xlink="http://www.w3.org/1999/xlink"><defs /><rect fill="#1a1a1a" height="200" width="200" x="0" y="0" /><rect fill="#1a1a1a" height="200" width="180" x="10" y="0" /><text alignment-baseline="middle" fill="#e1ed5e" style="dominant-baseline: central; font-size:9.0px; font-family:Arial;" text-anchor="middle" x="100.0" y="100.0">2026</text><line stroke="#e1ed5e" stroke-width="0.3" x1="100.0" x2="100.0" y1="15.0" y2="10.0" /><path d="M 100.0 14.0 a86.0,86.0 0 0,1 42.46469731375804,11.215312516191453" fill="none" id="id133" stroke="none" /><text fill="#e1ed5e" style="font-size:6.75px; font-family:Arial;" text-anchor="middle"><textPath startOffset="22.20632615414155" xlink:href="#id133">January</textPath></text><path d="M 100.0 79.0 l 0.0 -32.768060059526455 a53.768060059526455,53.768060059526455 0 0,0 0.9255287676129388,0.007966318302704714 l -0.5640482883404103 32.76320511783231" fill="#fffc17" stroke="none" /><path d="M 100.36148047927253 79.00311137660856 l 0.5209278791630961 -30.258520962512996 a51.263004753231755,51.263004753231755 0 0,0 0.8821468817950878,0.022783251369957982 l -1.0417013961530517 30.24507091900068" fill="#ffd013" stroke="none" /><path d="M 100.72285384407766 79.0124445844662 l 1.3595535029276384 -39.47368436490096 a60.49709031140331,60.49709031140331 0 0,0 1.0404323228444694,0.04480320442921103 l -2.0388266581614394 39.44443343394756" fill="#93ff23" stroke="none" /><path d="M 101.08401301168833 79.027996857942 l 2.111752308061524 -40.855299302115675 a61.90983963395673,61.90983963395673 0 0,0 1.063781890008816,0.06417022866766238 l -2.8146962469099517 40.812895804067715" fill="#7dff26" stroke="none" /><path d="M 101.80526077348638 79.07773832637324 l 2.206394192214058 -25.571240079360898 a46.66625205455111,46.66625205455111 0 0,0 0.799714834633629,0.0759425596896062 l -2.6462341539379315 25.529471975156113" fill="#ff7a0b" stroke="none" /><path d="M 102.16513564639614 79.11191278185805 l 3.079540208781307 -29.70978034557286 a50.86895739860513,50.86895739860513 0 0,0 0.8701820597773463,0.09777509349234867 l -3.5904889720683784 29.652369298609912" fill="#ffc912" stroke="none" /><path d="M 102.52436894288641 79.15227682838746 l 4.122264991084043 -34.044088371601056 a55.29275465328062,55.29275465328062 0 0,0 0.9438875315919218,0.12254369135417444 l -4.7076672511838105 33.96808635708275" fill="#e8ff1a" stroke="none" /><path d="M 102.88285421437855 79.19881850522331 l 3.69585726597826 -26.667390041773267 a47.92227799742348,47.92227799742348 0 0,0 0.8161187209714263,0.12027468485884057 l -4.154344967378342 26.599820872753458" fill="#ff920d" stroke="none" /><path d="M 103.2404852339499 79.25152402106235 l 3.0234068397072473 -19.358546532167715 a40.59322109191062,40.59322109191062 0 0,0 0.6894483996300913,0.11376489336080904 l -3.356184445476214 19.30363537586728" fill="#ff0000" stroke="none" /><path d="M 103.59715602781102 79.31037775812273 l 4.454267018081244 -25.619434146323158 a47.00376704722136,47.00376704722136 0 0,0 0.7959413756445053,0.14545319886979516 l -4.89460351482865 25.538965466102624" fill="#ff800b" stroke="none" /><path d="M 104.307194497241 79.44645832069477 l 5.934020959563506 -28.316610080270284 a49.93169561547687,49.93169561547687 0 0,0 0.8397019810455735,0.18352632946192465 l -6.4205656647626075 28.210270252712487" fill="#ffb711" stroke="none" /><path d="M 104.66035177308747 79.52364482259891 l 6.956678984987714 -30.565810627080488 a52.34747456798898,52.34747456798898 0 0,0 0.8768857904928681,0.20753053556604756 l -7.481788462443106 30.44153417937357" fill="#ffe315" stroke="none" /><path d="M 105.01212808612495 79.60689891045804 l 9.415524521613964 -38.30942467569412 a60.449513571142994,60.449513571142994 0 0,0 1.0083298708231114,0.2570457354739253 l -10.0735632811221 38.14167594405133" fill="#94ff23" stroke="none" /><path d="M 105.36241919743992 79.69619591428918 l 11.905185208584921 -45.076772102153164 a67.6224068233308,67.6224068233308 0 0,0 1.1228607616699233,0.30692026247539544 l -12.679343859478555 44.86516529885147" fill="#30ff35" stroke="none" /><path d="M 105.71112130821622 79.79150937346287 l 7.5061502537105165 -26.56010244875462 a48.600386477722004,48.600386477722004 0 0,0 0.8030861681043623,0.234442874542385 l -7.962226639538306 26.426961245293533" fill="#ff9f0e" stroke="none" /><path d="M 106.0581310904928 79.89281104454417 l 9.211933153905564 -30.574789122884493 a52.93238861001288,52.93238861001288 0 0,0 0.8701445145493819,0.2703581363169517 l -9.736863041165662 30.41169085168502" fill="#ffed16" stroke="none" /><path d="M 106.74666289553966 80.11325718540242 l 12.5789852836957 -37.07833770245826 a60.15397805517303,60.15397805517303 0 0,0 0.9776969160673082,0.34109925643370276 l -13.215364203826281 36.856317592852356" fill="#98ff23" stroke="none" /><path d="M 107.08798089147638 80.2323363322302 l 13.770506983345717 -38.40455480188994 a61.79873395228999,61.79873395228999 0 0,0 0.9982487048331012,0.3676634225574021 l -14.429538013951394 38.161828111526205" fill="#7fff26" stroke="none" /><path d="M 107.4271985657038 80.35727306442388 l 14.602160744597578 -38.6183637933126 a62.28681533472525,62.28681533472525 0 0,0 0.9996050174456813,0.3878312169732142 l -15.264748927042927 38.361289872448836" fill="#78ff26" stroke="none" /><path d="M 107.76421540070413 80.48803036053334 l 22.25274973224776 -55.92258261290524 a81.18737506108124,81.18737506108124 0 0,0 1.2940344770819698,0.527869154472448 l -23.21206807891812 55.53125257224921" fill="#48f7ff" stroke="none" /><path d="M 108.09893153111575 80.62456947434976 l 11.614776611366402 -27.786541525864 a51.11635644795878,51.11635644795878 0 0,0 0.8088950233445928,0.34632663448751505 l -12.09135539250131 27.582495363413692" fill="#ffcd13" stroke="none" /><path d="M 108.43124777332544 80.76684994638697 l 12.737098108772924 -29.05554738275686 a52.724730131935495,52.724730131935495 0 0,0 0.828074228405985,0.3715327685013762 l -13.23535445564569 28.831994283738954" fill="#ffea16" stroke="none" /><path d="M 109.08828744355905 81.06846463323043 l 11.938354361024325 -24.868423144663613 a48.585553729287895,48.585553729287895 0 0,0 0.7508289615886853,0.36842851063718896 l -12.364654589623443 24.659239473891592" fill="#ff9e0e" stroke="none" /><path d="M 109.41281617654863 81.2277094730956 l 17.249149764637224 -34.40054970271222 a59.482866154324554,59.482866154324554 0 0,0 0.9113327787293188,0.466820045622322 l -17.838743030955296 34.0985371317774" fill="#a3ff22" stroke="none" /><path d="M 109.73455568895987 81.39251694778311 l 17.247690180541262 -32.96874690318826 a58.20780951534805,58.20780951534805 0 0,0 0.8838023045097729,0.4720965830570188 l -17.812637531579345 32.66697159362949" fill="#b7ff1f" stroke="none" /><path d="M 110.05341064243156 81.56283822128135 l 27.155061112452067 -49.80023920719689 a77.72266891741816,77.72266891741816 0 0,0 1.1690818497162898,0.650592783629053 l -28.00826705124039 49.32543102600765" fill="#42ffd6" stroke="none" /><path d="M 110.36928655335952 81.73862282372117 l 15.641403843476398 -27.546116474105744 a52.677153391675176,52.677153391675176 0 0,0 0.7846469383495766,0.45451815214753305 l -16.113247514291302 27.27279416456816" fill="#ffe915" stroke="none" /><line stroke="#e1ed5e" stroke-width="0.3" x1="143.23703022742887" x2="145.7803849466894" y1="26.81831364943548" y2="22.513508569990506" /><path d="M 143.74570117128098 25.957352633546492 a86.0,86.0 0 0,1 28.547481713284135,27.462654790039103" fill="none" id="id134" stroke="none" /><text fill="#e1ed5e" style="font-size:6.75px; font-family:Arial;" text-anchor="middle"><textPath startOffset="19.985693538727396" xlink:href="#id134">February</textPath></text><path d="M 110.68208982089419 81.91981866633111 l 16.13915671886777 -27.316647298627885 a52.72808849007152,52.72808849007152 0 0,0 0.7774579224933007,0.46840969926614484 l -16.60697670757871 27.034790989903126" fill="#ffea16" stroke="none" /><path d="M 111.2981086023043 82.29822771554956 l 15.891080094120174 -24.897997627913252 a50.537039669494916,50.537039669494916 0 0,0 0.7292566399573744,0.47432880422143137 l -16.31730375986183 24.62076989953229" fill="#ffc312" stroke="none" /><path d="M 111.60114157652 82.49532879139004 l 17.198405077145658 -25.950241551851622 a52.13197992092755,52.13197992092755 0 0,0 0.743737926457253,0.5021751679185029 l -17.64254769800945 25.65035447163445" fill="#ffdf14" stroke="none" /><path d="M 111.90073688211348 82.69761687909136 l 14.657715374415977 -21.310731393999063 a46.86495491093243,46.86495491093243 0 0,0 0.6607263711401593,0.4628810472243866 l -15.022372885139788 21.05526550401074" fill="#ff7e0b" stroke="none" /><path d="M 112.77801427241765 83.33499621200491 l 18.77961104298634 -24.492247582161156 a51.863311270045756,51.863311270045756 0 0,0 0.7037788235045743,0.5493105349000426 l -19.198422421650342 24.16535865803789" fill="#ffda14" stroke="none" /><path d="M 113.34407831869373 83.78471172551755 l 17.281918142383585 -21.000422653558765 a48.197103638221314,48.197103638221314 0 0,0 0.6360697149396829,0.5326900938762527 l -17.640845394282387 20.69983140228869" fill="#ff970d" stroke="none" /><path d="M 113.6212207817346 84.01681056812373 l 18.150937754417534 -21.298375611389652 a48.98351916840656,48.98351916840656 0 0,0 0.6370334689998537,0.5524291468846299 l -18.51486502206415 20.982781471085353" fill="#ffa60f" stroke="none" /><path d="M 113.89432698308785 84.25364557470407 l 32.77644021957771 -37.14533601556974 a70.53858113811026,70.53858113811026 0 0,0 0.9035287274628764,0.811197012612427 l -33.41097993463658 36.57563999418801" fill="#35ff66" stroke="none" /><path d="M 114.16331599549186 84.49514656593476 l 26.376195333970482 -28.874526483180794 a60.10808049398072,60.10808049398072 0 0,0 0.7579117064300402,0.7043963309250006 l -26.869314924195372 28.416225566181154" fill="#99ff23" stroke="none" /><path d="M 114.42810811169701 84.74124197986012 l 17.798277276679688 -18.822953365593186 a46.9052552085647,46.9052552085647 0 0,0 0.5818859497365237,0.5597738226189021 l -18.11964647002863 18.51379645621198" fill="#ff7f0b" stroke="none" /><path d="M 114.68862486808459 84.99185889309783 l 43.01859803221007 -43.95436572768189 a82.50273199769002,82.50273199769002 0 0,0 1.0063926821999094,1.002070912192002 l -43.7688265145773 43.20735896483976" fill="#4ae6ff" stroke="none" /><path d="M 115.19652480421416 85.50635884689758 l 25.359719727915646 -24.18675863166653 a56.04446714939363,56.04446714939363 0 0,0 0.659810652480143,0.7038400000984897 l -25.772297702366252 23.746649214689988" fill="#dbff1b" stroke="none" /><path d="M 115.4437574822437 85.77008943001954 l 34.546239972386 -31.830978044128045 a67.97503442761317,67.97503442761317 0 0,0 0.7854559230097262,0.8673200481016854 l -35.08903953601176 31.23160520875681" fill="#31ff3b" stroke="none" /><path d="M 115.68641384162765 86.03803664274999 l 42.830578482080206 -38.122095551864845 a78.33892763537827,78.33892763537827 0 0,0 0.887871532181247,1.014990645396639 l -43.480441877839304 37.37918935026526" fill="#43ffdf" stroke="none" /><path d="M 116.15771136456269 86.58626213691792 l 20.426933141706417 -16.95794164948986 a47.548660654790986,47.548660654790986 0 0,0 0.5173781266365176,0.6342444077780667 l -20.715809760419344 16.603813072103694" fill="#ff8b0c" stroke="none" /><path d="M 116.38621287248628 86.86637796730983 l 49.158638617458855 -39.400866098070516 a84.0,84.0 0 0,0 0.8945836776241438,1.1360304241878465 l -49.829576375676965 38.54884327992963" fill="#4dd2ff" stroke="none" /><line stroke="#e1ed5e" stroke-width="0.3" x1="172.23445277983987" x2="176.4835382374775" y1="55.19839476539836" y2="52.563006222186495" /><path d="M 173.08426987136738 54.67131705675599 a86.0,86.0 0 0,1 12.851231095245387,41.99856678651699" fill="none" id="id135" stroke="none" /><text fill="#e1ed5e" style="font-size:6.75px; font-family:Arial;" text-anchor="middle"><textPath startOffset="22.20632615414155" xlink:href="#id135">March</textPath></text><line stroke="#e1ed5e" stroke-width="0.3" x1="184.98032266829074" x2="189.97916517819016" y1="98.17113171792111" y2="98.06355123074" /><path d="M 185.9800911702706 98.14961562048488 a86.0,86.0 0 0,1 -9.607161424134198,41.387399972396054" fill="none" id="id136" stroke="none" /><text fill="#e1ed5e" style="font-size:6.75px; font-family:Arial;" text-anchor="middle"><textPath startOffset="21.466115282336823" xlink:href="#id136">April</textPath></text><line stroke="#e1ed5e" stroke-width="0.3" x1="174.80103733775053" x2="179.2010983576182" y1="140.37084112569926" y2="142.7455964860345" /><path d="M 175.68104954172406 140.8457921977663 a86.0,86.0 0 0,1 -30.038265399797805,32.042727171017184" fill="none" id="id137" stroke="none" /><text fill="#e1ed5e" style="font-size:6.75px; font-family:Arial;" text-anchor="middle"><textPath startOffset="22.206326154141568" xlink:href="#id137">May</textPath></text><line stroke="#e1ed5e" stroke-width="0.3" x1="143.8653032363475" x2="146.44561519142675" y1="172.8068346515853" y2="177.08958963109032" /><path d="M 144.38136562736335 173.6633856474863 a86.0,86.0 0 0,1 -40.68145358897372,12.25698825130547" fill="none" id="id138" stroke="none" /><text fill="#e1ed5e" style="font-size:6.75px; font-family:Arial;" text-anchor="middle"><textPath startOffset="21.466115282336833" xlink:href="#id138">June</textPath></text><line stroke="#e1ed5e" stroke-width="0.3" x1="102.19456741930631" x2="102.32365962044197" y1="184.97166512339345" y2="189.96999836594603" /><path d="M 102.22038585953345 185.97133177190398 a86.0,86.0 0 0,1 -42.740103519485714,-10.115201625700543" fill="none" id="id139" stroke="none" /><text fill="#e1ed5e" style="font-size:6.75px; font-family:Arial;" text-anchor="middle"><textPath startOffset="22.20632615414155" xlink:href="#id139">July</textPath></text><line stroke="#e1ed5e" stroke-width="0.3" x1="58.666819895761336" x2="56.23545636021788" y1="174.27360380694188" y2="178.64263932499728" /><path d="M 58.180547188652646 175.14741091055294 a86.0,86.0 0 0,1 -31.652253787137756,-30.449443065178592" fill="none" id="id140" stroke="none" /><text fill="#e1ed5e" style="font-size:6.75px; font-family:Arial;" text-anchor="middle"><textPath startOffset="22.20632615414155" xlink:href="#id140">August</textPath></text><line stroke="#e1ed5e" stroke-width="0.3" x1="26.63291911575756" x2="22.317208475507996" y1="142.92168965132927" y2="145.44649492493687" /><path d="M 25.769776987707644 143.4266507060508 a86.0,86.0 0 0,1 -11.730757126820373,-40.83630448921669" fill="none" id="id141" stroke="none" /><text fill="#e1ed5e" style="font-size:6.75px; font-family:Arial;" text-anchor="middle"><textPath startOffset="21.46611528233685" xlink:href="#id141">September</textPath></text><line stroke="#e1ed5e" stroke-width="0.3" x1="15.007084014347285" x2="10.007500721073583" y1="101.09737516637583" y2="101.16192664675087" /><path d="M 14.007167355692545 101.11028546245083 a86.0,86.0 0 0,1 10.666146001902534,-42.60595125391555" fill="none" id="id142" stroke="none" /><text fill="#e1ed5e" style="font-size:6.75px; font-family:Arial;" text-anchor="middle"><textPath startOffset="22.20632615414155" xlink:href="#id142">October</textPath></text><line stroke="#e1ed5e" stroke-width="0.3" x1="26.266209847984243" x2="21.928928074336255" y1="57.711370442889674" y2="55.22380399835377" /><path d="M 25.398753493254645 57.213857153982495 a86.0,86.0 0 0,1 29.58750427330803,-30.492523968695096" fill="none" id="id143" stroke="none" /><text fill="#e1ed5e" style="font-size:6.75px; font-family:Arial;" text-anchor="middle"><textPath startOffset="21.46611528233685" xlink:href="#id143">November</textPath></text><line stroke="#e1ed5e" stroke-width="0.3" x1="56.762969772571076" x2="54.21961505331055" y1="26.818313649435495" y2="22.513508569990535" /><path d="M 56.25429882871897 25.957352633546506 a86.0,86.0 0 0,1 42.265352541879196,-11.944610805530505" fill="none" id="id144" stroke="none" /><text fill="#e1ed5e" style="font-size:6.75px; font-family:Arial;" text-anchor="middle"><textPath startOffset="22.20632615414155" xlink:href="#id144">December</textPath></text></svg>