<?xml version="1.0" encoding="utf-8" ?>
<svg baseProfile="full" height="200mm" version="1.1" viewBox="0,0,200,200" width="200mm" xmlns="http://www.w3.org/2000/svg" xmlns:ev="http://www.w3.org/2001/xml-events" xmlns:xlink="http://www.w3.org/1999/xlink"><defs /><rect fill="#1a1a1a" height="200" width="200" x="0" y="0" /><text alignment-baseline="middle" fill="#e1ed5e" style="dominant-baseline: central; font-size:9.0px; font-family:Arial;" text-anchor="middle" x="100.0" y="100.0">2024</text><line stroke="#e1ed5e" stroke-width="0.3" x1="100.0" x2="100.0" y1="15.0" y2="10.0" /><path d="M 100.0 14.0 a86.0,86.0 0 0,1 42.35913384403234,11.155469271406648" fill="none" id="id109" stroke="none" /><text fill="#e1ed5e" style="font-size:6.75px; font-family:Arial;" text-anchor="middle"><textPath startOffset="22.145653131862478" xlink:href="#id109">January</textPath></text><path d="M 101.08105385017728 79.02784411241856 l 0.4209241950136343 -8.165816932461835 a29.176658446604474,29.176658446604474 0 0,0 0.4999707299006056,0.03007699757397565 l -0.5610392770467023 8.157387957063168" fill="#ff4d07" stroke="none" /><path d="M 101.44090949804482 79.04949213459386 l 0.5829513817868657 -8.475985150939197 a29.49600827403487,29.49600827403487 0 0,0 0.5048466620978278,0.03907832451981065 l -0.728367038659927 8.464729059424334" fill="#ff5107" stroke="none" /><path d="M 101.80034050326958 79.07731436759882 l 1.937816793758084 -22.52036851659773 a43.60358670763419,43.60358670763419 0 0,0 0.7452069670166361,0.07057187456523777 l -2.324123324159733 22.48378488652731" fill="#f0ff19" stroke="none" /><path d="M 102.51750503828377 79.15144685158666 l 1.0901632760844537 -9.028115795704405 a30.09369731127942,30.09369731127942 0 0,0 0.5123411528613259,0.06633281966512039 l -1.2449822508365713 9.008071379838887" fill="#ff5a08" stroke="none" /><path d="M 102.87502721639298 79.19773525538626 l 1.0356711047771168 -7.493600195183454 a28.564830369712446,28.564830369712446 0 0,0 0.4851598978786507,0.07130179758951496 l -1.1641561082634495 7.474717324295057" fill="#ff4406" stroke="none" /><path d="M 103.23170211078529 79.25015418208739 l 1.9495408331012398 -12.51745065474049 a33.66835744498047,33.66835744498047 0 0,0 0.5703139132585808,0.09384493739680295 l -2.164132249412891 12.482139718848018" fill="#ff8c0c" stroke="none" /><path d="M 103.94208987418118 79.37332000966035 l 1.4392218637832632 -7.530616948585893 a28.666912755439498,28.666912755439498 0 0,0 0.48256449562025244,0.09652641413096695 l -1.5682828449344726 7.504801137792067" fill="#ff4506" stroke="none" /><path d="M 104.29559338865022 79.4440306129975 l 2.482329631181693 -11.878845898646377 a33.13544149512619,33.13544149512619 0 0,0 0.5557879922143483,0.12113140607982416 l -2.685880040015175 11.834483034432834" fill="#ff850c" stroke="none" /><path d="M 104.64783097203109 79.52079915486377 l 5.7896972617055775 -25.51047440591195 a47.1592220602389,47.1592220602389 0 0,0 0.7879359369323109,0.18595073567769915 l -6.2267653523777735 25.407327526588023" fill="#c5ff1e" stroke="none" /><path d="M 104.9986988182912 79.60360301121754 l 1.8352885028649495 -7.488603385426264 a28.71021819100899,28.71021819100899 0 0,0 0.47767610791821585,0.12142339869492115 l -1.96356990400856 7.455994754896075" fill="#ff4606" stroke="none" /><path d="M 105.3480935250658 79.69241777938227 l 1.740301137524249 -6.6082068821848825 a27.833523706479976,27.833523706479976 0 0,0 0.46100082012566107,0.12564782350483855 l -1.853483358584603 6.577358564535902" fill="#ff3905" stroke="none" /><path d="M 105.69591212413111 79.78721728523813 l 3.8770313246656483 -13.758216425388849 a35.2940508988977,35.2940508988977 0 0,0 0.5817467781498796,0.16933800865104282 l -4.112638115197132 13.68963472243529" fill="#ffa20f" stroke="none" /><path d="M 106.38641147887787 79.99465700312896 l 2.4869132627505963 -7.790220374828546 a29.17754676323154,29.17754676323154 0 0,0 0.4758403017917387,0.1564181585882874 l -2.6202763021900775 7.746381294838237" fill="#ff4d07" stroke="none" /><path d="M 106.72888874123014 80.10723608172694 l 3.402115724779771 -10.05775062396351 a31.617567471819154,31.617567471819154 0 0,0 0.5126475821967431,0.17832544046336235 l -3.5742690790215326 9.997866750931557" fill="#ff6f0a" stroke="none" /><path d="M 107.06938296918511 80.22567764915836 l 12.632666750495732 -35.335817222511636 a58.52604759379584,58.52604759379584 0 0,0 0.9431356865022631,0.3463324878741021 l -13.23739158865212 35.11375388562881" fill="#47ff2c" stroke="none" /><path d="M 108.07796709384702 80.6158196554323 l 4.4600113060897435 -10.702403524508801 a32.59453069562829,32.59453069562829 0 0,0 0.5146287199976718,0.21966439885172304 l -4.643075101257845 10.624264475997675" fill="#ff7d0b" stroke="none" /><path d="M 108.73861861582097 80.90454125486305 l 3.808539765403064 -8.322346719400276 a30.152400235051402,30.152400235051402 0 0,0 0.46881423717179843,0.21942873481495642 l -3.9508427164463678 8.255741753014787" fill="#ff5b08" stroke="none" /><path d="M 109.06512990194946 81.05736502329252 l 11.339327942070005 -23.694834206580946 a47.268336952596904,47.268336952596904 0 0,0 0.728922212215505,0.3565523807524677 l -11.744410403547578 23.496688075731257" fill="#c4ff1e" stroke="none" /><path d="M 109.71004243097381 81.37971332152246 l 4.027056216538215 -7.722411282477425 a29.709352317302,29.709352317302 0 0,0 0.4501832468144281,0.239697222256465 l -4.159028279139203 7.652143592498386" fill="#ff5407" stroke="none" /><path d="M 110.02825361518725 81.54914285379988 l 4.323159516177616 -7.9541265821625675 a30.053056825591135,30.053056825591135 0 0,0 0.45116194418774214,0.2502519252101482 l -4.459065648521459 7.878741741519273" fill="#ff5908" stroke="none" /><path d="M 110.34350942703115 81.72400993836675 l 7.549893282458572 -13.339938013302397 a36.328236518767035,36.328236518767035 0 0,0 0.5400928128813355,0.31182273090442125 l -7.777778563200305 13.208368385121805" fill="#ffb010" stroke="none" /><line stroke="#e1ed5e" stroke-width="0.3" x1="143.13028292997686" x2="145.6673583964461" y1="26.7553504044142" y2="22.446841604673864" /><path d="M 143.63769802327073 25.89364864446614 a86.0,86.0 0 0,1 29.32050498858742,28.57503671076993" fill="none" id="id110" stroke="none" /><text fill="#e1ed5e" style="font-size:6.75px; font-family:Arial;" text-anchor="middle"><textPath startOffset="20.669276256404974" xlink:href="#id110">February</textPath></text><path d="M 110.96478420261332 82.08984904055464 l 4.723610542020163 -7.715662827276172 a30.046764582816078,30.046764582816078 0 0,0 0.4375894487255221,0.2730881799804223 l -4.855364119535397 7.633438850454205" fill="#ff5908" stroke="none" /><path d="M 111.27062007382361 82.28071324371311 l 12.102653587378041 -19.027381636687767 a43.55028771001021,43.55028771001021 0 0,0 0.6273613215056745,0.40664802903552344 l -12.427500541140724 18.81681976594835" fill="#f1ff19" stroke="none" /><path d="M 111.8722381534696 82.67804972795209 l 10.437227610165547 -15.228227003557642 a39.46170679699697,39.46170679699697 0 0,0 0.555479725707337,0.38776798927325684 l -10.697102427046644 15.046814198479257" fill="#ffd914" stroke="none" /><path d="M 112.16784306229584 82.88440491214696 l 4.937993264116421 -6.945905927818214 a29.52228764091892,29.52228764091892 0 0,0 0.41052707658810655,0.2971899445044033 l -5.056501351078495 6.8601152119407365" fill="#ff5207" stroke="none" /><path d="M 112.45986205192187 83.09580414077388 l 6.867047268074437 -9.316468473757206 a32.57380330766341,32.57380330766341 0 0,0 0.44726470588444467,0.33563577359156466 l -7.025964962869648 9.197213672901626" fill="#ff7d0b" stroke="none" /><path d="M 113.03279911837588 83.53348406188908 l 8.317336843163607 -10.50868339537931 a34.40188489978061,34.40188489978061 0 0,0 0.45991917542573507,0.37047833175277 l -8.496506788944602 10.364356769833131" fill="#ff960d" stroke="none" /><path d="M 113.59037401385872 83.9905735841838 l 10.069325459011987 -11.861640071757394 a36.55923585499711,36.55923585499711 0 0,0 0.47495760692536215,0.41025706865886946 l -10.27146254570021 11.687038870633806" fill="#ffb310" stroke="none" /><path d="M 114.39649973595853 84.71141617570332 l 10.425962208018307 -11.072010564352944 a36.20822494245036,36.20822494245036 0 0,0 0.44885700907131926,0.4299948611340025 l -10.614491702954938 10.891403572913362" fill="#ffae10" stroke="none" /><path d="M 114.65682725009322 84.96080404539774 l 2.0725929473681406 -2.1266629494727707 a23.96956845789761,23.96956845789761 0 0,0 0.2922096760104658,0.28971217241938185 l -2.108794543508569 2.0907707668247295" fill="#ff0000" stroke="none" /><path d="M 115.16444852881244 85.47280134310134 l 6.048617286755018 -5.794438535452813 a29.376233582152075,29.376233582152075 0 0,0 0.3457221312680884,0.3671449227762446 l -6.147195251759367 5.6897521527320745" fill="#ff5007" stroke="none" /><path d="M 115.41159269507618 85.73525988315684 l 7.160282930764674 -6.6274509838985365 a30.756677620613363,30.756677620613363 0 0,0 0.3553162240583797,0.3905547724811361 l -7.272996855664931 6.503558635859728" fill="#ff6309" stroke="none" /><path d="M 115.6541949942343 86.00192230759917 l 5.758966394899536 -5.149703261868199 a28.725615679211472,28.725615679211472 0 0,0 0.32554184345857035,0.3704068589638925 l -5.846519302316697 5.050084125093009" fill="#ff4606" stroke="none" /><path d="M 115.8921839302757 86.27271002978787 l 5.74814643171248 -4.965111982440314 a28.595625346117416,28.595625346117416 0 0,0 0.31769118348395287,0.3742394153209806 l -5.832532178703546 4.865705784669782" fill="#ff4406" stroke="none" /><path d="M 116.1254893667686 86.54754324733833 l 12.534546902054798 -10.456764832302982 a37.32356568884078,37.32356568884078 0 0,0 0.4062104597876469,0.49551071204405434 l -12.712204181081072 10.240051838560433" fill="#ffbd11" stroke="none" /><path d="M 116.57777611688842 87.10902102172516 l 6.118140720014579 -4.757503229126651 a28.75019243922698,28.75019243922698 0 0,0 0.29961536980990405,0.392206136863745 l -6.19890806717879 4.651776179022024" fill="#ff4706" stroke="none" /><path d="M 116.7966241395341 87.39550010848427 l 20.992328770981462 -15.753034866912113 a47.24568487860671,47.24568487860671 0 0,0 0.4812265037577599,0.6528761745734564 l -21.25965729432305 15.390352383069782" fill="#c4ff1e" stroke="none" /><path d="M 117.21940702142032 87.97951657250589 l 7.017777998564512 -4.89895407110363 a29.558560569857466,29.558560569857466 0 0,0 0.2868732385287051,0.41855662832398466 l -7.100840973908542 4.777762707709597" fill="#ff5207" stroke="none" /><path d="M 117.42321728460499 88.27688183743584 l 6.305477996681404 -4.242607000709301 a28.59991887648157,28.59991887648157 0 0,0 0.2705764252193687,0.40968719409124943 l -6.377378860821497 4.133739928278993" fill="#ff4406" stroke="none" /><path d="M 117.62189284568427 88.57770195909679 l 10.739701053195237 -6.961344469294141 a33.79849583084571,33.79849583084571 0 0,0 0.31140052347260777,0.48957334515110396 l -10.857619268293734 6.775957449464365" fill="#ff8e0d" stroke="none" /><path d="M 117.81537515405839 88.88188828441811 l 6.307481051353848 -3.936334675326377 a28.434988089389563,28.434988089389563 0 0,0 0.2548750327977232,0.41631921147274537 l -6.374124048606974 3.8274783477290772" fill="#ff4206" stroke="none" /><line stroke="#e1ed5e" stroke-width="0.3" x1="172.87174338648825" x2="177.1583165268699" y1="56.24261187166439" y2="53.66864786411523" /><path d="M 173.72905801456457 55.72781907015455 a86.0,86.0 0 0,1 12.242430191666344,42.057860355516425" fill="none" id="id111" stroke="none" /><text fill="#e1ed5e" style="font-size:6.75px; font-family:Arial;" text-anchor="middle"><textPath startOffset="22.145653131862474" xlink:href="#id111">March</textPath></text><path d="M 118.18653347947321 89.5 l 40.03201077876632 -23.11249219932274 a67.22498439864547,67.22498439864547 0 0,0 0.5684244888646655,1.004351606441306 l -40.42286863265236 22.42188382278232" fill="#37ff7c" stroke="none" /><path d="M 118.70294669586156 90.45014215332178 l 6.63431560119409 -3.3875288173399034 a28.449127129037038,28.449127129037038 0 0,0 0.21835394189088178,0.4368541532886698 l -6.691489456296709 3.273142807887483" fill="#ff4206" stroke="none" /><path d="M 118.8641267826498 90.77261029715802 l 23.403322784979217 -11.447737929593673 a47.053142249690055,47.053142249690055 0 0,0 0.3486878529625992,0.7286235046738798 l -23.596389895901726 11.044301922854691" fill="#c6ff1e" stroke="none" /><path d="M 119.31412917781788 91.75594674310238 l 8.206113861989632 -3.5027020419903585 a29.922400255026773,29.922400255026773 0 0,0 0.19759350403843606,0.4741524783028061 l -8.265033210564551 3.3613170542462747" fill="#ff5708" stroke="none" /><path d="M 119.4528033332814 92.08871423366111 l 13.719420264698176 -5.57956878517515 a35.81060701753685,35.81060701753685 0 0,0 0.2267004546275596,0.5714332373591123 l -13.813179394291861 5.343234530602472" fill="#ffa90f" stroke="none" /><path d="M 119.71291397450082 92.76114493625339 l 7.666756943316621 -2.8153393452348454 a29.167331122020276,29.167331122020276 0 0,0 0.1685591592971611,0.4714899681708979 l -7.713956272657724 2.683314420683031" fill="#ff4d07" stroke="none" /><path d="M 119.83427380445688 93.10060997987247 l 8.555269023757972 -2.9759666677969516 a30.058090619811175,30.058090619811175 0 0,0 0.1653403650612923,0.4887994102461631 l -8.60509481039163 2.828665583076627" fill="#ff5908" stroke="none" /><path d="M 120.05942366710727 93.78553927170692 l 7.461968453511821 -2.3117369013024227 a28.811856418422508,28.811856418422508 0 0,0 0.1423081797736139,0.4736976472392643 l -7.500552953289063 2.1833016504724347" fill="#ff4706" stroke="none" /><path d="M 120.16314734710363 94.1308016681162 l 15.45542641371769 -4.498849379235181 a37.09688949352909,37.09688949352909 0 0,0 0.17273284733427946,0.6129679381952456 l -15.530377753126551 4.232873517136921" fill="#ffba11" stroke="none" /><path d="M 120.43855184770803 95.1765574152323 l 6.37380351791428 -1.5042002752605748 a27.548892253890763,27.548892253890763 0 0,0 0.1046715418085058,0.46120212640386216 l -6.398685921280452 1.3945638149176862" fill="#ff3505" stroke="none" /><path d="M 120.51834098615036 95.52812308129327 l 9.595388891459525 -2.09127034874292 a30.82063641776215,30.82063641776215 0 0,0 0.10822782301407942,0.5179093120353432 l -9.62987442529797 1.9262445854221724" fill="#ff6409" stroke="none" /><path d="M 120.65975698304385 96.23510406497455 l 7.3114673180417435 -1.3323929031381665 a28.431878981194828,28.431878981194828 0 0,0 0.08338011695693287,0.4809143572037602 l -7.33326225249091 1.2066855130138137" fill="#ff4206" stroke="none" /><path d="M 120.77682067341334 96.94652285012252 l 31.262350466218706 -4.594488940370586 a52.59816268861012,52.59816268861012 0 0,0 0.1236194165620921,0.8944485172998424 l -31.33661439933601 4.057152114870658" fill="#87ff25" stroke="none" /><path d="M 120.9064616781168 98.02013634271609 l 7.829532821888625 -0.7414648985674361 a28.86456320496179,28.86456320496179 0 0,0 0.042480908622736055,0.49369255142462765 l -7.841107353209102 0.6069512997671465" fill="#ff4806" stroke="none" /><path d="M 120.96210409425399 98.7389718711861 l 7.494577242102509 -0.4508551562078383 a28.508126158351367,28.508126158351367 0 0,0 0.02519359567002402,0.48874902547529314 l -7.501212427229106 0.3221343373558145" fill="#ff4306" stroke="none" /><path d="M 120.98066250479742 99.09900007780936 l 6.205464419094486 -0.26648934262597607 a27.211183882834327,27.211183882834327 0 0,0 0.016035567511256957,0.4668580517513807 l -6.209124673602592 0.15992502631047542" fill="#ff3004" stroke="none" /><path d="M 120.99303781780057 99.45929381324524 l 15.047978855591357 -0.38758255646421474 a36.05296940395482,36.05296940395482 0 0,0 0.01062458415369406,0.618828762387067 l -15.052414871343716 0.12920687810808143" fill="#ffac0f" stroke="none" /><line stroke="#e1ed5e" stroke-width="0.3" x1="184.99686870605535" x2="189.99668451229388" y1="99.2704041080226" y2="99.22748670261217" /><path d="M 185.99683186730306 99.26182062694052 a86.0,86.0 0 0,1 -10.086455211305974,41.156179273409016" fill="none" id="id112" stroke="none" /><text fill="#e1ed5e" style="font-size:6.75px; font-family:Arial;" text-anchor="middle"><textPath startOffset="21.40746469413373" xlink:href="#id112">April</textPath></text><path d="M 120.99922638620191 100.18025310272382 l 7.436046619558944 0.06382951688426199 a28.436320564330163,28.436320564330163 0 0,0 -0.008380005471169084,0.48809330694785397 l -7.433855182489107 -0.191469739801187" fill="#ff4206" stroke="none" /><path d="M 120.98066250479742 100.90099992219065 l 32.62959734073689 1.4012553063276036 a53.659671447400314,53.659671447400314 0 0,0 -0.047420867254584775,0.919952156152447 l -32.600734884025734 -1.9611792558567813" fill="#7bff26" stroke="none" /><path d="M 120.96210409425399 101.26102812881392 l 5.714898710723245 0.3437941150917108 a26.725230271997617,26.725230271997617 0 0,0 -0.03147982542288974,0.457709752776826 l -5.70815492413529 -0.4418472920228803" fill="#ff2904" stroke="none" /><path d="M 120.9064616781168 101.97986365728391 l 14.989899999737819 1.4195591149154392 a36.056966828776616,36.056966828776616 0 0,0 -0.06364502355765131,0.6157078688092212 l -14.9633225836985 -1.6766715060075918" fill="#ffac10" stroke="none" /><path d="M 120.82617615685814 102.69636545807757 l 7.584290258828638 0.9819382167861616 a28.647591868800802,28.647591868800802 0 0,0 -0.06732932124827108,0.48716142848861627 l -7.566316421025156 -1.111987953474863" fill="#ff4506" stroke="none" /><path d="M 120.77682067341334 103.0534771498775 l 11.311426626226263 1.6623901836865296 a32.43293109588778,32.43293109588778 0 0,0 -0.085682410608678,0.550142540521818 l -11.281222723479317 -1.856320906139798" fill="#ff7b0b" stroke="none" /><path d="M 120.65975698304385 103.76489593502545 l 7.53541036304377 1.3732027858728626 a28.65951011688061,28.65951011688061 0 0,0 -0.09235691957077517,0.4832504295137713 l -7.510727151190835 -1.5023557804199483" fill="#ff4506" stroke="none" /><path d="M 120.592083275326 104.11899336999214 l 18.518765930335423 3.7042718343552457 a39.88561149143309,39.88561149143309 0 0,0 -0.14005982364515762,0.6702369583689702 l -18.4524483958659 -4.021625244009625" fill="#ffdf14" stroke="none" /><path d="M 120.43855184770803 104.8234425847677 l 14.86536372030494 3.508185361705087 a36.27371608578083,36.27371608578083 0 0,0 -0.1482255857031657,0.6048109717740783 l -14.802950608085478 -3.7628521580872647" fill="#ffaf10" stroke="none" /><path d="M 120.35273937422433 105.17358676015961 l 7.366248632197084 1.8724715968132957 a28.60051108756628,28.60051108756628 0 0,0 -0.12503941772378707,0.47479503571559073 l -7.333019733668567 -1.9986471369016896" fill="#ff4406" stroke="none" /><path d="M 120.26092885502905 105.52220625578681 l 21.001920501351073 5.724166824035359 a42.76802128293836,42.76802128293836 0 0,0 -0.19913912438248482,0.7066744997870048 l -20.900562884894008 -6.0838492477253725" fill="#fbff18" stroke="none" /><path d="M 120.05942366710727 106.21446072829308 l 10.701724808550788 3.3154217016110916 a32.203523326947874,32.203523326947874 0 0,0 -0.1681258301392254,0.526651768319799 l -10.643234262634307 -3.498642503622274" fill="#ff780b" stroke="none" /><path d="M 119.94978838288452 106.5578916946017 l 13.738207601023648 4.516021713932598 a35.461424556714135,35.461424556714135 0 0,0 -0.19506245276724846,0.5766674812799412 l -13.658659726684034 -4.7511908696867" fill="#ffa40f" stroke="none" /><path d="M 119.83427380445688 106.89939002012753 l 4.12203395278536 1.4338573822694534 a25.364299588777552,25.364299588777552 0 0,0 -0.14658128976421544,0.41001395553674985 l -4.096812492977201 -1.5044062941871248" fill="#ff1502" stroke="none" /><path d="M 119.58574465831526 107.57618678355244 l 7.780925455519476 3.0098291195114673 a29.342773655865905,29.342773655865905 0 0,0 -0.18575558142761478,0.4682254097244425 l -7.728111199125737 -3.1429555464494743" fill="#ff4f07" stroke="none" /><path d="M 119.4528033332814 107.91128576633889 l 11.583650104714058 4.710969654378124 a33.50496640670872,33.50496640670872 0 0,0 -0.22125109144208355,0.5309220758292736 l -11.50107316873549 -4.9091242396486745" fill="#ff8a0c" stroke="none" /><path d="M 119.16976305983485 108.57439118712176 l 13.591302068429597 6.079216540825441 a35.888934336128436,35.888934336128436 0 0,0 -0.25637608048647903,0.5602280043788791 l -13.484941523088063 -6.311633527419009" fill="#ffaa0f" stroke="none" /><path d="M 119.0197475246899 108.90220220490707 l 17.03199630397278 7.971834266168455 a39.80529286306916,39.80529286306916 0 0,0 -0.2949775815463735,0.6163896947955835 l -16.892639464466495 -8.263036463029142" fill="#ffde14" stroke="none" /><path d="M 118.8641267826498 109.22738970284198 l 10.315817937756364 5.045983485585683 a32.48381683334158,32.48381683334158 0 0,0 -0.24932116268629456,0.49880933899831087 l -10.227676861858336 -5.22232468074774" fill="#ff7c0b" stroke="none" /><path d="M 118.5362547648365 109.86951160357373 l 8.093854215680327 4.309521481698069 a30.169648382893605,30.169648382893605 0 0,0 -0.247325965218343,0.4550519190977286 l -8.018682900846645 -4.447828234270401" fill="#ff5b08" stroke="none" /><line stroke="#e1ed5e" stroke-width="0.3" x1="174.33088141563837" x2="178.70328620479359" y1="141.23008692659167" y2="143.65538615756765" /><path d="M 175.20536237346943 141.71514677278685 a86.0,86.0 0 0,1 -30.301960400862466,31.631185727798858" fill="none" id="id113" stroke="none" /><text fill="#e1ed5e" style="font-size:6.75px; font-family:Arial;" text-anchor="middle"><textPath startOffset="22.145653131862474" xlink:href="#id113">May</textPath></text><path d="M 118.18653347947321 110.5 l 6.832003297490001 3.944458942910261 a28.888917885820526,28.888917885820526 0 0,0 -0.25164488415328623,0.427348028118749 l -6.763284703206949 -4.0611581393225595" fill="#ff4906" stroke="none" /><path d="M 117.62189284568427 111.42229804090321 l 26.255780272413393 17.01867955924047 a52.288998891836755,52.288998891836755 0 0,0 -0.49469267586234134,0.7490277622938588 l -25.959763157630324 -17.46688719987339" fill="#8aff24" stroke="none" /><path d="M 117.21940702142032 112.02048342749411 l 12.458472535613618 8.696981403595485 a36.19378239462197,36.19378239462197 0 0,0 -0.3600159366346979,0.5064075009076455 l -12.30734150044896 -8.909566131212635" fill="#ffae10" stroke="none" /><path d="M 117.01052211995028 112.31430620078461 l 9.475087076005746 6.859232345148774 a32.69727931882565,32.69727931882565 0 0,0 -0.3330420005428701,0.4518354363045916 l -9.355943055879049 -7.020874090722243" fill="#ff7e0b" stroke="none" /><path d="M 116.57777611688842 112.89097897827486 l 17.759005721988853 13.809510263804349 a43.49632987755448,43.49632987755448 0 0,0 -0.46340900654749284,0.5855021413948835 l -17.519330284799796 -14.112332349113915" fill="#f2ff19" stroke="none" /><path d="M 116.1254893667686 113.45245675266167 l 17.339799218889773 14.465477219727633 a43.58137879195753,43.58137879195753 0 0,0 -0.48417964771521116,0.5703624075561115 l -17.08892500766745 -14.761006409733302" fill="#f1ff19" stroke="none" /><path d="M 115.6541949942343 113.99807769240083 l 6.757596319762729 6.042684298538562 a30.065271179213298,30.065271179213298 0 0,0 -0.34732875775664346,0.38177514781738453 l -6.652869861164205 -6.157797021913619" fill="#ff5908" stroke="none" /><path d="M 115.41159269507618 114.26474011684316 l 16.44621373885886 15.222369908973082 a43.40978563016253,43.40978563016253 0 0,0 -0.510879775107343,0.5425366171721335 l -16.18247813001526 -15.502447986089713" fill="#f3ff19" stroke="none" /><path d="M 114.65682725009322 115.03919595460226 l 6.227337104481669 6.389796467654325 a29.922400255026773,29.922400255026773 0 0,0 -0.37093447977782246,0.35534684074975675 l -6.116730138838534 -6.495755438709661" fill="#ff5708" stroke="none" /><path d="M 114.39649973595853 115.28858382429668 l 7.614829149031133 8.086684672516261 a32.107659157610286,32.107659157610286 0 0,0 -0.4045109869477213,0.3744093305204262 l -7.474888390769444 -8.216211749169068" fill="#ff760a" stroke="none" /><path d="M 114.13192950727249 115.5334660781643 l 5.150773475854697 5.661602332669674 a28.654032164347036,28.654032164347036 0 0,0 -0.3666828840518032,0.3278900959979905 l -5.052825564979516 -5.749187958551052" fill="#ff4506" stroke="none" /><path d="M 113.86319453409587 115.77377054828091 l 5.065726895293595 5.763867304183934 a28.6735751301425,28.6735751301425 0 0,0 -0.3725114135268725,0.32176648679199177 l -4.966036002003867 -5.849977923440644" fill="#ff4506" stroke="none" /><path d="M 113.59037401385872 116.0094264158162 l 6.832251827375858 8.048375473195902 a31.557272980757016,31.557272980757016 0 0,0 -0.41599348118728097,0.34703655732728433 l -6.693084012026682 -8.164474214435057" fill="#ff6f0a" stroke="none" /><path d="M 113.03279911837588 116.46651593811092 l 9.547925240778412 12.063491635614337 a36.38475566416414,36.38475566416414 0 0,0 -0.493082839471337,0.3834241983578054 l -9.339432456671844 -12.225616885592935" fill="#ffb110" stroke="none" /><path d="M 112.45986205192187 116.90419585922612 l 11.42529931338412 15.5006128108727 a40.25633563046216,40.25633563046216 0 0,0 -0.5597911646120951,0.40524563331553404 l -11.157527138398056 -15.694459215561313" fill="#ffe315" stroke="none" /><path d="M 111.8722381534696 117.32195027204791 l 5.026737986508891 7.334160948201219 a29.891457225850623,29.891457225850623 0 0,0 -0.4257450385924558,0.28646026236238376 l -4.9000966598194315 -7.419370884620723" fill="#ff5708" stroke="none" /><path d="M 111.5731344415666 117.5232005979908 l 6.689330369243641 10.128498767410916 a33.13810644500738,33.13810644500738 0 0,0 -0.4773692056862534,0.30942495171470974 l -6.514475531300378 -10.24183756082952" fill="#ff850c" stroke="none" /><path d="M 111.27062007382361 117.71928675628689 l 4.209756829277235 6.6184369576477176 a28.843835816996904,28.843835816996904 0 0,0 -0.4200704598160797,0.2621550352021115 l -4.09552224067144 -6.689727789691377" fill="#ff4806" stroke="none" /><line stroke="#e1ed5e" stroke-width="0.3" x1="143.1302829299769" x2="145.66735839644613" y1="173.24464959558577" y2="177.55315839532614" /><path d="M 143.63769802327073 174.10635135553383 a86.0,86.0 0 0,1 -40.68552437913181,11.842963189579606" fill="none" id="id114" stroke="none" /><text fill="#e1ed5e" style="font-size:6.75px; font-family:Arial;" text-anchor="middle"><textPath startOffset="21.407464694133747" xlink:href="#id114">June</textPath></text><path d="M 110.65571695917076 118.09573695890943 l 9.95200468821452 16.900679676628542 a40.61314280900052,40.61314280900052 0 0,0 -0.6037966232776788,0.34860214298515624 l -9.660415597076444 -17.06902871688987" fill="#ffe815" stroke="none" /><path d="M 110.02825361518725 118.45085714620011 l 3.989629854007161 7.340469569997686 a29.354617877560123,29.354617877560123 0 0,0 -0.44480798652150516,0.23683519891322577 l -3.863033051699102 -7.407875236633481" fill="#ff4f07" stroke="none" /><path d="M 109.71004243097381 118.62028667847754 l 4.117693391098724 7.896220015656635 a29.905374186341334,29.905374186341334 0 0,0 -0.45722864646207284,0.23346420476662316 l -3.981537522923069 -7.965742172096094" fill="#ff5708" stroke="none" /><path d="M 109.3889696526874 118.78422872680471 l 5.420603528070274 10.844838174490452 a33.12408584757685,33.12408584757685 0 0,0 -0.5108045573476715,0.24986010574153722 l -5.233638721460532 -10.936292030329211" fill="#ff840c" stroke="none" /><path d="M 109.06512990194946 118.94263497670748 l 2.9270945819332983 6.1165018932532655 a27.780816919940698,27.780816919940698 0 0,0 -0.43194048867762186,0.2021699586549724 l -2.82166537938417 -6.165848083478771" fill="#ff3905" stroke="none" /><path d="M 108.73861861582097 119.09545874513695 l 3.790929000147671 8.28386401908013 a30.11007935041024,30.11007935041024 0 0,0 -0.47184874062731236,0.21105194000891234 l -3.648166856664732 -8.347719709998893" fill="#ff5a08" stroke="none" /><path d="M 108.4095320186766 119.2426549942271 l 9.016773763937861 20.63214294387804 a43.51638362541051,43.51638362541051 0 0,0 -0.6870717364578056,0.2932700684829525 l -8.661266952309624 -20.783887662020398" fill="#f1ff19" stroke="none" /><path d="M 107.74402155503746 119.51999308798841 l 8.613241324036311 21.710994722244347 a44.357123494459,44.357123494459 0 0,0 -0.7101950130874791,0.274718687788766 l -8.239274048455302 -21.855653298171156" fill="#e7ff1a" stroke="none" /><path d="M 107.407793817531 119.65005319985036 l 3.140083677633547 8.329445019306222 a29.90167286706189,29.90167286706189 0 0,0 -0.4818595467572946,0.17694550001946274 l -2.996634979222125 -8.382121368334406" fill="#ff5708" stroke="none" /><path d="M 107.06938296918513 119.77432235084164 l 3.4256334920479783 9.58210656048307 a31.176037094974326,31.176037094974326 0 0,0 -0.505488603873764,0.17583517618231082 l -3.2606391161291928 -9.63950016923397" fill="#ff6909" stroke="none" /><path d="M 106.38641147887787 120.00534299687104 l 1.3663524881062576 4.280079708236495 a25.492883420545425,25.492883420545425 0 0,0 -0.41803396195126113,0.12950798999767665 l -1.292677893283372 -4.302904286040816" fill="#ff1702" stroke="none" /><path d="M 106.0420521117495 120.11202640906438 l 1.3535280859103729 4.5054547868435195 a25.70437680417283,25.70437680417283 0 0,0 -0.42368155565404275,0.12332752604973791 l -1.2759865178747234 -4.528026007195776" fill="#ff1a02" stroke="none" /><path d="M 105.69591212413111 120.21278271476187 l 5.224316475506117 18.539256128124393 a40.26129539829662,40.26129539829662 0 0,0 -0.6668393981899969,0.18175004327977365 l -4.905295676381424 -18.626206665548306" fill="#ffe415" stroke="none" /><path d="M 105.3480935250658 120.30758222061773 l 2.1326757754401453 8.098117292953946 a29.374234869741173,29.374234869741173 0 0,0 -0.4887239132876917,0.12423170761773286 l -1.993346568927056 -8.133534232406948" fill="#ff5007" stroke="none" /><path d="M 104.9986988182912 120.39639698878246 l 3.925859284200511 16.018845582303744 a37.49290104587533,37.49290104587533 0 0,0 -0.6264311161909576,0.14783603773756931 l -3.6502960142696743 -16.083877763687536" fill="#ffbf11" stroke="none" /><path d="M 104.64783097203109 120.47920084513623 l 2.7684926336551055 12.198489365056869 a33.508704739180956,33.508704739180956 0 0,0 -0.5620488180739052,0.12249592393593665 l -2.5586813989620643 -12.244216747126524" fill="#ff8a0c" stroke="none" /><path d="M 103.94208987418118 120.62667999033965 l 0.8404377553501186 4.397525471183497 a25.477115800414992,25.477115800414992 0 0,0 -0.43027847922403595,0.0784110722449014 l -0.7648245425750255 -4.411304717359761" fill="#ff1702" stroke="none" /><path d="M 103.58742460773223 120.69131181640829 l 3.2141852568982987 18.538566425295897 a39.81513837235248,39.81513837235248 0 0,0 -0.6744352589571743,0.11097806520868378 l -2.895472494888052 -18.591010489000254" fill="#ffde14" stroke="none" /><path d="M 103.2317021107853 120.74984581791261 l 2.461142507084309 15.802300399989742 a36.99280839539114,36.99280839539114 0 0,0 -0.6283050489381552,0.09233920532126168 l -2.189512352538468 -15.842220678609886" fill="#ffb911" stroke="none" /><path d="M 102.875027216393 120.80226474461374 l 1.2443539018773122 9.003524959781338 a30.089107675372915,30.089107675372915 0 0,0 -0.5122630149267768,0.06632270314511737 l -1.08961306505976 -9.02355925912685" fill="#ff5a08" stroke="none" /><path d="M 102.15924093988457 120.88869738790638 l 2.3492959670969356 22.727307372163963 a43.848406770053714,43.848406770053714 0 0,0 -0.7493910635544634,0.07096811285755923 l -1.9588053401574568 -22.764287240526706" fill="#edff19" stroke="none" /><path d="M 101.44090949804482 120.95050786540614 l 0.3962357671696022 5.761181092848754 a26.774790937149366,26.774790937149366 0 0,0 -0.4588123685336041,0.02760101275936438 l -0.297279046503533 -5.76713408343281" fill="#ff2a04" stroke="none" /><path d="M 101.08105385017728 120.97215588758144 l 0.96649920500243 18.749826374708807 a39.774719965820964,39.774719965820964 0 0,0 -0.682182357666884,0.02929584568824154 l -0.6444910867347164 -18.76365478882288" fill="#ffdd14" stroke="none" /><path d="M 100.72087961077811 120.9876233191556 l 0.27104903074446124 7.891296789690967 a28.895950392451468,28.895950392451468 0 0,0 -0.49589122851008444,0.012772398999133796 l -0.13554448816363296 -7.894786906040147" fill="#ff4906" stroke="none" /><line stroke="#e1ed5e" stroke-width="0.3" x1="101.45913802915013" x2="101.54496967792366" y1="184.9874750549273" y2="189.98673829345242" /><path d="M 101.47630435890484 185.9873277026323 a86.0,86.0 0 0,1 -42.54439059252881,-10.42667462771756" fill="none" id="id115" stroke="none" /><text fill="#e1ed5e" style="font-size:6.75px; font-family:Arial;" text-anchor="middle"><textPath startOffset="22.145653131862474" xlink:href="#id115">July</textPath></text><path d="M 100.36049292484886 120.99690560180557 l 0.16818399332453932 9.795874448994107 a30.797318106301653,30.797318106301653 0 0,0 -0.5286769181733904,0.004538055501979877 l -1.1998254259110727e-15 -9.797318106301653" fill="#ff6409" stroke="none" /><path d="M 99.63950707515114 120.99690560180557 l -0.1833149486662113 10.677176741147226 a31.678750279508357,31.678750279508357 0 0,0 -0.5436476108386911,-0.014002434004364784 l 0.36657587357564625 -10.672456589792814" fill="#ff700a" stroke="none" /><path d="M 99.27912038922189 120.98762331915562 l -0.25957574665787686 7.5572646419611385 a28.56172126151771,28.56172126151771 0 0,0 -0.4898664872046664,-0.021036974726337233 l 0.389267994463382 -7.551695098808972" fill="#ff4406" stroke="none" /><path d="M 98.55909050195518 120.95050786540614 l -1.2881209054971972 18.728995262250436 a39.77323943810919,39.77323943810919 0 0,0 -0.6807493062992765,-0.05269430166707596 l 1.6094392065717098 -18.704123193588305" fill="#ffdd14" stroke="none" /><path d="M 98.19965949673042 120.92268563240118 l -0.3849994458508717 4.4742771489934405 a25.490810681748936,25.490810681748936 0 0,0 -0.4356506230166481,-0.0412565669439218 l 0.46174963225253507 -4.467008826544335" fill="#ff1702" stroke="none" /><path d="M 97.84075906011543 120.88869738790638 l -0.7458856871769086 7.215767410487299 a28.254215655781536,28.254215655781536 0 0,0 -0.48202243323310257,-0.05401161904635179 l 0.8696440220108105 -7.201900030933976" fill="#ff3f05" stroke="none" /><path d="M 97.12497278360702 120.80226474461374 l -1.040029008849432 7.525131818163253 a28.59666171551566,28.59666171551566 0 0,0 -0.4857005379692527,-0.07138125306487003 l 1.1690546524263696 -7.5061694917995" fill="#ff4406" stroke="none" /><path d="M 96.76829788921471 120.74984581791261 l -1.3395353812592659 8.600778065529823 a29.704466575853132,29.704466575853132 0 0,0 -0.503168905754252,-0.082796251963636 l 1.4869817900665814 -8.57651581507052" fill="#ff5407" stroke="none" /><path d="M 96.41257539226777 120.69131181640829 l -1.0970325573476087 6.327392265723534 a27.421788949834667,27.421788949834667 0 0,0 -0.46312171830475185,-0.08439620447126216 l 1.2054890092034178 -6.307627887320907" fill="#ff3304" stroke="none" /><path d="M 96.05791012581884 120.62667999033965 l -1.830675758760326 9.57886913977702 a30.75223603747803,30.75223603747803 0 0,0 -0.5176677865252385,-0.10354805543696027 l 1.9948400308165226 -9.546031687677196" fill="#ff6309" stroke="none" /><path d="M 95.70440661134978 120.55596938700252 l -2.2030005432169686 10.542155094467075 a31.76987676016826,31.76987676016826 0 0,0 -0.5328830768718822,-0.11613938638807488 l 2.3836460367079875 -10.50278424994528" fill="#ff720a" stroke="none" /><path d="M 95.00130118170881 120.39639698878247 l -1.7680653677448859 7.214310054185311 a28.42780752998744,28.42780752998744 0 0,0 -0.472977403627873,-0.12022900643845709 l 1.8916480645981377 -7.182895815911591" fill="#ff4206" stroke="none" /><path d="M 94.6519064749342 120.30758222061772 l -3.8597745894679054 14.656192802407285 a36.15591789839326,36.15591789839326 0 0,0 -0.5988428910161584,-0.1632172928825032 l 4.110798881418759 -14.587775015380638" fill="#ffae10" stroke="none" /><path d="M 94.30408787586889 120.21278271476187 l -2.345466012360912 8.323231440292282 a29.647392232564112,29.647392232564112 0 0,0 -0.4886737133474947,-0.14224579594844972 l 2.4879997380900134 -8.281741950041317" fill="#ff5307" stroke="none" /><path d="M 93.95794788825049 120.11202640906438 l -2.2817224837699195 7.595112058450766 a28.930446688135884,28.930446688135884 0 0,0 -0.47440334820321023,-0.14697136995086507 l 2.411766464844763 -7.554824100693253" fill="#ff4906" stroke="none" /><path d="M 93.61358852112213 120.00534299687104 l -2.665032335557949 8.348175833473977 a29.763243526010697,29.763243526010697 0 0,0 -0.4853921029291269,-0.1595580253450253 l 2.8079471761348196 -8.301196886726931" fill="#ff5507" stroke="none" /><path d="M 93.27111125876986 119.89276391827306 l -3.379475197835854 9.990817929011824 a31.546909286774575,31.546909286774575 0 0,0 -0.5115019296174305,-0.1779269230258129 l 3.5504828994983066 -9.93133257341742" fill="#ff6e0a" stroke="none" /><path d="M 92.59220618246901 119.65005319985036 l -2.912378649201407 7.725430378405182 a29.256162784726925,29.256162784726925 0 0,0 -0.46841587720141775,-0.1811933240206323 l 3.0445667888963532 -7.674297166246509" fill="#ff4e07" stroke="none" /><path d="M 92.25597844496254 119.51999308798841 l -2.792331541613986 7.038499570836144 a28.572158981885742,28.572158981885742 0 0,0 -0.4543592869599152,-0.18478396651345458 l 2.912745289764342 -6.9895283477433985" fill="#ff4406" stroke="none" /><path d="M 91.92203290615298 119.3841803445677 l -3.6281319347418535 8.70619586832564 a30.431923867034982,30.431923867034982 0 0,0 -0.48048374044726744,-0.20508993746764162 l 3.777050750359552 -8.642631281198595" fill="#ff5f08" stroke="none" /><path d="M 91.59046798132341 119.24265499422711 l -5.813491566892009 13.302406398490199 a35.51725525672527,35.51725525672527 0 0,0 -0.556583460587787,-0.24895270246510462 l 6.040988430335431 -13.20064994511524" fill="#ffa50f" stroke="none" /><path d="M 91.26138138417905 119.09545874513695 l -3.6439836905485805 7.962761998200018 a29.756951283235644,29.756951283235644 0 0,0 -0.4626657349882233,-0.2165509253369679 l 3.780138139408294 -7.899034841292523" fill="#ff5507" stroke="none" /><path d="M 90.93487009805054 118.94263497670748 l -4.590201978404027 9.591756708038924 a31.633520157913555,31.633520157913555 0 0,0 -0.4878186325191442,-0.23861653806852604 l 4.75418086018524 -9.511546419873175" fill="#ff700a" stroke="none" /><path d="M 90.28995756902619 118.62028667847754 l -3.6936017775017733 7.082968428009202 a28.988187268895203,28.988187268895203 0 0,0 -0.43925549519219304,-0.23387881002568447 l 3.814646088480528 -7.0185191502609445" fill="#ff4a06" stroke="none" /><path d="M 89.97174638481275 118.45085714620012 l -3.6467323740862887 6.709576828291347 a28.636561937348063,28.636561937348063 0 0,0 -0.429897265808415,-0.23845676657152992 l 3.7613738280508064 -6.645987146286669" fill="#ff4506" stroke="none" /><line stroke="#e1ed5e" stroke-width="0.3" x1="58.13341422392154" x2="55.67067388415222" y1="173.97424548756322" y2="178.32567169271397" /><path d="M 57.64086615596768 174.84453072859336 a86.0,86.0 0 0,1 -31.369924170532247,-30.572349798747897" fill="none" id="id116" stroke="none" /><text fill="#e1ed5e" style="font-size:6.75px; font-family:Arial;" text-anchor="middle"><textPath startOffset="22.145653131862474" xlink:href="#id116">August</textPath></text><path d="M 89.65649057296885 118.27599006163327 l -4.280513422503958 7.563257066690209 a29.69054961536242,29.69054961536242 0 0,0 -0.44141015348955526,-0.25484827094023066 l 4.409716043853913 -7.488661898473807" fill="#ff5407" stroke="none" /><path d="M 89.34428304082925 118.09573695890944 l -3.1942814389456116 5.424588219954452 a27.295203830477696,27.295203830477696 0 0,0 -0.40171682890899496,-0.24121941349785822 l 3.2869310244120338 -5.368954805920675" fill="#ff3104" stroke="none" /><path d="M 89.03521579738668 117.91015095944536 l -4.832801277485403 7.894017687656297 a30.25588912210464,30.25588912210464 0 0,0 -0.4406350575667015,-0.2749888651495708 l 4.9676004638418165 -7.809893025665179" fill="#ff5c08" stroke="none" /><path d="M 88.72937992617639 117.7192867562869 l -4.245712189134688 6.67496475537017 a28.91082969595483,28.91082969595483 0 0,0 -0.4164733983998593,-0.26995302515394004 l 4.359671219791556 -6.601097888512335" fill="#ff4906" stroke="none" /><path d="M 88.1277618465304 117.32195027204791 l -8.199066997416644 11.962683781316725 a35.50277569570408,35.50277569570408 0 0,0 -0.4997521320288982,-0.3488658008626764 l 8.403214220619306 -11.820173164648919" fill="#ffa50f" stroke="none" /><path d="M 87.54013794807813 116.9041958592261 l -4.223743343552345 5.73031903892535 a28.1187473701539,28.1187473701539 0 0,0 -0.38609317903605367,-0.28973151943196784 l 4.3214895114991645 -5.656968492229367" fill="#ff3d05" stroke="none" /><path d="M 86.96720088162412 116.46651593811092 l -1.9355144176626564 2.4454592384492555 a24.118731624859187,24.118731624859187 0 0,0 -0.32244358684225716,-0.2597377289762253 l 1.9772087748601754 -2.4118732156796194" fill="#ff0200" stroke="none" /><path d="M 86.68645165197938 116.24036423190432 l -4.954050754195115 6.043136402732986 a28.814225262761354,28.814225262761354 0 0,0 -0.37983414733205356,-0.3168711549739774 l 5.057059235689061 -5.957203063847139" fill="#ff4806" stroke="none" /><path d="M 86.40962598614128 116.0094264158162 l -4.692822580052989 5.52813319936789 a28.251402653129162,28.251402653129162 0 0,0 -0.36702677948835916,-0.3170289905386475 l 4.787028839304211 -5.446760076364519" fill="#ff3f05" stroke="none" /><path d="M 86.13680546590413 115.77377054828092 l -5.511409215234529 6.270971971501684 a29.348695766713014,29.348695766713014 0 0,0 -0.3755724271255557,-0.33583918023018056 l 5.618246669183456 -6.1754372613881205" fill="#ff4f07" stroke="none" /><path d="M 85.60350026404147 115.28858382429668 l -4.92312279738427 5.228185805270258 a28.181299665976496,28.181299665976496 0 0,0 -0.34935084224420504,-0.3346702042341847 l 5.012146125493789 -5.1429034707304915" fill="#ff3e05" stroke="none" /><path d="M 85.34317274990678 115.03919595460226 l -5.650224722028665 5.797628322431569 a29.09552552799907,29.09552552799907 0 0,0 -0.3546995058682238,-0.35166790437659534 l 5.748916148026852 -5.699780407826315" fill="#ff4c07" stroke="none" /><path d="M 85.08716467003676 114.78537596483092 l -6.187865030945872 6.1349776134348515 a29.71364584766615,29.71364584766615 0 0,0 -0.3560164514858689,-0.36530424256205246 l 6.29226828358255 -6.027850678805062" fill="#ff5407" stroke="none" /><path d="M 84.83555147118756 114.52719865689866 l -8.551572667285013 8.192213170859231 a32.84237103457984,32.84237103457984 0 0,0 -0.38651430511742235,-0.41046479779510425 l 8.69094280613869 -8.044206913119638" fill="#ff810b" stroke="none" /><path d="M 84.58840730492382 114.26474011684316 l -6.099007308211655 5.645150111588534 a29.31057217813474,29.31057217813474 0 0,0 -0.33861010476454845,-0.37219182089586644 l 6.195015113818084 -5.539620715134993" fill="#ff4f07" stroke="none" /><path d="M 84.3458050057657 113.99807769240083 l -6.320278413229007 5.651631929880075 a29.478612073421484,29.478612073421484 0 0,0 -0.33407540587290324,-0.3801164865069576 l 6.416364883060502 -5.542303165561818" fill="#ff5107" stroke="none" /><path d="M 83.8745106332314 113.45245675266167 l -6.05126563571575 5.048181014034342 a28.880478877863396,28.880478877863396 0 0,0 -0.31432025283082116,-0.3834196006953866 l 6.137032707785201 -4.94355913164046" fill="#ff4806" stroke="none" /><path d="M 83.64595745247003 113.17365903436017 l -8.340668753580037 6.718652342921814 a31.710137466998038,31.710137466998038 0 0,0 -0.33783915430182,-0.42684873512591404 l 8.454774338523418 -6.57448366388122" fill="#ff710a" stroke="none" /><path d="M 83.4222238831116 112.89097897827486 l -12.325983393371938 9.584759239730069 a36.61401538033288,36.61401538033288 0 0,0 -0.38156689843358466,-0.49948331851154726 l 12.488702269159818 -9.37175500797765" fill="#ffb410" stroke="none" /><path d="M 83.20337586046588 112.60449989151573 l -3.6893849808871293 2.7685832703666975 a25.61265811242822,25.61265811242822 0 0,0 -0.26088075444467707,-0.3539348470038055 l 3.7363677549156367 -2.704842114094012" fill="#ff1902" stroke="none" /><path d="M 82.98947788004972 112.3143062007846 l -6.143530970934206 4.447442647357639 a28.584373335507905,28.584373335507905 0 0,0 -0.2843259051319233,-0.399939992676659 l 6.21897197459609 -4.341325427971476" fill="#ff4406" stroke="none" /><path d="M 82.78059297857968 112.02048342749411 l -7.010676151694883 4.893996430431405 a29.549899482743566,29.549899482743566 0 0,0 -0.28678918050755514,-0.41843398515901914 l 7.093655069017763 -4.772927710202334" fill="#ff5207" stroke="none" /><path d="M 82.37810715431573 111.42229804090323 l -6.012371524473303 3.897146582751623 a28.164939834761356,28.164939834761356 0 0,0 -0.25949607497369304,-0.40797093101106424 l 6.078385291072887 -3.793361977061887" fill="#ff3e05" stroke="none" /><path d="M 82.18462484594161 111.11811171558189 l -16.533761891007092 10.318290251730783 a40.489289263271786,40.489289263271786 0 0,0 -0.3629229207514084,-0.592807316331074 l 16.708452776213907 -10.032945819275152" fill="#ffe615" stroke="none" /><line stroke="#e1ed5e" stroke-width="0.3" x1="26.387840678322732" x2="22.057713659400548" y1="142.50000000000003" y2="145.00000000000006" /><path d="M 25.521815274538298 143.00000000000003 a86.0,86.0 0 0,1 -11.493303480769221,-40.785679425670985" fill="none" id="id117" stroke="none" /><text fill="#e1ed5e" style="font-size:6.75px; font-family:Arial;" text-anchor="middle"><textPath startOffset="21.40746469413373" xlink:href="#id117">September</textPath></text><path d="M 81.81346652052679 110.50000000000001 l -13.524377780015675 7.808303151914252 a36.61660630382849,36.61660630382849 0 0,0 -0.30961369360513386,-0.5470577299891437 l 13.656424838642186 -7.574988651825987" fill="#ffb410" stroke="none" /><path d="M 81.4637452351635 109.86951160357371 l -5.237318938802175 2.78857734174978 a26.93343688410488,26.93343688410488 0 0,0 -0.21378983825489373,-0.40997020410056556 l 5.284416846032018 -2.698260894544712" fill="#ff2c04" stroke="none" /><path d="M 81.29705330413844 109.54985784667822 l -7.47939507585428 3.8190324185310502 a29.3979973395152,29.3979973395152 0 0,0 -0.2256367505992469,-0.4514246492655429 l 7.543851739665264 -3.6900759131017544" fill="#ff5007" stroke="none" /><path d="M 81.1358732173502 109.22738970284198 l -4.280763144940779 2.0939357659672932 a25.765448572283653,25.765448572283653 0 0,0 -0.19093515361021468,-0.3989810359233877 l 4.316077556510906 -2.020142227978801" fill="#ff1b02" stroke="none" /><path d="M 80.9802524753101 108.90220220490708 l -8.051873151831876 3.7686831979668196 a29.890198777295613,29.890198777295613 0 0,0 -0.2135235316745119,-0.466587451570978 l 8.115381148361443 -3.6299067641811527" fill="#ff5708" stroke="none" /><path d="M 80.68587082218212 108.24405325689762 l -8.598002946778582 3.669976189121337 a30.34849613047632,30.34849613047632 0 0,0 -0.20040724145150193,-0.4809044237890281 l 8.659736032766569 -3.5218392558910274" fill="#ff5d08" stroke="none" /><path d="M 80.41425534168474 107.57618678355246 l -7.793698048325783 3.0147698327954977 a29.356468537199845,29.356468537199845 0 0,0 -0.17777342997613,-0.47156514376571895 l 7.84430216211635 -2.8805364088356336" fill="#ff4f07" stroke="none" /><path d="M 80.28708602549918 107.23885506374661 l -7.377333915410214 2.7090592004609557 a28.85901122604262,28.85901122604262 0 0,0 -0.16677736643297456,-0.4665059764120017 l 7.422751451887132 -2.5820182676680323" fill="#ff4806" stroke="none" /><path d="M 80.16572619554312 106.89939002012753 l -12.19501465633312 4.242059136861734 a33.91175620079669,33.91175620079669 0 0,0 -0.186538201013128,-0.5514670456291684 l 12.266038278918616 -4.032090416758404" fill="#ff8f0d" stroke="none" /><path d="M 79.94057633289273 106.21446072829308 l -7.602824351087781 2.3553744184295815 a28.959316978515545,28.959316978515545 0 0,0 -0.14303652034252384,-0.4761220561132441 l 7.642137191433935 -2.224514758725614" fill="#ff4a06" stroke="none" /><path d="M 79.73907114497094 105.5222062557868 l -17.63201536654909 4.8056841942425725 a39.27518991586725,39.27518991586725 0 0,0 -0.17170836084135727,-0.6520046142443823 l 17.71191320819518 -4.502299075625388" fill="#ffd714" stroke="none" /><path d="M 79.64726062577567 105.17358676015961 l -9.09787989832069 2.3126454931705225 a30.3872119301393,30.3872119301393 0 0,0 -0.12417151514280227,-0.5066621554160735 l 9.136238939979787 -2.1561275131463495" fill="#ff5e08" stroke="none" /><path d="M 79.56144815229197 104.8234425847677 l -7.626705087725952 1.7998816342620252 a28.83621109928125,28.83621109928125 0 0,0 -0.10956268759775754,-0.48275341722826937 l 7.656478636881376 -1.6686938830947295" fill="#ff4806" stroke="none" /><path d="M 79.48165901384964 104.47187691870673 l -10.021476119038885 2.1841340768413073 a31.256725855266197,31.256725855266197 0 0,0 -0.10975916746202527,-0.5252373495716877 l 10.057492997325276 -2.0117802759842105" fill="#ff6a09" stroke="none" /><path d="M 79.34024301695615 103.76489593502545 l -7.277966895049573 1.3262880101111891 a28.39782684382395,28.39782684382395 0 0,0 -0.08328025471432501,-0.4803383783257564 l 7.2996619672561325 -1.20115659886484" fill="#ff4206" stroke="none" /><path d="M 79.2786578344484 103.40968896794605 l -6.283472471199019 1.033943003994097 a27.367971767511555,27.367971767511555 0 0,0 -0.0723016303268363,-0.4642283323882876 l 6.300295593664123 -0.9259264896743595" fill="#ff3304" stroke="none" /><path d="M 79.17382384314188 102.69636545807758 l -8.344561967202829 1.080370610605073 a29.414209117959164,29.414209117959164 0 0,0 -0.06053432154286869,-0.5013110205530946 l 8.36187837500536 -0.936965913128579" fill="#ff5007" stroke="none" /><path d="M 79.13060592940153 102.33845913500099 l -6.938008617839752 0.7774183369300689 a27.98142842488654,27.98142842488654 0 0,0 -0.049390695555049866,-0.4778101758680072 l 6.950331705876468 -0.6582036387791302" fill="#ff3b05" stroke="none" /><path d="M 79.0935383218832 101.97986365728391 l -12.916076076470258 1.223165833235398 a33.97386433830575,33.97386433830575 0 0,0 -0.05000043188835458,-0.5810808099825718 l 12.935170131056353 -1.0012639758771644" fill="#ff900d" stroke="none" /><path d="M 79.03789590574601 101.26102812881392 l -16.23683441255504 0.9767676386426415 a37.26618783737084,37.26618783737084 0 0,0 -0.032933391108305066,-0.6388989892749768 l 16.251209393119918 -0.697896855990934" fill="#ffbc11" stroke="none" /><path d="M 79.01933749520258 100.90099992219065 l -8.583369097036515 0.36860680099092014 a29.591280232287748,29.591280232287748 0 0,0 -0.017438159763740062,-0.5076929948200415 l 8.588431943797104 -0.22120754160675876" fill="#ff5307" stroke="none" /><line stroke="#e1ed5e" stroke-width="0.3" x1="15.003131293944662" x2="10.003315487706104" y1="100.72959589197737" y2="100.7725132973878" /><path d="M 14.003168132696942 100.73817937305945 a86.0,86.0 0 0,1 10.791469493833604,-42.45332614584628" fill="none" id="id118" stroke="none" /><text fill="#e1ed5e" style="font-size:6.75px; font-family:Arial;" text-anchor="middle"><textPath startOffset="22.145653131862435" xlink:href="#id118">October</textPath></text><path d="M 79.00077361379809 100.18025310272382 l -25.920242715438263 0.22249410939644287 a46.92119762001645,46.92119762001645 0 0,0 0.0,-0.8054944242405113 l 25.920242715438263 0.22249410939643333" fill="#c8ff1d" stroke="none" /><path d="M 79.00077361379809 99.81974689727619 l -7.4463359080972795 -0.06391783805141629 a28.446610231927014,28.446610231927014 0 0,0 0.00838303777173177,-0.48826992325354296 l 7.444141438726882 0.19173467727401164" fill="#ff4206" stroke="none" /><path d="M 79.00696218219943 99.45929381324524 l -8.803037289765133 -0.2267350140613218 a29.805956750495476,29.805956750495476 0 0,0 0.01756466876884378,-0.5113761664702736 l 8.797847933999439 0.37781744509573395" fill="#ff5607" stroke="none" /><path d="M 79.03789590574601 98.7389718711861 l -23.041622366464036 -1.3861267841706593 a44.083277686250085,44.083277686250085 0 0,0 0.05192598422944574,-0.7549924145090837 l 23.01443242106953 1.781462622834068" fill="#eaff1a" stroke="none" /><path d="M 79.13060592940154 97.66154086499901 l -8.508348263226319 -0.953378169610693 a29.561595651666607,29.561595651666607 0 0,0 0.060837642423823404,-0.5038229525697205 l 8.490728534542827 1.0992947991038498" fill="#ff5207" stroke="none" /><path d="M 79.17382384314186 97.30363454192245 l -14.409630254894395 -1.8656151273440515 a35.52989896338384,35.52989896338384 0 0,0 0.08350454000392515,-0.6041972537283186 l 14.375481198335262 2.112700689272437" fill="#ffa50f" stroke="none" /><path d="M 79.2786578344484 96.59031103205396 l -12.42355937736353 -2.044291967826368 a33.590629740112156,33.590629740112156 0 0,0 0.09850881252836137,-0.5681726529653609 l 12.386635747342934 2.2572576537123217" fill="#ff8b0c" stroke="none" /><path d="M 79.34024301695615 96.23510406497455 l -8.039300421049957 -1.4650283399025745 a29.17169867877002,29.17169867877002 0 0,0 0.09400747666761923,-0.49188684170350055 l 8.012966652100179 1.6028177466393896" fill="#ff4d07" stroke="none" /><path d="M 79.407916724674 95.88100663000787 l -17.21239155573427 -3.4429603722868394 a38.55335862999016,38.55335862999016 0 0,0 0.13538156765641085,-0.647849809915106 l 17.150752277253492 3.7379266334873544" fill="#ffcd13" stroke="none" /><path d="M 79.56144815229197 95.17655741523228 l -8.268862171781816 -1.9514289575961261 a29.49600827403487,29.49600827403487 0 0,0 0.12052978228050792,-0.4918026425935275 l 8.23414486298501 2.0930874247977713" fill="#ff5107" stroke="none" /><path d="M 79.64726062577567 94.8264132398404 l -12.948133607625856 -3.29136492977588 a34.35991193915172,34.35991193915172 0 0,0 0.15021911212559175,-0.5704064366677434 l 12.889725014695538 3.5131518708164076" fill="#ff950d" stroke="none" /><path d="M 79.73907114497095 94.47779374421319 l -15.943334617151878 -4.345426746764631 a37.52491005500396,37.52491005500396 0 0,0 0.17472582333066503,-0.6200403069208819 l 15.86639030174663 4.618474977588526" fill="#ffc011" stroke="none" /><path d="M 79.94057633289273 93.78553927170692 l -8.675719197433155 -2.6877599843785362 a30.0825193270555,30.0825193270555 0 0,0 0.15705264555037543,-0.49196517530895506 l 8.628301836105523 2.836294193378883" fill="#ff5a08" stroke="none" /><path d="M 80.05021161711548 93.44210830539832 l -15.544136147486691 -5.10966629745382 a37.362422138636376,37.362422138636376 0 0,0 0.2055192591609485,-0.6075811713301826 l 15.454131466753378 5.375749143258164" fill="#ffbe11" stroke="none" /><path d="M 80.28708602549916 92.7611449362534 l -8.00391913573004 -2.9391499724720354 a29.526507144897487,29.526507144897487 0 0,0 0.17880312966498974,-0.47429654452610176 l 7.952285322250615 3.076114797192282" fill="#ff5207" stroke="none" /><path d="M 80.5471966667186 92.08871423366112 l -15.239533566048832 -6.197785631259359 a37.451623933270966,37.451623933270966 0 0,0 0.24731296760398852,-0.5934610911249564 l 15.130894753908366 6.45847923182558" fill="#ffbf11" stroke="none" /><path d="M 80.83023694016515 91.42560881287825 l -12.904459509886985 -5.772000600673963 a35.13651534772602,35.13651534772602 0 0,0 0.2510011025246658,-0.5484827075032327 l 12.803473942507273 5.992672290391867" fill="#ffa00e" stroke="none" /><path d="M 81.29705330413844 90.45014215332179 l -6.567199755882491 -3.353258988504466 a28.373768268507565,28.373768268507565 0 0,0 0.22522277253024292,-0.4318943630624357 l 6.508668914377308 3.4654995946713885" fill="#ff4106" stroke="none" /><path d="M 81.46374523516351 90.13048839642627 l -11.238735090914624 -5.983993411640593 a33.73253091864747,33.73253091864747 0 0,0 0.2765339079471015,-0.5087912439595017 l 11.134355833352172 6.176039489074714" fill="#ff8d0d" stroke="none" /><path d="M 81.63589988554816 89.8137432299009 l -3.9947761508940567 -2.215834991013371 a25.568168254689308,25.568168254689308 0 0,0 0.2161930285501256,-0.3819923662321784 l 3.956149757322562 2.2840841273446544" fill="#ff1802" stroke="none" /><line stroke="#e1ed5e" stroke-width="0.3" x1="26.387840678322718" x2="22.05771365940052" y1="57.49999999999999" y2="54.99999999999999" /><path d="M 25.521815274538284 56.99999999999999 a86.0,86.0 0 0,1 29.574782752854787,-30.34633250058573" fill="none" id="id119" stroke="none" /><text fill="#e1ed5e" style="font-size:6.75px; font-family:Arial;" text-anchor="middle"><textPath startOffset="21.40746469413373" xlink:href="#id119">November</textPath></text><path d="M 82.18462484594161 88.88188828441811 l -53.44612546217515 -33.35433514674566 a84.0,84.0 0 0,0 0.7739292334964403,-1.2167453012853122 l 52.865678537052815 34.266894122709644" fill="#4dd2ff" stroke="none" /><path d="M 82.78059297857968 87.97951657250589 l -7.8001951451414815 -5.445142004992193 a30.51276068009803,30.51276068009803 0 0,0 0.3035073813448006,-0.4269211411321479 l 7.7055726652667085 5.578240372833861" fill="#ff6008" stroke="none" /><path d="M 82.98947788004972 87.6856937992154 l -7.310355129476093 -5.292133355228724 a30.024852772681772,30.024852772681772 0 0,0 0.30582168430332435,-0.41490584951254883 l 7.218431425588951 5.416845514010137" fill="#ff5908" stroke="none" /><path d="M 83.42222388311158 87.10902102172516 l -2.635834922166844 -2.049641178181935 a24.338960121986084,24.338960121986084 0 0,0 0.25930678202688756,-0.3276256482067296 l 2.6002617094983944 2.0945867703033474" fill="#ff0600" stroke="none" /><path d="M 83.64595745247003 86.82634096563983 l -12.164243920024578 -9.79865384032497 a36.61993749117999,36.61993749117999 0 0,0 0.3985525329948445,-0.48616928651832375 l 11.994244567791105 10.006025408541786" fill="#ffb410" stroke="none" /><path d="M 84.10781606972428 86.27271002978789 l -7.57936077926984 -6.546871321296424 a31.015399838246474,31.015399838246474 0 0,0 0.3514915242096724,-0.3999328321414539 l 7.465858191101575 6.676016431249177" fill="#ff6709" stroke="none" /><path d="M 84.58840730492382 85.73525988315684 l -5.774186886033793 -5.344501178108043 a28.867968418698876,28.867968418698876 0 0,0 0.33974047555080833,-0.36079261169236504 l 5.681590576746713 5.442835249744919" fill="#ff4806" stroke="none" /><path d="M 84.83555147118756 85.47280134310135 l -5.498184133105801 -5.267136025558528 a28.613983889743455,28.613983889743455 0 0,0 0.34284076277703596,-0.35178482523196664 l 5.406956569177963 5.360743542858224" fill="#ff4506" stroke="none" /><path d="M 85.08716467003674 85.21462403516908 l -12.617283369318447 -12.509443988518951 a38.767442937113174,38.767442937113174 0 0,0 0.47260850608576416,-0.46856914141707395 l 12.400682943102707 12.724193140164699" fill="#ffd013" stroke="none" /><path d="M 85.86807049272753 84.46653392183569 l -6.3799330636843825 -7.012664036761632 a30.48055920236687,30.48055920236687 0 0,0 0.39005677426933694,-0.3487911727610666 l 6.2586112625916535 7.121150739406099" fill="#ff5f08" stroke="none" /><path d="M 86.13680546590413 84.22622945171909 l -4.63739295513106 -5.276501908455858 a28.02473386045603,28.02473386045603 0 0,0 0.36408202244368226,-0.31448537953958877 l 4.546131452924529 5.355331420460157" fill="#ff3c05" stroke="none" /><path d="M 86.40962598614128 83.9905735841838 l -5.447980070884427 -6.417706824750823 a29.418280569166555,29.418280569166555 0 0,0 0.38779690982720505,-0.3235139746528974 l 5.337008826895313 6.510282983315602" fill="#ff5007" stroke="none" /><path d="M 86.96720088162412 83.53348406188908 l -11.677174866114544 -14.753728980129116 a39.815656557051604,39.815656557051604 0 0,0 0.5395780906645429,-0.4195791869096536 l 11.422186830814757 14.952009218659576" fill="#ffde14" stroke="none" /><path d="M 87.54013794807813 83.09580414077388 l -3.918398740792753 -5.31606044215304 a27.604115937540058,27.604115937540058 0 0,0 0.3838536212190618,-0.27788041981543116 l 3.826564109199724 5.382541633341551" fill="#ff3605" stroke="none" /><path d="M 87.83215693770416 82.88440491214696 l -5.739653147776233 -8.073540948803421 a30.905840787574938,30.905840787574938 0 0,0 0.43504372610520053,-0.3036943080198788 l 5.600214330497267 8.170880072628426" fill="#ff6509" stroke="none" /><path d="M 88.4268655584334 82.4767994020092 l -4.920943447760415 -7.450935578590029 a29.929284708886534,29.929284708886534 0 0,0 0.4311446971765843,-0.2794627837674086 l 4.792313118326804 7.534312204061344" fill="#ff5808" stroke="none" /><path d="M 89.03521579738668 82.08984904055464 l -23.567365017892282 -38.49551960048618 a66.13674471201915,66.13674471201915 0 0,0 0.9733667323051641,-0.5844787556514551 l 22.903065529029686 38.89441235667356" fill="#36ff6f" stroke="none" /><line stroke="#e1ed5e" stroke-width="0.3" x1="56.869717070023135" x2="54.33264160355391" y1="26.7553504044142" y2="22.446841604673864" /><path d="M 56.362301976729285 25.89364864446614 a86.0,86.0 0 0,1 42.16139366436587,-11.88097634709845" fill="none" id="id120" stroke="none" /><text fill="#e1ed5e" style="font-size:6.75px; font-family:Arial;" text-anchor="middle"><textPath startOffset="22.145653131862474" xlink:href="#id120">December</textPath></text><path d="M 89.97174638481275 81.54914285379989 l -2.9708354858298938 -5.466002681752662 a27.221177444888824,27.221177444888824 0 0,0 0.41248014811534306,-0.21962244583468055 l 2.876566521927989 5.516195595309918" fill="#ff3004" stroke="none" /><path d="M 90.28995756902619 81.37971332152246 l -2.5996576313711417 -4.985186285861355 a26.622303985474847,26.622303985474847 0 0,0 0.4070331954762847,-0.20783404983653445 l 2.5136972141812746 5.029078287370724" fill="#ff2803" stroke="none" /><path d="M 90.61103034731259 81.2157712731953 l -3.3685859441655057 -6.739428414596343 a28.534405525235417,28.534405525235417 0 0,0 0.4400273701308444,-0.21523943678370833 l 3.2523983247726083 6.796261601477266" fill="#ff4306" stroke="none" /><path d="M 91.26138138417902 80.90454125486306 l -6.506834294957182 -14.218607231106853 a36.636741480708665,36.636741480708665 0 0,0 0.5741266944926101,-0.2567995678498088 l 6.261794197608952 14.328210549866506" fill="#ffb410" stroke="none" /><path d="M 91.5904679813234 80.7573450057729 l -4.462186466042492 -10.210355878932434 a32.142821690765,32.142821690765 0 0,0 0.5074967741766062,-0.21662019527242038 l 4.286254616695454 10.285450723864258" fill="#ff770a" stroke="none" /><path d="M 92.25597844496254 80.48000691201159 l -3.7350744274253 -9.414827488314158 a31.128660208197445,31.128660208197445 0 0,0 0.49839614254332987,-0.19279033470433737 l 3.572906022388441 9.477557711156535" fill="#ff6909" stroke="none" /><path d="M 92.592206182469 80.34994680014964 l -2.566512467827137 -6.8079792409356505 a28.27568330760231,28.27568330760231 0 0,0 0.4556570464611875,-0.1673235789682854 l 2.4492662697118224 6.851033668912658" fill="#ff4006" stroke="none" /><path d="M 93.61358852112211 79.99465700312896 l -3.2915558183977764 -10.310751719988428 a31.823397836949013,31.823397836949013 0 0,0 0.521842149476502,-0.1616680318491642 l 3.1140730360496582 10.365736339644233" fill="#ff720a" stroke="none" /><path d="M 93.95794788825049 79.88797359093562 l -1.0405446835114291 -3.4636348325922923 a24.616559067944355,24.616559067944355 0 0,0 0.4057512119516797,-0.11810826431761237 l 0.9809334591781252 3.4809867912124255" fill="#ff0a01" stroke="none" /><path d="M 94.6519064749342 79.69241777938228 l -3.2625933232943365 -12.388598264915888 a33.81100629001023,33.81100629001023 0 0,0 0.5625422204025249,-0.14299603262208205 l 3.049445809666434 12.442779529373235" fill="#ff8e0d" stroke="none" /><path d="M 95.00130118170881 79.60360301121753 l -1.7611932779160988 -7.186269582577458 a28.398937239607783,28.398937239607783 0 0,0 0.4744892354922268,-0.1119781676089596 l 1.637571888683966 7.215443893832649" fill="#ff4206" stroke="none" /><path d="M 95.35216902796891 79.52079915486377 l -2.0699432958112283 -9.120552091513925 a30.35249355529812,30.35249355529812 0 0,0 0.5091089990239045,-0.1109579367736227 l 1.9130718801682054 9.154741486421262" fill="#ff5e08" stroke="none" /><path d="M 96.05791012581881 79.37332000966035 l -2.412228669828498 -12.62179971135488 a33.85024027437233,33.85024027437233 0 0,0 0.5716906898224586,-0.10418108770451721 l 2.1952032464550006 12.661348972990758" fill="#ff8e0d" stroke="none" /><path d="M 97.12497278360702 79.19773525538626 l -1.5930673049477462 -11.526641433011582 a32.63620755071483,32.63620755071483 0 0,0 0.5556270480359847,-0.07193704540929598 l 1.3949624350209675 11.552290074621274" fill="#ff7e0b" stroke="none" /><path d="M 97.48249496171623 79.15144685158666 l -1.7747580189343775 -14.697542336817087 a35.80430737212324,35.80430737212324 0 0,0 0.6108284714038852,-0.06844460428707354 l 1.5221936459296932 14.72584270161113" fill="#ffa90f" stroke="none" /><path d="M 97.84075906011542 79.11130261209362 l -1.076451689463694 -10.413693617308702 a31.46918158190626,31.46918158190626 0 0,0 0.5378239528410659,-0.05093248750750476 l 0.8975281732376125 10.430637860321392" fill="#ff6d0a" stroke="none" /><path d="M 98.5590905019552 79.04949213459386 l -1.3204222126099812 -19.198649178508017 a40.24400283462306,40.24400283462306 0 0,0 0.6896205577540686,-0.04148586027557117 l 0.9906573027234289 19.218487016608282" fill="#ffe315" stroke="none" /><path d="M 98.9189461498227 79.02784411241856 l -0.8613329396135847 -16.709628921558682 a37.73181380272485,37.73181380272485 0 0,0 0.6471441589308524,-0.027791154674429663 l 0.5743630200819122 16.72195264465894" fill="#ffc312" stroke="none" /><path d="M 99.63950707515114 79.00309439819443 l -0.2014919189532157 -11.735894133182008 a32.73762369897158,32.73762369897158 0 0,0 0.5619848438020649,-0.004823963984008915 l 2.874888658508333e-15 11.737623698971582" fill="#ff7f0b" stroke="none" /></svg>