<?xml version="1.0" encoding="utf-8" ?>
<svg baseProfile="full" height="200mm" version="1.1" viewBox="0,0,200,200" width="200mm" xmlns="http://www.w3.org/2000/svg" xmlns:ev="http://www.w3.org/2001/xml-events" xmlns:xlink="http://www.w3.org/1999/xlink"><defs /><rect fill="#1a1a1a" height="200" width="200" x="0" y="0" /><rect fill="#1a1a1a" height="200" width="180" x="10" y="0" /><text alignment-baseline="middle" fill="#e1ed5e" style="dominant-baseline: central; font-size:9.0px; font-family:Arial;" text-anchor="middle" x="100.0" y="100.0">2026</text><line stroke="#e1ed5e" stroke-width="0.3" x1="100.0" x2="100.0" y1="15.0" y2="10.0" /><path d="M 100.0 14.0 a86.0,86.0 0 0,1 42.46469731375804,11.215312516191453" fill="none" id="id133" stroke="none" /><text fill="#e1ed5e" style="font-size:6.75px; font-family:Arial;" text-anchor="middle"><textPath startOffset="22.20632615414155" xlink:href="#id133">January</textPath></text><path d="M 100.0 79.0 l 0.0 -33.56578995267565 a54.56578995267565,54.56578995267565 0 0,0 0.9392603763798718,0.008084510594585313 l -0.5777798971073435 33.560816818689624" fill="#faff18" stroke="none" /><path d="M 100.36148047927253 79.00311137660856 l 0.5336097327921577 -30.995156779538135 a51.99974972697488,51.99974972697488 0 0,0 0.8948249775172223,0.023110689178434955 l -1.0670613455042477 30.98137929821734" fill="#ffd714" stroke="none" /><path d="M 100.72285384407766 79.0124445844662 l 1.3926514790864613 -40.434660936398146 a61.4586366945759,61.4586366945759 0 0,0 1.056969051004739,0.04551531072972395 l -2.0884613624805315 40.404697899144224" fill="#88ff25" stroke="none" /><path d="M 101.08401301168833 79.027996857942 l 2.163162368346058 -41.84991092964716 a62.90577903167091,62.90577903167091 0 0,0 1.0808948772350586,0.06520253079069031 l -2.883219294420728 41.80647512947617" fill="#72ff27" stroke="none" /><path d="M 101.80526077348638 79.07773832637324 l 2.2601082845345224 -26.193765263309665 a47.29109028030579,47.29109028030579 0 0,0 0.8104226240185158,0.07695939331490469 l -2.7106560356432823 26.15098032547958" fill="#ff7e0b" stroke="none" /><path d="M 102.16513564639614 79.11191278185805 l 3.1545108136092104 -30.433057215106967 a51.59610939206408,51.59610939206408 0 0,0 0.8826209744278097,0.09917275048748783 l -3.6778984915467454 30.374248511148878" fill="#ffcf13" stroke="none" /><path d="M 102.52436894288641 79.15227682838746 l 4.2226204593325845 -34.87288284187802 a56.127602839461225,56.127602839461225 0 0,0 0.9581389972432403,0.12439394061551846 l -4.82227418508367 34.79503057809836" fill="#dfff1b" stroke="none" /><path d="M 102.88285421437855 79.19881850522331 l 3.785831949146188 -27.31660071124673 a48.577693847834,48.577693847834 0 0,0 0.8272804847250232,0.1219196386914579 l -4.255481414299867 27.2473865883943" fill="#ff970d" stroke="none" /><path d="M 103.2404852339499 79.25152402106235 l 3.0970108922756574 -19.829825308774456 a41.07021295959228,41.07021295959228 0 0,0 0.6975497838258684,0.11510169116845065 l -3.437889882240401 19.77357735466638" fill="#ff0000" stroke="none" /><path d="M 103.59715602781102 79.31037775812273 l 4.562704989262236 -26.243132602287982 a47.63682198762287,47.63682198762287 0 0,0 0.8066612530452999,0.14741218794505842 l -5.0137613634104365 26.160704932992186" fill="#ff850c" stroke="none" /><path d="M 104.307194497241 79.44645832069477 l 6.078483155293688 -29.00597058231545 a50.63603021477975,50.63603021477975 0 0,0 0.8515467852538698,0.18611514488526923 l -6.576872664701086 28.89704193933431" fill="#ffbe11" stroke="none" /><path d="M 104.66035177308747 79.52364482259891 l 7.126037524165382 -31.30992733100696 a53.1106206771023,53.1106206771023 0 0,0 0.8896694440439528,0.21055601333830823 l -7.663930655171859 31.182625405527784" fill="#ffeb16" stroke="none" /><path d="M 105.01212808612495 79.60689891045804 l 9.64474301538278 -39.24205764809567 a61.409901710957406,61.409901710957406 0 0,0 1.024349653146412,0.2611295346834672 l -10.318801557214217 39.07022511724333" fill="#89ff24" stroke="none" /><path d="M 105.36241919743992 79.69619591428918 l 12.195013843759337 -46.17415438621997 a68.75741718238078,68.75741718238078 0 0,0 1.1417074525248605,0.3120717750239213 l -12.988019185507909 45.957396070369754" fill="#32ff46" stroke="none" /><path d="M 105.71112130821622 79.79150937346287 l 7.688885527906691 -27.206701229701277 a49.27231070258464,49.27231070258464 0 0,0 0.8141892290079784,0.23768416248612736 l -8.156064974638097 27.070318738296447" fill="#ffa40f" stroke="none" /><path d="M 106.0581310904928 79.89281104454417 l 9.436195268819082 -31.31912440595435 a53.70977429923553,53.70977429923553 0 0,0 0.8829237960239065,0.27432872127744123 l -9.973904437553706 31.15205554979439" fill="#fff517" stroke="none" /><path d="M 106.74666289553966 80.11325718540242 l 12.885217406319343 -37.98100018292856 a61.1071714597743,61.1071714597743 0 0,0 0.9931893952386707,0.34650427821378843 l -13.537088805621288 37.75357505154256" fill="#8dff24" stroke="none" /><path d="M 107.08798089147638 80.2323363322302 l 14.10574639161337 -39.33950369245287 a62.79196851110302,62.79196851110302 0 0,0 1.014292643737999,0.3735725406564462 l -14.780821361123946 39.0908678839901" fill="#73ff27" stroke="none" /><path d="M 107.4271985657038 80.35727306442388 l 14.957646547216784 -39.55851780812067 a63.291932107753915,63.291932107753915 0 0,0 1.0157355542862465,0.39408961466442793 l -15.636365266502699 39.2951854895657" fill="#6cff28" stroke="none" /><path d="M 107.76421540070413 80.48803036053334 l 22.794487132445827 -57.28400333086595 a82.65262104113579,82.65262104113579 0 0,0 1.317388832536495,0.5373959824552917 l -23.777159834570707 56.883146462227074" fill="#4be4ff" stroke="none" /><path d="M 108.09893153111575 80.62456947434976 l 11.897535324830228 -28.46299764692048 a51.84953130688024,51.84953130688024 0 0,0 0.8204972097255164,0.3512940852024274 l -12.385716292346059 28.253984033755263" fill="#ffd413" stroke="none" /><path d="M 108.43124777332544 80.76684994638697 l 13.047179446968844 -29.76289712109755 a53.49706042955952,53.49706042955952 0 0,0 0.8402041494824743,0.37697511050968435 l -13.557565714918098 29.533901680071335" fill="#fff116" stroke="none" /><path d="M 109.08828744355905 81.06846463323043 l 12.228990490581483 -25.473838433269144 a49.257116854750635,49.257116854750635 0 0,0 0.7612071296948252,0.37352103265498254 l -12.665668887286738 25.25956224047933" fill="#ffa40f" stroke="none" /><path d="M 109.41281617654863 81.2277094730956 l 17.66907582598055 -35.238022131313926 a60.419721514379326,60.419721514379326 0 0,0 0.9256862733361705,0.47417246305270655 l -18.273022586905473 34.92865714294872" fill="#98ff23" stroke="none" /><path d="M 109.73455568895987 81.39251694778311 l 17.667580708689673 -33.77136246531084 a59.11362395340371,59.11362395340371 0 0,0 0.8975558007240692,0.4794432244209587 l -18.246281555942055 33.46224051438812" fill="#adff20" stroke="none" /><path d="M 110.05341064243156 81.56283822128135 l 27.816144007208244 -51.0126130684933 a79.1035675282126,79.1035675282126 0 0,0 1.1898529262202828,0.6621518652151577 l -28.69012102250056 50.52624580571796" fill="#44ffe9" stroke="none" /><path d="M 110.36928655335952 81.73862282372117 l 16.022189748839516 -28.216719509855952 a53.44832544594102,53.44832544594102 0 0,0 0.7961338497022329,0.46117211263181623 l -16.505520331007077 27.936743239834087" fill="#fff116" stroke="none" /><line stroke="#e1ed5e" stroke-width="0.3" x1="143.23703022742887" x2="145.7803849466894" y1="26.81831364943548" y2="22.513508569990506" /><path d="M 143.74570117128098 25.957352633546492 a86.0,86.0 0 0,1 28.547481713284135,27.462654790039103" fill="none" id="id134" stroke="none" /><text fill="#e1ed5e" style="font-size:6.75px; font-family:Arial;" text-anchor="middle"><textPath startOffset="19.985693538727396" xlink:href="#id134">February</textPath></text><path d="M 110.68208982089419 81.91981866633111 l 16.532060288425207 -27.981663967028222 a53.50050054605023,53.50050054605023 0 0,0 0.7888468783524357,0.4752714177393768 l -17.011269232995282 27.69294593983023" fill="#fff116" stroke="none" /><path d="M 111.2981086023043 82.29822771554956 l 16.277944302818497 -25.50413289961573 a51.25611121223153,51.25611121223153 0 0,0 0.7396329441606775,0.4810778411109387 l -16.714544272763455 25.220156134345263" fill="#ffc912" stroke="none" /><path d="M 111.60114157652 82.49532879139004 l 17.617095772280027 -26.581993428000175 a52.88987986894794,52.88987986894794 0 0,0 0.7545504629589881,0.5094758408305973 l -18.072050929645556 26.27480567487091" fill="#ffe715" stroke="none" /><path d="M 111.90073688211348 82.69761687909136 l 15.014553640038136 -21.829535602944706 a47.49463050600655,47.49463050600655 0 0,0 0.6696038633242346,0.46910029782248236 l -15.388088642946022 21.567850462358287" fill="#ff820c" stroke="none" /><path d="M 112.77801427241765 83.33499621200491 l 19.236795785796573 -25.088504974610018 a52.61467054969057,52.61467054969057 0 0,0 0.7139746775082711,0.5572685606738843 l -19.665803018464274 24.75365802471291" fill="#ffe215" stroke="none" /><path d="M 113.34407831869373 83.78471172551755 l 17.702641941354063 -21.51167247698677 a48.85921004732435,48.85921004732435 0 0,0 0.6448077054641577,0.5400079096493454 l -18.070307183777338 21.20376340994361" fill="#ff9c0e" stroke="none" /><path d="M 113.6212207817346 84.01681056812373 l 18.592817609651124 -21.816879022023684 a49.66477065890062,49.66477065890062 0 0,0 0.6458931836062853,0.5601122040862498 l -18.965604591904174 21.493601824517764" fill="#ffab0f" stroke="none" /><path d="M 113.89432698308785 84.25364557470407 l 33.57437412554213 -38.04962955253414 a71.74458500182017,71.74458500182017 0 0,0 0.9189764316654835,0.8250661139702365 l -34.22436154480361 37.466064429794606" fill="#37ff78" stroke="none" /><path d="M 114.16331599549186 84.49514656593476 l 27.01831694407579 -29.577469314838137 a61.060156534401166,61.060156534401166 0 0,0 0.7699165745029523,0.7155535474609857 l -27.52344140237359 29.108011181302512" fill="#8eff24" stroke="none" /><path d="M 114.42810811169701 84.74124197986012 l 18.231571704374613 -19.281193265965975 a47.535911903895155,47.535911903895155 0 0,0 0.589709599101362,0.5673001671092072 l -18.560764547088393 18.964510012094465" fill="#ff830c" stroke="none" /><path d="M 114.68862486808459 84.99185889309783 l 44.06587460425377 -45.02442332070654 a84.0,84.0 0 0,0 1.0246567993307099,1.0202565973995252 l -44.8343672037518 44.25923087265689" fill="#4dd2ff" stroke="none" /><line stroke="#e1ed5e" stroke-width="0.3" x1="172.23445277983987" x2="176.4835382374775" y1="55.19839476539836" y2="52.563006222186495" /><path d="M 173.08426987136738 54.67131705675599 a86.0,86.0 0 0,1 12.851231095245387,41.99856678651699" fill="none" id="id135" stroke="none" /><text fill="#e1ed5e" style="font-size:6.75px; font-family:Arial;" text-anchor="middle"><textPath startOffset="22.20632615414155" xlink:href="#id135">March</textPath></text><line stroke="#e1ed5e" stroke-width="0.3" x1="184.98032266829074" x2="189.97916517819016" y1="98.17113171792111" y2="98.06355123074" /><path d="M 185.9800911702706 98.14961562048488 a86.0,86.0 0 0,1 -9.607161424134198,41.387399972396054" fill="none" id="id136" stroke="none" /><text fill="#e1ed5e" style="font-size:6.75px; font-family:Arial;" text-anchor="middle"><textPath startOffset="21.466115282336823" xlink:href="#id136">April</textPath></text><line stroke="#e1ed5e" stroke-width="0.3" x1="174.80103733775053" x2="179.2010983576182" y1="140.37084112569926" y2="142.7455964860345" /><path d="M 175.68104954172406 140.8457921977663 a86.0,86.0 0 0,1 -30.038265399797805,32.042727171017184" fill="none" id="id137" stroke="none" /><text fill="#e1ed5e" style="font-size:6.75px; font-family:Arial;" text-anchor="middle"><textPath startOffset="22.206326154141568" xlink:href="#id137">May</textPath></text><line stroke="#e1ed5e" stroke-width="0.3" x1="143.8653032363475" x2="146.44561519142675" y1="172.8068346515853" y2="177.08958963109032" /><path d="M 144.38136562736335 173.6633856474863 a86.0,86.0 0 0,1 -40.68145358897372,12.25698825130547" fill="none" id="id138" stroke="none" /><text fill="#e1ed5e" style="font-size:6.75px; font-family:Arial;" text-anchor="middle"><textPath startOffset="21.466115282336833" xlink:href="#id138">June</textPath></text><line stroke="#e1ed5e" stroke-width="0.3" x1="102.19456741930631" x2="102.32365962044197" y1="184.97166512339345" y2="189.96999836594603" /><path d="M 102.22038585953345 185.97133177190398 a86.0,86.0 0 0,1 -42.740103519485714,-10.115201625700543" fill="none" id="id139" stroke="none" /><text fill="#e1ed5e" style="font-size:6.75px; font-family:Arial;" text-anchor="middle"><textPath startOffset="22.20632615414155" xlink:href="#id139">July</textPath></text><line stroke="#e1ed5e" stroke-width="0.3" x1="58.666819895761336" x2="56.23545636021788" y1="174.27360380694188" y2="178.64263932499728" /><path d="M 58.180547188652646 175.14741091055294 a86.0,86.0 0 0,1 -31.652253787137756,-30.449443065178592" fill="none" id="id140" stroke="none" /><text fill="#e1ed5e" style="font-size:6.75px; font-family:Arial;" text-anchor="middle"><textPath startOffset="22.20632615414155" xlink:href="#id140">August</textPath></text><line stroke="#e1ed5e" stroke-width="0.3" x1="26.63291911575756" x2="22.317208475507996" y1="142.92168965132927" y2="145.44649492493687" /><path d="M 25.769776987707644 143.4266507060508 a86.0,86.0 0 0,1 -11.730757126820373,-40.83630448921669" fill="none" id="id141" stroke="none" /><text fill="#e1ed5e" style="font-size:6.75px; font-family:Arial;" text-anchor="middle"><textPath startOffset="21.46611528233685" xlink:href="#id141">September</textPath></text><line stroke="#e1ed5e" stroke-width="0.3" x1="15.007084014347285" x2="10.007500721073583" y1="101.09737516637583" y2="101.16192664675087" /><path d="M 14.007167355692545 101.11028546245083 a86.0,86.0 0 0,1 10.666146001902534,-42.60595125391555" fill="none" id="id142" stroke="none" /><text fill="#e1ed5e" style="font-size:6.75px; font-family:Arial;" text-anchor="middle"><textPath startOffset="22.20632615414155" xlink:href="#id142">October</textPath></text><line stroke="#e1ed5e" stroke-width="0.3" x1="26.266209847984243" x2="21.928928074336255" y1="57.711370442889674" y2="55.22380399835377" /><path d="M 25.398753493254645 57.213857153982495 a86.0,86.0 0 0,1 29.58750427330803,-30.492523968695096" fill="none" id="id143" stroke="none" /><text fill="#e1ed5e" style="font-size:6.75px; font-family:Arial;" text-anchor="middle"><textPath startOffset="21.46611528233685" xlink:href="#id143">November</textPath></text><line stroke="#e1ed5e" stroke-width="0.3" x1="56.762969772571076" x2="54.21961505331055" y1="26.818313649435495" y2="22.513508569990535" /><path d="M 56.25429882871897 25.957352633546506 a86.0,86.0 0 0,1 42.265352541879196,-11.944610805530505" fill="none" id="id144" stroke="none" /><text fill="#e1ed5e" style="font-size:6.75px; font-family:Arial;" text-anchor="middle"><textPath startOffset="22.20632615414155" xlink:href="#id144">December</textPath></text></svg>