<?xml version="1.0" encoding="utf-8" ?>
<svg baseProfile="full" height="200mm" version="1.1" viewBox="0,0,200,200" width="200mm" xmlns="http://www.w3.org/2000/svg" xmlns:ev="http://www.w3.org/2001/xml-events" xmlns:xlink="http://www.w3.org/1999/xlink"><defs /><rect fill="#1a1a1a" height="200" width="200" x="0" y="0" /><text alignment-baseline="middle" fill="#e1ed5e" style="dominant-baseline: central; font-size:9.0px; font-family:Arial;" text-anchor="middle" x="100.0" y="100.0">2023</text><line stroke="#e1ed5e" stroke-width="0.3" x1="100.0" x2="100.0" y1="15.0" y2="10.0" /><path d="M 100.0 14.0 a86.0,86.0 0 0,1 42.46469731375804,11.215312516191453" fill="none" id="id97" stroke="none" /><text fill="#e1ed5e" style="font-size:6.75px; font-family:Arial;" text-anchor="middle"><textPath startOffset="22.20632615414155" xlink:href="#id97">January</textPath></text><path d="M 101.44485096284872 79.0497635885617 l 0.5293234400457311 -7.6751523113564 a28.69338328089153,28.69338328089153 0 0,0 0.49244651594380395,0.038223327343277914 l -0.6613601453518761 7.664903721824658" fill="#ff3b05" stroke="none" /><path d="M 102.52436894288641 79.15227682838746 l 0.9202571370648542 -7.6000245900236845 a28.655537013644665,28.655537013644665 0 0,0 0.48917085552808914,0.0635084163451033 l -1.0509427211007896 7.583057850514444" fill="#ff3b05" stroke="none" /><path d="M 103.2404852339499 79.25152402106235 l 2.2969239172115534 -14.706955064140262 a35.88524056708857,35.88524056708857 0 0,0 0.6094865352838534,0.10057050060398787 l -2.549739658634282 14.665238300596648" fill="#ffa20e" stroke="none" /><path d="M 104.66035177308747 79.52364482259891 l 3.6366747763146106 -15.978588743995205 a37.387211528457584,37.387211528457584 0 0,0 0.6262826393444307,0.1482208663522922 l -3.9111811026215646 15.913621965502044" fill="#ffb610" stroke="none" /><path d="M 106.0581310904928 79.89281104454417 l 2.1599445807744555 -7.168945863040415 a28.487265547529432,28.487265547529432 0 0,0 0.46829622659434145,0.14550191715208693 l -2.2830261800795153 7.130703811005807" fill="#ff3805" stroke="none" /><path d="M 109.73455568895987 81.39251694778311 l 2.7947957327629305 -5.342217548847465 a27.02911034291824,27.02911034291824 0 0,0 0.4103983676558257,0.21922059500621163 l -2.8863391469470674 5.293318227339499" fill="#ff2303" stroke="none" /><line stroke="#e1ed5e" stroke-width="0.3" x1="143.23703022742887" x2="145.7803849466894" y1="26.81831364943548" y2="22.513508569990506" /><path d="M 143.74570117128098 25.957352633546492 a86.0,86.0 0 0,1 28.547481713284135,27.462654790039103" fill="none" id="id98" stroke="none" /><text fill="#e1ed5e" style="font-size:6.75px; font-family:Arial;" text-anchor="middle"><textPath startOffset="19.985693538727396" xlink:href="#id98">February</textPath></text><path d="M 110.99172775467656 82.1063720568725 l 3.929767303991257 -6.397337671574813 a28.507929165067353,28.507929165067353 0 0,0 0.4159182619859435,0.26044797749918314 l -4.039304718349464 6.328745352752685" fill="#ff3905" stroke="none" /><path d="M 111.60114157652 82.49532879139004 l 13.49836507136069 -20.367344098806523 a45.434290766030415,45.434290766030415 0 0,0 0.6481857250700436,0.43765789500602303 l -13.846955490837274 20.13197429150183" fill="#e0ff1b" stroke="none" /><path d="M 112.48926042617603 83.11751280151076 l 4.424201822280098 -5.980460658153292 a28.439050439940964,28.439050439940964 0 0,0 0.39104215228534783,0.294524841947314 l -4.526490128323829 5.90341922670013" fill="#ff3805" stroke="none" /><path d="M 113.06298171725822 83.55741782278167 l 4.6447136646696645 -5.846374723167668 a28.46682411942741,28.46682411942741 0 0,0 0.38104416731587704,0.3081112167904887 l -4.744661230550033 5.7655574091130495" fill="#ff3805" stroke="none" /><path d="M 114.16331599549186 84.49514656593476 l 5.126813505520239 -5.612420990407834 a28.60154498072301,28.60154498072301 0 0,0 0.36064112486583444,0.33517662147313415 l -5.22266251418092 5.523339782860059" fill="#ff3a05" stroke="none" /><path d="M 114.68862486808459 84.99185889309783 l 10.4042078416639 -10.630526737224233 a35.87466434994013,35.87466434994013 0 0,0 0.4376097470222997,0.4357305116966663 l -10.585653388853524 10.449860374877447" fill="#ffa10e" stroke="none" /><path d="M 115.68641384162765 86.03803664274999 l 9.09893530626107 -8.098664399563212 a33.181091443884526,33.181091443884526 0 0,0 0.37606522566723627,0.42990756238516425 l -9.236992395506155 7.9408412809751" fill="#ff7c0b" stroke="none" /><path d="M 116.15771136456269 86.58626213691792 l 5.8593406778672845 -4.864281712308737 a28.61532072574829,28.61532072574829 0 0,0 0.3113639969309845,0.3816954441439764 l -5.942203166874678 4.76270209855666" fill="#ff3a05" stroke="none" /><path d="M 116.60985879189232 87.15038557335679 l 5.871231372476607 -4.542065064560406 a28.423052800556768,28.423052800556768 0 0,0 0.29603835713153126,0.38955177675892677 l -5.948545669832252 4.440328511920446" fill="#ff3705" stroke="none" /><path d="M 117.04232023915458 87.72973835380427 l 7.354644663569354 -5.295253995372047 a30.06258864800079,30.06258864800079 0 0,0 0.2987468031840388,0.422556166681719 l -7.444704086557276 5.167871328358535" fill="#ff4f07" stroke="none" /><path d="M 117.65298651832404 88.62581576622439 l 6.309871490963848 -4.065580674135413 a28.506225712725517,28.506225712725517 0 0,0 0.26221981632773966,0.41476877720538385 l -6.378918903537543 3.956364249215823" fill="#ff3905" stroke="none" /><line stroke="#e1ed5e" stroke-width="0.3" x1="172.23445277983987" x2="176.4835382374775" y1="55.19839476539836" y2="52.563006222186495" /><path d="M 173.08426987136738 54.67131705675599 a86.0,86.0 0 0,1 12.851231095245387,41.99856678651699" fill="none" id="id99" stroke="none" /><text fill="#e1ed5e" style="font-size:6.75px; font-family:Arial;" text-anchor="middle"><textPath startOffset="22.20632615414155" xlink:href="#id99">March</textPath></text><path d="M 118.03404312379186 89.2402003453031 l 13.477424805386722 -8.04114694479629 a36.69398048847583,36.69398048847583 0 0,0 0.31895862587361123,0.5452036835756633 l -13.61384310573066 7.8079638488667324" fill="#ffad10" stroke="none" /><path d="M 118.73160827565052 90.50648371742162 l 7.392707692674612 -3.7467573429869634 a29.287962211337423,29.287962211337423 0 0,0 0.224038946202396,0.45164884450222464 l -7.4561066518304155 3.618948909985789" fill="#ff4406" stroke="none" /><path d="M 119.04729006885535 91.15688171328212 l 7.098653530217763 -3.2957041456929708 a28.826400689845297,28.826400689845297 0 0,0 0.2050760701594792,0.4518579367331929 l -7.154331917340589 3.173024200117715" fill="#ff3d05" stroke="none" /><path d="M 119.34039704204932 91.81776055985345 l 7.255569132690577 -3.0695752413529642 a28.878170828408038,28.878170828408038 0 0,0 0.18974101412933164,0.4594729158364156 l -7.3073318337061055 2.9442277550632454" fill="#ff3e05" stroke="none" /><path d="M 119.61058180528143 92.48833698450437 l 15.642163173134367 -5.991594729654429 a37.75041719299504,37.75041719299504 0 0,0 0.22721331025447278,0.6088187081313087 l -15.742981071890465 5.721452884493788" fill="#ffbb11" stroke="none" /><path d="M 119.97218684219823 93.5106431181261 l 10.997944564770734 -3.5734488071716504 a32.563923254123,32.563923254123 0 0,0 0.16862609908946982,0.5345908153505602 l -11.05782614762841 3.383607825394671" fill="#ff730a" stroke="none" /><path d="M 120.37134235888165 94.90015583598534 l 11.75687701676258 -2.9432641003568207 a33.11969309643315,33.11969309643315 0 0,0 0.1336887447621766,0.554226156047363 l -11.805798561785577 2.7404527126500513" fill="#ff7b0b" stroke="none" /><path d="M 120.53481517161879 95.60439243477599 l 15.290857139050836 -3.2731050539021265 a36.63724811917818,36.63724811917818 0 0,0 0.12669632162627023,0.617816259532488 l -15.344932756592103 3.009413138206227" fill="#ffac0f" stroke="none" /><path d="M 120.67395015179393 96.31383870115 l 15.159906778384455 -2.703008435753891 a36.39899438707163,36.39899438707163 0 0,0 0.10466988159862413,0.6177675662173513 l -15.204188521503301 2.4416550812207016" fill="#ffa90f" stroke="none" /><path d="M 120.73433829027371 96.67025291283417 l 7.7540834219727275 -1.2452356244262717 a28.853433737878774,28.853433737878774 0 0,0 0.07452993972950457,0.4910591823073389 l -7.774369255141532 1.1115773297268507" fill="#ff3e05" stroke="none" /><path d="M 120.83666639777658 97.38593545837742 l 11.555111236565521 -1.4496467900082959 a32.6456889665311,32.6456889665311 0 0,0 0.06515091907342621,0.5581732876253456 l -11.578352508642537 1.2505297640580975" fill="#ff740a" stroke="none" /><path d="M 120.87857604477298 97.74499172005257 l 7.901982591961057 -0.853460319068727 a28.947938311277994,28.947938311277994 0 0,0 0.04924302676439911,0.49587055934405866 l -7.915502744407686 0.7173142290202335" fill="#ff3f05" stroke="none" /><path d="M 120.94382443527127 98.46500227214037 l 12.60240727158793 -0.9236453727558492 a33.6362094717358,33.6362094717358 0 0,0 0.03735126313012191,0.577807508562614 l -12.616439125722467 0.7065787999402001" fill="#ff820c" stroke="none" /><line stroke="#e1ed5e" stroke-width="0.3" x1="184.98032266829074" x2="189.97916517819016" y1="98.17113171792111" y2="98.06355123074" /><path d="M 185.9800911702706 98.14961562048488 a86.0,86.0 0 0,1 -9.607161424134198,41.387399972396054" fill="none" id="id100" stroke="none" /><text fill="#e1ed5e" style="font-size:6.75px; font-family:Arial;" text-anchor="middle"><textPath startOffset="21.466115282336823" xlink:href="#id100">April</textPath></text><path d="M 120.99513854157772 99.54816195383933 l 9.234128546262976 -0.1987284147745553 a30.236266723722718,30.236266723722718 0 0,0 0.006719640075546098,0.5204435291542251 l -9.236181193456238 0.03974862755986748" fill="#ff5207" stroke="none" /><path d="M 120.99824983174949 100.27111621757518 l 7.705183675405488 0.09948449373334997 a28.705825889301458,28.705825889301458 0 0,0 -0.010632005444860803,0.4940275153594919 l -7.70232960727562 -0.23210182488295675" fill="#ff3b05" stroke="none" /><path d="M 120.9764740272857 100.99374915477107 l 12.015193959899507 0.5692133399793093 a33.0286694908629,33.0286694908629 0 0,0 -0.03179190170190805,0.5676657614791293 l -12.00361570731007 -0.775950817793862" fill="#ff7a0b" stroke="none" /><path d="M 120.89721153311464 102.0752229133903 l 16.330880229973157 1.6217578501021064 a37.411207987533885,37.411207987533885 0 0,0 -0.06915319010197761,0.6402726549263213 l -16.300544738370128 -1.9026268269132192" fill="#ffb610" stroke="none" /><path d="M 120.64145759157962 103.86396538481128 l 8.0272139600557 1.502649545969175 a29.166646779340617,29.166646779340617 0 0,0 -0.09662502720542177,0.4926889320204294 l -8.000158999874614 -1.6406022050575495" fill="#ff4206" stroke="none" /><path d="M 120.41448212921028 104.9243191809786 l 30.67043352950787 7.39822853023445 a52.550107420950816,52.550107420950816 0 0,0 -0.21968118400660197,0.8775171290097029 l -30.538541031206208 -7.925073498641549" fill="#8cff24" stroke="none" /><path d="M 120.23288151984713 105.62410040840565 l 7.6138622396143365 2.1164126172218576 a28.902537603210813,28.902537603210813 0 0,0 -0.13736600311794417,0.4781890775801578 l -7.576303599610292 -2.247159170306597" fill="#ff3e05" stroke="none" /><path d="M 120.02730092923936 106.31721596034902 l 7.435495299004182 2.3453799262281976 a28.796627305435823,28.796627305435823 0 0,0 -0.1531812578387768,0.4714434354542045 l -7.394021790149158 -2.4730222616601973" fill="#ff3d05" stroke="none" /><path d="M 119.67450827220406 107.3425965602758 l 7.528430986407032 2.8096372575248787 a29.035629075309878,29.035629075309878 0 0,0 -0.17878442547803167,0.4667497189523319 l -7.478952281335493 -2.9388105433103546" fill="#ff4006" stroke="none" /><path d="M 119.41010516605496 108.01547362559984 l 7.629955256213763 3.1508178135810865 a29.25493004853487,29.25493004853487 0 0,0 -0.19621562822017974,0.4637957839529371 l -7.574588646801274 -3.281688123200187" fill="#ff4406" stroke="none" /><path d="M 118.97047184881838 109.00673069616215 l 7.291414350578751 3.4617908280381235 a29.071475637633718,29.071475637633718 0 0,0 -0.21851608356215022,0.4502078544640439 l -7.230745010401887 -3.5867876384674426" fill="#ff4106" stroke="none" /><line stroke="#e1ed5e" stroke-width="0.3" x1="174.80103733775053" x2="179.2010983576182" y1="140.37084112569926" y2="142.7455964860345" /><path d="M 175.68104954172406 140.8457921977663 a86.0,86.0 0 0,1 -30.038265399797805,32.042727171017184" fill="none" id="id101" stroke="none" /><text fill="#e1ed5e" style="font-size:6.75px; font-family:Arial;" text-anchor="middle"><textPath startOffset="22.206326154141568" xlink:href="#id101">May</textPath></text><path d="M 117.94076556474637 110.91462005526583 l 7.663088342213226 4.661991563478559 a29.969787526943406,29.969787526943406 0 0,0 -0.27191925073908346,0.43842041316572766 l -7.581704451806179 -4.793208308009561" fill="#ff4e07" stroke="none" /><path d="M 117.75023020441432 111.22182372390056 l 6.988301954087818 4.418054963515938 a29.267742972671286,29.267742972671286 0 0,0 -0.27288008257045476,0.4235159480212138 l -6.911217008140313 -4.537692511458605" fill="#ff4406" stroke="none" /><path d="M 117.14729908036423 112.12312394758627 l 6.736291695685206 4.762551745971713 a29.249819691509366,29.249819691509366 0 0,0 -0.29419776134365666,0.40861495924298136 l -6.6533141419659465 -4.877800310665826" fill="#ff4306" stroke="none" /><path d="M 116.27256486870786 113.27417163493432 l 9.092984340451613 7.41750521708071 a32.73463880403303,32.73463880403303 0 0,0 -0.35993138294720295,0.4335605374185017 l -8.963956957610867 -7.572927011612982" fill="#ff760a" stroke="none" /><path d="M 115.80600337817218 113.82643327865902 l 6.8769662092714485 6.0156835461261275 a30.136799919588583,30.136799919588583 0 0,0 -0.34491015050437074,0.3875102104590617 l -6.772397209118739 -6.133167926326056" fill="#ff5007" stroke="none" /><path d="M 115.07121518719521 114.62390073753431 l 5.518759051689315 5.35496199635201 a28.68975418677197,28.68975418677197 0 0,0 -0.3469539066944257,0.3514624757097674 l -5.425764519939354 -5.449164966042442" fill="#ff3b05" stroke="none" /><path d="M 114.55890576462653 115.13401014063108 l 10.656060150363961 11.07699472625303 a36.37047266981768,36.37047266981768 0 0,0 -0.454915231268076,0.43015074554103827 l -10.463809084705076 -11.25878010853999" fill="#ffa80f" stroke="none" /><path d="M 114.0293411484842 115.62618273729858 l 6.131080304077844 6.828929469643966 a30.177386523211446,30.177386523211446 0 0,0 -0.3895148279242926,0.34370154753071364 l -6.012623123246963 -6.933454158946968" fill="#ff5107" stroke="none" /><path d="M 113.20401910651253 116.32954008644616 l 11.405690583424253 14.105529543180165 a39.13989364297214,39.13989364297214 0 0,0 -0.5275358872134783,0.41910641379765695 l -11.161197203493423 -14.299769870982947" fill="#ffcd13" stroke="none" /><path d="M 112.63410532772338 116.77436683061366 l 14.31113524631439 19.000968106339215 a44.787504724464526,44.787504724464526 0 0,0 -0.6198058100180452,0.458517520787165 l -13.981944465877781 -19.24449557586615" fill="#e8ff1a" stroke="none" /><path d="M 112.04921762599082 117.19931262002967 l 5.2262091765314915 7.460003481963954 a30.108507798085057,30.108507798085057 0 0,0 -0.42702913152085076,0.293714530519553 l -5.097023160387757 -7.548858801848601" fill="#ff5007" stroke="none" /><path d="M 111.1453310114006 117.79835938074945 l 12.024643227224482 19.2025630611164 a43.656797497841296,43.656797497841296 0 0,0 -0.6403429377942028,0.39335093275855126 l -11.692321089497971 -19.40670246070333" fill="#f6ff19" stroke="none" /><line stroke="#e1ed5e" stroke-width="0.3" x1="143.8653032363475" x2="146.44561519142675" y1="172.8068346515853" y2="177.08958963109032" /><path d="M 144.38136562736335 173.6633856474863 a86.0,86.0 0 0,1 -40.68145358897372,12.25698825130547" fill="none" id="id102" stroke="none" /><text fill="#e1ed5e" style="font-size:6.75px; font-family:Arial;" text-anchor="middle"><textPath startOffset="21.466115282336833" xlink:href="#id102">June</textPath></text><path d="M 109.89434966115114 118.52300852407294 l 17.688445201743647 33.1141745006185 a58.5423713490837,58.5423713490837 0 0,0 -0.892935910989702,0.4671418658723867 l -17.11581838822745 -33.41374578543561" fill="#4aff2c" stroke="none" /><path d="M 109.57404056367764 118.69057910512821 l 1.8584742379277974 3.6281400238280783 a25.07643551715767,25.07643551715767 0 0,0 -0.38587391174355884,0.1934851899592247 l -1.7957464185014782 -3.659593054696605" fill="#ff0500" stroke="none" /><path d="M 108.92500713936063 119.00905698771935 l 5.469617833277798 11.649545537648956 a33.869678724656154,33.869678724656154 0 0,0 -0.5298701635297561,0.243237403586146 l -5.268279673980622 -11.741970011569178" fill="#ff860c" stroke="none" /><path d="M 107.59598834532513 119.57807347666477 l 13.543510891617235 34.90735363374791 a58.44262310499744,58.44262310499744 0 0,0 -0.9410091070801546,0.35580912534916986 l -12.940631563776805 -35.13531100920371" fill="#4cff2c" stroke="none" /><path d="M 106.57524785965236 119.94407469862006 l 3.3084339731711836 10.035158476880143 a31.56646303220395,31.56646303220395 0 0,0 -0.5175075920458919,0.16568958862197375 l -3.135205036034351 -10.090620912161823" fill="#ff6509" stroke="none" /><path d="M 105.18746579009965 120.34920634021253 l 4.610711409510571 18.08673476485718 a39.66517168836344,39.66517168836344 0 0,0 -0.6630632491093602,0.16296481438237914 l -4.298694875657999 -18.163420837553588" fill="#ffd413" stroke="none" /><path d="M 104.48393922423573 120.51570834832081 l 3.201841469935649 14.649628928892291 a35.995446527290795,35.995446527290795 0 0,0 -0.6064522062389394,0.12708795624172406 l -2.9491978022673315 -14.702572865860557" fill="#ffa30f" stroke="none" /><path d="M 104.13013068566511 120.58985236759428 l 2.052350252898045 10.23153791729485 a31.43534904608432,31.43534904608432 0 0,0 -0.5314555694572578,0.10185472476139938 l -1.8759270688690826 -10.265349840404717" fill="#ff6309" stroke="none" /><path d="M 103.06178313531738 120.77559828337769 l 2.1797435484077208 14.790556457163598 a35.95031244654669,35.95031244654669 0 0,0 -0.6129894773813618,0.08495475599221797 l -1.9248254798395286 -14.825885778648418" fill="#ffa20f" stroke="none" /><path d="M 102.34483914955558 120.86867818915974 l 0.8282470088615052 7.3712605371420725 a28.41764619095007,28.41764619095007 0 0,0 -0.4865742500695525,0.050435410501786695 l -0.70124016218635 -7.384425316099618" fill="#ff3705" stroke="none" /><path d="M 101.62511606390274 120.93702456842531 l 0.9342064353603009 12.035757644378528 a33.07195939928911,33.07195939928911 0 0,0 -0.5679514349233776,0.03916925620716779 l -0.7268922396579929 -12.050055245101982" fill="#ff7a0b" stroke="none" /><path d="M 100.90346689309514 120.98055641714683 l 0.3220105466482089 7.477817386007502 a28.48474740058933,28.48474740058933 0 0,0 -0.4900456915962512,0.016878164461301626 l -0.19324450337730534 -7.482252348894898" fill="#ff3805" stroke="none" /><line stroke="#e1ed5e" stroke-width="0.3" x1="102.19456741930631" x2="102.32365962044197" y1="184.97166512339345" y2="189.96999836594603" /><path d="M 102.22038585953345 185.97133177190398 a86.0,86.0 0 0,1 -42.740103519485714,-10.115201625700543" fill="none" id="id103" stroke="none" /><text fill="#e1ed5e" style="font-size:6.75px; font-family:Arial;" text-anchor="middle"><textPath startOffset="22.20632615414155" xlink:href="#id103">July</textPath></text><path d="M 99.81925306533755 120.99922214144158 l -0.13157480912872405 15.2863928247071 a36.28695906718056,36.28695906718056 0 0,0 -0.6245509399092289,-0.01075221082217783 l 0.39468543893062086 -15.281863136605763" fill="#ffa70f" stroke="none" /><path d="M 99.09653310690486 120.98055641714683 l -0.5674741656076987 13.178040986114944 a34.19025364276053,34.19025364276053 0 0,0 -0.5877661670955108,-0.030380797134440102 l 0.7942284011166983 -13.166320382218302" fill="#ff8a0c" stroke="none" /><path d="M 98.01472825383883 120.90594882070398 l -3.343600586410708 35.209861255287855 a56.36826253151357,56.36826253151357 0 0,0 -0.9651518948719314,-0.1000419401714757 l 3.9491850778882327 -35.14708994666062" fill="#62ff29" stroke="none" /><path d="M 96.93821686468263 120.77559828337769 l -1.2177350022823439 8.262888684440957 a29.35213792673744,29.35213792673744 0 0,0 -0.4992157616117556,-0.07796723507307753 l 1.3597866275026167 -8.240703142020775" fill="#ff4506" stroke="none" /><path d="M 96.22490169976321 120.6578951692458 l -1.3652655780993461 7.470934780370349 a28.59465710821037,28.59465710821037 0 0,0 -0.48342996779201736,-0.0926505039003583 l 1.4936631604630584 -7.446327078121523" fill="#ff3a05" stroke="none" /><path d="M 95.16358092515715 120.4354850818985 l -4.3196922424702855 18.252141721664703 a39.7563434202243,39.7563434202243 0 0,0 -0.6645873222995531,-0.16333939449201176 l 4.633232849513049 -18.17508106885866" fill="#ffd614" stroke="none" /><path d="M 94.81253420990036 120.34920634021253 l -3.718798352073202 14.587969938694549 a36.05451188566531,36.05451188566531 0 0,0 -0.6000664992288943,-0.15848301636589254 l 3.9693552941135857 -14.521795573025074" fill="#ffa40f" stroke="none" /><path d="M 94.11515582081647 120.15858648285463 l -3.6931029221810956 12.650757161967821 a34.178796074183055,34.178796074183055 0 0,0 -0.563339841179916,-0.16972967300032646 l 3.910317737801257 -12.58531211986177" fill="#ff8a0c" stroke="none" /><path d="M 93.42475214034765 119.94407469862007 l -2.8539554272264875 8.656631877926909 a30.114951291725912,30.114951291725912 0 0,0 -0.4909171103942366,-0.16654573774902662 l 3.00254227055795 -8.606223153279759" fill="#ff5007" stroke="none" /><path d="M 92.7421414339146 119.70592522655815 l -12.905535332074503 35.04002068198639 a58.341075126480455,58.341075126480455 0 0,0 -0.9393740406249802,-0.35519088312290004 l 13.506779593459767 -34.812681548756856" fill="#4dff2c" stroke="none" /><path d="M 92.40401165467489 119.57807347666478 l -2.784409747860996 7.176601141879584 a28.697827069609364,28.697827069609364 0 0,0 -0.45899977505129663,-0.1826454831686807 l 2.9075305989541507 -7.127608814304836" fill="#ff3b05" stroke="none" /><path d="M 91.7346041902142 119.30500536409082 l -3.3632719931974044 7.855399228758166 a29.54510945180929,29.54510945180929 0 0,0 -0.46579880497467385,-0.20419250753584015 l 3.4979914728298214 -7.796342167927874" fill="#ff4806" stroke="none" /><path d="M 91.07499286063937 119.00905698771935 l -3.5623623721249835 7.587349599305978 a29.38202240586486,29.38202240586486 0 0,0 -0.4559632805049718,-0.21889008348531414 l 3.6924383206301976 -7.524905239321102" fill="#ff4506" stroke="none" /><path d="M 90.42595943632237 118.69057910512821 l -8.593788822115572 16.776917616360965 a39.849885172734645,39.849885172734645 0 0,0 -0.6078228930524485,-0.3179842101610219 l 8.881302617694516 -16.626503987255226" fill="#ffd714" stroke="none" /><line stroke="#e1ed5e" stroke-width="0.3" x1="58.666819895761336" x2="56.23545636021788" y1="174.27360380694188" y2="178.64263932499728" /><path d="M 58.180547188652646 175.14741091055294 a86.0,86.0 0 0,1 -31.652253787137756,-30.449443065178592" fill="none" id="id104" stroke="none" /><text fill="#e1ed5e" style="font-size:6.75px; font-family:Arial;" text-anchor="middle"><textPath startOffset="22.20632615414155" xlink:href="#id104">August</textPath></text><path d="M 89.7882731507175 118.34994917583269 l -4.218628900848257 7.580659673412987 a29.675438368588765,29.675438368588765 0 0,0 -0.4442147925390284,-0.25223675249759864 l 4.348492460308493 -7.506919755120756" fill="#ff4a06" stroke="none" /><path d="M 89.4739219176387 118.17145234162733 l -4.348136074274013 7.506304516302451 a29.67472736239391,29.67472736239391 0 0,0 -0.4397965987452466,-0.2598395825805109 l 4.476700544047642 -7.43034636142819" fill="#ff4a06" stroke="none" /><path d="M 88.54995079064634 117.60387380957326 l -2.8435383788970507 4.371797001002392 a26.215200813989235,26.215200813989235 0 0,0 -0.3761572991841764,-0.24929654666867287 l 2.918370376821189 -4.322202433242401" fill="#ff1602" stroke="none" /><path d="M 88.24862548938628 117.40417183066458 l -10.47682515218576 15.51652234585679 a39.72234843653288,39.72234843653288 0 0,0 -0.5633822861158103,-0.38749947358440645 l 10.74236432292446 -15.333882082907284" fill="#ffd513" stroke="none" /><path d="M 87.65650970185807 116.9893568818739 l -9.494905358959516 13.068616072656738 a37.15369783765006,37.15369783765006 0 0,0 -0.5141629998165902,-0.38036549536302877 l 9.71845332919467 -12.903240628553943" fill="#ffb310" stroke="none" /><path d="M 87.36589467227662 116.77436683061367 l -5.537110162204873 7.351649731661708 a30.203604876646658,30.203604876646658 0 0,0 -0.412597454049712,-0.31636213370730254 l 5.662836344748071 -7.255248256127039" fill="#ff5107" stroke="none" /><path d="M 86.79598089348748 116.32954008644616 l -11.376683281733504 14.0696559283408 a39.093759709766516,39.093759709766516 0 0,0 -0.5196302915472358,-0.4276203536932312 l 11.617183701825429 -13.87174045579039" fill="#ffcd13" stroke="none" /><path d="M 86.24171649860922 115.8653595955263 l -12.246704946828016 14.122283337314299 a39.6927972415593,39.6927972415593 0 0,0 -0.512335058421569,-0.45207612088122445 l 12.487982358156174 -13.909384074660785" fill="#ffd513" stroke="none" /><path d="M 85.44109423537348 115.13401014063109 l -7.4510779977248065 7.745409703123605 a31.747554828770124,31.747554828770124 0 0,0 -0.39057058580784976,-0.38225552242450483 l 7.583298535908451 -7.61600407777653" fill="#ff6809" stroke="none" /><path d="M 84.67929136418377 114.36230785411682 l -21.369802647010477 20.032995319849544 a50.29145552302394,50.29145552302394 0 0,0 -0.5866225084517975,-0.6366628735719012 l 21.711471563458005 -19.662181191476297" fill="#a6ff21" stroke="none" /><path d="M 84.43433777217949 114.09645910891817 l -19.74395471528538 17.880373235576922 a47.63703239557243,47.63703239557243 0 0,0 -0.5451971031091073,-0.6125347249378951 l 20.048810668042826 -17.537864340898164" fill="#c5ff1e" stroke="none" /><path d="M 83.95833913139862 113.55231037782056 l -11.50499414878642 9.719645171189624 a36.0610886929677,36.0610886929677 0 0,0 -0.3965071251142956,-0.47761837505577137 l 11.67059727379425 -9.520165539020093" fill="#ffa40f" stroke="none" /><path d="M 83.72743513129214 113.27417163493432 l -6.989168914190257 5.701340169853385 a30.01963202372842,30.01963202372842 0 0,0 -0.32318576606044197,-0.40322393524364425 l 7.086272592305559 -5.580188401031481" fill="#ff4f07" stroke="none" /><path d="M 82.85270091963577 112.12312394758628 l -18.346596347889886 12.971025961546271 a43.46875857824624,43.46875857824624 0 0,0 -0.42669573619561385,-0.614687032461594 l 18.567152991247635 -12.653297666897664" fill="#f9ff18" stroke="none" /><path d="M 82.44556493220864 111.52570212397912 l -13.90856497543824 9.131935961473193 a37.63852259308003,37.63852259308003 0 0,0 -0.3509256987332504,-0.5446444774716944 l 14.063695537548538 -8.891169884080051" fill="#ffb911" stroke="none" /><path d="M 82.24976979558568 111.22182372390057 l -9.424451146904573 5.958206076604809 a32.14991027191167,32.14991027191167 0 0,0 -0.2916997494429322,-0.4703128753242306 l 9.525615536015462 -5.795096869915315" fill="#ff6d0a" stroke="none" /><line stroke="#e1ed5e" stroke-width="0.3" x1="26.63291911575756" x2="22.317208475507996" y1="142.92168965132927" y2="145.44649492493687" /><path d="M 25.769776987707644 143.4266507060508 a86.0,86.0 0 0,1 -11.730757126820373,-40.83630448921669" fill="none" id="id105" stroke="none" /><text fill="#e1ed5e" style="font-size:6.75px; font-family:Arial;" text-anchor="middle"><textPath startOffset="21.46611528233685" xlink:href="#id105">September</textPath></text><path d="M 81.18737489456691 109.33194174019688 l -13.978199633210814 6.933840645784866 a36.60346791860813,36.60346791860813 0 0,0 -0.27513039083618596,-0.5668500960524645 l 14.09548328066172 -6.692201593767116" fill="#ffab0f" stroke="none" /><path d="M 81.02952815118164 109.00673069616217 l -17.658943682099075 8.384048187671597 a40.548159912911146,40.548159912911146 0 0,0 -0.2939266275801371,-0.6330918068672698 l 17.80064492651904 -8.078836313525501" fill="#ffe015" stroke="none" /><path d="M 80.45479744820244 107.68017299344265 l -35.214700273699165 13.837410448804395 a58.83581693706572,58.83581693706572 0 0,0 -0.3622765568929382,-0.9457897725748536 l 35.44767111018562 -13.229197109396383" fill="#47ff2c" stroke="none" /><path d="M 80.0844068197444 106.66101706037122 l -12.619748621899717 4.220831391123617 a34.30689569028909,34.30689569028909 0 0,0 -0.18249267105631103,-0.5616546893651497 l 12.690533543972277 -4.002977801780664" fill="#ff8c0c" stroke="none" /><path d="M 79.86692584326677 105.97154293290107 l -9.24749274225723 2.7428399409939086 a30.64568779092562,30.64568779092562 0 0,0 -0.14565072805828574,-0.5070292919512942 l 9.293336107201618 -2.5832531735380186" fill="#ff5808" stroke="none" /><path d="M 79.58551787078972 104.9243191809786 l -13.903026338161895 3.353645653969364 a35.301785921066326,35.301785921066326 0 0,0 -0.13740704775374557,-0.591945965446585 l 13.958693951846197 -3.113831031174205" fill="#ff9a0e" stroke="none" /><path d="M 79.4281124754447 104.21870165774334 l -12.768584896929546 2.6184690251400604 a34.03430628402276,34.03430628402276 0 0,0 -0.11275090330029333,-0.5749144268105675 l 12.811765733205506 -2.3982908712615383" fill="#ff880c" stroke="none" /><path d="M 79.18660465613746 102.79330883721812 l -49.43785853962208 6.634919717343828 a70.8810987914188,70.8810987914188 0 0,0 -0.15188297469232873,-1.2106567472896257 l 49.54474302356125 -5.7829452157667935" fill="#3cffa4" stroke="none" /><path d="M 79.10278846688536 102.07522291339032 l -7.7126234489233445 0.765911417329258 a28.750560029060967,28.750560029060967 0 0,0 -0.04466660134325213,-0.49289222381493447 l 7.724664646543672 -0.6330378049657575" fill="#ff3c05" stroke="none" /><path d="M 79.0235259727143 100.99374915477108 l -3.7415472752579393 0.17725378619338578 a24.745743573405687,24.745743573405687 0 0,0 -0.016494649097084896,-0.4256536008700619 l 3.7440440572062252 -0.11282293830932714" fill="#ff0000" stroke="none" /><line stroke="#e1ed5e" stroke-width="0.3" x1="15.007084014347285" x2="10.007500721073583" y1="101.09737516637583" y2="101.16192664675087" /><path d="M 14.007167355692545 101.11028546245083 a86.0,86.0 0 0,1 10.666146001902534,-42.60595125391555" fill="none" id="id106" stroke="none" /><text fill="#e1ed5e" style="font-size:6.75px; font-family:Arial;" text-anchor="middle"><textPath startOffset="22.20632615414155" xlink:href="#id106">October</textPath></text><path d="M 79.12142395522702 97.74499172005258 l -8.163607410475477 -0.8817173290642631 a29.211084666518932,29.211084666518932 0 0,0 0.05829648794076596,-0.49944870761124954 l 8.147220569531122 1.0221097750003745" fill="#ff4306" stroke="none" /><path d="M 79.26566170972629 96.67025291283419 l -12.614343525125353 -2.025749412461263 a33.775966626911604,33.775966626911604 0 0,0 0.09712703571210779,-0.5732492628191239 l 12.577604627893022 2.242584463596215" fill="#ff840c" stroke="none" /><path d="M 79.3925641242962 95.95851677861259 l -11.01662881034903 -2.160556061502637 a32.22649156414897,32.22649156414897 0 0,0 0.11144335750371363,-0.5434373894909477 l 10.97780615693032 2.3498691071569873" fill="#ff6e0a" stroke="none" /><path d="M 79.54389044137918 95.25157060432595 l -21.87651123130189 -5.078143950481999 a43.458167548468744,43.458167548468744 0 0,0 0.1754203413752394,-0.727230565788203 l 21.785858089665833 5.4539597479295985" fill="#f9ff18" stroke="none" /><path d="M 79.71946130924805 94.55025226153421 l -7.513206499760354 -2.0189345438524593 a28.779740908308064,28.779740908308064 0 0,0 0.13267903140936768,-0.4773170689950073 l 7.477340697784626 2.147962916266409" fill="#ff3d05" stroke="none" /><path d="M 79.81627453868168 94.20196356495316 l -10.297021800390693 -2.95795281627049 a31.713456156675292,31.713456156675292 0 0,0 0.15523601310060242,-0.5233786642193189 l 10.244579890178384 3.134760867236348" fill="#ff6709" stroke="none" /><path d="M 80.02781315780177 93.51064311812611 l -7.2768333830592224 -2.364386492361073 a28.651315414362724,28.651315414362724 0 0,0 0.15643987440044582,-0.46773531241427685 l 7.235056214887004 2.489294907697672" fill="#ff3b05" stroke="none" /><path d="M 80.2630227832202 92.82701384747504 l -14.733515765720803 -5.354584109043536 a36.6763534598951,36.6763534598951 0 0,0 0.22074870418205694,-0.5914967778571586 l 14.639162473037118 5.607404023930036" fill="#ffac10" stroke="none" /><path d="M 80.52162464483688 92.15188598940014 l -4.975217807414587 -2.0045858993987595 a26.363875171858826,26.363875171858826 0 0,0 0.1732210963502801,-0.41946862458631484 l 4.939975024178108 2.0899290944383857" fill="#ff1902" stroke="none" /><path d="M 80.95270993114464 91.15688171328213 l -7.017773270069546 -3.258153727498796 a28.73722866290747,28.73722866290747 0 0,0 0.2121653255180839,-0.4468742844449868 l 6.9606497507097105 3.3784704275843147" fill="#ff3c05" stroke="none" /><path d="M 81.26839172434947 90.50648371742162 l -56.19482482695157 -28.480548847735136 a84.0,84.0 0 0,0 0.6647622673595439,-1.284109110958658 l 55.69625312643191 29.44363068095413" fill="#4dd2ff" stroke="none" /><line stroke="#e1ed5e" stroke-width="0.3" x1="26.266209847984243" x2="21.928928074336255" y1="57.711370442889674" y2="55.22380399835377" /><path d="M 25.398753493254645 57.213857153982495 a86.0,86.0 0 0,1 29.58750427330803,-30.492523968695096" fill="none" id="id107" stroke="none" /><text fill="#e1ed5e" style="font-size:6.75px; font-family:Arial;" text-anchor="middle"><textPath startOffset="21.46611528233685" xlink:href="#id107">November</textPath></text><path d="M 81.96595687620814 89.24020034530311 l -6.4056883522874895 -3.821878590836307 a28.459195615461798,28.459195615461798 0 0,0 0.25462063093463977,-0.41852936926945383 l 6.338951923066633 3.931575733312835" fill="#ff3805" stroke="none" /><path d="M 82.34701348167596 88.62581576622439 l -9.743776660679963 -6.278116779633647 a32.59120071053595,32.59120071053595 0 0,0 0.30791447041407966,-0.4689748632381995 l 9.634265554907962 6.444909706849513" fill="#ff740a" stroke="none" /><path d="M 82.7489923806493 88.02491185347247 l -6.300890704838324 -4.373873298127659 a28.67020151641351,28.67020151641351 0 0,0 0.2849099640073911,-0.40298493894250986 l 6.2246681210270545 4.481684737401955" fill="#ff3b05" stroke="none" /><path d="M 83.17141714833178 87.43820079747576 l -8.156830333866022 -6.088716185209046 a31.178720247629535,31.178720247629535 0 0,0 0.3247398224370624,-0.42731954075306045 l 8.050814571204851 6.228220501843133" fill="#ff5f08" stroke="none" /><path d="M 83.6137871275137 86.86637796730984 l -5.8332668208635265 -4.675389135807638 a28.475711696863073,28.475711696863073 0 0,0 0.30984490771100565,-0.3798332203794117 l 5.751923421076128 4.775106525795132" fill="#ff3805" stroke="none" /><path d="M 84.07557802195018 86.31012108654704 l -14.253259593515653 -12.253216991247875 a39.79618939239418,39.79618939239418 0 0,0 0.4510388987612824,-0.5156154312415193 l 14.040228831176526 12.496747978692337" fill="#ffd614" stroke="none" /><path d="M 84.31358615837235 86.03803664274999 l -5.69744968666008 -5.071113420699451 a28.627393018431732,28.627393018431732 0 0,0 0.3307913794526807,-0.3652681031917978 l 5.609314666591354 5.168434311160804" fill="#ff3a05" stroke="none" /><path d="M 84.5562425177563 85.77008943001954 l -5.552614209554682 -5.116190390998465 a28.55029328417735,28.55029328417735 0 0,0 0.3361221651036225,-0.3585516902923229 l 5.463724722480603 5.211011498168839" fill="#ff3905" stroke="none" /><path d="M 85.31137513191541 84.99185889309783 l -5.56070214905996 -5.681662051828872 a28.950012079346315,28.950012079346315 0 0,0 0.359141106871064,-0.3454934602628338 l 5.462077798576469 5.776538598854019" fill="#ff3f05" stroke="none" /><path d="M 85.83668400450813 84.49514656593479 l -15.162002975545498 -16.598135209121942 a43.48075680778439,43.48075680778439 0 0,0 0.5569450396336032,-0.5000307556448504 l 14.874046948315923 16.856664973536073" fill="#f8ff18" stroke="none" /><path d="M 86.37877921826538 84.01681056812374 l -9.911346069307841 -11.63000910777806 a36.28044151039441,36.28044151039441 0 0,0 0.4788024247810305,-0.40098326113352517 l 9.7096861075677 11.798893526305397" fill="#ffa70f" stroke="none" /><path d="M 86.65592168130627 83.78471172551755 l -7.4827350712058855 -9.092775339245836 a32.775817912818276,32.775817912818276 0 0,0 0.4387224297410469,-0.35474969375069343 l 7.325109242900338 9.220231130260663" fill="#ff760a" stroke="none" /><path d="M 87.22198572758235 83.33499621200491 l -5.653853950730283 -7.373719851688979 a30.291814082695616,30.291814082695616 0 0,0 0.41651799171495846,-0.31371271603615397 l 5.526089805256935 7.469949157230988" fill="#ff5307" stroke="none" /><path d="M 88.09926311788651 82.69761687909137 l -4.37622278576334 -6.3625541856598185 a28.722267907557438,28.722267907557438 0 0,0 0.4097646014810435,-0.2766748880697717 l 4.266053489875757 6.436940986028255" fill="#ff3c05" stroke="none" /><path d="M 88.70189139769569 82.29822771554957 l -5.8188429411475555 -9.116909416339613 a31.815589234040125,31.815589234040125 0 0,0 0.46417558082389415,-0.2906667061283742 l 5.661048207951419 9.215720463790918" fill="#ff6909" stroke="none" /><line stroke="#e1ed5e" stroke-width="0.3" x1="56.762969772571076" x2="54.21961505331055" y1="26.818313649435495" y2="22.513508569990535" /><path d="M 56.25429882871897 25.957352633546506 a86.0,86.0 0 0,1 42.265352541879196,-11.944610805530505" fill="none" id="id108" stroke="none" /><text fill="#e1ed5e" style="font-size:6.75px; font-family:Arial;" text-anchor="middle"><textPath startOffset="22.20632615414155" xlink:href="#id108">December</textPath></text><path d="M 89.3179101791058 81.91981866633112 l -4.153344776183459 -7.02982543245056 a29.16509145328937,29.16509145328937 0 0,0 0.4344255192636514,-0.2516473009845286 l 4.031722524454488 7.1002768908251355" fill="#ff4206" stroke="none" /><path d="M 89.94658935756843 81.56283822128135 l -8.974226027738327 -16.45802235649854 a39.745752390446796,39.745752390446796 0 0,0 0.6034823823406386,-0.322359388727954 l 8.689598598869383 16.610060471728243" fill="#ffd513" stroke="none" /><path d="M 90.91171255644093 81.06846463323043 l -4.253332049834154 -8.859986727765344 a30.828031254647314,30.828031254647314 0 0,0 0.48036207282177473,-0.22553643414200614 l 4.100191765712771 8.931888144547358" fill="#ff5a08" stroke="none" /><path d="M 91.56875222667455 80.76684994638697 l -3.033403815546026 -6.91972437842232 a28.555403641202854,28.555403641202854 0 0,0 0.4518773539440705,-0.19347030044207222 l 2.9138427038116474 6.970914206827178" fill="#ff3905" stroke="none" /><path d="M 91.90106846888425 80.62456947434976 l -12.613083128078406 -30.174834164657593 a53.7048999824247,53.7048999824247 0 0,0 0.8559950622028689,-0.3491818786285667 l 12.091804196287157 30.387476929469734" fill="#7fff26" stroke="none" /><path d="M 92.23578459929587 80.48803036053334 l -4.16834408969677 -10.475315164187435 a32.274188229720366,32.274188229720366 0 0,0 0.5179497509230979,-0.2009564565259821 l 3.987411173773996 10.54551432460397" fill="#ff6f0a" stroke="none" /><path d="M 92.57280143429618 80.3572730644239 l -5.372747370859545 -14.209315742136456 a36.19115098242411,36.19115098242411 0 0,0 0.5846037173272236,-0.21531448276533685 l 5.127361327759751 14.299693492708116" fill="#ffa60f" stroke="none" /><path d="M 93.25333710446033 80.11325718540243 l -3.6066597640814297 -10.631139610586292 a32.22626937471308,32.22626937471308 0 0,0 0.5268491357801128,-0.17369387674011813 l 3.4231278060589077 10.691647211585643" fill="#ff6e0a" stroke="none" /><path d="M 94.28887869178378 79.79150937346287 l -1.2718311387256687 -4.500304976625199 a25.676569183500845,25.676569183500845 0 0,0 0.42635589865618406,-0.11653917279011405 l 1.1941773508457623 4.521530690241609" fill="#ff0e01" stroke="none" /><path d="M 94.63758080256005 79.69619591428918 l -4.814515027511468 -18.22926673337499 a39.85432896145248,39.85432896145248 0 0,0 0.6647912944105144,-0.1694701031408671 l 4.500014844415953 18.30943983268472" fill="#ffd714" stroke="none" /><path d="M 95.33964822691252 79.52364482259891 l -1.8168088210679245 -7.982578251807821 a29.186717891716157,29.186717891716157 0 0,0 0.4908334181684842,-0.10727717410115745 l 1.6791326787459193 8.012668924004847" fill="#ff4306" stroke="none" /><path d="M 95.692805502759 79.44645832069477 l -2.529902147845352 -12.07246370546097 a33.33469840723092,33.33469840723092 0 0,0 0.5626160402764278,-0.11285548486254406 l 2.321719698101788 12.114223146400725" fill="#ff7e0b" stroke="none" /><path d="M 96.40284397218896 79.31037775812273 l -3.1900658286998658 -18.348177396876757 a39.62342969967395,39.62342969967395 0 0,0 0.6729771488801315,-0.11104699585594215 l 2.8737594736808485 18.400370655672326" fill="#ffd413" stroke="none" /><path d="M 96.75951476605007 79.25152402106235 l -3.5484649600409712 -22.720436808091275 a43.99586598332638,43.99586598332638 0 0,0 0.7492517337400735,-0.11042022911600456 l 3.1568442458722488 22.778151521368248" fill="#f2ff19" stroke="none" /><path d="M 97.47563105711357 79.15227682838746 l -1.108751154439575 -9.156719028373042 a30.2236019258769,30.2236019258769 0 0,0 0.5170154357925141,-0.05809270830581925 l 0.9509690151373429 9.17444769014946" fill="#ff5207" stroke="none" /><path d="M 97.83486435360386 79.11191278185805 l -0.7906809834941528 -7.628073267576832 a28.668942442943457,28.668942442943457 0 0,0 0.49129676276721934,-0.04665454749110582 l 0.6592590936366971 7.6405533595831185" fill="#ff3b05" stroke="none" /><path d="M 98.19473922651362 79.07773832637324 l -1.1403808359429601 -13.216564945966153 a34.26567214361667,34.26567214361667 0 0,0 0.5880802099358678,-0.045646342578751956 l 0.912710436644758 13.234236550733367" fill="#ff8b0c" stroke="none" /><path d="M 98.55514903715128 79.0497635885617 l -0.2927850215132226 -4.245362031206483 a25.25544613934099,25.25544613934099 0 0,0 0.433958259074336,-0.02617754727596265 l 0.21966471359926362 4.249772847862752" fill="#ff0801" stroke="none" /><path d="M 98.91598698831166 79.02799685794201 l -0.3851291270663109 -7.450952318693113 a28.460899067803634,28.460899067803634 0 0,0 0.4894721246085439,-0.021077699317611366 l 0.25681617006844293 7.456477744534917" fill="#ff3805" stroke="none" /></svg>