<?xml version="1.0" encoding="utf-8" ?>
<svg baseProfile="full" height="200mm" version="1.1" viewBox="0,0,200,200" width="200mm" xmlns="http://www.w3.org/2000/svg" xmlns:ev="http://www.w3.org/2001/xml-events" xmlns:xlink="http://www.w3.org/1999/xlink"><defs /><rect fill="#1a1a1a" height="200" width="200" x="0" y="0" /><text alignment-baseline="middle" fill="#e1ed5e" style="dominant-baseline: central; font-size:9.0px; font-family:Arial;" text-anchor="middle" x="100.0" y="100.0">2021</text><line stroke="#e1ed5e" stroke-width="0.3" x1="100.0" x2="100.0" y1="15.0" y2="10.0" /><path d="M 100.0 14.0 a86.0,86.0 0 0,1 42.46469731375804,11.215312516191453" fill="none" id="id73" stroke="none" /><text fill="#e1ed5e" style="font-size:6.75px; font-family:Arial;" text-anchor="middle"><textPath startOffset="22.20632615414155" xlink:href="#id73">January</textPath></text><line stroke="#e1ed5e" stroke-width="0.3" x1="143.23703022742887" x2="145.7803849466894" y1="26.81831364943548" y2="22.513508569990506" /><path d="M 143.74570117128098 25.957352633546492 a86.0,86.0 0 0,1 28.547481713284135,27.462654790039103" fill="none" id="id74" stroke="none" /><text fill="#e1ed5e" style="font-size:6.75px; font-family:Arial;" text-anchor="middle"><textPath startOffset="19.985693538727396" xlink:href="#id74">February</textPath></text><path d="M 115.9244219780498 86.31012108654704 l 8.572584282302158 -7.369664089651238 a32.304917074948804,32.304917074948804 0 0,0 0.3588759183697313,0.42479589205814156 l -8.698170814159006 7.22100924796399" fill="red" stroke="none" /><path d="M 117.45458315368197 88.32363383020206 l 14.47235075212285 -9.68138082884497 a38.412009391382654,38.412009391382654 0 0,0 0.36290818599587166,0.5527340649712276 l -14.636855573476646 9.430828699896068" fill="red" stroke="none" /><line stroke="#e1ed5e" stroke-width="0.3" x1="172.23445277983987" x2="176.4835382374775" y1="55.19839476539836" y2="52.563006222186495" /><path d="M 173.08426987136738 54.67131705675599 a86.0,86.0 0 0,1 12.851231095245387,41.99856678651699" fill="none" id="id75" stroke="none" /><text fill="#e1ed5e" style="font-size:6.75px; font-family:Arial;" text-anchor="middle"><textPath startOffset="22.20632615414155" xlink:href="#id75">March</textPath></text><line stroke="#e1ed5e" stroke-width="0.3" x1="184.98032266829074" x2="189.97916517819016" y1="98.17113171792111" y2="98.06355123074" /><path d="M 185.9800911702706 98.14961562048488 a86.0,86.0 0 0,1 -9.607161424134198,41.387399972396054" fill="none" id="id76" stroke="none" /><text fill="#e1ed5e" style="font-size:6.75px; font-family:Arial;" text-anchor="middle"><textPath startOffset="21.466115282336823" xlink:href="#id76">April</textPath></text><path d="M 119.9155931802556 106.66101706037122 l 12.694784153811208 4.2459279550909885 a34.38601691735369,34.38601691735369 0 0,0 -0.19257670842009414,0.5597180578278381 l -12.619816614447883 -4.463818716008127" fill="red" stroke="none" /><path d="M 119.12269723197855 108.67885076344098 l 14.063875905217364 6.3829008353915215 a36.44454688722836,36.44454688722836 0 0,0 -0.26418024352414615,0.5690207419732352 l -13.951921044853385 -6.624041644643587" fill="red" stroke="none" /><line stroke="#e1ed5e" stroke-width="0.3" x1="174.80103733775053" x2="179.2010983576182" y1="140.37084112569926" y2="142.7455964860345" /><path d="M 175.68104954172406 140.8457921977663 a86.0,86.0 0 0,1 -30.038265399797805,32.042727171017184" fill="none" id="id77" stroke="none" /><text fill="#e1ed5e" style="font-size:6.75px; font-family:Arial;" text-anchor="middle"><textPath startOffset="22.206326154141568" xlink:href="#id77">May</textPath></text><path d="M 116.27256486870786 113.27417163493432 l 35.41969889834642 28.89324247454536 a66.7096765547777,66.7096765547777 0 0,0 -0.733501483919337,0.8835497892996594 l -34.91710141453353 -29.49865352095879" fill="red" stroke="none" /><path d="M 115.56566222782051 114.09645910891815 l 21.475021870562276 19.44804938144228 a49.97245569647394,49.97245569647394 0 0,0 -0.5829015487679018,0.6326245067334993 l -21.137073913798652 -19.814825142977114" fill="red" stroke="none" /><path d="M 114.81725581225074 114.88116024355365 l 28.7771664935936 28.90127776511271 a61.784913483495394,61.784913483495394 0 0,0 -0.7601016829008794,0.7439194769161717 l -28.275414858316925 -29.392347344951453" fill="red" stroke="none" /><path d="M 113.20401910651253 116.32954008644616 l 16.037531649264597 19.83377287186348 a46.506488737845345,46.506488737845345 0 0,0 -0.6268244370129533,0.4979872426592367 l -15.693749719534294 -20.106894028527844" fill="red" stroke="none" /><line stroke="#e1ed5e" stroke-width="0.3" x1="143.8653032363475" x2="146.44561519142675" y1="172.8068346515853" y2="177.08958963109032" /><path d="M 144.38136562736335 173.6633856474863 a86.0,86.0 0 0,1 -40.68145358897372,12.25698825130547" fill="none" id="id78" stroke="none" /><text fill="#e1ed5e" style="font-size:6.75px; font-family:Arial;" text-anchor="middle"><textPath startOffset="21.466115282336833" xlink:href="#id78">June</textPath></text><path d="M 107.59598834532513 119.57807347666477 l 10.58468406096355 27.281205927647722 a50.262599569025596,50.262599569025596 0 0,0 -0.8092991283947301,0.3060076813852201 l -10.113514711808545 -27.459361859139573" fill="red" stroke="none" /><path d="M 104.48393922423573 120.51570834832081 l 3.1994401620232122 14.638642042067467 a35.98420028517212,35.98420028517212 0 0,0 -0.6062627292633004,0.12704824949922877 l -2.946985971330534 -14.691546272293238" fill="red" stroke="none" /><line stroke="#e1ed5e" stroke-width="0.3" x1="102.19456741930631" x2="102.32365962044197" y1="184.97166512339345" y2="189.96999836594603" /><path d="M 102.22038585953345 185.97133177190398 a86.0,86.0 0 0,1 -42.740103519485714,-10.115201625700543" fill="none" id="id79" stroke="none" /><text fill="#e1ed5e" style="font-size:6.75px; font-family:Arial;" text-anchor="middle"><textPath startOffset="22.20632615414155" xlink:href="#id79">July</textPath></text><path d="M 99.45781275523022 120.99299961872073 l -1.0349022357831017 40.07047832789373 a61.08384033577409,61.08384033577409 0 0,0 -1.05087373118432,-0.03619421610506381 l 1.7244963186420648 -40.046727313362574" fill="red" stroke="none" /><path d="M 98.01472825383883 120.90594882070398 l -2.1814108991865564 22.971396587647575 a44.07473975363702,44.07473975363702 0 0,0 -0.754659034690452,-0.07822349456028763 l 2.5765025304826015 -22.930443724631527" fill="red" stroke="none" /><path d="M 96.22490169976321 120.6578951692458 l -9.164064580734722 50.147114161541644 a71.97757485768196,71.97757485768196 0 0,0 -1.2168747666222481,-0.23321694520950195 l 10.025906961928666 -49.981940017983675" fill="red" stroke="none" /><path d="M 95.51606077576429 120.51570834832081 l -7.271433063134373 33.269541030193004 a55.05489831362501,55.05489831362501 0 0,0 -0.9240829682275087,-0.21031827501272876 l 7.843036180754745 -33.13944602160259" fill="red" stroke="none" /><line stroke="#e1ed5e" stroke-width="0.3" x1="58.666819895761336" x2="56.23545636021788" y1="174.27360380694188" y2="178.64263932499728" /><path d="M 58.180547188652646 175.14741091055294 a86.0,86.0 0 0,1 -31.652253787137756,-30.449443065178592" fill="none" id="id80" stroke="none" /><text fill="#e1ed5e" style="font-size:6.75px; font-family:Arial;" text-anchor="middle"><textPath startOffset="22.20632615414155" xlink:href="#id80">August</textPath></text><path d="M 89.7882731507175 118.34994917583269 l -13.88693913305918 24.95411707153358 a49.55792424713488,49.55792424713488 0 0,0 -0.7418378379005833,-0.4212348851382365 l 14.31442573788097 -24.71137902060071" fill="red" stroke="none" /><path d="M 87.07902340077011 116.55440617244103 l -22.64949109961277 29.018617314454822 a57.811405812794156,57.811405812794156 0 0,0 -0.7791945357517884,-0.6190392643325743 l 23.145643128081915 -28.624444136117116" fill="red" stroke="none" /><path d="M 85.70375840098266 115.38237550388516 l -31.169008423553084 33.537023583024 a66.78470308864993,66.78470308864993 0 0,0 -0.8353308720112983,-0.7898574782108428 l 31.741675129955198 -32.99553146806723" fill="red" stroke="none" /><path d="M 84.19399662182784 113.82643327865904 l -22.39926577878695 19.59394455204544 a50.75986845631827,50.75986845631827 0 0,0 -0.5696163435682549,-0.6625924946392905 l 22.733224631925985 -19.20547495824462" fill="red" stroke="none" /><line stroke="#e1ed5e" stroke-width="0.3" x1="26.63291911575756" x2="22.317208475507996" y1="142.92168965132927" y2="145.44649492493687" /><path d="M 25.769776987707644 143.4266507060508 a86.0,86.0 0 0,1 -11.730757126820373,-40.83630448921669" fill="none" id="id81" stroke="none" /><text fill="#e1ed5e" style="font-size:6.75px; font-family:Arial;" text-anchor="middle"><textPath startOffset="21.46611528233685" xlink:href="#id81">September</textPath></text><path d="M 81.18737489456691 109.33194174019688 l -20.880255168842325 10.35758293507947 a44.30803681507767,44.30803681507767 0 0,0 -0.33304187224072146,-0.6861649005600003 l 21.055450297697764 -9.996629078554186" fill="red" stroke="none" /><path d="M 80.73074385275274 108.34839909993369 l -12.983848395292041 5.625248189583924 a35.15004368708256,35.15004368708256 0 0,0 -0.23575472211300647,-0.5572545222560572 l 13.078754098597354 -5.400919141661708" fill="red" stroke="none" /><path d="M 80.45479744820244 107.68017299344265 l -26.40405430654943 10.3753186627326 a49.369372942954854,49.369372942954854 0 0,0 -0.3039877302097856,-0.793616039322205 l 26.578736316352725 -9.919279056577237" fill="red" stroke="none" /><path d="M 79.18660465613746 102.79330883721812 l -14.483994001890046 1.9438572023100544 a35.61385175337972,35.61385175337972 0 0,0 -0.07631283708612281,-0.6082883964465499 l 14.515308348223018 -1.6942510515760958" fill="red" stroke="none" /><line stroke="#e1ed5e" stroke-width="0.3" x1="15.007084014347285" x2="10.007500721073583" y1="101.09737516637583" y2="101.16192664675087" /><path d="M 14.007167355692545 101.11028546245083 a86.0,86.0 0 0,1 10.666146001902534,-42.60595125391555" fill="none" id="id82" stroke="none" /><text fill="#e1ed5e" style="font-size:6.75px; font-family:Arial;" text-anchor="middle"><textPath startOffset="22.20632615414155" xlink:href="#id82">October</textPath></text><path d="M 79.16333360222342 97.38593545837743 l -25.09812287369008 -3.1486856780698984 a46.294861005392534,46.294861005392534 0 0,0 0.10600200667622595,-0.7898380740427707 l 25.04020486795602 3.5802420941773283" fill="red" stroke="none" /><path d="M 79.71946130924805 94.55025226153421 l -44.11229695943548 -11.853772439626518 a66.67720070328161,66.67720070328161 0 0,0 0.30739214903236256,-1.1058531106961675 l 43.90171803983676 12.611336853741628" fill="red" stroke="none" /><path d="M 80.2630227832202 92.82701384747504 l -59.210931650339425 -21.518958457574875 a84.0,84.0 0 0,0 0.5055816459934896,-1.3547074518826343 l 58.83174541584431 22.534989046486853" fill="red" stroke="none" /><path d="M 81.6062741919709 89.86733742301443 l -53.19695550966211 -29.304927447979416 a81.73462643524127,81.73462643524127 0 0,0 0.6894602149914614,-1.226472790431657 l 52.68463765337822 30.216283748345855" fill="red" stroke="none" /><line stroke="#e1ed5e" stroke-width="0.3" x1="26.266209847984243" x2="21.928928074336255" y1="57.711370442889674" y2="55.22380399835377" /><path d="M 25.398753493254645 57.213857153982495 a86.0,86.0 0 0,1 29.58750427330803,-30.492523968695096" fill="none" id="id83" stroke="none" /><text fill="#e1ed5e" style="font-size:6.75px; font-family:Arial;" text-anchor="middle"><textPath startOffset="21.46611528233685" xlink:href="#id83">November</textPath></text><path d="M 83.39014120810768 87.1503855733568 l -13.431660954079208 -10.390917016920254 a37.98177471402382,37.98177471402382 0 0,0 0.40449852031383426,-0.5136720433306939 l 13.250808353171402 10.620581454203995" fill="red" stroke="none" /><path d="M 83.84228863543731 86.58626213691792 l -8.741303313379351 -7.256816796747805 a32.36097591046024,32.36097591046024 0 0,0 0.359498677005201,-0.42553304185435087 l 8.615094022887027 7.406208788231272" fill="red" stroke="none" /><path d="M 84.07557802195018 86.31012108654704 l -11.099694463055004 -9.542165699012472 a35.63749102136647,35.63749102136647 0 0,0 0.4039053726074651,-0.46173366299386215 l 10.933797226869695 9.731814918209277" fill="red" stroke="none" /><path d="M 84.5562425177563 85.77008943001954 l -25.694616289861383 -23.675073398107443 a55.93883808441524,55.93883808441524 0 0,0 0.6585670831176681,-0.7025134470079604 l 25.28328188477326 24.113856261993455" fill="red" stroke="none" /><line stroke="#e1ed5e" stroke-width="0.3" x1="56.762969772571076" x2="54.21961505331055" y1="26.818313649435495" y2="22.513508569990535" /><path d="M 56.25429882871897 25.957352633546506 a86.0,86.0 0 0,1 42.265352541879196,-11.944610805530505" fill="none" id="id84" stroke="none" /><text fill="#e1ed5e" style="font-size:6.75px; font-family:Arial;" text-anchor="middle"><textPath startOffset="22.20632615414155" xlink:href="#id84">December</textPath></text><path d="M 89.3179101791058 81.91981866633112 l -2.9118305859937488 -4.9284761587300725 a26.724389452919798,26.724389452919798 0 0,0 0.3980703020829832,-0.23058801262658754 l 2.826563551445445 4.977868328746707" fill="red" stroke="none" /><path d="M 95.692805502759 79.44645832069477 l -3.7625960056391277 -17.95476704704844 a39.3447755073598,39.3447755073598 0 0,0 0.6640528596087144,-0.13320275655254946 l 3.4529767365632766 18.016873759678198" fill="red" stroke="none" /></svg>