<?xml version="1.0" encoding="utf-8" ?>
<svg baseProfile="full" height="200mm" version="1.1" viewBox="0,0,200,200" width="200mm" xmlns="http://www.w3.org/2000/svg" xmlns:ev="http://www.w3.org/2001/xml-events" xmlns:xlink="http://www.w3.org/1999/xlink"><defs /><rect fill="#1a1a1a" height="200" width="200" x="0" y="0" /><rect fill="#1a1a1a" height="200" width="180" x="10" y="0" /><text alignment-baseline="middle" fill="#e1ed5e" style="dominant-baseline: central; font-size:9.0px; font-family:Arial;" text-anchor="middle" x="100.0" y="100.0">2026</text><line stroke="#e1ed5e" stroke-width="0.3" x1="100.0" x2="100.0" y1="15.0" y2="10.0" /><path d="M 100.0 14.0 a86.0,86.0 0 0,1 42.46469731375804,11.215312516191453" fill="none" id="id133" stroke="none" /><text fill="#e1ed5e" style="font-size:6.75px; font-family:Arial;" text-anchor="middle"><textPath startOffset="22.20632615414155" xlink:href="#id133">January</textPath></text><path d="M 100.0 79.0 l 0.0 -50.461888929934744 a71.46188892993474,71.46188892993474 0 0,0 1.2300989457196667,0.010587849981906235 l -0.8686184664471384 50.4544124565614" fill="red" stroke="none" /><path d="M 100.36148047927253 79.00311137660856 l 0.8022142516548633 -46.597269451431146 a67.60417436276322,67.60417436276322 0 0,0 1.1633499030640284,0.030045895779610976 l -1.6041907899137595 46.576556763509174" fill="red" stroke="none" /><path d="M 100.72285384407766 79.0124445844662 l 2.0936740757435506 -60.7883613634258 a81.82440586134713,81.82440586134713 0 0,0 1.4072206814819825,0.06059788271195006 l -3.1397355896148644 60.74331575418966" fill="red" stroke="none" /><path d="M 101.08401301168833 79.027996857942 l 3.2520390350649873 -62.916009426173986 a84.0,84.0 0 0,0 1.4433518046415523,0.08706692247878367 l -4.334552888546152 62.8507092343149" fill="red" stroke="none" /><path d="M 101.80526077348638 79.07773832637324 l 3.3977848691958203 -39.37898900152507 a60.52530476542298,60.52530476542298 0 0,0 1.0372160171562301,0.09849615873386759 l -4.075126013442294 39.31466729827603" fill="red" stroke="none" /><path d="M 102.16513564639614 79.11191278185805 l 4.742405125249764 -45.752224367496524 a66.99735254279031,66.99735254279031 0 0,0 1.1460799909556025,0.12877544073255945 l -5.529251819715093 45.66381297329337" fill="red" stroke="none" /><path d="M 102.52436894288641 79.15227682838746 l 6.348171900990087 -52.426936565906736 a73.80987563107992,73.80987563107992 0 0,0 1.2599882525909427,0.16358263709128493 l -7.2496748820888754 52.30989560565131" fill="red" stroke="none" /><path d="M 102.88285421437855 79.19881850522331 l 5.691516022550358 -41.067029048855375 a62.459549316586624,62.459549316586624 0 0,0 1.063689157336073,0.156760131704957 l -6.397574160315086 40.96297443298945" fill="red" stroke="none" /><path d="M 103.2404852339499 79.25152402106235 l 4.655961318984378 -29.811616042470646 a51.17300825021549,51.17300825021549 0 0,0 0.8691389274698214,0.14341537010221905 l -5.168429452593075 29.727054409428803" fill="red" stroke="none" /><path d="M 103.59715602781102 79.31037775812273 l 6.85944566514981 -39.45320650630606 a61.04506834133728,61.04506834133728 0 0,0 1.0337106730850658,0.18890401819395586 l -7.537551459337776 39.32928700676136" fill="red" stroke="none" /><path d="M 104.307194497241 79.44645832069477 l 9.138225028440264 -43.60678142517782 a65.55399581332347,65.55399581332347 0 0,0 1.1024224086802072,0.24094683917468507 l -9.887490161273998 43.44302108790726" fill="red" stroke="none" /><path d="M 104.66035177308747 79.52364482259891 l 10.713089564165498 -47.07048687396248 a69.2742273119074,69.2742273119074 0 0,0 1.1604301082048971,0.2746363146189988 l -11.521743359332918 46.87910464720262" fill="red" stroke="none" /><path d="M 105.01212808612495 79.60689891045804 l 14.499642388461464 -58.99543425649212 a81.7511390222879,81.7511390222879 0 0,0 1.3636522542562972,0.3476253225939362 l -15.513003531402786 58.73710593772931" fill="red" stroke="none" /><line stroke="#e1ed5e" stroke-width="0.3" x1="143.23703022742887" x2="145.7803849466894" y1="26.81831364943548" y2="22.513508569990506" /><path d="M 143.74570117128098 25.957352633546492 a86.0,86.0 0 0,1 28.547481713284135,27.462654790039103" fill="none" id="id134" stroke="none" /><text fill="#e1ed5e" style="font-size:6.75px; font-family:Arial;" text-anchor="middle"><textPath startOffset="19.985693538727396" xlink:href="#id134">February</textPath></text><line stroke="#e1ed5e" stroke-width="0.3" x1="172.23445277983987" x2="176.4835382374775" y1="55.19839476539836" y2="52.563006222186495" /><path d="M 173.08426987136738 54.67131705675599 a86.0,86.0 0 0,1 12.851231095245387,41.99856678651699" fill="none" id="id135" stroke="none" /><text fill="#e1ed5e" style="font-size:6.75px; font-family:Arial;" text-anchor="middle"><textPath startOffset="22.20632615414155" xlink:href="#id135">March</textPath></text><line stroke="#e1ed5e" stroke-width="0.3" x1="184.98032266829074" x2="189.97916517819016" y1="98.17113171792111" y2="98.06355123074" /><path d="M 185.9800911702706 98.14961562048488 a86.0,86.0 0 0,1 -9.607161424134198,41.387399972396054" fill="none" id="id136" stroke="none" /><text fill="#e1ed5e" style="font-size:6.75px; font-family:Arial;" text-anchor="middle"><textPath startOffset="21.466115282336823" xlink:href="#id136">April</textPath></text><line stroke="#e1ed5e" stroke-width="0.3" x1="174.80103733775053" x2="179.2010983576182" y1="140.37084112569926" y2="142.7455964860345" /><path d="M 175.68104954172406 140.8457921977663 a86.0,86.0 0 0,1 -30.038265399797805,32.042727171017184" fill="none" id="id137" stroke="none" /><text fill="#e1ed5e" style="font-size:6.75px; font-family:Arial;" text-anchor="middle"><textPath startOffset="22.206326154141568" xlink:href="#id137">May</textPath></text><line stroke="#e1ed5e" stroke-width="0.3" x1="143.8653032363475" x2="146.44561519142675" y1="172.8068346515853" y2="177.08958963109032" /><path d="M 144.38136562736335 173.6633856474863 a86.0,86.0 0 0,1 -40.68145358897372,12.25698825130547" fill="none" id="id138" stroke="none" /><text fill="#e1ed5e" style="font-size:6.75px; font-family:Arial;" text-anchor="middle"><textPath startOffset="21.466115282336833" xlink:href="#id138">June</textPath></text><line stroke="#e1ed5e" stroke-width="0.3" x1="102.19456741930631" x2="102.32365962044197" y1="184.97166512339345" y2="189.96999836594603" /><path d="M 102.22038585953345 185.97133177190398 a86.0,86.0 0 0,1 -42.740103519485714,-10.115201625700543" fill="none" id="id139" stroke="none" /><text fill="#e1ed5e" style="font-size:6.75px; font-family:Arial;" text-anchor="middle"><textPath startOffset="22.20632615414155" xlink:href="#id139">July</textPath></text><line stroke="#e1ed5e" stroke-width="0.3" x1="58.666819895761336" x2="56.23545636021788" y1="174.27360380694188" y2="178.64263932499728" /><path d="M 58.180547188652646 175.14741091055294 a86.0,86.0 0 0,1 -31.652253787137756,-30.449443065178592" fill="none" id="id140" stroke="none" /><text fill="#e1ed5e" style="font-size:6.75px; font-family:Arial;" text-anchor="middle"><textPath startOffset="22.20632615414155" xlink:href="#id140">August</textPath></text><line stroke="#e1ed5e" stroke-width="0.3" x1="26.63291911575756" x2="22.317208475507996" y1="142.92168965132927" y2="145.44649492493687" /><path d="M 25.769776987707644 143.4266507060508 a86.0,86.0 0 0,1 -11.730757126820373,-40.83630448921669" fill="none" id="id141" stroke="none" /><text fill="#e1ed5e" style="font-size:6.75px; font-family:Arial;" text-anchor="middle"><textPath startOffset="21.46611528233685" xlink:href="#id141">September</textPath></text><line stroke="#e1ed5e" stroke-width="0.3" x1="15.007084014347285" x2="10.007500721073583" y1="101.09737516637583" y2="101.16192664675087" /><path d="M 14.007167355692545 101.11028546245083 a86.0,86.0 0 0,1 10.666146001902534,-42.60595125391555" fill="none" id="id142" stroke="none" /><text fill="#e1ed5e" style="font-size:6.75px; font-family:Arial;" text-anchor="middle"><textPath startOffset="22.20632615414155" xlink:href="#id142">October</textPath></text><line stroke="#e1ed5e" stroke-width="0.3" x1="26.266209847984243" x2="21.928928074336255" y1="57.711370442889674" y2="55.22380399835377" /><path d="M 25.398753493254645 57.213857153982495 a86.0,86.0 0 0,1 29.58750427330803,-30.492523968695096" fill="none" id="id143" stroke="none" /><text fill="#e1ed5e" style="font-size:6.75px; font-family:Arial;" text-anchor="middle"><textPath startOffset="21.46611528233685" xlink:href="#id143">November</textPath></text><line stroke="#e1ed5e" stroke-width="0.3" x1="56.762969772571076" x2="54.21961505331055" y1="26.818313649435495" y2="22.513508569990535" /><path d="M 56.25429882871897 25.957352633546506 a86.0,86.0 0 0,1 42.265352541879196,-11.944610805530505" fill="none" id="id144" stroke="none" /><text fill="#e1ed5e" style="font-size:6.75px; font-family:Arial;" text-anchor="middle"><textPath startOffset="22.20632615414155" xlink:href="#id144">December</textPath></text></svg>