<?xml version="1.0" encoding="utf-8" ?>
<svg baseProfile="full" height="200mm" version="1.1" viewBox="0,0,200,200" width="200mm" xmlns="http://www.w3.org/2000/svg" xmlns:ev="http://www.w3.org/2001/xml-events" xmlns:xlink="http://www.w3.org/1999/xlink"><defs /><rect fill="#1a1a1a" height="200" width="200" x="0" y="0" /><text alignment-baseline="middle" fill="#e1ed5e" style="dominant-baseline: central; font-size:9.0px; font-family:Arial;" text-anchor="middle" x="100.0" y="100.0">2021</text><line stroke="#e1ed5e" stroke-width="0.3" x1="100.0" x2="100.0" y1="15.0" y2="10.0" /><path d="M 100.0 14.0 a86.0,86.0 0 0,1 42.46469731375804,11.215312516191453" fill="none" id="id73" stroke="none" /><text fill="#e1ed5e" style="font-size:6.75px; font-family:Arial;" text-anchor="middle"><textPath startOffset="22.20632615414155" xlink:href="#id73">January</textPath></text><line stroke="#e1ed5e" stroke-width="0.3" x1="143.23703022742887" x2="145.7803849466894" y1="26.81831364943548" y2="22.513508569990506" /><path d="M 143.74570117128098 25.957352633546492 a86.0,86.0 0 0,1 28.547481713284135,27.462654790039103" fill="none" id="id74" stroke="none" /><text fill="#e1ed5e" style="font-size:6.75px; font-family:Arial;" text-anchor="middle"><textPath startOffset="19.985693538727396" xlink:href="#id74">February</textPath></text><path d="M 115.9244219780498 86.31012108654704 l 13.473579508873334 -11.582942995450937 a38.76800251063122,38.76800251063122 0 0,0 0.4306744534302408,0.5097827111460542 l -13.670964575790693 11.349301334675776" fill="#ff0000" stroke="none" /><path d="M 117.45458315368197 88.32363383020206 l 22.746276049054416 -15.21628135198624 a48.36655426396591,48.36655426396591 0 0,0 0.45695652867211145,0.6959761431530527 l -23.004829213084452 14.822487144855513" fill="#ffb510" stroke="none" /><line stroke="#e1ed5e" stroke-width="0.3" x1="172.23445277983987" x2="176.4835382374775" y1="55.19839476539836" y2="52.563006222186495" /><path d="M 173.08426987136738 54.67131705675599 a86.0,86.0 0 0,1 12.851231095245387,41.99856678651699" fill="none" id="id75" stroke="none" /><text fill="#e1ed5e" style="font-size:6.75px; font-family:Arial;" text-anchor="middle"><textPath startOffset="22.20632615414155" xlink:href="#id75">March</textPath></text><line stroke="#e1ed5e" stroke-width="0.3" x1="184.98032266829074" x2="189.97916517819016" y1="98.17113171792111" y2="98.06355123074" /><path d="M 185.9800911702706 98.14961562048488 a86.0,86.0 0 0,1 -9.607161424134198,41.387399972396054" fill="none" id="id76" stroke="none" /><text fill="#e1ed5e" style="font-size:6.75px; font-family:Arial;" text-anchor="middle"><textPath startOffset="21.466115282336823" xlink:href="#id76">April</textPath></text><line stroke="#e1ed5e" stroke-width="0.3" x1="174.80103733775053" x2="179.2010983576182" y1="140.37084112569926" y2="142.7455964860345" /><path d="M 175.68104954172406 140.8457921977663 a86.0,86.0 0 0,1 -30.038265399797805,32.042727171017184" fill="none" id="id77" stroke="none" /><text fill="#e1ed5e" style="font-size:6.75px; font-family:Arial;" text-anchor="middle"><textPath startOffset="22.206326154141568" xlink:href="#id77">May</textPath></text><path d="M 116.27256486870786 113.27417163493432 l 27.964706101710284 22.81191142942875 a57.088891509980385,57.088891509980385 0 0,0 -0.6277168291094286,0.7561253579692517 l -27.567893272707312 -23.28989804451177" fill="#b8ff1f" stroke="none" /><path d="M 115.56566222782051 114.09645910891815 l 33.75241410284636 30.566609904824187 a66.53617352000185,66.53617352000185 0 0,0 -0.7761083191402086,0.8423122971720546 l -33.22125937571043 -31.143073456797577" fill="#30ff2f" stroke="none" /><path d="M 114.81725581225074 114.88116024355365 l 22.649961936764733 22.747647564585566 a53.10103184415552,53.10103184415552 0 0,0 -0.6532692431348593,0.6393614493571405 l -22.25504274125408 -23.134159116865277" fill="#f8ff18" stroke="none" /><path d="M 113.20401910651253 116.32954008644616 l 25.20627977359589 31.172853710132625 a61.088693523961574,61.088693523961574 0 0,0 -0.8233665229354,0.6541321624416022 l -24.66595575794314 -31.602119786579355" fill="#7cff26" stroke="none" /><line stroke="#e1ed5e" stroke-width="0.3" x1="143.8653032363475" x2="146.44561519142675" y1="172.8068346515853" y2="177.08958963109032" /><path d="M 144.38136562736335 173.6633856474863 a86.0,86.0 0 0,1 -40.68145358897372,12.25698825130547" fill="none" id="id78" stroke="none" /><text fill="#e1ed5e" style="font-size:6.75px; font-family:Arial;" text-anchor="middle"><textPath startOffset="21.466115282336833" xlink:href="#id78">June</textPath></text><path d="M 107.59598834532513 119.57807347666477 l 14.98619844321076 38.62576940861555 a62.43110191856877,62.43110191856877 0 0,0 -1.0052292718770688,0.3800916965742996 l -14.319098950573418 -38.87800935529648" fill="#68ff28" stroke="none" /><path d="M 104.48393922423573 120.51570834832081 l 5.028578312831207 23.007637015936645 a44.55075287343006,44.55075287343006 0 0,0 -0.7505922269699633,0.15729389903308091 l -4.6317946244318655 -23.090786895696265" fill="#ff700a" stroke="none" /><line stroke="#e1ed5e" stroke-width="0.3" x1="102.19456741930631" x2="102.32365962044197" y1="184.97166512339345" y2="189.96999836594603" /><path d="M 102.22038585953345 185.97133177190398 a86.0,86.0 0 0,1 -42.740103519485714,-10.115201625700543" fill="none" id="id79" stroke="none" /><text fill="#e1ed5e" style="font-size:6.75px; font-family:Arial;" text-anchor="middle"><textPath startOffset="22.20632615414155" xlink:href="#id79">July</textPath></text><path d="M 99.45781275523022 120.99299961872073 l -1.6265617343093406 62.97899885616221 a84.0,84.0 0 0,0 -1.445118593301428,-0.04977280629562486 l 2.7104006792854114 -62.94166925144049" fill="#4dd2ff" stroke="none" /><path d="M 98.01472825383883 120.90594882070398 l -3.428535926137303 36.10427476257057 a57.26669980475208,57.26669980475208 0 0,0 -0.9805351690362705,-0.10163647943702254 l 4.049503691779167 -36.03990891467779" fill="#b5ff1f" stroke="none" /><path d="M 96.22490169976321 120.6578951692458 l -7.221078820184572 39.51480926122563 a61.169193796718915,61.169193796718915 0 0,0 -1.0341449899226376,-0.1981963486044885 l 7.900191424678905 -39.384655714272675" fill="#7bff26" stroke="none" /><path d="M 95.51606077576429 120.51570834832081 l -11.428552731975122 52.289926996628985 a74.52427750899889,74.52427750899889 0 0,0 -1.250871723951275,-0.28469433188261073 l 12.326944605319259 -52.08545593116869" fill="#3dffac" stroke="none" /><line stroke="#e1ed5e" stroke-width="0.3" x1="58.666819895761336" x2="56.23545636021788" y1="174.27360380694188" y2="178.64263932499728" /><path d="M 58.180547188652646 175.14741091055294 a86.0,86.0 0 0,1 -31.652253787137756,-30.449443065178592" fill="none" id="id80" stroke="none" /><text fill="#e1ed5e" style="font-size:6.75px; font-family:Arial;" text-anchor="middle"><textPath startOffset="22.20632615414155" xlink:href="#id80">August</textPath></text><path d="M 89.7882731507175 118.34994917583269 l -21.826181275398312 39.22052783209837 a65.8846520816966,65.8846520816966 0 0,0 -0.9862343629927893,-0.5600096104430894 l 22.49806440531231 -38.83901505586065" fill="#39ff2e" stroke="none" /><path d="M 87.07902340077011 116.55440617244103 l -35.59833407484428 45.60872599771941 a78.8566960345928,78.8566960345928 0 0,0 -1.0628474743645864,-0.8443903138945723 l 36.378139041926225 -44.98920176981971" fill="#44ffe9" stroke="none" /><path d="M 85.70375840098266 115.38237550388516 l -24.659895867634212 26.533391695669778 a57.2233535040366,57.2233535040366 0 0,0 -0.7157392572141473,-0.6767761418879079 l 25.112970959239178 -26.104980917035938" fill="#b6ff1f" stroke="none" /><path d="M 84.19399662182784 113.82643327865904 l -35.20505351390069 30.795914174849326 a67.77375463634812,67.77375463634812 0 0,0 -0.760542520693695,-0.8846827724585918 l 35.72993854416516 -30.185354303229204" fill="#31ff43" stroke="none" /><line stroke="#e1ed5e" stroke-width="0.3" x1="26.63291911575756" x2="22.317208475507996" y1="142.92168965132927" y2="145.44649492493687" /><path d="M 25.769776987707644 143.4266507060508 a86.0,86.0 0 0,1 -11.730757126820373,-40.83630448921669" fill="none" id="id81" stroke="none" /><text fill="#e1ed5e" style="font-size:6.75px; font-family:Arial;" text-anchor="middle"><textPath startOffset="21.46611528233685" xlink:href="#id81">September</textPath></text><path d="M 81.18737489456691 109.33194174019688 l -32.81761589253328 16.27907205107884 a57.63337412406983,57.63337412406983 0 0,0 -0.43320192456142603,-0.8925242747681948 l 33.09297107370943 -15.71175882034536" fill="#b0ff20" stroke="none" /><path d="M 80.45479744820244 107.68017299344265 l -41.4994024369469 16.306947395177286 a65.58830492374378,65.58830492374378 0 0,0 -0.40385442944787064,-1.0543364777912694 l 41.77395114598828 -15.59018735055286" fill="#3dff2e" stroke="none" /><path d="M 79.18660465613746 102.79330883721812 l -22.764575810983132 3.055171428677642 a43.9686739781078,43.9686739781078 0 0,0 -0.09421542711582064,-0.7509896534986897 l 22.8137927473458 -2.6628640208915435" fill="#ff6509" stroke="none" /><line stroke="#e1ed5e" stroke-width="0.3" x1="15.007084014347285" x2="10.007500721073583" y1="101.09737516637583" y2="101.16192664675087" /><path d="M 14.007167355692545 101.11028546245083 a86.0,86.0 0 0,1 10.666146001902534,-42.60595125391555" fill="none" id="id82" stroke="none" /><text fill="#e1ed5e" style="font-size:6.75px; font-family:Arial;" text-anchor="middle"><textPath startOffset="22.20632615414155" xlink:href="#id82">October</textPath></text><path d="M 79.16333360222342 97.38593545837743 l -39.44686257098225 -4.948807201523666 a60.75607701234885,60.75607701234885 0 0,0 0.13911406020495717,-1.0365613334110275 l 39.355832511719456 5.6270868769993525" fill="#81ff25" stroke="none" /><path d="M 79.71946130924805 94.55025226153421 l -34.71536687306573 -9.328647280595751 a56.94691025967762,56.94691025967762 0 0,0 0.26253401373843016,-0.944474530888646 l 34.549646088760944 9.92483311490334" fill="#baff1f" stroke="none" /><path d="M 80.2630227832202 92.82701384747504 l -46.70093701117484 -16.972465986650818 a70.68945682325113,70.68945682325113 0 0,0 0.4254677611319646,-1.1400420705713576 l 46.40186466154125 17.773831194251517" fill="#36ff72" stroke="none" /><path d="M 81.6062741919709 89.86733742301443 l -41.88033108527011 -23.0708703570129 a68.81450816271081,68.81450816271081 0 0,0 0.5804744899639941,-1.032599346561788 l 41.47699895401369 23.78835321350947" fill="#33ff54" stroke="none" /><line stroke="#e1ed5e" stroke-width="0.3" x1="26.266209847984243" x2="21.928928074336255" y1="57.711370442889674" y2="55.22380399835377" /><path d="M 25.398753493254645 57.213857153982495 a86.0,86.0 0 0,1 29.58750427330803,-30.492523968695096" fill="none" id="id83" stroke="none" /><text fill="#e1ed5e" style="font-size:6.75px; font-family:Arial;" text-anchor="middle"><textPath startOffset="21.46611528233685" xlink:href="#id83">November</textPath></text><path d="M 84.07557802195018 86.31012108654704 l -17.445452963456944 -14.997476140060975 a44.00582795014965,44.00582795014965 0 0,0 0.49874976676805544,-0.5701572010307356 l 17.184711333111043 15.295548897294655" fill="#ff6609" stroke="none" /><path d="M 84.5562425177563 85.77008943001954 l -40.384374668226414 -37.21024761067134 a75.91357067784938,75.91357067784938 0 0,0 0.8937293036890368,-0.9533681077018367 l 39.73787804256692 37.899885135251225" fill="#3fffc0" stroke="none" /><line stroke="#e1ed5e" stroke-width="0.3" x1="56.762969772571076" x2="54.21961505331055" y1="26.818313649435495" y2="22.513508569990535" /><path d="M 56.25429882871897 25.957352633546506 a86.0,86.0 0 0,1 42.265352541879196,-11.944610805530505" fill="none" id="id84" stroke="none" /><text fill="#e1ed5e" style="font-size:6.75px; font-family:Arial;" text-anchor="middle"><textPath startOffset="22.20632615414155" xlink:href="#id84">December</textPath></text></svg>