<?xml version="1.0" encoding="utf-8" ?>
<svg baseProfile="full" height="200mm" version="1.1" viewBox="0,0,200,200" width="200mm" xmlns="http://www.w3.org/2000/svg" xmlns:ev="http://www.w3.org/2001/xml-events" xmlns:xlink="http://www.w3.org/1999/xlink"><defs /><rect fill="#1a1a1a" height="200" width="200" x="0" y="0" /><text alignment-baseline="middle" fill="#e1ed5e" style="dominant-baseline: central; font-size:9.0px; font-family:Arial;" text-anchor="middle" x="100.0" y="100.0">2021</text><line stroke="#e1ed5e" stroke-width="0.3" x1="100.0" x2="100.0" y1="15.0" y2="10.0" /><path d="M 100.0 14.0 a86.0,86.0 0 0,1 42.46469731375804,11.215312516191453" fill="none" id="id73" stroke="none" /><text fill="#e1ed5e" style="font-size:6.75px; font-family:Arial;" text-anchor="middle"><textPath startOffset="22.20632615414155" xlink:href="#id73">January</textPath></text><line stroke="#e1ed5e" stroke-width="0.3" x1="143.23703022742887" x2="145.7803849466894" y1="26.81831364943548" y2="22.513508569990506" /><path d="M 143.74570117128098 25.957352633546492 a86.0,86.0 0 0,1 28.547481713284135,27.462654790039103" fill="none" id="id74" stroke="none" /><text fill="#e1ed5e" style="font-size:6.75px; font-family:Arial;" text-anchor="middle"><textPath startOffset="19.985693538727396" xlink:href="#id74">February</textPath></text><path d="M 115.9244219780498 86.31012108654704 l 14.634431940604319 -12.580902560243304 a40.29885249061499,40.29885249061499 0 0,0 0.447680694033749,0.5299127359761961 l -14.848823248125186 12.327130874638002" fill="#ff0000" stroke="none" /><path d="M 117.45458315368197 88.32363383020206 l 24.699646252072203 -16.523002088585265 a50.716697713522905,50.716697713522905 0 0,0 0.4791601652332372,0.7297938049395918 l -24.980403052663366 16.095390219667998" fill="#ffca12" stroke="none" /><line stroke="#e1ed5e" stroke-width="0.3" x1="172.23445277983987" x2="176.4835382374775" y1="55.19839476539836" y2="52.563006222186495" /><path d="M 173.08426987136738 54.67131705675599 a86.0,86.0 0 0,1 12.851231095245387,41.99856678651699" fill="none" id="id75" stroke="none" /><text fill="#e1ed5e" style="font-size:6.75px; font-family:Arial;" text-anchor="middle"><textPath startOffset="22.20632615414155" xlink:href="#id75">March</textPath></text><line stroke="#e1ed5e" stroke-width="0.3" x1="184.98032266829074" x2="189.97916517819016" y1="98.17113171792111" y2="98.06355123074" /><path d="M 185.9800911702706 98.14961562048488 a86.0,86.0 0 0,1 -9.607161424134198,41.387399972396054" fill="none" id="id76" stroke="none" /><text fill="#e1ed5e" style="font-size:6.75px; font-family:Arial;" text-anchor="middle"><textPath startOffset="21.466115282336823" xlink:href="#id76">April</textPath></text><line stroke="#e1ed5e" stroke-width="0.3" x1="174.80103733775053" x2="179.2010983576182" y1="140.37084112569926" y2="142.7455964860345" /><path d="M 175.68104954172406 140.8457921977663 a86.0,86.0 0 0,1 -30.038265399797805,32.042727171017184" fill="none" id="id77" stroke="none" /><text fill="#e1ed5e" style="font-size:6.75px; font-family:Arial;" text-anchor="middle"><textPath startOffset="22.206326154141568" xlink:href="#id77">May</textPath></text><path d="M 116.27256486870786 113.27417163493432 l 30.405847832296235 24.803246819912378 a60.23922317286935,60.23922317286935 0 0,0 -0.6623560759010042,0.797850562178329 l -29.97439575650169 -25.322958639204476" fill="#95ff23" stroke="none" /><path d="M 115.56566222782051 114.09645910891815 l 36.70029350828467 33.23624649905225 a70.51322676760226,70.51322676760226 0 0,0 -0.8224984847874467,0.8926596598131424 l -36.12274861550151 -33.86305741366673" fill="#35ff67" stroke="none" /><path d="M 114.81725581225074 114.88116024355365 l 24.64453447053792 24.750822367569615 a55.927872639777476,55.927872639777476 0 0,0 -0.6880461219050965,0.673397944796535 l -24.21483839625703 -25.17137041528872" fill="#daff1c" stroke="none" /><path d="M 113.20401910651253 116.32954008644616 l 27.39279434111527 33.876937746355786 a64.56618060933391,64.56618060933391 0 0,0 -0.8702368402538199,0.6913687772028118 l -26.805600008144097 -34.34344043756373" fill="#54ff2b" stroke="none" /><line stroke="#e1ed5e" stroke-width="0.3" x1="143.8653032363475" x2="146.44561519142675" y1="172.8068346515853" y2="177.08958963109032" /><path d="M 144.38136562736335 173.6633856474863 a86.0,86.0 0 0,1 -40.68145358897372,12.25698825130547" fill="none" id="id78" stroke="none" /><text fill="#e1ed5e" style="font-size:6.75px; font-family:Arial;" text-anchor="middle"><textPath startOffset="21.466115282336833" xlink:href="#id78">June</textPath></text><path d="M 107.59598834532513 119.57807347666477 l 16.294405898565614 41.99757311858579 a66.04779474556074,66.04779474556074 0 0,0 -1.0634631550755778,0.40211076832466713 l -15.569072522729764 -42.271832137017086" fill="#3fff2d" stroke="none" /><path d="M 104.48393922423573 120.51570834832081 l 5.45978046262465 24.98054902520659 a46.57023723591175,46.57023723591175 0 0,0 -0.7846165513011951,0.16442402700899952 l -5.028972449894076 -25.07082903294213" fill="#ff7d0b" stroke="none" /><line stroke="#e1ed5e" stroke-width="0.3" x1="102.19456741930631" x2="102.32365962044197" y1="184.97166512339345" y2="189.96999836594603" /><path d="M 102.22038585953345 185.97133177190398 a86.0,86.0 0 0,1 -42.740103519485714,-10.115201625700543" fill="none" id="id79" stroke="none" /><text fill="#e1ed5e" style="font-size:6.75px; font-family:Arial;" text-anchor="middle"><textPath startOffset="22.20632615414155" xlink:href="#id79">July</textPath></text><path d="M 99.45781275523022 120.99299961872073 l -0.8852801589587209 34.27724687136962 a55.288677052937814,55.288677052937814 0 0,0 -0.9511749429552194,-0.03276038825353849 l 1.4751754535885835 -34.256929684689986" fill="#e5ff1a" stroke="none" /><path d="M 98.01472825383883 120.90594882070398 l -3.727740126555427 39.2550513315598 a60.43165101152279,60.43165101152279 0 0,0 -1.0347262779547723,-0.10725360945050094 l 4.4028990011157925 -39.185068353653534" fill="#92ff23" stroke="none" /><path d="M 96.22490169976321 120.6578951692458 l -7.848271532585953 42.946900368069116 a64.65812200809896,64.65812200809896 0 0,0 -1.0931298711357027,-0.20950094147417261 l 8.58636901829335 -42.80544222824648" fill="#53ff2b" stroke="none" /><path d="M 95.51606077576429 120.51570834832081 l -12.451073747025246 56.96834520787781 a79.31313396806758,79.31313396806758 0 0,0 -1.3312515053451586,-0.3029885084337575 l 13.429845401763268 -56.74557996586637" fill="#45ffed" stroke="none" /><line stroke="#e1ed5e" stroke-width="0.3" x1="58.666819895761336" x2="56.23545636021788" y1="174.27360380694188" y2="178.64263932499728" /><path d="M 58.180547188652646 175.14741091055294 a86.0,86.0 0 0,1 -31.652253787137756,-30.449443065178592" fill="none" id="id80" stroke="none" /><text fill="#e1ed5e" style="font-size:6.75px; font-family:Arial;" text-anchor="middle"><textPath startOffset="22.20632615414155" xlink:href="#id80">August</textPath></text><path d="M 89.7882731507175 118.34994917583269 l -23.64344615572274 42.48605957664576 a69.6217832300385,69.6217832300385 0 0,0 -1.0421758765479532,-0.5917746618235321 l 24.371270799191898 -42.0727817490276" fill="#34ff59" stroke="none" /><path d="M 87.07902340077011 116.55440617244103 l -38.76292979768965 49.663218517323095 a84.0,84.0 0 0,0 -1.1321700291305676,-0.8994643439794774 l 39.61205731953757 -48.98862025933849" fill="#4dd2ff" stroke="none" /><path d="M 85.70375840098266 115.38237550388516 l -26.80955776717163 28.8463706920063 a60.38102956719076,60.38102956719076 0 0,0 -0.7552348928518844,-0.714121730576668 l 27.30212849441433 -28.3806143246837" fill="#92ff23" stroke="none" /><path d="M 84.19399662182784 113.82643327865904 l -38.197737272552736 33.41378925200334 a71.74986152611905,71.74986152611905 0 0,0 -0.8051615383756833,-0.9365847702999173 l 38.767241320499195 -32.751327382541895" fill="#37ff7b" stroke="none" /><line stroke="#e1ed5e" stroke-width="0.3" x1="26.63291911575756" x2="22.317208475507996" y1="142.92168965132927" y2="145.44649492493687" /><path d="M 25.769776987707644 143.4266507060508 a86.0,86.0 0 0,1 -11.730757126820373,-40.83630448921669" fill="none" id="id81" stroke="none" /><text fill="#e1ed5e" style="font-size:6.75px; font-family:Arial;" text-anchor="middle"><textPath startOffset="21.46611528233685" xlink:href="#id81">September</textPath></text><path d="M 81.18737489456691 109.33194174019688 l -35.72083047643001 17.71920224047967 a60.87415024755851,60.87415024755851 0 0,0 -0.4575612558534957,-0.9427117122254582 l 36.02054498889822 -17.101701572288928" fill="#8bff24" stroke="none" /><path d="M 80.45479744820244 107.68017299344265 l -45.14481063412126 17.73938921878162 a69.50504980974758,69.50504980974758 0 0,0 -0.42797145416849736,-1.1172984191361088 l 45.443476367883264 -16.959667232812354" fill="#33ff57" stroke="none" /><path d="M 79.18660465613746 102.79330883721812 l -24.49373712974373 3.2872374377487676 a45.71333827213806,45.71333827213806 0 0,0 -0.09795386807307183,-0.7807887062128491 l 24.54669250706365 -2.86513097724851" fill="#ff6c0a" stroke="none" /><line stroke="#e1ed5e" stroke-width="0.3" x1="15.007084014347285" x2="10.007500721073583" y1="101.09737516637583" y2="101.16192664675087" /><path d="M 14.007167355692545 101.11028546245083 a86.0,86.0 0 0,1 10.666146001902534,-42.60595125391555" fill="none" id="id82" stroke="none" /><text fill="#e1ed5e" style="font-size:6.75px; font-family:Arial;" text-anchor="middle"><textPath startOffset="22.20632615414155" xlink:href="#id82">October</textPath></text><path d="M 79.16333360222342 97.38593545837743 l -42.77718046669135 -5.366612322425021 a64.11250046679135,64.11250046679135 0 0,0 0.14679931108808678,-1.0938253791248715 l 42.67846515654543 6.102156043614552" fill="#5aff2a" stroke="none" /><path d="M 79.71946130924805 94.55025226153421 l -37.80647419443364 -10.159283753859725 a60.147676015388384,60.147676015388384 0 0,0 0.2772900360941903,-0.9975597943704453 l 37.62599738777309 10.808554851649113" fill="#96ff23" stroke="none" /><path d="M 80.2630227832202 92.82701384747504 l -50.86006665635902 -18.484013526265887 a75.1147404717833,75.1147404717833 0 0,0 0.45210278721545233,-1.211410698373273 l 50.53435928064194 19.3567473616685" fill="#3dffb0" stroke="none" /><path d="M 81.6062741919709 89.86733742301443 l -45.6003569343169 -25.12014341345922 a73.06163806153108,73.06163806153108 0 0,0 0.6163005189170638,-1.0963298544935631 l 45.161198774107405 25.901356777887568" fill="#3aff90" stroke="none" /><line stroke="#e1ed5e" stroke-width="0.3" x1="26.266209847984243" x2="21.928928074336255" y1="57.711370442889674" y2="55.22380399835377" /><path d="M 25.398753493254645 57.213857153982495 a86.0,86.0 0 0,1 29.58750427330803,-30.492523968695096" fill="none" id="id83" stroke="none" /><text fill="#e1ed5e" style="font-size:6.75px; font-family:Arial;" text-anchor="middle"><textPath startOffset="21.46611528233685" xlink:href="#id83">November</textPath></text><path d="M 84.07557802195018 86.31012108654704 l -18.952189252866507 -16.292784527703216 a45.99280506751161,45.99280506751161 0 0,0 0.5212696106164739,-0.5959012754981121 l 18.668927778672188 16.61660135940427" fill="#ff720a" stroke="none" /><path d="M 84.5562425177563 85.77008943001954 l -43.97355331739081 -40.51732435388063 a80.79403786461474,80.79403786461474 0 0,0 0.9511869690518613,-1.0146599389910353 l 43.269599026368496 41.268253709749715" fill="#47fcff" stroke="none" /><line stroke="#e1ed5e" stroke-width="0.3" x1="56.762969772571076" x2="54.21961505331055" y1="26.818313649435495" y2="22.513508569990535" /><path d="M 56.25429882871897 25.957352633546506 a86.0,86.0 0 0,1 42.265352541879196,-11.944610805530505" fill="none" id="id84" stroke="none" /><text fill="#e1ed5e" style="font-size:6.75px; font-family:Arial;" text-anchor="middle"><textPath startOffset="22.20632615414155" xlink:href="#id84">December</textPath></text></svg>
